<svg width="24" height="24" viewBox="0 0 24 24" fill="none" xmlns="http://www.w3.org/2000/svg">
<g clip-path="url(#clip0_2442_46455)">
<circle cx="12" cy="12" r="12" fill="#F9F9F9"/>
<path d="M19.5836 5L13.1758 9.74264L14.3674 6.94765L19.5836 5Z" fill="#E17726"/>
<path d="M5.35938 5.00586L10.5616 6.94828L11.6931 9.77991L5.35938 5.00586Z" fill="#E27625"/>
<path d="M17.008 15.0859L19.8402 15.1399L18.8504 18.5033L15.3945 17.5515L17.008 15.0859Z" fill="#E27625"/>
<path d="M7.92396 15.0859L9.53148 17.5515L6.08143 18.5033L5.09766 15.1399L7.92396 15.0859Z" fill="#E27625"/>
<path d="M11.5429 9.06055L11.6586 12.7998L8.19531 12.6422L9.18043 11.1556L9.1929 11.1412L11.5429 9.06055Z" fill="#E27625"/>
<path d="M13.3605 9.01562L15.7463 11.1382L15.7586 11.1524L16.7438 12.639L13.2812 12.7966L13.3605 9.01562Z" fill="#E27625"/>
<path d="M9.63377 15.0977L11.5249 16.5715L9.32812 17.6324L9.63377 15.0977Z" fill="#E27625"/>
<path d="M15.2975 15.0977L15.5968 17.6326L13.4062 16.5716L15.2975 15.0977Z" fill="#E27625"/>
<path d="M13.4531 16.4336L15.676 17.5103L13.6083 18.4933L13.6298 17.8436L13.4531 16.4336Z" fill="#D5BFB2"/>
<path d="M11.4745 16.4336L11.3048 17.8325L11.3187 18.492L9.24609 17.5098L11.4745 16.4336Z" fill="#D5BFB2"/>
<path d="M10.8343 13.2852L11.4152 14.5063L9.4375 13.9268L10.8343 13.2852Z" fill="#233447"/>
<path d="M14.0964 13.2852L15.4998 13.9266L13.5156 14.506L14.0964 13.2852Z" fill="#233447"/>
<path d="M9.78703 15.084L9.46733 17.712L7.75391 15.1414L9.78703 15.084Z" fill="#CC6228"/>
<path d="M15.1445 15.084L17.1777 15.1414L15.4578 17.7121L15.1445 15.084Z" fill="#CC6228"/>
<path d="M16.7904 12.4922L15.3107 14.0006L14.1699 13.4791L13.6237 14.6277L13.2656 12.6526L16.7904 12.4922Z" fill="#CC6228"/>
<path d="M8.14453 12.4922L11.6699 12.6526L11.3118 14.6277L10.7655 13.4793L9.63071 14.0006L8.14453 12.4922Z" fill="#CC6228"/>
<path d="M8.03906 12.1797L9.71314 13.8789L9.77116 15.5564L8.03906 12.1797Z" fill="#E27525"/>
<path d="M16.8914 12.1777L15.1562 15.5605L15.2216 13.88L16.8914 12.1777Z" fill="#E27525"/>
<path d="M11.5864 12.2871L11.6538 12.7113L11.8203 13.7681L11.7133 17.0138L11.2072 14.4065L11.207 14.3795L11.5864 12.2871Z" fill="#E27525"/>
<path d="M13.3474 12.2812L13.7278 14.3795L13.7276 14.4065L13.2203 17.0203L13.2003 16.3665L13.1211 13.7488L13.3474 12.2812Z" fill="#E27525"/>
<path d="M15.3711 13.8145L15.3144 15.2719L13.5484 16.6482L13.1914 16.3959L13.5916 14.3341L15.3711 13.8145Z" fill="#F5841F"/>
<path d="M9.56641 13.8145L11.3397 14.3341L11.7399 16.3959L11.3829 16.6482L9.61681 15.2718L9.56641 13.8145Z" fill="#F5841F"/>
<path d="M8.91016 17.1855L11.1695 18.2564L11.16 17.7991L11.349 17.6331H13.5852L13.7811 17.7986L13.7666 18.2555L16.0117 17.1883L14.9192 18.0912L13.5982 18.9988H11.3309L10.0108 18.0875L8.91016 17.1855Z" fill="#C0AC9D"/>
<path d="M13.2984 16.2891L13.6178 16.5148L13.805 18.0088L13.5341 17.78H11.4064L11.1406 18.0134L11.3217 16.5149L11.6412 16.2891H13.2984Z" fill="#161616"/>
<path d="M19.1654 5.13086L19.9345 7.43903L19.4542 9.77282L19.7962 10.0368L19.3334 10.39L19.6812 10.6587L19.2206 11.0784L19.5034 11.2832L18.7529 12.16L15.6746 11.2635L15.6479 11.2492L13.4297 9.37739L19.1654 5.13086Z" fill="#763E1A"/>
<path d="M5.76919 5.13086L11.5049 9.37739L9.28661 11.2492L9.25994 11.2635L6.18165 12.16L5.43116 11.2832L5.71373 11.0785L5.25331 10.6587L5.60052 10.3903L5.13075 10.0361L5.4857 9.77194L5 7.43912L5.76919 5.13086Z" fill="#763E1A"/>
<path d="M15.5255 11.0684L18.7871 12.0182L19.8468 15.285L17.0512 15.285L15.125 15.3093L16.5258 12.578L15.5255 11.0684Z" fill="#F5841F"/>
<path d="M9.40913 11.0684L8.40863 12.578L9.80966 15.3093L7.88437 15.285H5.09375L6.14745 12.0182L9.40913 11.0684Z" fill="#F5841F"/>
<path d="M14.5305 6.92969L13.6183 9.39431L13.4247 12.7238L13.3506 13.7674L13.3447 16.4332H11.5882L11.5825 13.7724L11.5082 12.7229L11.3145 9.39431L10.4023 6.92969H14.5305Z" fill="#F5841F"/>
</g>
<defs>
<clipPath id="clip0_2442_46455">
<rect width="24" height="24" rx="12" fill="white"/>
</clipPath>
</defs>
</svg>
