<svg width="24" height="24" viewBox="0 0 24 24" fill="none" xmlns="http://www.w3.org/2000/svg">
<path d="M12 24C18.6274 24 24 18.6274 24 12C24 5.37259 18.6274 0 12 0C5.37259 0 0 5.37259 0 12C0 18.6274 5.37259 24 12 24Z" fill="#3375BB"/>
<path fill-rule="evenodd" clip-rule="evenodd" d="M11.6039 4.67435C11.8822 4.44188 12.287 4.44188 12.5654 4.67435C14.6044 6.37721 16.9293 6.36405 17.829 6.35895C17.8738 6.3587 17.9152 6.35846 17.9527 6.35846C18.1536 6.35846 18.3461 6.43904 18.4871 6.58215C18.628 6.72526 18.7057 6.91893 18.7026 7.11978C18.6601 9.94195 18.5469 11.9562 18.325 13.4324C18.1031 14.9077 17.763 15.9189 17.2149 16.6806C16.6629 17.4478 15.9534 17.8834 15.1979 18.3009C15.067 18.3733 14.9335 18.4457 14.7969 18.5198C14.1338 18.8795 13.3967 19.2793 12.5218 19.9069C12.2605 20.0944 11.9088 20.0944 11.6475 19.9069C10.7734 19.2799 10.0373 18.8803 9.37515 18.5208C9.23787 18.4463 9.10377 18.3735 8.97228 18.3008C8.21741 17.8831 7.50888 17.4474 6.95794 16.68C6.41103 15.9182 6.07205 14.9071 5.85104 13.432C5.62988 11.956 5.51728 9.94186 5.47469 7.11978C5.47166 6.91893 5.54933 6.72526 5.69029 6.58215C5.83126 6.43904 6.02374 6.35846 6.22461 6.35846C6.26176 6.35846 6.30268 6.3587 6.34716 6.35895C7.23957 6.36405 9.56473 6.37734 11.6039 4.67435ZM6.98808 7.85378C7.03843 10.2592 7.14793 11.9647 7.33448 13.2098C7.54018 14.5827 7.83 15.3226 8.17646 15.8052C8.51888 16.2822 8.96829 16.5843 9.6984 16.9882C9.81732 17.054 9.94274 17.122 10.0745 17.1935C10.636 17.498 11.3119 17.8645 12.0846 18.3844C12.8584 17.8638 13.5354 17.4971 14.0979 17.1923C14.229 17.1212 14.3539 17.0535 14.4724 16.9881C15.2034 16.584 15.6539 16.2818 15.9973 15.8046C16.3446 15.3219 16.6353 14.582 16.8417 13.2094C17.0288 11.9645 17.1388 10.2591 17.1892 7.85392C16.0346 7.81669 14.0011 7.57824 12.0846 6.19873C10.1705 7.57659 8.13986 7.81611 6.98808 7.85378Z" fill="white"/>
</svg>
