<svg width="24" height="24" viewBox="0 0 24 24" fill="none" xmlns="http://www.w3.org/2000/svg">
<g clip-path="url(#clip0_2442_46560)">
<path fill-rule="evenodd" clip-rule="evenodd" d="M12 0C18.6281 0 24 5.37188 24 12C24 18.6281 18.6281 24 12 24C5.37188 24 0 18.6281 0 12C0 5.37188 5.37188 0 12 0Z" fill="url(#paint0_radial_2442_46560)"/>
<path d="M7.625 9.26641C10.0391 6.90859 13.9578 6.90859 16.3719 9.26641L16.6625 9.55234C16.7844 9.66953 16.7844 9.86172 16.6625 9.97891L15.6687 10.9492C15.6078 11.0102 15.5094 11.0102 15.4484 10.9492L15.05 10.5602C13.3625 8.91484 10.6344 8.91484 8.94687 10.5602L8.52031 10.9773C8.45937 11.0383 8.36094 11.0383 8.3 10.9773L7.30625 10.007C7.18438 9.88984 7.18438 9.69766 7.30625 9.58047L7.625 9.26641ZM18.4297 11.2727L19.3156 12.1352C19.4375 12.2523 19.4375 12.4445 19.3156 12.5617L15.3266 16.457C15.2047 16.5742 15.0078 16.5742 14.8906 16.457L12.0594 13.6914C12.0312 13.6633 11.9797 13.6633 11.9516 13.6914L9.12031 16.457C8.99844 16.5742 8.80156 16.5742 8.68437 16.457L4.68125 12.5617C4.55938 12.4445 4.55938 12.2523 4.68125 12.1352L5.56719 11.2727C5.68906 11.1555 5.88594 11.1555 6.00313 11.2727L8.83438 14.0383C8.8625 14.0664 8.91406 14.0664 8.94219 14.0383L11.7734 11.2727C11.8953 11.1555 12.0922 11.1555 12.2094 11.2727L15.0406 14.0383C15.0687 14.0664 15.1203 14.0664 15.1484 14.0383L17.9797 11.2727C18.1109 11.1555 18.3078 11.1555 18.4297 11.2727Z" fill="white"/>
</g>
<defs>
<radialGradient id="paint0_radial_2442_46560" cx="0" cy="0" r="1" gradientUnits="userSpaceOnUse" gradientTransform="translate(7.43866e-05 12.0004) scale(24)">
<stop stop-color="#5D9DF6"/>
<stop offset="1" stop-color="#006FFF"/>
</radialGradient>
<clipPath id="clip0_2442_46560">
<rect width="24" height="24" rx="12" fill="white"/>
</clipPath>
</defs>
</svg>
