<svg width="250" height="84" viewBox="0 0 250 84" fill="none" xmlns="http://www.w3.org/2000/svg">
<path fillRule="evenodd" clipuleR="evenodd" d="M113.737 13.4951C115.843 14.7109 117.248 16.6744 117.811 18.8566C119.967 18.2357 122.281 18.4276 124.281 19.5825C126.017 20.5848 127.243 22.1539 127.89 23.9747C129.31 24.612 130.711 25.5629 131.969 26.8059C136.055 30.8438 137.076 36.4358 134.25 39.2959C131.423 42.156 125.819 41.2012 121.733 37.1633C121.617 37.0484 121.503 36.9323 121.392 36.815C119.177 37.5094 116.779 37.3432 114.715 36.1513C112.332 34.7754 110.91 32.3314 110.628 29.6344C108.763 29.9039 106.799 29.5724 105.041 28.5576C100.882 26.1562 99.4565 20.8376 101.858 16.6782C104.259 12.5188 109.578 11.0937 113.737 13.4951Z" fill="url(#paint0_linear)"/>
<ellipse cx="92.9788" cy="12.1259" rx="2.6089" ry="6.95706" transform="rotate(-41.1113 92.9788 12.1259)" fill="url(#paint1_linear)"/>
<ellipse cx="104.146" cy="7.56037" rx="1.72091" ry="5.30258" transform="rotate(13.8516 104.146 7.56037)" fill="url(#paint2_linear)"/>
<ellipse cx="93.1197" cy="23.6586" rx="1.72091" ry="5.30258" transform="rotate(67.9703 93.1197 23.6586)" fill="url(#paint3_linear)"/>
<path fillRule="evenodd" clipuleR="evenodd" d="M189.618 57.425C192.607 56.6546 195.297 54.73 196.962 51.8453C200.252 46.1476 198.3 38.8618 192.602 35.5722C186.904 32.2826 179.618 34.2348 176.329 39.9326C174.939 42.3404 174.485 45.0318 174.854 47.5853C171.159 47.9728 167.811 49.9202 165.926 53.1846C164.294 56.0126 164.066 59.2974 165.017 62.3314C164.857 62.4839 164.697 62.6397 164.54 62.7989C159.009 68.396 157.701 76.0722 161.619 79.9441C165.537 83.8161 173.197 82.4176 178.728 76.8205C180.431 75.0975 181.734 73.1774 182.607 71.232C185.101 70.3456 187.25 68.6665 188.623 66.2886C190.205 63.5484 190.468 60.3792 189.618 57.425Z" fill="url(#paint4_linear)"/>
<ellipse rx="3.57382" ry="9.53019" transform="matrix(-0.981255 -0.192715 -0.192715 0.981255 198.199 23.0401)" fill="url(#paint5_linear)"/>
<ellipse rx="2.3574" ry="7.26378" transform="matrix(-0.721137 0.692793 0.692793 0.721137 181.824 25.2728)" fill="url(#paint6_linear)"/>
<ellipse rx="2.3574" ry="7.26378" transform="matrix(0.13866 0.99034 0.99034 -0.13866 205.931 36.8182)" fill="url(#paint7_linear)"/>
<path fillRule="evenodd" clipuleR="evenodd" d="M55.9172 58.7887C55.4844 60.5848 54.356 62.0312 52.8869 62.9106C53.8036 64.3485 54.1617 66.0757 53.7506 67.782C53.3939 69.2627 52.5142 70.4937 51.3265 71.357C51.1677 72.5289 50.7765 73.7548 50.1415 74.9388C48.0785 78.7851 44.2234 80.7325 41.5309 79.2884C38.8385 77.8443 38.3282 73.5555 40.3913 69.7091C40.45 69.5997 40.5101 69.4918 40.5717 69.3855C39.5891 67.921 39.1942 66.138 39.6184 64.3772C40.1081 62.3447 41.583 60.7828 43.4874 59.9962C42.8898 58.6958 42.7085 57.1927 43.0697 55.6935C43.9244 52.1457 47.4933 49.9626 51.041 50.8173C54.5888 51.6721 56.7719 55.241 55.9172 58.7887Z" fill="url(#paint8_linear)"/>
<ellipse cx="54.2459" cy="41.9938" rx="1.87946" ry="5.0119" transform="rotate(33.8887 54.2459 41.9938)" fill="#8ED476"/>
<ellipse cx="59.5051" cy="48.9134" rx="1.23975" ry="3.82" transform="rotate(88.8516 59.5051 48.9134)" fill="#8ED476"/>
<ellipse cx="46.247" cy="44.2421" rx="1.23975" ry="3.82" transform="rotate(142.97 46.247 44.2421)" fill="#8ED476"/>
<ellipse cx="81.4483" cy="63.1016" rx="4.18362" ry="5.97661" transform="rotate(-45 81.4483 63.1016)" fill="#E2D348"/>
<ellipse cx="81.4483" cy="63.1016" rx="4.18362" ry="5.97661" transform="rotate(-45 81.4483 63.1016)" fill="url(#paint9_radial)"/>
<ellipse cx="63.7631" cy="26.2846" rx="2.44988" ry="3.49982" transform="rotate(-135 63.7631 26.2846)" fill="#E2D348"/>
<ellipse cx="63.7631" cy="26.2846" rx="2.44988" ry="3.49982" transform="rotate(-135 63.7631 26.2846)" fill="url(#paint10_radial)"/>
<ellipse rx="3.32336" ry="4.74765" transform="matrix(0.707107 -0.707107 -0.707107 -0.707107 156.207 24.7071)" fill="#E2D348"/>
<ellipse rx="3.32336" ry="4.74765" transform="matrix(0.707107 -0.707107 -0.707107 -0.707107 156.207 24.7071)" fill="url(#paint11_radial)"/>
<ellipse cx="81.9496" cy="40.9917" rx="2.44987" ry="3.49982" fill="#E2D348"/>
<ellipse cx="81.9496" cy="40.9917" rx="2.44987" ry="3.49982" fill="url(#paint12_radial)"/>
<ellipse rx="2.44987" ry="3.49982" transform="matrix(-1 0 0 1 138.95 61.9493)" fill="#E2D348"/>
<ellipse rx="2.44987" ry="3.49982" transform="matrix(-1 0 0 1 138.95 61.9493)" fill="url(#paint13_radial)"/>
<defs>
<linearGradient id="paint0_linear" x1="119.453" y1="24.6734" x2="134.249" y2="39.2959" gradientUnits="userSpaceOnUse">
<stop stop-color="#C1E73B"/>
<stop offset="0.546875" stop-color="#B9DD3A"/>
</linearGradient>
<linearGradient id="paint1_linear" x1="92.9788" y1="5.16882" x2="92.9788" y2="19.0829" gradientUnits="userSpaceOnUse">
<stop stop-color="#8ED576"/>
<stop offset="1" stop-color="#B1E1A0"/>
</linearGradient>
<linearGradient id="paint2_linear" x1="104.146" y1="2.25779" x2="104.146" y2="12.8629" gradientUnits="userSpaceOnUse">
<stop stop-color="#8ED576"/>
<stop offset="1" stop-color="#B1E1A0"/>
</linearGradient>
<linearGradient id="paint3_linear" x1="93.1197" y1="18.356" x2="93.1197" y2="28.9612" gradientUnits="userSpaceOnUse">
<stop stop-color="#8ED576"/>
<stop offset="1" stop-color="#B1E1A0"/>
</linearGradient>
<linearGradient id="paint4_linear" x1="192.602" y1="35.5722" x2="180.689" y2="56.2057" gradientUnits="userSpaceOnUse">
<stop offset="0.015625" stop-color="#DEFB76"/>
<stop offset="1" stop-color="#C2EF20"/>
</linearGradient>
<linearGradient id="paint5_linear" x1="3.57382" y1="0" x2="3.57382" y2="19.0604" gradientUnits="userSpaceOnUse">
<stop stop-color="#8ED576"/>
<stop offset="1" stop-color="#B1E1A0"/>
</linearGradient>
<linearGradient id="paint6_linear" x1="2.3574" y1="0" x2="2.3574" y2="14.5276" gradientUnits="userSpaceOnUse">
<stop stop-color="#8ED576"/>
<stop offset="1" stop-color="#B1E1A0"/>
</linearGradient>
<linearGradient id="paint7_linear" x1="2.3574" y1="0" x2="2.3574" y2="14.5276" gradientUnits="userSpaceOnUse">
<stop stop-color="#8ED576"/>
<stop offset="1" stop-color="#B1E1A0"/>
</linearGradient>
<linearGradient id="paint8_linear" x1="47.6134" y1="50.632" x2="47.6134" y2="79.7651" gradientUnits="userSpaceOnUse">
<stop offset="0.0833333" stop-color="#B3DC20"/>
<stop offset="1" stop-color="#98BB1A"/>
</linearGradient>
<radialGradient id="paint9_radial" cx="0" cy="0" r="1" gradientUnits="userSpaceOnUse" gradientTransform="translate(81.4483 63.1016) rotate(90) scale(5.97661 5.48125)">
<stop stop-color="#E2D348" stop-opacity="0"/>
<stop offset="1" stop-color="#DFCC1E"/>
</radialGradient>
<radialGradient id="paint10_radial" cx="0" cy="0" r="1" gradientUnits="userSpaceOnUse" gradientTransform="translate(63.7631 26.2846) rotate(90) scale(3.49982 3.20975)">
<stop stop-color="#E2D348" stop-opacity="0"/>
<stop offset="1" stop-color="#DFCC1E"/>
</radialGradient>
<radialGradient id="paint11_radial" cx="0" cy="0" r="1" gradientUnits="userSpaceOnUse" gradientTransform="translate(3.32336 4.74765) rotate(90) scale(4.74765 4.35416)">
<stop stop-color="#E2D348" stop-opacity="0"/>
<stop offset="1" stop-color="#DFCC1E"/>
</radialGradient>
<radialGradient id="paint12_radial" cx="0" cy="0" r="1" gradientUnits="userSpaceOnUse" gradientTransform="translate(81.9496 40.9917) rotate(90) scale(3.49982 3.20975)">
<stop stop-color="#E2D348" stop-opacity="0"/>
<stop offset="1" stop-color="#DFCC1E"/>
</radialGradient>
<radialGradient id="paint13_radial" cx="0" cy="0" r="1" gradientUnits="userSpaceOnUse" gradientTransform="translate(2.44987 3.49982) rotate(90) scale(3.49982 3.20975)">
<stop stop-color="#E2D348" stop-opacity="0"/>
<stop offset="1" stop-color="#DFCC1E"/>
</radialGradient>
</defs>
</svg>
