<svg width="202" height="134" viewBox="0 0 202 134" fill="none" xmlns="http://www.w3.org/2000/svg">
<path fillRule="evenodd" clipuleR="evenodd" d="M86.1877 80.9948C85.4098 84.2237 83.3813 86.8237 80.7403 88.4047C82.3882 90.9896 83.032 94.0945 82.293 97.1618C81.6517 99.8237 80.0704 102.037 77.9354 103.589C77.6499 105.695 76.9467 107.899 75.8051 110.027C72.0964 116.942 65.1663 120.443 60.3261 117.847C55.4859 115.251 54.5687 107.541 58.2773 100.626C58.3828 100.43 58.491 100.236 58.6016 100.044C56.8352 97.4119 56.1253 94.2065 56.8879 91.0412C57.7681 87.3874 60.4196 84.5797 63.843 83.1656C62.7687 80.8279 62.4427 78.1259 63.0921 75.4306C64.6286 69.0529 71.0443 65.1284 77.422 66.6649C83.7997 68.2014 87.7242 74.6172 86.1877 80.9948Z" fill="url(#paint0_linear)"/>
<ellipse cx="83.1835" cy="50.8029" rx="3.37867" ry="9.00978" transform="rotate(33.8887 83.1835 50.8029)" fill="#5DAC42"/>
<ellipse cx="92.6379" cy="63.2422" rx="2.22867" ry="6.86713" transform="rotate(88.8516 92.6379 63.2422)" fill="#5DAC42"/>
<ellipse cx="68.804" cy="54.8448" rx="2.22867" ry="6.86713" transform="rotate(142.97 68.804 54.8448)" fill="#5DAC42"/>
<ellipse cx="132.085" cy="88.748" rx="7.52081" ry="10.744" transform="rotate(-45 132.085 88.748)" fill="#E2D348"/>
<ellipse cx="132.085" cy="88.748" rx="7.52081" ry="10.744" transform="rotate(-45 132.085 88.748)" fill="url(#paint1_radial)"/>
<ellipse cx="100.292" cy="22.563" rx="4.40409" ry="6.29156" transform="rotate(-135 100.292 22.563)" fill="#E2D348"/>
<ellipse cx="100.292" cy="22.563" rx="4.40409" ry="6.29156" transform="rotate(-135 100.292 22.563)" fill="url(#paint2_radial)"/>
<ellipse cx="132.986" cy="49.0011" rx="4.40409" ry="6.29155" fill="#E2D348"/>
<ellipse cx="132.986" cy="49.0011" rx="4.40409" ry="6.29155" fill="url(#paint3_radial)"/>
<ellipse cx="24.3477" cy="94.3477" rx="3.02557" ry="4.32224" transform="rotate(150 24.3477 94.3477)" fill="#E2D348"/>
<ellipse cx="24.3477" cy="94.3477" rx="3.02557" ry="4.32224" transform="rotate(150 24.3477 94.3477)" fill="url(#paint4_radial)"/>
<path opacity="0.5" d="M110.246 51.1226C110.174 50.4818 111.062 50.2438 111.321 50.8345L112.855 54.334C112.954 54.5597 113.188 54.6956 113.433 54.6678L117.231 54.2461C117.872 54.1752 118.11 55.0635 117.519 55.3227L114.019 56.8562C113.794 56.9551 113.658 57.1895 113.686 57.4343L114.107 61.2318C114.18 61.8726 113.291 62.1106 113.032 61.5199L111.498 58.0204C111.4 57.7947 111.165 57.6588 110.92 57.6866L107.123 58.1083C106.482 58.1792 106.244 57.2909 106.834 57.0317L110.334 55.4982C110.56 55.3993 110.696 55.1649 110.668 54.9201L110.246 51.1226Z" fill="#B8D6A0"/>
<defs>
<linearGradient id="paint0_linear" x1="71.2603" y1="66.3318" x2="71.2603" y2="118.704" gradientUnits="userSpaceOnUse">
<stop offset="0.0833333" stop-color="#A0C61A"/>
<stop offset="1" stop-color="#93AF2D"/>
</linearGradient>
<radialGradient id="paint1_radial" cx="0" cy="0" r="1" gradientUnits="userSpaceOnUse" gradientTransform="translate(132.085 88.748) rotate(90) scale(10.744 9.85354)">
<stop stop-color="#E2D348" stop-opacity="0"/>
<stop offset="1" stop-color="#DFCC1E"/>
</radialGradient>
<radialGradient id="paint2_radial" cx="0" cy="0" r="1" gradientUnits="userSpaceOnUse" gradientTransform="translate(100.292 22.563) rotate(90) scale(6.29156 5.7701)">
<stop stop-color="#E2D348" stop-opacity="0"/>
<stop offset="1" stop-color="#DFCC1E"/>
</radialGradient>
<radialGradient id="paint3_radial" cx="0" cy="0" r="1" gradientUnits="userSpaceOnUse" gradientTransform="translate(132.986 49.0011) rotate(90) scale(6.29155 5.7701)">
<stop stop-color="#E2D348" stop-opacity="0"/>
<stop offset="1" stop-color="#DFCC1E"/>
</radialGradient>
<radialGradient id="paint4_radial" cx="0" cy="0" r="1" gradientUnits="userSpaceOnUse" gradientTransform="translate(24.3477 94.3477) rotate(90) scale(4.32224 3.964)">
<stop stop-color="#E2D348" stop-opacity="0"/>
<stop offset="1" stop-color="#DFCC1E"/>
</radialGradient>
</defs>
</svg>
