<svg width="25" height="24" viewBox="0 0 25 24" fill="none" xmlns="http://www.w3.org/2000/svg">
<g clip-path="url(#clip0_1847_119233)">
<circle cx="11.916" cy="12" r="12" fill="#F5F5F5"/>
<path d="M16.5993 11.7145C16.7244 11.652 16.912 11.777 16.912 11.9021L17.1622 12.8402C17.2247 12.9652 17.0996 13.1528 16.9746 13.1528C16.8495 13.2154 16.6619 13.0903 16.6619 12.9652L16.4117 12.0272C16.3492 11.9021 16.4117 11.7145 16.5993 11.7145ZM9.40778 4.71055C9.34524 4.58548 9.34524 4.39788 9.47031 4.33534L10.2833 3.77252C10.4083 3.70999 10.5959 3.70999 10.6585 3.83506C10.721 4.02266 10.721 4.14773 10.5959 4.2728L9.78299 4.83562C9.65792 4.83562 9.47031 4.83562 9.40778 4.71055Z" fill="white"/>
<path fill-rule="evenodd" clip-rule="evenodd" d="M13.5975 8.02468C12.6595 7.83707 11.6589 7.96214 10.7834 8.52496C12.0342 8.08721 13.4725 8.39989 14.473 9.40046C15.8488 10.8388 15.8488 13.1526 14.473 14.5284C14.2854 14.716 14.0978 14.841 13.9102 14.9661C14.4105 14.7785 14.9108 14.5284 15.286 14.0906C16.2866 13.09 16.5367 11.6517 16.1615 10.401C15.0984 10.0258 14.1604 9.15031 13.5975 8.02468Z" fill="#FFAE54"/>
<path d="M19.5384 16.1545C17.2871 20.3443 12.0341 21.9077 7.90681 19.5939C3.71694 17.3426 2.21609 12.0271 4.46736 7.83726C5.96821 5.08571 8.71977 3.45979 11.6589 3.33472C12.0341 3.33472 12.3468 3.52232 12.5344 3.89754C12.722 4.27275 12.8471 4.77303 12.7846 5.27331V5.83613C12.7846 6.71163 13.0347 7.58712 13.4099 8.33755C11.5964 7.64966 9.53273 8.40008 8.5947 10.1511C7.5316 12.0897 8.28202 14.466 10.1581 15.5291C12.0341 16.5922 14.473 15.8418 15.4736 13.9657C16.0364 12.9026 16.0989 11.6519 15.6612 10.5888C16.4116 10.964 17.2246 11.1516 18.1001 11.1516C18.6004 11.1516 19.0381 11.0891 19.5384 10.964C19.7885 10.9015 20.1012 10.9015 20.2888 11.0266C20.4764 11.1516 20.6015 11.2767 20.6015 11.4643C20.664 13.0277 20.2888 14.6536 19.5384 16.1545Z" fill="url(#paint0_radial_1847_119233)"/>
<path fill-rule="evenodd" clip-rule="evenodd" d="M11.6517 3H11.6589C12.1659 3 12.5916 3.26381 12.8336 3.74776C13.0421 4.16473 13.1852 4.72259 13.1191 5.2932V5.83598C13.1191 6.64998 13.3524 7.47443 13.7091 8.18777L14.0922 8.95405L13.2912 8.65021C11.634 8.02164 9.74778 8.70685 8.88954 10.3089L8.88799 10.3118C7.91679 12.0828 8.59885 14.2609 10.323 15.2379C12.0312 16.2059 14.2637 15.5225 15.1781 13.8085C15.6955 12.8309 15.7505 11.6844 15.3518 10.7161L15.0115 9.88983L15.8107 10.2894C16.5127 10.6404 17.2741 10.8169 18.1 10.8169C18.5686 10.8169 18.9789 10.7589 19.4572 10.6393C19.6116 10.6007 19.7864 10.5808 19.9566 10.5908C20.1227 10.6006 20.3132 10.6406 20.4743 10.748C20.6713 10.8794 20.9324 11.09 20.9359 11.4566C20.9998 13.08 20.6098 14.7595 19.8376 16.3039L19.8354 16.3083L19.833 16.3127C17.4951 20.6639 12.0384 22.2917 7.7457 19.887C3.38921 17.5443 1.83752 12.0245 4.17257 7.67876L4.17357 7.6769C5.73174 4.82025 8.59061 3.13026 11.6446 3.0003L11.6517 3ZM11.6654 3.66916C8.84432 3.79182 6.20384 5.35288 4.76151 7.99639C2.59521 12.0293 4.04419 17.1386 8.06509 19.299L8.07036 19.3019C12.0305 21.5219 17.0758 20.0247 19.2413 16.0003C19.9675 14.5461 20.3271 12.9776 20.2671 11.4775L20.2669 11.4709V11.4642C20.2669 11.454 20.2664 11.4466 20.2513 11.4272C20.2298 11.3995 20.1871 11.3607 20.1032 11.3048C20.0767 11.2871 20.017 11.2646 19.9173 11.2588C19.8218 11.2532 19.7152 11.2645 19.6195 11.2885C19.0972 11.419 18.632 11.4861 18.1 11.4861C17.4312 11.4861 16.794 11.3822 16.1904 11.1737C16.3979 12.1507 16.256 13.2025 15.7692 14.1221L15.7687 14.123C14.6818 16.1609 12.0369 16.9782 9.99306 15.82C7.96551 14.6711 7.14664 12.0974 8.30047 9.99151C9.19867 8.31636 11.0481 7.48469 12.8235 7.82479C12.5927 7.20098 12.4499 6.52127 12.4499 5.83598V5.25233L12.4525 5.23166C12.5053 4.80917 12.3992 4.37524 12.2351 4.047C12.1031 3.78293 11.9059 3.67115 11.6654 3.66916Z" fill="#AC562A"/>
<path d="M17.2871 14.466L17.5998 14.3409C17.8499 14.9663 17.5372 15.5291 17.3496 15.9669V16.0294C17.2245 16.2795 17.0995 16.4671 17.0995 16.6548C17.0369 16.9674 17.0369 17.2801 17.0995 17.4677C17.162 17.6553 17.3496 17.8429 17.5998 17.9055C17.7874 17.968 18.1 17.9055 18.4753 17.6553C19.9761 15.9043 20.664 13.6531 20.5389 11.5269C20.5389 11.3392 20.4138 11.1516 20.2262 11.0266C20.0386 10.9015 19.726 10.9015 19.4758 10.964C19.0381 11.0891 18.5378 11.1516 18.1 11.1516C17.2245 11.1516 16.4116 10.964 15.6612 10.5263C16.0989 11.5894 16.0364 12.7776 15.5361 13.8407C15.4736 14.0283 15.3485 14.1533 15.2234 14.3409C15.4736 14.2784 15.7237 14.1533 16.0989 13.9032C16.5367 13.5905 17.0995 13.9032 17.2871 14.466ZM17.2871 14.466C17.4747 14.9663 17.2245 15.404 17.0369 15.8418C16.9119 16.0919 16.7868 16.3421 16.7243 16.5922L17.2871 14.466ZM11.2837 8.08741C10.4082 8.33755 9.7203 8.21248 9.22002 7.96234C8.71973 7.64966 8.28199 7.21191 8.09438 6.71163C7.84424 6.14881 7.7817 5.58599 7.90677 5.08571C8.03184 4.58542 8.28199 4.21021 8.6572 4.02261C9.7203 3.58486 10.8459 3.33472 11.909 3.33472C12.2217 3.33472 12.4719 3.52232 12.6595 3.835C12.8471 4.14768 12.9096 4.58542 12.8471 4.96064C12.7845 5.21078 12.7845 5.52346 12.7845 5.83613C12.7845 6.71163 13.0347 7.58712 13.4099 8.33755C12.722 8.02487 11.9716 7.96234 11.2837 8.08741Z" fill="#AC562A"/>
<path fill-rule="evenodd" clip-rule="evenodd" d="M8.79688 4.32682C8.54153 4.45889 8.34016 4.73196 8.23147 5.1667C8.12749 5.58262 8.175 6.06882 8.40023 6.57559L8.40427 6.58469L8.40777 6.594C8.55882 6.99681 8.92548 7.38043 9.38381 7.66989C9.80755 7.87776 10.4047 7.99048 11.1919 7.76556L11.2077 7.76103L11.224 7.75808C11.7332 7.6655 12.276 7.66701 12.8094 7.78591C12.587 7.17279 12.4501 6.50706 12.4501 5.83598C12.4501 5.82805 12.4501 5.82007 12.4501 5.81206C12.45 5.5222 12.45 5.1814 12.5191 4.8938C12.5676 4.58574 12.5108 4.23721 12.3727 4.00698C12.2208 3.75389 12.0632 3.66913 11.9092 3.66913C10.9006 3.66913 9.82283 3.90599 8.79688 4.32682ZM8.52994 3.71309C9.62654 3.26155 10.7955 3 11.9092 3C12.3805 3 12.7231 3.29045 12.9465 3.66272C13.1818 4.05492 13.2505 4.57596 13.1772 5.01549L13.175 5.02867L13.1718 5.04163C13.1213 5.24343 13.1192 5.51035 13.1192 5.83598C13.1192 6.64998 13.3526 7.47443 13.7093 8.18777L14.1319 9.03302L13.2716 8.64197C12.6571 8.36267 11.9828 8.30322 11.3592 8.41363C10.4117 8.68028 9.6432 8.54777 9.07052 8.26143L9.0563 8.25432L9.04282 8.24589C8.50981 7.91276 8.00928 7.42792 7.78483 6.83845C7.51299 6.22237 7.43686 5.58625 7.58232 5.00441C7.72236 4.44428 8.0174 3.96836 8.5077 3.72321L8.51863 3.71774L8.52994 3.71309ZM14.9752 9.73858L15.8299 10.2371C16.5218 10.6408 17.2748 10.8169 18.1002 10.8169C18.5099 10.8169 18.979 10.7579 19.384 10.6422L19.3894 10.6407L19.3948 10.6393C19.5492 10.6007 19.724 10.5808 19.8943 10.5908C20.0604 10.6006 20.2508 10.6406 20.4119 10.748C20.656 10.9107 20.8688 11.1857 20.8735 11.5156C21.0011 13.7221 20.287 16.0557 18.7294 17.8729L18.6994 17.9079L18.661 17.9335C18.2627 18.199 17.8415 18.3315 17.507 18.2269C17.1561 18.1349 16.8813 17.8706 16.7822 17.5734C16.6958 17.314 16.7033 16.9487 16.7659 16.6178C16.7661 16.6136 16.7664 16.6095 16.7666 16.6053L16.3998 16.5109C16.404 16.494 16.4085 16.4772 16.4132 16.4603L16.9359 14.4855C16.8622 14.3243 16.7488 14.2111 16.6373 14.1554C16.5158 14.0946 16.3998 14.0994 16.2935 14.1753L16.2891 14.1784L16.2846 14.1814C15.8977 14.4394 15.6099 14.5891 15.3047 14.6654L14.4651 14.8753L14.9452 14.1552C14.9837 14.0974 15.0375 14.0242 15.0789 13.968C15.1003 13.9389 15.1184 13.9143 15.1292 13.8988C15.1755 13.8327 15.2021 13.7848 15.2188 13.7347L15.2251 13.7159L15.2335 13.698C15.6974 12.7123 15.7508 11.6222 15.3519 10.6535L14.9752 9.73858ZM17.4539 14.0389L17.7863 13.9059L17.9105 14.2165C18.1909 14.9174 17.8982 15.5639 17.7159 15.9669C17.7049 15.9911 17.6943 16.0144 17.6843 16.0369V16.1082L17.649 16.1789C17.6144 16.2481 17.5864 16.3008 17.5618 16.3471C17.5319 16.4034 17.5071 16.4502 17.4815 16.5056C17.4414 16.5926 17.4342 16.6335 17.4342 16.6546V16.6877L17.4277 16.7202C17.3703 17.0072 17.3809 17.2534 17.417 17.3618C17.4419 17.4364 17.5373 17.5448 17.681 17.5807L17.6935 17.5838L17.7057 17.5879C17.7183 17.5921 17.7731 17.6026 17.8821 17.5739C17.9794 17.5483 18.1046 17.4952 18.2521 17.4013C19.6728 15.7241 20.3244 13.5752 20.2051 11.5463L20.2045 11.5365V11.5267C20.2045 11.4864 20.1692 11.3904 20.0408 11.3048C20.0143 11.2871 19.9546 11.2646 19.855 11.2588C19.7611 11.2533 19.6565 11.2641 19.562 11.2872C19.093 11.4205 18.564 11.486 18.1002 11.486C17.4391 11.486 16.8049 11.3845 16.2017 11.1546C16.3657 11.9531 16.2947 12.7828 16.0133 13.5626C16.318 13.3969 16.6544 13.4158 16.9365 13.5569C17.145 13.6611 17.3236 13.83 17.4539 14.0389Z" fill="#AC562A"/>
<path d="M5.46802 10.4636C5.70978 10.4636 5.90577 10.2676 5.90577 10.0259C5.90577 9.78412 5.70978 9.58813 5.46802 9.58813C5.22626 9.58813 5.03027 9.78412 5.03027 10.0259C5.03027 10.2676 5.22626 10.4636 5.46802 10.4636Z" fill="#AC562A"/>
<path d="M11.9714 18.2805C12.2132 18.2805 12.4092 18.0845 12.4092 17.8428C12.4092 17.601 12.2132 17.405 11.9714 17.405C11.7297 17.405 11.5337 17.601 11.5337 17.8428C11.5337 18.0845 11.7297 18.2805 11.9714 18.2805Z" fill="#AC562A"/>
<path d="M9.22015 18.9684C9.6346 18.9684 9.97058 18.6324 9.97058 18.218C9.97058 17.8035 9.6346 17.4675 9.22015 17.4675C8.8057 17.4675 8.46973 17.8035 8.46973 18.218C8.46973 18.6324 8.8057 18.9684 9.22015 18.9684Z" fill="#AC562A"/>
</g>
<defs>
<radialGradient id="paint0_radial_1847_119233" cx="0" cy="0" r="1" gradientUnits="userSpaceOnUse" gradientTransform="translate(13.1428 12.2538) rotate(90) scale(8.99259 8.90504)">
<stop offset="0.33" stop-color="#F7B450"/>
<stop offset="0.65" stop-color="#FFC977"/>
<stop offset="1" stop-color="#FF9900"/>
</radialGradient>
<clipPath id="clip0_1847_119233">
<rect x="0.0158691" width="24" height="24" rx="12" fill="white"/>
</clipPath>
</defs>
</svg>
