<svg width="25" height="25" viewBox="0 0 25 25" fill="none" xmlns="http://www.w3.org/2000/svg">
<g id="Icon=BB, Type=Network">
<g clip-path="url(#clip0_1847_119355)">
<g id="Group 48096211">
<path id="Vector" d="M12.0371 24.9863C18.6645 24.9863 24.0371 19.6137 24.0371 12.9863C24.0371 6.35891 18.6645 0.986328 12.0371 0.986328C5.40969 0.986328 0.0371094 6.35891 0.0371094 12.9863C0.0371094 19.6137 5.40969 24.9863 12.0371 24.9863Z" fill="#488AF8"/>
<path id="Vector_2" d="M17.8512 11.6307C18.4022 10.8865 18.7024 9.98649 18.7087 9.06053C18.7034 8.52004 18.5916 7.9859 18.3798 7.48861C18.1681 6.99132 17.8604 6.54063 17.4743 6.16229C17.0883 5.78396 16.6315 5.4854 16.1301 5.28366C15.6286 5.08192 15.0923 4.98096 14.5518 4.98655H8.31641V7.04272H4.54932V20.9863H11.5639C12.2832 20.9835 12.9892 20.7921 13.6114 20.4313C14.2337 20.0705 14.7505 19.553 15.1104 18.9302H15.331C16.4471 18.913 17.5109 18.4546 18.2899 17.6552C19.0689 16.8558 19.4996 15.7805 19.4879 14.6644C19.4879 13.4684 18.8124 12.4017 17.8512 11.6307ZM9.22573 5.87316H14.5518C15.4051 5.86531 16.2265 6.19664 16.8355 6.79429C17.4445 7.39195 17.7912 8.207 17.7994 9.06022C17.7955 9.80161 17.5541 10.5222 17.1107 11.1164C16.426 10.7088 15.6574 10.4627 14.8633 10.3967C14.6781 9.42152 14.1479 8.54561 13.3697 7.92933H13.4344C14.2017 7.92933 14.9284 7.91644 15.2792 8.25064C15.5179 8.54711 15.63 8.92586 15.591 9.30451H16.5003C16.5003 8.54618 16.3183 7.99378 15.9285 7.60832C15.3181 7.00436 14.357 7.01725 13.4476 7.01725H9.23862V5.87316H9.22573ZM14.9284 11.2965C15.4685 11.3666 15.9918 11.5319 16.4742 11.7848C15.9702 12.2019 15.3471 12.449 14.6942 12.4907C14.8379 12.1083 14.9171 11.7048 14.9284 11.2965ZM11.5639 20.0856H5.45863V7.94222H10.7844C11.6377 7.9342 12.4593 8.26547 13.0684 8.86315C13.6774 9.46083 14.0242 10.276 14.0323 11.1293C14.0285 11.8706 13.7872 12.5913 13.3439 13.1855C12.5685 12.7224 11.6875 12.4658 10.7847 12.44H7.5369V9.99839H9.68054C10.4478 9.99839 11.1742 9.9855 11.525 10.3197C11.7637 10.6162 11.8758 10.9949 11.8368 11.3736H12.7461C12.7461 10.6152 12.5641 10.0628 12.1746 9.67708C11.5639 9.07311 10.6156 9.086 9.69343 9.086H6.6552V13.3269H10.8099C11.4865 13.3442 12.1495 13.5203 12.7455 13.841C12.2038 14.2991 11.5193 14.5539 10.8099 14.5616H6.65367V18.9943H10.1611C11.4212 18.9943 13.5385 18.9943 13.5385 16.4627H12.6292C12.6292 17.8763 11.9018 18.1077 10.1611 18.1077H7.56299V15.473H10.8099C11.8169 15.4571 12.7811 15.0627 13.5105 14.3682C14.29 14.9851 14.8357 15.8204 14.8357 16.7328C14.8363 17.6083 14.4944 18.4493 13.8829 19.0758C13.2715 19.7024 12.4392 20.0648 11.5639 20.0856ZM15.513 18.0165C15.6439 17.6052 15.7096 17.1759 15.7079 16.7442C16.747 16.423 17.2666 15.6391 17.2666 14.3925H16.3573C16.3573 15.2791 16.0587 15.6507 15.5781 15.8447C15.3096 14.9872 14.7833 14.2333 14.0709 13.6857C14.136 13.5958 14.2011 13.493 14.2658 13.403H14.5386C15.5462 13.3874 16.5109 12.9929 17.2408 12.2982C18.02 12.9151 18.5657 13.7504 18.5657 14.6628C18.5808 15.5059 18.2731 16.3229 17.7057 16.9466C17.1382 17.5703 16.3538 17.9535 15.513 18.0178V18.0165Z" fill="white"/>
</g>
</g>
</g>
<defs>
<clipPath id="clip0_1847_119355">
<rect x="0.0371094" y="0.961426" width="24" height="24" rx="12" fill="white"/>
</clipPath>
</defs>
</svg>
