<svg width="24" height="25" viewBox="0 0 24 25" fill="none" xmlns="http://www.w3.org/2000/svg">
<rect x="9.88234" y="0.987183" width="4.23529" height="0.666665" fill="#611601"/>
<rect x="9.88234" y="24.3204" width="4.23529" height="0.666665" fill="#611601"/>
<rect x="7.76471" y="1.65369" width="2.11765" height="0.666665" fill="#611601"/>
<rect x="14.1177" y="1.65369" width="2.11765" height="0.666665" fill="#611601"/>
<rect x="7.76471" y="23.6539" width="2.11765" height="0.666665" fill="#611601"/>
<rect x="14.1177" y="23.6539" width="2.11765" height="0.666665" fill="#611601"/>
<rect x="6.35294" y="2.32043" width="1.41176" height="0.666665" fill="#611601"/>
<rect x="16.2353" y="2.32043" width="1.41176" height="0.666665" fill="#611601"/>
<rect x="4.23531" y="3.65381" width="0.705882" height="0.666665" fill="#611601"/>
<rect x="6.35294" y="3.65381" width="0.705882" height="0.666665" fill="#FEFBD0"/>
<rect x="4.23531" y="4.98718" width="0.705882" height="0.666665" fill="#FEFBD0"/>
<rect x="2.82353" y="6.98706" width="0.705882" height="0.666665" fill="#FEFBD0"/>
<rect x="2.11763" y="8.32043" width="0.705882" height="0.666665" fill="#FEFBD0"/>
<rect x="3.5294" y="5.65393" width="0.705882" height="1.33333" fill="#FEFBD0"/>
<rect x="4.94117" y="4.32056" width="1.41176" height="0.666665" fill="#FEFBD0"/>
<rect x="7.76471" y="2.98706" width="0.705882" height="0.666665" fill="#FEFBD0"/>
<rect x="9.88234" y="2.32043" width="2.11765" height="0.666665" fill="#FEFBD0"/>
<rect x="19.0588" y="3.65381" width="0.705882" height="0.666665" fill="#611601"/>
<rect x="2.11763" y="5.65393" width="0.705882" height="1.33333" fill="#611601"/>
<rect x="21.1765" y="5.65393" width="0.705882" height="1.33333" fill="#611601"/>
<rect x="1.41177" y="6.98706" width="0.705882" height="1.41666" fill="#611601"/>
<rect x="21.8823" y="6.98706" width="0.705882" height="1.41666" fill="#611601"/>
<rect x="0.705887" y="8.32043" width="0.705882" height="2" fill="#611601"/>
<rect x="0.705887" y="10.3206" width="0.705882" height="3.99999" fill="#B22B05"/>
<rect x="19.7647" y="10.9872" width="0.705882" height="3.33333" fill="#FCFA69"/>
<rect x="19.0588" y="14.3203" width="0.705882" height="1.33333" fill="#FCFA69"/>
<rect x="18.3529" y="15.6537" width="0.705882" height="1.33333" fill="#FCFA69"/>
<rect x="17.647" y="16.9872" width="0.705882" height="0.666665" fill="#FCFA69"/>
<rect x="16.9412" y="17.6539" width="0.705882" height="0.666665" fill="#FCFA69"/>
<rect x="15.5294" y="18.3206" width="1.41176" height="0.666665" fill="#FCFA69"/>
<rect x="14.1177" y="18.9872" width="1.41176" height="0.666665" fill="#FCFA69"/>
<rect x="9.88234" y="19.6537" width="4.23529" height="0.666665" fill="#FCFA69"/>
<rect x="8.47058" y="18.9872" width="1.41176" height="0.666665" fill="#FCFA69"/>
<rect x="7.76471" y="18.3206" width="0.705882" height="0.666665" fill="#FCFA69"/>
<rect x="19.7647" y="18.3206" width="0.705882" height="0.666665" fill="#FCFA69"/>
<rect x="20.4706" y="16.9872" width="0.705882" height="0.666665" fill="#FCFA69"/>
<rect x="21.1765" y="15.6537" width="0.705882" height="0.666665" fill="#FCFA69"/>
<rect x="19.0588" y="18.9872" width="0.705882" height="0.666665" fill="#FCFA69"/>
<rect x="16.9412" y="20.3203" width="0.705882" height="0.666665" fill="#FCFA69"/>
<rect x="17.647" y="19.6537" width="1.41176" height="0.666665" fill="#FCFA69"/>
<rect x="22.5882" y="10.3206" width="0.705882" height="3.99999" fill="#B22B05"/>
<rect x="1.41177" y="8.40381" width="0.705882" height="1.91666" fill="#B22B05"/>
<rect x="21.8823" y="8.40381" width="0.705882" height="1.91666" fill="#B22B05"/>
<rect x="2.11763" y="6.98706" width="0.705882" height="1.33333" fill="#B22B05"/>
<rect x="21.1765" y="6.98706" width="0.705882" height="1.33333" fill="#B22B05"/>
<rect x="2.82353" y="5.65393" width="0.705882" height="1.33333" fill="#B22B05"/>
<rect x="20.4706" y="5.65393" width="0.705882" height="1.33333" fill="#B22B05"/>
<rect x="3.5294" y="4.98718" width="0.705882" height="0.666665" fill="#B22B05"/>
<rect x="19.7647" y="4.98718" width="0.705882" height="0.666665" fill="#B22B05"/>
<rect x="4.94117" y="3.65381" width="1.41176" height="0.666665" fill="#B22B05"/>
<rect x="19.0588" y="4.32056" width="0.705882" height="0.666665" fill="#B22B05"/>
<rect x="6.35294" y="2.98706" width="1.41176" height="0.666665" fill="#B22B05"/>
<rect x="16.2353" y="2.98706" width="1.41176" height="0.666665" fill="#B22B05"/>
<rect x="17.647" y="3.65381" width="1.41176" height="0.666665" fill="#B22B05"/>
<rect x="7.76471" y="2.32043" width="2.11765" height="0.666665" fill="#B22B05"/>
<rect x="9.88234" y="4.32056" width="4.23529" height="0.666665" fill="#C31800"/>
<rect x="8.47058" y="4.98718" width="1.41176" height="0.666665" fill="#C31800"/>
<rect x="7.05882" y="5.65393" width="1.41176" height="0.666665" fill="#C31800"/>
<rect x="6.35294" y="6.32056" width="0.705882" height="0.666665" fill="#C31800"/>
<rect x="5.64705" y="6.98706" width="0.705882" height="0.666665" fill="#C31800"/>
<rect x="4.94117" y="7.65393" width="0.705882" height="1.33333" fill="#C31800"/>
<rect x="8.47058" y="8.32043" width="1.41176" height="0.666665" fill="#9C1011"/>
<rect x="7.76471" y="8.98718" width="0.705882" height="0.666665" fill="#9C1011"/>
<rect x="7.05882" y="9.65381" width="0.705882" height="0.666665" fill="#9C1011"/>
<rect x="7.76471" y="10.3206" width="0.705882" height="2" fill="#9C1011"/>
<rect x="8.47058" y="10.3206" width="0.705882" height="2" fill="#EFB047"/>
<rect x="9.88234" y="10.3206" width="0.705882" height="2" fill="#FFF865"/>
<rect x="11.2941" y="10.3206" width="0.705882" height="2" fill="#FCFA69"/>
<rect x="10.5882" y="10.3206" width="0.705882" height="2" fill="#FEFFFF"/>
<rect x="9.17647" y="10.3206" width="0.705882" height="1.33333" fill="#F6D459"/>
<rect x="15.5294" y="10.3206" width="0.705882" height="2" fill="#9C1011"/>
<rect x="15.5294" y="12.3206" width="0.705882" height="2.66666" fill="#E56100"/>
<rect x="15.5294" y="14.9872" width="0.705882" height="0.666665" fill="#E65100"/>
<rect x="15.5294" y="9.65381" width="0.705882" height="0.666665" fill="#E65100"/>
<rect x="14.8235" y="8.98718" width="0.705882" height="0.666665" fill="#E65100"/>
<rect x="13.4118" y="8.32043" width="0.705882" height="0.666665" fill="#E65100"/>
<rect x="14.8235" y="15.6537" width="0.705882" height="0.666665" fill="#E65100"/>
<rect x="13.4118" y="16.3206" width="0.705882" height="0.666665" fill="#E65100"/>
<rect x="14.8235" y="10.3206" width="0.705882" height="2" fill="#EFAF4D"/>
<rect x="13.4118" y="10.3206" width="0.705882" height="2" fill="#EFAF4D"/>
<rect x="12" y="10.3206" width="1.41176" height="2" fill="#F6D358"/>
<rect x="14.1177" y="10.3206" width="0.705882" height="1.33333" fill="#EFAF4D"/>
<rect x="9.88234" y="7.65393" width="4.23529" height="0.666665" fill="#9C1011"/>
<rect x="9.88234" y="8.32043" width="3.52941" height="0.666665" fill="#F87600"/>
<rect x="9.88234" y="16.3206" width="3.52941" height="0.666665" fill="#F87600"/>
<rect x="7.76471" y="14.9872" width="1.41176" height="0.666665" fill="#F87600"/>
<rect x="8.47058" y="12.3206" width="2.66666" height="0.705882" transform="rotate(90 8.47058 12.3206)" fill="#F87600"/>
<rect x="8.47058" y="9.65381" width="0.666665" height="0.705882" transform="rotate(90 8.47058 9.65381)" fill="#F87600"/>
<rect x="15.5294" y="9.65381" width="0.666666" height="7.05882" transform="rotate(90 15.5294 9.65381)" fill="#D83806"/>
<rect x="8.47058" y="8.98718" width="6.35294" height="0.666665" fill="#F87600"/>
<rect x="8.47058" y="15.6537" width="6.35294" height="0.666665" fill="#F87600"/>
<rect x="14.8235" y="14.9872" width="0.705882" height="0.666665" fill="#F87600"/>
<rect x="14.1177" y="8.32043" width="1.41176" height="0.666665" fill="#9C1011"/>
<rect x="15.5294" y="8.98718" width="0.705882" height="0.666665" fill="#9C1011"/>
<rect x="16.2353" y="9.65381" width="0.705882" height="0.666665" fill="#9C1011"/>
<rect x="4.23531" y="8.98718" width="0.705882" height="1.33333" fill="#C31800"/>
<rect x="3.5294" y="10.3206" width="0.705882" height="3.99999" fill="#C31800"/>
<rect x="4.23531" y="14.3203" width="0.705882" height="1.33333" fill="#C31800"/>
<rect x="4.94117" y="15.6537" width="0.705882" height="1.33333" fill="#C31800"/>
<rect x="5.64705" y="16.9872" width="0.705882" height="0.666665" fill="#C31800"/>
<rect x="6.35294" y="17.6539" width="0.705882" height="0.666665" fill="#C31800"/>
<rect x="7.05882" y="18.3206" width="0.705882" height="0.666665" fill="#C31800"/>
<rect x="8.47058" y="18.3206" width="0.705882" height="0.666665" fill="#FB7302"/>
<rect x="7.05882" y="17.6539" width="0.705882" height="0.666665" fill="#FB7302"/>
<rect x="6.35294" y="16.9872" width="0.705882" height="0.666665" fill="#FB7302"/>
<rect x="5.64705" y="15.6537" width="0.705882" height="1.33333" fill="#FB7302"/>
<rect x="8.47058" y="12.3206" width="0.705882" height="2.66666" fill="#CF1200"/>
<rect x="14.8235" y="12.3206" width="0.705882" height="2.66666" fill="#CF1200"/>
<rect x="14.8235" y="14.9872" width="0.666665" height="5.64706" transform="rotate(90 14.8235 14.9872)" fill="#CF1200"/>
<rect x="14.8235" y="12.3206" width="0.666665" height="5.64706" transform="rotate(90 14.8235 12.3206)" fill="#CF1200"/>
<rect x="4.94117" y="8.98718" width="0.705882" height="6.66665" fill="#FB7302"/>
<rect x="5.64705" y="7.65393" width="0.705882" height="2.66666" fill="#FB7302"/>
<rect x="6.35294" y="6.98706" width="0.705882" height="2" fill="#FB7302"/>
<rect x="7.05882" y="6.32056" width="0.705882" height="2" fill="#FB7302"/>
<rect x="7.76471" y="6.32056" width="0.705882" height="1.33333" fill="#FB7302"/>
<rect x="8.47058" y="6.32056" width="2.11765" height="0.666665" fill="#FB7302"/>
<rect x="14.8235" y="6.32056" width="2.11765" height="0.666665" fill="#FB7302"/>
<rect x="16.9412" y="6.98706" width="0.705882" height="0.666665" fill="#FB7302"/>
<rect x="17.647" y="7.65393" width="0.705882" height="0.666665" fill="#FB7302"/>
<rect x="18.3529" y="8.98718" width="0.705882" height="0.666665" fill="#FB7302"/>
<rect x="19.0588" y="10.3206" width="0.705882" height="0.666665" fill="#FB7302"/>
<rect x="14.1177" y="11.6538" width="0.705882" height="0.666665" fill="#000F0B"/>
<rect x="13.4118" y="12.3206" width="0.705882" height="0.666665" fill="#000F0B"/>
<rect x="12.7059" y="12.9872" width="0.705882" height="0.666665" fill="#000F0B"/>
<rect x="10.5882" y="12.9872" width="0.705882" height="0.666665" fill="#000F0B"/>
<rect x="9.88234" y="12.3206" width="0.705882" height="0.666665" fill="#000F0B"/>
<rect x="9.17647" y="11.6538" width="0.705882" height="0.666665" fill="#000F0B"/>
<rect x="13.4118" y="13.6538" width="0.705882" height="1.33333" fill="#000F0B"/>
<rect x="12.7059" y="13.6538" width="0.705882" height="1.33333" fill="#FEFFFA"/>
<rect x="14.1177" y="13.6538" width="0.705882" height="1.33333" fill="#FEFFFA"/>
<rect x="10.5882" y="13.6538" width="0.705882" height="1.33333" fill="#FEFFFA"/>
<rect x="9.17647" y="13.6538" width="0.705882" height="1.33333" fill="#FEFFFA"/>
<rect x="13.4118" y="12.9872" width="1.41176" height="0.666665" fill="#FEFFFA"/>
<rect x="9.17647" y="12.9872" width="1.41176" height="0.666665" fill="#FEFFFA"/>
<rect x="9.88234" y="13.6538" width="0.705882" height="1.33333" fill="#000F0B"/>
<rect x="8.47058" y="5.65393" width="7.05882" height="0.666665" fill="#FB7302"/>
<rect x="9.88234" y="4.98718" width="4.23529" height="0.666665" fill="#FB7302"/>
<rect x="4.23531" y="10.3206" width="0.705882" height="3.99999" fill="#FB7302"/>
<rect x="5.64705" y="10.3206" width="0.705882" height="5.33332" fill="#FEB032"/>
<rect x="7.05882" y="10.3206" width="0.705882" height="5.33332" fill="#63051D"/>
<rect x="16.2353" y="10.3206" width="0.705882" height="5.33332" fill="#63051D"/>
<rect x="14.1177" y="16.9872" width="0.666666" height="4.23529" transform="rotate(90 14.1177 16.9872)" fill="#63051D"/>
<path d="M15.5294 16.3206L15.5294 16.9872L14.1176 16.9872L14.1176 16.3206L15.5294 16.3206Z" fill="#63051D"/>
<rect x="9.88234" y="16.3206" width="0.666665" height="1.41176" transform="rotate(90 9.88234 16.3206)" fill="#63051D"/>
<rect x="8.47058" y="15.6537" width="0.666665" height="0.705882" transform="rotate(90 8.47058 15.6537)" fill="#63051D"/>
<rect x="16.2353" y="15.6537" width="0.666665" height="0.705882" transform="rotate(90 16.2353 15.6537)" fill="#63051D"/>
<rect x="6.35294" y="8.98718" width="0.705882" height="7.99998" fill="#FEB032"/>
<rect x="7.05882" y="7.65393" width="0.705882" height="2" fill="#FEB032"/>
<rect x="7.76471" y="7.65393" width="0.705882" height="1.33333" fill="#FEB032"/>
<rect x="8.47058" y="6.98706" width="0.705882" height="1.33333" fill="#FEB032"/>
<rect x="9.17647" y="6.98706" width="0.705882" height="1.33333" fill="#FEB032"/>
<rect x="9.88234" y="6.98706" width="7.05882" height="0.666665" fill="#FEB032"/>
<rect x="10.5882" y="6.32056" width="4.23529" height="0.666665" fill="#FEB032"/>
<rect x="14.1177" y="7.65393" width="3.52941" height="0.666665" fill="#FEB032"/>
<rect x="15.5294" y="8.32043" width="2.82353" height="0.666665" fill="#FEB032"/>
<rect x="16.2353" y="8.98718" width="2.11765" height="0.666665" fill="#FEB032"/>
<rect x="16.9412" y="9.65381" width="0.705882" height="7.99998" fill="#FEB032"/>
<rect x="17.647" y="9.65381" width="0.705882" height="7.33332" fill="#FEB032"/>
<rect x="18.3529" y="9.65381" width="0.705882" height="5.99999" fill="#FEB032"/>
<rect x="19.0588" y="10.9872" width="0.705882" height="3.33333" fill="#FEB032"/>
<rect x="7.05882" y="15.6537" width="0.705882" height="2" fill="#FEB032"/>
<rect x="7.76471" y="16.3206" width="0.705882" height="2" fill="#FEB032"/>
<rect x="8.47058" y="16.9872" width="0.705882" height="1.33333" fill="#FEB032"/>
<rect x="9.17647" y="16.9872" width="0.705882" height="2" fill="#FEB032"/>
<rect x="9.88234" y="17.6539" width="4.23529" height="2" fill="#FEB032"/>
<rect x="11.2941" y="12.9872" width="1.58823" height="2" fill="#F4CC9B"/>
<rect x="14.1177" y="16.9872" width="1.41176" height="2" fill="#FEB032"/>
<rect x="15.5294" y="16.3206" width="1.41176" height="2" fill="#FEB032"/>
<rect x="14.1177" y="4.98718" width="1.41176" height="0.666665" fill="#C31800"/>
<rect x="15.5294" y="5.65393" width="1.41176" height="0.666665" fill="#C31800"/>
<rect x="16.9412" y="6.32056" width="0.705882" height="0.666665" fill="#C31800"/>
<rect x="17.647" y="6.98706" width="0.705882" height="0.666665" fill="#C31800"/>
<rect x="18.3529" y="7.65393" width="0.705882" height="1.33333" fill="#C31800"/>
<rect x="19.0588" y="8.98718" width="0.705882" height="1.33333" fill="#C31800"/>
<rect x="19.7647" y="10.3206" width="0.705882" height="0.666665" fill="#C31800"/>
<rect x="14.1177" y="2.32043" width="2.11765" height="0.666665" fill="#B22B05"/>
<rect x="9.88234" y="1.65369" width="4.23529" height="0.666665" fill="#B22B05"/>
<rect x="7.05882" y="3.65381" width="10.5882" height="0.666665" fill="#FFF869"/>
<rect x="6.35294" y="4.32056" width="3.52941" height="0.666665" fill="#FFF869"/>
<rect x="14.1177" y="4.32056" width="4.94117" height="0.666665" fill="#FFF869"/>
<rect x="15.5294" y="4.98718" width="4.23529" height="0.666665" fill="#FFF869"/>
<rect x="16.9412" y="5.65393" width="3.52941" height="0.666665" fill="#FFF869"/>
<rect x="17.647" y="6.32056" width="2.11765" height="0.666665" fill="#FFF869"/>
<rect x="18.3529" y="6.98706" width="0.705882" height="0.666665" fill="#FFF869"/>
<rect x="4.94117" y="4.98718" width="3.52941" height="0.666665" fill="#FFF869"/>
<rect x="4.23531" y="5.65393" width="2.82353" height="0.666665" fill="#FFF869"/>
<rect x="4.23531" y="6.32056" width="2.11765" height="0.666665" fill="#FFF869"/>
<rect x="3.5294" y="6.98706" width="2.11765" height="0.666665" fill="#FFF869"/>
<rect x="2.82353" y="7.65393" width="2.11765" height="1.33333" fill="#FFF869"/>
<rect x="2.11763" y="8.98718" width="2.11765" height="1.33333" fill="#FFF869"/>
<rect x="1.41177" y="12.9872" width="2.11765" height="1.33333" fill="#FEB032"/>
<rect x="2.11763" y="14.3203" width="2.11765" height="1.33333" fill="#FEB032"/>
<rect x="2.82353" y="15.6537" width="2.11765" height="2" fill="#FEB032"/>
<rect x="2.11763" y="15.6537" width="0.705882" height="0.666665" fill="#FEB032"/>
<rect x="16.2353" y="15.6537" width="0.705882" height="0.666665" fill="#FEB032"/>
<rect x="4.94117" y="16.9872" width="0.705882" height="0.666665" fill="#FEB032"/>
<rect x="3.5294" y="17.6539" width="2.82353" height="0.666665" fill="#FEB032"/>
<rect x="3.5294" y="18.3206" width="3.52941" height="0.666665" fill="#FEB032"/>
<rect x="4.23531" y="18.9872" width="4.23529" height="0.666665" fill="#FEB032"/>
<rect x="4.94117" y="19.6537" width="4.94117" height="0.666665" fill="#FEB032"/>
<rect x="14.1177" y="19.6537" width="3.52941" height="0.666665" fill="#FEB032"/>
<rect x="15.5294" y="18.9872" width="3.52941" height="0.666665" fill="#FEB032"/>
<rect x="16.9412" y="18.3206" width="2.82353" height="0.666665" fill="#FEB032"/>
<rect x="17.647" y="17.6539" width="2.82353" height="0.666665" fill="#FEB032"/>
<rect x="18.3529" y="16.9872" width="2.11765" height="0.666665" fill="#FEB032"/>
<rect x="19.0588" y="15.6537" width="2.11765" height="1.33333" fill="#FEB032"/>
<rect x="19.7647" y="14.3203" width="2.11765" height="1.33333" fill="#FEB032"/>
<rect x="20.4706" y="10.3206" width="2.11765" height="3.99999" fill="#FEB032"/>
<rect x="19.7647" y="8.32043" width="2.11765" height="2" fill="#FEB032"/>
<rect x="19.0588" y="6.98706" width="2.11765" height="2" fill="#FEB032"/>
<rect x="19.7647" y="6.32056" width="0.705882" height="0.666665" fill="#FEB032"/>
<rect x="6.35294" y="20.3203" width="10.5882" height="0.666665" fill="#FEB032"/>
<rect x="7.76471" y="20.9872" width="8.47058" height="0.666665" fill="#FEB032"/>
<rect x="9.88234" y="21.6537" width="4.23529" height="0.666665" fill="#FEB032"/>
<rect x="1.41177" y="10.3206" width="2.11765" height="2.66666" fill="#FFF869"/>
<rect x="8.47058" y="2.98706" width="7.7647" height="0.666665" fill="#FFF869"/>
<rect x="12" y="2.32043" width="2.11765" height="0.666665" fill="#FFF869"/>
<rect x="4.23531" y="4.32056" width="0.705882" height="0.666665" fill="#B22B05"/>
<rect x="22.5882" y="8.32043" width="0.705882" height="2" fill="#611601"/>
<rect x="22.5882" y="15.6537" width="0.705882" height="2" fill="#611601"/>
<rect y="10.3206" width="0.705882" height="5.33332" fill="#611601"/>
<rect x="23.2941" y="10.3206" width="0.705882" height="5.33332" fill="#611601"/>
<rect x="0.705887" y="15.6537" width="0.705882" height="2" fill="#611601"/>
<rect x="1.41177" y="14.3203" width="0.705882" height="2" fill="#BF470B"/>
<rect x="2.11763" y="16.3206" width="0.705882" height="1.33333" fill="#BF470B"/>
<rect x="2.82353" y="17.6539" width="0.705882" height="1.33333" fill="#BF470B"/>
<rect x="3.5294" y="18.9872" width="0.705882" height="2" fill="#BF470B"/>
<rect x="13.4118" y="22.3206" width="0.705882" height="2" fill="#BF470B"/>
<rect x="9.88234" y="22.3206" width="0.705882" height="2" fill="#BF470B"/>
<rect x="10.5882" y="22.3206" width="2.82353" height="0.666665" fill="#BF470B"/>
<rect x="14.1177" y="21.6537" width="2.11765" height="0.666665" fill="#BF470B"/>
<rect x="15.5294" y="22.3206" width="0.705882" height="1.33333" fill="#BF470B"/>
<rect x="16.9412" y="21.6537" width="0.705882" height="1.33333" fill="#BF470B"/>
<rect x="18.3529" y="20.9872" width="0.705882" height="1.33333" fill="#BF470B"/>
<rect x="19.7647" y="20.3203" width="0.705882" height="0.666665" fill="#BF470B"/>
<rect x="19.7647" y="18.9872" width="0.705882" height="0.666665" fill="#BF470B"/>
<rect x="16.2353" y="20.9872" width="1.41176" height="0.666665" fill="#BF470B"/>
<rect x="17.647" y="20.3203" width="1.41176" height="0.666665" fill="#BF470B"/>
<rect x="19.0588" y="19.6537" width="1.41176" height="0.666665" fill="#BF470B"/>
<rect x="20.4706" y="17.6539" width="0.705882" height="1.33333" fill="#BF470B"/>
<rect x="21.1765" y="16.3206" width="0.705882" height="1.33333" fill="#BF470B"/>
<rect x="21.8823" y="14.3203" width="0.705882" height="2" fill="#BF470B"/>
<rect x="4.23531" y="19.6537" width="0.705882" height="0.666665" fill="#BF470B"/>
<rect x="4.94117" y="20.3203" width="1.41176" height="0.666665" fill="#BF470B"/>
<rect x="4.94117" y="20.9871" width="0.705882" height="1.33333" fill="#BF470B"/>
<rect x="6.35294" y="20.9872" width="1.41176" height="0.666665" fill="#BF470B"/>
<rect x="6.35295" y="21.6539" width="0.705882" height="1.33333" fill="#BF470B"/>
<rect x="7.76471" y="21.6537" width="2.11765" height="0.666665" fill="#BF470B"/>
<rect x="7.76471" y="22.3203" width="1.05882" height="1.33333" fill="#BF470B"/>
<rect x="1.41177" y="17.6539" width="0.705882" height="1.33333" fill="#611601"/>
<rect x="0.705887" y="14.3203" width="0.705882" height="1.33333" fill="#FB7302"/>
<rect x="1.41177" y="16.3206" width="0.705882" height="1.33333" fill="#FB7302"/>
<rect x="2.11763" y="17.6539" width="0.705882" height="1.33333" fill="#FB7302"/>
<rect x="2.82353" y="18.9872" width="0.705882" height="1.33333" fill="#FB7302"/>
<rect x="4.23531" y="20.3203" width="0.705882" height="1.33333" fill="#FB7302"/>
<rect x="5.64705" y="20.9872" width="0.705882" height="1.33333" fill="#FB7302"/>
<rect x="7.05882" y="21.6537" width="0.705882" height="1.33333" fill="#FB7302"/>
<rect x="8.47058" y="22.3206" width="1.41176" height="1.33333" fill="#FB7302"/>
<rect x="10.5882" y="22.9871" width="2.82353" height="1.33333" fill="#FB7302"/>
<rect x="14.1177" y="22.3206" width="1.41176" height="1.33333" fill="#FB7302"/>
<rect x="16.2353" y="21.6537" width="0.705882" height="1.33333" fill="#FB7302"/>
<rect x="17.647" y="20.9872" width="0.705882" height="1.33333" fill="#FB7302"/>
<rect x="19.0588" y="20.3203" width="0.705882" height="1.33333" fill="#FB7302"/>
<rect x="20.4706" y="18.9872" width="0.705882" height="1.33333" fill="#FB7302"/>
<rect x="21.1765" y="17.6539" width="0.705882" height="1.33333" fill="#FB7302"/>
<rect x="21.8823" y="16.3206" width="0.705882" height="1.33333" fill="#FB7302"/>
<rect x="22.5882" y="14.3203" width="0.705882" height="1.33333" fill="#FB7302"/>
<rect x="21.8823" y="17.6539" width="0.705882" height="1.33333" fill="#611601"/>
<rect x="21.1765" y="18.9872" width="0.705882" height="1.33333" fill="#611601"/>
<rect x="2.11763" y="18.9872" width="0.705882" height="1.33333" fill="#611601"/>
<rect x="2.82353" y="20.3203" width="0.705882" height="0.666665" fill="#611601"/>
<rect x="20.4706" y="20.3203" width="0.705882" height="0.666665" fill="#611601"/>
<rect x="4.94117" y="22.3206" width="1.41176" height="0.666665" fill="#611601"/>
<rect x="16.2353" y="22.9871" width="1.41176" height="0.666665" fill="#611601"/>
<rect x="17.647" y="22.3206" width="1.41176" height="0.666665" fill="#611601"/>
<rect x="6.35294" y="22.9871" width="1.41176" height="0.666665" fill="#611601"/>
<rect x="4.23531" y="21.6537" width="0.705882" height="0.666665" fill="#611601"/>
<rect x="19.0588" y="21.6537" width="0.705882" height="0.666665" fill="#611601"/>
<rect x="3.5294" y="20.9872" width="0.705882" height="0.666665" fill="#611601"/>
<rect x="19.7647" y="20.9872" width="0.705882" height="0.666665" fill="#611601"/>
<rect x="2.82353" y="4.98718" width="0.705882" height="0.666665" fill="#611601"/>
<rect x="20.4706" y="4.98718" width="0.705882" height="0.666665" fill="#611601"/>
<rect x="3.5294" y="4.32056" width="0.705882" height="0.666665" fill="#611601"/>
<rect x="19.7647" y="4.32056" width="0.705882" height="0.666665" fill="#611601"/>
<rect x="4.94117" y="2.98706" width="1.41176" height="0.666665" fill="#611601"/>
<rect x="17.647" y="2.98706" width="1.41176" height="0.666665" fill="#611601"/>
</svg>
