<svg width="24" height="24" viewBox="0 0 24 24" fill="none" xmlns="http://www.w3.org/2000/svg">
<g clip-path="url(#clip0_153_5304)">
<path d="M12 24C18.6274 24 24 18.6274 24 12C24 5.37258 18.6274 0 12 0C5.37258 0 0 5.37258 0 12C0 18.6274 5.37258 24 12 24Z" fill="#F3BA2F"/>
<path d="M8.8758 10.628L11.9995 7.50433L15.1251 10.6293L16.9427 8.81172L11.9995 3.86914L7.05821 8.81043L8.8758 10.628ZM3.95703 11.9116L5.77463 10.094L7.59223 11.9116L5.77463 13.7292L3.95703 11.9116ZM8.8758 13.1952L11.9995 16.3189L15.1245 13.1939L16.9434 15.0102L16.9427 15.0115L11.9995 19.9541L7.05821 15.0128L7.05563 15.0102L8.8758 13.1952ZM16.4068 11.9122L18.2244 10.0947L20.042 11.9122L18.2244 13.7298L16.4068 11.9122Z" fill="white"/>
<path d="M13.8429 11.911H13.8435L11.9996 10.0664L10.6362 11.4291L10.4799 11.5855L10.1569 11.9085L10.1543 11.911L10.1569 11.9136L11.9996 13.7569L13.8442 11.9123L13.8448 11.911H13.8429Z" fill="white"/>
</g>
<defs>
<clipPath id="clip0_153_5304">
<rect width="24" height="24" rx="12" fill="white"/>
</clipPath>
</defs>
</svg>
