<svg width="24" height="24" viewBox="0 0 24 24" fill="none" xmlns="http://www.w3.org/2000/svg">
<g clip-path="url(#clip0_153_5274)">
<circle cx="12" cy="12" r="12" fill="#F9F9F9"/>
<path fill-rule="evenodd" clip-rule="evenodd" d="M11.1032 15.1323H8.54611V8.86765H11.1032V4.95068H9.1743V6.93873H6.61719V17.0613H9.1743V19.0493H11.1032V15.1323ZM17.3359 14.2406C17.4295 13.0901 16.7619 12.2353 16.5722 12.0111C16.7274 11.8263 17.5478 10.804 17.3531 9.44411C17.1635 8.12121 16.0918 7.00525 14.6482 6.66036V4.95068H12.7193V8.86765H14.2048C14.7566 8.86765 15.2666 9.22486 15.3922 9.76191C15.4021 9.80379 15.4094 9.84567 15.4168 9.89001V9.90972C15.4809 10.5157 14.9783 11.0355 14.3698 11.0355H10.475V12.9645H14.4979C15.0104 12.9645 15.4809 13.3192 15.5548 13.8242C15.5597 13.8636 15.5646 13.908 15.5646 13.9523C15.572 14.2159 15.4833 14.4697 15.3208 14.6791C15.0867 14.9796 14.7098 15.1323 14.3304 15.1323H12.7193V19.0493H14.6482V17.1105C16.151 16.7361 17.225 15.5635 17.3359 14.2406Z" fill="#AB0C30"/>
</g>
<defs>
<clipPath id="clip0_153_5274">
<rect width="24" height="24" rx="12" fill="white"/>
</clipPath>
</defs>
</svg>
