<svg width="24" height="24" viewBox="0 0 24 24" fill="none" xmlns="http://www.w3.org/2000/svg">
<path d="M23.6383 14.9029C22.0356 21.3315 15.5244 25.2438 9.09503 23.6407C2.66833 22.038 -1.24401 15.5265 0.359382 9.09837C1.96136 2.66903 8.47253 -1.24361 14.8999 0.359081C21.3289 1.96177 25.241 8.47404 23.6381 14.903L23.6382 14.9029H23.6383Z" fill="#42D6E2"/>
<path fill-rule="evenodd" clip-rule="evenodd" d="M7.19716 6.84375C6.96057 5.625 7.90694 4.5 9.13722 4.5C10.2256 4.5 11.1246 5.39062 11.1246 6.46875V8.90625C11.4085 8.90625 11.6924 8.85938 11.9763 8.85938C12.2603 8.85938 12.4968 8.85938 12.7808 8.90625V6.46875C12.7808 5.39062 13.6798 4.5 14.7681 4.5C15.9984 4.5 16.9448 5.625 16.7555 6.84375L16.235 9.70312C18.0804 10.5 19.5 11.9062 19.5 13.6406V14.7188C19.5 16.1719 18.5536 17.3906 17.1814 18.1875C15.8091 19.0312 14.011 19.5 11.9763 19.5C9.94164 19.5 8.14353 19.0312 6.77129 18.1875C5.44637 17.3906 4.5 16.1719 4.5 14.7188V13.6406C4.5 11.9062 5.87224 10.5 7.71767 9.70312L7.19716 6.84375ZM15.5252 10.0781L16.1404 6.70312C16.2823 5.85937 15.6672 5.0625 14.7681 5.0625C14.011 5.0625 13.3959 5.67188 13.3959 6.42188V9.51562C13.2066 9.46875 12.97 9.46875 12.7808 9.46875C12.4968 9.46875 12.2603 9.42188 11.9763 9.42188C11.6924 9.42188 11.4085 9.42188 11.1246 9.46875C10.9353 9.46875 10.6987 9.51562 10.5095 9.51562V6.46875C10.5095 5.71875 9.89432 5.10938 9.13722 5.10938C8.28549 5.10938 7.62303 5.90625 7.8123 6.75L8.42744 10.125C6.44006 10.875 5.11514 12.1875 5.11514 13.6875V14.7656C5.11514 17.0625 8.19085 18.9375 11.9763 18.9375C15.7618 18.9375 18.8375 17.0625 18.8375 14.7656V13.6875C18.8849 12.1406 17.5599 10.8281 15.5252 10.0781Z" fill="#633001"/>
<path d="M18.8845 14.7187C18.8845 17.0156 15.8088 18.8906 12.0233 18.8906C8.23782 18.8906 5.16211 17.0156 5.16211 14.7187V13.6406H18.9318V14.7187H18.8845Z" fill="#FEDC90"/>
<path fill-rule="evenodd" clip-rule="evenodd" d="M7.81195 6.75C7.62268 5.90625 8.28514 5.10938 9.13687 5.10938C9.89397 5.10938 10.5091 5.71875 10.5091 6.46875V9.5625C10.9823 9.51563 11.4555 9.46875 11.976 9.46875C12.4492 9.46875 12.9224 9.51563 13.3955 9.5625V6.46875C13.3955 5.71875 14.0107 5.10938 14.7678 5.10938C15.6195 5.10938 16.282 5.90625 16.14 6.75L15.5249 10.125C17.5123 10.875 18.8845 12.1875 18.8845 13.6875C18.8845 15.9844 15.8088 17.8594 12.0233 17.8594C8.23782 17.8594 5.16211 15.9844 5.16211 13.6875C5.16211 12.1875 6.48703 10.875 8.47441 10.125L7.81195 6.75Z" fill="#D1884F"/>
<path d="M10.0845 13.3594C10.0845 13.9687 9.75328 14.4844 9.32741 14.4844C8.90154 14.4844 8.57031 13.9687 8.57031 13.3594C8.57031 12.75 8.90154 12.2344 9.32741 12.2344C9.75328 12.2344 10.0845 12.75 10.0845 13.3594Z" fill="#633001"/>
<path d="M15.3365 13.3594C15.3365 13.9687 15.0052 14.4844 14.5794 14.4844C14.1535 14.4844 13.8223 13.9687 13.8223 13.3594C13.8223 12.75 14.1535 12.2344 14.5794 12.2344C15.0052 12.2344 15.3365 12.75 15.3365 13.3594Z" fill="#633001"/>
</svg>
