<svg width="24" height="24" fill="none" xmlns="http://www.w3.org/2000/svg"><g clip-path="url(#a)"><circle cx="12" cy="12" r="12" fill="#F9F9F9"/><path d="M7.638 20c-.019-.032-.055-.037-.084-.052-.342-.188-.535-.474-.548-.863-.011-.37-.003-.741-.003-1.112 0-1.648.003-3.295-.003-4.944a.482.482 0 0 1 .502-.503c.878.01 1.756.008 2.634.01a.456.456 0 0 1 .402.7l-.424.743a.445.445 0 0 1-.63.176c-.106-.06-.21-.124-.315-.186-.178-.103-.334-.06-.435.119-.035.063-.07.126-.107.189a.296.296 0 0 0-.03.25l.471 1.432.169.512c.05.151.17.23.326.2.314-.06.628-.127.942-.191.342-.071.684-.143 1.027-.213a.303.303 0 0 0 .215-.152c.04-.07.082-.14.12-.21.087-.16.04-.326-.116-.417-.112-.066-.225-.132-.336-.2a.456.456 0 0 1-.162-.622l.434-.76a.439.439 0 0 1 .403-.243c.18 0 .31.085.399.24.444.772.887 1.546 1.337 2.316.15.256.078.472-.046.6-.058.06-.134.096-.205.138l-2.1 1.227c-.736.43-1.471.862-2.207 1.293-.257.15-.515.3-.77.452-.043.025-.094.032-.128.07h-.733V20Zm5.912-4.086-.057-.09a.288.288 0 0 0-.043-.082l-.047-.077c-.016-.03-.024-.063-.05-.087a.264.264 0 0 0-.05-.087l-.035-.066a.182.182 0 0 0-.059-.087c-.01-.036-.021-.073-.054-.097-.005-.025-.015-.047-.037-.063l-.038-.073-.012-.025a3.757 3.757 0 0 1-.027-.037c-.056-.124-.13-.238-.196-.355-.07-.124-.146-.246-.219-.369-.06-.123-.133-.238-.202-.356a.343.343 0 0 0-.33-.218.333.333 0 0 0-.32.193c-.162.268-.32.54-.464.818-.086.164-.007.371.161.47.087.052.173.106.263.152.119.06.211.143.257.272a.416.416 0 0 1-.038.282c-.03.054-.064.106-.091.162a.455.455 0 0 1-.373.27c-.122.017-.242.05-.363.076-.046.006-.092.012-.135.029a.88.88 0 0 0-.16.03.046.046 0 0 0-.039.012l-.026.005-.022.004-.025.003-.037.01-.025.003-.026.006c-.15.026-.298.056-.446.092l-.025.003-.564.114a.365.365 0 0 1-.436-.247c-.137-.412-.271-.824-.407-1.236-.066-.2-.135-.399-.203-.599a.735.735 0 0 1-.05-.22v-.027a.456.456 0 0 1 .05-.177c.035-.062.074-.123.106-.187a.406.406 0 0 1 .225-.208c.053-.013.105-.026.16-.019a.63.63 0 0 1 .21.087c.091.056.185.108.278.161.18.102.378.065.49-.105.09-.138.163-.286.244-.43l.108-.19a.647.647 0 0 0 .07-.122c.004-.01.01-.018.015-.027a.224.224 0 0 0 .05-.111.204.204 0 0 0 .014-.112.356.356 0 0 0-.345-.359c-.27-.007-.54-.002-.81-.002l-.285-.001c-.123-.002-.247-.005-.37-.005h-.686a2.468 2.468 0 0 0-.286 0c-.101-.002-.203-.007-.304-.002a.356.356 0 0 0-.227.101c-.114.105-.127.237-.112.38-.002.11-.004.222-.004.333l.003.996c-.001.185-.003.371-.003.557l.003 1.057V17.28l-.003.823.003.866a.885.885 0 0 0 .011.24c.065.309.23.54.52.673.064.045.139.056.212.072.008.007.017.008.026.005a.56.56 0 0 0 .236.007c.047.002.09-.01.135-.02.145-.034.267-.116.393-.19l.505-.299c.077-.043.155-.086.231-.131l.592-.352a.32.32 0 0 0 .095-.055l.087-.049c.033-.02.072-.03.1-.06l.09-.05a.455.455 0 0 0 .108-.062l.033-.018 1.199-.701.569-.34c.076-.032.143-.078.213-.121.026-.014.054-.024.074-.047.104-.05.202-.11.299-.173.173-.095.343-.194.51-.3.107-.06.216-.119.321-.185a.362.362 0 0 0 .134-.486c-.04-.08-.089-.154-.133-.23a.209.209 0 0 0-.062-.1.2.2 0 0 0-.038-.072.02.02 0 0 0-.002-.011h-.002ZM14.191 12.724h.435a.45.45 0 0 1 .46.454v.392c.001.194.116.308.31.309.07 0 .14-.002.21 0 .101.004.18-.035.246-.11l.64-.735.68-.78c.11-.124.114-.283.008-.406-.266-.307-.533-.612-.8-.917-.167-.192-.337-.381-.5-.576-.085-.1-.182-.152-.313-.142-.056.004-.112 0-.168 0-.195.001-.312.119-.313.315v.379a.452.452 0 0 1-.468.465h-.857a.452.452 0 0 1-.405-.683c.246-.447.5-.89.75-1.336.197-.35.393-.7.591-1.048a.444.444 0 0 1 .636-.168c.863.503 1.725 1.008 2.587 1.512l2.406 1.407c.148.086.298.168.416.299.415.454.317 1.215-.207 1.537-.36.22-.727.429-1.091.642L16.92 15.01c-.526.309-1.053.617-1.58.924-.249.145-.506.08-.649-.17-.263-.46-.52-.922-.78-1.383-.178-.318-.356-.636-.536-.951a.455.455 0 0 1-.015-.473.437.437 0 0 1 .421-.234c.137.003.273 0 .41 0Zm.62-1.49c.025-.002.044-.017.06-.037a.342.342 0 0 0 .133-.28c.002-.156 0-.312 0-.47a.389.389 0 0 1 .276-.307l.235-.013c.019 0 .037.002.056.001a.416.416 0 0 1 .36.156c.09.114.193.22.29.329.099.124.204.242.311.36a.188.188 0 0 0 .086.087c.039.07.1.125.151.185.096.11.184.225.29.326.016.032.042.056.065.083.065.076.142.144.189.236.026.063.03.13.03.198a.426.426 0 0 1-.112.23c-.057.06-.11.127-.164.191-.018.02-.037.038-.054.058l-.295.346c-.01.004-.02.006-.022.02-.136.155-.276.307-.404.47l-.202.223c-.009.01-.018.023-.011.039-.015-.01-.023.002-.03.01-.035.04-.07.077-.102.117a.408.408 0 0 1-.364.172c-.06-.004-.12 0-.18-.001-.224 0-.367-.125-.402-.347l.003-.42c0-.237-.171-.398-.409-.387l-.83-.002a.368.368 0 0 0-.33.548c.132.247.276.489.415.733.12.222.241.443.37.66.03.06.06.12.1.175.15.27.302.538.453.807a.335.335 0 0 0 .145.148.32.32 0 0 0 .3.022c.015-.005.032-.008.046-.016l.873-.515c.13-.072.26-.144.385-.225.123-.068.247-.136.363-.217.036-.008.062-.034.092-.053.012 0 .022-.005.03-.016.032-.01.06-.03.086-.05l.038-.022.074-.042.555-.322c.042-.025.091-.04.122-.081.152-.072.293-.161.435-.25.212-.112.415-.24.621-.361.292-.163.578-.337.866-.507.244-.14.49-.275.725-.429a.754.754 0 0 0 .27-.308.393.393 0 0 0 .06-.125.574.574 0 0 0 .05-.236c.022-.074.01-.148-.002-.22a.89.89 0 0 0-.42-.652c-.098-.062-.195-.126-.299-.177-.011-.009-.022-.018-.035-.025l-.687-.396c-.092-.055-.178-.12-.28-.16-.067-.057-.148-.094-.224-.139-.154-.09-.305-.187-.465-.267-.271-.16-.541-.323-.814-.483-.715-.419-1.43-.837-2.147-1.254-.105-.061-.204-.134-.319-.178a.342.342 0 0 0-.367.074c-.075.068-.112.162-.159.248-.036.046-.06.098-.084.15-.021.03-.04.06-.05.095l-.04.064c-.026.046-.058.088-.074.139-.052.062-.083.137-.122.207-.08.141-.168.279-.238.426-.052.08-.098.163-.14.25l-.278.485-.03.061a3.716 3.716 0 0 0-.22.388.362.362 0 0 0 .074.417c.115.12.26.12.41.109a.31.31 0 0 0 .112 0 .473.473 0 0 0 .139 0c.02.006.04.006.06 0l.05.001h.05a.172.172 0 0 0 .076 0h.02c.019.004.037.008.053-.005h.05c.016.013.034.008.051.004h.046c.018.004.036.01.052-.005l.026-.013c.026.008.052.013.074-.01.022.001.038-.01.052-.025ZM7.005 8.028V5.053c0-.464.25-.837.663-.988a.957.957 0 0 1 .849.077c.903.528 1.805 1.059 2.709 1.587.645.379 1.292.756 1.938 1.134.18.104.358.209.535.315a.45.45 0 0 1 .157.609c-.254.448-.513.893-.77 1.339-.198.344-.394.689-.595 1.031a.446.446 0 0 1-.777 0c-.12-.204-.237-.409-.351-.615a.632.632 0 0 1 .231-.87.503.503 0 0 0 .264-.517.464.464 0 0 0-.365-.378c-.413-.087-.827-.172-1.24-.257-.166-.035-.332-.07-.499-.102a.462.462 0 0 0-.548.313c-.192.575-.38 1.15-.568 1.727a.47.47 0 0 0 .172.524.46.46 0 0 0 .52.015.63.63 0 0 1 .883.219c.121.207.24.415.357.625a.454.454 0 0 1-.399.68l-1.895.009c-.262.001-.525.004-.788.004-.292 0-.483-.19-.483-.482V8.029Zm1.676 3.414h.1c.029.013.058.01.087 0a.052.052 0 0 0 .049 0c.037.016.074.002.112-.002l.633-.001.374-.001c.075.001.15.011.223-.011.22-.047.354-.297.258-.499a4.545 4.545 0 0 0-.257-.457c-.049-.087-.093-.177-.15-.26a.543.543 0 0 0-.71-.157.664.664 0 0 1-.272.098.553.553 0 0 1-.505-.243.613.613 0 0 1-.04-.559c.062-.166.11-.337.165-.505l.069-.21.302-.92a.541.541 0 0 1 .368-.365c.114-.04.232-.023.348-.004l.682.14c.281.061.563.12.846.172.057.015.113.04.174.037.002 0 .003.002.005.003.25.084.396.255.408.518.011.23-.1.403-.3.517a.48.48 0 0 0-.135.108c-.175.212-.2.43-.068.671.105.193.215.382.323.572.028.048.053.098.104.129.169.155.456.096.549-.112l.347-.592.621-1.085a.75.75 0 0 0 .075-.136c.107-.184.216-.366.32-.551a.351.351 0 0 0 .015-.317c-.047-.116-.143-.178-.25-.229a4.776 4.776 0 0 0-.343-.2c-.054-.035-.105-.075-.167-.095-.036-.023-.071-.048-.108-.07l-.63-.369-.802-.469-.455-.264c-.029-.018-.053-.047-.092-.045-.011-.009-.014-.027-.033-.028l-.078-.047-.035-.019a16.37 16.37 0 0 0-.624-.366c-.102-.06-.199-.131-.31-.176a56.383 56.383 0 0 0-.162-.099l-.037-.023-.16-.093c-.042-.026-.083-.053-.126-.078a229.85 229.85 0 0 0-.592-.342c-.136-.086-.27-.177-.418-.241a.871.871 0 0 0-.88.081.225.225 0 0 0-.077.061l-.014.013a.079.079 0 0 0-.045.04l-.012.011a.185.185 0 0 0-.053.06.242.242 0 0 0-.052.077.626.626 0 0 0-.09.167c-.092.232-.063.475-.062.715-.003.03-.008.058.004.087a17.46 17.46 0 0 0 0 1.107c-.002.007-.006.015-.006.023 0 .373 0 .746.002 1.12-.001.018-.003.036-.003.055V9.37l.003.793-.001.47v.199l.001.052v.099a2.92 2.92 0 0 0 0 .1l-.001.035.015.062.01.037c.01.028.02.056.043.078.038.038.062.093.123.103.02.027.05.037.08.042.145.026.29.01.436.009.166 0 .331.003.496.001.104 0 .207.008.31-.005.025.009.05.006.074-.003h.001Z" fill="#0B7A94"/><path d="M7.093 16.038 7.09 14.98c0-.186.002-.371.003-.557.066-.016.26-.22.271-.286.027 0 .04.021.055.037.048.046.092.096.142.14.05.044.115.027.17.014.048-.011.044-.063.044-.105v-.652c0-.028-.007-.064.036-.066.057-.003.116-.001.174 0 .01 0 .02.003.022.015a.024.024 0 0 1-.018.029.184.184 0 0 1-.043.004c-.054.001-.078.029-.073.083.09-.055.195-.007.19.116-.008.154-.004.31-.002.465.001.029-.017.086.016.082.037-.003.078-.043.082-.096v-.037l.001-.472c0-.02-.009-.044.019-.064a4.1 4.1 0 0 1 .015.567c-.001.028-.005.063-.035.083-.092.062-.112.15-.1.253.005.039 0 .079.002.118.001.03-.008.056-.032.07-.042.023-.074.047-.078.101-.001.029-.034.023-.056.023h-.342c-.019 0-.04-.008-.06.016.03.015.062.011.09.008.09-.01.165.009.223.086.03.04.315.04.356.006.005-.004.008-.01.014-.013.037-.016.052-.074.086-.073.08.002.11-.057.157-.096.044-.036.07-.094.131-.109.068.2.137.398.203.598.136.412.27.824.407 1.236.063.19.238.288.436.248l.564-.115c.002.012.003.026.02.024.002 0 .003-.017.005-.027.148-.035.296-.066.446-.092v.209h.026v-.215a.547.547 0 0 0 .025-.003v.172c0 .016-.01.045.015.045.027 0 .021-.029.022-.048v-.178l.025-.004v.23h.022v-.234l.026-.004c0 .065 0 .131.002.197 0 .015-.01.04.013.041.026.002.023-.023.023-.041v-.21a.897.897 0 0 1 .16-.03c.047.039.112-.012.16.03l-.024-.06c.12-.025.24-.058.363-.074a.454.454 0 0 0 .372-.27c.027-.056.06-.109.092-.162a.416.416 0 0 0 .037-.283c.028 0 .044.02.062.037l.12.115c.023.024.026.053.026.086l-.001.995c0 .043.007.08.038.11v.646c-.19.113-.379.228-.57.34-.399.235-.799.468-1.198.702l-.033.017c-.075-.005-.11.016-.109.063l-.09.05v-.056c.003-.039-.004-.062-.052-.061-.046 0-.05.024-.048.058v.118l-.087.049v-.185c.001-.036-.019-.04-.047-.04-.028.001-.054 0-.052.04l.004.24-.591.352c-.076.045-.155.087-.232.131-.033-.032-.075-.01-.112-.016-.017-.003-.037.006-.048-.017-.018-.036.003-.157.032-.186l.413-.413c.015-.016.042-.028.03-.067-.139.139-.27.276-.408.406-.066.062-.113.124-.095.219.008.042-.015.057-.057.059-.166.004-.166.005-.166.173h-.05a1.089 1.089 0 0 1-.15-.15c.004-.025-.01-.041-.026-.058l-.3-.3c-.017-.017-.033-.03-.059-.027.001-.042-.02-.063-.062-.062h-.05c-.01-.05-.049-.05-.086-.05H7.5c-.044 0-.084.002-.09.06 0 .013-.01.025-.023.025-.075 0-.154.023-.215-.046-.021-.023-.047-.04-.08-.039-.002-.288-.004-.577-.004-.866l.003-.823a.525.525 0 0 1 .2-.025c.017 0 .039 0 .04-.02.002-.025-.023-.015-.037-.017a.3.3 0 0 0-.055 0c-.054.005-.05-.016-.025-.05l.545.001c.04 0 .053-.013.053-.053s-.018-.048-.053-.047h-.408l.013-.062h.153c.015 0 .03-.003.031-.022.002-.022-.013-.027-.031-.027h-.153v-.05h.322c.038 0 .063-.006.064-.053 0-.048-.02-.06-.064-.06-.14.002-.281 0-.422 0v-.049h.24c.018 0 .042.005.044-.022.002-.032-.025-.027-.044-.027h-.314l-.038-.05h.442c-.025-.05-.057-.065-.104-.063-.045.001-.098.018-.133-.008-.043-.03-.085-.028-.13-.029h-.136v-.062h.105c.013 0 .033.006.036-.013.003-.019-.014-.032-.03-.033-.037-.004-.074-.003-.11-.004v-.05c.036-.003.087.017.085-.052-.002-.065-.051-.042-.085-.047v-.223c.01-.002.028.004.028-.013 0-.016-.018-.01-.029-.012Zm3.48.713c.005.042.021.051.043.056.067.015.489 0 .522-.024h-.451c-.037 0-.074.004-.113-.032Zm.383-.114v.092c0 .012.002.026.019.025.012 0 .017-.01.017-.021v-.185c0-.01-.004-.02-.017-.022-.016-.001-.02.012-.02.024v.087Zm.117.113h.013v-.22h-.013v.22Zm-.036-.22h-.013v.22l.013-.001v-.22.001Zm-.127.22h.012v-.22h-.012v.22Zm-.035-.22h-.013v.219h.013v-.218Zm.27.201h.005v-.183h-.006v.184Zm-.914-.034c-.003.002-.012.004-.012.007 0 .01.008.014.017.014.005 0 .014-.003.014-.006 0-.01-.008-.012-.019-.015Z" fill="#99DFEE"/><path d="M8.55 14.67c-.06.016-.087.073-.13.11-.049.039-.08.098-.158.096-.034-.002-.048.057-.086.073-.006.002-.009.008-.014.012-.04.034-.326.035-.356-.005-.058-.078-.133-.096-.223-.086-.028.003-.059.007-.09-.008.02-.025.041-.015.06-.016h.342c.022 0 .055.005.056-.023.004-.055.036-.079.078-.102.024-.014.034-.04.032-.07-.002-.039.003-.079-.001-.117-.013-.104.007-.192.1-.254.03-.02.033-.055.034-.083a4.104 4.104 0 0 0-.015-.567c-.028.02-.019.044-.019.064v.51c-.005.052-.046.092-.083.096-.033.003-.015-.054-.015-.083-.003-.155-.007-.31 0-.465.007-.123-.1-.17-.189-.116-.005-.054.02-.082.073-.083.015 0 .03 0 .043-.004a.024.024 0 0 0 .019-.028c-.002-.012-.012-.017-.023-.017-.058 0-.116-.002-.174.001-.043.002-.036.038-.036.066v.652c0 .043.004.094-.043.105-.056.014-.12.03-.171-.014-.05-.043-.094-.093-.141-.14-.016-.015-.03-.036-.055-.037-.012-.017-.019-.04-.034-.05-.125-.086-.162-.205-.141-.348v-.309c0-.062-.006-.123.002-.184.01-.082-.034-.123-.099-.153-.015-.142-.001-.274.113-.38a.355.355 0 0 1 .227-.1c.101-.005.202 0 .304 0-.002.009-.003.023-.006.024-.053.009-.044.05-.044.085v.323c.002.054-.025.127.072.13.004 0 .01.008.012.013.014.031.042.03.069.03h.093c.081 0 .09-.009.09-.088v-.515h.686c.124 0 .247.003.37.005v.255c0 .02-.006.041.012.057v.05c-.013.034-.042.057-.062.087h-.068c-.118 0-.118 0-.118.115 0 .074.004.15-.005.223-.019.15-.065.3.041.437v.006a.408.408 0 0 0-.224.208c-.032.065-.07.125-.106.188a.46.46 0 0 0-.05.176c-.018.01-.018.019 0 .028.005.076.022.15.05.22h.001Zm-1.197-.995c-.003-.033-.004-.065-.03-.086-.016-.013-.033-.03-.055-.02-.023.01-.014.033-.015.05-.001.037-.01.077.002.11.02.063-.014.123.003.183.009.033.024.063.06.06.039-.002.03-.04.034-.067.01-.078-.022-.155 0-.23Zm.548-.406v-.001h-.093c-.015 0-.03.002-.032.022-.002.019.006.036.024.037.066.004.132.01.197-.004.012-.003.024-.01.023-.025 0-.017-.011-.028-.027-.028-.031-.002-.062-.001-.093-.001Zm-.006.124h-.087c-.015 0-.031 0-.03.02 0 .018.013.027.029.027h.186c.012 0 .024-.008.024-.022 0-.019-.014-.024-.029-.025h-.093Z" fill="#A4E3F0"/><path d="M12.235 16.994c-.031-.031-.039-.068-.038-.112v-.994c0-.033-.002-.062-.025-.086.005-.012.01-.022.008-.035-.017-.127-.003-.245.105-.333.02-.017.041-.035.036-.067.074-.014.088-.077.084-.13-.006-.084.03-.137.088-.185.018-.015.033-.032.049-.048a.168.168 0 0 0 .054-.132c-.003-.157-.001-.313-.001-.47 0-.032 0-.063.03-.083.074.123.15.245.22.37.067.117.14.23.196.354-.04.01-.024.044-.024.067V16.426c.002.017-.008.043.021.042.023 0 .017-.024.018-.04l.004-.092c.036-.001.045.02.044.052 0 .055.003.111 0 .166-.004.052.008.093.05.125.026.019.043.044.037.08-.052 0-.104.003-.155-.002-.055-.004-.076.013-.07.07.01.07.002.134-.064.18-.03.02-.037.053-.034.088.004.045-.003.086-.038.12-.025.023-.028.054-.01.084a2.89 2.89 0 0 1-.299.173c-.01-.028.018-.056 0-.083l-.02-.071c.039-.023.007-.039-.006-.057-.013-.016-.06-.012-.032-.053l-.141-.114a.127.127 0 0 0-.087-.1Zm.423-.385h.068c.013 0 .024-.001.025-.02 0-.062.003-.124.003-.187 0-.115-.005-.23.002-.344.006-.111.005-.119-.107-.119h-.025c-.053-.006-.068.018-.067.068.002.187.002.374 0 .561 0 .028.009.043.04.042h.061Zm.21-.851V15.069c0-.014.002-.032-.018-.033-.02-.002-.029.012-.03.03v1.347c0 .02-.015.058.026.056.038-.002.022-.038.022-.06.002-.217.001-.434.001-.651Zm.05-.004V16.437c0 .017.002.034.025.033.024 0 .024-.018.024-.035V15.107c0-.016 0-.033-.002-.05a.022.022 0 0 0-.02-.02c-.015 0-.024.009-.026.022-.002.016-.001.033-.001.05v.645Zm-.262.956v-.001h.062c.013-.001.032.004.031-.018 0-.013-.014-.019-.027-.02h-.135c-.01 0-.022 0-.023.015 0 .011.008.019.019.02l.073.004Zm-.008-.05h.023c.027-.005.074.013.075-.02 0-.035-.046-.012-.07-.018a.038.038 0 0 0-.018 0c-.032.007-.087-.02-.09.022 0 .032.056.006.08.016Z" fill="#78D4E8"/><path d="M12.322 15.368c.005.032-.016.05-.037.067-.108.088-.122.205-.105.332.002.014-.003.024-.007.036l-.121-.115c-.018-.017-.034-.036-.062-.037a.484.484 0 0 0-.256-.272c-.09-.046-.176-.1-.263-.152-.168-.099-.247-.306-.162-.47.146-.278.302-.55.464-.82l.089.002c-.004.043.028.039.054.037.042-.004.046.02.046.053 0 .034 0 .065-.047.059-.047-.007-.054.018-.055.058 0 .04.011.059.053.053.04-.005.047.015.05.05.002.046-.023.05-.057.054-.045.004-.046.036-.045.072.001.033.02.038.045.035.037-.003.056.006.056.05 0 .044-.018.053-.056.05-.046-.002-.044.032-.045.065-.002.034.01.052.045.047.045-.006.056.014.056.056.001.045-.014.061-.057.056-.037-.005-.054.016-.054.05 0 .035.019.054.055.05.045-.007.056.014.056.056.001.044-.015.06-.057.055-.044-.007-.06.013-.056.056.003.018.001.037.001.055-.008.062.02.105.056.155a.376.376 0 0 0 .39.156h.026ZM9.03 13.069c.02-.03.048-.053.061-.087.05.046.108.084.137.149v.217c0 .108.072.18.177.18h.788c.024 0 .05-.008.07.016-.082.144-.155.292-.245.43-.112.17-.31.208-.49.106-.093-.053-.186-.106-.278-.161a.636.636 0 0 0-.21-.087c.003-.088 0-.175-.001-.262-.004-.167.018-.335-.01-.501ZM13.191 16.758c.006-.035-.01-.06-.037-.08-.042-.031-.054-.072-.05-.124.003-.055 0-.11 0-.166.001-.032-.008-.054-.044-.053a.553.553 0 0 1 0-.136h.055c.03.005.042-.009.043-.036h.045c.002.018.002.04.03.035.03-.005.021-.03.021-.05v-.653c0-.024-.007-.05.014-.07l.035.065-.001.662c0 .038.012.054.05.046l.05.001h.089c.03.004.05 0 .05-.04-.002-.078 0-.155.001-.232l.01-.001c.019.02.031.045.04.072-.002.026-.005.053-.003.079.004.035-.019.093.013.1.05.011.024-.058.05-.081.045.077.093.151.134.23.092.181.037.38-.134.487-.105.066-.214.125-.321.186.003-.048-.016-.09-.026-.136-.014-.064-.048-.1-.114-.105Z" fill="#84D8EA"/><path d="M12.322 15.368c-.009 0-.017-.002-.025 0a.377.377 0 0 1-.39-.157c-.038-.05-.065-.093-.056-.154.12 0 .24-.003.358.001.062.002.077-.02.077-.079-.003-.347-.002-.693-.002-1.04a.256.256 0 0 1 .14.024c.069.118.142.233.202.356-.03.02-.031.051-.031.083 0 .157-.002.314.001.47a.17.17 0 0 1-.054.132c-.016.016-.031.034-.049.048-.057.049-.094.101-.088.185.004.053-.01.116-.083.13Z" fill="#61CEE5"/><path d="M9.365 12.621c.27 0 .54-.005.81.002.196.006.347.171.344.359-.064.003-.13-.015-.181.05-.045.056-.1.104-.153.154-.038.035-.059.027-.076-.022-.01-.03-.02-.064-.06-.07-.039-.052-.102-.027-.15-.05l-.012-.013c-.023-.056-.058-.092-.125-.087-.033.003-.066-.002-.099.001-.04.004-.068-.015-.098-.04-.065-.055-.1-.136-.164-.19a.097.097 0 0 1-.036-.094Z" fill="#94DDED"/><path d="M7.836 19.954c-.074-.016-.149-.027-.212-.072 0-.066 0-.132.002-.198 0-.024-.003-.046-.024-.06-.035-.027-.042-.063-.04-.104.003-.05 0-.1.001-.149.001-.035-.003-.058-.047-.072-.033-.01-.09-.027-.075-.085.01-.041-.05-.125.06-.117.006 0 .014-.01.018-.016.04-.058.097-.069.162-.064a.984.984 0 0 0 .155 0c.055-.003.101.008.137.051.003.026-.005.053.007.08.02 0 .033-.025.055-.018a.08.08 0 0 0 .038.038c.003.007.004.017.01.02.107.075.191.173.277.27.01.01.02.02.036.02.009.04.05.06.062.1-.017.02-.041.009-.062.012.003-.028-.01-.04-.037-.037-.03-.025-.066-.045-.075-.087a.037.037 0 0 0-.038-.025.615.615 0 0 1-.111-.112c-.001-.015-.005-.03-.021-.032-.014-.003-.015.01-.017.02l-.077-.071c-.027-.024-.058-.02-.087-.011-.028.008-.022.037-.022.059 0 .074-.003.149.001.223.002.046-.017.047-.05.036-.065-.105-.165-.176-.248-.263-.016-.017-.025 0-.025.017-.001.07-.004.14 0 .21.003.042.042.068.074.087.035.02.017-.03.034-.04a.075.075 0 0 1 .04-.011h.1l-.001.4Zm-.335-.75c-.004.01-.009.015-.008.018.004.006.01.013.016.015.011.002.014-.007.01-.015-.003-.006-.01-.01-.018-.017Zm.078.059c.001-.004.005-.008.004-.01-.001-.003-.007-.004-.01-.005-.002.003-.005.007-.004.01 0 .002.006.003.01.005Z" fill="#86D9EB"/><path d="M7.973 19.068c-.036-.043-.082-.055-.137-.05a1.008 1.008 0 0 1-.155 0c-.066-.006-.122.005-.162.063-.004.007-.012.016-.018.016-.11-.008-.05.076-.06.117-.016.059.042.075.075.086.044.014.048.036.047.072 0 .049.002.099 0 .148-.003.041.003.077.04.104.02.015.023.037.022.06l-.001.198c-.29-.133-.456-.364-.52-.672a.877.877 0 0 1-.012-.241c.034-.001.06.015.081.04.06.067.14.045.215.044.013 0 .023-.011.024-.025.005-.057.045-.06.09-.06.144.002.29 0 .434.001.037 0 .076 0 .087.05-.012.004-.042-.01-.025.024 0 .017-.009.025-.025.025Z" fill="#94DDED"/><path d="M10.262 13.544c-.019-.024-.046-.015-.07-.015h-.787c-.105 0-.177-.073-.177-.18v-.218c.026 0 .039.021.055.037.069.068.139.135.205.206a.174.174 0 0 0 .126.055c.037.002.074 0 .111 0 .021 0 .045 0 .054-.02.01-.021-.014-.032-.026-.044l-.5-.5c-.014-.014-.026-.032-.05-.032-.008-.033-.04-.045-.062-.066-.02-.021-.025-.046-.03-.072-.006-.023.013-.03.022-.016.027.04.065.028.101.03.029.001.055.015.053.042-.004.057.036.084.07.117l.205.207c.02.019.04.037.067.043.072.014.12.057.146.125.045.043.068.116.149.112H10.37l-.108.19Z" fill="#6DD2E7"/><path d="M7.862 19.553c.033.011.053.01.05-.036-.003-.074 0-.149 0-.223 0-.022-.007-.05.02-.06.03-.008.062-.012.088.012l.078.071c.009.014.023.012.037.012.032.043.07.08.112.112.007.062-.015.126.012.187.002.032.023.038.05.037l.013.012c0 .008-.002.019.002.024.036.05.006.052-.034.051a3.821 3.821 0 0 0-.172 0c-.052.001-.08.042-.05.08.035.043.028.088.03.134a.563.563 0 0 1-.235-.007v-.406h-.001Z" fill="#94DDED"/><path d="M8.023 12.616v.514c0 .08-.009.088-.09.088H7.84c-.028 0-.055.002-.069-.03-.002-.005-.008-.013-.012-.013-.097-.003-.07-.076-.071-.13-.002-.107 0-.215 0-.322 0-.036-.01-.077.043-.086.003 0 .004-.015.006-.023.095-.004.19-.005.286.001Z" fill="#99DFEE"/><path d="M8.098 19.966c-.003-.046.004-.09-.03-.133-.031-.039-.003-.08.049-.08.057-.002.115-.002.173 0 .04 0 .07-.002.033-.052-.004-.005-.001-.016-.002-.024.02.013.038.014.06-.003.065-.049.11-.048.176-.002.016.01.03.028.037-.007.033-.006.07.012.1-.013.046.013.016-.024.024-.037 0-.167 0-.168.166-.173.043-.001.065-.017.058-.059-.018-.095.029-.157.094-.219.139-.13.27-.267.409-.406.012.04-.015.051-.03.067l-.413.413c-.03.03-.05.15-.033.186.011.023.032.014.05.017.036.006.078-.015.111.017l-.505.298c-.126.074-.248.157-.393.191-.044.01-.088.021-.134.019Zm.349-.213c.037-.007.09.015.095-.042.003-.037-.035-.057-.069-.055-.045.003-.093.028-.096.071-.004.047.048.013.07.026Z" fill="#84D8EA"/><path d="M9.03 13.069c.027.166.005.334.008.5.002.088.005.175.002.263a.432.432 0 0 0-.16.018v-.005c-.107-.138-.061-.288-.042-.438.01-.073.004-.149.005-.223 0-.115 0-.115.118-.115h.068ZM7.19 13.739c-.021.143.016.262.14.348.016.01.024.033.034.05-.011.066-.205.27-.271.287l-.003-.997.003-.333c.065.03.109.07.099.152-.007.06-.002.123-.002.184-.038-.006-.051.01-.05.047.002.072.002.143 0 .215-.001.037.012.053.05.047Z" fill="#8EDCEC"/><path d="M13.191 16.758c.065.005.1.041.114.105.01.045.029.088.025.136a9.309 9.309 0 0 1-.51.3c-.018-.031-.015-.061.01-.085.035-.034.042-.074.038-.12-.002-.034.005-.068.034-.088.066-.046.074-.11.065-.18-.007-.056.014-.074.069-.07.051.005.103.001.155.001Z" fill="#94DDED"/><path d="M9.774 13.243a.187.187 0 0 0-.145-.125c-.028-.006-.048-.024-.067-.043-.068-.07-.137-.138-.206-.207-.033-.033-.073-.06-.07-.117.002-.027-.024-.04-.052-.042-.036-.002-.074.01-.1-.03-.01-.013-.03-.007-.024.016.006.026.01.05.031.072.021.021.054.033.062.066l-.112.1c-.018-.017-.012-.038-.012-.058v-.255l.285.001a.096.096 0 0 0 .036.093c.065.055.099.136.165.19.03.026.056.046.097.041.033-.003.067.002.1 0 .066-.006.101.03.124.087-.01-.004-.023-.004-.028-.011-.057-.078-.137-.045-.214-.041.04.049.086.09.13.132a.09.09 0 0 1 0 .131Z" fill="#84D8EA"/><path d="M12.424 13.963a.254.254 0 0 0-.14-.024h-.422l-.09-.001a.332.332 0 0 1 .321-.193c.15 0 .268.074.33.218Z" fill="#78D4E8"/><path d="M7.265 16.795h.422c.043 0 .064.011.063.06 0 .046-.025.053-.063.052h-.595v-.112h.173Z" fill="#86D9EB"/><path d="m12.322 17.094.14.113c-.027.041.02.037.033.054.013.018.045.033.006.056l.02.071c.018.028-.01.056 0 .083-.02.023-.048.033-.074.047-.012-.019-.034-.05-.049-.034-.035.038-.053.007-.083-.001-.052-.014-.015-.047-.024-.07-.015-.032.023-.025.039-.037-.013-.015-.044-.001-.043-.03.002-.025.035-.007.04-.029-.02-.006-.043-.003-.037-.04a.31.31 0 0 0 0-.123c-.008-.037.01-.047.032-.06Z" fill="#61CEE5"/><path d="M7.352 17.068h.408c.035 0 .052.007.053.047 0 .04-.013.054-.054.054-.181-.002-.362-.001-.544-.001h-.123v-.1h.26Z" fill="#86D9EB"/><path d="M13.115 16.2h-.055c-.001-.019-.004-.037-.004-.056v-1.036c.008 0 .016-.002.023-.003l.038.074-.002 1.021Z" fill="#78D4E8"/><path d="M13.056 15.108v1.037c0 .018.003.037.004.055a.563.563 0 0 0 0 .136l-.004.093c-.001.015.006.039-.018.04-.029 0-.019-.026-.021-.043V15.11c0-.023-.016-.057.024-.067.01.012.018.025.027.037-.011.006-.013.016-.012.028Z" fill="#29BCDB"/><path d="M10.048 13.093c.04.007.05.041.06.07.018.05.04.058.077.022.053-.05.108-.097.153-.154.05-.065.117-.046.181-.05a.204.204 0 0 1-.013.113c-.087-.015-.117.056-.175.111h.125l-.016.027c-.076 0-.152 0-.227-.002-.051-.002-.1-.003-.14.038.028-.063.005-.12-.025-.174Z" fill="#84D8EA"/><path d="M12.322 17.094c-.022.014-.04.023-.031.06a.31.31 0 0 1-.001.124c-.006.037.017.034.038.04-.006.02-.04.003-.04.028-.002.029.03.015.042.03-.016.012-.054.005-.04.038.01.022-.027.055.025.07.03.008.048.038.083 0 .016-.017.037.015.05.034-.07.043-.138.09-.213.121v-.645a.127.127 0 0 1 .087.1Z" fill="#86D9EB"/><path d="M13.203 16.162h-.045l-.003-.921c.032.024.042.06.054.097-.002.026-.005.053-.005.08l-.002.744Z" fill="#6DD2E7"/><path d="M10.073 13.268c.039-.04.089-.04.14-.038.075.002.151.001.227.002a.63.63 0 0 1-.07.122h-.347c-.002-.04.063-.04.05-.087Z" fill="#8EDCEC"/><path d="m13.203 16.163.001-.745c0-.027.003-.053.005-.08.029.022.046.053.058.087-.02.02-.013.046-.013.07v.654c0 .018.009.045-.022.05-.028.004-.028-.018-.03-.037Z" fill="#29BCDB"/><path d="M7.352 17.068h-.26v-.161h.272v.05c-.013.001-.032-.004-.034.016-.003.024.014.032.034.034l-.012.061Z" fill="#8EDCEC"/><path d="M7.092 16.547h.137c.044 0 .086-.002.128.029.036.025.089.009.134.007.047-.002.079.014.104.063h-.502v-.1Z" fill="#86D9EB"/><path d="m13.155 15.24.003.923c0 .028-.014.042-.043.037l.003-1.021c.022.014.032.037.037.062ZM13.352 16.199c-.039.007-.05-.009-.05-.047l.001-.661a.26.26 0 0 1 .05.087l-.001.62Z" fill="#29BCDB"/><path d="M13.352 16.198v-.62c.027.023.035.057.05.087v.535l-.05-.002Z" fill="#6DD2E7"/><path d="M9.954 18.975c-.002-.08-.002-.16-.005-.24-.002-.041.024-.04.053-.04.027 0 .048.003.047.04-.002.06 0 .123 0 .184a.316.316 0 0 1-.095.056Z" fill="#5ACCE3"/><path d="M7.19 16.696h.315c.02 0 .045-.005.043.028-.002.027-.025.021-.043.022h-.413v-.05h.098Z" fill="#86D9EB"/><path d="M13.49 16.199h-.05l.001-.35c0-.036-.011-.073.01-.107a.286.286 0 0 1 .042.082l-.002.375Z" fill="#6DD2E7"/><path d="M13.45 15.742c-.02.034-.008.072-.009.107-.002.117 0 .234 0 .35h-.04l.001-.534.048.077ZM13.49 16.199l.003-.375.057.09a.551.551 0 0 0-.008.013c0 .077-.002.154-.001.232 0 .04-.02.044-.05.04Z" fill="#29BCDB"/><path d="M7.092 17.168h.123c-.025.033-.029.055.025.05a.309.309 0 0 1 .055 0c.014.001.039-.008.037.017-.001.02-.024.02-.04.02a.527.527 0 0 0-.2.025v-.112Z" fill="#8EDCEC"/><path d="m10.136 18.87-.001-.118c-.002-.034.002-.058.048-.058.048 0 .055.022.052.06-.002.019 0 .038 0 .056-.027.03-.066.04-.1.06Z" fill="#5ACCE3"/><path d="M10.455 13.205h-.124c.058-.055.088-.126.175-.111a.224.224 0 0 1-.05.111Z" fill="#8EDCEC"/><path d="M7.862 19.553v.406c-.01.003-.018.002-.026-.005v-.401h.026Z" fill="#84D8EA"/><path d="M10.83 16.499v.21c0 .017.002.043-.023.04-.022-.001-.013-.026-.013-.04-.002-.066-.002-.132-.002-.198a.046.046 0 0 1 .039-.012ZM7.092 16.746h.173v.05h-.173v-.05ZM10.719 16.523v.178c0 .02.005.05-.022.05-.026-.001-.015-.03-.015-.047v-.171l.037-.01ZM7.093 16.286c.034.005.083-.018.085.047.002.07-.049.049-.086.053v-.1Z" fill="#8EDCEC"/><path d="M13.652 16.096c-.026.023-.001.092-.05.081-.032-.007-.01-.064-.013-.1-.003-.026 0-.052.002-.079a.207.207 0 0 1 .061.099Z" fill="#29BCDB"/><path d="M7.092 16.435c.037 0 .074 0 .11.003.016.002.034.015.031.033-.003.02-.023.013-.036.013h-.104v-.05ZM10.767 16.515v.234l-.023.001v-.23l.023-.005ZM10.657 16.535v.214l-.026.001v-.209l.026-.006ZM11.126 16.44l.023.06c-.047-.043-.112.007-.158-.031.043-.018.089-.023.135-.03Z" fill="#8EDCEC"/><path d="M10.325 18.76c-.002-.046.034-.067.109-.062a.454.454 0 0 1-.109.063Z" fill="#41C4DF"/><path d="M7.19 16.696h-.098v-.05h.061l.037.05ZM7.093 16.038c.01.002.029-.005.028.012 0 .017-.018.01-.029.013v-.025ZM10.184 16.634c-.001.01-.002.027-.005.027-.016.002-.017-.013-.02-.024l.025-.003Z" fill="#8EDCEC"/><path d="M8.499 14.448c-.018-.008-.018-.017 0-.027v.027Z" fill="#78D4E8"/><path d="M13.056 15.108c-.001-.012 0-.022.012-.028l.012.025-.023.003Z" fill="#41C4DF"/><path d="m13.542 15.927.008-.013a.022.022 0 0 1 .002.011l-.01.002Z" fill="#6DD2E7"/><path d="M17.343 12.088a.5.5 0 0 0-.03-.198c.045.003.04-.029.04-.058 0-.182.002-.364 0-.546a.13.13 0 0 1 .041-.104c.093-.089.183-.18.272-.272a.123.123 0 0 1 .098-.04c.178.002.356 0 .534 0 0 .069.002.137-.001.205a.108.108 0 0 0 .036.087c.077.075.078.229-.002.3a.224.224 0 0 0-.085.198c.008.124.056.179.18.179h.229a.15.15 0 0 0 .151-.136c.003-.03.016-.037.043-.038.142-.005.286.019.426-.035.032-.012.044-.02.042-.051.063.048.137.038.209.035.054-.002.11.016.163-.01.044-.03.094-.026.143-.026.02 0 .048.005.06-.006.046-.043.1-.03.152-.03a.148.148 0 0 0 .142-.144v-.322c.105.051.202.114.3.177l-.002.458c0 .08-.094.215-.169.245-.074.029-.12.09-.117.157.003.07.048.125.125.148.02.006.027.018.038.034.053.074.107.145.218.13.08-.012.16-.01.22.06a.753.753 0 0 1-.27.31c-.236.153-.482.289-.726.428.003-.06-.026-.085-.086-.08-.03.002-.06 0-.091 0 .009-.055-.028-.05-.062-.05H18.56l-.037.001c-.014.001-.024.007-.025.022-.002.018.009.026.026.027h1.028c.002.021-.002.04-.024.05-.009-.038-.04-.024-.061-.024H18.518c-.015.002-.021.012-.02.026 0 .012.006.02.019.02a.63.63 0 0 0 .05.003h.861c0 .017-.01.024-.025.025h-.854c-.02 0-.052-.01-.05.028.002.03.03.021.05.021.098.002.197.002.296.002 0 .017 0 .034-.024.036h-.278c-.017 0-.044-.01-.042.02.001.023.025.016.04.017l.242.002c-.003.021-.014.034-.037.035h-.21c-.018 0-.04-.002-.038.027.001.023.02.022.037.022h.16c0 .016-.008.025-.024.026h-.141c-.018 0-.034.004-.032.027.001.019.015.021.03.022h.093a.25.25 0 0 0-.013.104c.003.042-.014.06-.057.058-.064-.002-.128 0-.191 0h-.435c-.008-.003-.016-.01-.024-.008-.154.018-.309.004-.463.007-.084.002-.082 0-.085-.086-.008-.25.017-.5.012-.75a.133.133 0 0 1 .044-.108.116.116 0 0 0-.025-.186c-.019-.011-.018-.026-.018-.042l-.001-.273c0-.035.014-.046.048-.046.023 0 .051.013.073-.018-.013-.002-.02-.006-.029-.005-.055.004-.105.004-.096-.075.001-.003-.012-.008-.019-.012Zm2.047.968h.205c.012 0 .027 0 .028-.017 0-.016-.013-.018-.026-.019h-.031l-1.01-.001-.038.001c-.015.002-.021.011-.02.026.001.011.007.02.019.02a.68.68 0 0 0 .05.002c.274 0 .549.005.823-.012Z" fill="#8EDCEC"/><path d="M18.298 10.87c-.178 0-.356.002-.534 0-.04-.001-.07.012-.098.04-.089.092-.18.184-.272.272a.128.128 0 0 0-.041.104c.002.182 0 .364 0 .546 0 .03.005.06-.04.058-.047-.092-.124-.16-.19-.237-.022-.026-.048-.05-.063-.083a.126.126 0 0 0 0-.153.236.236 0 0 1-.043-.155c.003-.077 0-.153 0-.23 0-.02-.002-.042.015-.058.046-.042.051-.095.049-.153-.003-.062-.001-.124-.001-.186 0-.081-.03-.11-.111-.112-.08-.002-.162-.101-.146-.18.014-.075-.02-.118-.097-.119h-.366c0-.052-.007-.104 0-.155.028-.182-.02-.33-.177-.437-.03-.02-.036-.051-.036-.087.002-.103-.001-.207.002-.31a.124.124 0 0 0-.043-.103c-.05-.046-.089-.113-.147-.14-.075-.033-.082-.096-.112-.152-.001-.003-.006-.004-.01-.006-.005-.04-.03-.066-.062-.088a.276.276 0 0 0-.434.169c-.003.013.001.038-.012.037-.051-.005-.07.05-.113.056v-.834c.115.044.213.117.318.178.717.417 1.433.835 2.148 1.255.272.159.543.322.814.483 0 .136 0 .137-.138.14-.033.002-.021.024-.024.04-.005.033.014.072-.011.1-.025.029-.026.06-.026.093v.408Z" fill="#86D9EB"/><path d="M17.343 12.088c.006.004.02.009.019.012-.01.08.04.08.096.075.008 0 .016.003.029.006-.022.03-.051.018-.074.018-.034 0-.048.01-.048.046.002.09 0 .182.001.273 0 .016 0 .03.019.041.069.038.082.13.024.186a.132.132 0 0 0-.044.11c.005.25-.02.499-.012.749.003.087 0 .088.085.086.155-.003.31.011.464-.007.007-.001.015.005.023.008.027.067.088.107.136.155.083.084.161.175.256.247-.142.088-.284.178-.435.25-.024-.003-.049-.006-.073-.006h-.58c.019-.07-.04-.058-.074-.074.005-.031-.017-.049-.036-.068-.142-.14-.281-.281-.427-.417-.116-.106-.223-.221-.335-.332-.018-.019-.035-.042-.065-.043.128-.163.268-.315.404-.47h.136c.003.006.007.019.011.02.094.009.188.005.282.002.018-.001.026-.02.026-.038 0-.024-.02-.022-.035-.022h-.197c.023-.025.043-.056.07-.076.083-.059.105-.137.09-.231l-.013-.08c.055-.063.107-.13.165-.191a.424.424 0 0 0 .111-.23Z" fill="#A4E3F0"/><path d="M14.22 14.748c-.13-.217-.252-.438-.37-.66.046-.005.102.02.138-.012.136-.119.331-.196.324-.425 0-.016.007-.032.01-.048h.594c.03 0 .057.003.085.013.034.221.178.346.401.347.06 0 .12-.003.18 0 .154.011.27-.053.364-.17.032-.041.068-.079.102-.118.008-.009.015-.02.03-.01.032.007.08-.024.083.046.002.067-.04.054-.076.053-.033 0-.048.014-.049.048 0 .037.003.067.05.065-.008.042-.05.058-.071.09a.273.273 0 0 1-.29.12h-.098c-.011 0-.027-.003-.032.012-.004.014.009.022.017.03.042.042.082.085.126.126.035.032.056.07.05.118-.074.023-.031.072-.025.112-.079.016-.117.074-.101.153l.002.015c-.06.019-.078.106-.157.094-.03-.005-.061 0-.092 0-.001-.025-.014-.037-.037-.038h-.398c-.026-.026-.055-.01-.08 0-.043.021-.08.02-.126 0-.042-.017-.094-.045-.142 0-.057-.002-.1.06-.161.037l-.251.002Zm.57-.188c.028 0 .054.002.081 0 .067-.005.153.03.196-.014.04-.041.007-.127.013-.192.005-.051-.013-.088-.05-.125-.039-.04-.078-.06-.135-.055-.106.009-.214-.013-.32.015-.032.009-.069.016-.067.066.002.086.001.173 0 .26-.001.035.014.046.047.045h.236Z" fill="#78D4E8"/><path d="M18.298 10.87v-.407c0-.034.001-.064.025-.092.025-.03.007-.068.012-.102.003-.015-.01-.037.024-.038.138-.004.138-.005.137-.141.16.08.31.176.465.267.076.044.157.08.224.14-.069.046-.05.13-.075.194-.022.056-.005.127-.005.19 0 .023.005.042.023.056.058.043.07.103.064.17-.017.086-.04.174.047.239a.184.184 0 0 1 .078.191c-.003.014 0 .029 0 .043.002.031-.01.04-.042.052-.14.053-.284.03-.426.034-.027.001-.04.008-.043.038a.15.15 0 0 1-.151.137h-.23c-.123 0-.17-.055-.179-.18a.223.223 0 0 1 .085-.197c.08-.072.079-.226.003-.301a.108.108 0 0 1-.037-.087c.002-.068 0-.136 0-.204v-.001ZM14.633 14.708c.047-.045.1-.016.141 0 .047.02.083.022.127.001.024-.011.053-.026.08 0 0 .036-.002.074 0 .11.002.025-.016.061.018.072.032.01.07.014.097-.019.02-.023.043-.027.072-.027h.346c.019 0 .04-.004.053.011.08.092.216.152.186.31l.013.011c.041-.043.086-.085.124-.133.029-.036.01-.074-.035-.089-.044-.015-.091-.03-.104-.085v-.012c.123.099.16.1.273.012l.012.013c-.014.025-.035.048-.063.054-.046.01-.05.04-.049.079.002.113 0 .226 0 .339-.05-.016-.008-.063-.04-.1-.026.029-.05.058-.077.086-.012.014-.024.027-.047.02-.07-.023-.117.018-.17.058-.107.083-.15.215-.25.304-.044.04-.082.086-.124.129h-.235c-.027-.002-.048.005-.064.027a.338.338 0 0 1-.144-.148l-.454-.807c.005-.028.025-.03.047-.03h.105c.108 0 .161-.053.161-.161v-.025Z" fill="#7BD6E8"/><path d="M14.322 13.603c-.003.016-.01.032-.01.048.007.23-.187.306-.324.425-.036.032-.092.007-.139.012-.139-.244-.282-.486-.415-.732a.368.368 0 0 1 .33-.549l.831.002c.002.097-.045.189-.035.283a.258.258 0 0 1-.111.255c-.012.008-.02.02-.031.03-.07.06-.075.146-.096.226Z" fill="#86D9EB"/><path d="M15.838 8.833c.003.002.008.003.01.007.03.055.037.119.111.152.059.026.098.094.148.14.031.029.043.06.042.103-.002.103 0 .207-.001.31 0 .036.005.066.035.087.157.106.205.255.178.438-.008.05-.001.103 0 .154 0 .056-.004.111 0 .166.003.047-.014.08-.047.112-.034.034-.08.059-.093.111-.097-.11-.2-.215-.29-.329a.415.415 0 0 0-.36-.156h-.056v-.582c0-.047-.013-.08-.062-.092a.089.089 0 0 1-.012-.066c.008-.056-.013-.098-.057-.134-.025-.022-.059-.042-.058-.083.063-.065.142-.121.184-.197.053-.095.128-.082.206-.078.056.003.095-.015.122-.063Z" fill="#61CEE5"/><path d="M15.217 8.174v.834c.001.033-.007.068.012.099-.027.069-.006.14-.013.21 0 .141-.002.282.001.423a.152.152 0 0 1-.049.12c-.048.048-.11.087-.138.154-.065.029-.104.087-.15.137-.05.033-.085.08-.124.124-.031.002-.038.023-.037.05-.055.026-.106.068-.174.05a.483.483 0 0 0-.234-.001h-.375l-.21.001c-.03 0-.062 0-.093-.002l.031-.061a.263.263 0 0 0 .137.025h.632c.083 0 .136-.055.137-.139.001-.046-.012-.095.025-.135.02-.057.076-.081.112-.124V8.57c0-.025.012-.054-.017-.074.047-.087.084-.18.16-.248a.342.342 0 0 1 .366-.075Z" fill="#8EDCEC"/><path d="M16.22 10.613c.013-.052.06-.077.094-.11.032-.033.05-.066.046-.114-.003-.054 0-.11 0-.165h.366c.076 0 .111.044.097.119-.015.079.065.178.146.18.082.002.11.031.111.112 0 .063-.002.124 0 .186.004.058-.002.112-.047.153-.018.016-.015.038-.015.059 0 .076.002.153 0 .23a.233.233 0 0 0 .043.154.126.126 0 0 1-.001.154c-.106-.1-.195-.216-.29-.326-.052-.06-.113-.114-.152-.185.007-.082.003-.086-.085-.088a7.041 7.041 0 0 1-.312-.36Z" fill="#7BD6E8"/><path d="M16.087 13.877c-.047.002-.051-.028-.05-.065 0-.034.015-.048.049-.047.036 0 .078.013.076-.054-.003-.07-.051-.039-.083-.047-.007-.016.002-.028.011-.038l.202-.224c.03.001.046.025.065.043.111.111.219.226.335.333.146.135.285.277.427.417.02.018.04.036.036.067a2.757 2.757 0 0 1-.437.01c-.1-.006-.176.017-.236.097-.02.026-.048.044-.073.066-.038-.04-.073-.082-.114-.119-.048-.044-.083-.102-.144-.13-.004-.05.015-.11-.075-.102-.033.003-.039-.035-.038-.066 0-.039.025-.044.054-.041.04.004.058-.008.058-.053 0-.053-.028-.05-.063-.047Z" fill="#B0E6F1"/><path d="M20.798 12.486c-.058-.071-.14-.072-.219-.06-.11.015-.165-.056-.218-.13-.01-.016-.018-.029-.038-.035-.077-.022-.122-.077-.125-.147-.002-.068.043-.13.117-.158.075-.03.169-.165.169-.244l.001-.46a.89.89 0 0 1 .421.653c.011.072.024.146.002.22-.024.002-.06-.005-.06.026-.002.07-.018.142.009.21a.39.39 0 0 1-.06.125h.001Z" fill="#6DD2E7"/><path d="m20.187 11.076-.001.323a.148.148 0 0 1-.142.143c-.052 0-.106-.013-.152.03-.012.012-.04.007-.06.007-.05 0-.1-.005-.143.025-.009-.02-.025-.027-.045-.025-.031.004-.05-.014-.07-.033-.03-.033-.06-.204-.027-.246.06-.077.036-.161.042-.244.007-.097.008-.19-.099-.242-.021-.011-.027-.035-.025-.06v-.099l.687.396c.012.007.023.017.035.025Z" fill="#78D4E8"/><path d="M14.595 10.063c-.037.04-.024.09-.025.135-.001.084-.053.138-.137.139h-.632a.264.264 0 0 1-.137-.025l.278-.486c.102 0 .203 0 .304.002.034 0 .054-.013.078-.039.068-.076.131-.158.221-.211 0 .026-.02.039-.035.055l-.136.135c-.012.013-.032.024-.023.046.008.02.028.011.044.013.056.006.13-.026.165.015.033.039.006.11.01.168.002.02-.01.048.025.053Z" fill="#6DD2E7"/><path d="M16.41 14.435c.023-.022.052-.04.071-.067.06-.08.137-.103.236-.097.146.009.292.006.438-.009.033.016.093.005.074.073v.037c0 .117-.018.136-.135.138-.024 0-.05-.005-.064.025-.101-.002-.182.03-.221.132-.036.092-.014.17.059.234.007.007.01.017.016.026-.116.082-.24.15-.363.218 0-.021-.002-.042 0-.062.01-.103-.005-.196-.094-.264-.021-.016-.018-.04-.018-.063v-.321Z" fill="#78D4E8"/><path d="M14.322 13.603c.02-.08.027-.166.096-.226.011-.01.02-.022.03-.03a.26.26 0 0 0 .112-.255c-.01-.095.037-.186.035-.283a.372.372 0 0 1 .409.386l-.003.421a.232.232 0 0 0-.085-.013h-.594Z" fill="#6DD2E7"/><path d="M16.41 14.435v.322c0 .023-.004.047.017.062.09.067.105.16.094.264-.002.02 0 .041 0 .062a6.34 6.34 0 0 1-.384.224c-.005-.01-.014-.014-.026-.014.002-.132-.015-.263-.014-.395 0-.113.017-.226.002-.338.036.004.056-.01.05-.048-.005-.023.014-.065-.028-.061-.085.008-.09-.04-.084-.102h.043c.034 0 .071.01.07-.049-.001-.049-.019-.068-.066-.063-.04.005-.047-.016-.048-.05 0-.04.014-.052.05-.05.022.001.047.007.065-.013.061.029.096.087.144.13.04.038.076.08.114.12v-.001Z" fill="#84D8EA"/><path d="M19.528 13.193c.022-.01.026-.028.025-.05h.073c.03 0 .061.002.091 0 .06-.005.089.02.086.08-.287.17-.573.344-.866.507-.021-.021-.046-.033-.077-.027-.07.012-.145-.036-.207-.005-.08.04-.16.023-.24.03-.027.001-.05-.004-.053-.038h.191c.043.002.061-.016.057-.058a.248.248 0 0 1 .013-.103c.029-.004.046-.02.05-.05.017 0 .024-.01.024-.025.03-.004.046-.021.051-.05.023 0 .035-.013.037-.035.023-.004.035-.017.038-.04.024 0 .023-.018.024-.034.048-.016.097-.015.147-.015h.352c.028 0 .056.001.06-.037.015 0 .024-.008.024-.024.034-.007.075.015.1-.026Zm-.531.2v-.001h.118c.023 0 .032-.017.037-.036.003-.014-.004-.025-.02-.025h-.222c-.01 0-.02.01-.026.016-.01.01-.027.018-.02.035.007.014.022.01.034.01h.1-.001Z" fill="#A4E3F0"/><path d="m13.634 10.373.093.002v.342c0 .062.004.125 0 .187-.004.064.003.076.07.078.016 0 .032.002.049 0 .039-.004.056.01.054.052-.003.084-.001.168-.002.253-.15.012-.294.01-.41-.108a.362.362 0 0 1-.074-.418c.067-.132.138-.263.22-.388Z" fill="#6DD2E7"/><path d="M15.03 10.014c.028-.068.09-.106.139-.155a.152.152 0 0 0 .049-.12c-.003-.14-.001-.281-.001-.421.049-.008.083.013.118.048.035.034.057.088.118.088.05.012.062.046.062.093v.58c-.078.005-.157.01-.235.013-.01-.014-.024-.017-.038-.014-.102.02-.159-.042-.212-.112ZM14.595 10.063c-.035-.005-.023-.033-.025-.053-.004-.057.023-.13-.01-.168-.035-.04-.109-.008-.165-.015-.015-.001-.036.007-.044-.013-.009-.021.011-.033.023-.045l.136-.136c.015-.016.036-.029.035-.055v-.011c.011-.009.013-.02.013-.033 0-.265-.002-.529-.003-.793a.333.333 0 0 1 .05-.095c.007 0 .013 0 .02-.002.02-.008.03-.042.056-.03.027.015.013.046.013.069v1.186c0 .023-.009.05.013.07-.036.043-.092.067-.112.124Z" fill="#84D8EA"/><path d="M18.36 13.69c.003.034.026.04.053.037.08-.006.16.011.24-.03.061-.03.137.018.207.006.03-.006.056.006.077.027-.206.122-.41.25-.62.362-.095-.072-.173-.162-.256-.246-.048-.05-.11-.088-.136-.156h.435Z" fill="#B0E6F1"/><path d="M19.465 10.655v.1c-.001.024.004.048.026.058.106.053.105.146.098.243-.082 0-.165.004-.247 0-.059-.003-.11.006-.15.051.006-.067-.006-.128-.064-.17-.018-.014-.024-.033-.023-.056 0-.064-.017-.134.005-.19.025-.065.006-.148.075-.195.102.038.189.104.28.16Z" fill="#41C4DF"/><path d="M14.545 9.567v.011c-.09.053-.153.135-.221.212-.024.025-.044.038-.078.038-.101-.002-.202-.001-.304-.002.041-.086.088-.169.14-.249.082.015.149-.005.2-.075.015-.021.042-.033.06-.053.043-.047.113-.077.115-.153.003-.105.001-.21.001-.315 0-.015-.001-.03-.016-.038.016-.05.048-.092.073-.138.04.007.03.039.03.064v.698Z" fill="#8EDCEC"/><path d="M13.898 11.287c0-.085-.001-.17.002-.254.002-.042-.015-.056-.054-.051-.017.002-.033 0-.05 0-.066-.002-.073-.014-.069-.078.004-.063 0-.125 0-.188v-.341h.209c-.004.015-.01.031-.01.047-.005.14.015.278.003.421.042-.014.059-.038.058-.079-.002-.06 0-.12 0-.18.034.007.024.034.024.055v.648a.321.321 0 0 1-.113 0Z" fill="#41C4DF"/><path d="M16.111 15.354c.011 0 .021.004.026.015l-.874.515c-.013.008-.03.011-.046.016v-.049c.04-.043.079-.089.123-.128.1-.089.143-.222.25-.304.053-.041.1-.082.17-.06.024.008.035-.005.047-.018.026-.028.051-.058.076-.087.033.037-.01.085.042.1h.186Z" fill="#94DDED"/><path d="M17.03 14.535c.014-.03.04-.025.065-.025.116-.002.134-.02.135-.138v-.037l.579.001c.024 0 .049.003.073.005-.031.042-.08.056-.122.081l-.556.323c-.004-.114-.075-.174-.173-.21Z" fill="#6DD2E7"/><path d="M14.545 10.374c.068.018.119-.024.174-.05h.098c.032 0 .053-.001.07.043.015.04.056.087.117.081 0 .157.002.313 0 .47a.343.343 0 0 1-.134.28c-.02-.019-.013-.043-.013-.065V10.6c0-.039.01-.078.01-.117.001-.023.014-.059-.03-.059-.041.001-.028.034-.03.056-.002.023 0 .045 0 .068h-.048a6.42 6.42 0 0 0-.002-.098c0-.017-.01-.026-.028-.025-.015.001-.02.01-.021.025l-.002.085h-.047l-.002-.085c0-.014-.006-.024-.021-.025-.018-.002-.028.007-.028.024l-.002.086h-.046c-.008-.037.012-.078-.015-.114v-.047Z" fill="#61CEE5"/><path d="M17.03 14.535c.1.036.17.095.174.21l-.073.042c-.005-.034.01-.073-.042-.11.026.055.007.092.004.131-.028.02-.054.04-.087.05-.02-.018-.045-.018-.07-.018.003.03.024.029.04.034-.03.02-.055.045-.092.053-.005-.008-.009-.02-.016-.026-.073-.064-.095-.142-.06-.233.04-.102.121-.135.223-.133Zm-.14.155c-.028.034-.026.063 0 .106v-.106Zm.086-.06c-.024-.013-.038 0-.05.013-.002.001.002.007.003.01.017.002.03-.007.047-.023Zm.04-.002c.005.005.009.009.014.01.01.005.024.008.017-.009-.003-.01-.02-.01-.032 0Z" fill="#84D8EA"/><path d="M14.545 10.374v.047c-.046 0-.037.035-.037.062v.8h-.05V10.463c0-.018.001-.04-.027-.038-.023.001-.022.02-.022.037v.05l-.003.775h-.02c-.03-.111-.028-.226-.027-.34v-.434c0-.037.018-.084-.042-.1-.012-.003-.006-.026-.006-.04a.482.482 0 0 1 .235 0Z" fill="#6DD2E7"/><path d="M14.442 8.943c.015.009.016.023.016.038 0 .105.003.21 0 .315-.003.076-.072.106-.116.154-.018.019-.045.031-.06.052-.05.07-.118.09-.2.075.07-.147.158-.285.238-.426.04-.07.07-.145.122-.208Z" fill="#7BD6E8"/><path d="M14.311 10.373c0 .014-.006.037.006.04.06.016.041.063.042.1v.434c0 .115-.004.23.027.341a.18.18 0 0 1-.077 0v-.172c-.001-.018-.006-.041-.028-.042-.029 0-.02.026-.02.042v.173l-.051-.001c.002-.097-.005-.194-.001-.291.006-.159.001-.317.001-.476v-.044c0-.02.007-.039.03-.038.024 0 .018.023.02.038.002.017-.008.04.024.056v-.16h.027Zm-.002.621v-.341c0-.02.012-.049-.024-.054-.003-.007-.005-.017-.01-.02-.009-.003-.014.006-.014.014v.042l-.001.335c-.018.021-.016.045-.004.066.006.012.022.01.033.007.029-.006.018-.03.02-.049Z" fill="#29BCDB"/><path d="M15.004 10.448c-.061.006-.102-.04-.117-.08-.016-.045-.037-.044-.07-.044h-.098c0-.027.006-.048.037-.05.022.048.064.022.097.021.033 0 .027-.034.028-.058v-.087c.046-.05.084-.108.149-.137.053.07.11.133.212.112.014-.002.029 0 .038.015a.39.39 0 0 0-.276.308Z" fill="#78D4E8"/><path d="M14.01 11.288v-.649c0-.02.01-.047-.023-.054a.257.257 0 0 1 .019-.149c.02-.04.003-.046-.02-.063h.05l.013.103c.002.018 0 .04.024.041.02.001.033-.017.036-.036.006-.036.01-.072.014-.108h.025v.915a.473.473 0 0 1-.138 0Zm.065-.043c.048-.113.03-.232.034-.349.005-.117.001-.235.001-.359-.045.021-.063.044-.062.085.002.188 0 .375 0 .563 0 .025 0 .05.027.06Z" fill="#29BCDB"/><path d="M16.832 12.932h-.112l-.002-.019.295-.345.054-.059.013.079c.014.094-.008.173-.09.231-.028.02-.048.05-.071.077-.027.017-.049.046-.087.037Z" fill="#78D4E8"/><path d="M14.149 11.288v-.915h.136v.16c-.033-.016-.022-.038-.025-.056-.002-.015.004-.037-.02-.038-.023 0-.03.019-.03.039v.043c0 .159.005.317-.001.476-.004.097.002.194 0 .291a.108.108 0 0 1-.06 0Z" fill="#41C4DF"/><path d="m14.406 11.287.003-.776v-.05c0-.016-.001-.035.022-.036.029-.002.028.02.028.038V11.283c-.017.014-.035.009-.053.005ZM14.508 11.283v-.8c0-.027-.01-.062.038-.062.026.036.006.077.014.114v.752c-.017.004-.035.01-.051-.005ZM14.607 10.535l.001-.086c0-.017.01-.026.028-.024.015 0 .02.01.021.025l.002.085v.67l-.001.077c-.016.015-.035.01-.053.006l.001-.753ZM14.706 10.535c0-.028 0-.057.002-.086 0-.013.006-.023.021-.024.018-.002.027.008.028.025 0 .032 0 .065.002.098v.658l-.002.053c-.021.023-.047.018-.073.01-.003-.024.033-.035.023-.063v-.67ZM14.806 10.548v-.069c.003-.022-.01-.054.03-.055.046 0 .032.036.031.059 0 .039-.01.078-.01.116v.534c0 .022-.006.046.013.064-.015.02-.034.035-.06.037l-.004-.028v-.659Z" fill="#29BCDB"/><path d="M14.606 10.535v.753h-.046v-.752h.046Z" fill="#6DD2E7"/><path d="M14.472 14.895h-.106c-.022 0-.042 0-.046.029a1.205 1.205 0 0 1-.1-.177l.251-.001v.149Z" fill="#61CEE5"/><path d="M14.707 9.94c-.021-.02-.012-.047-.012-.071V8.683c0-.023.013-.054-.014-.068-.025-.013-.036.022-.056.029-.006.002-.013.002-.019.003.024-.053.048-.105.085-.15.028.02.016.049.016.074V9.94Z" fill="#6DD2E7"/><path d="m15.216 15.851.001.049a.321.321 0 0 1-.3-.022c.016-.022.037-.028.064-.027h.235Z" fill="#41C4DF"/><path d="M20.857 12.361c-.027-.069-.01-.14-.009-.21.001-.032.037-.024.06-.026a.582.582 0 0 1-.05.236Z" fill="#86D9EB"/><path d="M14.546 9.567v-.698c0-.025.009-.057-.03-.064l.04-.064.002.793c0 .012-.001.024-.012.033Z" fill="#6DD2E7"/><path d="M14.26 11.288v-.172c0-.016-.008-.043.02-.042.022 0 .027.024.028.042v.172h-.048Z" fill="#41C4DF"/><path d="M16.532 10.972c.088.002.093.006.085.088a.19.19 0 0 1-.085-.088Z" fill="#29BCDB"/><path d="M17.092 14.808c.004-.039.023-.077-.003-.132.051.038.037.077.041.11l-.038.022Z" fill="#78D4E8"/><path d="M14.707 11.206c.01.027-.026.038-.023.063l-.026.013.001-.077h.047ZM14.806 11.206l.004.028c-.014.015-.03.026-.052.025v-.054h.048Z" fill="#61CEE5"/><path d="M16.976 14.873c-.016-.005-.037-.004-.04-.033.025 0 .05 0 .07.018-.007.011-.018.015-.03.015Z" fill="#78D4E8"/><path d="m16.718 12.913.002.019h-.024c.001-.013.012-.015.022-.02Z" fill="#86D9EB"/><path d="M13.392 8.424 12.77 9.51c-.114.198-.231.395-.347.592h-.253c-.058 0-.114.02-.172.01-.084-.016-.12.015-.124.102-.05-.03-.076-.08-.103-.129-.109-.19-.219-.38-.324-.572-.13-.242-.107-.46.069-.671a.485.485 0 0 1 .135-.108c.2-.115.31-.287.3-.517-.013-.263-.16-.434-.409-.518l-.004-.004c-.011-.067.02-.085.083-.08.057.006.116.001.173.002.017 0 .04-.007.047.008.019.038.051.028.08.029.239 0 .477.002.714-.002.072 0 .126.015.174.071.05.06.098.134.198.106.017-.004.03.013.041.024.031.031.06.065.093.092.05.04.072.087.063.15-.005.029.008.044.032.064.071.064.167.118.142.24-.001.008.009.017.013.026Z" fill="#78D4E8"/><path d="m10.518 7.486-.683-.139c.006-.047-.026-.05-.06-.053.032-.031.047-.069.036-.113-.013-.06.002-.118.002-.177 0-.042-.016-.057-.059-.06-.037 0-.077.032-.097.021-.066-.034-.129-.01-.193-.006v-.086c-.001-.023-.017-.033-.037-.034-.017 0-.022.014-.025.03l-.012.077c-.013.014-.025-.004-.038 0a.11.11 0 0 1-.026-.08.026.026 0 0 0-.02-.027c-.013-.003-.027.004-.032.014-.017.035-.012.072-.004.108.006.029.035.021.057.023v.099a.085.085 0 0 1 .013.05c-.023.04-.017.083-.003.124.005.016.018.028.002.044-.042.04-.076.094-.15.08-.027-.004-.057 0-.086 0h-.037c-.022-.057-.06-.095-.125-.086-.083.011-.15-.012-.199-.082-.005-.008-.016-.012-.024-.018a.037.037 0 0 0-.037-.026c-.02-.056-.07-.086-.112-.123l-.062-.069c-.049-.052-.095-.107-.18-.099-.018.002-.047 0-.062-.02-.085-.107-.217-.16-.305-.264a.18.18 0 0 1-.05-.121V6.2c0-.146.002-.292 0-.438 0-.044.012-.076.05-.097.031.005.025.029.025.048v.18c0 .084.044.12.127.105.008-.001.015-.006.023-.008.046-.007.065.016.054.062a.127.127 0 0 1-.037.062l-.154.152c-.034.032-.022.052.012.07.03.044.085.061.117.106.064.089.14.168.228.232.043.032.083.048.126-.006.034-.043.078-.08.117-.118.013-.013.024-.027.047-.021.057.014.115.003.172.006.026-.003.06.013.063-.036.005-.112.014-.224-.101-.294a.024.024 0 0 1-.01-.01c-.032-.058-.115-.084-.121-.156-.009-.1-.015-.201.005-.301.005-.025.014-.038.04-.035.017.009.034.014.053.012.06-.008.11.004.147.056.015.021.04.019.062.019h.379c.03 0 .056-.007.08-.025.008 0 .018.002.024-.003.039-.03.05-.012.056.028.013.088.004.177.005.266 0 .01-.01.022-.017.031-.04.045-.075.097-.122.132-.096.07-.071.167-.066.26.001.016.004.044.035.042.028-.003.02-.026.023-.043.014-.079.06-.105.128-.073.009.004.02.007.03.005.063-.01.126-.001.19 0 .033.002.059-.012.06-.047 0-.04-.027-.053-.063-.052-.072.003-.148-.017-.223.045.016-.053.048-.075.065-.107.038-.07.115-.102.17-.156.018-.017.058-.013.084 0 .038.022.074.044.119.048a.037.037 0 0 1 .032.04c-.001.02-.02.017-.033.019-.067.006-.1.044-.1.112 0 .033-.003.067 0 .1.006.049.006.1.035.143.024-.008.02-.045.047-.04.038.01.043-.016.056-.04.039-.073.017-.15.023-.226.001-.012-.003-.028.013-.03.008-.002.019.007.026.014.032.029.062.06.095.088.017.015.04.022.06 0 .022-.02.014-.037 0-.06-.03-.055-.083-.09-.125-.135-.027-.029-.063-.057-.048-.1.016-.048.065-.024.098-.024.054.001.09-.023.09-.072-.003-.11.021-.222-.02-.331-.028-.073-.048-.095-.12-.077-.04.009-.05-.008-.055-.037-.004-.018-.001-.037-.002-.056.05-.022.104-.003.155-.005.042-.002.044-.018.044-.046v-.16c.211.117.418.24.624.367-.018.028-.016.059-.016.09v1.062c0 .114.059.17.175.171a.224.224 0 0 1-.092.186c-.02.014-.033.038-.053.051-.067.045-.073.11-.067.18.007.078-.053.14-.134.143-.034.002-.074-.017-.104.018h.002ZM8.88 5.877v.013c-.05.03-.018.077-.024.115-.007.048.017.075.067.085.082.017.102.046.106.133.002.04.015.076.057.073.038-.003.055-.036.056-.077.002-.086.022-.109.112-.131.028-.007.048-.017.024-.05v-.161c.016-.016.016-.032-.008-.035-.028-.004-.059-.01-.085.003a.214.214 0 0 1-.189 0c-.049-.022-.103-.003-.115.032Z" fill="#94DDED"/><path d="m9.119 7.716-.302.919c-.071.011-.13-.018-.185-.077v.363c-.005.01-.008.023-.016.032-.081.095-.192.164-.236.294-.021.064-.035.102.018.153a.11.11 0 0 1 .036.087c-.002.14-.002.281 0 .422 0 .03-.007.056-.026.08-.078.055-.133.12-.113.225.005.024 0 .05.001.074.001.027-.011.038-.037.036 0-.058-.029-.087-.086-.087h-.298c-.02 0-.042-.002-.058.014-.042.042-.075.022-.111-.012-.032-.03-.052-.078-.106-.077-.006-.041.032-.082 0-.123v-.062c.025-.043.011-.09.01-.133 0-.055.006-.103.054-.137.023-.016.024-.04.024-.067 0-.08.004-.161-.001-.241-.007-.107-.003-.207.096-.274.002-.001.002-.004.003-.006l.026-.036c.039-.013.05-.04.05-.081-.003-.114-.001-.228-.001-.341 0-.023.002-.048-.019-.063-.044-.03-.044-.074-.043-.12a2.375 2.375 0 0 0 0-.175c-.002-.033.013-.056.033-.082.036-.046.081-.05.133-.047.013.001.033.008.038-.01.005-.022-.017-.024-.032-.029a.212.212 0 0 0-.078-.21c-.09-.08-.17-.172-.255-.259.113-.009.224-.038.339-.037h.493c.01.007.022.013.028.023.05.077.122.127.207.146.124.03.252.046.358-.059a.08.08 0 0 1 .056-.023Z" fill="#78D4E8"/><path d="M13.391 8.424c-.004-.009-.014-.018-.012-.026.024-.123-.072-.176-.143-.24-.023-.02-.036-.035-.032-.063.01-.064-.013-.111-.063-.151-.033-.027-.062-.06-.092-.092-.012-.011-.025-.028-.042-.024-.1.028-.148-.046-.198-.106-.048-.056-.102-.071-.173-.07-.238.003-.476.001-.714 0-.03 0-.062.01-.08-.028-.008-.015-.031-.008-.047-.008-.058 0-.116.004-.174-.001-.062-.006-.094.012-.083.08-.062.003-.117-.022-.175-.037.001-.057.004-.116.002-.173-.003-.059.02-.082.08-.081.172.002.344.001.515 0 .023 0 .061.016.062-.029.002-.05-.04-.032-.064-.032l-.423-.001c-.014 0-.04.009-.038-.016 0-.021.019-.03.045-.027.087.014.174.004.26.006.017 0 .044.009.043-.02-.002-.024-.026-.017-.04-.017h-.206c-.012 0-.028.002-.028-.016 0-.014.013-.02.026-.02l.044-.001.322-.001c.022 0 .057.014.058-.026.001-.04-.032-.035-.059-.035h-.273c-.012 0-.029.003-.03-.014-.003-.019.014-.023.029-.023h.124c.014 0 .033.001.034-.019 0-.02-.018-.017-.033-.019-.026-.003-.055.007-.082-.008.01-.023.026-.025.042-.029.028-.007.072.018.083-.016.011-.034-.035-.05-.055-.076-.011-.014-.026-.026-.039-.04-.014-.014-.03-.021-.05-.015-.053.019-.107.006-.16.01-.018-.055.035-.116-.012-.17-.002-.003 0-.012.002-.018.03-.07-.005-.119-.058-.157-.046-.034-.046-.077-.048-.129-.003-.071.036-.134.03-.205a.464.464 0 0 1 .036-.253l.801.47.63.368c.038.022.073.047.11.07-.008.055-.068.093-.049.155a.158.158 0 0 1 .001.084c-.015.07.023.116.09.14.04.012.072-.01.11-.001a.32.32 0 0 0 .17-.006v.1c-.02-.009-.041-.023-.062-.024-.077-.003-.153-.001-.23-.001-.012 0-.025 0-.028.017-.003.016.01.026.02.035.12.106.231.222.346.334.03.03.042.063.042.105-.002.13-.001.26 0 .39 0 .022-.009.046.014.064a.75.75 0 0 1-.075.136Z" fill="#8EDCEC"/><path d="M8.47 7.63h-.493c-.115-.001-.226.028-.34.037-.025-.024-.054-.044-.075-.071-.049-.062-.108-.081-.187-.08-.093 0-.146.03-.135.138-.032-.004-.055.01-.076.032-.019.02-.035.047-.07.043l-.002-1.12c0-.007.004-.015.007-.023.033-.002.06-.023.063-.05.006-.095.022-.194-.007-.283a.536.536 0 0 1-.026-.167v-.367c0-.031.004-.059.021-.087.04-.069.019-.127-.052-.153-.011-.028-.007-.057-.003-.086.076.05.148.103.134.213-.007.057-.001.116-.001.174 0 .018 0 .036.011.053.04.054.04.11 0 .164-.01.013-.015.026-.006.04.038.057.036.122.034.184-.002.076.015.155-.029.228-.024.04-.019.084.018.124.038.042.096.036.134.063.146.105.315-.023.311-.18-.001-.068-.01-.151.082-.185.012-.005.022-.02.027-.033.02-.05.056-.054.1-.037v.272c0 .048.019.084.05.121.088.105.22.157.304.264.016.02.045.022.063.02.085-.008.13.047.18.1l.062.068a.42.42 0 0 0-.164.418c.01.062.043.11.064.166h.001Z" fill="#6DD2E7"/><path d="M7.91 6.201c-.044-.017-.08-.013-.1.037-.005.013-.015.029-.027.033-.091.034-.083.117-.081.186.003.156-.165.284-.312.18-.037-.028-.096-.022-.134-.064-.036-.04-.041-.084-.018-.124.044-.073.028-.151.03-.227.002-.063.003-.128-.035-.185-.008-.013-.003-.027.007-.04.04-.054.04-.11 0-.164-.013-.016-.012-.034-.012-.053 0-.058-.006-.117.001-.173.014-.111-.058-.163-.134-.214-.001-.24-.03-.483.061-.716a.627.627 0 0 1 .09-.167h.503c.057.096.146.161.224.237.046.04.041.076-.007.114-.032.025-.059.057-.088.086-.013.013-.03.026-.028.046.005.04-.019.065-.044.09-.014.014-.046.03-.023.053s.045-.002.062-.02l.123-.121c.011-.012.022-.028.041-.02.02.007.012.027.014.042.004.03-.013.07.037.078.004.112-.002.223-.012.335-.047.011-.063.043-.063.09 0 .05.016.103-.024.146-.039.02-.05.053-.05.096.002.147 0 .292 0 .438v.001Zm-.26-.258v-.161c-.002-.065-.028-.09-.09-.09h-.106c-.056-.004-.079.02-.078.076.001.089.007.179-.006.266-.018.132.004.167.134.167h.025c.077 0 .12-.044.121-.122v-.136Z" fill="#7BD6E8"/><path d="M8.048 5.43c.01-.111.015-.223.012-.334.067-.078.087-.164.036-.255-.026-.045-.051-.103-.123-.094-.078-.076-.167-.14-.224-.237.198.003.396-.018.595-.011.06.002.12-.008.18.002.11.019.183-.058.274-.093l.592.342c.042.025.083.052.125.078-.027.114-.01.229-.012.343 0 .036.026.046.055.021a.945.945 0 0 0 .074-.073c.022-.024.045-.042.08-.036v.149c-.063.041-.123.084-.112.175.005.049 0 .099 0 .148 0 .035-.038.046-.05.074a.877.877 0 0 0-.136.137.117.117 0 0 1-.08.026c-.126-.002-.252-.001-.378 0-.023 0-.047.002-.062-.02-.037-.051-.088-.064-.147-.056a.086.086 0 0 1-.053-.012c-.02-.027-.038-.056-.074-.063-.02-.056-.077-.083-.11-.128a.193.193 0 0 0-.201-.082h-.261Zm1.317-.485c0-.131-.084-.217-.203-.224a.22.22 0 0 0-.241.216c.002.133.079.222.233.226a.208.208 0 0 0 .21-.218Zm-.844.212c.131 0 .223-.086.223-.21 0-.133-.09-.218-.22-.227-.12-.008-.229.104-.226.222.004.13.114.233.223.215Z" fill="#6DD2E7"/><path d="M10.26 11.428c-.074.022-.149.012-.224.01.044-.185.017-.373.025-.56.002-.037-.016-.046-.049-.045h-.235c-.05.002-.139.089-.138.139.002.156-.013.313.024.468h-.634c-.003-.173-.026-.346 0-.52a.08.08 0 0 0 .038-.037c.03-.014.044-.057.087-.05H9.295c.036.002.064-.008.07-.05.09-.066.193-.122.174-.262-.006-.047.003-.096-.002-.143-.006-.055.017-.093.056-.129.09-.082.175-.165.316-.14.046.01.086.018.108.058.022.039.052.05.092.045.058.082.102.172.15.26-.04.026-.052.06-.05.11.003.116.001.234 0 .352 0 .032.006.058.027.085.036.044.034.096.006.145-.047.079-.047.152.006.223.009.013.011.026.011.041Z" fill="#78D4E8"/><path d="M7.6 10.162c.054-.001.075.047.106.077.036.034.069.053.11.012.017-.017.038-.014.06-.014h.297c.057 0 .086.029.086.087.024.04.003.07-.028.092-.02.015-.038.028-.035.057-.034.011-.07.012-.1.043-.072.079-.071.162-.045.261.016.061.042.125.043.186 0 .102.026.204-.05.306-.055.074-.101.123-.192.123-.027 0-.05.003-.053.038-.072-.002-.145.007-.214-.017-.1-.033-.2-.02-.3-.015-.062-.01-.086-.065-.123-.103.017-.021.041-.014.063-.014H7.903c.02 0 .043.003.044-.028.002-.036-.022-.034-.046-.034h-.043l-.74-.001-.01-.037H7.908c.02 0 .04 0 .04-.027-.001-.023-.016-.032-.037-.033h-.05l-.767-.002v-.035l.781-.002h.05c.014-.002.022-.01.022-.025 0-.014-.007-.023-.022-.024l-.05-.001-.78-.001v-.047h.787c.016 0 .033-.001.049-.003.012-.002.016-.012.016-.023s-.004-.021-.016-.023a687.857 687.857 0 0 0-.836-.003v-.046l.775-.002h.05c.016 0 .027-.006.027-.025 0-.02-.013-.024-.029-.024l-.05-.001-.774-.001v-.036l.775-.001c.019 0 .037 0 .056-.003.016-.003.022-.017.022-.033 0-.019-.012-.025-.028-.025h-.05a668 668 0 0 0-.775-.002v-.035l.776-.002c.019 0 .038 0 .056-.003.013-.002.02-.013.02-.027s-.007-.025-.02-.027a.343.343 0 0 0-.056-.003l-.776-.002v-.47l.185-.002H7.599ZM11.502 5.989a.466.466 0 0 0-.037.252c.006.072-.032.135-.03.206.003.051.003.095.05.128.052.039.088.087.056.158-.002.005-.003.015 0 .018.046.054-.007.114.01.17-.01.057.057.02.07.059-.063-.005-.075.03-.07.08.003.038 0 .075 0 .112 0 .026-.008.046-.038.046-.069.002-.14.016-.188-.057-.025-.038-.06-.049-.11-.043-.126.013-.136.001-.136-.1 0-.073-.038-.11-.112-.11-.116 0-.174-.057-.174-.171V5.675c0-.03-.002-.062.015-.09l.035.019V6.77c.001.017.012.025.029.025.02 0 .032-.006.033-.027v-1.05c0-.023-.009-.05.017-.068.018 0 .021.02.033.029.01.031.013.064.013.097v.988c0 .02.007.03.028.031.025.001.034-.011.033-.034V5.793c0-.023-.008-.05.017-.068l.455.264Z" fill="#99DFEE"/><path d="m7.278 10.161-.184.002-.002-.793V7.783l.002-.055c.035.004.051-.023.07-.043.021-.023.044-.037.076-.032 0 .118.002.235 0 .353-.001.04.008.063.054.057.02-.002.042 0 .057.018.023.03.053.037.088.032.048-.007.07.01.062.06.02.14-.01.26-.135.344-.013.008-.025.022-.026.04-.001.067.001.135-.003.202-.005.07.018.153-.038.204a.235.235 0 0 0-.084.217c.004.045-.002.091.001.136.006.086.083.151.074.242 0 .004.007.01.012.014.087.056.094.14.088.233-.002.044-.01.083-.046.109-.057.042-.077.098-.067.167.003.026 0 .053.001.08Z" fill="#78D4E8"/><path d="M8.197 10.473c-.004-.029.014-.041.035-.057.03-.022.05-.052.027-.092.026.002.038-.01.037-.036 0-.025.004-.05 0-.074-.021-.105.034-.17.112-.226.002.022.017.024.035.025.086.01.134-.046.18-.104a.552.552 0 0 0 .506.243c.004.04-.003.076-.037.105-.046.038-.051.1-.043.147.03.16.012.32.018.48a.08.08 0 0 1-.038.036c-.032-.015-.024-.044-.024-.07v-.378c0-.025-.006-.047-.036-.048-.027 0-.043.016-.05.04-.003.017-.001.037-.001.055v.924a.052.052 0 0 1-.05 0V10.5c0-.038-.004-.076-.052-.074-.047.002-.034.045-.034.073v.596l-.175-.161v-.191c-.001-.07-.084-.155-.152-.157a.185.185 0 0 1-.14-.066c-.034-.041-.07-.051-.118-.046Z" fill="#8EDCEC"/><path d="M8.197 10.473c.047-.005.084.005.117.046a.185.185 0 0 0 .14.066c.068.002.151.087.153.157v.703c-.103.014-.206.005-.31.006l-.496-.002a.505.505 0 0 1-.002-.02c.003-.034.026-.037.053-.037.09 0 .137-.049.192-.123.076-.102.05-.204.05-.306 0-.061-.027-.125-.043-.186-.026-.099-.027-.183.046-.261.028-.03.065-.032.1-.043Z" fill="#7BD6E8"/><path d="M10.967 6.908c.074 0 .112.037.112.11 0 .1.01.112.137.099.05-.005.083.005.109.044.047.073.12.058.189.057.029 0 .037-.02.037-.047 0-.037.003-.074 0-.11-.005-.052.007-.087.071-.082-.014-.038-.081-.002-.07-.059.053-.004.107.009.16-.01.02-.006.036.001.05.016.013.013.028.025.04.04.02.025.066.041.054.075-.01.034-.055.01-.083.017-.016.003-.033.005-.042.028.027.015.056.005.083.008.014.002.033 0 .032.02-.001.02-.02.017-.034.017l-.124.001c-.015 0-.032.005-.03.024.002.017.02.013.03.013h.274c.027 0 .06-.004.06.036-.002.04-.037.025-.058.025-.108.002-.216.001-.323.001l-.044.001c-.013.001-.026.007-.026.02 0 .018.016.016.028.016h.205c.015 0 .04-.006.04.017.002.029-.025.02-.041.02-.087-.002-.174.008-.26-.005-.027-.004-.045.005-.046.027-.002.024.024.015.039.015.14.001.281 0 .422.002.024 0 .066-.018.064.032 0 .044-.039.028-.062.028-.172.002-.343.002-.515 0-.059 0-.083.022-.08.081.002.058 0 .116-.002.174a23.911 23.911 0 0 1-.845-.173c.03-.035.07-.016.105-.018.08-.003.14-.065.134-.143-.007-.07 0-.135.066-.18.02-.013.034-.037.053-.051a.224.224 0 0 0 .092-.186Z" fill="#86D9EB"/><path d="M8.798 4.408c-.09.034-.164.112-.275.093-.058-.01-.12 0-.18-.002-.198-.007-.395.014-.594.011h-.503a.242.242 0 0 1 .052-.076c.035.007.065.046.108.02-.014-.031-.053-.044-.055-.08l.013-.012.086.08c.016.015.035.029.054.013.02-.018.008-.039-.008-.054-.029-.027-.05-.06-.087-.078l.013-.013.024.007c.022.008.035.05.057.036.026-.018.007-.053 0-.08C7.5 4.266 7.5 4.257 7.5 4.25a.869.869 0 0 1 .88-.082c.147.064.281.155.418.241Z" fill="#B0E6F1"/><path d="M9.067 10.883c-.007-.16.011-.32-.018-.479-.009-.048-.003-.109.043-.147.034-.03.041-.064.037-.105a.666.666 0 0 0 .27-.098.543.543 0 0 1 .71.158c-.04.004-.07-.007-.092-.046-.022-.04-.061-.048-.108-.056-.141-.027-.226.057-.315.14-.04.035-.062.072-.056.128.005.047-.004.096.002.143.018.14-.085.196-.175.262l-.099-.092c-.011-.01-.02-.03-.039-.025-.02.007-.01.028-.011.044v.123H9.19v-.199c0-.014-.005-.031-.024-.03-.017.002-.013.019-.013.03v.199c-.043-.007-.057.036-.087.05Z" fill="#86D9EB"/><path d="M13.466 8.288c-.022-.017-.013-.042-.013-.064-.001-.13-.002-.26 0-.39a.135.135 0 0 0-.042-.105c-.115-.112-.226-.228-.346-.334-.011-.01-.023-.019-.02-.035.003-.016.016-.017.029-.017.076 0 .152-.002.229.001.02 0 .041.015.062.024v.154c.002.04.023.063.064.053.04-.01.108-.108.11-.15.004-.078-.011-.157.013-.234.106.051.202.113.249.23a.352.352 0 0 1-.014.316c-.105.185-.214.367-.32.55ZM8.47 7.629c-.02-.056-.054-.104-.064-.166a.42.42 0 0 1 .164-.419c.04.038.09.068.111.124-.074.061-.12.141-.11.236.019.15.13.246.27.248.157.001.27-.152.262-.272.029 0 .059-.004.087 0 .073.014.107-.04.149-.08.016-.016.003-.028-.002-.044-.014-.041-.02-.083.003-.125 0 .082.042.123.124.125-.02.027-.06-.002-.085.03.056.014.108.003.16.007H9.6a.242.242 0 0 0 .111 0h.063c.034.002.066.006.06.053-.116-.02-.234-.036-.348.004a.541.541 0 0 0-.368.366.079.079 0 0 0-.056.023c-.105.105-.234.088-.358.06a.334.334 0 0 1-.207-.147c-.006-.01-.018-.016-.028-.024Z" fill="#84D8EA"/><path d="M9.662 11.44c-.037-.155-.022-.312-.024-.468 0-.05.088-.137.139-.138.078-.002.157 0 .235-.001.033 0 .05.008.049.045-.009.187.019.375-.025.56l-.374.002Z" fill="#61CEE5"/><path d="M9.713 5.23V4.945l.162.1c-.012.067.01.12.066.16a.108.108 0 0 1 .046.108c-.004.03 0 .062 0 .093-.138 0-.124-.014-.125.122V5.6c.002.031-.004.058-.03.076-.05.035-.064.083-.058.14.004.036-.001.071.001.106a.093.093 0 0 1-.034.082c-.029.026-.057.054-.083.083a.073.073 0 0 1-.085.02c-.03-.01-.021-.04-.021-.064v-.416c.01-.028.048-.039.05-.074.073-.039.124-.089.112-.183-.006-.046-.001-.094-.001-.14Z" fill="#94DDED"/><path d="M10.26 11.428a.065.065 0 0 0-.012-.04c-.053-.072-.053-.146-.006-.225.028-.048.03-.1-.006-.145a.124.124 0 0 1-.027-.085c.001-.117.003-.235 0-.352-.002-.049.01-.084.051-.11.092.149.183.3.258.457.095.202-.038.452-.259.5Z" fill="#84D8EA"/><path d="M8.623 9.91c-.046.058-.094.113-.18.104-.018-.002-.033-.004-.035-.025a.114.114 0 0 0 .026-.08 18.39 18.39 0 0 1 0-.422.11.11 0 0 0-.036-.088c-.053-.05-.04-.088-.018-.152.044-.13.155-.199.236-.294.008-.009.01-.022.016-.033.051-.006.062-.073.116-.075-.054.169-.103.34-.165.506a.613.613 0 0 0 .04.558Z" fill="#A4E3F0"/><path d="M8.917 11.444v-.925c0-.018-.001-.037.002-.055.006-.024.023-.04.05-.04.03.001.035.023.035.048v.378c0 .026-.007.056.025.07-.026.174-.004.347 0 .52-.037.005-.074.02-.113.004Z" fill="#86D9EB"/><path d="M13.365 7.268a.32.32 0 0 1-.17.007c-.037-.01-.07.013-.109 0-.068-.023-.106-.07-.09-.14a.158.158 0 0 0-.002-.084c-.018-.061.041-.1.048-.155.062.02.113.06.167.095-.025.016-.01.03.004.044.031.032.06.066.096.095.045.037.067.08.057.138Z" fill="#7BD6E8"/><path d="m8.78 11.094.001-.596c0-.028-.013-.07.034-.073.048-.002.053.036.053.074v.944a.118.118 0 0 1-.088 0v-.349Z" fill="#86D9EB"/><path d="M13.365 7.268c.01-.058-.012-.102-.057-.139-.034-.028-.064-.063-.096-.095-.013-.013-.028-.027-.003-.044.117.062.232.13.344.202-.025.076-.01.155-.013.233-.002.043-.07.141-.11.15-.042.01-.063-.013-.064-.053-.002-.051 0-.103 0-.154v-.1Z" fill="#99DFEE"/><path d="M11.874 10.213c.003-.087.04-.118.124-.102.058.01.114-.01.171-.01h.254a.352.352 0 0 1-.549.112Z" fill="#A4E3F0"/><path d="M10.922 5.65c-.026.019-.016.046-.016.07v.999l-.001.05c0 .02-.013.028-.033.027-.017 0-.027-.008-.028-.026l-.001-.05V5.605c.026.015.053.03.079.047Z" fill="#8EDCEC"/><path d="M11.047 5.725c-.026.018-.017.045-.017.068V6.762c0 .023-.009.035-.033.034-.021 0-.03-.012-.029-.031v-.988a.305.305 0 0 0-.013-.097c.04-.002.063.027.092.045Z" fill="#86D9EB"/><path d="M9.986 5.405c0-.03-.003-.062 0-.093a.108.108 0 0 0-.046-.108.153.153 0 0 1-.066-.16c.112.044.208.115.31.175v.16c0 .028-.002.043-.044.045-.05.003-.104-.017-.154.006v-.025Zm.031-.19c-.002.004-.005.006-.005.01 0 .003.003.006.005.01.002-.004.005-.006.005-.01 0-.003-.003-.006-.005-.01Z" fill="#A4E3F0"/><path d="M7.099 5.479c.07.025.092.084.051.152a.16.16 0 0 0-.022.088v.366c0 .057.009.11.027.167.03.09.013.189.007.283-.002.028-.03.049-.063.05a17.109 17.109 0 0 1 0-1.106Z" fill="#78D4E8"/><path d="M9.712 4.97v.112c-.035-.006-.058.012-.08.036a.905.905 0 0 1-.074.074c-.029.025-.055.015-.055-.021.002-.115-.015-.23.012-.344l.16.093c0 .027-.003.054.037.05Z" fill="#84D8EA"/><path d="m7.093 10.733.776.001h.05c.016 0 .027.007.027.026 0 .016-.006.03-.022.032-.018.004-.037.003-.056.004l-.775.001v-.064ZM7.093 10.634l.776.001c.019 0 .038 0 .056.003.013.002.021.014.021.027 0 .014-.007.026-.02.028a.343.343 0 0 1-.056.003l-.777.001v-.063ZM7.094 11.118l.767.001h.05c.02.002.035.011.036.034 0 .028-.02.027-.04.027H7.11l-.015-.062ZM7.119 11.217l.739.002H7.9c.024 0 .048-.002.046.033-.001.031-.024.028-.045.028H7.226c-.022 0-.047-.007-.064.014-.023-.021-.032-.05-.043-.077Z" fill="#5ACCE3"/><path d="M8.78 11.094v.348h-.099c.009-.053-.024-.103-.008-.157a.288.288 0 0 0-.003-.15c-.008-.037-.027-.054-.063-.054v-.148l.174.161Z" fill="#A4E3F0"/><path d="m7.094 11.03.78.001.05.001c.015.001.022.01.022.025 0 .014-.008.023-.022.024h-.05l-.78.002v-.053ZM7.094 10.931a687.857 687.857 0 0 1 .836.003c.012.002.016.012.016.023s-.004.021-.016.023a1031.844 1031.844 0 0 1-.836.003v-.052ZM7.094 10.832l.774.001h.05c.016.001.028.006.028.025 0 .02-.011.025-.027.025h-.05l-.774.002-.001-.053Z" fill="#5ACCE3"/><path d="M8.748 8.845c-.053.002-.065.07-.116.076v-.363c.056.059.114.088.185.076l-.069.21Z" fill="#8EDCEC"/><path d="M8.607 11.081c.036 0 .055.017.063.053.012.05.018.1.003.15-.016.054.017.105.008.158a.106.106 0 0 1-.074.003v-.364Z" fill="#86D9EB"/><path d="m7.8 11.43.001.019c-.145.002-.291.017-.436-.009-.03-.005-.06-.015-.08-.042.1-.005.2-.018.3.015.069.023.143.015.215.016Z" fill="#41C4DF"/><path d="M7.409 4.323c.036.017.058.051.087.078.016.015.028.036.008.053-.019.017-.038.002-.054-.013l-.086-.08a.079.079 0 0 1 .045-.038ZM7.5 4.248c0 .008 0 .017.002.025.008.027.027.062.001.079-.022.015-.035-.027-.057-.036l-.024-.007a.22.22 0 0 1 .078-.06Z" fill="#8EDCEC"/><path d="M7.351 4.373c.002.037.04.05.055.08-.043.027-.073-.012-.108-.019a.183.183 0 0 1 .053-.06Z" fill="#86D9EB"/><path d="M9.713 4.97c-.04.004-.039-.023-.037-.05l.037.024v.026ZM8.694 19.652c-.03.025-.067.007-.1.013-.024-.026-.042-.057-.074-.075-.018-.02-.041-.009-.062-.012-.013-.038-.054-.059-.063-.1.003-.022-.007-.039-.023-.054a18.305 18.305 0 0 1-.232-.233.077.077 0 0 0-.068-.023.082.082 0 0 1-.037-.037c-.006-.032.02-.077-.037-.087-.018-.034.012-.021.025-.025h.049a.199.199 0 0 0 .062.062c.124.134.252.262.385.386.045.054.095.104.15.149l.024.037Z" fill="#6DD2E7"/><path d="M10.573 16.751c.04.035.077.032.113.032h.452c-.034.023-.455.039-.523.024-.02-.005-.038-.014-.042-.056Z" fill="#8EDCEC"/><path d="M8.52 19.466a6.964 6.964 0 0 1-.385-.385c.025-.004.042.01.058.027l.3.3c.017.016.03.033.027.058Z" fill="#94DDED"/><path d="M7.364 17.006c-.02-.002-.037-.01-.034-.033.002-.02.02-.015.034-.016h.154c.018 0 .033.005.03.028 0 .019-.015.021-.03.021h-.154Z" fill="#86D9EB"/><path d="M10.956 16.636v-.086c0-.012.003-.026.02-.024.012.001.016.011.016.022v.185c0 .01-.005.02-.017.021-.017 0-.02-.013-.02-.025v-.093ZM11.073 16.75v-.22h.012v.22h-.012ZM11.036 16.53v.22h-.012v-.22h.012ZM10.91 16.75v-.22h.011v.22h-.012ZM10.874 16.53v.22h-.012v-.22h.012ZM11.144 16.732v-.183h.006v.183h-.006Z" fill="#8EDCEC"/><path d="M8.134 19.081a.199.199 0 0 1-.062-.062c.043-.001.063.02.062.062ZM8.694 19.652l-.025-.037h.05c-.009.012.021.05-.025.038Z" fill="#94DDED"/><path d="M10.23 16.697c.011.003.02.006.02.016 0 .002-.01.006-.014.006-.009 0-.017-.005-.017-.015 0-.003.009-.005.012-.007Z" fill="#8EDCEC"/><path d="m9.091 12.932.112-.099c.024 0 .036.018.05.032l.5.5c.012.012.036.022.027.043-.01.02-.034.022-.055.022-.037 0-.074.001-.111-.001a.173.173 0 0 1-.126-.055c-.066-.07-.136-.138-.205-.206-.016-.016-.028-.037-.055-.037-.029-.065-.087-.103-.137-.15v-.049Z" fill="#7BD6E8"/><path d="M7.353 13.675c-.023.074.008.152 0 .23-.004.027.004.064-.036.067-.035.002-.05-.028-.06-.06-.017-.06.018-.12-.003-.183-.01-.033-.002-.073-.001-.11 0-.018-.008-.04.014-.05.023-.01.04.007.055.02.027.02.028.053.03.086Z" fill="#8EDCEC"/><path d="M7.19 13.739c-.038.006-.051-.01-.05-.048a3.421 3.421 0 0 0 0-.214c-.001-.038.012-.054.05-.047v.309Z" fill="#61CEE5"/><path d="M7.9 13.269h.093c.016.001.027.012.027.029.001.014-.011.022-.023.025-.065.013-.131.007-.196.004-.018-.001-.027-.018-.025-.037.003-.02.017-.022.032-.022h.093ZM7.895 13.393h.093c.015 0 .03.006.03.025 0 .014-.013.022-.026.022a5.77 5.77 0 0 1-.186 0c-.015 0-.028-.01-.029-.027 0-.02.016-.02.03-.021h.088Z" fill="#99DFEE"/><path d="M12.658 16.61h-.061c-.03.001-.039-.014-.039-.042 0-.187.002-.374 0-.561-.002-.05.014-.075.066-.068h.025c.112 0 .113.007.107.119-.007.114-.001.23-.002.344 0 .063-.003.125-.003.188 0 .018-.012.019-.024.02h-.069ZM12.869 15.758v.651c0 .022.015.058-.023.06-.041.003-.026-.035-.026-.056v-1.346c0-.02.01-.033.03-.032.02.002.019.02.019.034V15.758ZM12.918 15.754v-.646c0-.016 0-.033.002-.05.001-.012.01-.022.025-.02.012 0 .019.008.02.02a.407.407 0 0 1 .002.049v1.329c0 .016 0 .034-.024.035-.024 0-.025-.017-.025-.034V15.755ZM12.656 16.71l-.073-.004c-.01-.001-.02-.009-.019-.02.001-.014.013-.015.023-.015h.135c.013 0 .027.007.028.02 0 .022-.02.017-.032.017h-.062v.002ZM12.648 16.66c-.024-.01-.081.015-.08-.017.002-.041.058-.015.09-.022a.042.042 0 0 1 .018 0c.024.007.07-.017.07.019-.001.032-.048.014-.075.019h-.023Z" fill="#29BCDB"/><path d="m11.862 13.938.422.001.001 1.04c0 .058-.014.082-.076.08-.12-.005-.24-.002-.359-.002 0-.019.002-.038 0-.056-.006-.043.01-.062.055-.056.042.006.058-.01.057-.055 0-.042-.01-.062-.056-.056-.036.005-.055-.014-.055-.05 0-.034.017-.054.054-.05.043.005.058-.01.057-.055 0-.042-.011-.063-.056-.057-.035.005-.047-.013-.045-.047.001-.032-.001-.066.045-.064.038.003.056-.007.056-.05 0-.045-.02-.054-.056-.05-.025.002-.044-.003-.045-.035-.002-.037 0-.068.045-.073.034-.003.059-.008.056-.053-.002-.036-.01-.056-.05-.05-.04.005-.052-.014-.052-.054s.008-.065.055-.058c.047.007.046-.025.047-.058 0-.034-.004-.057-.046-.054-.027.002-.058.006-.054-.037Z" fill="#5ACCE3"/><path d="M9.899 13.044c.048.022.11-.002.149.05-.05-.01-.1-.021-.15 0 .013-.017.002-.033 0-.05H9.9ZM9.887 13.031l.012.013a1.47 1.47 0 0 1-.013-.012Z" fill="#84D8EA"/><path d="M7.861 19.553h-.124a.07.07 0 0 0-.04.01c-.017.012.001.061-.034.04-.032-.017-.07-.043-.073-.086-.005-.07-.002-.14-.001-.21 0-.016.01-.033.025-.017.083.087.183.159.248.263Z" fill="#94DDED"/><path d="M8.52 19.59c.032.018.05.049.074.075-.006.035-.02.017-.036.006-.067-.046-.111-.046-.177.003-.022.016-.04.015-.06.003l-.012-.012c-.011-.02-.025-.037-.05-.038v-.115c0-.02-.005-.042.024-.046.01.042.045.062.075.087a.08.08 0 0 0 .037.037c.042.022.083.016.125 0Z" fill="#8EDCEC"/><path d="M8.073 19.168a.077.077 0 0 1 .067.023l.233.233c.015.015.026.032.023.054-.016 0-.025-.009-.036-.02-.086-.096-.17-.195-.277-.269-.006-.004-.007-.014-.01-.021ZM7.998 19.044c.058.01.03.055.037.087-.022-.008-.035.017-.056.017-.011-.027-.003-.053-.006-.08.016 0 .025-.008.025-.024ZM8.284 19.466c-.03.004-.025.027-.025.046v.115c-.027-.06-.005-.124-.013-.186.018 0 .03.008.038.025ZM8.52 19.59c-.042.017-.083.022-.124 0 .02-.003.044.008.062-.012.02.003.044-.009.062.012ZM8.134 19.33c-.013-.002-.028.001-.037-.013.002-.01.003-.023.017-.02.016.003.02.018.02.032Z" fill="#84D8EA"/><path d="M7.501 19.205c.008.007.015.011.019.017.004.008.001.017-.01.015-.007-.002-.013-.009-.016-.015-.002-.002.004-.009.008-.017Z" fill="#94DDED"/><path d="M8.395 19.59a.08.08 0 0 1-.037-.037c.028-.003.04.01.037.037Z" fill="#84D8EA"/><path d="M7.579 19.262c-.004-.001-.009-.002-.01-.004-.001-.003.003-.007.004-.01.003.001.009.002.01.004 0 .003-.003.007-.004.01Z" fill="#94DDED"/><path d="m9.886 13.032.013.012c0 .017.012.033 0 .05-.01 0-.02.002-.025.012-.05.053-.054.129 0 .165-.053-.057-.006-.11 0-.165.01 0 .02-.002.025-.012.05-.021.1-.01.149 0 .03.055.053.11.025.174-.05.049-.11.06-.186.03.014.03.039.035.037.057-.08.004-.104-.069-.15-.112a.09.09 0 0 0 0-.13c-.043-.044-.09-.084-.13-.133.078-.005.157-.037.215.04.005.008.018.008.028.012Z" fill="#8EDCEC"/><path d="M9.924 13.355c.002-.022-.023-.027-.038-.057.077.03.137.019.187-.03.013.046-.052.047-.05.087h-.1ZM8.259 19.627c.025.001.039.018.05.038-.027.001-.048-.005-.05-.038Z" fill="#84D8EA"/><path d="M8.447 19.753c-.022-.014-.074.02-.07-.026.003-.043.051-.069.096-.071.034-.002.072.018.069.055-.005.057-.058.035-.095.042Z" fill="#8EDCEC"/><path d="M19.192 11.107c.04-.046.091-.054.15-.051.082.004.165 0 .247 0-.005.082.019.166-.042.243-.034.043-.004.214.027.246.02.02.039.038.07.034.02-.003.036.005.045.024-.053.027-.109.01-.163.012-.072.002-.146.012-.21-.036 0-.015-.002-.03 0-.043a.184.184 0 0 0-.078-.192c-.087-.064-.063-.152-.046-.238Z" fill="#6DD2E7"/><path d="m19.626 13.142-.073.002h-.98l-.049-.001c-.017 0-.027-.009-.026-.027.001-.015.012-.02.026-.021h1.041c.033 0 .07-.007.061.047ZM19.528 13.193c-.025.041-.066.02-.1.026h-.861c-.017 0-.034-.001-.05-.003-.012 0-.018-.009-.019-.02 0-.015.005-.025.02-.026a390.616 390.616 0 0 1 .949 0c.022 0 .053-.014.061.024Z" fill="#61CEE5"/><path d="M19.39 13.056c-.275.018-.549.012-.824.012a.68.68 0 0 1-.05-.001c-.011-.001-.017-.01-.018-.021-.001-.014.005-.024.02-.026l.037-.001a681.077 681.077 0 0 1 1.042.001c.013 0 .027.003.026.02-.002.015-.016.016-.029.016h-.204Z" fill="#5ACCE3"/><path d="M19.403 13.243c-.003.038-.031.037-.059.037h-.352c-.05 0-.1-.001-.147.015l-.297-.003c-.018 0-.047.01-.05-.021-.001-.037.03-.027.05-.027l.855-.001Z" fill="#61CEE5"/><path d="M18.746 13.404c-.005.029-.021.046-.05.05h-.16c-.017 0-.036 0-.037-.023-.002-.028.02-.026.038-.027h.21ZM18.821 13.33c-.003.022-.016.035-.038.039-.08 0-.161 0-.242-.002-.015 0-.039.006-.04-.016-.002-.03.026-.02.042-.021h.279Z" fill="#5ACCE3"/><path d="M18.671 13.479c-.004.03-.021.045-.05.05l-.092-.001c-.015 0-.03-.003-.031-.022-.002-.023.014-.027.032-.027H18.67Z" fill="#61CEE5"/><path d="M15.229 9.107c-.02-.032-.01-.066-.012-.1.043-.006.061-.06.112-.055.014.001.01-.024.013-.038a.276.276 0 0 1 .434-.168c.032.022.056.048.062.088-.027.047-.067.066-.123.063-.077-.004-.152-.017-.205.077-.042.077-.121.133-.184.197-.047 0-.062-.047-.097-.064Z" fill="#78D4E8"/><path d="M16.832 12.932c.038.01.06-.02.087-.037h.197c.015 0 .036-.003.035.022 0 .017-.008.037-.026.037a2.012 2.012 0 0 1-.282-.002c-.004 0-.007-.013-.011-.02Z" fill="#86D9EB"/><path d="M16.111 15.355h-.186v-.34c-.001-.038.002-.067.048-.077.028-.007.049-.03.063-.055.03-.044.054-.088.022-.141a.591.591 0 0 1-.034.128c-.114.089-.15.087-.273-.012a.234.234 0 0 1 .011-.182c-.065.04-.067.13-.012.194.014.055.06.07.105.085.044.015.064.053.034.09-.037.047-.082.089-.123.132-.01-.009-.014-.01-.014-.01.03-.16-.104-.219-.185-.31-.014-.016-.034-.012-.053-.012h-.347c-.028 0-.052.004-.071.027-.027.033-.065.029-.098.019-.033-.01-.015-.047-.017-.071-.003-.037 0-.075 0-.112h.397c0 .024.013.036.037.038.03 0 .062-.004.092 0 .079.012.097-.074.157-.093l-.003-.015c-.015-.08.023-.137.102-.153l.012.012.012.013.013.012c.04.05.084.019.127.019v-.019H15.8l-.013-.012-.012-.013-.012-.012c-.006-.04-.049-.09.024-.112.018.04.072.053.074.102.002.032.02.038.045.034.04-.005.064.016.09.04.03.029.05.075.102.073.015.112-.002.225-.002.337 0 .132.016.264.014.395h.001Zm-.137-.733c.008.037.034.056.077.077-.02-.044-.04-.07-.077-.077a.13.13 0 0 0-.161 0c-.015.001-.029.004-.033.021-.001.008.004.012.011.01.017-.003.02-.016.022-.031h.161Z" fill="#8EDCEC"/><path d="M14.79 14.56c-.078 0-.156-.002-.235 0-.034 0-.048-.01-.047-.046a5.774 5.774 0 0 0 0-.26c-.002-.05.035-.057.067-.066.106-.028.214-.006.32-.014.057-.005.096.014.136.054.036.037.054.074.049.126-.006.065.027.15-.013.19-.043.045-.129.01-.196.015-.027.002-.054 0-.08 0Z" fill="#61CEE5"/><path d="M16.15 14.186c-.017.02-.042.014-.063.013-.037-.003-.052.01-.051.049 0 .035.008.056.048.051.047-.005.065.014.066.063 0 .059-.036.048-.07.049h-.043c-.092-.06-.158-.147-.233-.223-.028-.03-.07-.053-.078-.1a.272.272 0 0 0 .29-.122c.021-.031.062-.047.07-.089.036-.004.064-.006.064.046 0 .046-.018.058-.058.054-.03-.003-.054.002-.054.04-.001.031.005.07.038.067.09-.01.072.052.075.102Z" fill="#5ACCE3"/><path d="M15.726 14.087c.007.048.049.072.078.1.075.077.14.164.233.224-.007.062-.001.11.083.101.042-.004.024.038.028.062.006.038-.014.052-.05.048-.052.002-.07-.044-.1-.072-.027-.025-.052-.046-.091-.04-.025.003-.044-.003-.045-.035-.003-.049-.056-.063-.074-.102.006-.05-.014-.086-.05-.119-.043-.04-.084-.083-.126-.125-.008-.009-.02-.017-.016-.03.005-.015.02-.011.032-.011h.098Z" fill="#6DD2E7"/><path d="M14.471 14.895v-.15c.062.023.104-.04.162-.037v.024c0 .109-.054.163-.162.163Z" fill="#99DFEE"/><path d="M15.415 14.746c-.023-.001-.036-.014-.037-.037.024 0 .036.013.037.037Z" fill="#7BD6E8"/><path d="M15.75 14.87c-.055-.064-.053-.155.013-.194a.234.234 0 0 0-.012.181v.013Z" fill="#78D4E8"/><path d="M16.024 14.87a.587.587 0 0 0 .034-.129c.033.053.008.098-.021.142l-.013-.013Z" fill="#84D8EA"/><path d="M15.229 9.106c.035.017.05.066.097.065 0 .041.032.062.058.083.043.036.064.078.056.135a.089.089 0 0 0 .013.065c-.06 0-.084-.054-.118-.089-.035-.034-.07-.055-.119-.048.007-.07-.014-.142.013-.21Z" fill="#A4E3F0"/><path d="M13.987 10.373c.022.016.04.023.019.063a.257.257 0 0 0-.019.149v.18c0 .04-.016.064-.059.078.013-.143-.007-.282-.002-.42 0-.017.006-.033.01-.049h.05Z" fill="#6DD2E7"/><path d="M14.881 10.15v.087c0 .024.005.057-.028.058-.032.001-.075.027-.097-.021.04-.043.075-.091.125-.124Z" fill="#5ACCE3"/><path d="M14.123 10.373c-.005.036-.008.072-.014.108-.003.019-.015.037-.035.036-.025 0-.023-.023-.025-.042l-.013-.102h.087Z" fill="#41C4DF"/><path d="M18.997 13.392h-.1c-.011 0-.026.004-.032-.01-.008-.017.01-.025.019-.034.006-.007.017-.016.025-.016h.224c.015 0 .022.01.019.024-.005.02-.014.036-.037.036h-.118Z" fill="#8EDCEC"/><path d="M14.707 11.206h-.048v-.67h.048v.67ZM14.806 11.206h-.047v-.658h.048v.658Z" fill="#6DD2E7"/><path d="M16.89 14.69v.105c-.026-.042-.028-.071 0-.106ZM16.976 14.63c-.017.016-.03.025-.047.024-.002-.004-.005-.01-.004-.011.013-.014.026-.026.051-.013ZM17.015 14.628c.012-.01.028-.01.032.001.006.017-.008.014-.017.01-.005-.002-.01-.006-.015-.01Z" fill="#78D4E8"/><path d="M14.26 10.97v-.336a.037.037 0 0 0 .025-.036c.035.006.023.034.024.054v.342c-.022.003-.033-.018-.05-.024Z" fill="#61CEE5"/><path d="M14.26 10.97c.017.006.027.027.05.024-.003.018.008.042-.021.049-.012.002-.027.004-.034-.007-.011-.022-.013-.046.005-.066ZM14.285 10.598c0 .018-.01.03-.025.036v-.04c.001-.01.006-.018.014-.014.006.002.008.012.01.018ZM14.075 11.245c-.028-.01-.026-.035-.026-.06l-.001-.563c0-.041.017-.064.063-.085 0 .124.003.242-.001.36-.005.116.013.235-.034.348Z" fill="#41C4DF"/><path d="M9.986 5.405v.025c0 .018-.002.037.001.055.005.03.015.047.055.037.072-.017.092.004.12.077.041.11.018.221.02.332 0 .049-.036.073-.09.072-.033 0-.081-.024-.098.024-.015.043.021.07.048.1.042.045.095.08.126.135.013.023.021.039 0 .06-.021.022-.043.015-.06 0-.034-.028-.064-.06-.096-.089-.007-.007-.018-.016-.025-.014-.016.002-.012.018-.013.03-.006.076.015.153-.023.226-.013.024-.019.05-.057.041-.027-.006-.022.032-.046.04-.03-.043-.03-.095-.035-.144-.004-.033 0-.066 0-.1 0-.068.033-.105.1-.112.013-.001.031.002.033-.018a.037.037 0 0 0-.033-.04c-.045-.005-.08-.027-.119-.048-.025-.014-.066-.018-.083 0-.056.053-.133.086-.17.156-.018.032-.05.054-.066.107.076-.062.15-.042.223-.045.036-.002.064.012.063.051 0 .035-.027.049-.06.048-.063-.002-.126-.01-.19 0a.055.055 0 0 1-.03-.006c-.068-.031-.114-.005-.128.073-.003.017.005.04-.023.043-.03.003-.033-.025-.034-.042-.006-.093-.03-.189.066-.26.047-.034.082-.086.121-.131.008-.01.018-.021.018-.032-.001-.089.008-.177-.005-.266-.005-.04-.018-.058-.057-.027-.005.004-.016.001-.024.002a.899.899 0 0 1 .137-.137v.416c0 .024-.008.054.022.065.03.011.06.006.084-.02.026-.03.054-.058.083-.084a.093.093 0 0 0 .035-.082c-.003-.035.002-.07-.002-.105-.006-.058.008-.106.058-.14.026-.019.033-.046.03-.077v-.074c0-.136-.013-.121.124-.122Zm.175.375h-.002c0-.021.002-.042 0-.062-.009-.075-.07-.036-.108-.046-.025-.007-.051.012-.052.046a.78.78 0 0 0 .011.185c.004.02.017.029.034.032.075.015.1-.003.113-.081.004-.024.002-.05.004-.074Z" fill="#8EDCEC"/><path d="M8.62 5.64c.036.008.054.037.074.063-.026-.002-.035.01-.04.035-.02.1-.014.202-.005.302.006.071.089.097.122.157a.024.024 0 0 0 .008.008c.116.07.107.183.102.295-.003.049-.037.033-.063.036-.005-.042.018-.093-.011-.125-.058-.062-.11-.132-.188-.173-.026-.05-.082-.067-.117-.11-.046-.055-.092-.055-.156-.015-.076-.013-.132.016-.182.074-.046.054-.102.1-.153.15-.034-.019-.046-.039-.012-.07l.154-.152a.126.126 0 0 0 .037-.063c.011-.045-.008-.068-.054-.061-.008.001-.015.006-.023.008-.083.015-.127-.021-.127-.105v-.18c0-.02.006-.044-.025-.048.04-.044.024-.097.024-.147 0-.047.016-.078.064-.09h.26v.174c0 .029.004.054.028.071.052.038.067.09.06.152-.004.037 0 .074-.001.111 0 .022.006.04.022.055.034.033.068.067.1.101.025.025.053.025.08.016.028-.01.022-.038.022-.06v-.408Zm-.46.166c0-.025-.003-.05 0-.074.01-.086-.057-.054-.094-.06-.035-.005-.057.017-.056.056v.155c0 .027.014.042.037.05.08.024.112 0 .112-.084v-.043Z" fill="#86D9EB"/><path d="M8.62 6.237c.077.04.13.11.187.174.029.032.006.082.011.124-.058-.003-.115.008-.172-.006-.024-.006-.035.008-.047.02-.04.04-.083.076-.117.12-.043.053-.083.037-.126.006a1.03 1.03 0 0 1-.228-.232c-.033-.045-.087-.062-.118-.106.052-.05.108-.096.154-.15.05-.059.106-.087.182-.074-.016.086.052.123.103.166.037.03.149-.003.17-.042ZM9.775 7.293h-.063c-.039-.047-.072-.047-.111 0h-.062c-.01-.04-.044-.036-.075-.037-.082-.001-.123-.043-.124-.124a.083.083 0 0 0-.013-.05c.032-.004.024-.029.025-.048.003-.04.013-.07.064-.054.02.006.043.01.048-.022.064-.004.126-.028.193.007.02.01.06-.023.098-.021.042.002.058.017.058.06 0 .058-.015.117-.002.176a.114.114 0 0 1-.036.113Zm-.263-.183c-.002-.013-.008-.024-.023-.023-.017 0-.024.013-.023.029 0 .013.008.024.022.023.018 0 .023-.013.024-.029Z" fill="#8EDCEC"/><path d="M8.718 7.194c.009.006.02.01.025.019.049.07.116.092.199.08.065-.008.102.03.124.087.02.153-.154.284-.312.221-.09-.035-.143-.1-.147-.2-.004-.1.035-.172.111-.207Z" fill="#84D8EA"/><path d="M9.278 6.038c.024.033.004.043-.024.05-.09.022-.11.044-.112.132-.001.04-.018.073-.056.076-.043.003-.055-.033-.057-.073-.004-.088-.024-.116-.106-.133-.05-.01-.074-.037-.067-.085.006-.038-.025-.086.024-.115.017.038.002.079.01.118.008.035.024.044.055.043.035 0 .048-.017.047-.05v-.086c.002-.042-.022-.054-.058-.05l-.054.012c.013-.035.067-.054.116-.032.064.028.125.03.189 0 .026-.012.057-.007.085-.003.024.003.023.02.008.035-.032-.01-.079-.02-.091.007a.184.184 0 0 0 0 .148c.012.026.059.018.091.007Z" fill="#86D9EB"/><path d="M8.718 7.194c-.076.035-.115.108-.111.207.004.1.057.165.147.2.158.063.332-.068.312-.22h.037c.008.119-.105.273-.262.271a.267.267 0 0 1-.269-.248c-.011-.095.035-.174.11-.235.017 0 .03.008.037.025ZM8.88 5.877c.018-.004.036-.01.054-.012.037-.004.06.008.058.05v.086c.001.033-.012.05-.047.05-.03 0-.047-.009-.054-.043-.01-.04.006-.08-.01-.119v-.012ZM9.278 6.039c-.032.011-.078.02-.09-.007a.182.182 0 0 1 0-.148c.012-.027.058-.018.09-.007v.161Z" fill="#6DD2E7"/><path d="M9.327 6.983c-.021-.002-.05.006-.057-.023-.008-.035-.013-.073.004-.108.005-.01.02-.017.032-.014a.026.026 0 0 1 .02.028.11.11 0 0 0 .027.08l-.025.036ZM9.39 6.945l.012-.077c.003-.015.008-.03.025-.03.02.001.036.011.036.034v.073H9.39Z" fill="#8EDCEC"/><path d="M9.39 6.945h.074v.013c-.004.031-.029.028-.048.023-.051-.017-.061.012-.064.053-.001.02.007.044-.025.048v-.099l.025-.037c.013-.005.025.014.038 0Z" fill="#84D8EA"/><path d="M7.278 10.162c0-.027.002-.054-.001-.08-.01-.07.01-.125.068-.167.036-.026.043-.065.046-.11.005-.091-.002-.176-.088-.232-.005-.004-.013-.01-.013-.014.01-.091-.068-.156-.074-.242-.003-.045.004-.091 0-.136a.234.234 0 0 1 .083-.217c.057-.051.033-.135.038-.204.004-.068.002-.135.004-.202 0-.019.012-.032.025-.041.125-.083.156-.203.136-.343.064-.018.124-.052.196-.038.034.007.068-.001.103-.009.023.02.05.009.076.007h.095c.015.006.037.008.032.03-.005.018-.025.011-.039.01-.05-.003-.096.001-.132.047-.02.026-.035.048-.034.082.003.058.003.116 0 .174 0 .047 0 .09.044.121.021.015.019.04.019.063 0 .113-.002.227 0 .34.001.042-.01.069-.049.082 0-.037-.02-.068-.054-.07-.037-.004-.01.043-.03.057l-.012.001c-.01-.018.004-.05-.025-.058-.014-.004-.022.008-.026.02-.006.017 0 .043-.026.043-.02 0-.014-.027-.024-.039-.006-.006-.008-.017-.015-.019-.054-.017-.037-.062-.036-.098.001-.038.042-.015.067-.036h-.218c-.012 0-.026-.003-.032.012-.002.004 0 .014.004.016.011.006.017-.008.025-.01.057-.02.077-.006.079.057.002.12-.008.24 0 .36 0 .02.008.045-.012.059-.03.02-.025.049-.026.077a.052.052 0 0 0-.002.006l.003-.006c.058-.012.084.008.086.066.006.145-.01.291.008.437.003.025-.018.029-.032.04-.056.04-.083.093-.062.164h-.175Z" fill="#41C4DF"/><path d="M7.971 8.135h-.095l-.008-.11c-.003-.04-.042-.048-.064-.052-.03-.006-.018.03-.016.047.004.035-.003.073.012.107a.254.254 0 0 1-.103.009c-.071-.014-.132.02-.196.038.008-.05-.015-.068-.062-.061-.035.005-.066-.003-.089-.032-.014-.018-.036-.02-.056-.017-.046.006-.055-.017-.055-.058.002-.118 0-.235 0-.353-.01-.108.043-.138.136-.14.079 0 .138.02.186.081.022.027.05.048.076.072.085.086.165.178.256.258.068.06.092.125.078.21Z" fill="#A4E3F0"/><path d="M7.786 9.119c-.001.002-.001.004-.003.005-.099.068-.103.168-.096.274.005.08 0 .162 0 .242 0 .026 0 .051-.023.067-.048.034-.054.082-.053.136 0 .044.014.091-.01.134-.034-.016-.038-.044-.038-.078v-.465c0-.062.029-.098.087-.109l.004-.01c-.061-.016-.092-.06-.09-.131V9.17c-.007-.036.01-.048.044-.058.062-.019.119.009.178.006Z" fill="#41C4DF"/><path d="M7.786 9.119c-.06.003-.116-.025-.178-.006-.033.01-.05.022-.045.058v.013c0 .071.03.115.09.131 0 .004-.001.01-.003.01-.058.01-.087.047-.087.11V9.9c0 .033.003.062.038.077v.062c-.074.005-.016.071-.052.102v-.138c-.057.046-.109.083-.073.158h-.024c-.021-.07.006-.123.062-.165.014-.01.035-.014.032-.039-.017-.145-.003-.291-.008-.437-.002-.058-.028-.077-.087-.065 0-.029-.004-.058.026-.078.02-.014.012-.039.011-.058-.007-.12.003-.241 0-.361 0-.063-.02-.078-.078-.058-.008.003-.014.018-.025.011-.003-.002-.005-.011-.004-.016.006-.014.02-.012.032-.012h.218c-.025.021-.066-.002-.067.036 0 .036-.018.08.036.098.007.002.01.013.015.02.01.011.004.038.024.038.026 0 .02-.026.026-.043.004-.012.012-.024.026-.02.03.009.015.04.026.058l.01-.001c.022-.014-.006-.06.03-.058.036.003.055.034.055.071l-.027.036ZM7.55 9.07v-.148c0-.013-.004-.025-.02-.025-.014 0-.024.008-.026.022-.011.098.015.195.01.293 0 .012.007.025.022.023.017-.002.013-.018.014-.03v-.135Zm-.012.243c.008-.004.012-.013.01-.024 0-.012-.006-.02-.018-.019-.013 0-.017.01-.015.022.002.01.009.018.023.02Z" fill="#29BCDB"/><path d="M7.476 10.16c-.036-.075.017-.111.073-.158v.139c.036-.03-.022-.098.052-.103.031.042-.007.083-.001.124l-.124-.001Z" fill="#41C4DF"/><path d="M7.65 5.942v.136c0 .078-.044.122-.121.122h-.025c-.13 0-.152-.035-.134-.167.012-.087.007-.177.006-.266 0-.056.022-.08.078-.077.035.002.07 0 .105 0 .063.001.089.026.09.09.002.054 0 .108 0 .162h.001Z" fill="#6DD2E7"/><path d="M7.973 4.747c.072-.01.097.048.123.093.051.091.032.178-.036.255-.05-.008-.033-.048-.037-.078-.002-.015.006-.035-.014-.043-.019-.007-.03.01-.041.02l-.123.123c-.017.017-.039.042-.062.02-.023-.024.009-.04.023-.055.025-.025.049-.049.044-.09-.002-.02.015-.032.028-.045.029-.03.056-.061.088-.086.048-.038.053-.073.007-.114ZM9.365 4.944a.208.208 0 0 1-.21.219C9 5.159 8.923 5.07 8.92 4.936a.22.22 0 0 1 .241-.216c.12.008.203.093.203.224ZM8.521 5.157c-.11.018-.219-.085-.223-.215-.003-.118.106-.23.226-.222.13.009.22.094.22.226 0 .125-.092.211-.223.211Z" fill="#5ACCE3"/><path d="M8.62 5.64v.41c0 .021.005.049-.022.059-.028.01-.056.009-.08-.016a3.843 3.843 0 0 0-.1-.1.07.07 0 0 1-.023-.056c.001-.037-.003-.074.001-.111.007-.062-.007-.114-.06-.152-.024-.017-.029-.042-.028-.07.002-.059 0-.117 0-.174a.192.192 0 0 1 .202.082c.033.046.09.072.11.128Z" fill="#94DDED"/><path d="M9.712 5.231c0 .047-.005.095.002.141.012.094-.04.144-.113.182 0-.049.004-.099-.001-.147-.01-.092.049-.134.112-.176Z" fill="#84D8EA"/><path d="M9.216 10.833v-.123c0-.015-.009-.037.011-.044.018-.006.027.015.04.025l.098.093c-.006.04-.034.051-.07.05-.027-.002-.053 0-.08 0v-.001ZM9.153 10.833v-.199c0-.011-.003-.028.014-.03.019-.001.023.016.023.03v.199h-.036Z" fill="#8EDCEC"/><path d="M9.464 7.256c.03 0 .064-.004.075.037-.051-.003-.103.007-.16-.008.026-.031.065-.002.085-.03ZM9.6 7.293c.04-.047.073-.047.113 0a.245.245 0 0 1-.112 0ZM10.017 5.215c.002.004.005.007.005.01s-.004.006-.005.009c-.002-.003-.005-.006-.005-.01 0-.003.003-.006.005-.01v.001Z" fill="#94DDED"/><path d="M9.874 13.106c-.007.055-.053.108 0 .165-.054-.036-.05-.111 0-.165ZM9.874 13.106c.005-.01.014-.012.025-.012-.006.01-.015.012-.025.012Z" fill="#84D8EA"/><path d="M15.813 14.621a.13.13 0 0 1 .161 0h-.161ZM15.8 14.522h.128v.019c-.043 0-.088.031-.128-.019ZM15.974 14.622c.038.007.056.033.077.076-.043-.02-.07-.04-.077-.076ZM15.813 14.622c-.001.014-.005.028-.022.032-.007.001-.012-.004-.01-.01.003-.018.017-.02.032-.022ZM15.776 14.497l.012.012-.012-.012Z" fill="#78D4E8"/><path d="M10.16 5.78c0 .024 0 .05-.003.074-.013.079-.038.096-.113.081a.04.04 0 0 1-.034-.032A.765.765 0 0 1 10 5.72c0-.035.027-.054.052-.047.037.01.1-.029.108.046.002.02 0 .041 0 .062h.002ZM8.16 5.806v.043c0 .083-.033.108-.112.083-.024-.007-.038-.022-.037-.05a4.005 4.005 0 0 0 0-.154c-.001-.039.02-.062.055-.056.037.006.105-.026.094.06-.003.024 0 .05 0 .074Z" fill="#61CEE5"/><path d="M8.62 6.237c-.022.039-.134.072-.171.042-.051-.043-.119-.08-.103-.166.064-.04.11-.04.156.016.035.042.091.059.117.108ZM9.512 7.11c0 .016-.006.03-.023.03-.014 0-.022-.011-.023-.024 0-.016.006-.03.024-.03.014 0 .02.011.022.024Z" fill="#94DDED"/><path d="M7.8 8.127c-.015-.034-.008-.071-.012-.107-.002-.016-.013-.053.016-.047.022.004.061.012.064.052l.008.11c-.026 0-.052.011-.076-.008Z" fill="#78D4E8"/><path d="m7.451 9.455-.003.005a.052.052 0 0 0 .003-.005Z" fill="#29BCDB"/><path d="M7.55 9.071v.136c0 .011.004.027-.013.03-.015.001-.023-.012-.022-.025.005-.097-.021-.194-.01-.292.002-.014.012-.022.026-.022.016 0 .02.012.02.025v.148ZM7.54 9.314c-.015-.003-.022-.01-.024-.022-.002-.011.002-.02.015-.021.012-.001.018.008.019.019 0 .011-.003.02-.01.024Z" fill="#41C4DF"/></g><defs><clipPath id="a"><rect width="24" height="24" rx="12" fill="#fff"/></clipPath></defs></svg>