<svg width="24" height="24" viewBox="0 0 24 24" fill="none" xmlns="http://www.w3.org/2000/svg">
<circle cx="12" cy="12" r="12" fill="#F5F5F5"/>
<path d="M15.2075 19.2258C15.1868 19.2402 15.1781 19.2626 15.1677 19.2841C15.0468 19.5357 14.8537 19.704 14.5819 19.7728C14.3014 19.8439 14.0478 19.7814 13.8262 19.5953C13.7198 19.506 13.6284 19.4009 13.5313 19.302C12.745 18.5017 11.9591 17.7011 11.1735 16.9001C10.7101 16.428 10.2469 15.9559 9.7838 15.4836C9.75433 15.4535 9.72432 15.424 9.70283 15.3867C9.6301 15.2612 9.63565 15.1384 9.71216 15.0173C9.7316 14.9865 9.75682 14.9606 9.78235 14.9349C10.3739 14.3423 10.9654 13.7496 11.5569 13.1569C11.6101 13.1036 11.6667 13.0577 11.7428 13.0398C11.9258 12.9968 12.1015 13.0971 12.1518 13.2779C12.1901 13.4152 12.2242 13.5537 12.2599 13.6917C12.2836 13.783 12.3082 13.8742 12.3304 13.966C12.3675 14.1206 12.3442 14.265 12.25 14.395C12.1893 14.4785 12.1085 14.5359 12.0125 14.5736C11.9621 14.5934 11.9117 14.6138 11.8632 14.6377C11.721 14.7076 11.6241 14.8184 11.5739 14.9684C11.5639 14.999 11.5581 15.0308 11.5569 15.0629C11.5495 15.259 11.5919 15.4356 11.7676 15.5525C11.8192 15.5868 11.8768 15.6121 11.9325 15.6399C12.3083 15.8276 12.6842 16.015 13.0602 16.2022C13.1485 16.2461 13.236 16.2911 13.3249 16.3334C13.6088 16.4685 13.8703 16.3399 13.9908 16.1565C14.299 15.6874 14.6123 15.221 14.9175 14.7498C15.0121 14.6039 15.0476 14.4394 14.9962 14.2657C14.9235 14.0203 14.663 13.8684 14.413 13.9247C14.4012 13.927 14.3896 13.9304 14.3784 13.935C14.2639 13.9854 14.1484 13.9703 14.0374 13.9298C13.8583 13.8644 13.7475 13.7325 13.6989 13.5494C13.6443 13.3437 13.5943 13.1367 13.5377 12.9316C13.4871 12.7481 13.5825 12.5797 13.7241 12.5027C13.8034 12.4596 13.8867 12.4468 13.9748 12.4706C14.1188 12.5095 14.2627 12.548 14.4066 12.5863C15.0775 12.7661 15.7484 12.9459 16.4194 13.1257C16.472 13.1397 16.523 13.1569 16.569 13.1877C16.6685 13.2544 16.7177 13.3483 16.7241 13.4659C16.7252 13.4855 16.7192 13.506 16.7353 13.5225L15.2075 19.2258Z" fill="#697DF3"/>
<path d="M17.1691 11.9048C17.1529 11.9108 17.1444 11.9245 17.1365 11.9385C17.0691 12.059 16.918 12.1444 16.7292 12.0962C16.7176 12.0931 16.7059 12.09 16.6942 12.0868C15.9006 11.8742 15.1069 11.6615 14.3133 11.4489C14.2684 11.4368 14.2244 11.4231 14.1842 11.3992C13.9909 11.2843 13.9632 11.0196 14.0912 10.8634C14.1039 10.8481 14.1177 10.8331 14.1315 10.8187C14.3167 10.6264 14.5025 10.4346 14.687 10.2417C14.7428 10.1833 14.8068 10.1414 14.8866 10.1253C15.0053 10.1014 15.1098 10.1279 15.1984 10.212C15.287 10.2961 15.3754 10.3818 15.4657 10.4646C15.5367 10.5298 15.6215 10.5622 15.719 10.5575C15.7962 10.5542 15.8697 10.5239 15.9266 10.4717C15.9968 10.4087 16.0654 10.3437 16.1342 10.2792C16.1751 10.2407 16.1979 10.1917 16.2101 10.1381C16.2217 10.0872 16.226 10.0349 16.2228 9.98274C16.1843 9.35828 16.1464 8.73377 16.1089 8.10922C16.1 7.96167 15.9838 7.75893 15.74 7.74378C15.3768 7.72135 15.0132 7.70055 14.6503 7.67925C14.4014 7.66461 14.1524 7.65194 13.9038 7.63431C13.7951 7.62653 13.7004 7.65413 13.6171 7.72079C13.5401 7.78235 13.4676 7.84923 13.4001 7.92094C13.2593 8.07044 13.2925 8.28115 13.4039 8.40971C13.4341 8.44465 13.4671 8.47739 13.4987 8.51089C13.561 8.57649 13.6237 8.64167 13.6856 8.70767C13.7532 8.77982 13.7902 8.86456 13.7852 8.96445C13.7806 9.05683 13.7418 9.13436 13.6782 9.20032C13.564 9.3188 13.4497 9.43729 13.3354 9.55577C13.2518 9.64246 13.1691 9.73006 13.0846 9.81588C13.0099 9.89179 12.9189 9.92749 12.8117 9.91636C12.6729 9.90195 12.5772 9.829 12.5245 9.70043C12.5153 9.67604 12.5078 9.65109 12.5019 9.62573C12.2872 8.80613 12.0726 7.98653 11.8579 7.16693C11.843 7.11001 11.8339 7.05272 11.8435 6.99458C11.8682 6.84681 11.9555 6.75355 12.0982 6.71231C12.2179 6.67773 12.3385 6.64565 12.4586 6.61304C14.153 6.14829 15.8473 5.68378 17.5414 5.21951C17.6349 5.19383 17.7292 5.17621 17.8264 5.17638C17.8418 5.17637 17.8589 5.18015 17.8731 5.16928L18.2 5.25688C18.2166 5.2781 18.2423 5.28582 18.2636 5.29982C18.5652 5.49751 18.7139 5.77306 18.6911 6.13552C18.6886 6.16128 18.6897 6.18727 18.6943 6.21275L17.1691 11.9048Z" fill="#02405C"/>
<path d="M10.2582 11.6616C10.3963 11.6986 10.5349 11.7339 10.6726 11.7731C10.8264 11.8169 10.9262 11.9492 10.9294 12.1074C10.9316 12.2158 10.8918 12.3065 10.8157 12.3827C10.6938 12.505 10.5727 12.6282 10.4513 12.751L9.05777 14.1605C9.03381 14.1848 9.01038 14.2097 8.98537 14.2329C8.85535 14.3541 8.6664 14.3596 8.52848 14.2462C8.45998 14.1898 8.40126 14.1234 8.33923 14.0604C7.59273 13.3025 6.84651 12.5444 6.10057 11.7861C5.57445 11.2516 5.04811 10.7171 4.52156 10.1827C4.34129 10.0001 4.24974 9.7834 4.2548 9.52653C4.25555 9.48779 4.26375 9.45086 4.27313 9.41399C4.28797 9.35557 4.30632 9.29808 4.31923 9.23913C4.34783 9.10907 4.41885 9.00373 4.50857 8.9092C4.61945 8.79245 4.75492 8.71748 4.90969 8.67514C5.45474 8.52601 5.99973 8.37666 6.54466 8.22708L8.60438 7.66276C9.18808 7.50298 9.77183 7.34308 10.3556 7.18308C10.4305 7.16253 10.5047 7.15518 10.5814 7.17824C10.6969 7.21292 10.7716 7.28805 10.8099 7.39966C10.8287 7.4546 10.8408 7.51189 10.855 7.56837C11.0515 8.34521 11.248 9.122 11.4445 9.89876C11.471 10.0029 11.4666 10.1029 11.4159 10.1969C11.3344 10.3479 11.1744 10.4154 11.0057 10.3733C10.9255 10.3534 10.8462 10.3306 10.7663 10.3092C10.5894 10.2618 10.4124 10.2144 10.2354 10.1669C10.1579 10.1462 10.0899 10.1092 10.0364 10.0481C9.97349 9.97588 9.94825 9.89098 9.95378 9.79724C9.95621 9.75913 9.96267 9.72139 9.97306 9.68465C10.0035 9.57424 10.0305 9.46289 10.0627 9.35296C10.1106 9.18907 10.0255 9.00438 9.86042 8.92783C9.84396 8.92033 9.82691 8.91419 9.80945 8.90949C9.73566 8.88922 9.66163 8.86988 9.5876 8.85004C9.53287 8.83519 9.47498 8.83686 9.42124 8.85483C9.37142 8.87092 9.32407 8.89379 9.28052 8.92277C8.85734 9.20461 8.43402 9.48641 8.01057 9.76818C7.89847 9.84279 7.78764 9.91943 7.67375 9.99139C7.52513 10.0853 7.484 10.2771 7.55821 10.4254C7.84602 11.0007 8.12978 11.578 8.41521 12.1545C8.43383 12.1922 8.44826 12.232 8.47714 12.2643C8.51565 12.3074 8.5586 12.3428 8.6146 12.3585C8.71152 12.3856 8.80802 12.4154 8.90649 12.4354C9.08126 12.4709 9.24948 12.3669 9.29967 12.1952C9.33566 12.0719 9.36672 11.9471 9.40051 11.8228C9.42738 11.724 9.48073 11.6446 9.57128 11.5921C9.66183 11.5395 9.75569 11.5257 9.85604 11.5522C9.99045 11.5877 10.1246 11.6242 10.2589 11.6601L10.2582 11.6616Z" fill="#697DF3"/>
</svg>
