<svg width="24" height="24" viewBox="0 0 24 24" fill="none" xmlns="http://www.w3.org/2000/svg">
<g clip-path="url(#clip0_153_5264)">
<circle cx="12" cy="12" r="12" fill="#F9F9F9"/>
<g clip-path="url(#clip1_153_5264)">
<path d="M11.9996 3L11.8789 3.41007V15.3094L11.9996 15.4298L17.5231 12.1649L11.9996 3Z" fill="#343434"/>
<path d="M11.9981 3L6.47461 12.1649L11.9981 15.4299V9.6543V3Z" fill="#8C8C8C"/>
<path d="M11.9977 16.4757L11.9297 16.5586V20.7974L11.9977 20.996L17.5245 13.2124L11.9977 16.4757Z" fill="#3C3C3B"/>
<path d="M11.9981 20.996V16.4757L6.47461 13.2124L11.9981 20.996Z" fill="#8C8C8C"/>
<path d="M11.998 15.4298L17.5215 12.1649L11.998 9.6543V15.4298Z" fill="#141414"/>
<path d="M6.47461 12.1649L11.9981 15.4298V9.6543L6.47461 12.1649Z" fill="#393939"/>
</g>
</g>
<defs>
<clipPath id="clip0_153_5264">
<rect width="24" height="24" rx="12" fill="white"/>
</clipPath>
<clipPath id="clip1_153_5264">
<rect width="11.0504" height="18" fill="white" transform="translate(6.47461 3)"/>
</clipPath>
</defs>
</svg>
