<svg width="24" height="24" viewBox="0 0 24 24" fill="none" xmlns="http://www.w3.org/2000/svg">
<g id="Icon=LINA, Type=Network">
<g clip-path="url(#clip0_1847_119097)">
<g id="Group 48096206">
<circle id="Ellipse 231" cx="12" cy="12" r="12" fill="#F0F1F4"/>
<path id="Vector" fill-rule="evenodd" clip-rule="evenodd" d="M11.064 21C10.3152 20.4096 9.94076 19.7976 9.94076 19.164C9.92636 18.5808 10.1424 18.0192 10.5384 17.5944L19.056 9.0768C19.6392 9.5736 19.992 10.1424 20.1 10.7832C20.2152 11.4096 20.0136 12.0576 19.5528 12.504L11.0568 21H11.064ZM8.02556 17.9616C7.26956 17.3712 6.90236 16.7592 6.90236 16.1256C6.88796 15.5424 7.09676 14.9808 7.49996 14.556L16.0176 6.0384C16.6008 6.5352 16.9536 7.104 17.0616 7.7448C17.1768 8.3712 16.9752 9.0192 16.5144 9.4656L8.01836 17.9616H8.02556ZM4.98716 14.9232C4.23116 14.3328 3.86396 13.7208 3.86396 13.0872C3.84956 12.504 4.06556 11.9424 4.46156 11.5176L12.9792 3C13.5624 3.504 13.9152 4.0656 14.0232 4.7064C14.1384 5.3328 13.9368 5.9808 13.476 6.4272L4.97996 14.9232H4.98716Z" fill="url(#paint0_linear_1847_119097)"/>
</g>
</g>
</g>
<defs>
<linearGradient id="paint0_linear_1847_119097" x1="8.99153" y1="8.96772" x2="15.9899" y2="16.0093" gradientUnits="userSpaceOnUse">
<stop stop-color="#7EB5FF"/>
<stop offset="1" stop-color="#1A38F8"/>
</linearGradient>
<clipPath id="clip0_1847_119097">
<rect width="24" height="24" rx="12" fill="white"/>
</clipPath>
</defs>
</svg>
