<svg width="24" height="24" viewBox="0 0 24 24" fill="none" xmlns="http://www.w3.org/2000/svg">
<g id="Icon=MATIC, Type=Network">
<g clip-path="url(#clip0_153_5293)">
<g id="Group 16792">
<circle id="Ellipse 157" cx="12" cy="12" r="12" fill="#8247E5"/>
<path id="Vector" d="M15.3756 9.81009C15.1358 9.67145 14.8275 9.67145 14.5535 9.81009L12.6351 10.9538L11.3334 11.6817L9.44934 12.8254C9.20955 12.964 8.90125 12.964 8.6272 12.8254L7.1542 11.9243C6.91441 11.7856 6.74313 11.5084 6.74313 11.1964V9.4635C6.74313 9.18623 6.88015 8.90896 7.1542 8.73566L8.6272 7.8692C8.86699 7.73056 9.1753 7.73056 9.44934 7.8692L10.9223 8.77032C11.1621 8.90896 11.3334 9.18623 11.3334 9.49816V10.6419L12.6351 9.8794V8.70101C12.6351 8.42374 12.4981 8.14647 12.2241 7.97317L9.4836 6.34421C9.24381 6.20558 8.93551 6.20558 8.66146 6.34421L5.85248 8.00783C5.57843 8.14647 5.44141 8.42374 5.44141 8.70101V11.9589C5.44141 12.2362 5.57843 12.5135 5.85248 12.6868L8.6272 14.3157C8.86699 14.4544 9.1753 14.4544 9.44934 14.3157L11.3334 13.2066L12.6351 12.4442L14.5192 11.3351C14.759 11.1964 15.0673 11.1964 15.3414 11.3351L16.8144 12.2015C17.0541 12.3402 17.2254 12.6174 17.2254 12.9294V14.6623C17.2254 14.9396 17.0884 15.2169 16.8144 15.3901L15.3756 16.2566C15.1358 16.3952 14.8275 16.3952 14.5535 16.2566L13.0805 15.3901C12.8407 15.2515 12.6694 14.9742 12.6694 14.6623V13.5532L11.3677 14.3157V15.4595C11.3677 15.7367 11.5047 16.014 11.7787 16.1873L14.5535 17.8163C14.7933 17.9549 15.1016 17.9549 15.3756 17.8163L18.1503 16.1873C18.3901 16.0487 18.5614 15.7714 18.5614 15.4595V12.1669C18.5614 11.8896 18.4244 11.6123 18.1503 11.439L15.3756 9.81009Z" fill="#F5F5F5"/>
</g>
</g>
</g>
<defs>
<clipPath id="clip0_153_5293">
<rect width="24" height="24" rx="12" fill="white"/>
</clipPath>
</defs>
</svg>
