<svg width="24" height="24" viewBox="0 0 24 24" fill="none" xmlns="http://www.w3.org/2000/svg">
<path d="M23.6383 14.9029C22.0356 21.3315 15.5244 25.2438 9.09503 23.6407C2.66833 22.038 -1.24401 15.5265 0.359382 9.09837C1.96136 2.66903 8.47253 -1.24361 14.8999 0.359081C21.3289 1.96177 25.241 8.47404 23.6381 14.903L23.6382 14.9029H23.6383Z" fill="#F1F1F1"/>
<path d="M12 11.2222C14.087 11.2222 15.7755 10.9046 17.0653 10.2694C18.3551 9.63426 19 8.91481 19 8.11111C19 7.29444 18.3551 6.57176 17.0653 5.94306C15.7755 5.31435 14.087 5 12 5C9.91296 5 8.22454 5.31435 6.93472 5.94306C5.64491 6.57176 5 7.29444 5 8.11111C5 8.91481 5.64491 9.63426 6.93472 10.2694C8.22454 10.9046 9.91296 11.2222 12 11.2222ZM12 13.1667C12.6481 13.1667 13.3741 13.1116 14.1778 13.0014C14.9815 12.8912 15.7431 12.7194 16.4625 12.4861C17.1819 12.2528 17.7847 11.9514 18.2708 11.5819C18.7569 11.2125 19 10.7685 19 10.25V12.1944C19 12.713 18.7569 13.1569 18.2708 13.5264C17.7847 13.8958 17.1819 14.1972 16.4625 14.4306C15.7431 14.6639 14.9815 14.8356 14.1778 14.9458C13.3741 15.056 12.6481 15.1111 12 15.1111C11.3648 15.1111 10.6421 15.056 9.83194 14.9458C9.02176 14.8356 8.25694 14.6606 7.5375 14.4208C6.81806 14.181 6.21528 13.8764 5.72917 13.5069C5.24306 13.1375 5 12.7 5 12.1944V10.25C5 10.7556 5.24306 11.1931 5.72917 11.5625C6.21528 11.9319 6.81806 12.2366 7.5375 12.4764C8.25694 12.7162 9.02176 12.8912 9.83194 13.0014C10.6421 13.1116 11.3648 13.1667 12 13.1667ZM12 17.0556C12.6481 17.0556 13.3741 17.0005 14.1778 16.8903C14.9815 16.7801 15.7431 16.6083 16.4625 16.375C17.1819 16.1417 17.7847 15.8403 18.2708 15.4708C18.7569 15.1014 19 14.6574 19 14.1389V16.0833C19 16.6019 18.7569 17.0458 18.2708 17.4153C17.7847 17.7847 17.1819 18.0861 16.4625 18.3194C15.7431 18.5528 14.9815 18.7245 14.1778 18.8347C13.3741 18.9449 12.6481 19 12 19C11.3648 19 10.6421 18.9449 9.83194 18.8347C9.02176 18.7245 8.25694 18.5495 7.5375 18.3097C6.81806 18.0699 6.21528 17.7653 5.72917 17.3958C5.24306 17.0264 5 16.5889 5 16.0833V14.1389C5 14.6444 5.24306 15.0819 5.72917 15.4514C6.21528 15.8208 6.81806 16.1255 7.5375 16.3653C8.25694 16.6051 9.02176 16.7801 9.83194 16.8903C10.6421 17.0005 11.3648 17.0556 12 17.0556Z" fill="#AEAEAE"/>
</svg>
