<svg width="24" height="24" viewBox="0 0 24 24" fill="none" xmlns="http://www.w3.org/2000/svg">
<g id="Icon=RACA, Type=Network">
<g clip-path="url(#clip0_1847_119173)">
<g id="Group 48096207">
<circle id="Ellipse 231" cx="12" cy="12" r="12" fill="#131313"/>
</g>
<path id="Vector" fill-rule="evenodd" clip-rule="evenodd" d="M7.90532 5.68815C7.00163 6.33176 6.24758 7.16294 5.69476 8.12486C5.14193 9.08678 4.80337 10.1567 4.70221 11.2616C4.78303 11.007 4.8803 10.758 4.9934 10.5161C5.16183 10.1314 5.37804 9.76939 5.63693 9.43871C6.03655 8.91079 6.52415 8.4557 7.07834 8.0934C7.28561 7.95803 7.50156 7.83644 7.72478 7.72941C8.79892 7.22339 9.97354 6.96656 11.1608 6.97813C11.679 6.96434 12.1975 6.98477 12.7129 7.03928C12.9716 7.07309 13.2326 7.08575 13.4933 7.07713C14.2504 6.96648 14.8765 6.45981 14.8765 5.69688C14.8765 4.93396 14.2009 4.39525 13.5865 4.29333C13.2394 4.24217 12.889 4.21783 12.5382 4.22054C10.8765 4.20056 9.25172 4.71054 7.89949 5.6765L7.90532 5.68815ZM4.91175 10.9908C5.33148 9.83669 6.11282 8.84902 7.13937 8.17496L7.14228 8.17788C8.52836 7.26645 10.2697 7.07717 11.4927 7.07717H11.7606C10.4698 7.19332 9.27599 7.81107 8.43566 8.79775C7.59531 9.78441 7.1754 11.0613 7.26614 12.3541C7.35688 13.6469 7.95102 14.8526 8.92095 15.7123C9.89088 16.5719 11.1593 17.0168 12.4536 16.9515C12.6767 16.9509 12.8995 16.936 13.1206 16.9068C12.7068 16.3539 12.5028 15.6717 12.5455 14.982C12.5886 14.2858 12.8802 13.6282 13.3672 13.1288C13.8542 12.6294 14.5044 12.3215 15.1993 12.261C15.8942 12.2005 16.5877 12.3914 17.1537 12.7991V12.8632H17.1479C16.9502 14.6709 15.3461 16.2222 13.2366 16.8902L13.2544 16.8874C12.5067 17.1244 11.7266 17.2433 10.9423 17.2398C7.99839 17.2311 6.49292 16.5555 5.96005 16.2439C5.12938 14.9807 4.68791 13.5014 4.69044 11.9896V11.8294C4.74215 11.5445 4.81615 11.2641 4.91175 10.9908ZM10.0107 13.3407C10.011 13.9552 10.1328 14.5636 10.3692 15.1308C10.6056 15.698 10.9518 16.2129 11.388 16.6457C11.6912 16.7137 12.0005 16.7508 12.3111 16.7564C11.8046 16.0879 11.5596 15.2574 11.6222 14.421C11.6848 13.5846 12.0506 12.7999 12.651 12.2142C13.2514 11.6285 14.0449 11.2822 14.8826 11.2403C15.7203 11.1984 16.5444 11.4638 17.2002 11.9866C17.2072 11.0776 16.9997 10.1797 16.5945 9.36592C16.5299 9.24012 16.4589 9.11766 16.382 8.99902C15.6747 8.71956 14.9098 8.61745 14.154 8.70163C13.3982 8.78581 12.6745 9.05371 12.0461 9.48196C11.4177 9.91017 10.9036 10.4857 10.5488 11.1584C10.194 11.831 10.0093 12.5802 10.0107 13.3407ZM15.4038 16.2556C16.6385 15.3674 17.3956 14.1764 17.5383 12.9039L17.5266 12.9127C17.6956 11.6818 17.5065 10.4282 16.9821 9.30189C17.6327 9.6905 18.1871 10.2211 18.604 10.8539C20.1066 13.1223 19.4805 18.2677 14.0556 19.5897C11.1408 20.3031 7.99298 18.9229 6.42345 16.9049C7.25626 17.2427 8.686 17.6271 10.9253 17.6271H10.9631C12.5498 17.6413 14.1016 17.1621 15.4038 16.2556Z" fill="#FCC33C"/>
</g>
</g>
<defs>
<clipPath id="clip0_1847_119173">
<rect width="24" height="24" rx="12" fill="white"/>
</clipPath>
</defs>
</svg>
