<svg width="24" height="24" viewBox="0 0 24 24" fill="none" xmlns="http://www.w3.org/2000/svg">
<g clip-path="url(#clip0_1847_119080)">
<path d="M12 0C18.628 0 24 5.37305 24 12C24 18.628 18.628 24 12 24C5.37305 24 0 18.6275 0 12C0 5.37305 5.37305 0 12 0Z" fill="url(#paint0_linear_1847_119080)"/>
<path d="M11.9656 13.9573C11.9527 13.994 11.9463 14.0246 11.9398 14.0613C12.1593 15.0829 12.5596 16.0189 13.302 16.7958C13.5602 17.0772 13.9346 17.2301 14.322 17.224C15.4969 17.2301 16.4524 16.7713 17.2335 15.9638C17.3627 15.8231 17.4982 15.6885 17.6467 15.5662C17.8339 15.4316 18.0599 15.3888 18.2729 15.5172C18.486 15.6457 18.5182 15.8292 18.4924 16.0433C18.4537 16.337 18.3116 16.6123 18.0986 16.8264C17.2077 17.7134 16.1748 18.4108 14.8901 18.7105C13.7216 18.9858 12.7662 18.6799 11.9786 17.848C11.4234 17.2423 10.9844 16.5572 10.668 15.8109C10.4485 15.3337 10.2742 14.8443 10.0806 14.3672C10.0418 14.2754 10.0031 14.1775 9.93854 14.0062C9.8417 14.2387 9.77069 14.3978 9.70613 14.5568C9.35106 15.4499 9.01536 16.3431 8.64093 17.224C8.4408 17.7195 8.13738 18.1722 7.75649 18.5637C7.45953 18.8635 7.11091 19.0409 6.66547 18.9919C6.1942 18.9308 5.87787 18.631 5.83268 18.1783C5.79394 17.8235 5.87141 17.4687 6.05863 17.1567C6.5299 16.3431 6.98826 15.5234 7.45953 14.7097C8.20194 13.4312 8.93789 12.1527 9.70613 10.8925C10.0677 10.3419 10.455 9.81581 10.8746 9.30806C11.0296 9.13066 11.2168 8.97161 11.4169 8.84314C11.5977 8.70244 11.8559 8.68409 12.0496 8.80644C12.2432 8.90431 12.3465 9.11231 12.3013 9.3203C12.2755 9.56499 12.2174 9.80357 12.127 10.036C11.8107 10.7762 11.4621 11.5042 11.1329 12.2322C11.1006 12.2934 11.0747 12.3607 11.0231 12.4524C11.3394 12.5014 11.6687 12.4891 11.9786 12.4157C13.6635 12.1221 15.1871 10.6355 15.4453 9.03278C15.6196 7.99282 15.129 7.16085 14.1025 6.74487C13.5989 6.54911 13.0567 6.45735 12.5144 6.46958C11.843 6.46958 11.191 6.50629 10.5389 6.68981C9.53182 6.98956 8.79587 7.58295 8.26004 8.44551C8.02118 8.83091 7.78231 9.21018 7.51763 9.57723C7.34332 9.85251 7.05927 10.0483 6.73002 10.1217C6.1361 10.2501 5.44533 9.95651 5.50343 9.17348C5.54217 8.66573 5.76812 8.22528 6.07799 7.82153C6.77522 6.90392 7.69839 6.26771 8.75713 5.79667C10.0741 5.20328 11.5267 4.93411 12.9792 5.01364C14.0509 5.0687 15.0579 5.31951 15.9682 5.87008C17.7565 6.95898 18.1373 9.04502 17.24 10.6111C16.6138 11.7183 15.639 12.4769 14.5028 13.0703C13.7152 13.474 12.8565 13.7799 11.9656 13.9573Z" fill="white"/>
</g>
<defs>
<linearGradient id="paint0_linear_1847_119080" x1="12" y1="0" x2="12" y2="24" gradientUnits="userSpaceOnUse">
<stop stop-color="#BB25C7"/>
<stop offset="1" stop-color="#9E00F6"/>
</linearGradient>
<clipPath id="clip0_1847_119080">
<rect width="24" height="24" rx="12" fill="white"/>
</clipPath>
</defs>
</svg>
