<svg width="24" height="24" viewBox="0 0 24 24" fill="none" xmlns="http://www.w3.org/2000/svg">
<g clip-path="url(#clip0_683_28829)">
<circle cx="12" cy="12" r="12" fill="#F00500"/>
<path d="M16.2224 5.67261C15.7335 6.16147 15.2856 6.69131 14.8875 7.25628L14.7616 7.2153C14.0357 6.97819 13.2834 6.83182 12.5252 6.78206C12.2969 6.7645 11.445 6.7645 11.1669 6.78206C10.3268 6.83768 9.68278 6.96355 8.95096 7.21823C8.92168 7.22994 8.89534 7.23872 8.86899 7.2475C8.45624 6.68546 7.99666 6.15854 7.49023 5.67554C9.91989 4.43144 12.7623 4.28214 15.3061 5.26279C15.5784 5.36525 15.8447 5.48527 16.1053 5.61407L16.2224 5.67261Z" fill="#F00500"/>
<path d="M20.7536 16.7759C20.3847 17.8268 19.8315 18.8016 19.1143 19.6505C18.7249 20.1072 18.2946 20.5258 17.8321 20.9064C16.749 21.7787 15.4844 22.4022 14.1349 22.7301C12.642 23.0901 11.0847 23.0901 9.59176 22.7301C8.23934 22.4022 6.97768 21.7787 5.89458 20.9064C5.43207 20.5258 5.00175 20.1072 4.61242 19.6505C2.54867 17.2121 1.92223 13.8633 2.97313 10.8452C3.17219 10.2861 3.42101 9.74748 3.71959 9.23521C3.85718 9.00102 4.02696 8.73757 4.10893 8.62926C4.38995 9.83823 4.73537 10.9008 4.86417 11.2843C4.85539 11.3048 4.84368 11.3282 4.83197 11.3487C4.14991 12.7304 3.78107 14.0623 3.69325 15.4791C3.69325 15.4967 3.69032 15.5172 3.69032 15.5348C3.6669 15.9592 3.67861 16.1612 3.74887 16.4276C3.96841 17.2619 4.64462 18.181 5.7043 19.0826C7.44019 20.558 9.79374 21.6235 11.5765 21.7465C13.4353 21.8724 16.1782 20.7863 18.0048 19.1997C18.2917 18.9451 18.561 18.6757 18.8128 18.3889C18.9942 18.1781 19.2636 17.8151 19.2431 17.8151C19.2372 17.8151 19.2431 17.8093 19.2548 17.8034C19.2636 17.7976 19.2723 17.7888 19.2665 17.7829C19.2636 17.78 19.2694 17.7712 19.2782 17.7683C19.287 17.7654 19.2928 17.7595 19.2899 17.7536C19.287 17.7478 19.2899 17.7419 19.3016 17.739C19.3104 17.7361 19.3133 17.7273 19.3104 17.7214C19.3075 17.7156 19.3104 17.7097 19.3162 17.7097C19.3221 17.7097 19.328 17.701 19.328 17.6951C19.328 17.6892 19.3338 17.6805 19.3397 17.6805C19.3455 17.6805 19.3514 17.6746 19.3514 17.6688C19.3602 17.6453 19.3748 17.6219 19.3894 17.6014C19.4333 17.5341 19.609 17.2209 19.6324 17.1682C19.7993 16.7906 19.9046 16.4539 19.9544 16.1173C19.9778 15.9563 19.9925 15.6606 19.9807 15.5904C19.9778 15.5787 19.9778 15.5582 19.9749 15.526C19.969 15.4674 19.9661 15.3796 19.9603 15.2918C19.9544 15.1601 19.9427 14.9756 19.9339 14.8849C19.808 13.5559 19.4685 12.4699 18.8245 11.3194C18.7981 11.2755 18.7747 11.2316 18.7601 11.1965C18.7542 11.1877 18.7513 11.1789 18.7484 11.1731C18.8391 10.9008 19.2109 9.76212 19.5065 8.45947L19.5124 8.46533L19.5563 8.52387C19.6324 8.62633 19.8344 8.93077 19.9251 9.07713C20.3379 9.75041 20.6599 10.4735 20.8882 11.2287C21.418 13.0466 21.3741 14.9844 20.7536 16.7759Z" fill="#F00500"/>
<path d="M16.9543 13.2777C16.9456 13.3245 16.808 13.465 16.6704 13.5675C16.2664 13.8631 15.5434 14.1383 14.8086 14.27C14.39 14.3461 13.9714 14.3578 13.8456 14.2964C13.7636 14.2554 13.7519 14.2232 13.7812 14.1178C13.8426 13.8983 14.0417 13.6582 14.352 13.4328C14.5101 13.3186 15.1511 12.9293 15.4497 12.7654C15.9415 12.4961 16.3396 12.3351 16.6089 12.297C16.6938 12.2853 16.7963 12.2824 16.8285 12.297C16.8812 12.3175 16.9397 12.4727 16.9631 12.66C16.9748 12.7595 16.969 13.1986 16.9543 13.2777Z" fill="black"/>
<path d="M10.0571 14.2467C10.0395 14.2818 9.9517 14.3199 9.85218 14.3345C9.75265 14.3492 9.44821 14.3404 9.2755 14.3199C8.65491 14.2379 7.99627 14.0477 7.51619 13.8135C7.24688 13.6817 7.05368 13.55 6.91024 13.4066L6.82828 13.3217L6.81949 13.2105C6.80486 13.0173 6.80778 12.7128 6.8312 12.6045C6.84584 12.5138 6.87804 12.4259 6.92195 12.3469C6.94537 12.3176 6.94537 12.3176 7.05075 12.3176C7.17955 12.3176 7.28786 12.3381 7.4635 12.3937C7.82356 12.505 8.35925 12.7743 9.01204 13.1665C9.55066 13.4885 9.75265 13.6466 9.90779 13.8632C10.0132 13.9979 10.0834 14.1882 10.0571 14.2467Z" fill="black"/>
<path d="M14.2026 18.3215C14.2026 18.3303 14.1674 18.4708 14.1235 18.6376C14.0796 18.8045 14.0445 18.9391 14.0445 18.945C14.0123 18.9479 13.983 18.9509 13.9508 18.9479H13.8571L13.7283 19.2524C13.6581 19.4192 13.5937 19.5744 13.5849 19.5978L13.5673 19.6388L13.5059 19.5392L13.4444 19.4397V18.6289L13.421 18.6347C13.3712 18.6464 13.017 18.6933 12.8619 18.7079C12.2208 18.7723 11.5768 18.7577 10.9386 18.6669C10.8362 18.6523 10.7484 18.6406 10.7454 18.6435C10.7425 18.6464 10.7454 18.8338 10.7513 19.065L10.7601 19.4807L10.7103 19.5568C10.684 19.5978 10.6576 19.6329 10.6576 19.6358C10.6488 19.6446 10.6196 19.5978 10.5522 19.4631C10.479 19.3226 10.4264 19.1733 10.3883 19.0182L10.3678 18.9333L10.2771 18.9391L10.1863 18.9479L10.1629 18.8396C10.1512 18.7811 10.1365 18.6903 10.1307 18.6406L10.1219 18.5469L10.0458 18.4796C10.0019 18.4415 9.95799 18.4035 9.9492 18.3976C9.93457 18.3859 9.92871 18.3654 9.92871 18.3478V18.3127L10.2946 18.3156L10.6605 18.3186L10.6722 18.3566L10.684 18.3947L10.8098 18.4005C10.8801 18.4035 11.1026 18.4093 11.3016 18.4152L11.6675 18.4239L11.7612 18.2776L11.8578 18.1312H11.9808L11.9778 17.8268L11.9749 17.5223L11.8139 17.4521C11.2958 17.2238 10.9913 16.9632 10.8772 16.6471C10.8537 16.5827 10.8537 16.5593 10.8479 16.2665C10.845 15.9767 10.845 15.9504 10.8654 15.886C10.9064 15.7396 11.0206 15.6254 11.167 15.5874C11.2167 15.5728 11.3485 15.5728 12.0393 15.5728L12.8531 15.5757L12.9438 15.6196C13.0521 15.6723 13.1019 15.7103 13.1634 15.7923C13.2336 15.886 13.2541 15.9592 13.2541 16.1377C13.2541 16.3924 13.2366 16.6119 13.2102 16.6998C13.1722 16.8198 13.1136 16.9339 13.0404 17.0364C12.8941 17.2238 12.6277 17.4111 12.3847 17.496L12.3145 17.5223L12.3174 17.8297L12.3203 18.1371L12.3847 18.1429L12.4491 18.1488L12.5369 18.2805L12.6218 18.4122H13.0141C13.2307 18.4122 13.421 18.4152 13.4385 18.4181C13.4678 18.4239 13.4737 18.421 13.5029 18.3713L13.5381 18.3186H13.8747C14.1265 18.3069 14.2026 18.3127 14.2026 18.3215Z" fill="black"/>
<path d="M12.657 19.1617C12.6014 19.1939 12.5634 19.2085 12.5546 19.2026C12.5458 19.1997 12.5048 19.1646 12.4609 19.1324L12.3819 19.068L12.2999 19.1558C12.1213 19.349 12.1155 19.3578 12.0628 19.3607C11.9808 19.3695 11.9633 19.3549 11.8637 19.2056C11.811 19.1295 11.7701 19.0651 11.7701 19.0651C11.7701 19.0651 11.732 19.0592 11.6881 19.0563L11.6061 19.0475L11.5681 19.1265L11.53 19.2056L11.4627 19.1851C11.41 19.1675 11.3573 19.147 11.3075 19.1236L11.2197 19.0797V18.9128L11.9984 18.9158L12.777 18.9187L12.78 18.9977C12.7829 19.0914 12.7858 19.0885 12.657 19.1617Z" fill="black"/>
<path d="M19.9752 15.5902C19.9723 15.5785 19.9723 15.558 19.9694 15.5258C19.2668 15.4497 17.2616 15.4028 15.3998 16.9397C15.3998 16.9397 14.7998 14.188 11.9895 14.188C9.17934 14.188 8.13722 16.9397 8.13722 16.9397C6.56233 15.2447 4.45467 15.3677 3.69358 15.4789C3.69358 15.4965 3.69065 15.517 3.69065 15.5345C3.66723 15.959 3.67894 16.161 3.74919 16.4274C3.96874 17.2617 4.64495 18.1808 5.70463 19.0824C7.44052 20.5578 9.79407 21.6233 11.5768 21.7463C13.4356 21.8722 16.1785 20.7861 18.0051 19.1995C18.292 18.9449 18.5613 18.6755 18.8131 18.3887C18.9946 18.1779 19.2639 17.8149 19.2434 17.8149C19.2375 17.8149 19.2434 17.8091 19.2551 17.8032C19.2639 17.7973 19.2727 17.7886 19.2668 17.7827C19.2639 17.7798 19.2697 17.771 19.2785 17.7681C19.2873 17.7651 19.2932 17.7593 19.2902 17.7534C19.2873 17.7476 19.2902 17.7417 19.3019 17.7388C19.3107 17.7359 19.3136 17.7271 19.3107 17.7212C19.3078 17.7154 19.3107 17.7095 19.3166 17.7095C19.3224 17.7095 19.3283 17.7007 19.3283 17.6949C19.3283 17.689 19.3341 17.6803 19.34 17.6803C19.3458 17.6803 19.3517 17.6744 19.3517 17.6685C19.3605 17.6451 19.3751 17.6217 19.3898 17.6012C19.4337 17.5339 19.6093 17.2207 19.6327 17.168C19.7996 16.7904 19.905 16.4537 19.9547 16.1171C19.9723 15.9561 19.9869 15.6604 19.9752 15.5902ZM12.657 19.1615C12.6014 19.1937 12.5633 19.2083 12.5545 19.2025C12.5457 19.1995 12.5047 19.1644 12.4608 19.1322L12.3818 19.0678L12.2998 19.1556C12.1213 19.3488 12.1154 19.3576 12.0627 19.3605C11.9808 19.3693 11.9632 19.3547 11.8637 19.2054C11.811 19.1293 11.77 19.0649 11.77 19.0649C11.77 19.0649 11.7319 19.059 11.688 19.0561L11.6061 19.0473L11.568 19.1263L11.53 19.2054L11.4626 19.1849C11.4099 19.1673 11.3572 19.1468 11.3075 19.1234L11.2197 19.0795V18.9127L11.9983 18.9156L12.777 18.9185L12.7799 18.9975C12.7828 19.0912 12.7858 19.0883 12.657 19.1615ZM14.1206 18.6346C14.0767 18.8014 14.0416 18.9361 14.0416 18.9419C14.0094 18.9449 13.9801 18.9478 13.9479 18.9449H13.8542L13.7284 19.2522C13.6581 19.4191 13.5937 19.5742 13.5849 19.5976L13.5674 19.6386L13.5059 19.5391L13.4444 19.4396V18.6287L13.421 18.6346C13.3712 18.6463 13.017 18.6931 12.8619 18.7077C12.2208 18.7721 11.5768 18.7575 10.9386 18.6668C10.8362 18.6521 10.7484 18.6404 10.7454 18.6433C10.7425 18.6463 10.7454 18.8336 10.7513 19.0649L10.7601 19.4805L10.7103 19.5567C10.684 19.5976 10.6576 19.6328 10.6576 19.6357C10.6488 19.6445 10.6196 19.5976 10.5522 19.463C10.4791 19.3225 10.4264 19.1732 10.3883 19.018L10.3678 18.9331L10.2771 18.939L10.1863 18.9478L10.1629 18.8395C10.1512 18.7809 10.1366 18.6902 10.1307 18.6404L10.1219 18.5467L10.0458 18.4794C10.0019 18.4414 9.958 18.4033 9.94922 18.3974C9.93458 18.3857 9.92872 18.3652 9.92872 18.3477V18.3126L10.2946 18.3155L10.6605 18.3184L10.6723 18.3565L10.684 18.3945L10.8098 18.4004C10.8801 18.4033 11.1026 18.4092 11.3016 18.415L11.6675 18.4238L11.7612 18.2774L11.8578 18.1311H11.9808L11.9778 17.8266L11.9749 17.5222L11.8139 17.4519C11.2958 17.2236 10.9913 16.9631 10.8772 16.6469C10.8538 16.5825 10.8538 16.5591 10.8479 16.2664C10.845 15.9766 10.845 15.9502 10.8655 15.8858C10.9064 15.7395 11.0206 15.6253 11.167 15.5872C11.2167 15.5726 11.3485 15.5726 12.0393 15.5726L12.8531 15.5755L12.9438 15.6194C13.0522 15.6721 13.1019 15.7102 13.1634 15.7921C13.2336 15.8858 13.2541 15.959 13.2541 16.1376C13.2541 16.3922 13.2366 16.6118 13.2102 16.6996C13.1722 16.8196 13.1136 16.9338 13.0404 17.0363C12.8941 17.2236 12.6277 17.4109 12.3847 17.4958L12.3145 17.5222L12.3174 17.8296L12.3203 18.1369L12.3847 18.1428L12.4491 18.1486L12.537 18.2804L12.6218 18.4121H13.0141C13.2307 18.4121 13.421 18.415 13.4386 18.4179C13.4678 18.4238 13.4737 18.4209 13.503 18.3711L13.5381 18.3184H13.8747C14.1353 18.3184 14.2114 18.3213 14.2114 18.3301C14.2026 18.3272 14.1645 18.4706 14.1206 18.6346Z" fill="white"/>
<path d="M19.9516 15.2917C19.9457 15.16 19.934 14.9755 19.9252 14.8848C19.7994 13.5558 19.4598 12.4698 18.8158 11.3193C18.7894 11.2754 18.766 11.2315 18.7514 11.1964C18.7455 11.1876 18.7426 11.1788 18.7397 11.173C18.8304 10.9007 19.2022 9.76202 19.4978 8.45937C19.8989 6.69128 20.1536 4.62461 19.3749 4.00402C19.3749 4.00402 18.0283 3.90449 16.2251 5.67258C15.7363 6.16144 15.2884 6.69128 14.8903 7.25625L14.7644 7.21527C14.0384 6.97816 13.2861 6.83179 12.5279 6.78203C12.2996 6.76447 11.4478 6.76447 11.1697 6.78203C10.3295 6.83765 9.68554 6.96352 8.95371 7.2182C8.92444 7.22991 8.89809 7.23869 8.87175 7.24747C8.459 6.68543 7.99941 6.15852 7.49299 5.67551C5.61659 3.89864 4.22027 4.0011 4.22027 4.0011C3.39477 4.64217 3.67579 6.80252 4.10318 8.62916C4.3842 9.83813 4.72962 10.9007 4.85842 11.2842C4.84964 11.3047 4.83793 11.3281 4.82622 11.3486C4.14416 12.7303 3.77532 14.0622 3.6875 15.479C4.45153 15.3678 6.55625 15.2419 8.13407 16.9398C8.13407 16.9398 9.17619 14.1881 11.9864 14.1881C14.7966 14.1881 15.3967 16.9398 15.3967 16.9398C17.2585 15.4029 19.2637 15.4527 19.9662 15.5259C19.9633 15.4673 19.9574 15.3795 19.9516 15.2917ZM5.41168 10.1806C5.41168 10.1806 4.31687 7.4436 4.59789 5.88042C4.64473 5.61697 4.73255 5.38571 4.87013 5.21007C4.87013 5.21007 6.1113 5.33302 8.11358 7.55777C8.11358 7.55777 7.73303 7.74219 7.22368 8.13444C7.22368 8.13444 7.22075 8.13737 7.21782 8.13737C6.66456 8.56183 5.95616 9.23511 5.41168 10.1806ZM10.0573 14.2466C10.0397 14.2818 9.95192 14.3198 9.85239 14.3345C9.75286 14.3491 9.44843 14.3403 9.27572 14.3198C8.65513 14.2379 7.99649 14.0476 7.51641 13.8134C7.2471 13.6817 7.05389 13.5499 6.91046 13.4065L6.82849 13.3216L6.81971 13.2104C6.80507 13.0172 6.808 12.7127 6.83142 12.6044C6.84606 12.5137 6.87826 12.4259 6.92217 12.3468C6.94558 12.3176 6.94559 12.3176 7.05097 12.3176C7.17977 12.3176 7.28808 12.338 7.46372 12.3937C7.82377 12.5049 8.35947 12.7742 9.01226 13.1665C9.55088 13.4885 9.75287 13.6466 9.90801 13.8632C10.0134 13.9978 10.0836 14.1881 10.0573 14.2466ZM16.954 13.2777C16.9452 13.3245 16.8077 13.4651 16.6701 13.5675C16.2661 13.8632 15.5431 14.1383 14.8083 14.2701C14.3897 14.3462 13.9711 14.3579 13.8452 14.2964C13.7633 14.2554 13.7516 14.2232 13.7808 14.1178C13.8423 13.8983 14.0414 13.6583 14.3517 13.4329C14.5097 13.3187 15.1508 12.9294 15.4494 12.7654C15.9412 12.4961 16.3393 12.3351 16.6086 12.2971C16.6935 12.2854 16.7959 12.2824 16.8281 12.2971C16.8808 12.3176 16.9394 12.4727 16.9628 12.66C16.9745 12.7596 16.9687 13.1987 16.954 13.2777ZM16.4681 8.13444L16.4622 8.13152C15.9705 7.73926 15.6016 7.55484 15.6016 7.55484C17.5366 5.33009 18.7338 5.20714 18.7338 5.20714C18.8655 5.38571 18.9504 5.61404 18.9973 5.87749C19.2695 7.44067 18.2128 10.1806 18.2128 10.1806C17.7707 9.39318 17.1765 8.69649 16.4681 8.13444Z" fill="#FFA409"/>
<path d="M19.0002 5.87763C18.7718 5.84835 17.6917 5.8425 16.468 8.13458L16.4622 8.13165C15.9704 7.73939 15.6016 7.55497 15.6016 7.55497C17.5365 5.33022 18.7338 5.20728 18.7338 5.20728C18.8684 5.38584 18.9533 5.61417 19.0002 5.87763Z" fill="#FF9300"/>
<path d="M18.2154 10.1808C17.7704 9.3904 17.1791 8.69663 16.4678 8.13459C17.6914 5.84251 18.7686 5.84837 18.9999 5.87764C19.2721 7.44375 18.2154 10.1808 18.2154 10.1808Z" fill="#FF8300"/>
<path d="M19.0442 5.88647C19.0295 5.88354 19.0149 5.88061 19.0002 5.87769L19.0442 5.88647Z" fill="#FF8300"/>
<path d="M8.11358 7.55497C8.11358 7.55497 7.73304 7.73939 7.22369 8.13165C7.22369 8.13165 7.22076 8.13458 7.21783 8.13458C5.95031 5.83957 4.83501 5.84835 4.59497 5.87763C4.64181 5.61417 4.72963 5.38291 4.86721 5.20728C4.87014 5.20728 6.11131 5.33022 8.11358 7.55497Z" fill="#FF9300"/>
<path d="M7.22099 8.13459C6.6648 8.56198 5.9564 9.23233 5.41192 10.1808C5.41192 10.1808 4.31711 7.44375 4.59813 5.87764C4.83524 5.84837 5.95347 5.84251 7.22099 8.13459Z" fill="#FF8300"/>
<path d="M4.59786 5.87769C4.58322 5.88061 4.56566 5.88354 4.55103 5.88647L4.59786 5.87769Z" fill="#FF8300"/>
<path d="M15.2536 11.6998C15.2536 11.6998 14.3169 11.7584 14.434 11.0266C14.551 10.2947 15.2829 10.2069 15.4878 10.2362C15.6927 10.2655 16.5123 10.5582 16.366 11.1729C16.2196 11.7877 16.0147 11.6706 15.8976 11.6998C15.7805 11.7291 15.2536 11.6998 15.2536 11.6998Z" fill="white"/>
<path d="M8.34442 11.6998C8.34442 11.6998 7.40769 11.7584 7.52478 11.0266C7.64187 10.2947 8.37369 10.2069 8.57861 10.2362C8.78352 10.2655 9.60316 10.5582 9.4568 11.1729C9.31043 11.7877 9.10552 11.6706 8.98843 11.6998C8.87134 11.7291 8.34442 11.6998 8.34442 11.6998Z" fill="white"/>
</g>
<defs>
<clipPath id="clip0_683_28829">
<rect width="24" height="24" rx="12" fill="white"/>
</clipPath>
</defs>
</svg>
