<svg width="24" height="24" viewBox="0 0 24 24" fill="none" xmlns="http://www.w3.org/2000/svg">
<circle cx="12" cy="12" r="12" fill="#F5F5F5"/>
<path fill-rule="evenodd" clip-rule="evenodd" d="M12.0019 21.7269C17.3656 21.7269 21.7137 17.3787 21.7137 12.015C21.7137 6.65136 17.3656 2.30322 12.0019 2.30322C6.63817 2.30322 2.29004 6.65136 2.29004 12.015C2.29004 17.3787 6.63817 21.7269 12.0019 21.7269ZM12.0019 20.9037C16.911 20.9037 20.8906 16.9241 20.8906 12.0151C20.8906 7.10598 16.911 3.12638 12.0019 3.12638C7.09283 3.12638 3.11324 7.10598 3.11324 12.0151C3.11324 16.9241 7.09283 20.9037 12.0019 20.9037Z" fill="#6DA316"/>
<mask id="mask0_2556_61930" style="mask-type:alpha" maskUnits="userSpaceOnUse" x="3" y="3" width="18" height="18">
<circle cx="12.0017" cy="12.0149" r="8.88867" fill="white"/>
</mask>
<g mask="url(#mask0_2556_61930)">
<path d="M22.7408 6.04626C23.1727 6.56006 24.4029 8.65483 21.5254 13.6666C21.5164 13.6822 21.5044 13.6957 21.4901 13.7065C21.4757 13.7173 21.4594 13.7251 21.4419 13.7295C21.4245 13.7338 21.4064 13.7346 21.3887 13.7318C21.3709 13.729 21.354 13.7226 21.3387 13.7131L19.3146 12.4389L20.7065 14.5002C20.7244 14.5219 20.7349 14.5487 20.7366 14.5768C20.7382 14.6048 20.7309 14.6327 20.7156 14.6563C20.4008 15.146 18.7104 17.7199 17.0622 19.206C17.0333 19.2318 16.998 19.2493 16.96 19.2567C16.922 19.264 16.8828 19.261 16.8464 19.2478L13.6751 18.1863L15.8838 20.2091C15.9093 20.2313 15.9254 20.2623 15.9288 20.2959C15.9323 20.3295 15.9228 20.3632 15.9023 20.3901C15.4533 20.977 12.9125 23.847 9.59988 21.1706L9.6 21.1701C11.4619 20.5705 12.1294 19.2965 12.3253 18.1503L12.3359 18.1523C15.6878 15.4737 20.097 11.2699 22.7408 6.04626Z" fill="#BFDD8F"/>
<path d="M22.6132 5.91424C22.6594 5.95442 22.702 5.99857 22.7405 6.04618C20.0966 11.2698 15.6874 15.4736 12.3356 18.1522L12.325 18.1502C12.39 17.7567 12.4103 17.357 12.3855 16.9589C15.1349 14.6661 18.6642 11.1366 22.3492 5.90561C22.4373 5.90071 22.5256 5.9036 22.6132 5.91424Z" fill="#42997F"/>
<path d="M19.1557 7.26683C19.5984 6.96192 21.2676 5.95767 22.3492 5.90574C18.6642 11.1367 15.1349 14.6662 12.3855 16.959C12.3671 16.6383 12.3218 16.3196 12.2503 16.0065C12.2427 15.9735 12.2228 15.9448 12.1947 15.926C12.1666 15.9073 12.1324 15.9 12.099 15.9056L9.13349 16.3257L11.9683 14.5513C12.0017 14.5317 12.0291 14.5034 12.0476 14.4694C12.0661 14.4354 12.0749 14.3969 12.0732 14.3583C12.0431 13.6953 11.9405 12.9677 11.8066 12.2586C11.9591 12.148 12.1175 12.037 12.2818 11.9257C12.3258 11.8959 12.3785 11.8817 12.4315 11.8853C12.4845 11.8889 12.5348 11.9102 12.5744 11.9456L14.6928 13.6301L13.6441 10.9648C13.6196 10.9112 13.6159 10.8505 13.6336 10.7943C13.6514 10.7381 13.6894 10.6906 13.7403 10.6608L17.7536 8.32435C17.7975 8.29876 17.8484 8.28791 17.8989 8.2934C17.9494 8.29888 17.9967 8.32041 18.0341 8.35482L19.1502 9.0698L19.0558 7.49962C19.0488 7.45535 19.0545 7.41002 19.0722 7.36884C19.0899 7.32766 19.1188 7.2923 19.1557 7.26683Z" fill="#BFDD8F"/>
<path d="M12.3252 18.1505C12.1293 19.2967 11.4618 20.5707 9.59985 21.1703C9.0889 21.3301 8.56185 21.4328 8.02831 21.4766C8.36736 18.0354 8.81826 9.12142 5.52082 1.61157C6.19161 1.60412 8.59058 1.98468 10.6327 7.39169C10.639 7.40854 10.6419 7.42649 10.6411 7.44447C10.6403 7.46244 10.6359 7.48007 10.6281 7.4963C10.6203 7.51253 10.6094 7.52702 10.5959 7.53892C10.5824 7.55081 10.5666 7.55986 10.5495 7.56552L8.28001 8.31912L10.7555 8.554C10.7837 8.55391 10.8112 8.56278 10.834 8.57933C10.8567 8.59588 10.8737 8.61924 10.8823 8.64605C11.007 9.03461 11.4933 10.5959 11.8068 12.2587C11.9407 12.9679 12.0433 13.6954 12.0733 14.3584C12.0751 14.3971 12.0662 14.4355 12.0478 14.4695C12.0293 14.5036 12.0019 14.5319 11.9685 14.5515L9.13368 16.3259L12.0992 15.9058C12.1325 15.9001 12.1668 15.9074 12.1949 15.9262C12.223 15.9449 12.2429 15.9737 12.2505 16.0066C12.322 16.3198 12.3673 16.6384 12.3857 16.9591C12.4105 17.3573 12.3902 17.7569 12.3252 18.1505Z" fill="#BFDD8F"/>
<path d="M7.85361 22.9312L6.76464 23.1121C6.76464 23.1121 6.92725 22.5186 7.08365 21.373C7.4921 18.3797 7.85712 11.6154 5.16341 1.82399L5.16352 1.82357C5.2159 1.75265 5.27431 1.68638 5.33811 1.62553C5.39842 1.61564 5.45947 1.61092 5.52059 1.61143C8.81803 9.12127 8.36713 18.0352 8.02808 21.4764C7.93652 22.4017 7.85361 22.9312 7.85361 22.9312Z" fill="#42997F"/>
<path d="M7.08359 21.3729C7.08359 21.3729 2.72289 20.7539 3.41451 13.4226C3.4193 13.3696 3.44171 13.3199 3.47816 13.2812C3.51461 13.2425 3.56298 13.2172 3.61552 13.2093L6.26258 12.644L3.53784 11.7602C3.48093 11.7449 3.43169 11.7091 3.39963 11.6597C3.36758 11.6103 3.35499 11.5507 3.36429 11.4925L4.11049 6.9086C4.11874 6.85858 4.14279 6.8125 4.17912 6.77714C4.21544 6.74177 4.26214 6.71897 4.31237 6.71206L5.57367 6.30484L4.30129 5.37955C4.26263 5.35686 4.23119 5.32368 4.21063 5.28385C4.19007 5.24403 4.18122 5.19918 4.18512 5.15453C4.23076 4.61903 4.51619 2.69181 5.16335 1.82383C7.85706 11.6152 7.49204 18.3796 7.08359 21.3729Z" fill="#BFDD8F"/>
<path d="M4.66504 13.7576C4.66983 13.7047 4.69225 13.6549 4.72869 13.6163C4.76514 13.5776 4.81351 13.5523 4.86605 13.5443L7.20887 13.044C7.20428 12.988 7.19993 12.9324 7.19513 12.8759L4.78837 12.0953C4.73146 12.08 4.68222 12.0442 4.65016 11.9948C4.61811 11.9453 4.60552 11.8858 4.61482 11.8276L5.36102 7.24368C5.36927 7.19365 5.39332 7.14758 5.42965 7.11222C5.46597 7.07685 5.51267 7.05404 5.5629 7.04714L6.33504 6.79785C6.29625 6.59905 6.25627 6.39876 6.21512 6.197L5.55178 5.71461C5.51312 5.69193 5.48168 5.65875 5.46112 5.61892C5.44056 5.57909 5.43171 5.53425 5.43561 5.48959C5.48983 4.9615 5.5801 4.43773 5.70581 3.92195C5.5404 3.23877 5.35958 2.53939 5.16335 1.82383C4.51619 2.69181 4.23076 4.61903 4.18512 5.15453C4.18122 5.19918 4.19007 5.24403 4.21063 5.28385C4.23119 5.32368 4.26263 5.35686 4.30129 5.37955L5.57367 6.30484L4.31237 6.71206C4.26214 6.71897 4.21544 6.74177 4.17912 6.77714C4.14279 6.8125 4.11874 6.85858 4.11049 6.9086L3.36429 11.4925C3.35499 11.5507 3.36758 11.6103 3.39963 11.6597C3.43169 11.7091 3.48093 11.7449 3.53784 11.7602L6.26258 12.644L3.61552 13.2093C3.56298 13.2172 3.51461 13.2425 3.47816 13.2812C3.44171 13.3199 3.4193 13.3696 3.41451 13.4226C2.72289 20.7539 7.08359 21.3729 7.08359 21.3729C7.09138 21.3156 7.09897 21.2584 7.10637 21.2011C5.87457 20.4223 4.21898 18.4862 4.66504 13.7576Z" fill="#BFDD8F"/>
</g>
<mask id="mask1_2556_61930" style="mask-type:alpha" maskUnits="userSpaceOnUse" x="3" y="1" width="22" height="13">
<rect x="3.11304" y="1.22998" width="21.3762" height="12.6356" fill="#D9D9D9"/>
</mask>
<g mask="url(#mask1_2556_61930)">
<path d="M22.7408 6.04626C23.1727 6.56006 24.4029 8.65483 21.5254 13.6666C21.5164 13.6822 21.5044 13.6957 21.4901 13.7065C21.4757 13.7173 21.4594 13.7251 21.4419 13.7295C21.4245 13.7338 21.4064 13.7346 21.3887 13.7318C21.3709 13.729 21.354 13.7226 21.3387 13.7131L19.3146 12.4389L20.7065 14.5002C20.7244 14.5219 20.7349 14.5487 20.7366 14.5768C20.7382 14.6048 20.7309 14.6327 20.7156 14.6563C20.4008 15.146 18.7104 17.7199 17.0622 19.206C17.0333 19.2318 16.998 19.2493 16.96 19.2567C16.922 19.264 16.8828 19.261 16.8464 19.2478L13.6751 18.1863L15.8838 20.2091C15.9093 20.2313 15.9254 20.2623 15.9288 20.2959C15.9323 20.3295 15.9228 20.3632 15.9023 20.3901C15.4533 20.977 12.9125 23.847 9.59988 21.1706L9.6 21.1701C11.4619 20.5705 12.1294 19.2965 12.3253 18.1503L12.3359 18.1523C15.6878 15.4737 20.097 11.2699 22.7408 6.04626Z" fill="#BFDD8F"/>
<path d="M22.6132 5.91424C22.6594 5.95442 22.702 5.99857 22.7405 6.04618C20.0966 11.2698 15.6874 15.4736 12.3356 18.1522L12.325 18.1502C12.39 17.7567 12.4103 17.357 12.3855 16.9589C15.1349 14.6661 18.6642 11.1366 22.3492 5.90561C22.4373 5.90071 22.5256 5.9036 22.6132 5.91424Z" fill="#6DA316"/>
<path d="M19.1557 7.26683C19.5984 6.96192 21.2676 5.95767 22.3492 5.90574C18.6642 11.1367 15.1349 14.6662 12.3855 16.959C12.3671 16.6383 12.3218 16.3196 12.2503 16.0065C12.2427 15.9735 12.2228 15.9448 12.1947 15.926C12.1666 15.9073 12.1324 15.9 12.099 15.9056L9.13349 16.3257L11.9683 14.5513C12.0017 14.5317 12.0291 14.5034 12.0476 14.4694C12.0661 14.4354 12.0749 14.3969 12.0732 14.3583C12.0431 13.6953 11.9405 12.9677 11.8066 12.2586C11.9591 12.148 12.1175 12.037 12.2818 11.9257C12.3258 11.8959 12.3785 11.8817 12.4315 11.8853C12.4845 11.8889 12.5348 11.9102 12.5744 11.9456L14.6928 13.6301L13.6441 10.9648C13.6196 10.9112 13.6159 10.8505 13.6336 10.7943C13.6514 10.7381 13.6894 10.6906 13.7403 10.6608L17.7536 8.32435C17.7975 8.29876 17.8484 8.28791 17.8989 8.2934C17.9494 8.29888 17.9967 8.32041 18.0341 8.35482L19.1502 9.0698L19.0558 7.49962C19.0488 7.45535 19.0545 7.41002 19.0722 7.36884C19.0899 7.32766 19.1188 7.2923 19.1557 7.26683Z" fill="#BFDD8F"/>
<path d="M12.3252 18.1505C12.1293 19.2967 11.4618 20.5707 9.59985 21.1703C9.0889 21.3301 8.56185 21.4328 8.02831 21.4766C8.36736 18.0354 8.81826 9.12142 5.52082 1.61157C6.19161 1.60412 8.59058 1.98468 10.6327 7.39169C10.639 7.40854 10.6419 7.42649 10.6411 7.44447C10.6403 7.46244 10.6359 7.48007 10.6281 7.4963C10.6203 7.51253 10.6094 7.52702 10.5959 7.53891C10.5824 7.55081 10.5666 7.55986 10.5495 7.56552L8.28001 8.31912L10.7555 8.55399C10.7837 8.55391 10.8112 8.56278 10.834 8.57933C10.8568 8.59587 10.8737 8.61924 10.8823 8.64605C11.007 9.03461 11.4933 10.5959 11.8068 12.2587C11.9407 12.9679 12.0433 13.6954 12.0733 14.3584C12.0751 14.3971 12.0662 14.4355 12.0478 14.4695C12.0293 14.5036 12.0019 14.5319 11.9685 14.5515L9.13368 16.3259L12.0992 15.9058C12.1325 15.9001 12.1668 15.9074 12.1949 15.9262C12.223 15.9449 12.2429 15.9737 12.2505 16.0066C12.322 16.3198 12.3673 16.6384 12.3857 16.9591C12.4105 17.3573 12.3902 17.7569 12.3252 18.1505Z" fill="#BFDD8F"/>
<path d="M7.85361 22.9312L6.76464 23.1121C6.76464 23.1121 6.92725 22.5186 7.08365 21.373C7.4921 18.3797 7.85712 11.6154 5.16341 1.82399L5.16352 1.82357C5.2159 1.75265 5.27431 1.68638 5.33811 1.62553C5.39842 1.61564 5.45947 1.61092 5.52059 1.61143C8.81803 9.12127 8.36713 18.0352 8.02808 21.4764C7.93652 22.4017 7.85361 22.9312 7.85361 22.9312Z" fill="#6DA316"/>
<path d="M7.08359 21.3729C7.08359 21.3729 2.72289 20.7539 3.41451 13.4226C3.4193 13.3696 3.44171 13.3199 3.47816 13.2812C3.51461 13.2425 3.56298 13.2172 3.61552 13.2093L6.26258 12.644L3.53784 11.7602C3.48093 11.7449 3.43169 11.7091 3.39963 11.6597C3.36758 11.6103 3.35499 11.5507 3.36429 11.4925L4.11049 6.9086C4.11874 6.85858 4.14279 6.8125 4.17912 6.77714C4.21544 6.74177 4.26214 6.71897 4.31237 6.71206L5.57367 6.30484L4.30129 5.37955C4.26263 5.35686 4.23119 5.32368 4.21063 5.28385C4.19007 5.24403 4.18122 5.19918 4.18512 5.15453C4.23076 4.61903 4.51619 2.69181 5.16335 1.82383C7.85706 11.6152 7.49204 18.3796 7.08359 21.3729Z" fill="#BFDD8F"/>
<path d="M4.66504 13.7576C4.66983 13.7047 4.69225 13.6549 4.72869 13.6163C4.76514 13.5776 4.81351 13.5523 4.86605 13.5443L7.20887 13.044C7.20428 12.988 7.19993 12.9324 7.19513 12.8759L4.78837 12.0953C4.73146 12.08 4.68222 12.0442 4.65016 11.9948C4.61811 11.9453 4.60552 11.8858 4.61482 11.8276L5.36102 7.24368C5.36927 7.19365 5.39332 7.14758 5.42965 7.11222C5.46597 7.07685 5.51267 7.05404 5.5629 7.04714L6.33504 6.79785C6.29625 6.59905 6.25627 6.39876 6.21512 6.197L5.55178 5.71461C5.51312 5.69193 5.48168 5.65875 5.46112 5.61892C5.44056 5.57909 5.43171 5.53425 5.43561 5.48959C5.48983 4.9615 5.5801 4.43773 5.70581 3.92195C5.5404 3.23877 5.35958 2.53939 5.16335 1.82383C4.51619 2.69181 4.23076 4.61903 4.18512 5.15453C4.18122 5.19918 4.19007 5.24403 4.21063 5.28385C4.23119 5.32368 4.26263 5.35686 4.30129 5.37955L5.57367 6.30484L4.31237 6.71206C4.26214 6.71897 4.21544 6.74177 4.17912 6.77714C4.14279 6.8125 4.11874 6.85858 4.11049 6.9086L3.36429 11.4925C3.35499 11.5507 3.36758 11.6103 3.39963 11.6597C3.43169 11.7091 3.48093 11.7449 3.53784 11.7602L6.26258 12.644L3.61552 13.2093C3.56298 13.2172 3.51461 13.2425 3.47816 13.2812C3.44171 13.3199 3.4193 13.3696 3.41451 13.4226C2.72289 20.7539 7.08359 21.3729 7.08359 21.3729C7.09138 21.3156 7.09897 21.2584 7.10637 21.2011C5.87457 20.4223 4.21898 18.4862 4.66504 13.7576Z" fill="#BFDD8F"/>
</g>
<mask id="mask2_2556_61930" style="mask-type:alpha" maskUnits="userSpaceOnUse" x="3" y="3" width="18" height="18">
<circle cx="12.0017" cy="12.0149" r="8.88867" fill="white"/>
</mask>
<g mask="url(#mask2_2556_61930)">
<path d="M18.0981 21.9406L19.6127 19.5117C18.698 19.1991 18.2908 17.7862 16.9456 16.6973C16.8351 16.6079 16.718 16.5208 16.594 16.4364C16.5738 16.3947 16.5565 16.3593 16.5425 16.3312C16.5156 16.2766 16.5006 16.2482 16.5006 16.2482H16.2965C15.9412 16.0402 15.5328 15.857 15.0568 15.7126L15.2251 16.2482H8.77952L8.9478 15.7126C8.47175 15.857 8.06339 16.0402 7.70813 16.2482H7.62324C7.62324 16.2482 7.61015 16.2736 7.58622 16.3218C7.3955 16.4407 7.22049 16.5668 7.05894 16.6973C5.71381 17.7862 5.3176 19.2335 4.39187 19.5117C4.33867 19.5277 6.01111 21.8613 6.01111 21.8613L9.25622 23.9712L15.118 23.9871L18.0981 21.9406Z" fill="#6DA316"/>
<ellipse cx="12.0016" cy="17.532" rx="3.79624" ry="2.416" fill="#BFDD8F"/>
<ellipse cx="12.0019" cy="17.532" rx="2.98114" ry="1.89725" fill="#A18367"/>
</g>
<path d="M12.0016 18.133C11.9849 18.133 11.9648 18.133 11.9481 18.1263C9.80262 18.0526 6.83835 17.6745 5.61187 15.3015C4.35531 12.8718 5.92267 10.1407 6.10647 9.83618C7.7273 7.13863 10.7952 6.73366 11.7443 6.67342C12.1921 6.49939 12.4929 6.322 12.7736 6.06765C13.0242 5.84006 13.2314 5.57231 13.3952 5.2711C13.4186 5.22759 13.4587 5.19747 13.5055 5.18743C13.5188 5.18743 13.5289 5.18408 13.5422 5.18408C13.579 5.18408 13.6124 5.19412 13.6425 5.21755C13.7494 5.29787 14.1003 5.60244 14.1605 6.12789C14.1839 6.33204 14.1538 6.51612 14.107 6.67007C14.2373 6.59979 14.3677 6.51947 14.4913 6.43914C14.8055 6.23499 15.0995 5.99736 15.3702 5.73296C15.4003 5.70284 15.4438 5.68611 15.4872 5.68611C15.5006 5.68611 15.5139 5.68611 15.524 5.68945C15.5808 5.70284 15.6242 5.743 15.6443 5.79655C15.7679 6.14462 15.8181 6.51947 15.788 6.88762C15.7679 7.14867 15.7078 7.40638 15.6109 7.6507C16.5767 8.18954 17.3453 8.92919 17.8967 9.84287C18.0805 10.1474 19.6479 12.8784 18.3913 15.3082C17.0145 17.9757 13.3718 18.0895 12.0016 18.133Z" fill="#DCAE88"/>
<path d="M16.8195 15.2144C15.8804 16.5263 13.9454 17.0685 12.0004 17.0786C10.3261 17.0685 8.65852 16.6669 7.62587 15.7164C7.45878 15.5658 7.31174 15.3985 7.1814 15.2144C6.69014 14.5316 6.39271 13.5209 6.55646 12.5369C6.59322 12.3093 6.65672 12.0851 6.74695 11.8642C7.20814 10.7397 8.35775 9.85611 9.68783 9.79587C10.8508 9.74232 11.693 10.3381 11.9971 10.5891C12.3012 10.3381 13.1434 9.74566 14.3063 9.79587C15.6364 9.85611 16.786 10.7397 17.2472 11.8642C17.7318 13.0423 17.4143 14.3743 16.8128 15.2144H16.8195Z" fill="#FDFBFD"/>
<path d="M12.9597 14.4511C12.9497 14.5716 12.6757 14.7992 12.3081 14.8896C12.1978 14.9163 12.0975 14.9264 12.0039 14.9297C11.9104 14.9297 11.8101 14.9163 11.6998 14.8896C11.3289 14.7992 11.0582 14.5716 11.0482 14.4511C11.0482 14.4344 11.0415 14.3808 11.0749 14.3541C11.1016 14.3306 11.1384 14.334 11.1618 14.3373C11.2821 14.3507 11.379 14.4009 11.3991 14.4076C11.3991 14.4076 11.4325 14.4243 11.6697 14.5013C11.7132 14.5147 11.8435 14.5549 12.0039 14.5549C12.1643 14.5549 12.2947 14.5147 12.3381 14.5013C12.5754 14.4243 12.6088 14.4076 12.6088 14.4076C12.6289 14.3976 12.7258 14.3507 12.8461 14.3373C12.8728 14.3373 12.9096 14.3306 12.933 14.3541C12.9631 14.3842 12.9597 14.4344 12.9597 14.4511Z" fill="#4E3823"/>
<path d="M12.7321 13.5141C12.5516 13.822 12.1238 13.8655 12.0002 13.8655C11.8665 13.8655 11.4488 13.8186 11.2683 13.5141C11.2382 13.4605 11.1547 13.3199 11.2081 13.1861C11.3084 12.9384 11.793 12.915 12.0002 12.9116C12.2074 12.915 12.692 12.9384 12.7922 13.1861C12.8457 13.3199 12.7621 13.4638 12.7321 13.5141Z" fill="#4E3823"/>
<path d="M13.0832 12.9751C13.0899 13.3666 13.2937 13.6478 13.3839 13.7683C13.648 14.1264 13.912 14.1833 14.9847 14.7154C15.7968 15.117 15.9271 15.2241 16.0107 15.2944C16.1845 15.4484 16.2981 15.5889 16.3783 15.7128C16.5454 15.5622 16.6924 15.3948 16.8228 15.2107C17.314 14.528 17.6115 13.5173 17.4477 12.5333C17.2171 12.2655 16.9063 11.9811 16.4852 11.7702C15.6464 11.3519 14.3531 11.1979 13.6079 11.8807C13.5276 11.9543 13.0731 12.3726 13.0832 12.9684V12.9751Z" fill="#A18367"/>
<path d="M15.0047 13.9792C15.3757 13.9792 15.6765 13.5851 15.6765 13.099C15.6765 12.6128 15.3757 12.2188 15.0047 12.2188C14.6337 12.2188 14.333 12.6128 14.333 13.099C14.333 13.5851 14.6337 13.9792 15.0047 13.9792Z" fill="#4E3823"/>
<path d="M10.921 12.9751C10.9143 13.3666 10.7105 13.6478 10.6202 13.7683C10.3562 14.1264 10.0922 14.1833 9.01945 14.7154C8.20737 15.117 8.07703 15.2241 7.99348 15.2944C7.8197 15.4484 7.70608 15.5889 7.62587 15.7128C7.45878 15.5622 7.31173 15.3948 7.1814 15.2107C6.69014 14.528 6.39271 13.5173 6.55646 12.5333C6.78706 12.2655 7.09785 11.9811 7.51893 11.7702C8.35775 11.3519 9.65107 11.1979 10.3963 11.8807C10.4765 11.9543 10.931 12.3726 10.921 12.9684V12.9751Z" fill="#A18367"/>
<path d="M8.99912 13.9797C9.3701 13.9797 9.67084 13.5856 9.67084 13.0995C9.67084 12.6133 9.3701 12.2192 8.99912 12.2192C8.62813 12.2192 8.32739 12.6133 8.32739 13.0995C8.32739 13.5856 8.62813 13.9797 8.99912 13.9797Z" fill="#4E3823"/>
<path d="M9.05251 13.0591C9.17791 13.0591 9.27958 12.9258 9.27958 12.7612C9.27958 12.5967 9.17791 12.4634 9.05251 12.4634C8.9271 12.4634 8.82544 12.5967 8.82544 12.7612C8.82544 12.9258 8.9271 13.0591 9.05251 13.0591Z" fill="#FBFDFB"/>
<path d="M14.9009 13.0591C15.0263 13.0591 15.128 12.9258 15.128 12.7612C15.128 12.5967 15.0263 12.4634 14.9009 12.4634C14.7755 12.4634 14.6738 12.5967 14.6738 12.7612C14.6738 12.9258 14.7755 13.0591 14.9009 13.0591Z" fill="#FBFDFB"/>
</svg>
