<svg width="24" height="24" viewBox="0 0 24 24" fill="none" xmlns="http://www.w3.org/2000/svg">
<path fill-rule="evenodd" clip-rule="evenodd" d="M12.0048 21.6238C17.3204 21.6238 21.6296 17.3146 21.6296 11.9989C21.6296 6.68323 17.3204 2.37402 12.0048 2.37402C6.68909 2.37402 2.37988 6.68323 2.37988 11.9989C2.37988 17.3146 6.68909 21.6238 12.0048 21.6238ZM12.0048 20.808C16.8699 20.808 20.8139 16.864 20.8139 11.9989C20.8139 7.13378 16.8699 3.18981 12.0048 3.18981C7.13968 3.18981 3.19572 7.13378 3.19572 11.9989C3.19572 16.864 7.13968 20.808 12.0048 20.808Z" fill="#6DA316"/>
<mask id="mask0_2645_7590" style="mask-type:alpha" maskUnits="userSpaceOnUse" x="3" y="3" width="18" height="18">
<circle cx="12.0042" cy="11.9995" r="8.80908" fill="white"/>
</mask>
<g mask="url(#mask0_2645_7590)">
<path d="M22.6461 6.08378C23.0742 6.59298 24.2933 8.66899 21.4416 13.6359C21.4327 13.6513 21.4208 13.6648 21.4066 13.6755C21.3923 13.6862 21.3761 13.6939 21.3589 13.6982C21.3416 13.7025 21.3236 13.7033 21.3061 13.7005C21.2885 13.6977 21.2717 13.6914 21.2566 13.682L19.2505 12.4192L20.63 14.462C20.6478 14.4835 20.6582 14.5101 20.6598 14.5379C20.6614 14.5657 20.6542 14.5933 20.6391 14.6168C20.327 15.1021 18.6518 17.6529 17.0183 19.1257C16.9897 19.1513 16.9547 19.1686 16.9171 19.1759C16.8794 19.1832 16.8405 19.1802 16.8044 19.1671L13.6616 18.1151L15.8505 20.1198C15.8757 20.1418 15.8917 20.1725 15.8951 20.2059C15.8985 20.2392 15.8891 20.2725 15.8688 20.2992C15.4239 20.8808 12.9058 23.7251 9.62282 21.0727L9.62293 21.0722C11.4682 20.4779 12.1297 19.2154 12.3238 18.0795L12.3344 18.0814C15.6563 15.4268 20.026 11.2606 22.6461 6.08378Z" fill="#BFDD8F"/>
<path d="M22.5198 5.95412C22.5655 5.99394 22.6077 6.0377 22.6459 6.08488C20.0257 11.2617 15.656 15.4279 12.3342 18.0825L12.3236 18.0806C12.3881 17.6905 12.4082 17.2944 12.3836 16.8999C15.1084 14.6276 18.6061 11.1297 22.2582 5.94557C22.3454 5.94072 22.433 5.94358 22.5198 5.95412Z" fill="#42997F"/>
<path d="M19.0943 7.29381C19.533 6.99163 21.1873 5.99638 22.2592 5.9449C18.6072 11.1291 15.1095 14.627 12.3847 16.8992C12.3664 16.5813 12.3216 16.2656 12.2507 15.9552C12.2432 15.9226 12.2235 15.894 12.1956 15.8755C12.1677 15.8569 12.1338 15.8497 12.1008 15.8553L9.16181 16.2716L11.9712 14.5131C12.0043 14.4937 12.0315 14.4656 12.0498 14.4319C12.0681 14.3982 12.0769 14.3601 12.0752 14.3218C12.0453 13.6647 11.9437 12.9436 11.811 12.2409C11.9621 12.1312 12.1191 12.0213 12.2819 11.911C12.3255 11.8815 12.3778 11.8674 12.4303 11.871C12.4829 11.8745 12.5327 11.8956 12.5719 11.9307L14.6714 13.6001L13.632 10.9587C13.6077 10.9056 13.6041 10.8453 13.6217 10.7897C13.6393 10.734 13.6769 10.6869 13.7273 10.6574L17.7048 8.34186C17.7482 8.3165 17.7987 8.30575 17.8487 8.31119C17.8987 8.31662 17.9457 8.33796 17.9827 8.37206L19.0888 9.08064L18.9953 7.52452C18.9884 7.48065 18.994 7.43572 19.0115 7.39491C19.0291 7.35409 19.0577 7.31905 19.0943 7.29381Z" fill="#BFDD8F"/>
<path d="M12.3247 18.0799C12.1306 19.2158 11.4691 20.4784 9.62381 21.0727C9.11744 21.231 8.59511 21.3328 8.06634 21.3762C8.40236 17.9658 8.84922 9.13164 5.5813 1.68903C6.24609 1.68165 8.62358 2.0588 10.6474 7.4174C10.6537 7.4341 10.6565 7.45189 10.6557 7.4697C10.6549 7.48751 10.6505 7.50499 10.6428 7.52107C10.6352 7.53715 10.6243 7.55152 10.6109 7.5633C10.5975 7.57509 10.5819 7.58406 10.565 7.58967L8.31579 8.33652L10.7692 8.5693C10.7971 8.56921 10.8243 8.578 10.8469 8.5944C10.8695 8.6108 10.8862 8.63396 10.8948 8.66052C11.0183 9.04561 11.5003 10.5929 11.811 12.2409C11.9437 12.9436 12.0453 13.6647 12.0752 14.3218C12.0769 14.3601 12.0681 14.3982 12.0498 14.4319C12.0315 14.4656 12.0043 14.4937 11.9712 14.5131L9.16181 16.2716L12.1008 15.8553C12.1338 15.8497 12.1677 15.8569 12.1956 15.8755C12.2235 15.894 12.2432 15.9226 12.2507 15.9552C12.3216 16.2656 12.3664 16.5813 12.3847 16.8992C12.4093 17.2938 12.3891 17.6898 12.3247 18.0799Z" fill="#BFDD8F"/>
<path d="M7.89271 22.8185L6.8135 22.9978C6.8135 22.9978 6.97465 22.4096 7.12964 21.2743C7.53444 18.3078 7.89619 11.604 5.2266 1.90027L5.22671 1.89986C5.27862 1.82957 5.33651 1.7639 5.39973 1.70359C5.45951 1.69378 5.52001 1.68911 5.58058 1.68962C8.8485 9.13222 8.40164 17.9663 8.06563 21.3767C7.97488 22.2937 7.89271 22.8185 7.89271 22.8185Z" fill="#42997F"/>
<path d="M7.12983 21.274C7.12983 21.274 2.80818 20.6606 3.49361 13.3948C3.49835 13.3424 3.52057 13.2931 3.55668 13.2547C3.5928 13.2164 3.64074 13.1913 3.69282 13.1835L6.31618 12.6232L3.61583 11.7473C3.55943 11.7322 3.51063 11.6967 3.47886 11.6478C3.44709 11.5988 3.43461 11.5397 3.44383 11.4821L4.18336 6.9392C4.19153 6.88962 4.21536 6.84396 4.25136 6.80891C4.28737 6.77386 4.33365 6.75126 4.38343 6.74442L5.63344 6.34084L4.37245 5.42384C4.33413 5.40136 4.30298 5.36847 4.2826 5.329C4.26222 5.28953 4.25345 5.24509 4.25731 5.20083C4.30255 4.67013 4.58542 2.76016 5.22679 1.89995C7.89638 11.6037 7.53463 18.3075 7.12983 21.274Z" fill="#BFDD8F"/>
<path d="M4.73294 13.7269C4.73769 13.6745 4.7599 13.6251 4.79602 13.5868C4.83214 13.5485 4.88007 13.5234 4.93215 13.5155L7.25399 13.0197C7.24944 12.9642 7.24513 12.909 7.24038 12.8531L4.85516 12.0794C4.79876 12.0643 4.74996 12.0288 4.7182 11.9798C4.68643 11.9308 4.67395 11.8718 4.68316 11.8142L5.42269 7.27128C5.43086 7.2217 5.45469 7.17604 5.4907 7.14099C5.5267 7.10594 5.57298 7.08334 5.62276 7.0765L6.38799 6.82944C6.34954 6.63242 6.30992 6.43393 6.26914 6.23397L5.61174 5.7559C5.57342 5.73343 5.54227 5.70054 5.52189 5.66107C5.50151 5.6216 5.49274 5.57715 5.4966 5.5329C5.55034 5.00953 5.63981 4.49045 5.76439 3.97929C5.60046 3.30223 5.42126 2.60911 5.22679 1.89995C4.58542 2.76016 4.30255 4.67013 4.25731 5.20083C4.25345 5.24509 4.26222 5.28953 4.2826 5.329C4.30298 5.36847 4.33413 5.40136 4.37245 5.42384L5.63344 6.34084L4.38343 6.74442C4.33365 6.75126 4.28737 6.77386 4.25136 6.80891C4.21536 6.84396 4.19153 6.88962 4.18336 6.9392L3.44383 11.4821C3.43461 11.5397 3.44709 11.5988 3.47886 11.6478C3.51063 11.6967 3.55943 11.7322 3.61583 11.7473L6.31618 12.6232L3.69282 13.1835C3.64074 13.1913 3.5928 13.2164 3.55668 13.2547C3.52057 13.2931 3.49835 13.3424 3.49361 13.3948C2.80818 20.6606 7.12983 21.274 7.12983 21.274C7.13755 21.2172 7.14508 21.1605 7.15241 21.1038C5.93164 20.3319 4.29087 18.4132 4.73294 13.7269Z" fill="#BFDD8F"/>
</g>
<mask id="mask1_2645_7590" style="mask-type:alpha" maskUnits="userSpaceOnUse" x="3" y="1" width="22" height="13">
<rect x="3.19507" y="1.31055" width="21.1848" height="12.5225" fill="#D9D9D9"/>
</mask>
<g mask="url(#mask1_2645_7590)">
<path d="M22.6461 6.0828C23.0742 6.592 24.2933 8.66802 21.4416 13.6349C21.4327 13.6503 21.4208 13.6638 21.4066 13.6745C21.3923 13.6852 21.3761 13.6929 21.3589 13.6972C21.3416 13.7015 21.3236 13.7023 21.3061 13.6995C21.2885 13.6967 21.2717 13.6904 21.2566 13.681L19.2505 12.4182L20.63 14.4611C20.6478 14.4826 20.6582 14.5091 20.6598 14.5369C20.6614 14.5648 20.6542 14.5924 20.6391 14.6158C20.327 15.1011 18.6518 17.6519 17.0183 19.1247C16.9897 19.1503 16.9547 19.1676 16.9171 19.1749C16.8794 19.1822 16.8405 19.1792 16.8044 19.1661L13.6616 18.1142L15.8505 20.1188C15.8757 20.1408 15.8917 20.1716 15.8951 20.2049C15.8985 20.2382 15.8891 20.2715 15.8688 20.2982C15.4239 20.8798 12.9058 23.7241 9.62282 21.0717L9.62293 21.0713C11.4682 20.477 12.1297 19.2144 12.3238 18.0785L12.3344 18.0804C15.6563 15.4258 20.026 11.2597 22.6461 6.0828Z" fill="#BFDD8F"/>
<path d="M22.5198 5.95315C22.5655 5.99297 22.6077 6.03672 22.6459 6.0839C20.0257 11.2607 15.656 15.4269 12.3342 18.0815L12.3236 18.0796C12.3881 17.6895 12.4082 17.2934 12.3836 16.8989C15.1084 14.6267 18.6061 11.1288 22.2582 5.9446C22.3454 5.93974 22.433 5.9426 22.5198 5.95315Z" fill="#6DA316"/>
<path d="M19.0943 7.29283C19.533 6.99065 21.1873 5.9954 22.2592 5.94393C18.6072 11.1281 15.1095 14.626 12.3847 16.8982C12.3664 16.5804 12.3216 16.2646 12.2507 15.9542C12.2432 15.9216 12.2235 15.8931 12.1956 15.8745C12.1677 15.8559 12.1338 15.8487 12.1008 15.8543L9.16181 16.2706L11.9712 14.5121C12.0043 14.4927 12.0315 14.4646 12.0498 14.4309C12.0681 14.3972 12.0769 14.3591 12.0752 14.3208C12.0453 13.6637 11.9437 12.9427 11.811 12.2399C11.9621 12.1303 12.1191 12.0203 12.2819 11.91C12.3255 11.8805 12.3778 11.8664 12.4303 11.87C12.4829 11.8736 12.5327 11.8946 12.5719 11.9297L14.6714 13.5992L13.632 10.9577C13.6077 10.9046 13.6041 10.8444 13.6217 10.7887C13.6393 10.7331 13.6769 10.6859 13.7273 10.6565L17.7048 8.34088C17.7482 8.31553 17.7987 8.30478 17.8487 8.31021C17.8987 8.31565 17.9457 8.33698 17.9827 8.37108L19.0888 9.07966L18.9953 7.52355C18.9884 7.47967 18.994 7.43474 19.0115 7.39393C19.0291 7.35312 19.0577 7.31808 19.0943 7.29283Z" fill="#BFDD8F"/>
<path d="M12.3247 18.0789C12.1306 19.2148 11.4691 20.4774 9.62381 21.0717C9.11744 21.23 8.59511 21.3318 8.06634 21.3752C8.40236 17.9648 8.84922 9.13066 5.5813 1.68806C6.24609 1.68067 8.62358 2.05782 10.6474 7.41642C10.6537 7.43312 10.6565 7.45091 10.6557 7.46872C10.6549 7.48654 10.6505 7.50401 10.6428 7.52009C10.6352 7.53618 10.6243 7.55054 10.6109 7.56233C10.5975 7.57412 10.5819 7.58308 10.565 7.58869L8.31579 8.33554L10.7692 8.56832C10.7971 8.56823 10.8243 8.57703 10.8469 8.59343C10.8695 8.60982 10.8862 8.63298 10.8948 8.65955C11.0183 9.04463 11.5003 10.5919 11.811 12.2399C11.9437 12.9427 12.0453 13.6637 12.0752 14.3208C12.0769 14.3591 12.0681 14.3972 12.0498 14.4309C12.0315 14.4646 12.0043 14.4927 11.9712 14.5121L9.16181 16.2706L12.1008 15.8543C12.1338 15.8487 12.1677 15.8559 12.1956 15.8745C12.2235 15.8931 12.2432 15.9216 12.2507 15.9542C12.3216 16.2646 12.3664 16.5804 12.3847 16.8982C12.4093 17.2928 12.3891 17.6889 12.3247 18.0789Z" fill="#BFDD8F"/>
<path d="M7.89271 22.8175L6.8135 22.9968C6.8135 22.9968 6.97465 22.4086 7.12964 21.2733C7.53444 18.3068 7.89619 11.603 5.2266 1.8993L5.22671 1.89888C5.27862 1.82859 5.33651 1.76292 5.39973 1.70261C5.45951 1.69281 5.52001 1.68813 5.58058 1.68864C8.8485 9.13124 8.40164 17.9654 8.06563 21.3758C7.97488 22.2928 7.89271 22.8175 7.89271 22.8175Z" fill="#6DA316"/>
<path d="M7.12983 21.273C7.12983 21.273 2.80818 20.6596 3.49361 13.3939C3.49835 13.3414 3.52057 13.2921 3.55668 13.2538C3.5928 13.2154 3.64074 13.1903 3.69282 13.1825L6.31618 12.6222L3.61583 11.7464C3.55943 11.7313 3.51063 11.6958 3.47886 11.6468C3.44709 11.5978 3.43461 11.5388 3.44383 11.4811L4.18336 6.93823C4.19153 6.88865 4.21536 6.84299 4.25136 6.80794C4.28737 6.77289 4.33365 6.75029 4.38343 6.74345L5.63344 6.33987L4.37245 5.42286C4.33413 5.40038 4.30298 5.3675 4.2826 5.32802C4.26222 5.28855 4.25345 5.24411 4.25731 5.19985C4.30255 4.66916 4.58542 2.75919 5.22679 1.89898C7.89638 11.6027 7.53463 18.3065 7.12983 21.273Z" fill="#BFDD8F"/>
<path d="M4.73294 13.7259C4.73769 13.6735 4.7599 13.6242 4.79602 13.5858C4.83214 13.5475 4.88007 13.5224 4.93215 13.5146L7.25399 13.0187C7.24944 12.9632 7.24513 12.9081 7.24038 12.8521L4.85516 12.0784C4.79876 12.0633 4.74996 12.0279 4.7182 11.9789C4.68643 11.9299 4.67395 11.8708 4.68316 11.8132L5.42269 7.2703C5.43086 7.22073 5.45469 7.17507 5.4907 7.14002C5.5267 7.10497 5.57298 7.08236 5.62276 7.07553L6.38799 6.82847C6.34954 6.63144 6.30992 6.43295 6.26914 6.23299L5.61174 5.75493C5.57342 5.73245 5.54227 5.69957 5.52189 5.66009C5.50151 5.62062 5.49274 5.57618 5.4966 5.53192C5.55034 5.00855 5.63981 4.48947 5.76439 3.97832C5.60046 3.30125 5.42126 2.60814 5.22679 1.89898C4.58542 2.75919 4.30255 4.66916 4.25731 5.19985C4.25345 5.24411 4.26222 5.28855 4.2826 5.32802C4.30298 5.3675 4.33413 5.40038 4.37245 5.42286L5.63344 6.33987L4.38343 6.74345C4.33365 6.75029 4.28737 6.77289 4.25136 6.80794C4.21536 6.84299 4.19153 6.88865 4.18336 6.93823L3.44383 11.4811C3.43461 11.5388 3.44709 11.5978 3.47886 11.6468C3.51063 11.6958 3.55943 11.7313 3.61583 11.7464L6.31618 12.6222L3.69282 13.1825C3.64074 13.1903 3.5928 13.2154 3.55668 13.2538C3.52057 13.2921 3.49835 13.3414 3.49361 13.3939C2.80818 20.6596 7.12983 21.273 7.12983 21.273C7.13755 21.2163 7.14508 21.1595 7.15241 21.1028C5.93164 20.331 4.29087 18.4122 4.73294 13.7259Z" fill="#BFDD8F"/>
</g>
<mask id="mask2_2645_7590" style="mask-type:alpha" maskUnits="userSpaceOnUse" x="3" y="3" width="18" height="18">
<circle cx="12.0042" cy="11.9995" r="8.80908" fill="white"/>
</mask>
<g mask="url(#mask2_2645_7590)">
<path d="M18.0459 21.8363L19.547 19.4291C18.6405 19.1193 18.2369 17.7191 16.9038 16.6399C16.7942 16.5513 16.6782 16.465 16.5553 16.3814C16.5353 16.34 16.5182 16.3049 16.5043 16.2771C16.4776 16.2229 16.4628 16.1948 16.4628 16.1948H16.2604C15.9083 15.9887 15.5036 15.8071 15.0318 15.6641L15.1986 16.1948H8.81078L8.97756 15.6641C8.50577 15.8071 8.10106 15.9887 7.74898 16.1948H7.66486C7.66486 16.1948 7.65188 16.22 7.62817 16.2678C7.43915 16.3856 7.26571 16.5105 7.10561 16.6399C5.77252 17.7191 5.37986 19.1534 4.46241 19.4291C4.40969 19.4449 6.06716 21.7576 6.06716 21.7576L9.28322 23.8487L15.0925 23.8645L18.0459 21.8363Z" fill="#6DA316"/>
<ellipse cx="12.003" cy="17.4666" rx="3.76225" ry="2.39436" fill="#BFDD8F"/>
<ellipse cx="12.0033" cy="17.4662" rx="2.95445" ry="1.88026" fill="#A18367"/>
</g>
<path d="M12.0062 18.0615C11.9897 18.0615 11.9698 18.0615 11.9532 18.0548C9.82693 17.9819 6.8892 17.6071 5.6737 15.2554C4.4284 12.8474 5.98172 10.1408 6.16388 9.83896C7.77019 7.16556 10.8106 6.76422 11.7512 6.70452C12.195 6.53204 12.4931 6.35625 12.7713 6.10417C13.0197 5.87862 13.225 5.61327 13.3873 5.31475C13.4105 5.27163 13.4502 5.24178 13.4966 5.23183C13.5099 5.23183 13.5198 5.22852 13.533 5.22852C13.5695 5.22852 13.6026 5.23847 13.6324 5.26168C13.7384 5.34129 14.0861 5.64312 14.1458 6.16387C14.1689 6.3662 14.1391 6.54863 14.0928 6.7012C14.2219 6.63155 14.3511 6.55194 14.4737 6.47234C14.785 6.27001 15.0764 6.03451 15.3447 5.77248C15.3745 5.74263 15.4176 5.72605 15.4606 5.72605C15.4739 5.72605 15.4871 5.72605 15.4971 5.72936C15.5534 5.74263 15.5964 5.78243 15.6163 5.8355C15.7388 6.18046 15.7885 6.55194 15.7587 6.9168C15.7388 7.17552 15.6792 7.43091 15.5832 7.67305C16.5403 8.20706 17.3021 8.94009 17.8486 9.84559C18.0307 10.1474 19.584 12.854 18.3387 15.262C16.9742 17.9056 13.3641 18.0183 12.0062 18.0615Z" fill="#DCAE88"/>
<path d="M16.7801 15.1693C15.8495 16.4695 13.9318 17.0068 12.0043 17.0168C10.345 17.0068 8.69228 16.6088 7.66887 15.6668C7.50327 15.5175 7.35755 15.3517 7.22838 15.1693C6.74152 14.4926 6.44675 13.4909 6.60904 12.5158C6.64547 12.2902 6.7084 12.068 6.79782 11.8491C7.25487 10.7346 8.3942 9.85896 9.71237 9.79925C10.8649 9.74618 11.6996 10.3366 12.001 10.5854C12.3023 10.3366 13.137 9.7495 14.2895 9.79925C15.6077 9.85896 16.747 10.7346 17.2041 11.8491C17.6843 13.0166 17.3697 14.3367 16.7735 15.1693H16.7801Z" fill="#FDFBFD"/>
<path d="M12.9546 14.413C12.9446 14.5324 12.673 14.7579 12.3087 14.8475C12.1994 14.874 12.1001 14.884 12.0073 14.8873C11.9146 14.8873 11.8152 14.874 11.7059 14.8475C11.3383 14.7579 11.07 14.5324 11.0601 14.413C11.0601 14.3964 11.0535 14.3433 11.0866 14.3168C11.1131 14.2936 11.1495 14.2969 11.1727 14.3002C11.2919 14.3135 11.388 14.3632 11.4079 14.3699C11.4079 14.3699 11.441 14.3864 11.6761 14.4627C11.7192 14.476 11.8484 14.5158 12.0073 14.5158C12.1663 14.5158 12.2955 14.476 12.3385 14.4627C12.5737 14.3864 12.6068 14.3699 12.6068 14.3699C12.6267 14.3599 12.7227 14.3135 12.842 14.3002C12.8685 14.3002 12.9049 14.2936 12.9281 14.3168C12.9579 14.3466 12.9546 14.3964 12.9546 14.413Z" fill="#4E3823"/>
<path d="M12.7295 13.4847C12.5506 13.7899 12.1267 13.833 12.0042 13.833C11.8717 13.833 11.4577 13.7866 11.2788 13.4847C11.249 13.4317 11.1662 13.2924 11.2192 13.1597C11.3186 12.9142 11.7988 12.891 12.0042 12.8877C12.2095 12.891 12.6897 12.9142 12.7891 13.1597C12.8421 13.2924 12.7593 13.435 12.7295 13.4847Z" fill="#4E3823"/>
<path d="M13.0771 12.9501C13.0837 13.3382 13.2857 13.6168 13.3751 13.7362C13.6368 14.0911 13.8984 14.1475 14.9616 14.6749C15.7664 15.0729 15.8956 15.179 15.9784 15.2487C16.1506 15.4013 16.2632 15.5406 16.3427 15.6633C16.5083 15.514 16.654 15.3482 16.7832 15.1658C17.27 14.4891 17.5648 13.4874 17.4025 12.5123C17.174 12.2469 16.866 11.965 16.4487 11.756C15.6174 11.3414 14.3356 11.1888 13.597 11.8655C13.5176 11.9384 13.0671 12.3531 13.0771 12.9435V12.9501Z" fill="#A18367"/>
<path d="M14.9811 13.9449C15.3488 13.9449 15.6468 13.5543 15.6468 13.0725C15.6468 12.5908 15.3488 12.2002 14.9811 12.2002C14.6135 12.2002 14.3154 12.5908 14.3154 13.0725C14.3154 13.5543 14.6135 13.9449 14.9811 13.9449Z" fill="#4E3823"/>
<path d="M10.9345 12.9501C10.9279 13.3382 10.7258 13.6168 10.6364 13.7362C10.3748 14.0911 10.1131 14.1475 9.04997 14.6749C8.24516 15.0729 8.11599 15.179 8.03319 15.2487C7.86097 15.4012 7.74836 15.5406 7.66887 15.6633C7.50327 15.514 7.35755 15.3482 7.22838 15.1658C6.74152 14.4891 6.44675 13.4874 6.60904 12.5123C6.83756 12.2469 7.14558 11.965 7.56289 11.756C8.3942 11.3414 9.67594 11.1888 10.4145 11.8655C10.494 11.9384 10.9444 12.3531 10.9345 12.9435V12.9501Z" fill="#A18367"/>
<path d="M9.02972 13.9458C9.39738 13.9458 9.69543 13.5553 9.69543 13.0735C9.69543 12.5917 9.39738 12.2012 9.02972 12.2012C8.66206 12.2012 8.36401 12.5917 8.36401 13.0735C8.36401 13.5553 8.66206 13.9458 9.02972 13.9458Z" fill="#4E3823"/>
<path d="M9.0827 13.0338C9.20699 13.0338 9.30774 12.9016 9.30774 12.7386C9.30774 12.5755 9.20699 12.4434 9.0827 12.4434C8.95842 12.4434 8.85767 12.5755 8.85767 12.7386C8.85767 12.9016 8.95842 13.0338 9.0827 13.0338Z" fill="#FBFDFB"/>
<path d="M14.8786 13.0338C15.0029 13.0338 15.1036 12.9016 15.1036 12.7386C15.1036 12.5755 15.0029 12.4434 14.8786 12.4434C14.7543 12.4434 14.6536 12.5755 14.6536 12.7386C14.6536 12.9016 14.7543 13.0338 14.8786 13.0338Z" fill="#FBFDFB"/>
</svg>
