<svg width="24" height="24" viewBox="0 0 24 24" fill="none" xmlns="http://www.w3.org/2000/svg">
<path d="M10.7129 11.5241C10.7775 11.8835 10.8817 12.7442 10.4839 13.7114C10.1667 14.4828 9.67663 14.9654 9.40179 15.2C9.42422 15.5387 9.41136 15.991 9.27055 16.4965C8.92844 17.7256 8.06325 18.4341 7.71557 18.689C7.41744 18.4145 6.80153 17.7728 6.4895 16.7418C6.2317 15.8903 6.29845 15.1613 6.36294 14.7714C6.29219 14.631 5.59319 13.1894 6.3466 11.9003C6.64682 11.3868 7.06525 11.0895 7.33695 10.933C7.27785 10.7132 6.76416 8.67795 8.01944 7.28971C8.21222 7.07665 8.75581 6.47545 9.67907 6.33798C10.7541 6.17814 11.5631 6.7634 11.7335 6.89255C11.5511 7.13438 11.0493 7.86525 11.043 8.91857C11.0378 9.78656 11.3721 10.4223 11.5351 10.692C11.4825 10.7991 11.4075 10.9259 11.3004 11.055C11.0958 11.3017 10.8674 11.4449 10.7129 11.5241Z" fill="#6DA316"/>
<path d="M17.0356 13.545C17.0191 14.5742 16.5866 15.3105 16.3901 15.6054C16.59 16.2158 16.6232 16.7412 16.5973 17.154C16.4049 20.2187 12.6514 21.8861 12.3851 22.0002C12.007 21.4451 11.515 20.5762 11.2292 19.4222C10.8045 17.7072 11.0582 16.2652 11.2461 15.5201C11.0888 15.2132 10.9452 14.8388 10.8694 14.4018C10.5598 12.6165 11.6235 11.1713 11.9171 10.7972C11.7499 10.5498 11.223 9.70327 11.362 8.58547C11.3742 8.48874 11.6263 6.69189 13.0837 6.17997C14.3571 5.73254 15.7401 6.55044 16.3865 7.57428C17.0618 8.64406 17.0104 10.0616 16.2578 11.1747C16.4593 11.4426 17.0556 12.3057 17.0356 13.545Z" fill="#6DA316"/>
<path d="M12.3873 5.07211C12.5408 5.39386 12.5594 5.70799 12.5509 5.92312C12.5024 5.88932 12.4263 5.83956 12.3277 5.79033C11.8676 5.56081 11.4476 5.60571 11.2484 5.60189C10.4852 5.58785 9.70625 4.80081 9.39526 4.06751C9.15032 3.48954 9.19308 2.93809 9.25514 2.60352C9.29773 2.67927 9.36553 2.79022 9.46305 2.91313C9.8514 3.40304 10.2664 3.52283 10.8574 3.83521C11.5557 4.20429 12.1137 4.49917 12.3873 5.07211Z" fill="#588D00"/>
<path d="M14.1145 4.39147C13.9682 4.78291 13.6852 5.35291 13.0811 5.96191C12.1603 4.13213 12.2856 2.14477 13.3756 0.975825C13.931 0.380345 14.6223 0.119789 15.1237 0C15.0416 0.165382 14.9133 0.439979 14.7894 0.791026C14.2354 2.35834 14.5573 3.20745 14.1145 4.39147Z" fill="#588D00"/>
<path d="M17.8516 5.98474C17.2082 6.51695 16.226 6.31776 15.2767 6.12516C14.7275 6.01386 14.2841 5.849 13.9717 5.71274C14.0848 5.52951 14.2691 5.2953 14.561 5.14067C14.8638 4.98031 15.0359 5.03596 15.9682 4.91582C16.4715 4.85099 16.72 4.79898 16.9068 4.69514C17.3417 4.45331 17.4516 4.12428 17.9739 3.91868C18.1453 3.85107 18.2964 3.82229 18.3976 3.80859C18.4261 3.97172 18.6448 5.32841 17.8516 5.98474Z" fill="#588D00"/>
</svg>
