<svg width="24" height="24" viewBox="0 0 24 24" fill="none" xmlns="http://www.w3.org/2000/svg">
<circle cx="12" cy="12" r="12" fill="#F5F5F5"/>
<path d="M10.7642 12.4287C10.8171 12.7228 10.9023 13.427 10.5769 14.2183C10.3173 14.8495 9.91636 15.2443 9.69149 15.4363C9.70984 15.7134 9.69931 16.0835 9.58411 16.4971C9.3042 17.5027 8.59631 18.0824 8.31185 18.2909C8.06793 18.0663 7.564 17.5413 7.3087 16.6978C7.09777 16.001 7.15239 15.4046 7.20516 15.0856C7.14727 14.9707 6.57536 13.7912 7.19179 12.7365C7.43742 12.3164 7.77977 12.0731 8.00207 11.9451C7.95372 11.7652 7.53342 10.1001 8.56047 8.96422C8.71821 8.7899 9.16296 8.29801 9.91835 8.18553C10.7979 8.05476 11.4598 8.5336 11.5992 8.63927C11.45 8.83713 11.0394 9.43512 11.0343 10.2969C11.03 11.0071 11.3035 11.5272 11.4369 11.7479C11.3938 11.8356 11.3325 11.9393 11.2449 12.0449C11.0775 12.2468 10.8906 12.3639 10.7642 12.4287Z" fill="#6DA316"/>
<path d="M15.9375 14.0821C15.924 14.9242 15.5701 15.5265 15.4094 15.7678C15.573 16.2672 15.6001 16.6971 15.5789 17.0348C15.4215 19.5424 12.3504 20.9066 12.1325 20.9999C11.8232 20.5457 11.4207 19.8349 11.1868 18.8906C10.8394 17.4874 11.0469 16.3076 11.2006 15.698C11.0719 15.447 10.9544 15.1406 10.8924 14.783C10.6391 13.3224 11.5094 12.1399 11.7497 11.8338C11.6128 11.6314 11.1817 10.9388 11.2955 10.0243C11.3055 9.94511 11.5117 8.47496 12.7042 8.05612C13.746 7.69004 14.8776 8.35923 15.4064 9.19692C15.959 10.0722 15.9169 11.232 15.3011 12.1427C15.466 12.3619 15.9538 13.0681 15.9375 14.0821Z" fill="#6DA316"/>
<path d="M12.1343 7.14989C12.2599 7.41314 12.2751 7.67015 12.2681 7.84617C12.2285 7.81851 12.1662 7.7778 12.0855 7.73752C11.709 7.54973 11.3654 7.58646 11.2024 7.58334C10.578 7.57186 9.94068 6.92791 9.68623 6.32794C9.48583 5.85506 9.52081 5.40387 9.57159 5.13013C9.60644 5.19211 9.66191 5.28289 9.7417 5.38345C10.0594 5.78428 10.3989 5.88229 10.8825 6.13788C11.4539 6.43985 11.9104 6.68112 12.1343 7.14989Z" fill="#588D00"/>
<path d="M13.547 6.59302C13.4272 6.91329 13.1957 7.37965 12.7014 7.87793C11.948 6.38083 12.0506 4.75481 12.9424 3.7984C13.3968 3.31119 13.9624 3.09801 14.3726 3C14.3055 3.13531 14.2005 3.35998 14.0991 3.6472C13.6458 4.92955 13.9093 5.62427 13.547 6.59302Z" fill="#588D00"/>
<path d="M16.6041 7.89669C16.0777 8.33213 15.2741 8.16916 14.4974 8.01158C14.0481 7.92052 13.6853 7.78564 13.4297 7.67415C13.5223 7.52423 13.673 7.33261 13.9118 7.20609C14.1596 7.07489 14.3004 7.12042 15.0632 7.02213C15.475 6.96908 15.6784 6.92653 15.8311 6.84157C16.187 6.6437 16.2769 6.3745 16.7043 6.20628C16.8445 6.15096 16.9681 6.12742 17.0509 6.11621C17.0742 6.24968 17.2531 7.3597 16.6041 7.89669Z" fill="#588D00"/>
</svg>
