<svg width="24" height="25" viewBox="0 0 24 25" fill="none" xmlns="http://www.w3.org/2000/svg">
<g id="Icon=TON, Type=Network">
<g clip-path="url(#clip0_1847_119321)">
<g id="Group 48096211">
<path id="Vector" d="M12 25C18.6274 25 24 19.6274 24 13C24 6.37258 18.6274 1 12 1C5.37258 1 0 6.37258 0 13C0 19.6274 5.37258 25 12 25Z" fill="#0088CC"/>
<path id="Vector_2" fill-rule="evenodd" clip-rule="evenodd" d="M8.65703 8.92847H15.3856C15.6427 8.92847 15.857 8.97132 16.1142 9.0999C16.4142 9.22847 16.5856 9.44275 16.6713 9.61418C16.6713 9.61418 16.6713 9.65704 16.7142 9.65704C16.8427 9.87132 16.9285 10.1285 16.9285 10.4285C16.9285 10.6856 16.8856 10.9428 16.7142 11.1999L12.4713 18.4856C12.3856 18.657 12.2142 18.7428 11.9999 18.7428C11.8285 18.7428 11.657 18.657 11.5285 18.4856L7.37132 11.1999C7.2856 11.0285 7.11418 10.8142 7.11418 10.4713C7.07132 10.1713 7.15703 9.91418 7.2856 9.65704C7.41418 9.3999 7.62846 9.18561 7.92846 9.0999C8.1856 8.92847 8.4856 8.92847 8.65703 8.92847ZM11.4856 9.95704H8.65703C8.4856 9.95704 8.39989 9.95704 8.35703 9.9999C8.27132 10.0428 8.22846 10.0856 8.1856 10.1713C8.14275 10.2142 8.14275 10.2999 8.14275 10.3856C8.14275 10.4285 8.1856 10.4713 8.27132 10.6428L11.4856 16.2142V9.95704ZM12.5142 9.95704V16.257L15.7713 10.6428C15.8142 10.557 15.8142 10.4713 15.8142 10.3856C15.8142 10.2999 15.8142 10.2142 15.7713 10.1713C15.7285 10.1285 15.7285 10.0856 15.6856 10.0856L15.6427 10.0428C15.557 9.9999 15.4713 9.9999 15.3427 9.9999H12.5142V9.95704Z" fill="white"/>
</g>
</g>
</g>
<defs>
<clipPath id="clip0_1847_119321">
<rect y="0.975098" width="24" height="24" rx="12" fill="white"/>
</clipPath>
</defs>
</svg>
