<svg width="25" height="24" viewBox="0 0 25 24" fill="none" xmlns="http://www.w3.org/2000/svg">
<g clip-path="url(#clip0_1847_119156)">
<circle cx="12.916" cy="12" r="12" fill="#F5F5F5"/>
<path fill-rule="evenodd" clip-rule="evenodd" d="M14.556 3.67928C13.6503 2.77357 12.1818 2.77357 11.276 3.67928L6.8834 8.07192L10.4134 11.602L12.8093 9.20611L15.2052 11.602L18.8419 7.96519L14.556 3.67928ZM20.7965 9.91972L15.2052 15.511L12.8093 13.1152L10.4134 15.511L4.92887 10.0265L4.59535 10.36C3.68957 11.2658 3.68957 12.7342 4.59535 13.64L11.276 20.3207C12.1818 21.2264 13.6503 21.2264 14.556 20.3207L21.2367 13.64C22.1425 12.7342 22.1425 11.2658 21.2367 10.36L20.7965 9.91972ZM12.916 16.982C13.2673 16.982 13.5521 16.6972 13.5521 16.346C13.5521 15.9947 13.2673 15.7099 12.916 15.7099C12.5647 15.7099 12.28 15.9947 12.28 16.346C12.28 16.6972 12.5647 16.982 12.916 16.982ZM13.5521 18.8473C13.5521 19.1986 13.2673 19.4834 12.916 19.4834C12.5647 19.4834 12.28 19.1986 12.28 18.8473C12.28 18.4961 12.5647 18.2113 12.916 18.2113C13.2673 18.2113 13.5521 18.4961 13.5521 18.8473Z" fill="#3A0E63"/>
</g>
<defs>
<clipPath id="clip0_1847_119156">
<rect x="0.916016" width="24" height="24" rx="12" fill="white"/>
</clipPath>
</defs>
</svg>
