<svg width="25" height="25" viewBox="0 0 25 25" fill="none" xmlns="http://www.w3.org/2000/svg">
<g clip-path="url(#clip0_1847_119431)">
<path d="M12 25C18.6274 25 24 19.6274 24 13C24 6.37258 18.6274 1 12 1C5.37258 1 0 6.37258 0 13C0 19.6274 5.37258 25 12 25Z" fill="url(#paint0_linear_1847_119431)"/>
<path d="M15.9221 21.3099V7.15474C15.9217 6.74686 15.7595 6.35579 15.4711 6.06737C15.1827 5.77895 14.7916 5.61674 14.3837 5.61634H13.3037V21.3099H10.697V7.15474C10.6965 6.74688 10.5343 6.35586 10.2459 6.06746C9.95751 5.77905 9.56649 5.61682 9.15862 5.61634H8.07862V21.3099H5.47192V4.68994H15.5819C16.3629 4.6909 17.1117 5.00159 17.6639 5.55388C18.2161 6.10616 18.5268 6.85493 18.5276 7.63594V21.3099H15.9221Z" fill="url(#paint1_linear_1847_119431)"/>
<path d="M15.5821 4.7801C15.9572 4.7801 16.3285 4.85397 16.675 4.9975C17.0215 5.14103 17.3363 5.35141 17.6015 5.61662C17.8667 5.88183 18.0771 6.19667 18.2205 6.54318C18.364 6.88968 18.4379 7.26106 18.4378 7.6361V21.2201H16.012V7.1549C16.012 6.72302 15.8405 6.30883 15.5351 6.00344C15.2297 5.69806 14.8155 5.5265 14.3836 5.5265H13.2136V21.2201H10.7869V7.1549C10.7869 6.72302 10.6154 6.30883 10.31 6.00344C10.0046 5.69806 9.59042 5.5265 9.15854 5.5265H7.98854V21.2201H5.56184V4.7801H15.5821ZM15.5818 4.6001H5.38184V21.4001H8.16764V5.7065H9.15764C9.54163 5.70697 9.90976 5.85973 10.1813 6.13125C10.4528 6.40277 10.6056 6.7709 10.606 7.1549V21.4001H13.3918V5.7065H14.3818C14.7658 5.70697 15.134 5.85973 15.4055 6.13125C15.677 6.40277 15.8298 6.7709 15.8302 7.1549V21.4001H18.6178V7.6361C18.617 6.83122 18.2969 6.05955 17.7278 5.49039C17.1586 4.92123 16.3867 4.60105 15.5818 4.6001Z" fill="white"/>
<path d="M18.1363 6.04697C17.4109 6.18137 16.1326 6.68207 14.4184 8.18837C13.8118 8.72178 13.0317 9.01601 12.2239 9.01607H12.1987C11.7494 9.01583 11.3105 9.15056 10.9387 9.40277L10.7926 9.50177C10.7601 9.52384 10.7325 9.55232 10.7114 9.58546C10.6903 9.61861 10.6763 9.65572 10.6701 9.6945C10.6639 9.73329 10.6657 9.77293 10.6755 9.81099C10.6852 9.84904 10.7026 9.8847 10.7266 9.91577L11.6755 11.1422C11.5992 11.247 11.5521 11.3702 11.539 11.4992C11.6092 11.6248 11.6848 11.746 11.7658 11.8628L11.7301 11.9009C11.6984 11.9325 11.678 11.9736 11.6717 12.018C11.6655 12.0623 11.6739 12.1074 11.6956 12.1466C11.4856 12.8015 11.0296 13.3199 10.5412 13.8086C7.6939 16.6556 4.6012 18.3275 1.7854 19.2986C2.73614 20.8369 4.02062 22.1418 5.5438 23.1167C6.5038 20.1395 8.1325 16.9025 10.8838 14.1518C11.3701 13.6652 11.8855 13.2098 12.5362 12.9998L12.5614 13.025C12.6001 13.0636 12.6526 13.0853 12.7073 13.0853C12.7621 13.0853 12.8146 13.0636 12.8533 13.025L12.8905 12.9878C13.0078 13.0685 13.129 13.1447 13.255 13.2152C13.3851 13.2022 13.5094 13.1546 13.615 13.0775L14.8429 14.0246C14.8738 14.0485 14.9093 14.0658 14.9472 14.0755C14.985 14.0852 15.0245 14.0871 15.0631 14.081C15.1017 14.0749 15.1387 14.0611 15.1717 14.0402C15.2048 14.0194 15.2333 13.992 15.2554 13.9598L15.3523 13.8164C15.604 13.445 15.7384 13.0066 15.7381 12.5579V12.5315C15.7382 11.7237 16.0324 10.9436 16.5658 10.337C18.0721 8.62277 18.5728 7.34447 18.7069 6.61907C18.7218 6.54085 18.7174 6.46016 18.694 6.38403C18.6706 6.30791 18.629 6.23864 18.5728 6.18226C18.5165 6.12587 18.4474 6.08407 18.3713 6.0605C18.2952 6.03692 18.2146 6.03228 18.1363 6.04697Z" fill="white"/>
<path opacity="0.27" d="M12.5365 12.9998L12.5614 13.025C12.6002 13.0636 12.6526 13.0853 12.7074 13.0853C12.7621 13.0853 12.8146 13.0636 12.8533 13.025L12.8905 12.9878C13.0078 13.0685 13.129 13.1447 13.255 13.2152C13.3851 13.2022 13.5094 13.1547 13.615 13.0775L14.8429 14.0246C14.8739 14.0485 14.9093 14.0658 14.9472 14.0755C14.9851 14.0852 15.0245 14.0871 15.0631 14.081C15.1017 14.0749 15.1387 14.061 15.1718 14.0402C15.2048 14.0194 15.2333 13.992 15.2554 13.9598L15.3526 13.8164C15.6041 13.4449 15.7384 13.0065 15.7381 12.5579V12.5315C15.7382 11.7237 16.0324 10.9436 16.5658 10.337C18.0721 8.62276 18.5728 7.34446 18.7072 6.61906C18.7205 6.54876 18.7181 6.47639 18.7002 6.40712C18.6823 6.33784 18.6494 6.27336 18.6037 6.21826L3.30762 21.2723C3.97625 21.9748 4.72717 22.594 5.54412 23.1167C6.50412 20.1395 8.13252 16.9025 10.8841 14.1518C11.3701 13.6652 11.8855 13.2098 12.5365 12.9998Z" fill="url(#paint2_linear_1847_119431)"/>
</g>
<defs>
<linearGradient id="paint0_linear_1847_119431" x1="0" y1="13" x2="24" y2="13" gradientUnits="userSpaceOnUse">
<stop stop-color="#F5AF19"/>
<stop offset="1" stop-color="#F12711"/>
</linearGradient>
<linearGradient id="paint1_linear_1847_119431" x1="11.9999" y1="21.3099" x2="11.9999" y2="4.68994" gradientUnits="userSpaceOnUse">
<stop stop-color="#F18316"/>
<stop offset="1" stop-color="#F03A12"/>
</linearGradient>
<linearGradient id="paint2_linear_1847_119431" x1="1702.04" y1="7704.62" x2="9615.61" y2="7704.62" gradientUnits="userSpaceOnUse">
<stop stop-color="#F18316"/>
<stop offset="1" stop-color="#F03A12"/>
</linearGradient>
<clipPath id="clip0_1847_119431">
<rect x="0.0371094" y="0.986328" width="24" height="24" rx="12" fill="white"/>
</clipPath>
</defs>
</svg>
