<svg width="24" height="25" viewBox="0 0 24 25" fill="none" xmlns="http://www.w3.org/2000/svg">
<g clip-path="url(#clip0_1847_119374)">
<path d="M12 25.0112C18.6274 25.0112 24 19.6386 24 13.0112C24 6.38381 18.6274 1.01123 12 1.01123C5.37258 1.01123 0 6.38381 0 13.0112C0 19.6386 5.37258 25.0112 12 25.0112Z" fill="#F5F5F5"/>
<path d="M17.4504 13.9745V12.9748H18.4463V7.04562H17.4504V6.0459H5.55371V10.9753H6.55344V13.0478H5.55371V18.977H6.55344V19.9767H18.4463V15.0473H16.4507V13.9745H17.4504Z" fill="white"/>
<path d="M15.4895 7.01099V8.01071V9.01044V10.0102V11.0099V12.0096H16.4892V11.0099V10.0102V9.01044V8.01071V7.01099H15.4895Z" fill="#E4E4E4"/>
<path d="M15.4893 12.0095H14.4934V13.0092H15.4893V12.0095Z" fill="#E4E4E4"/>
<path d="M12.4978 13.0095V14.0092H13.4975H14.4934V13.0095H13.4975H12.4978Z" fill="#E4E4E4"/>
<path d="M12.4981 14.0129H11.5022V15.0127H12.4981V14.0129Z" fill="#E4E4E4"/>
<path d="M15.4896 16.0122V17.0119H14.4937H13.4978H12.4981H11.5022H10.5063H9.50662H8.51074H7.51486H6.51514V18.0116H7.51486H8.51074H9.50662H10.5063H11.5022H12.4981H13.4978H14.4937H15.4896H16.4893V17.0119V16.0122V15.0125H15.4896V16.0122Z" fill="#E4E4E4"/>
<path d="M16.489 8.01074V9.01047V10.0102V11.0099V12.0096H17.4849V11.0099V10.0102V9.01047V8.01074H16.489Z" fill="#129487"/>
<path d="M16.4854 12.0095H15.4895V13.0092H16.4854V12.0095Z" fill="#129487"/>
<path d="M15.4893 13.0095H14.4934V14.0092H15.4893V13.0095Z" fill="#129487"/>
<path d="M13.4937 14.0129H12.4978V15.0127H13.4937V14.0129Z" fill="#129487"/>
<path d="M9.50641 11.0097H10.5061H11.502H12.4979V10.01H11.502H10.5061H9.50641H8.51053H7.51465V11.0097H8.51053H9.50641Z" fill="#129487"/>
<path d="M16.4891 17.0122V18.0119H15.4894H14.4935H13.4976H12.4979H11.502H10.5061H9.50641H8.51053H7.51465V19.0116H8.51053H9.50641H10.5061H11.502H12.4979H13.4976H14.4935H15.4894H16.4891H17.485V18.0119V17.0122V16.0125H16.4891V17.0122Z" fill="#129487"/>
<path d="M17.485 7.01096V6.01123H16.4891H15.4894H14.4935H13.4976H12.4979H11.502H10.5061H9.50641H8.51053H7.51465H6.51492H5.51904V7.01096V8.01068V9.01041V10.0101V11.0099H6.51492V12.0096V13.0093H7.51465V12.0096H8.51053H9.50641V11.0099H8.51053H7.51465V10.0101H6.51492V9.01041V8.01068V7.01096H7.51465H8.51053H9.50641H10.5061H11.502H12.4979H13.4976H14.4935H15.4894H16.4891V8.01068H17.485V9.01041V10.0101V11.0099V12.0096H16.4891V13.0093H15.4894V14.009H14.4935H13.4976V15.0126H14.4935H15.4894H16.4891V14.009H17.485V13.0093H18.4809V12.0096V11.0099V10.0101V9.01041V8.01068V7.01096H17.485Z" fill="black"/>
<path d="M17.485 16.0125V17.0123V18.012V19.0117H16.4891H15.4894H14.4935H13.4976H12.4979H11.502H10.5061H9.50641H8.51053H7.51465V18.012H6.51492V17.0123V16.0125V15.0128V14.0092V13.0095H5.51904V14.0092V15.0128V16.0125V17.0123V18.012V19.0117H6.51492V20.0114H7.51465H8.51053H9.50641H10.5061H11.502H12.4979H13.4976H14.4935H15.4894H16.4891H17.485H18.4809V19.0117V18.012V17.0123V16.0125V15.0128H17.485H16.4891V16.0125H17.485Z" fill="black"/>
</g>
<defs>
<clipPath id="clip0_1847_119374">
<rect y="0.986328" width="24" height="24" rx="12" fill="white"/>
</clipPath>
</defs>
</svg>
