<svg width="60" height="60" viewBox="0 0 60 60" fill="none" xmlns="http://www.w3.org/2000/svg">
<path d="M30 51.6901C29.9331 51.6901 29.8529 51.6901 29.7861 51.6634C21.2021 51.3694 9.34228 49.8597 4.43523 40.3875C-0.592146 30.6881 5.67871 19.7862 6.4141 18.5705C12.8989 7.80227 25.1732 6.18571 28.9705 5.94523C30.7621 5.2505 31.9655 4.54242 33.0886 3.52706C34.0914 2.61857 34.9204 1.54977 35.5756 0.347362C35.6692 0.173681 35.8296 0.0534402 36.0168 0.01336C36.0703 0.01336 36.1104 0 36.1639 0C36.311 0 36.4447 0.0400802 36.565 0.133601C36.9929 0.454242 38.3968 1.67001 38.6375 3.76754C38.7311 4.5825 38.6107 5.3173 38.4235 5.93187C38.945 5.65131 39.4665 5.33066 39.9612 5.01002C41.218 4.19506 42.3946 3.24649 43.4777 2.19105C43.598 2.07081 43.7718 2.00401 43.9456 2.00401C43.9991 2.00401 44.0526 2.00401 44.0927 2.01737C44.32 2.07081 44.4938 2.23113 44.5741 2.44489C45.0688 3.83434 45.2693 5.33066 45.149 6.80027C45.0688 7.84236 44.8281 8.87108 44.4404 9.84636C48.3045 11.9973 51.3797 14.9499 53.5859 18.5972C54.3213 19.813 60.5921 30.7148 55.5648 40.4142C50.056 51.0622 35.482 51.5164 30 51.6901Z" fill="#DCAE88"/>
<path d="M49.2751 40.039C45.5179 45.2761 37.7763 47.4404 29.9946 47.4805C23.2958 47.4404 16.6239 45.8372 12.4923 42.043C11.8238 41.4418 11.2355 40.7738 10.714 40.039C8.74852 37.3135 7.55853 33.2788 8.21369 29.3509C8.36077 28.4424 8.61481 27.5473 8.97582 26.6655C10.821 22.1766 15.4205 18.6495 20.742 18.409C25.395 18.1953 28.7644 20.5734 29.9812 21.5754C31.1979 20.5734 34.5673 18.2086 39.2203 18.409C44.5419 18.6495 49.1414 22.1766 50.9865 26.6655C52.9253 31.3683 51.6551 36.6856 49.2484 40.039H49.2751Z" fill="#FDFBFD"/>
<path d="M33.8323 36.993C33.7922 37.4739 32.6958 38.3824 31.2251 38.7432C30.7838 38.85 30.3827 38.8901 30.0083 38.9035C29.6339 38.9035 29.2328 38.85 28.7916 38.7432C27.3074 38.3824 26.2244 37.4739 26.1843 36.993C26.1843 36.9262 26.1576 36.7124 26.2913 36.6055C26.3982 36.512 26.5453 36.5254 26.6389 36.5387C27.1203 36.5922 27.508 36.7926 27.5882 36.8193C27.5882 36.8193 27.7219 36.8861 28.6713 37.1934C28.8451 37.2468 29.3665 37.4071 30.0083 37.4071C30.6501 37.4071 31.1716 37.2468 31.3454 37.1934C32.2947 36.8861 32.4284 36.8193 32.4284 36.8193C32.5087 36.7792 32.8964 36.5922 33.3777 36.5387C33.4847 36.5387 33.6318 36.512 33.7254 36.6055C33.8457 36.7258 33.8323 36.9262 33.8323 36.993Z" fill="#4E3823"/>
<path d="M32.9223 33.2525C32.2003 34.4816 30.4888 34.6553 29.9941 34.6553C29.4593 34.6553 27.788 34.4682 27.0659 33.2525C26.9456 33.0387 26.6113 32.4776 26.8253 31.9432C27.2264 30.9545 29.1651 30.861 29.9941 30.8477C30.8231 30.861 32.7619 30.9545 33.163 31.9432C33.3769 32.4776 33.0426 33.0521 32.9223 33.2525Z" fill="#4E3823"/>
<path d="M34.3263 31.1004C34.3531 32.6636 35.1687 33.7858 35.5297 34.2668C36.586 35.6963 37.6423 35.9234 41.9343 38.0477C45.1833 39.6509 45.7048 40.0784 46.0391 40.3589C46.7343 40.9735 47.1889 41.5346 47.5098 42.029C48.1784 41.4278 48.7667 40.7597 49.2881 40.0249C51.2536 37.2995 52.4436 33.2648 51.7885 29.3369C50.8659 28.2681 49.6224 27.1325 47.9377 26.2908C44.5817 24.6208 39.4072 24.0062 36.4255 26.7317C36.1046 27.0256 34.2862 28.6956 34.3263 31.0737V31.1004Z" fill="#A18367"/>
<path d="M42.0147 35.1084C43.4989 35.1084 44.7022 33.5353 44.7022 31.5948C44.7022 29.6542 43.4989 28.0811 42.0147 28.0811C40.5304 28.0811 39.3271 29.6542 39.3271 31.5948C39.3271 33.5353 40.5304 35.1084 42.0147 35.1084Z" fill="#4E3823"/>
<path d="M25.6758 31.1004C25.6491 32.6636 24.8335 33.7858 24.4725 34.2668C23.4162 35.6963 22.3599 35.9234 18.0679 38.0477C14.8188 39.6509 14.2974 40.0784 13.9631 40.3589C13.2678 40.9735 12.8132 41.5346 12.4923 42.029C11.8238 41.4278 11.2355 40.7597 10.714 40.0249C8.74852 37.2995 7.55853 33.2648 8.21369 29.3369C9.13627 28.2681 10.3797 27.1325 12.0644 26.2908C15.4205 24.6208 20.595 24.0062 23.5766 26.7317C23.8975 27.0256 25.7159 28.6956 25.6758 31.0737V31.1004Z" fill="#A18367"/>
<path d="M17.9868 35.1104C19.4711 35.1104 20.6743 33.5373 20.6743 31.5967C20.6743 29.6561 19.4711 28.083 17.9868 28.083C16.5026 28.083 15.2993 29.6561 15.2993 31.5967C15.2993 33.5373 16.5026 35.1104 17.9868 35.1104Z" fill="#4E3823"/>
<path d="M18.2 31.4357C18.7017 31.4357 19.1085 30.9034 19.1085 30.2467C19.1085 29.59 18.7017 29.0576 18.2 29.0576C17.6982 29.0576 17.2915 29.59 17.2915 30.2467C17.2915 30.9034 17.6982 31.4357 18.2 31.4357Z" fill="#FBFDFB"/>
<path d="M41.5994 31.4357C42.1011 31.4357 42.5079 30.9034 42.5079 30.2467C42.5079 29.59 42.1011 29.0576 41.5994 29.0576C41.0977 29.0576 40.6909 29.59 40.6909 30.2467C40.6909 30.9034 41.0977 31.4357 41.5994 31.4357Z" fill="#FBFDFB"/>
</svg>
