<svg width="156" height="36" viewBox="0 0 156 36" fill="none" xmlns="http://www.w3.org/2000/svg">
<g clip-path="url(#clip0_153_2865)">
<path fill-rule="evenodd" clip-rule="evenodd" d="M56.9715 6.12127C55.9823 5.79154 54.8784 5.65535 53.6599 5.71269C52.0256 5.78437 50.6565 6.09976 49.5527 6.65886C48.4631 7.20362 47.5887 7.88457 46.9292 8.70172C46.2841 9.51886 45.8325 10.422 45.5745 11.4112C45.3308 12.386 45.2447 13.3394 45.3164 14.2712C45.3738 15.3034 45.6748 16.2424 46.2196 17.0882C46.7787 17.934 47.4596 18.7153 48.2624 19.4321C49.0796 20.1489 49.9541 20.8298 50.8859 21.4749C51.8321 22.1057 52.7137 22.7222 53.5309 23.3243C54.348 23.9264 55.0433 24.5356 55.6167 25.1521C56.1902 25.7542 56.5127 26.3921 56.5844 27.0659C56.6847 28.0121 56.6059 28.7719 56.3479 29.3453C56.0898 29.9187 55.7601 30.3703 55.3587 30.7001C54.9716 31.0154 54.563 31.2305 54.133 31.3452C53.7029 31.4599 53.3732 31.5244 53.1438 31.5387C52.4557 31.5817 51.7962 31.4742 51.1654 31.2161C50.549 30.9724 49.9971 30.6857 49.5097 30.356C48.9362 29.9833 48.413 29.546 47.9399 29.0443L47.5528 30.4205C47.8825 30.8506 48.3054 31.2376 48.8215 31.5817C49.2516 31.8684 49.8035 32.1336 50.4773 32.3773C51.1654 32.6211 51.9826 32.7286 52.9288 32.6999C53.6455 32.6856 54.3552 32.5709 55.0576 32.3558C55.7744 32.1408 56.4052 31.7967 56.95 31.3237C57.5091 30.8649 57.9391 30.27 58.2402 29.5389C58.5412 28.7934 58.6416 27.8831 58.5412 26.8079C58.4409 25.7614 58.1255 24.8654 57.5951 24.1199C57.0646 23.3601 56.4267 22.6792 55.6812 22.077C54.9358 21.4606 54.133 20.8943 53.2728 20.3783C52.427 19.8478 51.617 19.2959 50.8429 18.7225C50.0688 18.1347 49.395 17.4824 48.8215 16.7656C48.2481 16.0488 47.8754 15.203 47.7033 14.2282C47.6747 14.0705 47.6675 13.7981 47.6818 13.411C47.7105 13.0096 47.7822 12.5509 47.8969 12.0348C48.0259 11.5187 48.2123 10.9811 48.456 10.422C48.714 9.86292 49.0652 9.354 49.5097 8.89525C49.9541 8.42217 50.4988 8.02793 51.1439 7.71254C51.8034 7.38282 52.5919 7.20362 53.5094 7.17495C54.1545 7.13194 54.7781 7.21079 55.3802 7.41149C55.9966 7.61219 56.5557 7.90608 57.0575 8.29314C57.5736 8.68021 58.0036 9.13896 58.3477 9.66938C58.7061 10.1998 58.9498 10.7732 59.0788 11.3897C59.1935 11.9631 59.2007 12.4864 59.1003 12.9595C59.0143 13.4325 58.9355 13.7909 58.8638 14.0346C58.8208 14.1637 58.9211 14.221 59.1648 14.2067C59.4229 14.178 59.7096 14.1063 60.025 13.9916C60.3404 13.877 60.6343 13.7336 60.9066 13.5616C61.0118 13.4952 61.0977 13.4298 61.1644 13.3656C61.0367 13.7955 60.9192 14.2479 60.812 14.7228C60.6113 15.5973 60.4464 16.4502 60.3174 17.2817C60.1884 18.1132 60.088 18.8802 60.0163 19.5826C59.9446 20.2707 59.8945 20.8012 59.8658 21.1739C59.7368 22.9659 59.7296 24.4855 59.8443 25.7327C59.959 26.9799 60.1525 27.9906 60.4249 28.7647C60.6973 29.5389 61.027 30.1051 61.4141 30.4635C61.8155 30.8219 62.2455 31.0155 62.7043 31.0441C63.3494 31.0871 63.887 30.9438 64.3171 30.614C64.7615 30.2843 65.1414 29.8399 65.4568 29.2808C65.6741 28.9028 65.8759 28.4842 66.0622 28.0252C66.1343 28.2875 66.2204 28.5412 66.3207 28.7862C66.5787 29.4027 66.9371 29.9331 67.3959 30.3775C67.869 30.8076 68.4711 31.0656 69.2022 31.1516C69.6466 31.209 70.048 31.1516 70.4064 30.9796C70.7791 30.8076 71.1017 30.5567 71.3741 30.227C71.6608 29.8972 71.9045 29.4958 72.1052 29.0227C72.3059 28.5497 72.4708 28.0336 72.5998 27.4745C73.0585 27.2881 73.5173 26.9871 73.976 26.5713C74.0112 26.5404 74.0466 26.5085 74.0821 26.4756L74.0796 26.5928C74.0509 27.281 74.0366 27.8472 74.0366 28.2916C74.0223 28.7217 74.0151 28.9726 74.0151 29.0443C74.0151 29.202 74.0438 29.3883 74.1011 29.6034C74.1441 29.8184 74.2086 30.0263 74.2947 30.227C74.395 30.4133 74.524 30.5782 74.6817 30.7216C74.8538 30.8649 75.0616 30.9366 75.3053 30.9366C75.6637 30.9509 75.9935 30.8219 76.2945 30.5495C76.6099 30.2628 76.8966 29.9116 77.1547 29.4959C77.427 29.0658 77.6636 28.5999 77.8643 28.0981C77.891 28.0339 77.9171 27.9704 77.9425 27.9076C77.9293 28.3144 77.9162 28.679 77.903 29.0013C77.8744 29.7037 77.86 30.0765 77.86 30.1195C77.8314 30.3775 77.9245 30.571 78.1396 30.7001C78.3546 30.8291 78.5983 30.9079 78.8707 30.9366C79.1431 30.9509 79.3868 30.9366 79.6018 30.8936C79.8312 30.8506 79.9387 30.7861 79.9244 30.7001C79.8957 30.5137 79.8742 30.227 79.8599 29.8399C79.8455 29.4528 79.8384 28.9869 79.8384 28.4422V26.5928C79.8527 25.9191 79.867 25.2023 79.8814 24.4425C79.9387 24.1271 80.0176 23.74 80.1179 23.2813C80.2326 22.8225 80.3616 22.3781 80.505 21.948C80.6627 21.518 80.849 21.1452 81.0641 20.8298C81.2791 20.5001 81.53 20.3138 81.8167 20.2707C82.2468 20.2134 82.5622 20.3209 82.7629 20.5933C82.9779 20.8513 83.1213 21.2241 83.193 21.7115C83.279 22.1846 83.3148 22.7437 83.3005 23.3888C83.2861 24.0196 83.2575 24.6718 83.2145 25.3456C83.1714 26.0194 83.1428 26.6932 83.1284 27.367C83.1141 28.0264 83.1428 28.6214 83.2145 29.1518C83.2861 29.6822 83.4223 30.1195 83.623 30.4635C83.8381 30.8076 84.1535 31.0011 84.5692 31.0441C85.0423 31.1015 85.4723 31.0226 85.8594 30.8076C86.2608 30.5782 86.6192 30.2772 86.9346 29.9044C87.2643 29.5317 87.5439 29.1088 87.7733 28.6357C88.017 28.1626 88.2177 27.6967 88.3754 27.238C88.5474 26.7792 88.6692 26.3563 88.7409 25.9692C88.8269 25.5822 88.8699 25.2811 88.8699 25.0661C88.8699 24.9944 88.7768 24.9514 88.5904 24.9371C88.4184 24.9084 88.3108 24.894 88.2678 24.894C88.2248 24.894 88.1675 25.0231 88.0958 25.2811C88.0241 25.5392 87.9238 25.8689 87.7948 26.2703C87.6801 26.6574 87.5367 27.0731 87.3647 27.5175C87.1926 27.9619 87.0063 28.3777 86.8056 28.7647C86.6049 29.1375 86.3755 29.4457 86.1175 29.6894C85.8594 29.9188 85.587 30.0119 85.3003 29.9689C85.1426 29.9546 85.0494 29.7826 85.0208 29.4528C84.9921 29.1231 84.9921 28.7002 85.0208 28.1841C85.0494 27.668 85.0924 27.0803 85.1498 26.4208C85.2215 25.7614 85.2716 25.0947 85.3003 24.421C85.329 23.7328 85.329 23.0662 85.3003 22.4211C85.2716 21.7617 85.1785 21.1739 85.0208 20.6578C84.8631 20.1417 84.6265 19.726 84.3111 19.4106C84.0101 19.0809 83.5944 18.9088 83.0639 18.8945C82.6625 18.8945 82.297 18.9733 81.9672 19.131C81.6518 19.2744 81.3651 19.4751 81.1071 19.7332C80.8634 19.9912 80.6412 20.2851 80.4405 20.6148C80.2541 20.9445 80.0892 21.2814 79.9459 21.6255C79.9746 20.5503 80.0032 19.4679 80.0319 18.3784C80.0606 17.2746 80.0892 16.2209 80.1179 15.2174C80.1466 14.1995 80.1753 13.2605 80.2039 12.4004C80.2326 11.5259 80.2541 10.7804 80.2684 10.164C80.2828 9.90593 80.1753 9.7124 79.9459 9.58338C79.7308 9.45436 79.4871 9.38268 79.2148 9.36834C78.9567 9.33967 78.7202 9.34684 78.5051 9.38984C78.2901 9.43285 78.1897 9.49736 78.2041 9.58338C78.2327 9.84142 78.2543 10.3145 78.2686 11.0026C78.2829 11.6907 78.2829 12.5151 78.2686 13.4756C78.2686 13.7571 78.2674 14.0466 78.2649 14.3441C78.0147 14.358 77.7306 14.3767 77.4127 14.4002C77.04 14.4289 76.6386 14.4576 76.2085 14.4862C76.2515 13.2677 76.2873 12.257 76.316 11.4542C76.3447 10.6514 76.3662 10.2213 76.3805 10.164C76.4092 9.90593 76.3088 9.7124 76.0795 9.58338C75.8644 9.45436 75.6207 9.38268 75.3483 9.36834C75.0903 9.33967 74.8466 9.34684 74.6172 9.38984C74.3878 9.43285 74.2803 9.49736 74.2947 9.58338C74.309 9.74107 74.3233 9.97761 74.3377 10.293C74.352 10.6084 74.3592 10.9883 74.3592 11.4327C74.3735 11.8628 74.3735 12.3502 74.3592 12.895V14.6368C73.9148 14.6798 73.4919 14.7156 73.0904 14.7443C72.689 14.773 72.3378 14.8016 72.0368 14.8303C71.6784 14.859 71.3486 14.8805 71.0476 14.8948C70.9759 14.8948 70.9042 14.9235 70.8326 14.9808C70.7465 15.0382 70.682 15.1098 70.639 15.1959C70.5817 15.2675 70.5458 15.3392 70.5315 15.4109C70.5172 15.4826 70.5458 15.5184 70.6175 15.5184C71.1193 15.4897 71.6927 15.4826 72.3378 15.4969C72.9829 15.4969 73.6495 15.5112 74.3377 15.5399C74.3233 16.4717 74.3018 17.4466 74.2732 18.4644C74.2588 19.4679 74.2373 20.4571 74.2086 21.4319C74.18 22.4068 74.1585 23.3386 74.1441 24.2274C74.1333 24.5643 74.1234 24.8867 74.1146 25.1947C73.7094 25.694 73.2762 26.074 72.8148 26.3348C72.9152 25.403 72.9223 24.4568 72.8363 23.4963C72.7503 22.5215 72.5639 21.6541 72.2772 20.8943C71.9905 20.1202 71.6034 19.5109 71.116 19.0665C70.6286 18.6078 70.048 18.4286 69.3742 18.5289C68.5714 18.6436 67.9693 18.9375 67.5679 19.4106C67.1808 19.8693 66.93 20.4212 66.8153 21.0664C66.6862 21.0807 66.6002 21.138 66.5572 21.2384C66.3709 21.5681 66.206 22.0269 66.0626 22.6146C65.9336 23.2024 65.8476 23.8475 65.8046 24.55C65.7568 25.1359 65.7538 25.7367 65.7957 26.3526C65.6248 26.9479 65.4258 27.5011 65.1987 28.0121C64.9694 28.5282 64.6898 28.9511 64.3601 29.2808C64.0304 29.5962 63.6218 29.7252 63.1344 29.6679C62.8046 29.6392 62.5394 29.4313 62.3387 29.0443C62.1524 28.6572 62.009 28.177 61.9087 27.6035C61.8226 27.0158 61.7725 26.385 61.7581 25.7112C61.7581 25.0231 61.7725 24.3636 61.8011 23.7328C62.0305 23.5752 62.2957 23.3458 62.5968 23.0447C62.9122 22.7293 63.2347 22.3064 63.5644 21.776C63.8942 21.2456 64.2167 20.6005 64.5321 19.8407C64.8618 19.0809 65.1485 18.1705 65.3923 17.1097C65.4926 16.694 65.593 16.1994 65.6933 15.6259C65.7937 15.0382 65.8725 14.4432 65.9299 13.8411C65.9872 13.239 66.0015 12.6512 65.9729 12.0778C65.9442 11.49 65.851 10.9883 65.6933 10.5726C65.55 10.1425 65.3134 9.82709 64.9837 9.62639C64.6683 9.41135 64.2454 9.36118 63.715 9.47586C63.2562 9.57621 62.8476 9.88443 62.4893 10.4005C62.1309 10.9166 61.8083 11.5474 61.5216 12.2929C61.4675 12.4381 61.4148 12.5865 61.3635 12.738C61.4289 11.7073 61.3125 10.7704 61.0142 9.92743C60.6988 8.9956 60.197 8.20713 59.5089 7.56202C58.8208 6.9169 57.975 6.43665 56.9715 6.12127ZM106.335 16.6581C106.407 16.4001 106.407 16.271 106.335 16.271C106.292 16.271 106.099 16.2997 105.755 16.3571C105.411 16.4144 104.959 16.4932 104.4 16.5936C103.855 16.6796 103.232 16.7871 102.529 16.9162C101.827 17.0452 101.103 17.1814 100.357 17.3247L100.873 10.3145C100.773 10.1425 100.58 10.0134 100.293 9.92743C100.02 9.82708 99.7409 9.76257 99.4542 9.7339C99.1674 9.70523 98.9237 9.7124 98.723 9.7554C98.5223 9.79841 98.4435 9.87009 98.4865 9.97044C98.4865 9.98478 98.4793 10.1998 98.465 10.6156C98.465 11.0313 98.4506 11.5976 98.422 12.3144C98.4076 13.0168 98.3861 13.8411 98.3575 14.7873C98.3288 15.7191 98.3001 16.7083 98.2714 17.7548C97.6407 17.8982 97.0457 18.0415 96.4866 18.1849C95.9275 18.3139 95.4401 18.4501 95.0244 18.5934C94.6086 18.7225 94.2789 18.8515 94.0352 18.9805C93.8058 19.0952 93.7055 19.2027 93.7342 19.3031C93.7055 19.3317 93.7126 19.4249 93.7557 19.5826C93.7987 19.726 93.8488 19.8837 93.9062 20.0557C93.9779 20.2277 94.0495 20.3783 94.1212 20.5073C94.1929 20.622 94.2431 20.665 94.2717 20.6363C94.2431 20.5933 94.3219 20.536 94.5083 20.4643C94.709 20.3783 94.9885 20.2922 95.3469 20.2062C95.7197 20.1202 96.1497 20.0342 96.6372 19.9482C97.1246 19.8478 97.6478 19.7475 98.2069 19.6471C98.1496 21.1667 98.0994 22.6792 98.0564 24.1844C98.0134 25.6753 97.9704 27.0301 97.9274 28.2486C97.87 29.6679 97.827 31.0298 97.7984 32.3343C97.8557 32.4347 97.9561 32.5207 98.0994 32.5924C98.2428 32.6641 98.3861 32.7142 98.5295 32.7429C98.6872 32.7859 98.8305 32.8003 98.9596 32.7859C99.1029 32.7859 99.1961 32.7644 99.2391 32.7214L100.207 19.3246C100.823 19.2242 101.425 19.131 102.013 19.045C102.615 18.959 103.153 18.8873 103.626 18.83C104.099 18.7726 104.486 18.7296 104.787 18.701C105.102 18.6723 105.289 18.6651 105.346 18.6795C105.432 18.7081 105.547 18.6006 105.69 18.3569C105.834 18.0989 105.963 17.8193 106.077 17.5183C106.192 17.2029 106.278 16.9162 106.335 16.6581ZM114.098 6.98142C114.084 6.72337 114.07 6.59435 114.055 6.59435C113.883 6.55134 113.496 6.52267 112.894 6.50834C112.306 6.494 111.568 6.50117 110.679 6.52984C109.79 6.55851 108.78 6.60869 107.647 6.68037C106.529 6.75205 105.346 6.8524 104.099 6.98142C102.852 7.11044 101.576 7.26814 100.271 7.4545C98.9811 7.64087 97.7123 7.87024 96.4651 8.14262C95.2322 8.40067 94.0567 8.70172 92.9385 9.04578C91.8346 9.38984 90.8526 9.78408 89.9925 10.2285C89.8205 10.3145 89.7488 10.4149 89.7775 10.5295C89.8061 10.6442 89.8778 10.7517 89.9925 10.8521C90.1215 10.9668 90.2864 11.0815 90.4871 11.1962C90.9888 10.9094 91.6626 10.6442 92.5084 10.4005C93.3686 10.1568 94.3363 9.94177 95.4114 9.7554C96.4866 9.5547 97.6335 9.38267 98.852 9.23931C100.085 9.08162 101.325 8.9526 102.572 8.85225C103.819 8.7519 105.045 8.68022 106.249 8.63721C107.454 8.5942 108.572 8.58703 109.604 8.6157C110.636 8.63004 111.546 8.68022 112.335 8.76623C113.138 8.83791 113.747 8.94543 114.163 9.08879C114.163 8.63004 114.156 8.2143 114.141 7.84157C114.127 7.52618 114.113 7.23947 114.098 6.98142ZM107.496 19.088C107.582 19.0737 107.726 19.0809 107.926 19.1095C108.127 19.1239 108.321 19.1669 108.507 19.2386C108.708 19.3102 108.88 19.4249 109.023 19.5826C109.166 19.726 109.231 19.9267 109.217 20.1847C109.202 20.2421 109.181 20.5145 109.152 21.0019C109.123 21.475 109.087 22.0627 109.044 22.7652C109.016 23.4533 108.98 24.1916 108.937 24.9801C108.908 25.7685 108.887 26.4997 108.872 27.1735C108.858 27.8329 108.858 28.392 108.872 28.8507C108.887 29.2952 108.93 29.5174 109.001 29.5174C109.159 29.5317 109.317 29.4242 109.475 29.1948C109.647 28.9654 109.811 28.6787 109.969 28.3347C110.127 27.9906 110.27 27.6179 110.399 27.2165C110.543 26.8151 110.672 26.4423 110.786 26.0983C110.822 25.9918 110.855 25.8908 110.885 25.7953C110.918 24.7774 110.941 23.9465 110.954 23.3028C110.968 22.543 110.968 21.9265 110.954 21.4535C110.939 20.9804 110.918 20.5861 110.889 20.2707C110.861 19.9554 110.818 19.6041 110.76 19.2171C110.746 19.131 110.846 19.0665 111.061 19.0235C111.276 18.9805 111.513 18.9734 111.771 19.002C112.043 19.0164 112.287 19.088 112.502 19.2171C112.731 19.3461 112.839 19.5396 112.825 19.7977L112.76 21.819C112.889 21.4606 113.047 21.1094 113.233 20.7653C113.434 20.4069 113.663 20.0915 113.921 19.8192C114.194 19.5324 114.495 19.3031 114.824 19.131C115.168 18.959 115.548 18.8802 115.964 18.8945C116.495 18.9088 116.91 19.0809 117.211 19.4106C117.527 19.726 117.763 20.1417 117.921 20.6578C118.079 21.1739 118.172 21.7617 118.201 22.4211C118.229 23.0662 118.229 23.7328 118.201 24.421C118.172 25.0948 118.122 25.7614 118.05 26.4208C117.993 27.0803 117.95 27.668 117.921 28.1841C117.892 28.7002 117.892 29.1231 117.921 29.4528C117.95 29.7826 118.043 29.9546 118.201 29.9689C118.487 30.0119 118.76 29.9188 119.018 29.6894C119.276 29.4457 119.505 29.1375 119.706 28.7647C119.906 28.3777 120.093 27.9619 120.265 27.5175C120.437 27.0731 120.58 26.6574 120.695 26.2703L120.712 26.2181L120.732 26.1538L120.744 26.117L120.763 26.0579C120.756 25.8306 120.755 25.5932 120.758 25.3456C120.772 24.2704 120.865 23.3673 121.037 22.6361C121.224 21.8907 121.446 21.2814 121.704 20.8083C121.962 20.3352 122.249 19.9697 122.564 19.7116C122.879 19.4393 123.18 19.2457 123.467 19.131C123.768 19.0163 124.026 18.9518 124.241 18.9375C124.471 18.9088 124.635 18.8945 124.736 18.8945C124.951 18.8945 125.137 18.9447 125.295 19.045C125.467 19.131 125.617 19.2457 125.747 19.3891C125.89 19.5181 126.005 19.6615 126.091 19.8192C126.191 19.9768 126.27 20.1274 126.327 20.2707C126.356 19.9123 126.384 19.6328 126.413 19.4321C126.442 19.2171 126.47 19.1024 126.499 19.088C126.585 19.0737 126.729 19.0809 126.929 19.1095C127.13 19.1239 127.331 19.1669 127.531 19.2386C127.732 19.3102 127.904 19.4249 128.047 19.5826C128.191 19.726 128.248 19.9267 128.219 20.1847C128.205 20.2421 128.184 20.5144 128.155 21.0019C128.126 21.4749 128.09 22.0627 128.047 22.7652C128.019 23.4533 127.99 24.1916 127.961 24.9801C127.933 25.7685 127.911 26.4997 127.897 27.1734C127.883 27.8329 127.883 28.392 127.897 28.8507C127.911 29.2951 127.947 29.5173 128.004 29.5173C128.162 29.5317 128.32 29.4242 128.477 29.1948C128.65 28.9654 128.814 28.6787 128.972 28.3346C129.13 27.9906 129.28 27.6178 129.424 27.2164C129.567 26.815 129.689 26.4423 129.789 26.0983C129.856 25.8983 129.913 25.7178 129.96 25.5566C129.99 24.6467 130.01 23.8955 130.021 23.3028C130.036 22.543 130.036 21.9265 130.021 21.4535C130.007 20.9804 129.986 20.5861 129.957 20.2707C129.928 19.9554 129.885 19.6041 129.828 19.2171C129.814 19.131 129.914 19.0665 130.129 19.0235C130.344 18.9805 130.581 18.9734 130.839 19.002C131.111 19.0164 131.355 19.088 131.57 19.2171C131.799 19.3461 131.907 19.5396 131.892 19.7977L131.828 21.819C131.957 21.4606 132.114 21.1094 132.301 20.7653C132.502 20.4069 132.731 20.0915 132.989 19.8192C133.261 19.5324 133.562 19.3031 133.892 19.131C134.236 18.959 134.616 18.8802 135.032 18.8945C135.562 18.9088 135.978 19.0809 136.279 19.4106C136.594 19.726 136.831 20.1417 136.989 20.6578C137.146 21.1739 137.24 21.7617 137.268 22.4211C137.297 23.0662 137.297 23.7328 137.268 24.421C137.24 25.0948 137.189 25.7614 137.118 26.4208C137.06 27.0803 137.017 27.668 136.989 28.1841C136.96 28.7002 136.96 29.1231 136.989 29.4528C137.017 29.7826 137.111 29.9546 137.268 29.9689C137.555 30.0119 137.827 29.9188 138.085 29.6894C138.343 29.4457 138.573 29.1375 138.773 28.7647C138.974 28.3777 139.161 27.9619 139.333 27.5175C139.505 27.0731 139.648 26.6574 139.763 26.2703C139.833 26.0528 139.894 25.8563 139.947 25.6809L139.95 25.5948L139.953 25.511L139.954 25.4531C139.969 25.0231 140.005 24.5428 140.062 24.0124C140.134 23.4676 140.234 22.9085 140.363 22.3351C140.506 21.7473 140.7 21.2097 140.944 20.7223C141.187 20.2349 141.481 19.8263 141.825 19.4966C142.184 19.1525 142.621 18.9518 143.137 18.8945C143.667 18.8372 144.119 18.9949 144.492 19.3676C144.879 19.7403 145.166 20.2206 145.352 20.8083C145.553 21.3818 145.646 22.0125 145.631 22.7007C145.617 23.3745 145.495 23.9837 145.266 24.5285C145.166 24.6575 145.044 24.7794 144.9 24.894C144.771 24.9944 144.642 25.0661 144.513 25.1091C144.384 25.1378 144.277 25.1234 144.191 25.0661C144.119 25.0087 144.083 24.8725 144.083 24.6575C144.27 24.1127 144.37 23.5465 144.384 22.9587C144.413 22.3709 144.377 21.8333 144.277 21.3459C144.176 20.8585 144.026 20.4643 143.825 20.1632C143.639 19.8622 143.431 19.726 143.201 19.7547C143.001 19.7833 142.814 20.0485 142.642 20.5503C142.47 21.052 142.32 21.6542 142.191 22.3566C142.076 23.0447 141.983 23.7544 141.911 24.4855C141.84 25.2166 141.804 25.8187 141.804 26.2918C141.789 27.0803 141.847 27.7254 141.976 28.2271C142.105 28.7145 142.262 29.0944 142.449 29.3668C142.635 29.6392 142.822 29.8256 143.008 29.9259C143.194 30.0119 143.338 30.0478 143.438 30.0334C143.811 30.0048 144.155 29.8901 144.47 29.6894C144.786 29.4743 145.065 29.2091 145.309 28.8937C145.567 28.564 145.789 28.2056 145.975 27.8186C146.176 27.4315 146.348 27.0516 146.492 26.6789C146.635 26.3061 146.742 25.9621 146.814 25.6467C146.851 25.5071 146.883 25.3803 146.912 25.2664C146.929 24.8795 146.963 24.4544 147.013 23.9909C147.085 23.4461 147.185 22.887 147.314 22.3136C147.457 21.7258 147.651 21.1882 147.895 20.7008C148.138 20.199 148.432 19.7833 148.776 19.4536C149.135 19.1239 149.572 18.9375 150.088 18.8945C150.661 18.8371 151.127 18.9805 151.486 19.3246C151.858 19.6686 152.145 20.1059 152.346 20.6363C152.561 21.1667 152.697 21.7401 152.754 22.3566C152.826 22.973 152.84 23.5321 152.797 24.0339C152.697 25.1091 152.489 25.9549 152.174 26.5713C151.873 27.1878 151.529 27.6608 151.142 27.9906C150.769 28.306 150.389 28.5067 150.002 28.5927C149.615 28.6787 149.307 28.7217 149.077 28.7217C149.278 29.2665 149.514 29.632 149.787 29.8184C150.059 29.9904 150.26 30.0621 150.389 30.0334C150.762 30.0048 151.106 29.8901 151.421 29.6894C151.737 29.4743 152.016 29.2091 152.26 28.8937C152.518 28.564 152.74 28.2056 152.926 27.8185C153.127 27.4315 153.299 27.0516 153.442 26.6788C153.586 26.3061 153.693 25.962 153.765 25.6467C153.851 25.3169 153.916 25.0589 153.959 24.8725C153.987 24.8008 154.095 24.7722 154.281 24.7865C154.468 24.7865 154.575 24.8582 154.604 25.0015C154.604 25.0446 154.568 25.2238 154.496 25.5391C154.425 25.8402 154.31 26.2129 154.152 26.6573C153.994 27.0874 153.794 27.5533 153.55 28.0551C153.306 28.5425 153.012 29.0012 152.668 29.4313C152.339 29.8471 151.952 30.2055 151.507 30.5065C151.077 30.7932 150.597 30.9509 150.066 30.9796C149.593 31.0083 149.185 30.9294 148.841 30.743C148.497 30.5423 148.21 30.2915 147.981 29.9904C147.751 29.675 147.558 29.331 147.4 28.9582C147.257 28.5712 147.149 28.2056 147.077 27.8615C147.032 27.6367 146.996 27.4316 146.968 27.2463C146.858 27.5047 146.735 27.7743 146.599 28.0551C146.355 28.5425 146.061 29.0013 145.717 29.4313C145.388 29.8471 145.001 30.2055 144.556 30.5065C144.126 30.7932 143.646 30.9509 143.115 30.9796C142.642 31.0083 142.234 30.9294 141.89 30.7431C141.546 30.5424 141.259 30.2915 141.03 29.9904C140.8 29.6751 140.607 29.331 140.449 28.9583C140.306 28.5712 140.198 28.2056 140.126 27.8616L140.119 27.8257C140.008 28.0933 139.881 28.3633 139.741 28.6357C139.512 29.1088 139.232 29.5317 138.903 29.9044C138.587 30.2772 138.229 30.5782 137.827 30.8076C137.44 31.0226 137.01 31.1015 136.537 31.0441C136.121 31.0011 135.806 30.8076 135.591 30.4635C135.39 30.1195 135.254 29.6822 135.182 29.1518C135.111 28.6214 135.082 28.0264 135.096 27.367C135.111 26.6932 135.139 26.0194 135.182 25.3456C135.225 24.6718 135.254 24.0196 135.268 23.3888C135.283 22.7437 135.247 22.1846 135.161 21.7115C135.089 21.2241 134.946 20.8513 134.731 20.5933C134.53 20.3209 134.215 20.2134 133.785 20.2707C133.455 20.3281 133.168 20.5575 132.924 20.9589C132.695 21.3603 132.502 21.819 132.344 22.3351C132.201 22.8369 132.079 23.3314 131.978 23.8189C131.892 24.3063 131.821 24.6575 131.763 24.8725C131.735 26.1771 131.727 27.324 131.742 28.3132C131.756 29.3023 131.806 30.098 131.892 30.7001C131.907 30.7861 131.799 30.8506 131.57 30.8936C131.355 30.9366 131.111 30.9509 130.839 30.9366C130.566 30.9079 130.323 30.8291 130.107 30.7001C129.892 30.571 129.799 30.3775 129.828 30.1195C129.828 30.0765 129.842 29.7037 129.871 29.0013C129.885 28.6637 129.898 28.2798 129.912 27.8496C129.88 27.9313 129.846 28.0141 129.811 28.0981C129.61 28.5999 129.381 29.0658 129.123 29.4958C128.865 29.9116 128.578 30.2628 128.262 30.5495C127.947 30.8219 127.617 30.9509 127.273 30.9366C127.087 30.9366 126.929 30.9008 126.8 30.8291C126.671 30.7431 126.556 30.6355 126.456 30.5065C126.356 30.3775 126.277 30.2341 126.22 30.0764C126.162 29.9188 126.112 29.7611 126.069 29.6034C125.868 29.9474 125.646 30.2126 125.402 30.399C125.159 30.5854 124.915 30.7216 124.671 30.8076C124.442 30.8936 124.234 30.9438 124.048 30.9581C123.861 30.9581 123.725 30.9509 123.639 30.9366C123.438 30.9223 123.173 30.8577 122.844 30.7431C122.514 30.614 122.191 30.3632 121.876 29.9904C121.56 29.6034 121.288 29.0443 121.059 28.3131C121.029 28.2134 121.002 28.1089 120.977 27.9996C120.885 28.2102 120.783 28.4222 120.673 28.6357C120.444 29.1088 120.165 29.5317 119.835 29.9044C119.519 30.2772 119.161 30.5782 118.76 30.8076C118.373 31.0226 117.942 31.1015 117.469 31.0441C117.054 31.0011 116.738 30.8076 116.523 30.4635C116.323 30.1195 116.186 29.6822 116.115 29.1518C116.043 28.6214 116.014 28.0264 116.029 27.367C116.043 26.6932 116.072 26.0194 116.115 25.3456C116.158 24.6718 116.186 24.0196 116.201 23.3888C116.215 22.7437 116.179 22.1846 116.093 21.7115C116.021 21.2241 115.878 20.8513 115.663 20.5933C115.462 20.3209 115.147 20.2134 114.717 20.2707C114.387 20.3281 114.1 20.5575 113.857 20.9589C113.627 21.3603 113.434 21.819 113.276 22.3351C113.133 22.8369 113.011 23.3314 112.911 23.8189C112.825 24.3063 112.753 24.6575 112.696 24.8725C112.667 26.1771 112.66 27.324 112.674 28.3132C112.688 29.3023 112.739 30.098 112.825 30.7001C112.839 30.7861 112.731 30.8506 112.502 30.8936C112.287 30.9366 112.043 30.9509 111.771 30.9366C111.499 30.9079 111.255 30.8291 111.04 30.7001C110.825 30.571 110.732 30.3775 110.76 30.1195C110.76 30.0765 110.775 29.7037 110.803 29.0013C110.815 28.7097 110.827 28.3837 110.839 28.023L110.823 28.061L110.808 28.0981C110.607 28.5999 110.378 29.0658 110.12 29.4959C109.862 29.9116 109.575 30.2628 109.26 30.5495C108.944 30.8219 108.614 30.9509 108.27 30.9366C108.027 30.9366 107.819 30.8649 107.647 30.7216C107.489 30.5639 107.36 30.3847 107.26 30.184C107.174 29.9833 107.102 29.7754 107.045 29.5604C107.002 29.3453 106.973 29.1733 106.959 29.0443C106.944 28.9583 106.944 28.6572 106.959 28.1411C106.973 27.6107 106.994 26.9799 107.023 26.2488C107.037 25.5033 107.066 24.7149 107.109 23.8834C107.152 23.0519 107.195 22.2849 107.238 21.5825C107.281 20.8657 107.324 20.2779 107.367 19.8192C107.41 19.3461 107.453 19.1024 107.496 19.088ZM107.088 15.6689C107.088 15.1815 107.217 14.7658 107.475 14.4217C107.747 14.0777 108.07 13.9056 108.442 13.9056C108.815 13.9056 109.131 14.0777 109.389 14.4217C109.647 14.7658 109.776 15.1815 109.776 15.6689C109.776 16.1564 109.647 16.5721 109.389 16.9162C109.131 17.2602 108.815 17.4323 108.442 17.4323C108.07 17.4323 107.747 17.2602 107.475 16.9162C107.217 16.5721 107.088 16.1564 107.088 15.6689ZM148.755 26.2918C148.74 26.6788 148.748 27.0301 148.776 27.3455C148.805 27.6608 148.848 27.9404 148.905 28.1841C149.077 28.1984 149.292 28.1769 149.55 28.1196C149.823 28.0622 150.088 27.9046 150.346 27.6465C150.604 27.3741 150.833 26.9656 151.034 26.4208C151.235 25.876 151.364 25.1162 151.421 24.1414C151.493 22.5788 151.414 21.4391 151.185 20.7223C150.955 19.9912 150.611 19.6686 150.152 19.7546C150.009 19.7833 149.88 19.9195 149.765 20.1632C149.651 20.4069 149.536 20.7223 149.421 21.1094C149.321 21.4821 149.228 21.905 149.142 22.3781C149.07 22.8368 149.006 23.3099 148.948 23.7973C148.891 24.2704 148.841 24.7292 148.798 25.1736C148.769 25.6037 148.755 25.9764 148.755 26.2918ZM124.306 29.9044C124.578 29.9044 124.808 29.8399 124.994 29.7109C125.18 29.5675 125.331 29.4027 125.445 29.2163C125.574 29.0156 125.675 28.8077 125.747 28.5927C125.833 28.3633 125.904 28.1483 125.962 27.9476C125.962 27.5748 125.969 27.1376 125.983 26.6358C126.012 26.1198 126.033 25.5822 126.048 25.0231L126.134 23.3028C126.177 22.7293 126.212 22.1846 126.241 21.6685C126.212 21.6971 126.198 21.6541 126.198 21.5395C126.212 21.3531 126.177 21.1596 126.091 20.9589C126.019 20.7438 125.919 20.5503 125.79 20.3783C125.66 20.2062 125.517 20.0629 125.359 19.9482C125.202 19.8335 125.051 19.7761 124.908 19.7761C124.635 19.7761 124.392 19.8837 124.177 20.0987C123.976 20.2994 123.797 20.5718 123.639 20.9158C123.481 21.2456 123.345 21.6183 123.231 22.034C123.13 22.4354 123.044 22.8368 122.973 23.2383C122.915 23.6397 122.865 24.0124 122.822 24.3564C122.793 24.7005 122.772 24.9729 122.757 25.1736C122.729 25.4603 122.722 25.8689 122.736 26.3993C122.765 26.9297 122.829 27.4602 122.93 27.9906C123.03 28.521 123.188 28.9798 123.403 29.3668C123.618 29.7396 123.919 29.9188 124.306 29.9044ZM78.2256 16.6366C78.234 16.2988 78.2412 15.9691 78.2472 15.6474H78.1438C77.8858 15.6331 77.5847 15.6259 77.2407 15.6259C76.9109 15.6116 76.5597 15.5973 76.187 15.5829C76.1583 16.5291 76.1225 17.5326 76.0795 18.5934C76.0508 19.6543 76.0221 20.7008 75.9935 21.733C75.9791 22.7652 75.9648 23.7544 75.9504 24.7005C75.9361 25.6323 75.9289 26.4567 75.9289 27.1734C75.9289 27.8902 75.9361 28.4637 75.9504 28.8937C75.9791 29.3095 76.015 29.5174 76.058 29.5174C76.2157 29.5317 76.3734 29.4242 76.531 29.1948C76.7031 28.9654 76.8608 28.6787 77.0041 28.3346C77.1618 27.9906 77.3124 27.6179 77.4557 27.2165C77.5991 26.815 77.7209 26.4423 77.8213 26.0983C77.8844 25.9089 77.941 25.737 77.9911 25.5824C78.0119 24.9299 78.0327 24.213 78.0536 23.4318C78.0822 22.3423 78.1109 21.2241 78.1396 20.0772C78.1682 18.916 78.1969 17.7691 78.2256 16.6366ZM69.3742 26.0122C68.8008 25.5248 68.3564 24.8295 68.041 23.9264C68.1127 23.525 68.2058 23.1522 68.3205 22.8082C68.4496 22.4641 68.5929 22.1631 68.7506 21.905C68.808 21.819 68.7219 21.7043 68.4926 21.5609C68.2775 21.4176 68.0266 21.2886 67.7399 21.1739C67.7973 20.9588 67.869 20.7366 67.955 20.5073C68.041 20.2779 68.1485 20.0772 68.2775 19.9052C68.4209 19.7188 68.5786 19.5754 68.7506 19.4751C68.937 19.3604 69.1448 19.3174 69.3742 19.3461C69.7756 19.4177 70.1125 19.6973 70.3849 20.1847C70.6716 20.6721 70.8866 21.2742 71.03 21.991C71.1877 22.6935 71.2809 23.4676 71.3096 24.3134C71.3526 25.1592 71.3382 25.9692 71.2665 26.7434C70.5784 26.729 69.9477 26.4853 69.3742 26.0122ZM69.2882 27.2594C69.8616 27.5748 70.4781 27.7397 71.1375 27.754C71.0228 28.4421 70.8508 29.0156 70.6214 29.4743C70.4064 29.9331 70.1484 30.2126 69.8473 30.313C69.4746 30.442 69.152 30.399 68.8796 30.184C68.6072 29.9689 68.385 29.6464 68.213 29.2163C68.0553 28.7862 67.9406 28.2773 67.869 27.6895C67.7973 27.1017 67.7758 26.4925 67.8044 25.8617C68.2202 26.4638 68.7148 26.9297 69.2882 27.2594ZM62.0592 21.0449C62.0305 21.1739 61.9947 21.3818 61.9517 21.6685C61.923 21.9552 61.8943 22.2849 61.8656 22.6577C62.052 22.4856 62.2527 22.2563 62.4677 21.9695C62.6971 21.6685 62.9265 21.3029 63.1559 20.8728C63.3996 20.4284 63.6361 19.9052 63.8655 19.3031C64.0949 18.6866 64.3099 17.977 64.5106 17.1742C64.7256 16.3427 64.8833 15.5184 64.9837 14.7013C65.084 13.8841 65.1342 13.1673 65.1342 12.5509C65.1342 11.9201 65.084 11.4255 64.9837 11.0671C64.8833 10.7087 64.7256 10.5654 64.5106 10.6371C64.3242 10.7087 64.145 10.9525 63.973 11.3682C63.801 11.7839 63.6361 12.3 63.4784 12.9165C63.3207 13.5329 63.1774 14.221 63.0483 14.9808C62.9193 15.7263 62.7975 16.4789 62.6828 17.2387C62.5681 17.9842 62.4534 18.6938 62.3387 19.3676C62.2384 20.027 62.1452 20.5861 62.0592 21.0449Z" fill="#48280B"/>
<path fill-rule="evenodd" clip-rule="evenodd" d="M17.297 35.9158C26.8256 35.9158 34.55 28.1913 34.55 18.6627C34.55 9.13412 26.8256 1.40967 17.297 1.40967C7.7684 1.40967 0.0439453 9.13412 0.0439453 18.6627C0.0439453 28.1913 7.7684 35.9158 17.297 35.9158ZM17.2971 34.4534C26.018 34.4534 33.0878 27.3837 33.0878 18.6627C33.0878 9.94175 26.018 2.87201 17.2971 2.87201C8.57611 2.87201 1.50636 9.94175 1.50636 18.6627C1.50636 27.3837 8.57611 34.4534 17.2971 34.4534Z" fill="#6DA316"/>
<mask id="mask0_153_2865" style="mask-type:alpha" maskUnits="userSpaceOnUse" x="1" y="2" width="33" height="33">
<circle cx="17.2966" cy="18.6628" r="15.7907" fill="white"/>
</mask>
<g mask="url(#mask0_153_2865)">
<path d="M36.3745 8.05932C37.1418 8.97208 39.3273 12.6934 34.2154 21.5969C34.1994 21.6245 34.1781 21.6486 34.1526 21.6678C34.1271 21.687 34.098 21.7008 34.0671 21.7085C34.0361 21.7162 34.0039 21.7176 33.9724 21.7126C33.941 21.7076 33.9108 21.6963 33.8837 21.6794L30.2878 19.4159L32.7606 23.0777C32.7924 23.1163 32.8111 23.1639 32.814 23.2138C32.8169 23.2636 32.8039 23.3131 32.7768 23.3551C32.2175 24.2251 29.2145 28.7975 26.2864 31.4376C26.2352 31.4834 26.1725 31.5145 26.105 31.5276C26.0375 31.5407 25.9677 31.5352 25.903 31.5118L20.2693 29.6261L24.1931 33.2196C24.2383 33.259 24.2669 33.3141 24.273 33.3738C24.2791 33.4335 24.2623 33.4933 24.226 33.5411C23.4283 34.5837 18.9145 39.6823 13.0297 34.9276L13.0299 34.9269C16.3376 33.8616 17.5234 31.5983 17.8714 29.5621L17.8903 29.5656C23.8449 24.8071 31.6778 17.3391 36.3745 8.05932Z" fill="#BFDD8F"/>
<path d="M36.1477 7.82495C36.2298 7.89633 36.3054 7.97476 36.3738 8.05934C31.677 17.3391 23.8441 24.8071 17.8896 29.5656L17.8707 29.5622C17.9862 28.863 18.0223 28.153 17.9783 27.4457C22.8626 23.3726 29.1324 17.1025 35.6788 7.80962C35.8353 7.80092 35.9922 7.80605 36.1477 7.82495Z" fill="#42997F"/>
<path d="M30.0053 10.2278C30.7917 9.68616 33.7571 7.90212 35.6787 7.80986C29.1322 17.1027 22.8624 23.3729 17.9781 27.4459C17.9453 26.8762 17.865 26.3101 17.7379 25.7538C17.7243 25.6953 17.689 25.6442 17.6391 25.6109C17.5891 25.5776 17.5284 25.5646 17.4692 25.5746L12.2009 26.321L17.2369 23.1687C17.2962 23.1339 17.3449 23.0836 17.3777 23.0232C17.4106 22.9627 17.4263 22.8945 17.4232 22.8258C17.3697 21.6479 17.1875 20.3554 16.9496 19.0956C17.2205 18.8992 17.5019 18.7021 17.7938 18.5044C17.872 18.4515 17.9656 18.4262 18.0598 18.4326C18.154 18.439 18.2434 18.4767 18.3137 18.5397L22.077 21.5322L20.2139 16.7972C20.1704 16.7021 20.1638 16.5941 20.1954 16.4944C20.227 16.3946 20.2945 16.3101 20.3848 16.2573L27.5146 12.1065C27.5925 12.0611 27.6829 12.0418 27.7726 12.0515C27.8622 12.0613 27.9464 12.0995 28.0128 12.1606L29.9955 13.4308L29.8278 10.6414C29.8155 10.5627 29.8256 10.4822 29.857 10.4091C29.8884 10.3359 29.9398 10.2731 30.0053 10.2278Z" fill="#BFDD8F"/>
<path d="M17.8708 29.5623C17.5228 31.5984 16.337 33.8617 13.0293 34.927C12.1216 35.2108 11.1853 35.3932 10.2375 35.471C10.8398 29.3577 11.6408 13.5221 5.78291 0.180871C6.97457 0.167631 11.2363 0.84369 14.8642 10.4492C14.8754 10.4792 14.8805 10.5111 14.879 10.543C14.8776 10.5749 14.8698 10.6063 14.856 10.6351C14.8422 10.6639 14.8227 10.6897 14.7987 10.7108C14.7747 10.7319 14.7467 10.748 14.7164 10.7581L10.6846 12.0968L15.0824 12.5141C15.1324 12.5139 15.1812 12.5297 15.2217 12.5591C15.2622 12.5885 15.2923 12.63 15.3076 12.6776C15.529 13.3679 16.393 16.1415 16.9499 19.0955C17.1878 20.3553 17.37 21.6478 17.4235 22.8256C17.4266 22.8944 17.4109 22.9626 17.378 23.023C17.3452 23.0835 17.2965 23.1338 17.2371 23.1686L12.2012 26.3208L17.4695 25.5745C17.5286 25.5645 17.5894 25.5775 17.6393 25.6108C17.6893 25.6441 17.7246 25.6952 17.7381 25.7537C17.8652 26.31 17.9456 26.8761 17.9784 27.4458C18.0224 28.1531 17.9863 28.8631 17.8708 29.5623Z" fill="#BFDD8F"/>
<path d="M9.92738 38.0555L7.99284 38.3769C7.99284 38.3769 8.2817 37.3225 8.55954 35.2874C9.28516 29.9698 9.93361 17.9529 5.14825 0.558551L5.14845 0.55781C5.24149 0.43181 5.34526 0.314096 5.4586 0.205987C5.56574 0.18841 5.6742 0.180032 5.78277 0.180943C11.6407 13.5222 10.8397 29.3578 10.2373 35.4711C10.0747 37.1148 9.92738 38.0555 9.92738 38.0555Z" fill="#42997F"/>
<path d="M8.55981 35.2872C8.55981 35.2872 0.813038 34.1877 2.04171 21.1636C2.05021 21.0695 2.09003 20.9811 2.15477 20.9124C2.21952 20.8437 2.30545 20.7987 2.3988 20.7846L7.1013 19.7803L2.26079 18.2103C2.15969 18.1832 2.07222 18.1196 2.01527 18.0318C1.95833 17.944 1.93596 17.8382 1.95248 17.7348L3.27812 9.59149C3.29276 9.50262 3.33548 9.42077 3.40002 9.35794C3.46456 9.29511 3.54752 9.2546 3.63675 9.24234L5.87745 8.51891L3.61707 6.87513C3.54839 6.83483 3.49254 6.77588 3.45601 6.70513C3.41948 6.63437 3.40376 6.55471 3.41068 6.47538C3.49177 5.52407 3.99883 2.10036 5.14852 0.55839C9.93388 17.9528 9.28543 29.9697 8.55981 35.2872Z" fill="#BFDD8F"/>
<path d="M4.26327 21.7588C4.27178 21.6648 4.3116 21.5764 4.37634 21.5077C4.44109 21.4389 4.52701 21.394 4.62036 21.3799L8.78238 20.4911C8.77422 20.3915 8.76649 20.2927 8.75797 20.1924L4.48236 18.8056C4.38126 18.7785 4.29378 18.7149 4.23684 18.6271C4.17989 18.5393 4.15752 18.4334 4.17404 18.3301L5.49968 10.1868C5.51433 10.0979 5.55705 10.016 5.62159 9.95321C5.68613 9.89038 5.76909 9.84987 5.85832 9.83761L7.23002 9.39474C7.16111 9.04157 7.09009 8.68576 7.01698 8.32733L5.83856 7.47037C5.76988 7.43008 5.71403 7.37113 5.6775 7.30038C5.64097 7.22962 5.62525 7.14995 5.63218 7.07062C5.7285 6.13246 5.88888 5.20198 6.1122 4.28571C5.81834 3.07203 5.49712 1.82959 5.14852 0.558391C3.99883 2.10036 3.49177 5.52407 3.41068 6.47538C3.40376 6.55471 3.41948 6.63437 3.45601 6.70513C3.49254 6.77588 3.54839 6.83483 3.61707 6.87513L5.87745 8.51891L3.63675 9.24234C3.54752 9.2546 3.46456 9.29511 3.40002 9.35794C3.33549 9.42077 3.29276 9.50262 3.27812 9.59149L1.95248 17.7348C1.93596 17.8382 1.95833 17.944 2.01527 18.0318C2.07222 18.1196 2.15969 18.1832 2.26079 18.2103L7.1013 19.7803L2.3988 20.7846C2.30545 20.7987 2.21952 20.8437 2.15477 20.9124C2.09003 20.9811 2.05021 21.0695 2.04171 21.1636C0.813038 34.1877 8.55981 35.2872 8.55981 35.2872C8.57365 35.1856 8.58715 35.0839 8.60029 34.9821C6.412 33.5986 3.47084 30.1592 4.26327 21.7588Z" fill="#BFDD8F"/>
</g>
<mask id="mask1_153_2865" style="mask-type:alpha" maskUnits="userSpaceOnUse" x="1" y="-1" width="39" height="23">
<rect x="1.50586" y="-0.496826" width="37.9748" height="22.4472" fill="#D9D9D9"/>
</mask>
<g mask="url(#mask1_153_2865)">
<path d="M36.3745 8.05932C37.1418 8.97208 39.3273 12.6934 34.2154 21.5969C34.1994 21.6245 34.1781 21.6486 34.1526 21.6678C34.1271 21.687 34.098 21.7008 34.0671 21.7085C34.0361 21.7162 34.0039 21.7176 33.9724 21.7126C33.941 21.7076 33.9108 21.6963 33.8837 21.6794L30.2878 19.4159L32.7606 23.0777C32.7924 23.1163 32.8111 23.1639 32.814 23.2138C32.8169 23.2636 32.8039 23.3131 32.7768 23.3551C32.2175 24.2251 29.2145 28.7975 26.2864 31.4376C26.2352 31.4834 26.1725 31.5145 26.105 31.5276C26.0375 31.5407 25.9677 31.5352 25.903 31.5118L20.2693 29.6261L24.1931 33.2196C24.2383 33.259 24.2669 33.3141 24.273 33.3738C24.2791 33.4335 24.2623 33.4933 24.226 33.5411C23.4283 34.5837 18.9145 39.6823 13.0297 34.9276L13.0299 34.9269C16.3376 33.8616 17.5234 31.5983 17.8714 29.5621L17.8903 29.5656C23.8449 24.8071 31.6778 17.3391 36.3745 8.05932Z" fill="#BFDD8F"/>
<path d="M36.1477 7.82495C36.2298 7.89633 36.3054 7.97476 36.3738 8.05934C31.677 17.3391 23.8441 24.8071 17.8896 29.5656L17.8707 29.5622C17.9862 28.863 18.0223 28.153 17.9783 27.4457C22.8626 23.3726 29.1324 17.1025 35.6788 7.80962C35.8353 7.80092 35.9922 7.80605 36.1477 7.82495Z" fill="#6DA316"/>
<path d="M30.0053 10.2278C30.7917 9.68616 33.7571 7.90212 35.6787 7.80986C29.1322 17.1027 22.8624 23.3729 17.9781 27.4459C17.9453 26.8762 17.865 26.3101 17.7379 25.7538C17.7243 25.6953 17.689 25.6442 17.6391 25.6109C17.5891 25.5776 17.5284 25.5646 17.4692 25.5746L12.2009 26.321L17.2369 23.1687C17.2962 23.1339 17.3449 23.0836 17.3777 23.0232C17.4106 22.9627 17.4263 22.8945 17.4232 22.8258C17.3697 21.6479 17.1875 20.3554 16.9496 19.0956C17.2205 18.8992 17.5019 18.7021 17.7938 18.5044C17.872 18.4515 17.9656 18.4262 18.0598 18.4326C18.154 18.439 18.2434 18.4767 18.3137 18.5397L22.077 21.5322L20.2139 16.7972C20.1704 16.7021 20.1638 16.5941 20.1954 16.4944C20.227 16.3946 20.2945 16.3101 20.3848 16.2573L27.5146 12.1065C27.5925 12.0611 27.6829 12.0418 27.7726 12.0515C27.8622 12.0613 27.9464 12.0995 28.0128 12.1606L29.9955 13.4308L29.8278 10.6414C29.8155 10.5627 29.8256 10.4822 29.857 10.4091C29.8884 10.3359 29.9398 10.2731 30.0053 10.2278Z" fill="#BFDD8F"/>
<path d="M17.8708 29.5623C17.5228 31.5984 16.337 33.8617 13.0293 34.927C12.1216 35.2107 11.1853 35.3932 10.2375 35.471C10.8398 29.3577 11.6408 13.5221 5.78291 0.180871C6.97457 0.167631 11.2363 0.84369 14.8642 10.4492C14.8754 10.4792 14.8805 10.5111 14.879 10.543C14.8776 10.5749 14.8698 10.6062 14.856 10.6351C14.8422 10.6639 14.8227 10.6897 14.7987 10.7108C14.7747 10.7319 14.7467 10.748 14.7164 10.758L10.6846 12.0968L15.0824 12.5141C15.1324 12.5139 15.1812 12.5297 15.2217 12.5591C15.2622 12.5885 15.2923 12.63 15.3076 12.6776C15.529 13.3679 16.393 16.1415 16.9499 19.0955C17.1878 20.3553 17.37 21.6478 17.4235 22.8256C17.4266 22.8943 17.4109 22.9626 17.378 23.023C17.3452 23.0835 17.2965 23.1338 17.2371 23.1686L12.2012 26.3208L17.4695 25.5745C17.5286 25.5645 17.5894 25.5775 17.6393 25.6108C17.6893 25.6441 17.7246 25.6952 17.7381 25.7536C17.8652 26.31 17.9456 26.8761 17.9784 27.4458C18.0224 28.1531 17.9863 28.8631 17.8708 29.5623Z" fill="#BFDD8F"/>
<path d="M9.92738 38.0555L7.99284 38.3769C7.99284 38.3769 8.2817 37.3225 8.55954 35.2874C9.28516 29.9698 9.93361 17.9529 5.14825 0.558551L5.14845 0.55781C5.24149 0.43181 5.34526 0.314096 5.4586 0.205987C5.56574 0.18841 5.6742 0.180032 5.78277 0.180943C11.6407 13.5222 10.8397 29.3578 10.2373 35.4711C10.0747 37.1148 9.92738 38.0555 9.92738 38.0555Z" fill="#6DA316"/>
<path d="M8.55981 35.2872C8.55981 35.2872 0.813038 34.1877 2.04171 21.1636C2.05021 21.0695 2.09003 20.9811 2.15477 20.9124C2.21952 20.8437 2.30545 20.7987 2.3988 20.7846L7.1013 19.7803L2.26079 18.2103C2.15969 18.1832 2.07222 18.1196 2.01527 18.0318C1.95833 17.944 1.93596 17.8382 1.95248 17.7348L3.27812 9.59149C3.29276 9.50262 3.33548 9.42077 3.40002 9.35794C3.46456 9.29511 3.54752 9.2546 3.63675 9.24234L5.87745 8.51891L3.61707 6.87513C3.54839 6.83483 3.49254 6.77588 3.45601 6.70513C3.41948 6.63437 3.40376 6.55471 3.41068 6.47538C3.49177 5.52407 3.99883 2.10036 5.14852 0.55839C9.93388 17.9528 9.28543 29.9697 8.55981 35.2872Z" fill="#BFDD8F"/>
<path d="M4.26327 21.7588C4.27178 21.6648 4.3116 21.5764 4.37634 21.5077C4.44109 21.4389 4.52701 21.394 4.62036 21.3799L8.78238 20.4911C8.77422 20.3915 8.76649 20.2927 8.75797 20.1924L4.48236 18.8056C4.38126 18.7785 4.29378 18.7149 4.23684 18.6271C4.17989 18.5393 4.15752 18.4334 4.17404 18.3301L5.49968 10.1868C5.51433 10.0979 5.55705 10.016 5.62159 9.95321C5.68613 9.89038 5.76909 9.84987 5.85832 9.83761L7.23002 9.39474C7.16111 9.04157 7.09009 8.68576 7.01698 8.32733L5.83856 7.47037C5.76988 7.43008 5.71403 7.37113 5.6775 7.30038C5.64097 7.22962 5.62525 7.14995 5.63218 7.07062C5.7285 6.13246 5.88888 5.20198 6.1122 4.28571C5.81834 3.07203 5.49712 1.82959 5.14852 0.558391C3.99883 2.10036 3.49177 5.52407 3.41068 6.47538C3.40376 6.55471 3.41948 6.63437 3.45601 6.70513C3.49254 6.77588 3.54839 6.83483 3.61707 6.87513L5.87745 8.51891L3.63675 9.24234C3.54752 9.2546 3.46456 9.29511 3.40002 9.35794C3.33549 9.42077 3.29276 9.50262 3.27812 9.59149L1.95248 17.7348C1.93596 17.8382 1.95833 17.944 2.01527 18.0318C2.07222 18.1196 2.15969 18.1832 2.26079 18.2103L7.1013 19.7803L2.3988 20.7846C2.30545 20.7987 2.21952 20.8437 2.15477 20.9124C2.09003 20.9811 2.05021 21.0695 2.04171 21.1636C0.813038 34.1877 8.55981 35.2872 8.55981 35.2872C8.57365 35.1856 8.58715 35.0839 8.60029 34.9821C6.412 33.5986 3.47084 30.1592 4.26327 21.7588Z" fill="#BFDD8F"/>
</g>
<mask id="mask2_153_2865" style="mask-type:alpha" maskUnits="userSpaceOnUse" x="1" y="2" width="33" height="33">
<circle cx="17.2966" cy="18.6628" r="15.7907" fill="white"/>
</mask>
<g mask="url(#mask2_153_2865)">
<path d="M28.1267 36.2957L30.8174 31.9807C29.1925 31.4253 28.469 28.9154 26.0794 26.9809C25.8829 26.8221 25.675 26.6673 25.4547 26.5175C25.4189 26.4433 25.3881 26.3805 25.3632 26.3305C25.3154 26.2335 25.2888 26.183 25.2888 26.183H24.9261C24.295 25.8136 23.5695 25.4881 22.7238 25.2317L23.0228 26.183H11.5723L11.8712 25.2317C11.0255 25.4881 10.3001 25.8136 9.66894 26.183H9.51813C9.51813 26.183 9.49488 26.2282 9.45236 26.3139C9.11355 26.5252 8.80264 26.749 8.51565 26.9809C6.12603 28.9154 5.42216 31.4864 3.7776 31.9807C3.6831 32.0091 6.65418 36.1547 6.65418 36.1547L12.4191 39.9031L22.8326 39.9313L28.1267 36.2957Z" fill="#6DA316"/>
<ellipse cx="17.2968" cy="28.4639" rx="6.74402" ry="4.29202" fill="#BFDD8F"/>
<ellipse cx="17.297" cy="28.464" rx="5.296" ry="3.37047" fill="#A18367"/>
</g>
<path d="M17.2966 29.5313C17.2669 29.5313 17.2313 29.5313 17.2016 29.5194C13.3901 29.3886 8.12407 28.7167 5.94523 24.5013C3.71295 20.1847 6.49736 15.3331 6.82389 14.792C9.70328 9.99984 15.1534 9.28042 16.8394 9.1734C17.635 8.86423 18.1693 8.54911 18.668 8.09724C19.1133 7.69293 19.4814 7.21728 19.7723 6.68217C19.8138 6.60488 19.8851 6.55137 19.9682 6.53353C19.9919 6.53353 20.0097 6.52759 20.0335 6.52759C20.0988 6.52759 20.1582 6.54542 20.2116 6.58704C20.4016 6.72974 21.0249 7.27079 21.1318 8.20426C21.1734 8.56694 21.1199 8.89395 21.0368 9.16745C21.2684 9.04259 21.4999 8.8999 21.7196 8.7572C22.2776 8.39452 22.8001 7.97238 23.281 7.50267C23.3344 7.44916 23.4116 7.41943 23.4888 7.41943C23.5125 7.41943 23.5363 7.41943 23.5541 7.42538C23.655 7.44916 23.7322 7.52051 23.7678 7.61564C23.9875 8.23399 24.0765 8.8999 24.0231 9.55392C23.9875 10.0177 23.8806 10.4755 23.7084 10.9095C25.4242 11.8668 26.7897 13.1808 27.7693 14.8039C28.0958 15.345 30.8802 20.1966 28.6479 24.5132C26.2019 29.2518 19.7307 29.454 17.2966 29.5313Z" fill="#DCAE88"/>
<path d="M25.8555 24.3464C24.1873 26.6771 20.7498 27.6403 17.2945 27.6581C14.3201 27.6403 11.3576 26.9268 9.52313 25.2382C9.22629 24.9707 8.96506 24.6734 8.73353 24.3464C7.8608 23.1335 7.33242 21.3379 7.62333 19.5899C7.68863 19.1855 7.80143 18.7872 7.96173 18.3948C8.78102 16.397 10.8233 14.8274 13.1862 14.7204C15.2522 14.6252 16.7483 15.6836 17.2886 16.1295C17.8289 15.6836 19.325 14.6312 21.391 14.7204C23.7539 14.8274 25.7962 16.397 26.6155 18.3948C27.4763 20.4876 26.9123 22.854 25.8437 24.3464H25.8555Z" fill="#FDFBFD"/>
<path d="M18.9984 22.9908C18.9806 23.2048 18.4938 23.6091 17.8407 23.7697C17.6448 23.8172 17.4667 23.8351 17.3005 23.841C17.1343 23.841 16.9561 23.8172 16.7602 23.7697C16.1012 23.6091 15.6203 23.2048 15.6025 22.9908C15.6025 22.9611 15.5907 22.8659 15.65 22.8184C15.6975 22.7767 15.7628 22.7827 15.8044 22.7886C16.0181 22.8124 16.1903 22.9016 16.2259 22.9135C16.2259 22.9135 16.2853 22.9432 16.7068 23.08C16.784 23.1037 17.0155 23.1751 17.3005 23.1751C17.5855 23.1751 17.817 23.1037 17.8942 23.08C18.3157 22.9432 18.3751 22.9135 18.3751 22.9135C18.4107 22.8956 18.5829 22.8124 18.7966 22.7886C18.8441 22.7886 18.9094 22.7767 18.9509 22.8184C19.0044 22.8719 18.9984 22.9611 18.9984 22.9908Z" fill="#4E3823"/>
<path d="M18.5947 21.3261C18.2741 21.8731 17.5142 21.9504 17.2945 21.9504C17.057 21.9504 16.3149 21.8671 15.9943 21.3261C15.9409 21.2309 15.7925 20.9812 15.8875 20.7434C16.0656 20.3034 16.9264 20.2618 17.2945 20.2559C17.6626 20.2618 18.5235 20.3034 18.7016 20.7434C18.7966 20.9812 18.6481 21.2369 18.5947 21.3261Z" fill="#4E3823"/>
<path d="M19.2181 20.3682C19.2299 21.0638 19.5921 21.5633 19.7524 21.7773C20.2214 22.4135 20.6904 22.5146 22.5962 23.4599C24.0388 24.1734 24.2704 24.3637 24.4188 24.4885C24.7275 24.762 24.9294 25.0117 25.0718 25.2317C25.3687 24.9642 25.6299 24.6669 25.8615 24.3399C26.7342 23.127 27.2626 21.3314 26.9716 19.5834C26.562 19.1077 26.0099 18.6023 25.2618 18.2278C23.7717 17.4846 21.4741 17.2111 20.1502 18.424C20.0077 18.5548 19.2003 19.298 19.2181 20.3563V20.3682Z" fill="#A18367"/>
<path d="M22.6318 22.1523C23.2908 22.1523 23.8251 21.4522 23.8251 20.5886C23.8251 19.725 23.2908 19.0249 22.6318 19.0249C21.9727 19.0249 21.4385 19.725 21.4385 20.5886C21.4385 21.4522 21.9727 22.1523 22.6318 22.1523Z" fill="#4E3823"/>
<path d="M15.3769 20.3682C15.365 21.0638 15.0029 21.5633 14.8426 21.7773C14.3736 22.4135 13.9046 22.5146 11.9988 23.4599C10.5562 24.1734 10.3246 24.3637 10.1762 24.4885C9.86747 24.762 9.66562 25.0117 9.52313 25.2317C9.22629 24.9642 8.96506 24.6669 8.73353 24.3399C7.8608 23.127 7.33242 21.3314 7.62333 19.5834C8.03297 19.1077 8.5851 18.6023 9.33315 18.2278C10.8233 17.4846 13.1209 17.2111 14.4448 18.424C14.5873 18.5548 15.3947 19.298 15.3769 20.3563V20.3682Z" fill="#A18367"/>
<path d="M11.9628 22.153C12.6219 22.153 13.1562 21.4529 13.1562 20.5893C13.1562 19.7257 12.6219 19.0256 11.9628 19.0256C11.3038 19.0256 10.7695 19.7257 10.7695 20.5893C10.7695 21.4529 11.3038 22.153 11.9628 22.153Z" fill="#4E3823"/>
<path d="M12.0577 20.5176C12.2805 20.5176 12.4611 20.2806 12.4611 19.9884C12.4611 19.6961 12.2805 19.4592 12.0577 19.4592C11.8349 19.4592 11.6543 19.6961 11.6543 19.9884C11.6543 20.2806 11.8349 20.5176 12.0577 20.5176Z" fill="#FBFDFB"/>
<path d="M22.4473 20.5176C22.6701 20.5176 22.8507 20.2806 22.8507 19.9884C22.8507 19.6961 22.6701 19.4592 22.4473 19.4592C22.2245 19.4592 22.0439 19.6961 22.0439 19.9884C22.0439 20.2806 22.2245 20.5176 22.4473 20.5176Z" fill="#FBFDFB"/>
</g>
<defs>
<clipPath id="clip0_153_2865">
<rect width="156" height="36" fill="white"/>
</clipPath>
</defs>
</svg>
