<svg width="156" height="36" viewBox="0 0 156 36" fill="none" xmlns="http://www.w3.org/2000/svg">
<g clip-path="url(#clip0_153_3032)">
<path fill-rule="evenodd" clip-rule="evenodd" d="M56.9705 6.12127C55.9813 5.79154 54.8775 5.65535 53.6589 5.71269C52.0246 5.78437 50.6555 6.09976 49.5517 6.65886C48.4622 7.20362 47.5877 7.88457 46.9282 8.70172C46.2831 9.51886 45.8315 10.422 45.5735 11.4112C45.3298 12.386 45.2438 13.3394 45.3155 14.2712C45.3728 15.3034 45.6738 16.2424 46.2186 17.0882C46.7777 17.934 47.4587 18.7153 48.2615 19.4321C49.0786 20.1489 49.9531 20.8298 50.8849 21.4749C51.8311 22.1057 52.7127 22.7222 53.5299 23.3243C54.347 23.9264 55.0423 24.5356 55.6157 25.1521C56.1892 25.7542 56.5117 26.3921 56.5834 27.0659C56.6838 28.0121 56.6049 28.7719 56.3469 29.3453C56.0888 29.9187 55.7591 30.3703 55.3577 30.7001C54.9706 31.0154 54.5621 31.2305 54.132 31.3452C53.7019 31.4599 53.3722 31.5244 53.1428 31.5387C52.4547 31.5817 51.7952 31.4742 51.1645 31.2161C50.548 30.9724 49.9961 30.6857 49.5087 30.356C48.9352 29.9833 48.412 29.546 47.9389 29.0443L47.5518 30.4205C47.8816 30.8506 48.3045 31.2376 48.8206 31.5817C49.2506 31.8684 49.8026 32.1336 50.4764 32.3773C51.1645 32.6211 51.9816 32.7286 52.9278 32.6999C53.6446 32.6856 54.3542 32.5709 55.0567 32.3558C55.7734 32.1408 56.4042 31.7967 56.949 31.3237C57.5081 30.8649 57.9382 30.27 58.2392 29.5389C58.5403 28.7934 58.6406 27.8831 58.5403 26.8079C58.4399 25.7614 58.1245 24.8654 57.5941 24.1199C57.0637 23.3601 56.4257 22.6792 55.6803 22.077C54.9348 21.4606 54.132 20.8943 53.2718 20.3783C52.426 19.8478 51.6161 19.2959 50.8419 18.7225C50.0678 18.1347 49.394 17.4824 48.8206 16.7656C48.2471 16.0488 47.8744 15.203 47.7024 14.2282C47.6737 14.0705 47.6665 13.7981 47.6809 13.411C47.7095 13.0096 47.7812 12.5509 47.8959 12.0348C48.0249 11.5187 48.2113 10.9811 48.455 10.422C48.713 9.86292 49.0643 9.354 49.5087 8.89525C49.9531 8.42217 50.4979 8.02793 51.143 7.71254C51.8024 7.38282 52.5909 7.20362 53.5084 7.17495C54.1535 7.13194 54.7771 7.21079 55.3792 7.41149C55.9956 7.61219 56.5547 7.90608 57.0565 8.29314C57.5726 8.68021 58.0027 9.13896 58.3467 9.66938C58.7051 10.1998 58.9488 10.7732 59.0779 11.3897C59.1925 11.9631 59.1997 12.4864 59.0994 12.9595C59.0133 13.4325 58.9345 13.7909 58.8628 14.0346C58.8198 14.1637 58.9202 14.221 59.1639 14.2067C59.4219 14.178 59.7086 14.1063 60.024 13.9916C60.3394 13.877 60.6333 13.7336 60.9057 13.5616C61.0108 13.4952 61.0967 13.4298 61.1634 13.3656C61.0357 13.7955 60.9182 14.2479 60.811 14.7228C60.6103 15.5973 60.4454 16.4502 60.3164 17.2817C60.1874 18.1132 60.087 18.8802 60.0153 19.5826C59.9437 20.2707 59.8935 20.8012 59.8648 21.1739C59.7358 22.9659 59.7286 24.4855 59.8433 25.7327C59.958 26.9799 60.1515 27.9906 60.4239 28.7647C60.6963 29.5389 61.026 30.1051 61.4131 30.4635C61.8145 30.8219 62.2446 31.0155 62.7033 31.0441C63.3484 31.0871 63.886 30.9438 64.3161 30.614C64.7605 30.2843 65.1404 29.8399 65.4558 29.2808C65.6732 28.9028 65.875 28.4842 66.0612 28.0252C66.1333 28.2875 66.2195 28.5412 66.3197 28.7862C66.5778 29.4027 66.9361 29.9331 67.3949 30.3775C67.868 30.8076 68.4701 31.0656 69.2012 31.1516C69.6456 31.209 70.047 31.1516 70.4054 30.9796C70.7782 30.8076 71.1007 30.5567 71.3731 30.227C71.6598 29.8972 71.9035 29.4958 72.1042 29.0227C72.3049 28.5497 72.4698 28.0336 72.5988 27.4745C73.0576 27.2881 73.5163 26.9871 73.975 26.5713C74.0102 26.5404 74.0456 26.5085 74.0811 26.4756L74.0786 26.5928C74.05 27.281 74.0356 27.8472 74.0356 28.2916C74.0213 28.7217 74.0141 28.9726 74.0141 29.0443C74.0141 29.202 74.0428 29.3883 74.1001 29.6034C74.1432 29.8184 74.2077 30.0263 74.2937 30.227C74.394 30.4133 74.5231 30.5782 74.6807 30.7216C74.8528 30.8649 75.0606 30.9366 75.3044 30.9366C75.6628 30.9509 75.9925 30.8219 76.2935 30.5495C76.6089 30.2628 76.8956 29.9116 77.1537 29.4959C77.4261 29.0658 77.6626 28.5999 77.8633 28.0981C77.89 28.0339 77.9161 27.9704 77.9415 27.9076C77.9284 28.3144 77.9152 28.679 77.9021 29.0013C77.8734 29.7037 77.859 30.0765 77.859 30.1195C77.8304 30.3775 77.9236 30.571 78.1386 30.7001C78.3536 30.8291 78.5973 30.9079 78.8697 30.9366C79.1421 30.9509 79.3858 30.9366 79.6008 30.8936C79.8302 30.8506 79.9377 30.7861 79.9234 30.7001C79.8947 30.5137 79.8732 30.227 79.8589 29.8399C79.8446 29.4528 79.8374 28.9869 79.8374 28.4422V26.5928C79.8517 25.9191 79.8661 25.2023 79.8804 24.4425C79.9377 24.1271 80.0166 23.74 80.1169 23.2813C80.2316 22.8225 80.3606 22.3781 80.504 21.948C80.6617 21.518 80.8481 21.1452 81.0631 20.8298C81.2781 20.5001 81.529 20.3138 81.8157 20.2707C82.2458 20.2134 82.5612 20.3209 82.7619 20.5933C82.9769 20.8513 83.1203 21.2241 83.192 21.7115C83.278 22.1846 83.3138 22.7437 83.2995 23.3888C83.2852 24.0196 83.2565 24.6718 83.2135 25.3456C83.1705 26.0194 83.1418 26.6932 83.1275 27.367C83.1131 28.0264 83.1418 28.6214 83.2135 29.1518C83.2852 29.6822 83.4213 30.1195 83.6221 30.4635C83.8371 30.8076 84.1525 31.0011 84.5682 31.0441C85.0413 31.1015 85.4714 31.0226 85.8584 30.8076C86.2598 30.5782 86.6182 30.2772 86.9336 29.9044C87.2634 29.5317 87.5429 29.1088 87.7723 28.6357C88.016 28.1626 88.2167 27.6967 88.3744 27.238C88.5464 26.7792 88.6683 26.3563 88.7399 25.9692C88.826 25.5822 88.869 25.2811 88.869 25.0661C88.869 24.9944 88.7758 24.9514 88.5894 24.9371C88.4174 24.9084 88.3099 24.894 88.2669 24.894C88.2239 24.894 88.1665 25.0231 88.0948 25.2811C88.0232 25.5392 87.9228 25.8689 87.7938 26.2703C87.6791 26.6574 87.5357 27.0731 87.3637 27.5175C87.1917 27.9619 87.0053 28.3777 86.8046 28.7647C86.6039 29.1375 86.3745 29.4457 86.1165 29.6894C85.8584 29.9188 85.5861 30.0119 85.2993 29.9689C85.1416 29.9546 85.0485 29.7826 85.0198 29.4528C84.9911 29.1231 84.9911 28.7002 85.0198 28.1841C85.0485 27.668 85.0915 27.0803 85.1488 26.4208C85.2205 25.7614 85.2707 25.0947 85.2993 24.421C85.328 23.7328 85.328 23.0662 85.2993 22.4211C85.2707 21.7617 85.1775 21.1739 85.0198 20.6578C84.8621 20.1417 84.6256 19.726 84.3102 19.4106C84.0091 19.0809 83.5934 18.9088 83.063 18.8945C82.6615 18.8945 82.296 18.9733 81.9663 19.131C81.6509 19.2744 81.3642 19.4751 81.1061 19.7332C80.8624 19.9912 80.6402 20.2851 80.4395 20.6148C80.2531 20.9445 80.0883 21.2814 79.9449 21.6255C79.9736 20.5503 80.0023 19.4679 80.0309 18.3784C80.0596 17.2746 80.0883 16.2209 80.1169 15.2174C80.1456 14.1995 80.1743 13.2605 80.203 12.4004C80.2316 11.5259 80.2531 10.7804 80.2675 10.164C80.2818 9.90593 80.1743 9.7124 79.9449 9.58338C79.7299 9.45436 79.4862 9.38268 79.2138 9.36834C78.9557 9.33967 78.7192 9.34684 78.5042 9.38984C78.2891 9.43285 78.1888 9.49736 78.2031 9.58338C78.2318 9.84142 78.2533 10.3145 78.2676 11.0026C78.282 11.6907 78.282 12.5151 78.2676 13.4756C78.2676 13.7571 78.2664 14.0466 78.2639 14.3441C78.0137 14.358 77.7296 14.3767 77.4117 14.4002C77.039 14.4289 76.6376 14.4576 76.2075 14.4862C76.2505 13.2677 76.2864 12.257 76.315 11.4542C76.3437 10.6514 76.3652 10.2213 76.3795 10.164C76.4082 9.90593 76.3079 9.7124 76.0785 9.58338C75.8635 9.45436 75.6197 9.38268 75.3474 9.36834C75.0893 9.33967 74.8456 9.34684 74.6162 9.38984C74.3869 9.43285 74.2793 9.49736 74.2937 9.58338C74.308 9.74107 74.3224 9.97761 74.3367 10.293C74.351 10.6084 74.3582 10.9883 74.3582 11.4327C74.3725 11.8628 74.3725 12.3502 74.3582 12.895V14.6368C73.9138 14.6798 73.4909 14.7156 73.0895 14.7443C72.6881 14.773 72.3368 14.8016 72.0358 14.8303C71.6774 14.859 71.3477 14.8805 71.0466 14.8948C70.9749 14.8948 70.9033 14.9235 70.8316 14.9808C70.7456 15.0382 70.681 15.1098 70.638 15.1959C70.5807 15.2675 70.5449 15.3392 70.5305 15.4109C70.5162 15.4826 70.5449 15.5184 70.6165 15.5184C71.1183 15.4897 71.6917 15.4826 72.3368 15.4969C72.982 15.4969 73.6486 15.5112 74.3367 15.5399C74.3224 16.4717 74.3008 17.4466 74.2722 18.4644C74.2578 19.4679 74.2363 20.4571 74.2077 21.4319C74.179 22.4068 74.1575 23.3386 74.1432 24.2274C74.1323 24.5643 74.1225 24.8867 74.1136 25.1947C73.7084 25.694 73.2752 26.074 72.8138 26.3348C72.9142 25.403 72.9214 24.4568 72.8353 23.4963C72.7493 22.5215 72.563 21.6541 72.2762 20.8943C71.9895 20.1202 71.6025 19.5109 71.115 19.0665C70.6276 18.6078 70.047 18.4286 69.3732 18.5289C68.5704 18.6436 67.9683 18.9375 67.5669 19.4106C67.1799 19.8693 66.929 20.4212 66.8143 21.0664C66.6853 21.0807 66.5993 21.138 66.5562 21.2384C66.3699 21.5681 66.205 22.0269 66.0617 22.6146C65.9326 23.2024 65.8466 23.8475 65.8036 24.55C65.7558 25.1359 65.7528 25.7367 65.7948 26.3526C65.6239 26.9479 65.4249 27.5011 65.1977 28.0121C64.9684 28.5282 64.6888 28.9511 64.3591 29.2808C64.0294 29.5962 63.6208 29.7252 63.1334 29.6679C62.8037 29.6392 62.5385 29.4313 62.3377 29.0443C62.1514 28.6572 62.008 28.177 61.9077 27.6035C61.8217 27.0158 61.7715 26.385 61.7571 25.7112C61.7571 25.0231 61.7715 24.3636 61.8002 23.7328C62.0295 23.5752 62.2947 23.3458 62.5958 23.0447C62.9112 22.7293 63.2337 22.3064 63.5635 21.776C63.8932 21.2456 64.2157 20.6005 64.5311 19.8407C64.8609 19.0809 65.1476 18.1705 65.3913 17.1097C65.4916 16.694 65.592 16.1994 65.6923 15.6259C65.7927 15.0382 65.8715 14.4432 65.9289 13.8411C65.9862 13.239 66.0006 12.6512 65.9719 12.0778C65.9432 11.49 65.85 10.9883 65.6923 10.5726C65.549 10.1425 65.3124 9.82709 64.9827 9.62639C64.6673 9.41135 64.2444 9.36118 63.714 9.47586C63.2552 9.57621 62.8467 9.88443 62.4883 10.4005C62.1299 10.9166 61.8073 11.5474 61.5206 12.2929C61.4665 12.4381 61.4138 12.5865 61.3625 12.738C61.4279 11.7073 61.3115 10.7704 61.0132 9.92743C60.6978 8.9956 60.196 8.20713 59.5079 7.56202C58.8198 6.9169 57.974 6.43665 56.9705 6.12127ZM106.334 16.6581C106.406 16.4001 106.406 16.271 106.334 16.271C106.291 16.271 106.098 16.2997 105.754 16.3571C105.41 16.4144 104.958 16.4932 104.399 16.5936C103.854 16.6796 103.231 16.7871 102.528 16.9162C101.826 17.0452 101.102 17.1814 100.356 17.3247L100.872 10.3145C100.772 10.1425 100.579 10.0134 100.292 9.92743C100.019 9.82708 99.7399 9.76257 99.4532 9.7339C99.1665 9.70523 98.9227 9.7124 98.722 9.7554C98.5213 9.79841 98.4425 9.87009 98.4855 9.97044C98.4855 9.98478 98.4783 10.1998 98.464 10.6156C98.464 11.0313 98.4497 11.5976 98.421 12.3144C98.4067 13.0168 98.3851 13.8411 98.3565 14.7873C98.3278 15.7191 98.2991 16.7083 98.2705 17.7548C97.6397 17.8982 97.0447 18.0415 96.4856 18.1849C95.9266 18.3139 95.4391 18.4501 95.0234 18.5934C94.6077 18.7225 94.2779 18.8515 94.0342 18.9805C93.8049 19.0952 93.7045 19.2027 93.7332 19.3031C93.7045 19.3317 93.7117 19.4249 93.7547 19.5826C93.7977 19.726 93.8479 19.8837 93.9052 20.0557C93.9769 20.2277 94.0486 20.3783 94.1202 20.5073C94.1919 20.622 94.2421 20.665 94.2708 20.6363C94.2421 20.5933 94.3209 20.536 94.5073 20.4643C94.708 20.3783 94.9876 20.2922 95.346 20.2062C95.7187 20.1202 96.1488 20.0342 96.6362 19.9482C97.1236 19.8478 97.6469 19.7475 98.2059 19.6471C98.1486 21.1667 98.0984 22.6792 98.0554 24.1844C98.0124 25.6753 97.9694 27.0301 97.9264 28.2486C97.8691 29.6679 97.8261 31.0298 97.7974 32.3343C97.8547 32.4347 97.9551 32.5207 98.0984 32.5924C98.2418 32.6641 98.3852 32.7142 98.5285 32.7429C98.6862 32.7859 98.8296 32.8003 98.9586 32.7859C99.1019 32.7859 99.1951 32.7644 99.2381 32.7214L100.206 19.3246C100.822 19.2242 101.424 19.131 102.012 19.045C102.614 18.959 103.152 18.8873 103.625 18.83C104.098 18.7726 104.485 18.7296 104.786 18.701C105.101 18.6723 105.288 18.6651 105.345 18.6795C105.431 18.7081 105.546 18.6006 105.689 18.3569C105.833 18.0989 105.962 17.8193 106.076 17.5183C106.191 17.2029 106.277 16.9162 106.334 16.6581ZM114.097 6.98142C114.083 6.72337 114.069 6.59435 114.054 6.59435C113.882 6.55134 113.495 6.52267 112.893 6.50834C112.305 6.494 111.567 6.50117 110.678 6.52984C109.789 6.55851 108.779 6.60869 107.646 6.68037C106.528 6.75205 105.345 6.8524 104.098 6.98142C102.851 7.11044 101.575 7.26814 100.27 7.4545C98.9801 7.64087 97.7114 7.87024 96.4642 8.14262C95.2313 8.40067 94.0557 8.70172 92.9375 9.04578C91.8337 9.38984 90.8517 9.78408 89.9915 10.2285C89.8195 10.3145 89.7478 10.4149 89.7765 10.5295C89.8052 10.6442 89.8768 10.7517 89.9915 10.8521C90.1205 10.9668 90.2854 11.0815 90.4861 11.1962C90.9879 10.9094 91.6616 10.6442 92.5075 10.4005C93.3676 10.1568 94.3353 9.94177 95.4105 9.7554C96.4857 9.5547 97.6325 9.38267 98.8511 9.23931C100.084 9.08162 101.324 8.9526 102.571 8.85225C103.818 8.7519 105.044 8.68022 106.248 8.63721C107.453 8.5942 108.571 8.58703 109.603 8.6157C110.635 8.63004 111.545 8.68022 112.334 8.76623C113.137 8.83791 113.746 8.94543 114.162 9.08879C114.162 8.63004 114.155 8.2143 114.14 7.84157C114.126 7.52618 114.112 7.23947 114.097 6.98142ZM107.495 19.088C107.581 19.0737 107.725 19.0809 107.925 19.1095C108.126 19.1239 108.32 19.1669 108.506 19.2386C108.707 19.3102 108.879 19.4249 109.022 19.5826C109.165 19.726 109.23 19.9267 109.216 20.1847C109.201 20.2421 109.18 20.5145 109.151 21.0019C109.122 21.475 109.087 22.0627 109.044 22.7652C109.015 23.4533 108.979 24.1916 108.936 24.9801C108.907 25.7685 108.886 26.4997 108.871 27.1735C108.857 27.8329 108.857 28.392 108.871 28.8507C108.886 29.2952 108.929 29.5174 109.001 29.5174C109.158 29.5317 109.316 29.4242 109.474 29.1948C109.646 28.9654 109.81 28.6787 109.968 28.3347C110.126 27.9906 110.269 27.6179 110.398 27.2165C110.542 26.8151 110.671 26.4423 110.785 26.0983C110.821 25.9918 110.854 25.8908 110.884 25.7953C110.917 24.7774 110.94 23.9465 110.953 23.3028C110.967 22.543 110.967 21.9265 110.953 21.4535C110.938 20.9804 110.917 20.5861 110.888 20.2707C110.86 19.9554 110.817 19.6041 110.759 19.2171C110.745 19.131 110.845 19.0665 111.06 19.0235C111.275 18.9805 111.512 18.9734 111.77 19.002C112.042 19.0164 112.286 19.088 112.501 19.2171C112.73 19.3461 112.838 19.5396 112.824 19.7977L112.759 21.819C112.888 21.4606 113.046 21.1094 113.232 20.7653C113.433 20.4069 113.662 20.0915 113.92 19.8192C114.193 19.5324 114.494 19.3031 114.823 19.131C115.168 18.959 115.547 18.8802 115.963 18.8945C116.494 18.9088 116.909 19.0809 117.21 19.4106C117.526 19.726 117.762 20.1417 117.92 20.6578C118.078 21.1739 118.171 21.7617 118.2 22.4211C118.228 23.0662 118.228 23.7328 118.2 24.421C118.171 25.0948 118.121 25.7614 118.049 26.4208C117.992 27.0803 117.949 27.668 117.92 28.1841C117.891 28.7002 117.891 29.1231 117.92 29.4528C117.949 29.7826 118.042 29.9546 118.2 29.9689C118.486 30.0119 118.759 29.9188 119.017 29.6894C119.275 29.4457 119.504 29.1375 119.705 28.7647C119.905 28.3777 120.092 27.9619 120.264 27.5175C120.436 27.0731 120.579 26.6574 120.694 26.2703L120.711 26.2181L120.731 26.1538L120.743 26.117L120.762 26.0579C120.755 25.8306 120.754 25.5932 120.757 25.3456C120.771 24.2704 120.864 23.3673 121.036 22.6361C121.223 21.8907 121.445 21.2814 121.703 20.8083C121.961 20.3352 122.248 19.9697 122.563 19.7116C122.878 19.4393 123.179 19.2457 123.466 19.131C123.767 19.0163 124.025 18.9518 124.24 18.9375C124.47 18.9088 124.635 18.8945 124.735 18.8945C124.95 18.8945 125.136 18.9447 125.294 19.045C125.466 19.131 125.617 19.2457 125.746 19.3891C125.889 19.5181 126.004 19.6615 126.09 19.8192C126.19 19.9768 126.269 20.1274 126.326 20.2707C126.355 19.9123 126.383 19.6328 126.412 19.4321C126.441 19.2171 126.469 19.1024 126.498 19.088C126.584 19.0737 126.728 19.0809 126.928 19.1095C127.129 19.1239 127.33 19.1669 127.53 19.2386C127.731 19.3102 127.903 19.4249 128.046 19.5826C128.19 19.726 128.247 19.9267 128.218 20.1847C128.204 20.2421 128.183 20.5144 128.154 21.0019C128.125 21.4749 128.089 22.0627 128.046 22.7652C128.018 23.4533 127.989 24.1916 127.96 24.9801C127.932 25.7685 127.91 26.4997 127.896 27.1734C127.882 27.8329 127.882 28.392 127.896 28.8507C127.91 29.2951 127.946 29.5173 128.003 29.5173C128.161 29.5317 128.319 29.4242 128.477 29.1948C128.649 28.9654 128.813 28.6787 128.971 28.3346C129.129 27.9906 129.279 27.6178 129.423 27.2164C129.566 26.815 129.688 26.4423 129.788 26.0983C129.855 25.8983 129.912 25.7178 129.959 25.5566C129.989 24.6467 130.009 23.8955 130.02 23.3028C130.035 22.543 130.035 21.9265 130.02 21.4535C130.006 20.9804 129.985 20.5861 129.956 20.2707C129.927 19.9554 129.884 19.6041 129.827 19.2171C129.813 19.131 129.913 19.0665 130.128 19.0235C130.343 18.9805 130.58 18.9734 130.838 19.002C131.11 19.0164 131.354 19.088 131.569 19.2171C131.798 19.3461 131.906 19.5396 131.891 19.7977L131.827 21.819C131.956 21.4606 132.114 21.1094 132.3 20.7653C132.501 20.4069 132.73 20.0915 132.988 19.8192C133.26 19.5324 133.561 19.3031 133.891 19.131C134.235 18.959 134.615 18.8802 135.031 18.8945C135.561 18.9088 135.977 19.0809 136.278 19.4106C136.593 19.726 136.83 20.1417 136.988 20.6578C137.145 21.1739 137.239 21.7617 137.267 22.4211C137.296 23.0662 137.296 23.7328 137.267 24.421C137.239 25.0948 137.188 25.7614 137.117 26.4208C137.059 27.0803 137.016 27.668 136.988 28.1841C136.959 28.7002 136.959 29.1231 136.988 29.4528C137.016 29.7826 137.11 29.9546 137.267 29.9689C137.554 30.0119 137.826 29.9188 138.084 29.6894C138.342 29.4457 138.572 29.1375 138.773 28.7647C138.973 28.3777 139.16 27.9619 139.332 27.5175C139.504 27.0731 139.647 26.6574 139.762 26.2703C139.832 26.0528 139.893 25.8563 139.946 25.6809L139.949 25.5948L139.952 25.511L139.953 25.4531C139.968 25.0231 140.004 24.5428 140.061 24.0124C140.133 23.4676 140.233 22.9085 140.362 22.3351C140.505 21.7473 140.699 21.2097 140.943 20.7223C141.186 20.2349 141.48 19.8263 141.824 19.4966C142.183 19.1525 142.62 18.9518 143.136 18.8945C143.666 18.8372 144.118 18.9949 144.491 19.3676C144.878 19.7403 145.165 20.2206 145.351 20.8083C145.552 21.3818 145.645 22.0125 145.63 22.7007C145.616 23.3745 145.494 23.9837 145.265 24.5285C145.165 24.6575 145.043 24.7794 144.899 24.894C144.77 24.9944 144.641 25.0661 144.512 25.1091C144.383 25.1378 144.276 25.1234 144.19 25.0661C144.118 25.0087 144.082 24.8725 144.082 24.6575C144.269 24.1127 144.369 23.5465 144.383 22.9587C144.412 22.3709 144.376 21.8333 144.276 21.3459C144.175 20.8585 144.025 20.4643 143.824 20.1632C143.638 19.8622 143.43 19.726 143.201 19.7547C143 19.7833 142.813 20.0485 142.641 20.5503C142.469 21.052 142.319 21.6542 142.19 22.3566C142.075 23.0447 141.982 23.7544 141.91 24.4855C141.839 25.2166 141.803 25.8187 141.803 26.2918C141.788 27.0803 141.846 27.7254 141.975 28.2271C142.104 28.7145 142.262 29.0944 142.448 29.3668C142.634 29.6392 142.821 29.8256 143.007 29.9259C143.193 30.0119 143.337 30.0478 143.437 30.0334C143.81 30.0048 144.154 29.8901 144.469 29.6894C144.785 29.4743 145.064 29.2091 145.308 28.8937C145.566 28.564 145.788 28.2056 145.975 27.8186C146.175 27.4315 146.347 27.0516 146.491 26.6789C146.634 26.3061 146.741 25.9621 146.813 25.6467C146.85 25.5071 146.882 25.3803 146.911 25.2664C146.928 24.8795 146.962 24.4544 147.012 23.9909C147.084 23.4461 147.184 22.887 147.313 22.3136C147.456 21.7258 147.65 21.1882 147.894 20.7008C148.137 20.199 148.431 19.7833 148.775 19.4536C149.134 19.1239 149.571 18.9375 150.087 18.8945C150.66 18.8371 151.126 18.9805 151.485 19.3246C151.857 19.6686 152.144 20.1059 152.345 20.6363C152.56 21.1667 152.696 21.7401 152.753 22.3566C152.825 22.973 152.839 23.5321 152.796 24.0339C152.696 25.1091 152.488 25.9549 152.173 26.5713C151.872 27.1878 151.528 27.6608 151.141 27.9906C150.768 28.306 150.388 28.5067 150.001 28.5927C149.614 28.6787 149.306 28.7217 149.076 28.7217C149.277 29.2665 149.513 29.632 149.786 29.8184C150.058 29.9904 150.259 30.0621 150.388 30.0334C150.761 30.0048 151.105 29.8901 151.42 29.6894C151.736 29.4743 152.015 29.2091 152.259 28.8937C152.517 28.564 152.739 28.2056 152.925 27.8185C153.126 27.4315 153.298 27.0516 153.442 26.6788C153.585 26.3061 153.692 25.962 153.764 25.6467C153.85 25.3169 153.915 25.0589 153.958 24.8725C153.986 24.8008 154.094 24.7722 154.28 24.7865C154.467 24.7865 154.574 24.8582 154.603 25.0015C154.603 25.0446 154.567 25.2238 154.495 25.5391C154.424 25.8402 154.309 26.2129 154.151 26.6573C153.993 27.0874 153.793 27.5533 153.549 28.0551C153.305 28.5425 153.011 29.0012 152.667 29.4313C152.338 29.8471 151.951 30.2055 151.506 30.5065C151.076 30.7932 150.596 30.9509 150.065 30.9796C149.592 31.0083 149.184 30.9294 148.84 30.743C148.496 30.5423 148.209 30.2915 147.98 29.9904C147.75 29.675 147.557 29.331 147.399 28.9582C147.256 28.5712 147.148 28.2056 147.076 27.8615C147.031 27.6367 146.995 27.4316 146.967 27.2463C146.857 27.5047 146.735 27.7743 146.598 28.0551C146.354 28.5425 146.061 29.0013 145.716 29.4313C145.387 29.8471 145 30.2055 144.555 30.5065C144.125 30.7932 143.645 30.9509 143.114 30.9796C142.641 31.0083 142.233 30.9294 141.889 30.7431C141.545 30.5424 141.258 30.2915 141.029 29.9904C140.799 29.6751 140.606 29.331 140.448 28.9583C140.305 28.5712 140.197 28.2056 140.125 27.8616L140.118 27.8257C140.007 28.0933 139.88 28.3633 139.74 28.6357C139.511 29.1088 139.231 29.5317 138.902 29.9044C138.586 30.2772 138.228 30.5782 137.826 30.8076C137.439 31.0226 137.009 31.1015 136.536 31.0441C136.12 31.0011 135.805 30.8076 135.59 30.4635C135.389 30.1195 135.253 29.6822 135.181 29.1518C135.11 28.6214 135.081 28.0264 135.095 27.367C135.11 26.6932 135.138 26.0194 135.181 25.3456C135.224 24.6718 135.253 24.0196 135.267 23.3888C135.282 22.7437 135.246 22.1846 135.16 21.7115C135.088 21.2241 134.945 20.8513 134.73 20.5933C134.529 20.3209 134.214 20.2134 133.784 20.2707C133.454 20.3281 133.167 20.5575 132.923 20.9589C132.694 21.3603 132.501 21.819 132.343 22.3351C132.2 22.8369 132.078 23.3314 131.977 23.8189C131.891 24.3063 131.82 24.6575 131.762 24.8725C131.734 26.1771 131.726 27.324 131.741 28.3132C131.755 29.3023 131.805 30.098 131.891 30.7001C131.906 30.7861 131.798 30.8506 131.569 30.8936C131.354 30.9366 131.11 30.9509 130.838 30.9366C130.565 30.9079 130.322 30.8291 130.107 30.7001C129.891 30.571 129.798 30.3775 129.827 30.1195C129.827 30.0765 129.841 29.7037 129.87 29.0013C129.884 28.6637 129.898 28.2798 129.911 27.8496C129.879 27.9313 129.845 28.0141 129.81 28.0981C129.609 28.5999 129.38 29.0658 129.122 29.4958C128.864 29.9116 128.577 30.2628 128.261 30.5495C127.946 30.8219 127.616 30.9509 127.272 30.9366C127.086 30.9366 126.928 30.9008 126.799 30.8291C126.67 30.7431 126.556 30.6355 126.455 30.5065C126.355 30.3775 126.276 30.2341 126.219 30.0764C126.161 29.9188 126.111 29.7611 126.068 29.6034C125.867 29.9474 125.645 30.2126 125.401 30.399C125.158 30.5854 124.914 30.7216 124.67 30.8076C124.441 30.8936 124.233 30.9438 124.047 30.9581C123.86 30.9581 123.724 30.9509 123.638 30.9366C123.437 30.9223 123.172 30.8577 122.843 30.7431C122.513 30.614 122.19 30.3632 121.875 29.9904C121.559 29.6034 121.287 29.0443 121.058 28.3131C121.028 28.2134 121.001 28.1089 120.976 27.9996C120.884 28.2102 120.782 28.4222 120.672 28.6357C120.443 29.1088 120.164 29.5317 119.834 29.9044C119.518 30.2772 119.16 30.5782 118.759 30.8076C118.372 31.0226 117.941 31.1015 117.468 31.0441C117.053 31.0011 116.737 30.8076 116.522 30.4635C116.322 30.1195 116.185 29.6822 116.114 29.1518C116.042 28.6214 116.013 28.0264 116.028 27.367C116.042 26.6932 116.071 26.0194 116.114 25.3456C116.157 24.6718 116.185 24.0196 116.2 23.3888C116.214 22.7437 116.178 22.1846 116.092 21.7115C116.02 21.2241 115.877 20.8513 115.662 20.5933C115.461 20.3209 115.146 20.2134 114.716 20.2707C114.386 20.3281 114.099 20.5575 113.856 20.9589C113.626 21.3603 113.433 21.819 113.275 22.3351C113.132 22.8369 113.01 23.3314 112.91 23.8189C112.824 24.3063 112.752 24.6575 112.695 24.8725C112.666 26.1771 112.659 27.324 112.673 28.3132C112.687 29.3023 112.738 30.098 112.824 30.7001C112.838 30.7861 112.73 30.8506 112.501 30.8936C112.286 30.9366 112.042 30.9509 111.77 30.9366C111.498 30.9079 111.254 30.8291 111.039 30.7001C110.824 30.571 110.731 30.3775 110.759 30.1195C110.759 30.0765 110.774 29.7037 110.802 29.0013C110.814 28.7097 110.826 28.3837 110.838 28.023L110.822 28.061L110.807 28.0981C110.606 28.5999 110.377 29.0658 110.119 29.4959C109.861 29.9116 109.574 30.2628 109.259 30.5495C108.943 30.8219 108.613 30.9509 108.269 30.9366C108.026 30.9366 107.818 30.8649 107.646 30.7216C107.488 30.5639 107.359 30.3847 107.259 30.184C107.173 29.9833 107.101 29.7754 107.044 29.5604C107.001 29.3453 106.972 29.1733 106.958 29.0443C106.943 28.9583 106.943 28.6572 106.958 28.1411C106.972 27.6107 106.993 26.9799 107.022 26.2488C107.036 25.5033 107.065 24.7149 107.108 23.8834C107.151 23.0519 107.194 22.2849 107.237 21.5825C107.28 20.8657 107.323 20.2779 107.366 19.8192C107.409 19.3461 107.452 19.1024 107.495 19.088ZM107.087 15.6689C107.087 15.1815 107.216 14.7658 107.474 14.4217C107.746 14.0777 108.069 13.9056 108.441 13.9056C108.814 13.9056 109.13 14.0777 109.388 14.4217C109.646 14.7658 109.775 15.1815 109.775 15.6689C109.775 16.1564 109.646 16.5721 109.388 16.9162C109.13 17.2602 108.814 17.4323 108.441 17.4323C108.069 17.4323 107.746 17.2602 107.474 16.9162C107.216 16.5721 107.087 16.1564 107.087 15.6689ZM148.754 26.2918C148.739 26.6788 148.747 27.0301 148.775 27.3455C148.804 27.6608 148.847 27.9404 148.904 28.1841C149.076 28.1984 149.291 28.1769 149.549 28.1196C149.822 28.0622 150.087 27.9046 150.345 27.6465C150.603 27.3741 150.832 26.9656 151.033 26.4208C151.234 25.876 151.363 25.1162 151.42 24.1414C151.492 22.5788 151.413 21.4391 151.184 20.7223C150.954 19.9912 150.61 19.6686 150.151 19.7546C150.008 19.7833 149.879 19.9195 149.764 20.1632C149.65 20.4069 149.535 20.7223 149.42 21.1094C149.32 21.4821 149.227 21.905 149.141 22.3781C149.069 22.8368 149.005 23.3099 148.947 23.7973C148.89 24.2704 148.84 24.7292 148.797 25.1736C148.768 25.6037 148.754 25.9764 148.754 26.2918ZM124.305 29.9044C124.577 29.9044 124.807 29.8399 124.993 29.7109C125.179 29.5675 125.33 29.4027 125.444 29.2163C125.574 29.0156 125.674 28.8077 125.746 28.5927C125.832 28.3633 125.903 28.1483 125.961 27.9476C125.961 27.5748 125.968 27.1376 125.982 26.6358C126.011 26.1198 126.032 25.5822 126.047 25.0231L126.133 23.3028C126.176 22.7293 126.211 22.1846 126.24 21.6685C126.211 21.6971 126.197 21.6541 126.197 21.5395C126.211 21.3531 126.176 21.1596 126.09 20.9589C126.018 20.7438 125.918 20.5503 125.789 20.3783C125.66 20.2062 125.516 20.0629 125.358 19.9482C125.201 19.8335 125.05 19.7761 124.907 19.7761C124.635 19.7761 124.391 19.8837 124.176 20.0987C123.975 20.2994 123.796 20.5718 123.638 20.9158C123.48 21.2456 123.344 21.6183 123.23 22.034C123.129 22.4354 123.043 22.8368 122.972 23.2383C122.914 23.6397 122.864 24.0124 122.821 24.3564C122.792 24.7005 122.771 24.9729 122.757 25.1736C122.728 25.4603 122.721 25.8689 122.735 26.3993C122.764 26.9297 122.828 27.4602 122.929 27.9906C123.029 28.521 123.187 28.9798 123.402 29.3668C123.617 29.7396 123.918 29.9188 124.305 29.9044ZM78.2246 16.6366C78.2331 16.2988 78.2403 15.9691 78.2462 15.6474H78.1429C77.8848 15.6331 77.5838 15.6259 77.2397 15.6259C76.91 15.6116 76.5587 15.5973 76.186 15.5829C76.1573 16.5291 76.1215 17.5326 76.0785 18.5934C76.0498 19.6543 76.0211 20.7008 75.9925 21.733C75.9781 22.7652 75.9638 23.7544 75.9495 24.7005C75.9351 25.6323 75.928 26.4567 75.928 27.1734C75.928 27.8902 75.9351 28.4637 75.9495 28.8937C75.9781 29.3095 76.014 29.5174 76.057 29.5174C76.2147 29.5317 76.3724 29.4242 76.5301 29.1948C76.7021 28.9654 76.8598 28.6787 77.0032 28.3346C77.1608 27.9906 77.3114 27.6179 77.4547 27.2165C77.5981 26.815 77.7199 26.4423 77.8203 26.0983C77.8834 25.9089 77.94 25.737 77.9901 25.5824C78.0109 24.9299 78.0317 24.213 78.0526 23.4318C78.0812 22.3423 78.1099 21.2241 78.1386 20.0772C78.1673 18.916 78.1959 17.7691 78.2246 16.6366ZM69.3732 26.0122C68.7998 25.5248 68.3554 24.8295 68.04 23.9264C68.1117 23.525 68.2049 23.1522 68.3196 22.8082C68.4486 22.4641 68.5919 22.1631 68.7496 21.905C68.807 21.819 68.721 21.7043 68.4916 21.5609C68.2765 21.4176 68.0257 21.2886 67.739 21.1739C67.7963 20.9588 67.868 20.7366 67.954 20.5073C68.04 20.2779 68.1475 20.0772 68.2765 19.9052C68.4199 19.7188 68.5776 19.5754 68.7496 19.4751C68.936 19.3604 69.1439 19.3174 69.3732 19.3461C69.7746 19.4177 70.1115 19.6973 70.3839 20.1847C70.6706 20.6721 70.8857 21.2742 71.029 21.991C71.1867 22.6935 71.2799 23.4676 71.3086 24.3134C71.3516 25.1592 71.3372 25.9692 71.2656 26.7434C70.5775 26.729 69.9467 26.4853 69.3732 26.0122ZM69.2872 27.2594C69.8607 27.5748 70.4771 27.7397 71.1365 27.754C71.0219 28.4421 70.8498 29.0156 70.6205 29.4743C70.4054 29.9331 70.1474 30.2126 69.8463 30.313C69.4736 30.442 69.151 30.399 68.8787 30.184C68.6063 29.9689 68.3841 29.6464 68.212 29.2163C68.0543 28.7862 67.9397 28.2773 67.868 27.6895C67.7963 27.1017 67.7748 26.4925 67.8035 25.8617C68.2192 26.4638 68.7138 26.9297 69.2872 27.2594ZM62.0582 21.0449C62.0295 21.1739 61.9937 21.3818 61.9507 21.6685C61.922 21.9552 61.8933 22.2849 61.8647 22.6577C62.051 22.4856 62.2517 22.2563 62.4668 21.9695C62.6961 21.6685 62.9255 21.3029 63.1549 20.8728C63.3986 20.4284 63.6351 19.9052 63.8645 19.3031C64.0939 18.6866 64.3089 17.977 64.5096 17.1742C64.7247 16.3427 64.8824 15.5184 64.9827 14.7013C65.0831 13.8841 65.1332 13.1673 65.1332 12.5509C65.1332 11.9201 65.0831 11.4255 64.9827 11.0671C64.8824 10.7087 64.7247 10.5654 64.5096 10.6371C64.3233 10.7087 64.1441 10.9525 63.972 11.3682C63.8 11.7839 63.6351 12.3 63.4774 12.9165C63.3198 13.5329 63.1764 14.221 63.0474 14.9808C62.9184 15.7263 62.7965 16.4789 62.6818 17.2387C62.5671 17.9842 62.4524 18.6938 62.3377 19.3676C62.2374 20.027 62.1442 20.5861 62.0582 21.0449Z" fill="white"/>
<path fill-rule="evenodd" clip-rule="evenodd" d="M17.296 35.9158C26.8246 35.9158 34.5491 28.1913 34.5491 18.6627C34.5491 9.13412 26.8246 1.40967 17.296 1.40967C7.76742 1.40967 0.0429688 9.13412 0.0429688 18.6627C0.0429688 28.1913 7.76742 35.9158 17.296 35.9158ZM17.2961 34.4534C26.0171 34.4534 33.0868 27.3837 33.0868 18.6627C33.0868 9.94175 26.0171 2.87201 17.2961 2.87201C8.57513 2.87201 1.50539 9.94175 1.50539 18.6627C1.50539 27.3837 8.57513 34.4534 17.2961 34.4534Z" fill="#6DA316"/>
<mask id="mask0_153_3032" style="mask-type:alpha" maskUnits="userSpaceOnUse" x="1" y="2" width="33" height="33">
<circle cx="17.2966" cy="18.6628" r="15.7907" fill="white"/>
</mask>
<g mask="url(#mask0_153_3032)">
<path d="M36.3745 8.05932C37.1418 8.97208 39.3273 12.6934 34.2154 21.5969C34.1994 21.6245 34.1781 21.6486 34.1526 21.6678C34.1271 21.687 34.098 21.7008 34.0671 21.7085C34.0361 21.7162 34.0039 21.7176 33.9724 21.7126C33.941 21.7076 33.9108 21.6963 33.8837 21.6794L30.2878 19.4159L32.7606 23.0777C32.7924 23.1163 32.8111 23.1639 32.814 23.2138C32.8169 23.2636 32.8039 23.3131 32.7768 23.3551C32.2175 24.2251 29.2145 28.7975 26.2864 31.4376C26.2352 31.4834 26.1725 31.5145 26.105 31.5276C26.0375 31.5407 25.9677 31.5352 25.903 31.5118L20.2693 29.6261L24.1931 33.2196C24.2383 33.259 24.2669 33.3141 24.273 33.3738C24.2791 33.4335 24.2623 33.4933 24.226 33.5411C23.4283 34.5837 18.9145 39.6823 13.0297 34.9276L13.0299 34.9269C16.3376 33.8616 17.5234 31.5983 17.8714 29.5621L17.8903 29.5656C23.8449 24.8071 31.6778 17.3391 36.3745 8.05932Z" fill="#BFDD8F"/>
<path d="M36.1468 7.82495C36.2288 7.89633 36.3045 7.97476 36.3729 8.05934C31.676 17.3391 23.8431 24.8071 17.8886 29.5656L17.8697 29.5622C17.9852 28.863 18.0213 28.153 17.9773 27.4457C22.8616 23.3726 29.1314 17.1025 35.6778 7.80962C35.8343 7.80092 35.9912 7.80605 36.1468 7.82495Z" fill="#42997F"/>
<path d="M30.0043 10.2278C30.7907 9.68616 33.7561 7.90212 35.6777 7.80986C29.1312 17.1027 22.8614 23.3729 17.9771 27.4459C17.9443 26.8762 17.864 26.3101 17.7369 25.7538C17.7234 25.6953 17.688 25.6442 17.6381 25.6109C17.5882 25.5776 17.5274 25.5646 17.4682 25.5746L12.1999 26.321L17.2359 23.1687C17.2952 23.1339 17.3439 23.0836 17.3768 23.0232C17.4096 22.9627 17.4253 22.8945 17.4222 22.8258C17.3688 21.6479 17.1865 20.3554 16.9487 19.0956C17.2196 18.8992 17.5009 18.7021 17.7928 18.5044C17.871 18.4515 17.9646 18.4262 18.0588 18.4326C18.153 18.439 18.2424 18.4767 18.3127 18.5397L22.076 21.5322L20.213 16.7972C20.1694 16.7021 20.1628 16.5941 20.1944 16.4944C20.226 16.3946 20.2935 16.3101 20.3838 16.2573L27.5136 12.1065C27.5915 12.0611 27.6819 12.0418 27.7716 12.0515C27.8613 12.0613 27.9455 12.0995 28.0118 12.1606L29.9945 13.4308L29.8268 10.6414C29.8145 10.5627 29.8246 10.4822 29.856 10.4091C29.8874 10.3359 29.9388 10.2731 30.0043 10.2278Z" fill="#BFDD8F"/>
<path d="M17.8708 29.5623C17.5228 31.5984 16.337 33.8617 13.0293 34.927C12.1216 35.2108 11.1853 35.3932 10.2375 35.471C10.8398 29.3577 11.6408 13.5221 5.78291 0.180871C6.97457 0.167631 11.2363 0.84369 14.8642 10.4492C14.8754 10.4792 14.8805 10.5111 14.879 10.543C14.8776 10.5749 14.8698 10.6063 14.856 10.6351C14.8422 10.6639 14.8227 10.6897 14.7987 10.7108C14.7747 10.7319 14.7467 10.748 14.7164 10.7581L10.6846 12.0968L15.0824 12.5141C15.1324 12.5139 15.1812 12.5297 15.2217 12.5591C15.2622 12.5885 15.2923 12.63 15.3076 12.6776C15.529 13.3679 16.393 16.1415 16.9499 19.0955C17.1878 20.3553 17.37 21.6478 17.4235 22.8256C17.4266 22.8944 17.4109 22.9626 17.378 23.023C17.3452 23.0835 17.2965 23.1338 17.2371 23.1686L12.2012 26.3208L17.4695 25.5745C17.5286 25.5645 17.5894 25.5775 17.6393 25.6108C17.6893 25.6441 17.7246 25.6952 17.7381 25.7537C17.8652 26.31 17.9456 26.8761 17.9784 27.4458C18.0224 28.1531 17.9863 28.8631 17.8708 29.5623Z" fill="#BFDD8F"/>
<path d="M9.92738 38.0555L7.99284 38.3769C7.99284 38.3769 8.2817 37.3225 8.55954 35.2874C9.28516 29.9698 9.93361 17.9529 5.14825 0.558551L5.14845 0.55781C5.24149 0.43181 5.34526 0.314096 5.4586 0.205987C5.56574 0.18841 5.6742 0.180032 5.78277 0.180943C11.6407 13.5222 10.8397 29.3578 10.2373 35.4711C10.0747 37.1148 9.92738 38.0555 9.92738 38.0555Z" fill="#42997F"/>
<path d="M8.55883 35.2872C8.55883 35.2872 0.812061 34.1877 2.04073 21.1636C2.04924 21.0695 2.08905 20.9811 2.1538 20.9124C2.21854 20.8437 2.30447 20.7987 2.39782 20.7846L7.10032 19.7803L2.25982 18.2103C2.15872 18.1832 2.07124 18.1196 2.0143 18.0318C1.95735 17.944 1.93498 17.8382 1.9515 17.7348L3.27714 9.59149C3.29179 9.50262 3.33451 9.42077 3.39905 9.35794C3.46358 9.29511 3.54654 9.2546 3.63578 9.24234L5.87648 8.51891L3.61609 6.87513C3.54741 6.83483 3.49156 6.77588 3.45503 6.70513C3.4185 6.63437 3.40278 6.55471 3.40971 6.47538C3.4908 5.52407 3.99785 2.10036 5.14754 0.55839C9.93291 17.9528 9.28445 29.9697 8.55883 35.2872Z" fill="#BFDD8F"/>
<path d="M4.2623 21.7588C4.2708 21.6648 4.31062 21.5764 4.37536 21.5077C4.44011 21.4389 4.52604 21.394 4.61939 21.3799L8.78141 20.4911C8.77324 20.3915 8.76552 20.2927 8.75699 20.1924L4.48138 18.8056C4.38028 18.7785 4.29281 18.7149 4.23586 18.6271C4.17892 18.5393 4.15654 18.4334 4.17307 18.3301L5.49871 10.1868C5.51335 10.0979 5.55607 10.016 5.62061 9.95321C5.68515 9.89038 5.76811 9.84987 5.85734 9.83761L7.22904 9.39474C7.16013 9.04157 7.08912 8.68576 7.016 8.32733L5.83758 7.47037C5.7689 7.43008 5.71305 7.37113 5.67652 7.30038C5.63999 7.22962 5.62428 7.14995 5.6312 7.07062C5.72752 6.13246 5.8879 5.20198 6.11122 4.28571C5.81737 3.07203 5.49614 1.82959 5.14754 0.558391C3.99785 2.10036 3.4908 5.52407 3.40971 6.47538C3.40278 6.55471 3.4185 6.63437 3.45503 6.70513C3.49156 6.77588 3.54741 6.83483 3.61609 6.87513L5.87648 8.51891L3.63578 9.24234C3.54654 9.2546 3.46358 9.29511 3.39905 9.35794C3.33451 9.42077 3.29179 9.50262 3.27714 9.59149L1.9515 17.7348C1.93498 17.8382 1.95735 17.944 2.0143 18.0318C2.07124 18.1196 2.15872 18.1832 2.25982 18.2103L7.10032 19.7803L2.39782 20.7846C2.30447 20.7987 2.21854 20.8437 2.1538 20.9124C2.08905 20.9811 2.04924 21.0695 2.04073 21.1636C0.812061 34.1877 8.55883 35.2872 8.55883 35.2872C8.57268 35.1856 8.58617 35.0839 8.59932 34.9821C6.41102 33.5986 3.46987 30.1592 4.2623 21.7588Z" fill="#BFDD8F"/>
</g>
<mask id="mask1_153_3032" style="mask-type:alpha" maskUnits="userSpaceOnUse" x="1" y="-1" width="39" height="23">
<rect x="1.50586" y="-0.496826" width="37.9748" height="22.4472" fill="#D9D9D9"/>
</mask>
<g mask="url(#mask1_153_3032)">
<path d="M36.3745 8.05932C37.1418 8.97208 39.3273 12.6934 34.2154 21.5969C34.1994 21.6245 34.1781 21.6486 34.1526 21.6678C34.1271 21.687 34.098 21.7008 34.0671 21.7085C34.0361 21.7162 34.0039 21.7176 33.9724 21.7126C33.941 21.7076 33.9108 21.6963 33.8837 21.6794L30.2878 19.4159L32.7606 23.0777C32.7924 23.1163 32.8111 23.1639 32.814 23.2138C32.8169 23.2636 32.8039 23.3131 32.7768 23.3551C32.2175 24.2251 29.2145 28.7975 26.2864 31.4376C26.2352 31.4834 26.1725 31.5145 26.105 31.5276C26.0375 31.5407 25.9677 31.5352 25.903 31.5118L20.2693 29.6261L24.1931 33.2196C24.2383 33.259 24.2669 33.3141 24.273 33.3738C24.2791 33.4335 24.2623 33.4933 24.226 33.5411C23.4283 34.5837 18.9145 39.6823 13.0297 34.9276L13.0299 34.9269C16.3376 33.8616 17.5234 31.5983 17.8714 29.5621L17.8903 29.5656C23.8449 24.8071 31.6778 17.3391 36.3745 8.05932Z" fill="#BFDD8F"/>
<path d="M36.1468 7.82495C36.2288 7.89633 36.3045 7.97476 36.3729 8.05934C31.676 17.3391 23.8431 24.8071 17.8886 29.5656L17.8697 29.5622C17.9852 28.863 18.0213 28.153 17.9773 27.4457C22.8616 23.3726 29.1314 17.1025 35.6778 7.80962C35.8343 7.80092 35.9912 7.80605 36.1468 7.82495Z" fill="#6DA316"/>
<path d="M30.0043 10.2278C30.7907 9.68616 33.7561 7.90212 35.6777 7.80986C29.1312 17.1027 22.8614 23.3729 17.9771 27.4459C17.9443 26.8762 17.864 26.3101 17.7369 25.7538C17.7234 25.6953 17.688 25.6442 17.6381 25.6109C17.5882 25.5776 17.5274 25.5646 17.4682 25.5746L12.1999 26.321L17.2359 23.1687C17.2952 23.1339 17.3439 23.0836 17.3768 23.0232C17.4096 22.9627 17.4253 22.8945 17.4222 22.8258C17.3688 21.6479 17.1865 20.3554 16.9487 19.0956C17.2196 18.8992 17.5009 18.7021 17.7928 18.5044C17.871 18.4515 17.9646 18.4262 18.0588 18.4326C18.153 18.439 18.2424 18.4767 18.3127 18.5397L22.076 21.5322L20.213 16.7972C20.1694 16.7021 20.1628 16.5941 20.1944 16.4944C20.226 16.3946 20.2935 16.3101 20.3838 16.2573L27.5136 12.1065C27.5915 12.0611 27.6819 12.0418 27.7716 12.0515C27.8613 12.0613 27.9455 12.0995 28.0118 12.1606L29.9945 13.4308L29.8268 10.6414C29.8145 10.5627 29.8246 10.4822 29.856 10.4091C29.8874 10.3359 29.9388 10.2731 30.0043 10.2278Z" fill="#BFDD8F"/>
<path d="M17.8708 29.5623C17.5228 31.5984 16.337 33.8617 13.0293 34.927C12.1216 35.2107 11.1853 35.3932 10.2375 35.471C10.8398 29.3577 11.6408 13.5221 5.78291 0.180871C6.97457 0.167631 11.2363 0.84369 14.8642 10.4492C14.8754 10.4792 14.8805 10.5111 14.879 10.543C14.8776 10.5749 14.8698 10.6062 14.856 10.6351C14.8422 10.6639 14.8227 10.6897 14.7987 10.7108C14.7747 10.7319 14.7467 10.748 14.7164 10.758L10.6846 12.0968L15.0824 12.5141C15.1324 12.5139 15.1812 12.5297 15.2217 12.5591C15.2622 12.5885 15.2923 12.63 15.3076 12.6776C15.529 13.3679 16.393 16.1415 16.9499 19.0955C17.1878 20.3553 17.37 21.6478 17.4235 22.8256C17.4266 22.8943 17.4109 22.9626 17.378 23.023C17.3452 23.0835 17.2965 23.1338 17.2371 23.1686L12.2012 26.3208L17.4695 25.5745C17.5286 25.5645 17.5894 25.5775 17.6393 25.6108C17.6893 25.6441 17.7246 25.6952 17.7381 25.7536C17.8652 26.31 17.9456 26.8761 17.9784 27.4458C18.0224 28.1531 17.9863 28.8631 17.8708 29.5623Z" fill="#BFDD8F"/>
<path d="M9.92738 38.0555L7.99284 38.3769C7.99284 38.3769 8.2817 37.3225 8.55954 35.2874C9.28516 29.9698 9.93361 17.9529 5.14825 0.558551L5.14845 0.55781C5.24149 0.43181 5.34526 0.314096 5.4586 0.205987C5.56574 0.18841 5.6742 0.180032 5.78277 0.180943C11.6407 13.5222 10.8397 29.3578 10.2373 35.4711C10.0747 37.1148 9.92738 38.0555 9.92738 38.0555Z" fill="#6DA316"/>
<path d="M8.55883 35.2872C8.55883 35.2872 0.812061 34.1877 2.04073 21.1636C2.04924 21.0695 2.08905 20.9811 2.1538 20.9124C2.21854 20.8437 2.30447 20.7987 2.39782 20.7846L7.10032 19.7803L2.25982 18.2103C2.15872 18.1832 2.07124 18.1196 2.0143 18.0318C1.95735 17.944 1.93498 17.8382 1.9515 17.7348L3.27714 9.59149C3.29179 9.50262 3.33451 9.42077 3.39905 9.35794C3.46358 9.29511 3.54654 9.2546 3.63578 9.24234L5.87648 8.51891L3.61609 6.87513C3.54741 6.83483 3.49156 6.77588 3.45503 6.70513C3.4185 6.63437 3.40278 6.55471 3.40971 6.47538C3.4908 5.52407 3.99785 2.10036 5.14754 0.55839C9.93291 17.9528 9.28445 29.9697 8.55883 35.2872Z" fill="#BFDD8F"/>
<path d="M4.2623 21.7588C4.2708 21.6648 4.31062 21.5764 4.37536 21.5077C4.44011 21.4389 4.52604 21.394 4.61939 21.3799L8.78141 20.4911C8.77324 20.3915 8.76552 20.2927 8.75699 20.1924L4.48138 18.8056C4.38028 18.7785 4.29281 18.7149 4.23586 18.6271C4.17892 18.5393 4.15654 18.4334 4.17307 18.3301L5.49871 10.1868C5.51335 10.0979 5.55607 10.016 5.62061 9.95321C5.68515 9.89038 5.76811 9.84987 5.85734 9.83761L7.22904 9.39474C7.16013 9.04157 7.08912 8.68576 7.016 8.32733L5.83758 7.47037C5.7689 7.43008 5.71305 7.37113 5.67652 7.30038C5.63999 7.22962 5.62428 7.14995 5.6312 7.07062C5.72752 6.13246 5.8879 5.20198 6.11122 4.28571C5.81737 3.07203 5.49614 1.82959 5.14754 0.558391C3.99785 2.10036 3.4908 5.52407 3.40971 6.47538C3.40278 6.55471 3.4185 6.63437 3.45503 6.70513C3.49156 6.77588 3.54741 6.83483 3.61609 6.87513L5.87648 8.51891L3.63578 9.24234C3.54654 9.2546 3.46358 9.29511 3.39905 9.35794C3.33451 9.42077 3.29179 9.50262 3.27714 9.59149L1.9515 17.7348C1.93498 17.8382 1.95735 17.944 2.0143 18.0318C2.07124 18.1196 2.15872 18.1832 2.25982 18.2103L7.10032 19.7803L2.39782 20.7846C2.30447 20.7987 2.21854 20.8437 2.1538 20.9124C2.08905 20.9811 2.04924 21.0695 2.04073 21.1636C0.812061 34.1877 8.55883 35.2872 8.55883 35.2872C8.57268 35.1856 8.58617 35.0839 8.59932 34.9821C6.41102 33.5986 3.46987 30.1592 4.2623 21.7588Z" fill="#BFDD8F"/>
</g>
<mask id="mask2_153_3032" style="mask-type:alpha" maskUnits="userSpaceOnUse" x="1" y="2" width="33" height="33">
<circle cx="17.2966" cy="18.6628" r="15.7907" fill="white"/>
</mask>
<g mask="url(#mask2_153_3032)">
<path d="M28.1267 36.2957L30.8174 31.9807C29.1925 31.4253 28.469 28.9154 26.0794 26.9809C25.8829 26.8221 25.675 26.6673 25.4547 26.5175C25.4189 26.4433 25.3881 26.3805 25.3632 26.3305C25.3154 26.2335 25.2888 26.183 25.2888 26.183H24.9261C24.295 25.8136 23.5695 25.4881 22.7238 25.2317L23.0228 26.183H11.5723L11.8712 25.2317C11.0255 25.4881 10.3001 25.8136 9.66894 26.183H9.51813C9.51813 26.183 9.49488 26.2282 9.45236 26.3139C9.11355 26.5252 8.80264 26.749 8.51565 26.9809C6.12603 28.9154 5.42216 31.4864 3.7776 31.9807C3.6831 32.0091 6.65418 36.1547 6.65418 36.1547L12.4191 39.9031L22.8326 39.9313L28.1267 36.2957Z" fill="#6DA316"/>
<ellipse cx="17.2968" cy="28.4639" rx="6.74402" ry="4.29202" fill="#BFDD8F"/>
<ellipse cx="17.296" cy="28.464" rx="5.296" ry="3.37047" fill="#A18367"/>
</g>
<path d="M17.2966 29.5313C17.2669 29.5313 17.2313 29.5313 17.2016 29.5194C13.3901 29.3886 8.12407 28.7167 5.94523 24.5013C3.71295 20.1847 6.49736 15.3331 6.82389 14.792C9.70328 9.99984 15.1534 9.28042 16.8394 9.1734C17.635 8.86423 18.1693 8.54911 18.668 8.09724C19.1133 7.69293 19.4814 7.21728 19.7723 6.68217C19.8138 6.60488 19.8851 6.55137 19.9682 6.53353C19.9919 6.53353 20.0097 6.52759 20.0335 6.52759C20.0988 6.52759 20.1582 6.54542 20.2116 6.58704C20.4016 6.72974 21.0249 7.27079 21.1318 8.20426C21.1734 8.56694 21.1199 8.89395 21.0368 9.16745C21.2684 9.04259 21.4999 8.8999 21.7196 8.7572C22.2776 8.39452 22.8001 7.97238 23.281 7.50267C23.3344 7.44916 23.4116 7.41943 23.4888 7.41943C23.5125 7.41943 23.5363 7.41943 23.5541 7.42538C23.655 7.44916 23.7322 7.52051 23.7678 7.61564C23.9875 8.23399 24.0765 8.8999 24.0231 9.55392C23.9875 10.0177 23.8806 10.4755 23.7084 10.9095C25.4242 11.8668 26.7897 13.1808 27.7693 14.8039C28.0958 15.345 30.8802 20.1966 28.6479 24.5132C26.2019 29.2518 19.7307 29.454 17.2966 29.5313Z" fill="#DCAE88"/>
<path d="M25.8555 24.3464C24.1873 26.6771 20.7498 27.6403 17.2945 27.6581C14.3201 27.6403 11.3576 26.9268 9.52313 25.2382C9.22629 24.9707 8.96506 24.6734 8.73353 24.3464C7.8608 23.1335 7.33242 21.3379 7.62333 19.5899C7.68863 19.1855 7.80143 18.7872 7.96173 18.3948C8.78102 16.397 10.8233 14.8274 13.1862 14.7204C15.2522 14.6252 16.7483 15.6836 17.2886 16.1295C17.8289 15.6836 19.325 14.6312 21.391 14.7204C23.7539 14.8274 25.7962 16.397 26.6155 18.3948C27.4763 20.4876 26.9123 22.854 25.8437 24.3464H25.8555Z" fill="#FDFBFD"/>
<path d="M18.9984 22.9908C18.9806 23.2048 18.4938 23.6091 17.8407 23.7697C17.6448 23.8172 17.4667 23.8351 17.3005 23.841C17.1343 23.841 16.9561 23.8172 16.7602 23.7697C16.1012 23.6091 15.6203 23.2048 15.6025 22.9908C15.6025 22.9611 15.5907 22.8659 15.65 22.8184C15.6975 22.7767 15.7628 22.7827 15.8044 22.7886C16.0181 22.8124 16.1903 22.9016 16.2259 22.9135C16.2259 22.9135 16.2853 22.9432 16.7068 23.08C16.784 23.1037 17.0155 23.1751 17.3005 23.1751C17.5855 23.1751 17.817 23.1037 17.8942 23.08C18.3157 22.9432 18.3751 22.9135 18.3751 22.9135C18.4107 22.8956 18.5829 22.8124 18.7966 22.7886C18.8441 22.7886 18.9094 22.7767 18.9509 22.8184C19.0044 22.8719 18.9984 22.9611 18.9984 22.9908Z" fill="#4E3823"/>
<path d="M18.5937 21.3261C18.2731 21.8731 17.5132 21.9504 17.2935 21.9504C17.0561 21.9504 16.314 21.8671 15.9934 21.3261C15.9399 21.2309 15.7915 20.9812 15.8865 20.7434C16.0646 20.3034 16.9255 20.2618 17.2935 20.2559C17.6616 20.2618 18.5225 20.3034 18.7006 20.7434C18.7956 20.9812 18.6472 21.2369 18.5937 21.3261Z" fill="#4E3823"/>
<path d="M19.2171 20.3682C19.229 21.0638 19.5911 21.5633 19.7514 21.7773C20.2204 22.4135 20.6894 22.5146 22.5952 23.4599C24.0378 24.1734 24.2694 24.3637 24.4178 24.4885C24.7265 24.762 24.9284 25.0117 25.0709 25.2317C25.3677 24.9642 25.6289 24.6669 25.8605 24.3399C26.7332 23.127 27.2616 21.3314 26.9707 19.5834C26.561 19.1077 26.0089 18.6023 25.2608 18.2278C23.7707 17.4846 21.4731 17.2111 20.1492 18.424C20.0067 18.5548 19.1993 19.298 19.2171 20.3563V20.3682Z" fill="#A18367"/>
<path d="M22.6308 22.1523C23.2899 22.1523 23.8241 21.4522 23.8241 20.5886C23.8241 19.725 23.2899 19.0249 22.6308 19.0249C21.9718 19.0249 21.4375 19.725 21.4375 20.5886C21.4375 21.4522 21.9718 22.1523 22.6308 22.1523Z" fill="#4E3823"/>
<path d="M15.3769 20.3682C15.365 21.0638 15.0029 21.5633 14.8426 21.7773C14.3736 22.4135 13.9046 22.5146 11.9988 23.4599C10.5562 24.1734 10.3246 24.3637 10.1762 24.4885C9.86747 24.762 9.66562 25.0117 9.52313 25.2317C9.22629 24.9642 8.96506 24.6669 8.73353 24.3399C7.8608 23.127 7.33242 21.3314 7.62333 19.5834C8.03297 19.1077 8.5851 18.6023 9.33315 18.2278C10.8233 17.4846 13.1209 17.2111 14.4448 18.424C14.5873 18.5548 15.3947 19.298 15.3769 20.3563V20.3682Z" fill="#A18367"/>
<path d="M11.9628 22.153C12.6219 22.153 13.1562 21.4529 13.1562 20.5893C13.1562 19.7257 12.6219 19.0256 11.9628 19.0256C11.3038 19.0256 10.7695 19.7257 10.7695 20.5893C10.7695 21.4529 11.3038 22.153 11.9628 22.153Z" fill="#4E3823"/>
<path d="M12.0577 20.5176C12.2805 20.5176 12.4611 20.2806 12.4611 19.9884C12.4611 19.6961 12.2805 19.4592 12.0577 19.4592C11.8349 19.4592 11.6543 19.6961 11.6543 19.9884C11.6543 20.2806 11.8349 20.5176 12.0577 20.5176Z" fill="#FBFDFB"/>
<path d="M22.4464 20.5176C22.6691 20.5176 22.8497 20.2806 22.8497 19.9884C22.8497 19.6961 22.6691 19.4592 22.4464 19.4592C22.2236 19.4592 22.043 19.6961 22.043 19.9884C22.043 20.2806 22.2236 20.5176 22.4464 20.5176Z" fill="#FBFDFB"/>
</g>
<defs>
<clipPath id="clip0_153_3032">
<rect width="156" height="36" fill="white"/>
</clipPath>
</defs>
</svg>
