<svg width="132" height="46" viewBox="0 0 132 46" fill="none" xmlns="http://www.w3.org/2000/svg">
<path fill-rule="evenodd" clip-rule="evenodd" d="M52.1776 27.7248C52.6425 29.6697 51.9841 32.0528 50.4298 33.3049C48.2802 35.0361 44.3854 34.629 42.0023 31.7041L43.8941 31.3684C44.0417 31.5935 44.8725 32.8139 46.4405 33.07C47.903 33.3088 49.3781 32.6058 50.0923 31.4904C50.7429 30.4745 50.6161 29.3442 50.5767 29.0643C50.314 27.202 48.7202 26.3037 46.8278 25.2371C44.949 24.1782 42.7759 22.9535 41.3188 20.4549C40.8617 19.6713 39.6296 17.4862 40.1088 14.7932C40.1863 14.3574 40.7956 11.2397 43.6465 9.74002C46.4998 8.23906 50.1157 9.13879 52.176 11.3816C53.9724 13.3373 54.0646 15.7468 54.0662 16.4501L51.8721 17.4712C52.3604 15.4503 51.6534 13.3729 50.104 12.2131C47.9932 10.6332 44.9301 11.2338 43.4149 13.0382C41.3683 15.476 43.1145 18.9572 43.3335 19.3777C44.2092 21.0584 45.6811 22.0325 46.7699 22.7528C47.4846 23.2257 48.1135 23.5401 48.6801 23.8233C49.708 24.3371 50.5308 24.7484 51.2886 25.818C51.9261 26.7181 52.1337 27.5421 52.1773 27.7248H52.1776ZM74.5944 15.4315L75.0697 16.2868C80.7257 14.4613 87.2718 13.3851 94.3792 14.1641C94.9643 14.228 95.5407 14.3034 96.1082 14.3892L95.9945 12.3151C90.7301 11.9813 84.4241 12.3248 77.6874 14.3765C76.6153 14.703 75.5841 15.057 74.5944 15.4315ZM130.007 32.1792C130.421 31.6181 131.052 30.5784 131.35 28.9665H131.349C131.566 28.8794 131.783 28.7927 132 28.7059C131.404 32.1374 129.543 34.3049 127.999 34.2243C127.361 34.191 126.535 33.7604 125.974 33.0783C125.226 32.1701 125.222 31.1516 125.229 30.8805C125.086 31.3901 124.675 32.5684 123.553 33.3748C123.266 33.5816 122.776 33.9245 122.051 34.0152C121.811 34.0452 120.987 34.1483 120.232 33.6466C119.129 32.9129 119.114 31.5127 119.115 31.3881C118.963 31.9026 118.554 32.9908 117.501 33.688C117.15 33.9203 116.363 34.3848 115.628 34.1542C115.31 34.0543 115.06 33.8074 114.956 33.4909C114.766 32.969 114.661 32.42 114.646 31.8647C114.62 30.9461 114.669 30.0261 114.728 29.1091C114.828 27.583 114.979 25.2587 114.067 24.8365C113.569 24.606 112.936 25.0266 112.856 25.08L112.856 25.0802C112.09 25.5901 111.857 26.6063 111.757 29.2719C111.711 30.5122 111.692 32.1551 111.788 34.1023L110.854 34.0758L109.945 34.0501L109.968 32.7247L109.991 31.3904L109.941 31.4977L109.884 31.6216C109.779 31.8509 109.676 32.0742 109.567 32.2917C109.257 33.0094 108.723 33.6081 108.046 33.9992C108.008 34.0087 107.441 34.1379 107.012 33.7301C106.627 33.3644 106.669 32.8679 106.674 32.8085C106.616 32.9126 105.999 33.9571 104.82 34.0514C103.935 34.1222 103.308 33.6097 103.113 33.4505C102.243 32.7374 102.121 31.715 102.099 31.4824C101.995 31.7297 101.831 32.0706 101.582 32.4457C101.195 33.0306 100.407 34.2201 99.3856 34.2197C98.7213 34.2197 98.2307 33.717 98.1867 33.6704C97.5851 33.0365 97.6674 32.148 97.8741 29.9166L97.8741 29.9164L97.8741 29.9158C97.92 29.42 97.9721 28.8579 98.0241 28.2175C98.1854 26.2292 98.1896 25.4237 97.6583 25.0228C97.2638 24.725 96.6659 24.7047 96.2375 24.9067C95.5309 25.2398 95.3247 26.1564 95.1999 26.8673C94.7715 29.3091 94.8207 32.0963 94.9037 33.8038L93.1461 33.7725L93.1285 31.5166C93.0037 31.8031 92.0117 34.0263 90.9679 33.8974C90.559 33.8469 90.2971 33.4564 90.186 33.2906C88.8946 31.3633 89.8394 24.5025 90.0264 23.1963L91.6582 23.9228C91.2666 28.0939 90.9874 32.4973 91.5993 32.6088C91.8322 32.6512 92.1173 32.0578 92.3733 31.5238C93.0966 30.0173 93.1429 28.6811 93.181 24.615L93.1812 24.5886L93.1812 24.5868C93.1841 24.2758 93.1879 23.8697 93.1914 23.3927L94.9129 23.3281L94.8884 25.7121C94.9953 25.3425 95.3602 24.2689 96.4092 23.6507C96.6822 23.4899 97.2908 23.1366 98.0232 23.2778C98.6047 23.3897 98.9751 23.758 99.0807 23.8631C99.8381 24.616 99.9509 25.9614 99.5541 30.1458C99.5283 30.418 99.5035 30.669 99.4807 30.9002C99.3306 32.4199 99.2655 33.0798 99.5658 33.2124C99.9658 33.3892 100.811 32.5397 101.291 31.7101C101.745 30.9283 101.786 30.3553 101.841 29.5875C101.874 29.1269 101.912 28.5962 102.047 27.9083L102.047 27.9078C102.258 26.8319 102.782 24.1625 104.425 23.5985C104.882 23.4416 105.773 23.3874 106.484 23.8791C106.758 24.0693 106.934 24.2934 107.04 24.4532L107.069 23.5789L107.86 23.8228L108.651 24.0666C108.184 28.0913 107.769 32.7168 108.384 32.8418C108.658 32.8972 109.05 32.0451 109.32 31.4201C110.12 29.5668 110.09 25.8472 109.992 23.5548L110.821 23.6945L111.649 23.834L111.705 24.8612L111.761 25.8883C111.91 25.55 112.079 25.2212 112.268 24.9041C112.523 24.4774 112.851 24.0275 113.364 23.7528C113.967 23.4299 114.85 23.3698 115.47 23.7303C116.717 24.4555 116.634 26.7237 116.592 27.8554C116.576 28.2918 116.533 28.6604 116.487 29.0451C116.412 29.6823 116.332 30.364 116.363 31.4723C116.402 32.8806 116.567 33.0672 116.699 33.1115C117.149 33.2636 118.076 32.0481 118.572 30.8453C118.856 30.1568 118.889 29.7449 118.937 29.1436V29.1434L118.937 29.143C118.971 28.7161 119.013 28.1938 119.158 27.4095C119.511 25.4942 119.764 24.2252 120.793 23.5842C121.383 23.2162 122.251 23.041 122.903 23.3561C124.062 23.9159 124.609 26.0569 123.678 28.4984L122.951 28.5137L122.224 28.5291C122.303 28.379 122.421 28.1448 122.543 27.8509C122.646 27.6052 123.808 24.7615 122.876 24.019C122.64 23.8314 122.289 23.792 122.007 23.8663C120.848 24.1716 120.585 26.4675 120.368 28.3606L120.368 28.3624C120.118 30.5438 120.426 31.3643 120.694 31.8556L120.695 31.8563C120.89 32.2148 121.28 32.9293 121.965 33.0717C122.826 33.2505 123.911 32.4777 124.548 31.0779C124.916 29.9048 125.151 28.9457 125.293 28.3226C125.439 27.6777 125.546 27.1205 125.64 26.6341C125.926 25.1457 126.085 24.32 126.852 23.6696C127.049 23.5023 127.566 23.0759 128.261 23.0948C129.176 23.1196 129.782 23.9009 129.913 24.0702C130.577 24.9268 130.533 25.9178 130.464 27.4831V27.4832L130.464 27.4835L130.463 27.5118C130.437 28.0886 130.416 28.5679 130.257 29.2063C130.047 30.0535 129.661 31.6077 128.452 32.082C128.207 32.1782 127.794 32.2826 127.207 32.1733C127.219 32.2842 127.273 32.6738 127.6 32.9703C127.984 33.3193 128.463 33.2823 128.561 33.2747L128.561 33.2747C128.846 33.2525 129.318 33.1155 130.007 32.1792ZM106.094 32.1012C106.751 31.471 106.842 30.2861 106.999 27.9419C107.053 27.139 107.064 26.6004 106.918 25.9287C106.796 25.3712 106.568 24.3234 105.877 24.1218C105.549 24.0262 105.244 24.1577 105.132 24.2082C104.684 24.4085 104.206 24.9031 103.771 26.8787C103.425 28.4521 103.056 30.2336 103.851 31.7799C104.169 32.4007 104.472 32.5873 104.72 32.648C105.361 32.8046 105.992 32.1994 106.094 32.1012ZM127.683 24.2304C126.758 25.6103 126.823 28.1745 126.855 28.9975H126.855C126.88 29.619 126.937 30.5194 127.085 31.6083C127.218 31.6664 127.49 31.7616 127.797 31.6899C128.164 31.6044 128.381 31.3278 128.487 31.1894C129.122 30.3566 129.247 28.5884 129.38 26.496C129.416 25.9274 129.474 24.831 128.956 24.0595C128.723 23.713 128.53 23.6647 128.43 23.6582C128.089 23.6364 127.809 24.0425 127.683 24.2304ZM91.0446 18.6836C91.7102 18.6836 92.25 19.4071 92.25 20.3C92.25 21.1929 91.7102 21.9165 91.0446 21.9165C90.379 21.9165 89.8388 21.1929 89.8388 20.3C89.8388 19.4071 90.3787 18.6836 91.0446 18.6836ZM86.408 21.4795L83.6116 21.957L83.7989 18.7633L83.9862 15.5695L81.9487 15.1604L81.9105 18.6852L81.8722 22.2101L77.6796 23.3499L77.9604 24.0494L78.2413 24.7488L80.0301 24.3566L81.8243 23.9632L81.6832 29.657L81.5422 35.3504L82.1892 35.5558L82.8362 35.7611L82.8908 34.9777C83.1525 31.2244 83.4141 27.4713 83.6754 23.7182L88.4834 22.9118L88.8441 21.9566L89.2044 21.0021L86.408 21.4795ZM65.3214 28.2188C65.4094 25.7995 65.4664 24.0861 65.5107 22.6247L65.511 22.6243L67.6394 23.1525C67.6277 27.3021 67.3882 30.7894 67.1335 33.422C66.6249 38.6808 66.0857 40.2421 64.8682 40.7826C63.7488 41.2798 62.0541 40.9167 61.065 39.7694C60.2443 38.8175 60 37.4793 60.4235 36.2677C60.6659 36.1881 60.9083 36.1087 61.1506 36.0292C61.4699 35.9245 61.7891 35.8198 62.1082 35.7151L61.7895 37.7334C61.7609 38.6808 62.1267 39.4637 62.7369 39.7322C63.0608 39.8748 63.5055 39.8953 63.8765 39.7074C64.5903 39.3463 64.8096 38.3265 65.0491 34.5746C65.1243 33.3956 65.1729 32.4006 65.2041 31.6673C65.1237 31.8911 64.9767 32.2254 64.7076 32.5686L64.7066 32.5699C64.5828 32.7272 63.6788 33.8761 62.4812 33.7411C61.9107 33.6768 61.5204 33.3493 61.3426 33.196C60.0788 32.1067 60.3066 30.133 60.3427 29.8544L59.1373 30.8618C59.0982 31.0093 58.373 33.6031 56.4691 33.9479C55.6129 34.1032 54.9154 33.7316 54.804 33.67C52.3104 32.2959 52.2863 26.4699 54.4349 23.925L54.4349 23.9249C54.7115 23.5974 55.3536 22.837 56.2192 22.853C56.9894 22.867 57.5435 23.4878 57.8609 23.8535C59.4882 25.7293 59.3061 28.6758 59.2021 29.6988C59.3867 29.5434 59.5713 29.388 59.756 29.2327C59.9406 29.0773 60.1252 28.9219 60.3098 28.7665C60.3237 27.7867 60.3377 26.8068 60.3517 25.8269C60.3659 24.8326 60.3801 23.8382 60.3942 22.8439C60.9875 23.0637 61.5807 23.2833 62.174 23.5028L62.1925 23.5097C62.0912 25.424 62.0319 27.0714 61.9954 28.3789C61.9368 30.4873 61.9453 31.3727 62.4972 31.6829C63.0627 32.0007 63.9723 31.603 64.4978 31.0928C65.2286 30.3829 65.2787 29.3928 65.3214 28.2188ZM55.6429 32.8834C55.7563 32.9467 56.215 33.1832 56.7053 33.0296H56.7056C57.3875 32.8159 57.6488 31.9987 57.8078 31.5009C57.896 31.2243 57.9348 30.9861 57.9537 30.8243C57.5735 30.8054 56.9024 30.7215 56.1749 30.3389C55.3164 29.8877 54.8287 29.2565 54.6095 28.9296C54.4919 29.6502 54.4345 30.7186 54.848 31.7955C55.1304 32.5311 55.4402 32.7699 55.6429 32.8834ZM55.4451 28.5597C56.241 29.7928 57.8029 29.953 58.0593 29.9755C58.2036 28.5998 58.0531 27.4994 57.9003 26.783C57.6709 25.7075 57.352 25.054 56.8864 24.5621C56.6147 24.275 56.1896 23.8265 55.7426 23.9289C55.3259 24.0245 55.0034 24.5732 54.9701 25.2893C55.178 25.4122 55.3858 25.5352 55.594 25.6579C55.4429 25.8438 54.9946 26.4447 55.021 27.2857C55.0408 27.9209 55.3194 28.3649 55.4451 28.5597Z" fill="#122110"/>
<path d="M71.6184 33.0047C71.769 32.3661 71.374 31.7262 70.7362 31.5755C70.0984 31.4247 69.4594 31.8203 69.3089 32.4589C69.1583 33.0975 69.5533 33.7374 70.1911 33.8882C70.8289 34.0389 71.4679 33.6434 71.6184 33.0047Z" fill="#122110"/>
<path d="M17.0077 37.596C16.9674 37.596 16.919 37.596 16.8786 37.5799C11.6997 37.4026 4.54438 36.4918 1.58383 30.7769C-1.44931 24.925 2.33405 18.3477 2.77773 17.6142C6.69016 11.1175 14.0955 10.1421 16.3865 9.99706C17.4675 9.57791 18.1935 9.15071 18.8711 8.53812C19.4761 7.99001 19.9763 7.34517 20.3716 6.61973C20.428 6.51494 20.5248 6.4424 20.6378 6.41822C20.67 6.41822 20.6942 6.41016 20.7265 6.41016C20.8152 6.41016 20.8959 6.43434 20.9685 6.49076C21.2267 6.68421 22.0737 7.41771 22.2189 8.6832C22.2754 9.17489 22.2028 9.61822 22.0898 9.989C22.4044 9.81973 22.719 9.62628 23.0175 9.43283C23.7758 8.94114 24.4857 8.36885 25.1391 7.73207C25.2117 7.65953 25.3166 7.61922 25.4214 7.61922C25.4537 7.61922 25.486 7.61922 25.5102 7.62728C25.6473 7.65953 25.7522 7.75625 25.8006 7.88522C26.099 8.72351 26.2201 9.62628 26.1475 10.5129C26.099 11.1416 25.9538 11.7623 25.7199 12.3507C28.0512 13.6484 29.9066 15.4298 31.2376 17.6303C31.6813 18.3638 35.4647 24.9411 32.4315 30.793C29.108 37.2172 20.3151 37.4913 17.0077 37.596Z" fill="#DCAE88"/>
<path d="M28.6369 30.5658C26.3701 33.7255 21.6994 35.0313 17.0044 35.0555C12.9629 35.0313 8.93758 34.0641 6.44492 31.7749C6.04157 31.4122 5.68663 31.0092 5.37202 30.5658C4.18619 28.9215 3.46824 26.4873 3.86352 24.1175C3.95226 23.5694 4.10553 23.0293 4.32333 22.4973C5.43656 19.789 8.21156 17.6611 11.4222 17.516C14.2294 17.387 16.2623 18.8218 16.9964 19.4263C17.7305 18.8218 19.7633 17.3951 22.5706 17.516C25.7812 17.6611 28.5562 19.789 29.6694 22.4973C30.8391 25.3346 30.0728 28.5427 28.6207 30.5658H28.6369Z" fill="#FDFBFD"/>
<path d="M19.3198 28.729C19.2956 29.0192 18.6341 29.5673 17.7468 29.7849C17.4806 29.8494 17.2386 29.8736 17.0127 29.8816C16.7868 29.8816 16.5448 29.8494 16.2786 29.7849C15.3832 29.5673 14.7298 29.0192 14.7056 28.729C14.7056 28.6887 14.6894 28.5597 14.7701 28.4952C14.8346 28.4388 14.9234 28.4469 14.9798 28.4549C15.2703 28.4872 15.5042 28.6081 15.5526 28.6242C15.5526 28.6242 15.6333 28.6645 16.206 28.8499C16.3109 28.8821 16.6255 28.9788 17.0127 28.9788C17.3999 28.9788 17.7145 28.8821 17.8194 28.8499C18.3921 28.6645 18.4728 28.6242 18.4728 28.6242C18.5212 28.6 18.7551 28.4872 19.0455 28.4549C19.1101 28.4549 19.1988 28.4388 19.2553 28.4952C19.3279 28.5678 19.3198 28.6887 19.3198 28.729Z" fill="#4E3823"/>
<path d="M18.7709 26.4704C18.3353 27.212 17.3027 27.3168 17.0042 27.3168C16.6816 27.3168 15.6732 27.2039 15.2376 26.4704C15.165 26.3414 14.9633 26.0029 15.0924 25.6805C15.3344 25.084 16.5041 25.0276 17.0042 25.0195C17.5044 25.0276 18.6741 25.084 18.9161 25.6805C19.0452 26.0029 18.8435 26.3495 18.7709 26.4704Z" fill="#4E3823"/>
<path d="M19.618 25.1738C19.6341 26.1168 20.1262 26.7939 20.344 27.0841C20.9813 27.9466 21.6186 28.0836 24.208 29.3652C26.1683 30.3325 26.4829 30.5904 26.6846 30.7597C27.104 31.1304 27.3783 31.469 27.5719 31.7672C27.9753 31.4045 28.3302 31.0015 28.6448 30.5581C29.8306 28.9138 30.5486 26.4796 30.1533 24.1098C29.5967 23.465 28.8465 22.7798 27.83 22.272C25.8053 21.2644 22.6834 20.8937 20.8845 22.538C20.6909 22.7153 19.5938 23.7229 19.618 25.1576V25.1738Z" fill="#A18367"/>
<path d="M24.2563 27.5914C25.1518 27.5914 25.8778 26.6422 25.8778 25.4715C25.8778 24.3007 25.1518 23.3516 24.2563 23.3516C23.3608 23.3516 22.6349 24.3007 22.6349 25.4715C22.6349 26.6422 23.3608 27.5914 24.2563 27.5914Z" fill="#4E3823"/>
<path d="M14.3988 25.1718C14.3826 26.1149 13.8906 26.792 13.6728 27.0821C13.0355 27.9446 12.3982 28.0816 9.80873 29.3632C7.84848 30.3305 7.53387 30.5884 7.3322 30.7577C6.91272 31.1285 6.63845 31.467 6.44484 31.7653C6.0415 31.4025 5.68656 30.9995 5.37195 30.5562C4.18612 28.9119 3.46817 26.4776 3.86344 24.1078C4.42006 23.463 5.17028 22.7779 6.1867 22.2701C8.21149 21.2625 11.3334 20.8917 13.1323 22.536C13.3259 22.7134 14.423 23.7209 14.3988 25.1557V25.1718Z" fill="#A18367"/>
<path d="M9.75993 27.5914C10.6554 27.5914 11.3814 26.6422 11.3814 25.4715C11.3814 24.3007 10.6554 23.3516 9.75993 23.3516C8.86443 23.3516 8.13849 24.3007 8.13849 25.4715C8.13849 26.6422 8.86443 27.5914 9.75993 27.5914Z" fill="#4E3823"/>
<path d="M9.88861 25.3742C10.1913 25.3742 10.4367 25.053 10.4367 24.6568C10.4367 24.2606 10.1913 23.9395 9.88861 23.9395C9.5859 23.9395 9.3405 24.2606 9.3405 24.6568C9.3405 25.053 9.5859 25.3742 9.88861 25.3742Z" fill="#FBFDFB"/>
<path d="M24.0059 25.3762C24.3086 25.3762 24.554 25.055 24.554 24.6588C24.554 24.2626 24.3086 23.9414 24.0059 23.9414C23.7032 23.9414 23.4578 24.2626 23.4578 24.6588C23.4578 25.055 23.7032 25.3762 24.0059 25.3762Z" fill="#FBFDFB"/>
</svg>
