<svg width="0" height="0" class="hidden">
  <symbol fill="none" xmlns="http://www.w3.org/2000/svg" viewBox="0 0 24 24" id="twitter">
    <path d="M21.4615 6.77577C20.775 7.07692 20.0435 7.27654 19.2808 7.37346C20.0654 6.905 20.6642 6.16885 20.9458 5.28154C20.2142 5.71769 19.4065 6.02577 18.5458 6.19769C17.8512 5.45808 16.8612 5 15.7812 5C13.6858 5 11.9988 6.70077 11.9988 8.78577C11.9988 9.08577 12.0242 9.37423 12.0865 9.64885C8.94 9.49538 6.15577 7.98731 4.28538 5.69C3.95885 6.25654 3.76731 6.905 3.76731 7.60308C3.76731 8.91385 4.44231 10.0758 5.44846 10.7485C4.84038 10.7369 4.24385 10.5604 3.73846 10.2823C3.73846 10.2938 3.73846 10.3088 3.73846 10.3238C3.73846 12.1631 5.05038 13.6908 6.77077 14.0427C6.46269 14.1269 6.12692 14.1673 5.77846 14.1673C5.53615 14.1673 5.29154 14.1535 5.06192 14.1027C5.55231 15.6015 6.94385 16.7035 8.59846 16.7392C7.31077 17.7465 5.67577 18.3535 3.90577 18.3535C3.59538 18.3535 3.29769 18.3396 3 18.3015C4.67654 19.3827 6.66346 20 8.80615 20C15.7708 20 19.5785 14.2308 19.5785 9.23C19.5785 9.06269 19.5727 8.90115 19.5646 8.74077C20.3158 8.20769 20.9469 7.54192 21.4615 6.77577Z" fill="currentColor"></path>
  </symbol>
  <symbol fill="none" xmlns="http://www.w3.org/2000/svg" viewBox="0 0 24 24" id="defilama">
    <path fill-rule="evenodd" clip-rule="evenodd" d="M5.86047 1C4.83296 1 4 1.83296 4 2.86047V20.6744C4 21.9588 5.0412 23 6.32558 23H9.84603L9.98431 18.8647L10.2238 11.768C9.80012 11.5582 9.49686 11.0034 9.49686 10.3522C9.49686 9.61824 9.88058 9.01359 10.3829 8.87405C10.4509 8.43331 10.6071 8.0108 10.842 7.63173C10.7298 7.62186 10.6216 7.58498 10.5268 7.52424C10.4319 7.46349 10.3532 7.38068 10.2973 7.28289C10.1837 7.11487 10.0602 6.9462 9.93146 6.77043C9.54418 6.24167 9.10978 5.64858 8.75686 4.81498C8.70897 4.72024 8.6895 4.61368 8.7008 4.50812C8.71211 4.40257 8.75371 4.30254 8.82058 4.2201C8.96291 4.02723 9.11407 4.01994 9.27407 4.19824C9.60489 4.51154 9.966 4.72517 10.307 4.92693L10.307 4.92693C10.7173 5.16966 11.0985 5.39519 11.3629 5.75638C11.3992 5.67459 11.4461 5.59795 11.5024 5.52847C11.8212 5.11576 12.221 5.0108 12.702 5.21359C12.8483 4.71746 13.1797 4.4694 13.6959 4.4694C14.2122 4.4694 14.5435 4.71746 14.6899 5.21359C14.9093 5.11238 15.1595 5.10053 15.3876 5.18056C15.5867 5.24258 15.7621 5.36397 15.8904 5.52847C15.9461 5.59837 15.993 5.67492 16.0299 5.75638C16.2691 5.42304 16.6127 5.22898 16.988 5.01703C17.3118 4.83416 17.6592 4.63797 17.9834 4.32754C18.1434 4.16382 18.3181 4.14661 18.5076 4.27591C18.5443 4.29945 18.5759 4.33014 18.6006 4.36614L18.6057 4.36661C18.6543 4.42382 18.6846 4.49423 18.6929 4.56881C18.7012 4.64339 18.687 4.71874 18.6522 4.78521L18.6317 4.83173C18.28 5.64894 17.8479 6.24233 17.4631 6.77078C17.335 6.94673 17.2121 7.11548 17.0992 7.28289C17.043 7.38071 16.964 7.46351 16.8689 7.52424C16.7739 7.58498 16.6655 7.62185 16.5531 7.63173C16.7898 8.00991 16.9459 8.43282 17.0117 8.87405C17.468 8.99824 17.8192 9.50103 17.8866 10.135C17.8947 10.2071 17.8986 10.2796 17.8983 10.3522C17.8983 10.9638 17.6304 11.4936 17.2434 11.7261C17.2205 11.742 17.1964 11.756 17.1713 11.768V11.8731L17.5041 21.7966C21.0566 19.9724 23.4884 16.2644 23.4884 12C23.4884 5.93771 18.5739 1 12.5116 1H5.86047ZM15.788 11.4024C15.922 11.6434 15.9097 11.8759 15.7513 12.1001C15.2741 12.7978 14.6057 13.3261 13.7545 13.3261H13.5741C12.8387 13.2624 12.0666 12.7815 11.589 12.2034C11.3936 11.9649 11.373 11.712 11.5271 11.4447C11.7165 11.1335 11.8157 10.7756 11.8136 10.4113C11.8147 10.0693 11.7307 9.73253 11.569 9.43126C11.5053 9.32585 11.4749 9.20369 11.4817 9.08073C11.4885 8.95776 11.5322 8.83971 11.6071 8.74196C11.6432 8.79128 11.6854 8.83583 11.7327 8.87452C12.1243 9.18273 12.5201 9.18816 12.9201 8.8908C12.9201 9.27173 13.3038 9.57917 13.7745 9.57917C13.8176 9.58196 13.8608 9.58196 13.9038 9.57917C14.3155 9.5294 14.6304 9.24428 14.6304 8.89963C15.0381 9.20475 15.4397 9.19638 15.835 8.87452L15.8815 8.83266C15.9144 8.92472 15.9258 9.02308 15.9148 9.12022C15.9038 9.21735 15.8708 9.3107 15.8183 9.39312C15.6315 9.70293 15.5341 10.0584 15.5369 10.4201C15.5364 10.7655 15.6228 11.1056 15.788 11.4089V11.4024ZM14.7505 10.5872L14.1924 11.0988C14.1438 11.144 14.1095 11.2023 14.0938 11.2668C14.057 11.4137 13.985 11.7035 13.9263 11.9784C13.9162 12.0151 13.8943 12.0474 13.864 12.0705C13.8337 12.0935 13.7967 12.106 13.7587 12.106C13.7206 12.106 13.6836 12.0935 13.6533 12.0705C13.623 12.0474 13.6011 12.0151 13.591 11.9784L13.4138 11.2668C13.3987 11.202 13.3641 11.1434 13.3147 11.0988L12.7566 10.5872C12.7307 10.563 12.7132 10.5312 12.7065 10.4964C12.6998 10.4616 12.7044 10.4256 12.7194 10.3936C12.7345 10.3615 12.7594 10.3351 12.7905 10.318C12.8216 10.301 12.8573 10.2943 12.8924 10.2988L13.7296 10.4128H13.7761L13.8412 10.4044L14.6133 10.2988C14.6481 10.2953 14.6831 10.3029 14.7134 10.3204C14.7437 10.3379 14.7677 10.3645 14.782 10.3964C14.7963 10.4283 14.8002 10.4639 14.7931 10.4982C14.7861 10.5324 14.7684 10.5636 14.7426 10.5872H14.7505Z" fill="currentColor"></path>
  </symbol>
  <symbol fill="none" xmlns="http://www.w3.org/2000/svg" viewBox="0 0 24 24" id="reddit">
    <path fill-rule="evenodd" clip-rule="evenodd" d="M22 12C22 17.5228 17.5228 22 12 22C6.47715 22 2 17.5228 2 12C2 6.47715 6.47715 2 12 2C17.5228 2 22 6.47715 22 12ZM18.4066 11.2152C18.5683 11.4459 18.6598 11.7184 18.6701 11.9999C18.6743 12.2754 18.6005 12.5465 18.4572 12.7819C18.3139 13.0172 18.1069 13.2072 17.8601 13.3299C17.8713 13.4763 17.8713 13.6234 17.8601 13.7699C17.8601 16.0099 15.2501 17.8299 12.0301 17.8299C8.81008 17.8299 6.20008 16.0099 6.20008 13.7699C6.18882 13.6234 6.18882 13.4763 6.20008 13.3299C6.00774 13.2415 5.83692 13.1124 5.69945 12.9514C5.56197 12.7905 5.46114 12.6016 5.40394 12.3978C5.34673 12.194 5.33453 11.9802 5.36816 11.7712C5.4018 11.5622 5.48047 11.363 5.59873 11.1875C5.71699 11.0119 5.872 10.8642 6.05303 10.7545C6.23407 10.6448 6.43678 10.5758 6.64714 10.5523C6.85749 10.5287 7.07045 10.5512 7.27126 10.6181C7.47207 10.685 7.65593 10.7948 7.81008 10.9399C8.96236 10.1584 10.318 9.73086 11.7101 9.70988L12.4501 6.23988C12.4584 6.19971 12.4746 6.16158 12.4977 6.12772C12.5209 6.09385 12.5505 6.06492 12.585 6.0426C12.6194 6.02027 12.6579 6.005 12.6982 5.99767C12.7386 5.99034 12.78 5.99109 12.8201 5.99988L15.2701 6.48988C15.3897 6.28431 15.5787 6.12813 15.8032 6.04935C16.0276 5.97058 16.2727 5.97438 16.4946 6.06006C16.7165 6.14575 16.9006 6.30771 17.0138 6.51688C17.127 6.72605 17.162 6.96873 17.1124 7.20135C17.0628 7.43397 16.9319 7.64131 16.7433 7.78614C16.5546 7.93097 16.3205 8.00382 16.083 7.9916C15.8454 7.97937 15.62 7.88289 15.4472 7.71946C15.2744 7.55603 15.1655 7.33636 15.1401 7.09988L13.0001 6.64988L12.3501 9.76988C13.7253 9.79938 15.0625 10.2266 16.2001 10.9999C16.4033 10.8048 16.6586 10.6727 16.9352 10.6195C17.2118 10.5663 17.4979 10.5942 17.759 10.6999C18.02 10.8056 18.245 10.9846 18.4066 11.2152ZM8.83862 12.4443C8.72873 12.6088 8.67008 12.8021 8.67008 12.9999C8.67008 13.1312 8.69595 13.2612 8.7462 13.3826C8.79646 13.5039 8.87012 13.6141 8.96298 13.707C9.05584 13.7998 9.16608 13.8735 9.2874 13.9238C9.40873 13.974 9.53876 13.9999 9.67008 13.9999C9.86787 13.9999 10.0612 13.9412 10.2257 13.8313C10.3901 13.7215 10.5183 13.5653 10.594 13.3826C10.6697 13.1998 10.6895 12.9988 10.6509 12.8048C10.6123 12.6108 10.517 12.4326 10.3772 12.2928C10.2373 12.1529 10.0592 12.0577 9.86518 12.0191C9.67119 11.9805 9.47013 12.0003 9.2874 12.076C9.10468 12.1517 8.9485 12.2799 8.83862 12.4443ZM12.0101 16.5199C12.8977 16.5567 13.7706 16.2845 14.4801 15.7499V15.7899C14.5063 15.7643 14.5273 15.7337 14.5418 15.7C14.5562 15.6663 14.5639 15.6301 14.5644 15.5934C14.5649 15.5567 14.5581 15.5203 14.5445 15.4863C14.5309 15.4522 14.5107 15.4211 14.4851 15.3949C14.4595 15.3686 14.4289 15.3476 14.3952 15.3332C14.3615 15.3187 14.3253 15.311 14.2886 15.3106C14.2145 15.3096 14.1431 15.3382 14.0901 15.3899C13.4832 15.8252 12.7459 16.0404 12.0001 15.9999C11.2552 16.0332 10.5213 15.8109 9.92008 15.3699C9.86827 15.3274 9.8025 15.3056 9.73555 15.3089C9.6686 15.3122 9.60527 15.3403 9.55787 15.3877C9.51048 15.4351 9.48241 15.4984 9.47912 15.5653C9.47583 15.6323 9.49756 15.6981 9.54008 15.7499C10.2496 16.2845 11.1225 16.5567 12.0101 16.5199ZM13.7445 13.8713C13.909 13.9812 14.1023 14.0399 14.3001 14.0399L14.2901 14.0799C14.4257 14.0813 14.5602 14.0552 14.6853 14.0031C14.8105 13.9509 14.9238 13.8739 15.0183 13.7766C15.1127 13.6793 15.1864 13.5639 15.2349 13.4372C15.2833 13.3106 15.3055 13.1754 15.3001 13.0399C15.3001 12.8421 15.2414 12.6488 15.1316 12.4843C15.0217 12.3199 14.8655 12.1917 14.6828 12.116C14.5 12.0403 14.299 12.0205 14.105 12.0591C13.911 12.0977 13.7328 12.1929 13.593 12.3328C13.4531 12.4726 13.3579 12.6508 13.3193 12.8448C13.2807 13.0388 13.3005 13.2398 13.3762 13.4226C13.4519 13.6053 13.5801 13.7615 13.7445 13.8713Z" fill="currentColor"></path>
  </symbol>
  <symbol fill="none" xmlns="http://www.w3.org/2000/svg" viewBox="0 0 24 24" id="coingecko">
    <path fill-rule="evenodd" clip-rule="evenodd" d="M1.00011 12.049C0.973625 5.97455 5.87474 1.02863 11.9512 1.00011C18.0257 0.973625 22.9716 5.87474 23.0001 11.9512C23.0266 18.0257 18.1234 22.9716 12.049 23.0001C5.97455 23.0266 1.02863 18.1234 1.00011 12.049ZM8.59011 9.49455C8.59011 10.5803 9.47214 11.4603 10.5579 11.4603C11.6436 11.4603 12.5236 10.5803 12.5236 9.49455C12.5236 8.40881 11.6436 7.52881 10.5579 7.52881C9.47011 7.52881 8.59011 8.40881 8.59011 9.49455ZM12.1366 13.5747L12.1264 13.587C12.5807 14.1003 13.2936 14.3366 13.9699 14.3997C14.6564 14.4629 15.3347 14.3346 15.9846 14.1675C16.6364 13.9984 17.2679 13.7642 17.8729 13.479C18.4718 13.1836 19.0605 12.8496 19.5555 12.3994L19.5392 12.379L19.5351 12.3729C19.4964 12.4055 19.4557 12.436 19.4129 12.4666C19.2194 12.599 19.0218 12.7253 18.8201 12.8475C18.8181 12.8496 18.816 12.8496 18.814 12.8516C18.4901 13.0329 18.1499 13.1877 17.8077 13.3283C17.1986 13.5808 16.5671 13.7784 15.9255 13.9108C15.2818 14.0412 14.6299 14.0881 13.9883 14.0718C13.3486 14.0514 12.709 13.9251 12.1468 13.5625L12.1366 13.5747ZM17.5979 11.0325C17.3636 11.0346 17.1742 11.224 17.1742 11.4603C17.1742 11.6966 17.3677 11.886 17.602 11.884C17.8362 11.884 18.0257 11.6905 18.0257 11.4562C18.0236 11.222 17.8342 11.0325 17.5979 11.0325ZM17.4451 14.6279C15.9784 16.119 13.3792 19.034 13.8049 22.0121C18.5797 21.1586 22.1934 16.9725 22.1731 11.9553C22.1466 6.33714 17.5734 1.80474 11.9553 1.82918C6.33714 1.85363 1.80474 6.42881 1.82918 12.0449C1.83733 14.1797 2.50344 16.1557 3.634 17.7873C4.50317 15.8341 4.64569 14.115 4.83193 11.8687C4.83993 11.7722 4.848 11.6748 4.85622 11.5764C5.00288 9.36214 5.60788 7.52474 9.37437 6.48788C10.236 6.28214 11.1303 6.35751 12.0388 6.5714C12.8597 6.37788 13.809 6.36566 14.3162 6.80566C14.5525 7.00529 14.7073 7.18251 14.797 7.33529C14.8275 7.39844 14.856 7.46566 14.8805 7.53696L14.9149 7.55055C15.6773 7.8515 16.4314 8.1492 17.1579 8.35992C21.0527 9.42325 20.6738 11.5499 18.7712 13.3283C18.4965 13.6123 18.2097 13.887 17.9524 14.1334C17.7614 14.3164 17.5866 14.4838 17.4451 14.6279ZM10.557 10.8962C11.3209 10.8962 11.9401 10.2769 11.9401 9.51303C11.9401 8.74914 11.3209 8.12988 10.557 8.12988C9.79309 8.12988 9.17383 8.74914 9.17383 9.51303C9.17383 10.2769 9.79309 10.8962 10.557 10.8962Z" fill="currentColor"></path>
  </symbol>
  <symbol fill="none" xmlns="http://www.w3.org/2000/svg" viewBox="0 0 24 24" id="coinpaprika">
    <path fill-rule="evenodd" clip-rule="evenodd" d="M20.5349 4.46836C20.422 5.1269 20.3467 5.76663 20.3279 6.42516C20.321 6.605 20.3236 6.78357 20.3354 6.96075C20.5523 7.16095 20.7685 7.38434 20.987 7.62908C21.3445 7.98658 21.6079 8.41933 21.7396 8.90853C21.9089 9.7364 21.9277 10.5831 21.7772 11.3922C21.495 16.096 18.6162 19.0877 14.6838 20.988C11.2218 22.6626 7.62804 22.1922 4.33534 20.0661C4.05311 19.9155 3.7897 19.7274 3.56391 19.4828C3.37576 19.3511 3.24405 19.1253 3.20642 18.8995C2.47262 17.1497 3.86496 17.0556 4.73047 17.3943C7.10121 18.3915 8.71933 17.2249 10.4127 15.9831C10.5632 15.8138 10.6949 15.6256 10.8267 15.4375C11.0738 14.7617 11.3222 14.0873 11.5706 13.4131C12.2489 11.572 12.9264 9.73294 13.5737 7.87368C13.7995 7.00817 14.5709 6.36845 15.4741 6.33082H15.5869C16.6035 5.85858 17.4498 5.7064 18.2069 5.82215C18.8804 5.38313 19.5831 4.91022 19.6506 3.84745C19.6882 3.24536 18.3335 2.07881 18.0136 3.24536C17.8255 3.96035 17.5432 3.96035 17.2046 3.62167C16.9788 3.33944 17.0164 2.94431 17.2798 2.71853C17.769 2.22933 18.4276 1.96592 19.1237 2.00355C19.8199 2.05999 20.7419 2.77498 20.5349 4.46836Z" fill="currentColor"></path>
  </symbol>
  <symbol fill="none" xmlns="http://www.w3.org/2000/svg" viewBox="0 0 24 24" id="coinmarketcup">
    <path d="M19.8474 14.1456C19.6759 14.2638 19.4756 14.3336 19.2677 14.3475C19.0599 14.3615 18.8521 14.3191 18.6663 14.2249C18.2301 13.9785 17.995 13.4007 17.995 12.6132V10.1999C17.995 9.04146 17.5361 8.2172 16.7685 7.99343C15.4712 7.61388 14.5025 9.20291 14.1286 9.80057L11.8343 13.514V8.98198C11.8088 7.93678 11.4689 7.3108 10.8259 7.12386C10.4011 6.99923 9.76374 7.05021 9.14343 7.99627L4.01378 16.2303C3.33126 14.9245 2.97736 13.472 2.98275 11.9986C2.98275 7.03605 6.94824 2.99974 11.8343 2.99974C16.7204 2.99974 20.7 7.03605 20.7 11.9986V12.0241C20.7 12.0241 20.7 12.0411 20.7 12.0496C20.7482 13.0098 20.4366 13.7746 19.8503 14.1456H19.8474ZM22.6799 12.0014V11.9533C22.6403 5.90588 17.791 1 11.8343 1C5.87756 1 1 5.93421 1 11.9986C1 18.063 5.86056 23 11.8343 23C14.5741 22.9999 17.2097 21.9497 19.1988 20.0655C19.3919 19.8836 19.5055 19.633 19.515 19.3679C19.5246 19.1028 19.4293 18.8446 19.2498 18.6493C19.1639 18.5543 19.06 18.4772 18.9442 18.4225C18.8284 18.3677 18.703 18.3364 18.575 18.3304C18.4471 18.3243 18.3192 18.3436 18.1988 18.3872C18.0783 18.4307 17.9677 18.4977 17.8732 18.5841C17.0168 19.3965 16.0051 20.0274 14.8988 20.439C13.7926 20.8506 12.6145 21.0344 11.4354 20.9794C10.2564 20.9243 9.10055 20.6316 8.03741 20.1188C6.97428 19.6059 6.02574 18.8835 5.24874 17.995L9.86571 10.5738V13.9983C9.86571 15.644 10.503 16.1765 11.0384 16.3323C11.5737 16.4881 12.3923 16.3805 13.2505 14.9869L15.7998 10.8599C15.8791 10.7268 15.9556 10.6135 16.0236 10.5144V12.6132C16.0236 14.1513 16.641 15.3806 17.7231 15.9867C18.2151 16.2523 18.7695 16.3807 19.3281 16.3582C19.8868 16.3358 20.4292 16.1635 20.8983 15.8593C22.0879 15.086 22.7366 13.6868 22.6686 12.0014H22.6799Z" fill="currentColor"></path>
  </symbol>
  <symbol fill="none" xmlns="http://www.w3.org/2000/svg" viewBox="0 0 24 24" id="facebook">
    <path d="M7.28737 13.1194H9.24036V21.6935C9.24036 21.8628 9.36898 22 9.52772 22H12.8391C12.9978 22 13.1265 21.8628 13.1265 21.6935V13.1598H15.3716C15.5176 13.1598 15.6404 13.043 15.6571 12.8883L15.998 9.73176C16.0074 9.64491 15.9816 9.55794 15.9271 9.49279C15.8726 9.42758 15.7945 9.39025 15.7126 9.39025H13.1266V7.41155C13.1266 6.81508 13.4277 6.51261 14.0218 6.51261C14.1064 6.51261 15.7126 6.51261 15.7126 6.51261C15.8714 6.51261 16 6.37538 16 6.20616V3.30872C16 3.13944 15.8714 3.00227 15.7126 3.00227H13.3824C13.366 3.00141 13.3295 3 13.2757 3C12.8713 3 11.4659 3.08464 10.3558 4.17377C9.12576 5.3807 9.29674 6.8258 9.3376 7.07636V9.39019H7.28737C7.12862 9.39019 7 9.52736 7 9.69664V12.8129C7 12.9822 7.12862 13.1194 7.28737 13.1194Z" fill="currentColor"></path>
  </symbol>
  <symbol fill="none" xmlns="http://www.w3.org/2000/svg" viewBox="0 0 24 24" id="telegram">
    <path d="M20.9985 5.0374C20.9972 5.29156 20.9642 5.54245 20.9316 5.79361C20.9023 6.01747 20.8768 6.24187 20.8475 6.46573C20.8114 6.74337 20.7741 7.02074 20.736 7.29783C20.6978 7.57492 20.6587 7.85202 20.6193 8.12884C20.5741 8.44606 20.5274 8.76301 20.4823 9.08024C20.4434 9.35269 20.4063 9.62541 20.3677 9.89814C20.3303 10.1619 20.2922 10.4253 20.2546 10.689C20.2248 10.8987 20.1967 11.1083 20.1652 11.3177C20.1268 11.5741 20.0804 11.8293 20.0476 12.0865C20.0231 12.2779 19.9923 12.4676 19.9645 12.6584C19.9178 12.9784 19.8749 13.2992 19.8289 13.6191C19.782 13.9451 19.734 14.271 19.6851 14.5967C19.6469 14.8501 19.6055 15.1026 19.5674 15.3559C19.5386 15.5465 19.5134 15.7376 19.4849 15.9281C19.4452 16.1938 19.4033 16.4591 19.3642 16.725C19.3276 16.9737 19.2943 17.223 19.2582 17.4719C19.2117 17.7935 19.164 18.1148 19.1173 18.4364C19.0711 18.7534 19.0237 19.0703 18.9795 19.3878C18.932 19.7288 18.8752 20.0657 18.7144 20.3717C18.5387 20.7064 18.2896 20.9297 17.9306 20.9871C17.7201 21.0206 17.5128 20.9846 17.3086 20.9276C16.7459 20.7706 16.2352 20.4897 15.7584 20.1391C15.2727 19.7821 14.7789 19.4392 14.2897 19.0881C13.6187 18.6065 12.9487 18.1236 12.2876 17.6265C11.8329 17.2847 11.3826 16.9363 10.9474 16.5661C10.7964 16.4378 10.6419 16.3125 10.517 16.1493C10.2166 15.7561 10.215 15.3125 10.5147 14.9123C10.6533 14.7272 10.8307 14.5869 10.9814 14.4163C11.1142 14.2661 11.2659 14.1392 11.4061 13.9983C11.7504 13.6516 12.0907 13.3002 12.435 12.9533C12.9361 12.4485 13.4311 11.9366 13.9256 11.4247C14.56 10.7679 15.1904 10.1064 15.8116 9.43513C16.0214 9.20855 16.1968 8.95684 16.3082 8.65709C16.3332 8.58966 16.3554 8.52195 16.3554 8.44743C16.3554 8.30437 16.2998 8.24049 16.1663 8.23312C16.0896 8.22875 16.0174 8.25332 15.9452 8.2768C15.6455 8.37481 15.3767 8.54216 15.1129 8.71879C14.4782 9.14412 13.8691 9.61122 13.2491 10.0603C12.465 10.6281 11.683 11.1993 10.9004 11.769C10.1315 12.3286 9.36281 12.8886 8.59413 13.4485C8.34724 13.6284 8.09632 13.8023 7.85473 13.9901C7.64445 14.1536 7.40766 14.2328 7.15977 14.2847C6.99492 14.3191 6.82629 14.336 6.65994 14.333C6.40901 14.3284 6.15834 14.306 5.91145 14.2478C5.38764 14.1239 4.88251 13.9311 4.37284 13.7559C3.71952 13.5312 3.06974 13.2932 2.4187 13.0606C2.16424 12.9696 1.97895 12.674 2.00192 12.3903C2.01631 12.211 2.11855 12.0832 2.23265 11.9672C2.46566 11.73 2.75091 11.5847 3.04122 11.4537C3.69756 11.1575 4.35617 10.8673 5.01378 10.5749C5.69082 10.2741 6.36887 9.97512 7.04516 9.67237C7.43972 9.49574 7.831 9.31037 8.22582 9.13402C8.68147 8.93009 9.1399 8.73326 9.59581 8.53015C9.91489 8.38819 10.2312 8.23913 10.55 8.0969C10.7368 8.01363 10.9274 7.94019 11.114 7.85693C11.3581 7.748 11.5969 7.62488 11.8438 7.52442C12.0977 7.42095 12.3474 7.30684 12.5981 7.19545C13.3912 6.84247 14.1857 6.49221 14.975 6.1294C15.6334 5.82664 16.2943 5.53044 16.9552 5.23423C17.7165 4.89326 18.4797 4.55747 19.2405 4.21513C19.5495 4.07617 19.8658 3.98445 20.2031 4.00219C20.7143 4.02895 20.9518 4.34071 20.997 4.83456C21.0033 4.90199 20.9977 4.97079 20.9977 5.03904L20.9985 5.0374Z" fill="currentColor"></path>
  </symbol>
  <symbol fill="none" xmlns="http://www.w3.org/2000/svg" viewBox="0 0 24 24" id="gitbook">
    <path fill-rule="evenodd" clip-rule="evenodd" d="M13.8484 4.19968L21.298 7.92447C21.6422 8.09659 21.6476 8.58597 21.3072 8.76559L11.6319 13.872C11.0925 14.1567 10.4488 14.1638 9.90322 13.891L3.8285 10.8536C3.08844 10.5563 2.26096 11.0993 2.26096 11.9172C2.26096 12.5748 2.63249 13.176 3.22066 13.4701L9.31103 16.5152C9.68281 16.1367 10.2005 15.9019 10.773 15.9019C11.3292 15.9019 11.8335 16.1234 12.2027 16.4831L19.7885 12.4795C19.7677 12.3624 19.7569 12.2419 19.7569 12.1189C19.7569 10.9872 20.6743 10.0699 21.806 10.0699C22.9376 10.0699 23.855 10.9872 23.855 12.1189C23.855 13.2506 22.9376 14.168 21.806 14.168C21.2526 14.168 20.7505 13.9487 20.3818 13.5922L12.7918 17.598C12.8117 17.7127 12.8221 17.8306 12.8221 17.9509C12.8221 19.0826 11.9047 20 10.773 20C9.64134 20 8.72394 19.0826 8.72394 17.9509C8.72394 17.8463 8.73178 17.7434 8.74694 17.643L2.56834 14.5537C1.60716 14.0731 1 13.0907 1 12.0161V11.4175C1 10.5991 1.45297 9.84784 2.1768 9.46588L12.1197 4.21868C12.6591 3.93396 13.3028 3.92689 13.8484 4.19968ZM10.773 18.739C11.2083 18.739 11.5611 18.3862 11.5611 17.9509C11.5611 17.5157 11.2083 17.1628 10.773 17.1628C10.3377 17.1628 9.98491 17.5157 9.98491 17.9509C9.98491 18.3862 10.3377 18.739 10.773 18.739ZM22.5941 12.1189C22.5941 12.5542 22.2412 12.907 21.806 12.907C21.3707 12.907 21.0179 12.5542 21.0179 12.1189C21.0179 11.6837 21.3707 11.3308 21.806 11.3308C22.2412 11.3308 22.5941 11.6837 22.5941 12.1189Z" fill="currentColor"></path>
  </symbol>
</svg>
