<svg width="0" height="0" class="hidden">
  <symbol fill="none" xmlns="http://www.w3.org/2000/svg" viewBox="0 0 24 24" id="earth">
    <path d="M12 22C10.6 22 9.29167 21.7375 8.075 21.2125C6.85833 20.6875 5.8 19.975 4.9 19.075C4 18.175 3.29167 17.1125 2.775 15.8875C2.25833 14.6625 2 13.35 2 11.95C2 10.55 2.25833 9.24583 2.775 8.0375C3.29167 6.82917 4 5.775 4.9 4.875C5.8 3.975 6.85833 3.27083 8.075 2.7625C9.29167 2.25417 10.6 2 12 2C13.4 2 14.7083 2.25417 15.925 2.7625C17.1417 3.27083 18.2 3.975 19.1 4.875C20 5.775 20.7083 6.82917 21.225 8.0375C21.7417 9.24583 22 10.55 22 11.95C22 13.35 21.7417 14.6625 21.225 15.8875C20.7083 17.1125 20 18.175 19.1 19.075C18.2 19.975 17.1417 20.6875 15.925 21.2125C14.7083 21.7375 13.4 22 12 22ZM15.95 8.25H19.7C19.15 7.1 18.3958 6.14167 17.4375 5.375C16.4792 4.60833 15.375 4.06667 14.125 3.75C14.5417 4.36667 14.8958 5.03333 15.1875 5.75C15.4792 6.46667 15.7333 7.3 15.95 8.25ZM9.6 8.25H14.45C14.2667 7.36667 13.9583 6.5125 13.525 5.6875C13.0917 4.8625 12.5833 4.13333 12 3.5C11.4667 3.95 11.0167 4.54167 10.65 5.275C10.2833 6.00833 9.93333 7 9.6 8.25ZM3.8 14.225H7.775C7.725 13.775 7.69583 13.3708 7.6875 13.0125C7.67917 12.6542 7.675 12.3 7.675 11.95C7.675 11.5333 7.68333 11.1625 7.7 10.8375C7.71667 10.5125 7.75 10.15 7.8 9.75H3.8C3.68333 10.15 3.60417 10.5083 3.5625 10.825C3.52083 11.1417 3.5 11.5167 3.5 11.95C3.5 12.3833 3.52083 12.7708 3.5625 13.1125C3.60417 13.4542 3.68333 13.825 3.8 14.225ZM9.875 20.25C9.45833 19.6167 9.1 18.9333 8.8 18.2C8.5 17.4667 8.25 16.6417 8.05 15.725H4.3C4.93333 16.9083 5.66667 17.8375 6.5 18.5125C7.33333 19.1875 8.45833 19.7667 9.875 20.25ZM4.3 8.25H8.075C8.25833 7.35 8.49167 6.54583 8.775 5.8375C9.05833 5.12917 9.41667 4.44167 9.85 3.775C8.6 4.09167 7.50833 4.625 6.575 5.375C5.64167 6.125 4.88333 7.08333 4.3 8.25ZM12 20.55C12.5833 19.95 13.0708 19.2625 13.4625 18.4875C13.8542 17.7125 14.175 16.7917 14.425 15.725H9.6C9.83333 16.725 10.1458 17.625 10.5375 18.425C10.9292 19.225 11.4167 19.9333 12 20.55ZM9.325 14.225H14.7C14.7667 13.7083 14.8083 13.2875 14.825 12.9625C14.8417 12.6375 14.85 12.3 14.85 11.95C14.85 11.6167 14.8417 11.2958 14.825 10.9875C14.8083 10.6792 14.7667 10.2667 14.7 9.75H9.325C9.25833 10.2667 9.21667 10.6792 9.2 10.9875C9.18333 11.2958 9.175 11.6167 9.175 11.95C9.175 12.3 9.18333 12.6375 9.2 12.9625C9.21667 13.2875 9.25833 13.7083 9.325 14.225ZM14.15 20.225C15.35 19.8417 16.4292 19.2667 17.3875 18.5C18.3458 17.7333 19.1167 16.8083 19.7 15.725H15.975C15.7583 16.625 15.5042 17.4417 15.2125 18.175C14.9208 18.9083 14.5667 19.5917 14.15 20.225ZM16.2 14.225H20.2C20.3167 13.825 20.3958 13.4542 20.4375 13.1125C20.4792 12.7708 20.5 12.3833 20.5 11.95C20.5 11.5167 20.4792 11.1417 20.4375 10.825C20.3958 10.5083 20.3167 10.15 20.2 9.75H16.225C16.275 10.3333 16.3083 10.7792 16.325 11.0875C16.3417 11.3958 16.35 11.6833 16.35 11.95C16.35 12.3167 16.3375 12.6625 16.3125 12.9875C16.2875 13.3125 16.25 13.725 16.2 14.225Z" fill="currentColor"></path>
  </symbol>
  <symbol fill="none" xmlns="http://www.w3.org/2000/svg" viewBox="0 0 24 24" id="wallet">
    <path d="M10 16V8C10 6.9 10.89 6 12 6H21V5C21 3.9 20.1 3 19 3H5C3.89 3 3 3.9 3 5V19C3 20.1 3.89 21 5 21H19C20.1 21 21 20.1 21 19V18H12C10.89 18 10 17.1 10 16ZM13 8C12.45 8 12 8.45 12 9V15C12 15.55 12.45 16 13 16H22V8H13ZM16 13.5C15.17 13.5 14.5 12.83 14.5 12C14.5 11.17 15.17 10.5 16 10.5C16.83 10.5 17.5 11.17 17.5 12C17.5 12.83 16.83 13.5 16 13.5Z" fill="currentColor"></path>
  </symbol>
  <symbol fill="none" xmlns="http://www.w3.org/2000/svg" viewBox="0 0 24 24" id="expand-arrow">
    <path d="M15.88 9.29006L12 13.1701L8.11998 9.29006C7.72998 8.90006 7.09998 8.90006 6.70998 9.29006C6.31998 9.68006 6.31998 10.3101 6.70998 10.7001L11.3 15.2901C11.69 15.6801 12.32 15.6801 12.71 15.2901L17.3 10.7001C17.69 10.3101 17.69 9.68006 17.3 9.29006C16.91 8.91006 16.27 8.90006 15.88 9.29006Z" fill="currentColor"></path>
  </symbol>
  <symbol fill="none" xmlns="http://www.w3.org/2000/svg" viewBox="0 0 24 24" id="history">
    <path d="M12.8 11.65L15.675 14.475C15.825 14.625 15.9 14.8042 15.9 15.0125C15.9 15.2208 15.825 15.4 15.675 15.55C15.525 15.7 15.35 15.775 15.15 15.775C14.95 15.775 14.775 15.7 14.625 15.55L11.525 12.5C11.4416 12.4167 11.3833 12.3292 11.35 12.2375C11.3166 12.1458 11.3 12.05 11.3 11.95V7.675C11.3 7.45833 11.3708 7.27917 11.5125 7.1375C11.6541 6.99583 11.8333 6.925 12.05 6.925C12.2666 6.925 12.4458 6.99583 12.5875 7.1375C12.7291 7.27917 12.8 7.45833 12.8 7.675V11.65ZM11.925 21C9.59165 21 7.61248 20.25 5.98748 18.75C4.36248 17.25 3.39165 15.375 3.07498 13.125C3.04165 12.8917 3.08748 12.6917 3.21248 12.525C3.33748 12.3583 3.51665 12.2667 3.74998 12.25C3.94998 12.2333 4.12498 12.2958 4.27498 12.4375C4.42498 12.5792 4.51665 12.75 4.54998 12.95C4.83331 14.8167 5.64998 16.375 6.99998 17.625C8.34998 18.875 9.99165 19.5 11.925 19.5C14.0416 19.5 15.8333 18.7583 17.3 17.275C18.7666 15.7917 19.5 13.9917 19.5 11.875C19.5 9.80833 18.7583 8.0625 17.275 6.6375C15.7916 5.2125 14.0083 4.5 11.925 4.5C10.7916 4.5 9.72915 4.75833 8.73748 5.275C7.74581 5.79167 6.88331 6.475 6.14998 7.325H8.02498C8.24165 7.325 8.42081 7.39583 8.56248 7.5375C8.70415 7.67917 8.77498 7.85833 8.77498 8.075C8.77498 8.29167 8.70415 8.47083 8.56248 8.6125C8.42081 8.75417 8.24165 8.825 8.02498 8.825H4.29998C4.08331 8.825 3.90415 8.75417 3.76248 8.6125C3.62081 8.47083 3.54998 8.29167 3.54998 8.075V4.375C3.54998 4.15833 3.62081 3.97917 3.76248 3.8375C3.90415 3.69583 4.08331 3.625 4.29998 3.625C4.51665 3.625 4.69581 3.69583 4.83748 3.8375C4.97915 3.97917 5.04998 4.15833 5.04998 4.375V6.275C5.91665 5.25833 6.94581 4.45833 8.13748 3.875C9.32915 3.29167 10.5916 3 11.925 3C13.175 3 14.35 3.23333 15.45 3.7C16.55 4.16667 17.5125 4.80417 18.3375 5.6125C19.1625 6.42083 19.8125 7.36667 20.2875 8.45C20.7625 9.53333 21 10.7 21 11.95C21 13.2 20.7625 14.375 20.2875 15.475C19.8125 16.575 19.1625 17.5333 18.3375 18.35C17.5125 19.1667 16.55 19.8125 15.45 20.2875C14.35 20.7625 13.175 21 11.925 21Z" fill="currentColor"></path>
  </symbol>
  <symbol fill="none" xmlns="http://www.w3.org/2000/svg" viewBox="0 0 24 24" id="logout">
    <path d="M5.77778 5.77778H11.1111C11.6 5.77778 12 5.37778 12 4.88889C12 4.4 11.6 4 11.1111 4H5.77778C4.8 4 4 4.8 4 5.77778V18.2222C4 19.2 4.8 20 5.77778 20H11.1111C11.6 20 12 19.6 12 19.1111C12 18.6222 11.6 18.2222 11.1111 18.2222H5.77778V5.77778Z" fill="currentColor"></path>
    <path d="M19.6886 11.6889L17.2086 9.20892C16.9241 8.92447 16.4441 9.12003 16.4441 9.52003V11.1111H10.2219C9.73301 11.1111 9.33301 11.5111 9.33301 12C9.33301 12.4889 9.73301 12.8889 10.2219 12.8889H16.4441V14.48C16.4441 14.88 16.9241 15.0756 17.1997 14.7911L19.6797 12.3111C19.8575 12.1422 19.8575 11.8578 19.6886 11.6889Z" fill="currentColor"></path>
  </symbol>
  <symbol fill="none" xmlns="http://www.w3.org/2000/svg" viewBox="0 0 24 24" id="cross">
    <path d="M18.2997 5.70997C17.9097 5.31997 17.2797 5.31997 16.8897 5.70997L11.9997 10.59L7.10973 5.69997C6.71973 5.30997 6.08973 5.30997 5.69973 5.69997C5.30973 6.08997 5.30973 6.71997 5.69973 7.10997L10.5897 12L5.69973 16.89C5.30973 17.28 5.30973 17.91 5.69973 18.3C6.08973 18.69 6.71973 18.69 7.10973 18.3L11.9997 13.41L16.8897 18.3C17.2797 18.69 17.9097 18.69 18.2997 18.3C18.6897 17.91 18.6897 17.28 18.2997 16.89L13.4097 12L18.2997 7.10997C18.6797 6.72997 18.6797 6.08997 18.2997 5.70997Z" fill="currentColor"></path>
  </symbol>
  <symbol fill="none" xmlns="http://www.w3.org/2000/svg" viewBox="0 0 24 24" id="sun">
    <path d="M12 7.45455C9.49091 7.45455 7.45455 9.49091 7.45455 12C7.45455 14.5091 9.49091 16.5455 12 16.5455C14.5091 16.5455 16.5455 14.5091 16.5455 12C16.5455 9.49091 14.5091 7.45455 12 7.45455ZM2.90909 12.9091H4.72727C5.22727 12.9091 5.63636 12.5 5.63636 12C5.63636 11.5 5.22727 11.0909 4.72727 11.0909H2.90909C2.40909 11.0909 2 11.5 2 12C2 12.5 2.40909 12.9091 2.90909 12.9091ZM19.2727 12.9091H21.0909C21.5909 12.9091 22 12.5 22 12C22 11.5 21.5909 11.0909 21.0909 11.0909H19.2727C18.7727 11.0909 18.3636 11.5 18.3636 12C18.3636 12.5 18.7727 12.9091 19.2727 12.9091ZM11.0909 2.90909V4.72727C11.0909 5.22727 11.5 5.63636 12 5.63636C12.5 5.63636 12.9091 5.22727 12.9091 4.72727V2.90909C12.9091 2.40909 12.5 2 12 2C11.5 2 11.0909 2.40909 11.0909 2.90909ZM11.0909 19.2727V21.0909C11.0909 21.5909 11.5 22 12 22C12.5 22 12.9091 21.5909 12.9091 21.0909V19.2727C12.9091 18.7727 12.5 18.3636 12 18.3636C11.5 18.3636 11.0909 18.7727 11.0909 19.2727ZM6.53636 5.25455C6.18182 4.9 5.6 4.9 5.25455 5.25455C4.9 5.60909 4.9 6.19091 5.25455 6.53636L6.21818 7.5C6.57273 7.85455 7.15455 7.85455 7.5 7.5C7.84545 7.14545 7.85455 6.56364 7.5 6.21818L6.53636 5.25455ZM17.7818 16.5C17.4273 16.1455 16.8455 16.1455 16.5 16.5C16.1455 16.8545 16.1455 17.4364 16.5 17.7818L17.4636 18.7455C17.8182 19.1 18.4 19.1 18.7455 18.7455C19.1 18.3909 19.1 17.8091 18.7455 17.4636L17.7818 16.5ZM18.7455 6.53636C19.1 6.18182 19.1 5.6 18.7455 5.25455C18.3909 4.9 17.8091 4.9 17.4636 5.25455L16.5 6.21818C16.1455 6.57273 16.1455 7.15455 16.5 7.5C16.8545 7.84545 17.4364 7.85455 17.7818 7.5L18.7455 6.53636ZM7.5 17.7818C7.85455 17.4273 7.85455 16.8455 7.5 16.5C7.14545 16.1455 6.56364 16.1455 6.21818 16.5L5.25455 17.4636C4.9 17.8182 4.9 18.4 5.25455 18.7455C5.60909 19.0909 6.19091 19.1 6.53636 18.7455L7.5 17.7818Z" fill="currentColor"></path>
  </symbol>
  <symbol fill="none" xmlns="http://www.w3.org/2000/svg" viewBox="0 0 24 24" id="night">
    <path d="M10.799 6.00262C7.54115 6.35743 5 9.12344 5 12.4832C5 16.0819 7.91762 19 11.5158 19C14.8678 19 17.6333 16.4657 17.9953 13.2073C18.0605 12.6353 17.4306 12.1791 16.8804 12.5194C16.2723 12.9104 15.5483 13.1349 14.7737 13.1349C12.6162 13.1349 10.8642 11.3826 10.8642 9.22481C10.8642 8.45728 11.0886 7.73319 11.4723 7.1322C11.7981 6.64706 11.4434 5.95194 10.799 6.00262Z" fill="currentColor"></path>
  </symbol>
  <symbol fill="none" xmlns="http://www.w3.org/2000/svg" viewBox="0 0 24 24" id="error">
    <path d="M11.9995 17C12.2332 17 12.4292 16.921 12.5875 16.7629C12.7458 16.6049 12.825 16.4091 12.825 16.1755C12.825 15.9418 12.746 15.7458 12.588 15.5875C12.4299 15.4292 12.2341 15.35 12.0005 15.35C11.7668 15.35 11.5708 15.429 11.4125 15.5871C11.2542 15.7451 11.175 15.9409 11.175 16.1746C11.175 16.4082 11.254 16.6042 11.4121 16.7625C11.5701 16.9208 11.7659 17 11.9995 17ZM12.0794 13.175C12.2931 13.175 12.4708 13.1031 12.6125 12.9594C12.7542 12.8156 12.825 12.6375 12.825 12.425V7.6C12.825 7.3875 12.7527 7.20937 12.6081 7.06563C12.4635 6.92188 12.2844 6.85 12.0706 6.85C11.8569 6.85 11.6792 6.92188 11.5375 7.06563C11.3958 7.20937 11.325 7.3875 11.325 7.6V12.425C11.325 12.6375 11.3973 12.8156 11.5419 12.9594C11.6865 13.1031 11.8656 13.175 12.0794 13.175ZM12.0066 22C10.6278 22 9.33192 21.7375 8.11915 21.2125C6.90638 20.6875 5.84583 19.9708 4.9375 19.0625C4.02917 18.1542 3.3125 17.093 2.7875 15.879C2.2625 14.665 2 13.3678 2 11.9875C2 10.6072 2.2625 9.31003 2.7875 8.09602C3.3125 6.88201 4.02917 5.825 4.9375 4.925C5.84583 4.025 6.90701 3.3125 8.12103 2.7875C9.33503 2.2625 10.6322 2 12.0125 2C13.3928 2 14.69 2.2625 15.904 2.7875C17.118 3.3125 18.175 4.025 19.075 4.925C19.975 5.825 20.6875 6.88333 21.2125 8.1C21.7375 9.31667 22 10.6145 22 11.9934C22 13.3723 21.7375 14.6681 21.2125 15.8809C20.6875 17.0936 19.975 18.1526 19.075 19.0579C18.175 19.9632 17.1167 20.6798 15.9 21.2079C14.6833 21.736 13.3855 22 12.0066 22Z" fill="currentColor"/>
  </symbol>
  <symbol fill="none" xmlns="http://www.w3.org/2000/svg" viewBox="0 0 24 24" id="done">
    <path d="M10.525 14.275L8.075 11.825C7.925 11.675 7.74167 11.6 7.525 11.6C7.30833 11.6 7.125 11.675 6.975 11.825C6.80833 11.9917 6.725 12.1875 6.725 12.4125C6.725 12.6375 6.8 12.825 6.95 12.975L10 16.025C10.1333 16.1583 10.3083 16.225 10.525 16.225C10.7417 16.225 10.9167 16.1583 11.05 16.025L17.05 10.025C17.2 9.875 17.275 9.69167 17.275 9.475C17.275 9.25833 17.1917 9.06667 17.025 8.9C16.875 8.75 16.6875 8.675 16.4625 8.675C16.2375 8.675 16.0417 8.75833 15.875 8.925L10.525 14.275ZM12 22C10.5833 22 9.26667 21.7458 8.05 21.2375C6.83333 20.7292 5.775 20.025 4.875 19.125C3.975 18.225 3.27083 17.1667 2.7625 15.95C2.25417 14.7333 2 13.4167 2 12C2 10.6 2.25417 9.29167 2.7625 8.075C3.27083 6.85833 3.975 5.8 4.875 4.9C5.775 4 6.83333 3.29167 8.05 2.775C9.26667 2.25833 10.5833 2 12 2C13.4 2 14.7083 2.25833 15.925 2.775C17.1417 3.29167 18.2 4 19.1 4.9C20 5.8 20.7083 6.85833 21.225 8.075C21.7417 9.29167 22 10.6 22 12C22 13.4167 21.7417 14.7333 21.225 15.95C20.7083 17.1667 20 18.225 19.1 19.125C18.2 20.025 17.1417 20.7292 15.925 21.2375C14.7083 21.7458 13.4 22 12 22Z" fill="currentColor"/>
  </symbol>
  <symbol fill="none" xmlns="http://www.w3.org/2000/svg" viewBox="0 0 24 24" id="warning">
    <path d="M2.30005 21C2.15005 21 2.01961 20.9656 1.90875 20.8969C1.79788 20.8281 1.71165 20.7375 1.65005 20.625C1.5806 20.515 1.5424 20.3958 1.53547 20.2675C1.52852 20.1392 1.56671 20.0083 1.65005 19.875L11.35 3.125C11.4334 2.99167 11.5292 2.89583 11.6375 2.8375C11.7459 2.77917 11.8667 2.75 12 2.75C12.1334 2.75 12.2542 2.77917 12.3625 2.8375C12.4709 2.89583 12.5667 2.99167 12.65 3.125L22.35 19.875C22.4334 20.0083 22.4716 20.1392 22.4646 20.2675C22.4577 20.3958 22.4195 20.515 22.35 20.625C22.2884 20.7375 22.2022 20.8281 22.0913 20.8969C21.9805 20.9656 21.85 21 21.7 21H2.30005ZM12.1044 18.075C12.3182 18.075 12.4959 18.0027 12.6375 17.8581C12.7792 17.7135 12.85 17.5344 12.85 17.3206C12.85 17.1069 12.7778 16.9292 12.6332 16.7875C12.4886 16.6458 12.3094 16.575 12.0957 16.575C11.8819 16.575 11.7042 16.6473 11.5625 16.7919C11.4209 16.9365 11.35 17.1156 11.35 17.3294C11.35 17.5431 11.4223 17.7208 11.5669 17.8625C11.7115 18.0042 11.8907 18.075 12.1044 18.075ZM12.1044 15.3C12.3182 15.3 12.4959 15.2281 12.6375 15.0844C12.7792 14.9406 12.85 14.7625 12.85 14.55V10.45C12.85 10.2375 12.7778 10.0594 12.6332 9.91563C12.4886 9.77187 12.3094 9.7 12.0957 9.7C11.8819 9.7 11.7042 9.77187 11.5625 9.91563C11.4209 10.0594 11.35 10.2375 11.35 10.45V14.55C11.35 14.7625 11.4223 14.9406 11.5669 15.0844C11.7115 15.2281 11.8907 15.3 12.1044 15.3Z" fill="currentColor"/>
  </symbol>
  <symbol fill="none" xmlns="http://www.w3.org/2000/svg" viewBox="0 0 24 24" id="info">
    <path d="M12.0794 17C12.2931 17 12.4708 16.9281 12.6125 16.7844C12.7542 16.6406 12.825 16.4625 12.825 16.25V11.75C12.825 11.5375 12.7527 11.3594 12.6081 11.2156C12.4635 11.0719 12.2844 11 12.0706 11C11.8569 11 11.6792 11.0719 11.5375 11.2156C11.3958 11.3594 11.325 11.5375 11.325 11.75V16.25C11.325 16.4625 11.3973 16.6406 11.5419 16.7844C11.6865 16.9281 11.8656 17 12.0794 17ZM11.9995 9.15C12.2332 9.15 12.4292 9.07333 12.5875 8.92C12.7458 8.76667 12.825 8.57667 12.825 8.35C12.825 8.10917 12.746 7.90729 12.588 7.74437C12.4299 7.58146 12.2341 7.5 12.0005 7.5C11.7668 7.5 11.5708 7.58146 11.4125 7.74437C11.2542 7.90729 11.175 8.10917 11.175 8.35C11.175 8.57667 11.254 8.76667 11.4121 8.92C11.5701 9.07333 11.7659 9.15 11.9995 9.15ZM12.0066 22C10.6278 22 9.33192 21.7375 8.11915 21.2125C6.90638 20.6875 5.84583 19.9708 4.9375 19.0625C4.02917 18.1542 3.3125 17.093 2.7875 15.879C2.2625 14.665 2 13.3678 2 11.9875C2 10.6072 2.2625 9.31003 2.7875 8.09602C3.3125 6.88201 4.02917 5.825 4.9375 4.925C5.84583 4.025 6.90701 3.3125 8.12103 2.7875C9.33503 2.2625 10.6322 2 12.0125 2C13.3928 2 14.69 2.2625 15.904 2.7875C17.118 3.3125 18.175 4.025 19.075 4.925C19.975 5.825 20.6875 6.88333 21.2125 8.1C21.7375 9.31667 22 10.6145 22 11.9934C22 13.3723 21.7375 14.6681 21.2125 15.8809C20.6875 17.0936 19.975 18.1526 19.075 19.0579C18.175 19.9632 17.1167 20.6798 15.9 21.2079C14.6833 21.736 13.3855 22 12.0066 22Z" fill="currentColor"/>
  </symbol>
  <symbol fill="none" xmlns="http://www.w3.org/2000/svg" viewBox="0 0 24 24" id="checkmark">
    <path d="M8.848 18.3612C8.73714 18.3612 8.63552 18.3427 8.54313 18.3057C8.45075 18.2688 8.35836 18.2041 8.26597 18.1117L3.24944 13.0952C3.08315 12.9289 3 12.7257 3 12.4855C3 12.2453 3.08315 12.042 3.24944 11.8757C3.41573 11.7094 3.60974 11.6263 3.83147 11.6263C4.05319 11.6263 4.2472 11.7094 4.4135 11.8757L8.848 16.3102L18.9088 6.24944C19.0751 6.08315 19.2737 6 19.5047 6C19.7356 6 19.9343 6.08315 20.1006 6.24944C20.2669 6.41573 20.35 6.61436 20.35 6.84533C20.35 7.07629 20.2669 7.27492 20.1006 7.44121L9.43003 18.1117C9.33765 18.2041 9.24526 18.2688 9.15288 18.3057C9.06049 18.3427 8.95887 18.3612 8.848 18.3612Z" fill="currentColor"/>
  </symbol>
  <symbol fill="none" xmlns="http://www.w3.org/2000/svg" viewBox="0 0 24 24" id="arrow-right">
    <path d="M11.475 19.4502C11.3417 19.3169 11.275 19.1419 11.275 18.9252C11.275 18.7085 11.3417 18.5335 11.475 18.4002L17.125 12.7502L4.75 12.7502C4.53333 12.7502 4.35417 12.6794 4.2125 12.5377C4.07083 12.396 4 12.2169 4 12.0002C4 11.7835 4.07083 11.6044 4.2125 11.4627C4.35417 11.321 4.53333 11.2502 4.75 11.2502L17.125 11.2502L11.475 5.6002C11.3417 5.46686 11.275 5.2877 11.275 5.0627C11.275 4.8377 11.3417 4.65853 11.475 4.5252C11.6083 4.39186 11.7833 4.3252 12 4.3252C12.2167 4.3252 12.3917 4.39186 12.525 4.5252L19.475 11.4752C19.5583 11.5585 19.6167 11.6419 19.65 11.7252C19.6833 11.8085 19.7 11.9002 19.7 12.0002C19.7 12.0835 19.6833 12.171 19.65 12.2627C19.6167 12.3544 19.5583 12.4419 19.475 12.5252L12.525 19.4752C12.3917 19.6085 12.2167 19.671 12 19.6627C11.7833 19.6544 11.6083 19.5835 11.475 19.4502Z" fill="currentColor" />
  </symbol>
  <symbol fill="none" xmlns="http://www.w3.org/2000/svg" viewBox="0 0 24 24" id="plus">
    <path d="M18 13H13V18C13 18.55 12.55 19 12 19C11.45 19 11 18.55 11 18V13H6C5.45 13 5 12.55 5 12C5 11.45 5.45 11 6 11H11V6C11 5.45 11.45 5 12 5C12.55 5 13 5.45 13 6V11H18C18.55 11 19 11.45 19 12C19 12.55 18.55 13 18 13Z" fill="currentColor"></path>
  </symbol>
  <symbol fill="none" xmlns="http://www.w3.org/2000/svg" viewBox="0 0 24 24" id="filters">
    <path d="M3.75 18.95C3.53333 18.95 3.35417 18.8792 3.2125 18.7375C3.07083 18.5958 3 18.4167 3 18.2C3 17.9833 3.07083 17.8042 3.2125 17.6625C3.35417 17.5208 3.53333 17.45 3.75 17.45H8.425C8.64167 17.45 8.82083 17.5208 8.9625 17.6625C9.10417 17.8042 9.175 17.9833 9.175 18.2C9.175 18.4167 9.10417 18.5958 8.9625 18.7375C8.82083 18.8792 8.64167 18.95 8.425 18.95H3.75ZM3.75 6.55C3.53333 6.55 3.35417 6.47917 3.2125 6.3375C3.07083 6.19583 3 6.01667 3 5.8C3 5.58333 3.07083 5.40417 3.2125 5.2625C3.35417 5.12083 3.53333 5.05 3.75 5.05H12.575C12.7917 5.05 12.9708 5.12083 13.1125 5.2625C13.2542 5.40417 13.325 5.58333 13.325 5.8C13.325 6.01667 13.2542 6.19583 13.1125 6.3375C12.9708 6.47917 12.7917 6.55 12.575 6.55H3.75ZM11.425 21C11.2083 21 11.0292 20.9292 10.8875 20.7875C10.7458 20.6458 10.675 20.4667 10.675 20.25V16.125C10.675 15.9083 10.7458 15.7292 10.8875 15.5875C11.0292 15.4458 11.2083 15.375 11.425 15.375C11.6417 15.375 11.8208 15.4458 11.9625 15.5875C12.1042 15.7292 12.175 15.9083 12.175 16.125V17.45H20.25C20.4667 17.45 20.6458 17.5208 20.7875 17.6625C20.9292 17.8042 21 17.9833 21 18.2C21 18.4167 20.9292 18.5958 20.7875 18.7375C20.6458 18.8792 20.4667 18.95 20.25 18.95H12.175V20.25C12.175 20.4667 12.1042 20.6458 11.9625 20.7875C11.8208 20.9292 11.6417 21 11.425 21ZM8.425 14.8C8.20833 14.8 8.02917 14.7292 7.8875 14.5875C7.74583 14.4458 7.675 14.2667 7.675 14.05V12.75H3.75C3.53333 12.75 3.35417 12.6792 3.2125 12.5375C3.07083 12.3958 3 12.2167 3 12C3 11.7833 3.07083 11.6042 3.2125 11.4625C3.35417 11.3208 3.53333 11.25 3.75 11.25H7.675V9.9C7.675 9.68333 7.74583 9.50417 7.8875 9.3625C8.02917 9.22083 8.20833 9.15 8.425 9.15C8.64167 9.15 8.82083 9.22083 8.9625 9.3625C9.10417 9.50417 9.175 9.68333 9.175 9.9V14.05C9.175 14.2667 9.10417 14.4458 8.9625 14.5875C8.82083 14.7292 8.64167 14.8 8.425 14.8ZM11.425 12.75C11.2083 12.75 11.0292 12.6792 10.8875 12.5375C10.7458 12.3958 10.675 12.2167 10.675 12C10.675 11.7833 10.7458 11.6042 10.8875 11.4625C11.0292 11.3208 11.2083 11.25 11.425 11.25H20.25C20.4667 11.25 20.6458 11.3208 20.7875 11.4625C20.9292 11.6042 21 11.7833 21 12C21 12.2167 20.9292 12.3958 20.7875 12.5375C20.6458 12.6792 20.4667 12.75 20.25 12.75H11.425ZM15.575 8.625C15.3583 8.625 15.1792 8.55417 15.0375 8.4125C14.8958 8.27083 14.825 8.09167 14.825 7.875V3.75C14.825 3.53333 14.8958 3.35417 15.0375 3.2125C15.1792 3.07083 15.3583 3 15.575 3C15.7917 3 15.9708 3.07083 16.1125 3.2125C16.2542 3.35417 16.325 3.53333 16.325 3.75V5.05H20.25C20.4667 5.05 20.6458 5.12083 20.7875 5.2625C20.9292 5.40417 21 5.58333 21 5.8C21 6.01667 20.9292 6.19583 20.7875 6.3375C20.6458 6.47917 20.4667 6.55 20.25 6.55H16.325V7.875C16.325 8.09167 16.2542 8.27083 16.1125 8.4125C15.9708 8.55417 15.7917 8.625 15.575 8.625Z" fill="currentColor"></path>
  </symbol>
  <symbol fill="none" xmlns="http://www.w3.org/2000/svg" viewBox="0 0 24 24" id="swap">
    <path d="M6.13979 11.86L3.35979 14.65C3.16979 14.85 3.16979 15.16 3.35979 15.36L6.13979 18.15C6.44978 18.47 6.98978 18.24 6.98978 17.8V16H12.9998C13.5498 16 13.9998 15.55 13.9998 15C13.9998 14.45 13.5498 14 12.9998 14H6.98978V12.21C6.98978 11.76 6.44978 11.54 6.13979 11.86ZM20.6498 8.64997L17.8698 5.85997C17.5598 5.53997 17.0198 5.76997 17.0198 6.20997V7.99997H10.9998C10.4498 7.99997 9.99979 8.44997 9.99979 8.99997C9.99979 9.54997 10.4498 9.99997 10.9998 9.99997H17.0098V11.79C17.0098 12.24 17.5498 12.46 17.8598 12.14L20.6398 9.34997C20.8398 9.15997 20.8398 8.83997 20.6498 8.64997Z" fill="currentColor"></path>
  </symbol>
  <symbol fill="none" xmlns="http://www.w3.org/2000/svg" viewBox="0 0 24 24" id="arrow-up">
    <path d="M11.475 10.2492L8.29999 13.4242C8.06666 13.6576 8.01249 13.9284 8.13749 14.2367C8.26249 14.5451 8.49166 14.6992 8.82499 14.6992H15.175C15.5083 14.6992 15.7375 14.5451 15.8625 14.2367C15.9875 13.9284 15.9333 13.6576 15.7 13.4242L12.525 10.2492C12.4417 10.1659 12.3583 10.1076 12.275 10.0742C12.1917 10.0409 12.1 10.0242 12 10.0242C11.9 10.0242 11.8083 10.0409 11.725 10.0742C11.6417 10.1076 11.5583 10.1659 11.475 10.2492Z" fill="currentColor"/>
  </symbol>
  <symbol fill="none" xmlns="http://www.w3.org/2000/svg" viewBox="0 0 24 24" id="twitter">
    <path d="M21.4615 6.77577C20.775 7.07692 20.0435 7.27654 19.2808 7.37346C20.0654 6.905 20.6642 6.16885 20.9458 5.28154C20.2142 5.71769 19.4065 6.02577 18.5458 6.19769C17.8512 5.45808 16.8612 5 15.7812 5C13.6858 5 11.9988 6.70077 11.9988 8.78577C11.9988 9.08577 12.0242 9.37423 12.0865 9.64885C8.94 9.49538 6.15577 7.98731 4.28538 5.69C3.95885 6.25654 3.76731 6.905 3.76731 7.60308C3.76731 8.91385 4.44231 10.0758 5.44846 10.7485C4.84038 10.7369 4.24385 10.5604 3.73846 10.2823C3.73846 10.2938 3.73846 10.3088 3.73846 10.3238C3.73846 12.1631 5.05038 13.6908 6.77077 14.0427C6.46269 14.1269 6.12692 14.1673 5.77846 14.1673C5.53615 14.1673 5.29154 14.1535 5.06192 14.1027C5.55231 15.6015 6.94385 16.7035 8.59846 16.7392C7.31077 17.7465 5.67577 18.3535 3.90577 18.3535C3.59538 18.3535 3.29769 18.3396 3 18.3015C4.67654 19.3827 6.66346 20 8.80615 20C15.7708 20 19.5785 14.2308 19.5785 9.23C19.5785 9.06269 19.5727 8.90115 19.5646 8.74077C20.3158 8.20769 20.9469 7.54192 21.4615 6.77577Z" fill="currentColor"></path>
  </symbol>
  <symbol fill="none" xmlns="http://www.w3.org/2000/svg" viewBox="0 0 24 24" id="defilama">
    <path fill-rule="evenodd" clip-rule="evenodd" d="M5.86047 1C4.83296 1 4 1.83296 4 2.86047V20.6744C4 21.9588 5.0412 23 6.32558 23H9.84603L9.98431 18.8647L10.2238 11.768C9.80012 11.5582 9.49686 11.0034 9.49686 10.3522C9.49686 9.61824 9.88058 9.01359 10.3829 8.87405C10.4509 8.43331 10.6071 8.0108 10.842 7.63173C10.7298 7.62186 10.6216 7.58498 10.5268 7.52424C10.4319 7.46349 10.3532 7.38068 10.2973 7.28289C10.1837 7.11487 10.0602 6.9462 9.93146 6.77043C9.54418 6.24167 9.10978 5.64858 8.75686 4.81498C8.70897 4.72024 8.6895 4.61368 8.7008 4.50812C8.71211 4.40257 8.75371 4.30254 8.82058 4.2201C8.96291 4.02723 9.11407 4.01994 9.27407 4.19824C9.60489 4.51154 9.966 4.72517 10.307 4.92693L10.307 4.92693C10.7173 5.16966 11.0985 5.39519 11.3629 5.75638C11.3992 5.67459 11.4461 5.59795 11.5024 5.52847C11.8212 5.11576 12.221 5.0108 12.702 5.21359C12.8483 4.71746 13.1797 4.4694 13.6959 4.4694C14.2122 4.4694 14.5435 4.71746 14.6899 5.21359C14.9093 5.11238 15.1595 5.10053 15.3876 5.18056C15.5867 5.24258 15.7621 5.36397 15.8904 5.52847C15.9461 5.59837 15.993 5.67492 16.0299 5.75638C16.2691 5.42304 16.6127 5.22898 16.988 5.01703C17.3118 4.83416 17.6592 4.63797 17.9834 4.32754C18.1434 4.16382 18.3181 4.14661 18.5076 4.27591C18.5443 4.29945 18.5759 4.33014 18.6006 4.36614L18.6057 4.36661C18.6543 4.42382 18.6846 4.49423 18.6929 4.56881C18.7012 4.64339 18.687 4.71874 18.6522 4.78521L18.6317 4.83173C18.28 5.64894 17.8479 6.24233 17.4631 6.77078C17.335 6.94673 17.2121 7.11548 17.0992 7.28289C17.043 7.38071 16.964 7.46351 16.8689 7.52424C16.7739 7.58498 16.6655 7.62185 16.5531 7.63173C16.7898 8.00991 16.9459 8.43282 17.0117 8.87405C17.468 8.99824 17.8192 9.50103 17.8866 10.135C17.8947 10.2071 17.8986 10.2796 17.8983 10.3522C17.8983 10.9638 17.6304 11.4936 17.2434 11.7261C17.2205 11.742 17.1964 11.756 17.1713 11.768V11.8731L17.5041 21.7966C21.0566 19.9724 23.4884 16.2644 23.4884 12C23.4884 5.93771 18.5739 1 12.5116 1H5.86047ZM15.788 11.4024C15.922 11.6434 15.9097 11.8759 15.7513 12.1001C15.2741 12.7978 14.6057 13.3261 13.7545 13.3261H13.5741C12.8387 13.2624 12.0666 12.7815 11.589 12.2034C11.3936 11.9649 11.373 11.712 11.5271 11.4447C11.7165 11.1335 11.8157 10.7756 11.8136 10.4113C11.8147 10.0693 11.7307 9.73253 11.569 9.43126C11.5053 9.32585 11.4749 9.20369 11.4817 9.08073C11.4885 8.95776 11.5322 8.83971 11.6071 8.74196C11.6432 8.79128 11.6854 8.83583 11.7327 8.87452C12.1243 9.18273 12.5201 9.18816 12.9201 8.8908C12.9201 9.27173 13.3038 9.57917 13.7745 9.57917C13.8176 9.58196 13.8608 9.58196 13.9038 9.57917C14.3155 9.5294 14.6304 9.24428 14.6304 8.89963C15.0381 9.20475 15.4397 9.19638 15.835 8.87452L15.8815 8.83266C15.9144 8.92472 15.9258 9.02308 15.9148 9.12022C15.9038 9.21735 15.8708 9.3107 15.8183 9.39312C15.6315 9.70293 15.5341 10.0584 15.5369 10.4201C15.5364 10.7655 15.6228 11.1056 15.788 11.4089V11.4024ZM14.7505 10.5872L14.1924 11.0988C14.1438 11.144 14.1095 11.2023 14.0938 11.2668C14.057 11.4137 13.985 11.7035 13.9263 11.9784C13.9162 12.0151 13.8943 12.0474 13.864 12.0705C13.8337 12.0935 13.7967 12.106 13.7587 12.106C13.7206 12.106 13.6836 12.0935 13.6533 12.0705C13.623 12.0474 13.6011 12.0151 13.591 11.9784L13.4138 11.2668C13.3987 11.202 13.3641 11.1434 13.3147 11.0988L12.7566 10.5872C12.7307 10.563 12.7132 10.5312 12.7065 10.4964C12.6998 10.4616 12.7044 10.4256 12.7194 10.3936C12.7345 10.3615 12.7594 10.3351 12.7905 10.318C12.8216 10.301 12.8573 10.2943 12.8924 10.2988L13.7296 10.4128H13.7761L13.8412 10.4044L14.6133 10.2988C14.6481 10.2953 14.6831 10.3029 14.7134 10.3204C14.7437 10.3379 14.7677 10.3645 14.782 10.3964C14.7963 10.4283 14.8002 10.4639 14.7931 10.4982C14.7861 10.5324 14.7684 10.5636 14.7426 10.5872H14.7505Z" fill="currentColor"></path>
  </symbol>
  <symbol fill="none" xmlns="http://www.w3.org/2000/svg" viewBox="0 0 24 24" id="telegram">
    <path d="M20.9985 5.0374C20.9972 5.29156 20.9642 5.54245 20.9316 5.79361C20.9023 6.01747 20.8768 6.24187 20.8475 6.46573C20.8114 6.74337 20.7741 7.02074 20.736 7.29783C20.6978 7.57492 20.6587 7.85202 20.6193 8.12884C20.5741 8.44606 20.5274 8.76301 20.4823 9.08024C20.4434 9.35269 20.4063 9.62541 20.3677 9.89814C20.3303 10.1619 20.2922 10.4253 20.2546 10.689C20.2248 10.8987 20.1967 11.1083 20.1652 11.3177C20.1268 11.5741 20.0804 11.8293 20.0476 12.0865C20.0231 12.2779 19.9923 12.4676 19.9645 12.6584C19.9178 12.9784 19.8749 13.2992 19.8289 13.6191C19.782 13.9451 19.734 14.271 19.6851 14.5967C19.6469 14.8501 19.6055 15.1026 19.5674 15.3559C19.5386 15.5465 19.5134 15.7376 19.4849 15.9281C19.4452 16.1938 19.4033 16.4591 19.3642 16.725C19.3276 16.9737 19.2943 17.223 19.2582 17.4719C19.2117 17.7935 19.164 18.1148 19.1173 18.4364C19.0711 18.7534 19.0237 19.0703 18.9795 19.3878C18.932 19.7288 18.8752 20.0657 18.7144 20.3717C18.5387 20.7064 18.2896 20.9297 17.9306 20.9871C17.7201 21.0206 17.5128 20.9846 17.3086 20.9276C16.7459 20.7706 16.2352 20.4897 15.7584 20.1391C15.2727 19.7821 14.7789 19.4392 14.2897 19.0881C13.6187 18.6065 12.9487 18.1236 12.2876 17.6265C11.8329 17.2847 11.3826 16.9363 10.9474 16.5661C10.7964 16.4378 10.6419 16.3125 10.517 16.1493C10.2166 15.7561 10.215 15.3125 10.5147 14.9123C10.6533 14.7272 10.8307 14.5869 10.9814 14.4163C11.1142 14.2661 11.2659 14.1392 11.4061 13.9983C11.7504 13.6516 12.0907 13.3002 12.435 12.9533C12.9361 12.4485 13.4311 11.9366 13.9256 11.4247C14.56 10.7679 15.1904 10.1064 15.8116 9.43513C16.0214 9.20855 16.1968 8.95684 16.3082 8.65709C16.3332 8.58966 16.3554 8.52195 16.3554 8.44743C16.3554 8.30437 16.2998 8.24049 16.1663 8.23312C16.0896 8.22875 16.0174 8.25332 15.9452 8.2768C15.6455 8.37481 15.3767 8.54216 15.1129 8.71879C14.4782 9.14412 13.8691 9.61122 13.2491 10.0603C12.465 10.6281 11.683 11.1993 10.9004 11.769C10.1315 12.3286 9.36281 12.8886 8.59413 13.4485C8.34724 13.6284 8.09632 13.8023 7.85473 13.9901C7.64445 14.1536 7.40766 14.2328 7.15977 14.2847C6.99492 14.3191 6.82629 14.336 6.65994 14.333C6.40901 14.3284 6.15834 14.306 5.91145 14.2478C5.38764 14.1239 4.88251 13.9311 4.37284 13.7559C3.71952 13.5312 3.06974 13.2932 2.4187 13.0606C2.16424 12.9696 1.97895 12.674 2.00192 12.3903C2.01631 12.211 2.11855 12.0832 2.23265 11.9672C2.46566 11.73 2.75091 11.5847 3.04122 11.4537C3.69756 11.1575 4.35617 10.8673 5.01378 10.5749C5.69082 10.2741 6.36887 9.97513 7.04516 9.67237C7.43972 9.49574 7.831 9.31037 8.22582 9.13402C8.68147 8.93009 9.1399 8.73326 9.59581 8.53014C9.91489 8.38819 10.2312 8.23913 10.55 8.0969C10.7368 8.01363 10.9274 7.94019 11.114 7.85693C11.3581 7.748 11.5969 7.62488 11.8438 7.52442C12.0977 7.42095 12.3474 7.30684 12.5981 7.19545C13.3912 6.84247 14.1857 6.49221 14.975 6.1294C15.6334 5.82664 16.2943 5.53044 16.9552 5.23423C17.7165 4.89326 18.4797 4.55747 19.2405 4.21513C19.5495 4.07617 19.8658 3.98445 20.2031 4.00219C20.7143 4.02895 20.9518 4.34071 20.997 4.83456C21.0033 4.90199 20.9977 4.97079 20.9977 5.03904L20.9985 5.0374Z" fill="currentColor"></path>
  </symbol>
  <symbol fill="none" xmlns="http://www.w3.org/2000/svg" viewBox="0 0 24 24" id="reddit">
    <path fill-rule="evenodd" clip-rule="evenodd" d="M22 12C22 17.5228 17.5228 22 12 22C6.47715 22 2 17.5228 2 12C2 6.47715 6.47715 2 12 2C17.5228 2 22 6.47715 22 12ZM18.4066 11.2152C18.5683 11.4459 18.6598 11.7184 18.6701 11.9999C18.6743 12.2754 18.6005 12.5465 18.4572 12.7819C18.3139 13.0172 18.1069 13.2072 17.8601 13.3299C17.8713 13.4763 17.8713 13.6234 17.8601 13.7699C17.8601 16.0099 15.2501 17.8299 12.0301 17.8299C8.81008 17.8299 6.20008 16.0099 6.20008 13.7699C6.18882 13.6234 6.18882 13.4763 6.20008 13.3299C6.00774 13.2415 5.83692 13.1124 5.69945 12.9514C5.56197 12.7905 5.46114 12.6016 5.40394 12.3978C5.34673 12.194 5.33453 11.9802 5.36816 11.7712C5.4018 11.5622 5.48047 11.363 5.59873 11.1875C5.71699 11.0119 5.872 10.8642 6.05303 10.7545C6.23407 10.6448 6.43678 10.5758 6.64714 10.5523C6.85749 10.5287 7.07045 10.5512 7.27126 10.6181C7.47207 10.685 7.65593 10.7948 7.81008 10.9399C8.96236 10.1584 10.318 9.73086 11.7101 9.70988L12.4501 6.23988C12.4584 6.19971 12.4746 6.16158 12.4977 6.12772C12.5209 6.09385 12.5505 6.06492 12.585 6.0426C12.6194 6.02027 12.6579 6.005 12.6982 5.99767C12.7386 5.99034 12.78 5.99109 12.8201 5.99988L15.2701 6.48988C15.3897 6.28431 15.5787 6.12813 15.8032 6.04935C16.0276 5.97058 16.2727 5.97438 16.4946 6.06006C16.7165 6.14575 16.9006 6.30771 17.0138 6.51688C17.127 6.72605 17.162 6.96873 17.1124 7.20135C17.0628 7.43397 16.9319 7.64131 16.7433 7.78614C16.5546 7.93097 16.3205 8.00382 16.083 7.9916C15.8454 7.97937 15.62 7.88289 15.4472 7.71946C15.2744 7.55603 15.1655 7.33636 15.1401 7.09988L13.0001 6.64988L12.3501 9.76988C13.7253 9.79938 15.0625 10.2266 16.2001 10.9999C16.4033 10.8048 16.6586 10.6727 16.9352 10.6195C17.2118 10.5663 17.4979 10.5942 17.759 10.6999C18.02 10.8056 18.245 10.9846 18.4066 11.2152ZM8.83862 12.4443C8.72873 12.6088 8.67008 12.8021 8.67008 12.9999C8.67008 13.1312 8.69595 13.2612 8.7462 13.3826C8.79646 13.5039 8.87012 13.6141 8.96298 13.707C9.05584 13.7998 9.16608 13.8735 9.2874 13.9238C9.40873 13.974 9.53876 13.9999 9.67008 13.9999C9.86787 13.9999 10.0612 13.9412 10.2257 13.8313C10.3901 13.7215 10.5183 13.5653 10.594 13.3826C10.6697 13.1998 10.6895 12.9988 10.6509 12.8048C10.6123 12.6108 10.517 12.4326 10.3772 12.2928C10.2373 12.1529 10.0592 12.0577 9.86518 12.0191C9.67119 11.9805 9.47013 12.0003 9.2874 12.076C9.10468 12.1517 8.9485 12.2799 8.83862 12.4443ZM12.0101 16.5199C12.8977 16.5567 13.7706 16.2845 14.4801 15.7499V15.7899C14.5063 15.7643 14.5273 15.7337 14.5418 15.7C14.5562 15.6663 14.5639 15.6301 14.5644 15.5934C14.5649 15.5567 14.5581 15.5203 14.5445 15.4863C14.5309 15.4522 14.5107 15.4211 14.4851 15.3949C14.4595 15.3686 14.4289 15.3476 14.3952 15.3332C14.3615 15.3187 14.3253 15.311 14.2886 15.3106C14.2145 15.3096 14.1431 15.3382 14.0901 15.3899C13.4832 15.8252 12.7459 16.0404 12.0001 15.9999C11.2552 16.0332 10.5213 15.8109 9.92008 15.3699C9.86827 15.3274 9.8025 15.3056 9.73555 15.3089C9.6686 15.3122 9.60527 15.3403 9.55787 15.3877C9.51048 15.4351 9.48241 15.4984 9.47912 15.5653C9.47583 15.6323 9.49756 15.6981 9.54008 15.7499C10.2496 16.2845 11.1225 16.5567 12.0101 16.5199ZM13.7445 13.8713C13.909 13.9812 14.1023 14.0399 14.3001 14.0399L14.2901 14.0799C14.4257 14.0813 14.5602 14.0552 14.6853 14.0031C14.8105 13.9509 14.9238 13.8739 15.0183 13.7766C15.1127 13.6793 15.1864 13.5639 15.2349 13.4372C15.2833 13.3106 15.3055 13.1754 15.3001 13.0399C15.3001 12.8421 15.2414 12.6488 15.1316 12.4843C15.0217 12.3199 14.8655 12.1917 14.6828 12.116C14.5 12.0403 14.299 12.0205 14.105 12.0591C13.911 12.0977 13.7328 12.1929 13.593 12.3328C13.4531 12.4726 13.3579 12.6508 13.3193 12.8448C13.2807 13.0388 13.3005 13.2398 13.3762 13.4226C13.4519 13.6053 13.5801 13.7615 13.7445 13.8713Z" fill="currentColor"></path>
  </symbol>
  <symbol fill="none" xmlns="http://www.w3.org/2000/svg" viewBox="0 0 24 24" id="coinpaprika">
    <path fill-rule="evenodd" clip-rule="evenodd" d="M20.5349 4.46836C20.422 5.1269 20.3467 5.76663 20.3279 6.42516C20.321 6.605 20.3236 6.78357 20.3354 6.96075C20.5523 7.16095 20.7685 7.38434 20.987 7.62908C21.3445 7.98658 21.6079 8.41933 21.7396 8.90853C21.9089 9.7364 21.9277 10.5831 21.7772 11.3922C21.495 16.096 18.6162 19.0877 14.6838 20.988C11.2218 22.6626 7.62804 22.1922 4.33534 20.0661C4.05311 19.9155 3.7897 19.7274 3.56391 19.4828C3.37576 19.3511 3.24405 19.1253 3.20642 18.8995C2.47262 17.1497 3.86496 17.0556 4.73047 17.3943C7.10121 18.3915 8.71933 17.2249 10.4127 15.9831C10.5632 15.8138 10.6949 15.6256 10.8267 15.4375C11.0738 14.7617 11.3222 14.0873 11.5706 13.4131C12.2489 11.572 12.9264 9.73294 13.5737 7.87368C13.7995 7.00817 14.5709 6.36845 15.4741 6.33082H15.5869C16.6035 5.85858 17.4498 5.7064 18.2069 5.82215C18.8804 5.38313 19.5831 4.91022 19.6506 3.84745C19.6882 3.24536 18.3335 2.07881 18.0136 3.24536C17.8255 3.96035 17.5432 3.96035 17.2046 3.62167C16.9788 3.33944 17.0164 2.94431 17.2798 2.71853C17.769 2.22933 18.4276 1.96592 19.1237 2.00355C19.8199 2.05999 20.7419 2.77498 20.5349 4.46836Z" fill="currentColor"></path>
  </symbol>
  <symbol fill="none" xmlns="http://www.w3.org/2000/svg" viewBox="0 0 24 24" id="coingecko">
    <path fill-rule="evenodd" clip-rule="evenodd" d="M1.00011 12.049C0.973625 5.97455 5.87474 1.02863 11.9512 1.00011C18.0257 0.973625 22.9716 5.87474 23.0001 11.9512C23.0266 18.0257 18.1234 22.9716 12.049 23.0001C5.97455 23.0266 1.02863 18.1234 1.00011 12.049ZM8.59011 9.49455C8.59011 10.5803 9.47214 11.4603 10.5579 11.4603C11.6436 11.4603 12.5236 10.5803 12.5236 9.49455C12.5236 8.40881 11.6436 7.52881 10.5579 7.52881C9.47011 7.52881 8.59011 8.40881 8.59011 9.49455ZM12.1366 13.5747L12.1264 13.587C12.5807 14.1003 13.2936 14.3366 13.9699 14.3997C14.6564 14.4629 15.3347 14.3346 15.9846 14.1675C16.6364 13.9984 17.2679 13.7642 17.8729 13.479C18.4718 13.1836 19.0605 12.8496 19.5555 12.3994L19.5392 12.379L19.5351 12.3729C19.4964 12.4055 19.4557 12.436 19.4129 12.4666C19.2194 12.599 19.0218 12.7253 18.8201 12.8475C18.8181 12.8496 18.816 12.8496 18.814 12.8516C18.4901 13.0329 18.1499 13.1877 17.8077 13.3283C17.1986 13.5808 16.5671 13.7784 15.9255 13.9108C15.2818 14.0412 14.6299 14.0881 13.9883 14.0718C13.3486 14.0514 12.709 13.9251 12.1468 13.5625L12.1366 13.5747ZM17.5979 11.0325C17.3636 11.0346 17.1742 11.224 17.1742 11.4603C17.1742 11.6966 17.3677 11.886 17.602 11.884C17.8362 11.884 18.0257 11.6905 18.0257 11.4562C18.0236 11.222 17.8342 11.0325 17.5979 11.0325ZM17.4451 14.6279C15.9784 16.119 13.3792 19.034 13.8049 22.0121C18.5797 21.1586 22.1934 16.9725 22.1731 11.9553C22.1466 6.33714 17.5734 1.80474 11.9553 1.82918C6.33714 1.85363 1.80474 6.42881 1.82918 12.0449C1.83733 14.1797 2.50344 16.1557 3.634 17.7873C4.50317 15.8341 4.64569 14.115 4.83193 11.8687C4.83993 11.7722 4.848 11.6748 4.85622 11.5764C5.00288 9.36214 5.60788 7.52474 9.37437 6.48788C10.236 6.28214 11.1303 6.35751 12.0388 6.5714C12.8597 6.37788 13.809 6.36566 14.3162 6.80566C14.5525 7.00529 14.7073 7.18251 14.797 7.33529C14.8275 7.39844 14.856 7.46566 14.8805 7.53696L14.9149 7.55055C15.6773 7.8515 16.4314 8.1492 17.1579 8.35992C21.0527 9.42325 20.6738 11.5499 18.7712 13.3283C18.4965 13.6123 18.2097 13.887 17.9524 14.1334C17.7614 14.3164 17.5866 14.4838 17.4451 14.6279ZM10.557 10.8962C11.3209 10.8962 11.9401 10.2769 11.9401 9.51303C11.9401 8.74914 11.3209 8.12988 10.557 8.12988C9.79309 8.12988 9.17383 8.74914 9.17383 9.51303C9.17383 10.2769 9.79309 10.8962 10.557 10.8962Z" fill="currentColor"></path>
  </symbol>
  <symbol fill="none" xmlns="http://www.w3.org/2000/svg" viewBox="0 0 24 24" id="coinmarketcup">
    <path d="M19.8474 14.1456C19.6759 14.2638 19.4756 14.3336 19.2677 14.3475C19.0599 14.3615 18.8521 14.3191 18.6663 14.2249C18.2301 13.9785 17.995 13.4007 17.995 12.6132V10.1999C17.995 9.04146 17.5361 8.2172 16.7685 7.99343C15.4712 7.61388 14.5025 9.20291 14.1286 9.80057L11.8343 13.514V8.98198C11.8088 7.93678 11.4689 7.3108 10.8259 7.12386C10.4011 6.99923 9.76374 7.05021 9.14343 7.99627L4.01378 16.2303C3.33126 14.9245 2.97736 13.472 2.98275 11.9986C2.98275 7.03605 6.94824 2.99974 11.8343 2.99974C16.7204 2.99974 20.7 7.03605 20.7 11.9986V12.0241C20.7 12.0241 20.7 12.0411 20.7 12.0496C20.7482 13.0098 20.4366 13.7746 19.8503 14.1456H19.8474ZM22.6799 12.0014V11.9533C22.6403 5.90588 17.791 1 11.8343 1C5.87756 1 1 5.93421 1 11.9986C1 18.063 5.86056 23 11.8343 23C14.5741 22.9999 17.2097 21.9497 19.1988 20.0655C19.3919 19.8836 19.5055 19.633 19.515 19.3679C19.5246 19.1028 19.4293 18.8446 19.2498 18.6493C19.1639 18.5543 19.06 18.4772 18.9442 18.4225C18.8284 18.3677 18.703 18.3364 18.575 18.3304C18.4471 18.3243 18.3192 18.3436 18.1988 18.3872C18.0783 18.4307 17.9677 18.4977 17.8732 18.5841C17.0168 19.3965 16.0051 20.0274 14.8988 20.439C13.7926 20.8506 12.6145 21.0344 11.4354 20.9794C10.2564 20.9243 9.10055 20.6316 8.03741 20.1188C6.97428 19.6059 6.02574 18.8835 5.24874 17.995L9.86571 10.5738V13.9983C9.86571 15.644 10.503 16.1765 11.0384 16.3323C11.5737 16.4881 12.3923 16.3805 13.2505 14.9869L15.7998 10.8599C15.8791 10.7268 15.9556 10.6135 16.0236 10.5144V12.6132C16.0236 14.1513 16.641 15.3806 17.7231 15.9867C18.2151 16.2523 18.7695 16.3807 19.3281 16.3582C19.8868 16.3358 20.4292 16.1635 20.8983 15.8593C22.0879 15.086 22.7366 13.6868 22.6686 12.0014H22.6799Z" fill="currentColor"></path>
  </symbol>
  <symbol fill="none" xmlns="http://www.w3.org/2000/svg" viewBox="0 0 24 24" id="gitbook">
    <path fill-rule="evenodd" clip-rule="evenodd" d="M13.8484 4.19968L21.298 7.92447C21.6422 8.09659 21.6476 8.58597 21.3072 8.76559L11.6319 13.872C11.0925 14.1567 10.4488 14.1638 9.90322 13.891L3.8285 10.8536C3.08844 10.5563 2.26096 11.0993 2.26096 11.9172C2.26096 12.5748 2.63249 13.176 3.22066 13.4701L9.31103 16.5152C9.68281 16.1367 10.2005 15.9019 10.773 15.9019C11.3292 15.9019 11.8335 16.1234 12.2027 16.4831L19.7885 12.4795C19.7677 12.3624 19.7569 12.2419 19.7569 12.1189C19.7569 10.9872 20.6743 10.0699 21.806 10.0699C22.9376 10.0699 23.855 10.9872 23.855 12.1189C23.855 13.2506 22.9376 14.168 21.806 14.168C21.2526 14.168 20.7505 13.9487 20.3818 13.5922L12.7918 17.598C12.8117 17.7127 12.8221 17.8306 12.8221 17.9509C12.8221 19.0826 11.9047 20 10.773 20C9.64134 20 8.72394 19.0826 8.72394 17.9509C8.72394 17.8463 8.73178 17.7434 8.74694 17.643L2.56834 14.5537C1.60716 14.0731 1 13.0907 1 12.0161V11.4175C1 10.5991 1.45297 9.84784 2.1768 9.46588L12.1197 4.21868C12.6591 3.93396 13.3028 3.92689 13.8484 4.19968ZM10.773 18.739C11.2083 18.739 11.5611 18.3862 11.5611 17.9509C11.5611 17.5157 11.2083 17.1628 10.773 17.1628C10.3377 17.1628 9.98491 17.5157 9.98491 17.9509C9.98491 18.3862 10.3377 18.739 10.773 18.739ZM22.5941 12.1189C22.5941 12.5542 22.2412 12.907 21.806 12.907C21.3707 12.907 21.0179 12.5542 21.0179 12.1189C21.0179 11.6837 21.3707 11.3308 21.806 11.3308C22.2412 11.3308 22.5941 11.6837 22.5941 12.1189Z" fill="currentColor"></path>
  </symbol>
  <symbol fill="none" xmlns="http://www.w3.org/2000/svg" viewBox="0 0 24 24" id="facebook">
    <path d="M7.28737 13.1194H9.24036V21.6935C9.24036 21.8628 9.36898 22 9.52772 22H12.8391C12.9978 22 13.1265 21.8628 13.1265 21.6935V13.1598H15.3716C15.5176 13.1598 15.6404 13.043 15.6571 12.8883L15.998 9.73176C16.0074 9.64491 15.9816 9.55794 15.9271 9.49279C15.8726 9.42758 15.7945 9.39025 15.7126 9.39025H13.1266V7.41155C13.1266 6.81508 13.4277 6.51261 14.0218 6.51261C14.1064 6.51261 15.7126 6.51261 15.7126 6.51261C15.8714 6.51261 16 6.37538 16 6.20616V3.30872C16 3.13944 15.8714 3.00227 15.7126 3.00227H13.3824C13.366 3.00141 13.3295 3 13.2757 3C12.8713 3 11.4659 3.08464 10.3558 4.17377C9.12576 5.3807 9.29674 6.8258 9.3376 7.07636V9.39019H7.28737C7.12862 9.39019 7 9.52736 7 9.69664V12.8129C7 12.9822 7.12862 13.1194 7.28737 13.1194Z" fill="currentColor"></path>
  </symbol>
  <symbol fill="none" xmlns="http://www.w3.org/2000/svg" viewBox="0 0 24 24" id="arrow-next">
    <path d="M9.0049 8.41494L12.8849 12.2949L9.0049 16.1749C8.6149 16.5649 8.6149 17.1949 9.0049 17.5849C9.3949 17.9749 10.0249 17.9749 10.4149 17.5849L15.0049 12.9949C15.3949 12.6049 15.3949 11.9749 15.0049 11.5849L10.4149 6.99494C10.0249 6.60494 9.3949 6.60494 9.0049 6.99494C8.6249 7.38494 8.6149 8.02494 9.0049 8.41494Z" fill="currentColor"></path>
  </symbol>
</svg>
