<svg width="0" height="0" class="hidden">
  <symbol fill="none" xmlns="http://www.w3.org/2000/svg" viewBox="0 0 24 24" id="earth">
    <path d="M12 22C10.6 22 9.29167 21.7375 8.075 21.2125C6.85833 20.6875 5.8 19.975 4.9 19.075C4 18.175 3.29167 17.1125 2.775 15.8875C2.25833 14.6625 2 13.35 2 11.95C2 10.55 2.25833 9.24583 2.775 8.0375C3.29167 6.82917 4 5.775 4.9 4.875C5.8 3.975 6.85833 3.27083 8.075 2.7625C9.29167 2.25417 10.6 2 12 2C13.4 2 14.7083 2.25417 15.925 2.7625C17.1417 3.27083 18.2 3.975 19.1 4.875C20 5.775 20.7083 6.82917 21.225 8.0375C21.7417 9.24583 22 10.55 22 11.95C22 13.35 21.7417 14.6625 21.225 15.8875C20.7083 17.1125 20 18.175 19.1 19.075C18.2 19.975 17.1417 20.6875 15.925 21.2125C14.7083 21.7375 13.4 22 12 22ZM15.95 8.25H19.7C19.15 7.1 18.3958 6.14167 17.4375 5.375C16.4792 4.60833 15.375 4.06667 14.125 3.75C14.5417 4.36667 14.8958 5.03333 15.1875 5.75C15.4792 6.46667 15.7333 7.3 15.95 8.25ZM9.6 8.25H14.45C14.2667 7.36667 13.9583 6.5125 13.525 5.6875C13.0917 4.8625 12.5833 4.13333 12 3.5C11.4667 3.95 11.0167 4.54167 10.65 5.275C10.2833 6.00833 9.93333 7 9.6 8.25ZM3.8 14.225H7.775C7.725 13.775 7.69583 13.3708 7.6875 13.0125C7.67917 12.6542 7.675 12.3 7.675 11.95C7.675 11.5333 7.68333 11.1625 7.7 10.8375C7.71667 10.5125 7.75 10.15 7.8 9.75H3.8C3.68333 10.15 3.60417 10.5083 3.5625 10.825C3.52083 11.1417 3.5 11.5167 3.5 11.95C3.5 12.3833 3.52083 12.7708 3.5625 13.1125C3.60417 13.4542 3.68333 13.825 3.8 14.225ZM9.875 20.25C9.45833 19.6167 9.1 18.9333 8.8 18.2C8.5 17.4667 8.25 16.6417 8.05 15.725H4.3C4.93333 16.9083 5.66667 17.8375 6.5 18.5125C7.33333 19.1875 8.45833 19.7667 9.875 20.25ZM4.3 8.25H8.075C8.25833 7.35 8.49167 6.54583 8.775 5.8375C9.05833 5.12917 9.41667 4.44167 9.85 3.775C8.6 4.09167 7.50833 4.625 6.575 5.375C5.64167 6.125 4.88333 7.08333 4.3 8.25ZM12 20.55C12.5833 19.95 13.0708 19.2625 13.4625 18.4875C13.8542 17.7125 14.175 16.7917 14.425 15.725H9.6C9.83333 16.725 10.1458 17.625 10.5375 18.425C10.9292 19.225 11.4167 19.9333 12 20.55ZM9.325 14.225H14.7C14.7667 13.7083 14.8083 13.2875 14.825 12.9625C14.8417 12.6375 14.85 12.3 14.85 11.95C14.85 11.6167 14.8417 11.2958 14.825 10.9875C14.8083 10.6792 14.7667 10.2667 14.7 9.75H9.325C9.25833 10.2667 9.21667 10.6792 9.2 10.9875C9.18333 11.2958 9.175 11.6167 9.175 11.95C9.175 12.3 9.18333 12.6375 9.2 12.9625C9.21667 13.2875 9.25833 13.7083 9.325 14.225ZM14.15 20.225C15.35 19.8417 16.4292 19.2667 17.3875 18.5C18.3458 17.7333 19.1167 16.8083 19.7 15.725H15.975C15.7583 16.625 15.5042 17.4417 15.2125 18.175C14.9208 18.9083 14.5667 19.5917 14.15 20.225ZM16.2 14.225H20.2C20.3167 13.825 20.3958 13.4542 20.4375 13.1125C20.4792 12.7708 20.5 12.3833 20.5 11.95C20.5 11.5167 20.4792 11.1417 20.4375 10.825C20.3958 10.5083 20.3167 10.15 20.2 9.75H16.225C16.275 10.3333 16.3083 10.7792 16.325 11.0875C16.3417 11.3958 16.35 11.6833 16.35 11.95C16.35 12.3167 16.3375 12.6625 16.3125 12.9875C16.2875 13.3125 16.25 13.725 16.2 14.225Z" fill="currentColor"></path>
  </symbol>
  <symbol fill="none" xmlns="http://www.w3.org/2000/svg" viewBox="0 0 24 24" id="wallet">
    <path d="M10 16V8C10 6.9 10.89 6 12 6H21V5C21 3.9 20.1 3 19 3H5C3.89 3 3 3.9 3 5V19C3 20.1 3.89 21 5 21H19C20.1 21 21 20.1 21 19V18H12C10.89 18 10 17.1 10 16ZM13 8C12.45 8 12 8.45 12 9V15C12 15.55 12.45 16 13 16H22V8H13ZM16 13.5C15.17 13.5 14.5 12.83 14.5 12C14.5 11.17 15.17 10.5 16 10.5C16.83 10.5 17.5 11.17 17.5 12C17.5 12.83 16.83 13.5 16 13.5Z" fill="currentColor"></path>
  </symbol>
  <symbol fill="none" xmlns="http://www.w3.org/2000/svg" viewBox="0 0 24 24" id="expand-arrow">
    <path d="M15.88 9.29006L12 13.1701L8.11998 9.29006C7.72998 8.90006 7.09998 8.90006 6.70998 9.29006C6.31998 9.68006 6.31998 10.3101 6.70998 10.7001L11.3 15.2901C11.69 15.6801 12.32 15.6801 12.71 15.2901L17.3 10.7001C17.69 10.3101 17.69 9.68006 17.3 9.29006C16.91 8.91006 16.27 8.90006 15.88 9.29006Z" fill="currentColor"></path>
  </symbol>
  <symbol fill="none" xmlns="http://www.w3.org/2000/svg" viewBox="0 0 24 24" id="history">
    <path d="M12.8 11.65L15.675 14.475C15.825 14.625 15.9 14.8042 15.9 15.0125C15.9 15.2208 15.825 15.4 15.675 15.55C15.525 15.7 15.35 15.775 15.15 15.775C14.95 15.775 14.775 15.7 14.625 15.55L11.525 12.5C11.4416 12.4167 11.3833 12.3292 11.35 12.2375C11.3166 12.1458 11.3 12.05 11.3 11.95V7.675C11.3 7.45833 11.3708 7.27917 11.5125 7.1375C11.6541 6.99583 11.8333 6.925 12.05 6.925C12.2666 6.925 12.4458 6.99583 12.5875 7.1375C12.7291 7.27917 12.8 7.45833 12.8 7.675V11.65ZM11.925 21C9.59165 21 7.61248 20.25 5.98748 18.75C4.36248 17.25 3.39165 15.375 3.07498 13.125C3.04165 12.8917 3.08748 12.6917 3.21248 12.525C3.33748 12.3583 3.51665 12.2667 3.74998 12.25C3.94998 12.2333 4.12498 12.2958 4.27498 12.4375C4.42498 12.5792 4.51665 12.75 4.54998 12.95C4.83331 14.8167 5.64998 16.375 6.99998 17.625C8.34998 18.875 9.99165 19.5 11.925 19.5C14.0416 19.5 15.8333 18.7583 17.3 17.275C18.7666 15.7917 19.5 13.9917 19.5 11.875C19.5 9.80833 18.7583 8.0625 17.275 6.6375C15.7916 5.2125 14.0083 4.5 11.925 4.5C10.7916 4.5 9.72915 4.75833 8.73748 5.275C7.74581 5.79167 6.88331 6.475 6.14998 7.325H8.02498C8.24165 7.325 8.42081 7.39583 8.56248 7.5375C8.70415 7.67917 8.77498 7.85833 8.77498 8.075C8.77498 8.29167 8.70415 8.47083 8.56248 8.6125C8.42081 8.75417 8.24165 8.825 8.02498 8.825H4.29998C4.08331 8.825 3.90415 8.75417 3.76248 8.6125C3.62081 8.47083 3.54998 8.29167 3.54998 8.075V4.375C3.54998 4.15833 3.62081 3.97917 3.76248 3.8375C3.90415 3.69583 4.08331 3.625 4.29998 3.625C4.51665 3.625 4.69581 3.69583 4.83748 3.8375C4.97915 3.97917 5.04998 4.15833 5.04998 4.375V6.275C5.91665 5.25833 6.94581 4.45833 8.13748 3.875C9.32915 3.29167 10.5916 3 11.925 3C13.175 3 14.35 3.23333 15.45 3.7C16.55 4.16667 17.5125 4.80417 18.3375 5.6125C19.1625 6.42083 19.8125 7.36667 20.2875 8.45C20.7625 9.53333 21 10.7 21 11.95C21 13.2 20.7625 14.375 20.2875 15.475C19.8125 16.575 19.1625 17.5333 18.3375 18.35C17.5125 19.1667 16.55 19.8125 15.45 20.2875C14.35 20.7625 13.175 21 11.925 21Z" fill="currentColor"></path>
  </symbol>
  <symbol fill="none" xmlns="http://www.w3.org/2000/svg" viewBox="0 0 24 24" id="logout">
    <path d="M5.77778 5.77778H11.1111C11.6 5.77778 12 5.37778 12 4.88889C12 4.4 11.6 4 11.1111 4H5.77778C4.8 4 4 4.8 4 5.77778V18.2222C4 19.2 4.8 20 5.77778 20H11.1111C11.6 20 12 19.6 12 19.1111C12 18.6222 11.6 18.2222 11.1111 18.2222H5.77778V5.77778Z" fill="currentColor"></path>
    <path d="M19.6886 11.6889L17.2086 9.20892C16.9241 8.92447 16.4441 9.12003 16.4441 9.52003V11.1111H10.2219C9.73301 11.1111 9.33301 11.5111 9.33301 12C9.33301 12.4889 9.73301 12.8889 10.2219 12.8889H16.4441V14.48C16.4441 14.88 16.9241 15.0756 17.1997 14.7911L19.6797 12.3111C19.8575 12.1422 19.8575 11.8578 19.6886 11.6889Z" fill="currentColor"></path>
  </symbol>
  <symbol fill="none" xmlns="http://www.w3.org/2000/svg" viewBox="0 0 24 24" id="cross">
    <path d="M18.2997 5.70997C17.9097 5.31997 17.2797 5.31997 16.8897 5.70997L11.9997 10.59L7.10973 5.69997C6.71973 5.30997 6.08973 5.30997 5.69973 5.69997C5.30973 6.08997 5.30973 6.71997 5.69973 7.10997L10.5897 12L5.69973 16.89C5.30973 17.28 5.30973 17.91 5.69973 18.3C6.08973 18.69 6.71973 18.69 7.10973 18.3L11.9997 13.41L16.8897 18.3C17.2797 18.69 17.9097 18.69 18.2997 18.3C18.6897 17.91 18.6897 17.28 18.2997 16.89L13.4097 12L18.2997 7.10997C18.6797 6.72997 18.6797 6.08997 18.2997 5.70997Z" fill="currentColor"></path>
  </symbol>
</svg>