<svg width="96" height="96" viewBox="0 0 96 96" fill="none" xmlns="http://www.w3.org/2000/svg">
<path d="M83.822 12L53.0967 34.8201L58.7785 21.3566L83.822 12Z" fill="#E2761B"/>
<path fill-rule="evenodd" clip-rule="evenodd" d="M84.2613 11.761C84.3803 11.9798 84.3201 12.2528 84.1202 12.4014L53.3948 35.2215C53.2138 35.3559 52.9653 35.3526 52.7879 35.2133C52.6106 35.0741 52.5484 34.8334 52.6361 34.6257L58.3179 21.1621C58.3714 21.0354 58.4747 20.9363 58.6036 20.8881L83.6471 11.5316C83.8804 11.4444 84.1423 11.5422 84.2613 11.761ZM59.1554 21.7495L54.27 33.3258L80.6885 13.7044L59.1554 21.7495Z" fill="#E2761B"/>
<path d="M12.8906 12L43.3689 35.0363L37.965 21.3566L12.8906 12Z" fill="#E4761B"/>
<path fill-rule="evenodd" clip-rule="evenodd" d="M12.4524 11.7593C12.5719 11.5417 12.8329 11.4447 13.0655 11.5315L38.1398 20.8881C38.2725 20.9376 38.378 21.0411 38.43 21.1728L43.834 34.8525C43.9163 35.061 43.8499 35.2987 43.6715 35.4343C43.4931 35.5699 43.2463 35.5702 43.0675 35.4351L12.5892 12.3988C12.3911 12.2492 12.3329 11.9769 12.4524 11.7593ZM15.9231 13.6652L42.2495 33.5634L37.5817 21.7472L15.9231 13.6652Z" fill="#E4761B"/>
<path d="M72.7661 64.8975L64.583 77.4346L82.0918 82.2519L87.1252 65.1754L72.7661 64.8975Z" fill="#E4761B"/>
<path fill-rule="evenodd" clip-rule="evenodd" d="M72.3474 64.6242C72.4416 64.4799 72.6035 64.3942 72.7758 64.3976L87.1349 64.6755C87.2908 64.6785 87.4363 64.7541 87.5285 64.8798C87.6207 65.0056 87.6489 65.1672 87.6048 65.3167L82.5714 82.3932C82.4943 82.6547 82.222 82.8063 81.9592 82.734L64.4504 77.9167C64.2964 77.8744 64.172 77.761 64.1154 77.6117C64.0589 77.4624 64.077 77.295 64.1643 77.1613L72.3474 64.6242ZM73.0334 65.4027L65.3761 77.1343L81.751 81.6395L86.4603 65.6626L73.0334 65.4027Z" fill="#E4761B"/>
<path d="M9.64844 65.1754L14.651 82.2519L32.1598 77.4346L23.9766 64.8975L9.64844 65.1754Z" fill="#E4761B"/>
<path fill-rule="evenodd" clip-rule="evenodd" d="M23.9669 64.3976C24.1393 64.3942 24.3011 64.4798 24.3953 64.6242L32.5785 77.1613C32.6657 77.295 32.6839 77.4624 32.6274 77.6117C32.5708 77.761 32.4464 77.8744 32.2924 77.9167L14.7836 82.734C14.5204 82.8064 14.2479 82.6544 14.1711 82.3924L9.16861 65.3159C9.12481 65.1664 9.1532 65.0051 9.24538 64.8795C9.33756 64.7539 9.483 64.6785 9.63875 64.6755L23.9669 64.3976ZM10.3122 65.6626L14.9925 81.6393L31.3666 77.1343L23.7094 65.4027L10.3122 65.6626Z" fill="#E4761B"/>
<path d="M31.172 43.7136L26.293 51.0938L43.6783 51.8658L43.0607 33.1836L31.172 43.7136Z" fill="#E4761B"/>
<path fill-rule="evenodd" clip-rule="evenodd" d="M43.2583 32.7243C43.4363 32.8009 43.554 32.9734 43.5604 33.1671L44.178 51.8493C44.1826 51.9886 44.1289 52.1234 44.0298 52.2214C43.9307 52.3194 43.7953 52.3715 43.6561 52.3654L26.2708 51.5934C26.0909 51.5854 25.9292 51.4813 25.8474 51.3208C25.7657 51.1603 25.7766 50.9683 25.8759 50.8181L30.7549 43.4379C30.779 43.4014 30.8077 43.3683 30.8404 43.3393L42.7291 32.8093C42.8742 32.6808 43.0804 32.6477 43.2583 32.7243ZM31.5528 44.0442L27.1967 50.6335L43.1607 51.3424L42.5961 34.263L31.5528 44.0442Z" fill="#E4761B"/>
<path d="M65.5412 43.7139L53.4981 32.9678L53.0967 51.8662L70.4511 51.0942L65.5412 43.7139Z" fill="#E4761B"/>
<path fill-rule="evenodd" clip-rule="evenodd" d="M53.2986 32.5093C53.4775 32.4314 53.6854 32.4648 53.831 32.5947L65.8741 43.3409C65.9059 43.3692 65.9339 43.4015 65.9575 43.437L70.8674 50.8172C70.9672 50.9674 70.9785 51.1597 70.8969 51.3205C70.8153 51.4813 70.6534 51.5857 70.4733 51.5937L53.1189 52.3657C52.9807 52.3718 52.8462 52.3205 52.7473 52.2238C52.6483 52.1272 52.5939 51.9938 52.5968 51.8556L52.9982 32.9572C53.0024 32.7621 53.1196 32.5872 53.2986 32.5093ZM53.975 34.0634L53.6079 51.3429L69.5444 50.634L65.1604 44.0443L53.975 34.0634Z" fill="#E4761B"/>
<path d="M32.1602 77.4336L42.5975 72.3384L33.5806 65.2979L32.1602 77.4336Z" fill="#E4761B"/>
<path fill-rule="evenodd" clip-rule="evenodd" d="M33.3879 64.8365C33.5546 64.7669 33.7459 64.7926 33.8883 64.9038L42.9052 71.9443C43.0411 72.0504 43.1128 72.2191 43.0948 72.3905C43.0768 72.562 42.9718 72.7121 42.8169 72.7877L32.3795 77.8829C32.2152 77.9631 32.0202 77.9472 31.871 77.8415C31.7219 77.7358 31.6423 77.557 31.6636 77.3754L33.084 65.2397C33.105 65.0603 33.2212 64.9061 33.3879 64.8365ZM33.9739 66.2393L32.7632 76.5828L41.6592 72.2401L33.9739 66.2393Z" fill="#E4761B"/>
<path d="M54.1152 72.3384L64.5835 77.4336L63.1321 65.2979L54.1152 72.3384Z" fill="#E4761B"/>
<path fill-rule="evenodd" clip-rule="evenodd" d="M63.3243 64.8362C63.4909 64.9056 63.6072 65.0593 63.6286 65.2385L65.0799 77.3742C65.1017 77.5559 65.0224 77.7349 64.8734 77.841C64.7243 77.947 64.5292 77.9632 64.3647 77.8831L53.8964 72.788C53.7413 72.7125 53.6361 72.5624 53.618 72.3908C53.5999 72.2193 53.6716 72.0505 53.8075 71.9443L62.8244 64.9038C62.9666 64.7927 63.1577 64.7669 63.3243 64.8362ZM55.0544 72.2395L63.9782 76.5829L62.741 66.2377L55.0544 72.2395Z" fill="#E4761B"/>
<path d="M64.5835 77.434L54.1152 72.3389L54.949 79.1633L54.8564 82.0351L64.5835 77.434Z" fill="#D7C1B3"/>
<path fill-rule="evenodd" clip-rule="evenodd" d="M53.8248 71.9318C53.974 71.8254 54.1693 71.8091 54.3341 71.8893L64.8023 76.9845C64.9752 77.0686 65.0845 77.2445 65.0835 77.4368C65.0824 77.6291 64.9711 77.8038 64.7973 77.886L55.0702 82.4871C54.9127 82.5616 54.7278 82.5487 54.5821 82.4532C54.4364 82.3576 54.351 82.1931 54.3566 82.019L54.448 79.1857L53.6189 72.3995C53.5967 72.2177 53.6757 72.0382 53.8248 71.9318ZM54.723 73.1908L55.4453 79.1027C55.4484 79.1281 55.4496 79.1538 55.4487 79.1794L55.3825 81.2331L63.4278 77.4276L54.723 73.1908Z" fill="#D7C1B3"/>
<path d="M32.1602 77.434L41.8873 82.0351L41.8255 79.1633L42.5975 72.3389L32.1602 77.434Z" fill="#D7C1B3"/>
<path fill-rule="evenodd" clip-rule="evenodd" d="M42.8858 71.9304C43.0349 72.0356 43.1149 72.2137 43.0943 72.3951L42.3261 79.1861L42.3872 82.0244C42.3909 82.1976 42.3047 82.3604 42.1593 82.4546C42.0139 82.5489 41.8301 82.5612 41.6735 82.4871L31.9464 77.886C31.7726 77.8038 31.6613 77.6293 31.6602 77.4371C31.659 77.2449 31.7681 77.069 31.9408 76.9847L42.3782 71.8895C42.5422 71.8095 42.7368 71.8251 42.8858 71.9304ZM33.3145 77.4269L41.37 81.2373L41.3256 79.174C41.3251 79.1517 41.3262 79.1293 41.3287 79.1071L41.9983 73.1878L33.3145 77.4269Z" fill="#D7C1B3"/>
<path d="M42.0411 60.79L33.333 58.227L39.4781 55.417L42.0411 60.79Z" fill="#233447"/>
<path fill-rule="evenodd" clip-rule="evenodd" d="M39.2702 54.9623C39.5184 54.8487 39.8118 54.9553 39.9294 55.2017L42.4924 60.5748C42.5773 60.7529 42.5496 60.9643 42.4216 61.1144C42.2936 61.2646 42.0892 61.3254 41.8999 61.2697L33.1918 58.7067C32.9917 58.6478 32.8492 58.4708 32.8343 58.2627C32.8194 58.0545 32.9353 57.8591 33.1251 57.7723L39.2702 54.9623ZM34.758 58.1252L41.1074 59.994L39.2386 56.0763L34.758 58.1252Z" fill="#233447"/>
<path d="M54.6709 60.79L57.2339 55.417L63.4099 58.227L54.6709 60.79Z" fill="#233447"/>
<path fill-rule="evenodd" clip-rule="evenodd" d="M56.7826 55.2017C56.9 54.9557 57.1929 54.849 57.441 54.9619L63.6169 57.7719C63.8071 57.8584 63.9234 58.054 63.9086 58.2624C63.8938 58.4708 63.751 58.648 63.5506 58.7068L54.8116 61.2698C54.6224 61.3253 54.4181 61.2644 54.2903 61.1142C54.1624 60.9641 54.1347 60.7528 54.2196 60.5748L56.7826 55.2017ZM57.4738 56.0754L55.604 59.9953L61.9794 58.1255L57.4738 56.0754Z" fill="#233447"/>
<path d="M32.1597 77.4346L33.6419 64.8975L23.9766 65.1754L32.1597 77.4346Z" fill="#CD6116"/>
<path fill-rule="evenodd" clip-rule="evenodd" d="M34.0109 64.56C34.109 64.6672 34.1555 64.8118 34.1385 64.9562L32.6562 77.4933C32.6317 77.7013 32.48 77.872 32.2763 77.9208C32.0727 77.9697 31.8601 77.8864 31.7438 77.7122L23.5607 65.453C23.4597 65.3017 23.4489 65.1075 23.5323 64.9459C23.6158 64.7843 23.7804 64.6808 23.9622 64.6756L33.6276 64.3977C33.7728 64.3935 33.9128 64.4527 34.0109 64.56ZM24.894 65.6492L31.8224 76.0287L33.0774 65.4139L24.894 65.6492Z" fill="#CD6116"/>
<path d="M63.1016 64.8975L64.5838 77.4346L72.7669 65.1754L63.1016 64.8975Z" fill="#CD6116"/>
<path fill-rule="evenodd" clip-rule="evenodd" d="M62.7326 64.56C62.8307 64.4527 62.9707 64.3935 63.1159 64.3977L72.7813 64.6756C72.9631 64.6808 73.1277 64.7843 73.2112 64.9459C73.2947 65.1075 73.2838 65.3017 73.1828 65.453L64.9997 77.7122C64.8834 77.8864 64.6708 77.9697 64.4672 77.9208C64.2635 77.872 64.1118 77.7013 64.0873 77.4933L62.605 64.9562C62.588 64.8118 62.6345 64.6672 62.7326 64.56ZM63.6661 65.4139L64.9211 76.0287L71.8495 65.6492L63.6661 65.4139Z" fill="#CD6116"/>
<path d="M70.4501 51.0938L53.0957 51.8657L54.7014 60.79L57.2645 55.4169L63.4404 58.227L70.4501 51.0938Z" fill="#CD6116"/>
<path fill-rule="evenodd" clip-rule="evenodd" d="M70.9068 50.8902C70.9904 51.0779 70.9507 51.2976 70.8067 51.4442L63.797 58.5774C63.6498 58.7273 63.4246 58.7691 63.2333 58.6821L57.5043 56.0754L55.1527 61.0053C55.0593 61.2012 54.85 61.3144 54.6349 61.2855C54.4197 61.2566 54.2478 61.0922 54.2094 60.8785L52.6036 51.9543C52.5781 51.8124 52.6151 51.6663 52.7051 51.5536C52.7951 51.441 52.9294 51.3726 53.0735 51.3662L70.4279 50.5942C70.6332 50.5851 70.8231 50.7025 70.9068 50.8902ZM53.689 52.3398L54.9186 59.1734L56.8132 55.2016C56.9306 54.9556 57.2234 54.8489 57.4715 54.9618L63.329 57.627L69.2027 51.6497L53.689 52.3398Z" fill="#CD6116"/>
<path d="M33.3335 58.227L39.5095 55.4169L42.0416 60.79L43.6783 51.8657L26.293 51.0938L33.3335 58.227Z" fill="#CD6116"/>
<path fill-rule="evenodd" clip-rule="evenodd" d="M25.8361 50.8907C25.9196 50.7028 26.1097 50.5851 26.3152 50.5942L43.7005 51.3662C43.8448 51.3726 43.9794 51.4412 44.0694 51.5543C44.1594 51.6673 44.1961 51.8138 44.1701 51.9559L42.5334 60.8802C42.4943 61.0938 42.3216 61.2578 42.1062 61.2858C41.8908 61.3139 41.682 61.1996 41.5894 61.0031L39.2675 56.0763L33.5406 58.6821C33.3498 58.7689 33.125 58.7274 32.9777 58.5782L25.9371 51.445C25.7926 51.2986 25.7525 51.0787 25.8361 50.8907ZM27.5444 51.6498L33.4442 57.6273L39.3024 54.9618C39.5514 54.8485 39.8452 54.9563 39.9618 55.2038L41.8306 59.1692L43.083 52.3398L27.5444 51.6498Z" fill="#CD6116"/>
<path d="M26.293 51.0938L33.5806 65.2984L33.3335 58.227L26.293 51.0938Z" fill="#E4751F"/>
<path fill-rule="evenodd" clip-rule="evenodd" d="M25.9999 50.6887C26.1998 50.544 26.4755 50.5668 26.6489 50.7425L33.6894 57.8757C33.7776 57.965 33.8289 58.0842 33.8333 58.2095L34.0803 65.281C34.0885 65.515 33.9331 65.7234 33.7065 65.7823C33.4799 65.8413 33.2427 65.735 33.1358 65.5267L25.8481 51.322C25.7355 51.1024 25.7999 50.8334 25.9999 50.6887ZM28.2237 53.7616L33.0027 63.0766L32.8407 58.4394L28.2237 53.7616Z" fill="#E4751F"/>
<path d="M63.4416 58.227L63.1328 65.2984L70.4513 51.0938L63.4416 58.227Z" fill="#E4751F"/>
<path fill-rule="evenodd" clip-rule="evenodd" d="M70.7443 50.6886C70.9446 50.8335 71.009 51.103 70.8958 51.3228L63.5773 65.5274C63.4697 65.7362 63.2314 65.842 63.0044 65.7817C62.7775 65.7214 62.623 65.5112 62.6333 65.2766L62.9421 58.2052C62.9475 58.0817 62.9984 57.9646 63.085 57.8765L70.0947 50.7433C70.2679 50.567 70.544 50.5438 70.7443 50.6886ZM63.9328 58.4405L63.7317 63.0443L68.4963 53.7966L63.9328 58.4405Z" fill="#E4751F"/>
<path d="M43.6786 51.8662L42.042 60.7905L44.0801 71.3204L44.5432 57.4554L43.6786 51.8662Z" fill="#E4751F"/>
<path fill-rule="evenodd" clip-rule="evenodd" d="M43.6856 51.3663C43.9296 51.3697 44.1354 51.5487 44.1727 51.7898L45.0374 57.379C45.0421 57.4098 45.044 57.441 45.043 57.4721L44.5798 71.3371C44.5713 71.5915 44.3731 71.7988 44.1195 71.8189C43.8658 71.8389 43.6375 71.6653 43.5892 71.4155L41.5511 60.8855C41.5393 60.8243 41.539 60.7615 41.5502 60.7003L43.1868 51.776C43.2308 51.536 43.4416 51.3629 43.6856 51.3663ZM42.5508 60.788L43.7284 66.8722L44.042 57.4856L43.6368 54.8663L42.5508 60.788Z" fill="#E4751F"/>
<path d="M53.0965 51.8662L52.2627 57.4246L52.6333 71.3204L54.7022 60.7905L53.0965 51.8662Z" fill="#E4751F"/>
<path fill-rule="evenodd" clip-rule="evenodd" d="M53.0892 51.3663C53.3339 51.3627 53.5452 51.5368 53.5885 51.7777L55.1943 60.7019C55.2053 60.7631 55.2048 60.8258 55.1928 60.8869L53.1239 71.4168C53.0747 71.6669 52.8454 71.84 52.5915 71.8187C52.3375 71.7974 52.1402 71.5885 52.1334 71.3338L51.7629 57.4379C51.7621 57.4086 51.7639 57.3793 51.7682 57.3504L52.602 51.792C52.6383 51.55 52.8445 51.3698 53.0892 51.3663ZM53.1412 54.9384L52.7637 57.4552L53.0128 66.7955L54.1934 60.7864L53.1412 54.9384Z" fill="#E4751F"/>
<path d="M54.7018 60.7896L52.6328 71.3196L54.115 72.3386L63.1319 65.298L63.4407 58.2266L54.7018 60.7896Z" fill="#F6851B"/>
<path fill-rule="evenodd" clip-rule="evenodd" d="M63.7491 57.833C63.8761 57.9325 63.9473 58.0872 63.9403 58.2484L63.6315 65.3199C63.6251 65.466 63.555 65.6021 63.4397 65.6921L54.4228 72.7327C54.2508 72.867 54.0116 72.8743 53.8318 72.7506L52.3496 71.7316C52.1853 71.6187 52.1038 71.4189 52.1422 71.2232L54.2112 60.6932C54.2471 60.5101 54.382 60.3623 54.5611 60.3098L63.3 57.7468C63.4549 57.7014 63.6221 57.7335 63.7491 57.833ZM55.1339 61.1839L53.1868 71.0937L54.0963 71.7189L62.6425 65.0459L62.9107 58.9031L55.1339 61.1839Z" fill="#F6851B"/>
<path d="M33.333 58.2266L33.58 65.298L42.5969 72.3386L44.0792 71.3196L42.0411 60.7896L33.333 58.2266Z" fill="#F6851B"/>
<path fill-rule="evenodd" clip-rule="evenodd" d="M33.0266 57.8315C33.1535 57.733 33.3201 57.7015 33.4742 57.7469L42.1823 60.3099C42.3616 60.3627 42.4965 60.5111 42.532 60.6946L44.57 71.2246C44.6078 71.4198 44.5263 71.6189 44.3624 71.7316L42.8802 72.7506C42.7004 72.8743 42.4612 72.867 42.2892 72.7327L33.2723 65.6921C33.1558 65.6011 33.0855 65.4633 33.0804 65.3155L32.8333 58.244C32.8277 58.0835 32.8996 57.93 33.0266 57.8315ZM33.8569 58.902L34.0716 65.0475L42.6157 71.7189L43.526 71.0931L41.608 61.1833L33.8569 58.902Z" fill="#F6851B"/>
<path d="M54.8568 82.0357L54.9494 79.1638L54.1774 78.4845H42.5357L41.8255 79.1638L41.8873 82.0357L32.1602 77.4346L35.5569 80.2138L42.4431 85.0001H54.27L61.1871 80.2138L64.5839 77.4346L54.8568 82.0357Z" fill="#C0AD9E"/>
<path fill-rule="evenodd" clip-rule="evenodd" d="M31.7376 77.1673C31.8726 76.9538 32.1456 76.8745 32.374 76.9825L41.37 81.2378L41.3257 79.1745C41.3226 79.0344 41.3786 78.8994 41.4799 78.8025L42.1902 78.1231C42.2832 78.0341 42.407 77.9844 42.5358 77.9844H54.1774C54.299 77.9844 54.4165 78.0287 54.5077 78.1091L55.2797 78.7884C55.3918 78.8871 55.454 79.0307 55.4492 79.1799L55.3829 81.2336L64.3701 76.9825C64.5985 76.8745 64.8715 76.9538 65.0065 77.1673C65.1415 77.3808 65.096 77.6615 64.9005 77.8215L61.5038 80.6007C61.4934 80.6092 61.4827 80.6172 61.4716 80.6249L54.5546 85.4112C54.471 85.4691 54.3717 85.5001 54.2701 85.5001H42.4431C42.3411 85.5001 42.2415 85.4689 42.1578 85.4106L35.2716 80.6243C35.2609 80.6168 35.2504 80.6089 35.2403 80.6007L31.8436 77.8215C31.648 77.6615 31.6026 77.3808 31.7376 77.1673ZM35.6343 79.6309L35.8584 79.8143L42.5998 84.5001H54.1139L60.8861 79.814L61.1098 79.6309L55.0706 82.4876C54.9131 82.5621 54.7282 82.5492 54.5825 82.4537C54.4369 82.3581 54.3514 82.1936 54.357 82.0195L54.4421 79.3834L53.9888 78.9844H42.7364L42.3302 79.373L42.3872 82.0249C42.3909 82.1981 42.3047 82.3609 42.1593 82.4551C42.0139 82.5494 41.8301 82.5617 41.6735 82.4876L35.6343 79.6309Z" fill="#C0AD9E"/>
<path d="M54.1153 72.3393L52.6331 71.3203H44.0794L42.5972 72.3393L41.8252 79.1638L42.5354 78.4844H54.1771L54.9491 79.1638L54.1153 72.3393Z" fill="#161616"/>
<path fill-rule="evenodd" clip-rule="evenodd" d="M43.7962 70.9083C43.8795 70.851 43.9783 70.8203 44.0794 70.8203H52.6331C52.7343 70.8203 52.833 70.851 52.9164 70.9083L54.3986 71.9273C54.5167 72.0085 54.5943 72.1365 54.6117 72.2787L55.4454 79.1031C55.4706 79.3091 55.3659 79.5092 55.1824 79.606C54.9988 79.7028 54.7746 79.6762 54.6188 79.5391L53.9884 78.9844H42.7361L42.1708 79.5251C42.0187 79.6706 41.7918 79.7052 41.6032 79.6118C41.4146 79.5183 41.3047 79.3167 41.3284 79.1076L42.1004 72.2831C42.1167 72.1392 42.1946 72.0094 42.3139 71.9273L43.7962 70.9083ZM44.2347 71.8203L43.0684 72.6222L42.4612 77.99C42.4856 77.9863 42.5104 77.9844 42.5354 77.9844H54.1771C54.22 77.9844 54.2624 77.9899 54.3033 78.0006L53.6464 72.6237L52.4778 71.8203H44.2347Z" fill="#161616"/>
<path d="M85.1185 36.3024L87.7433 23.7034L83.8215 12L54.1152 34.0481L65.5407 43.7135L81.6908 48.4381L85.2729 44.2693L83.7289 43.1577L86.1993 40.9034L84.2847 39.4212L86.7551 37.5375L85.1185 36.3024Z" fill="#763D16"/>
<path fill-rule="evenodd" clip-rule="evenodd" d="M83.9714 11.523C84.1242 11.571 84.2448 11.6893 84.2956 11.8411L88.2174 23.5446C88.2455 23.6286 88.2508 23.7186 88.2328 23.8054L85.6726 36.0941L87.0563 37.1385C87.1812 37.2327 87.2547 37.3799 87.2551 37.5363C87.2555 37.6927 87.1827 37.8403 87.0583 37.9351L85.1054 39.4242L86.5054 40.5081C86.6221 40.5984 86.6929 40.7357 86.6989 40.8832C86.7048 41.0307 86.6453 41.1733 86.5363 41.2728L84.5209 43.1118L85.565 43.8636C85.6787 43.9454 85.7528 44.0712 85.7694 44.2102C85.7859 44.3493 85.7434 44.489 85.6521 44.5952L82.0701 48.764C81.9421 48.9129 81.7389 48.9731 81.5505 48.918L65.4003 44.1934C65.3333 44.1738 65.2711 44.1403 65.2178 44.0952L53.7923 34.4299C53.6758 34.3313 53.6106 34.1848 53.6155 34.0322C53.6203 33.8796 53.6947 33.7376 53.8172 33.6466L83.5235 11.5985C83.6521 11.5031 83.8187 11.475 83.9714 11.523ZM54.9197 34.0737L65.7828 43.2633L81.5218 47.8677L84.5386 44.3567L83.4367 43.5634C83.3145 43.4754 83.2384 43.337 83.2297 43.1866C83.221 43.0362 83.2806 42.8899 83.3919 42.7883L85.4231 40.9348L83.9786 39.8166C83.8558 39.7215 83.7842 39.5747 83.7847 39.4194C83.7853 39.264 83.858 39.1178 83.9816 39.0236L85.9278 37.5396L84.8173 36.7015C84.6629 36.5849 84.5895 36.3898 84.629 36.2004L87.2262 23.734L83.5663 12.8121L54.9197 34.0737Z" fill="#763D16"/>
<path d="M9 23.7034L11.6248 36.3024L9.95727 37.5375L12.4277 39.4212L10.544 40.9034L13.0144 43.1577L11.4704 44.2693L15.0216 48.4381L31.1717 43.7135L42.5972 34.0481L12.8908 12L9 23.7034Z" fill="#763D16"/>
<path fill-rule="evenodd" clip-rule="evenodd" d="M12.7404 11.5232C12.8933 11.4749 13.0601 11.5029 13.1888 11.5985L42.8952 33.6466C43.0178 33.7376 43.0921 33.8796 43.0969 34.0322C43.1018 34.1848 43.0367 34.3313 42.9201 34.4299L31.4946 44.0952C31.4413 44.1403 31.3791 44.1738 31.3121 44.1934L15.1619 48.918C14.9728 48.9733 14.7687 48.9124 14.6409 48.7623L11.0898 44.5936C10.9992 44.4872 10.9572 44.3478 10.974 44.2092C10.9908 44.0705 11.0649 43.9452 11.1782 43.8636L12.2223 43.1118L10.207 41.2728C10.0984 41.1738 10.039 41.032 10.0443 40.8852C10.0497 40.7384 10.1193 40.6014 10.2348 40.5105L11.6112 39.4274L9.6541 37.9351C9.52909 37.8398 9.45619 37.6913 9.45729 37.5341C9.45838 37.3769 9.53334 37.2293 9.65966 37.1358L11.07 36.0911L8.51051 23.8054C8.49251 23.719 8.4977 23.6294 8.52553 23.5457L12.4164 11.8423C12.467 11.6901 12.5875 11.5714 12.7404 11.5232ZM13.1474 12.8131L9.51697 23.7333L12.1143 36.2004C12.1541 36.3914 12.0791 36.588 11.9224 36.7041L10.7895 37.5433L12.7308 39.0236C12.8538 39.1174 12.9265 39.2628 12.9276 39.4174C12.9288 39.572 12.8584 39.7185 12.7368 39.8141L11.3167 40.9317L13.3514 42.7883C13.4627 42.8899 13.5222 43.0362 13.5135 43.1866C13.5048 43.337 13.4288 43.4754 13.3065 43.5634L12.2028 44.3581L15.1921 47.8672L30.9296 43.2633L41.7927 34.0737L13.1474 12.8131Z" fill="#763D16"/>
<path d="M81.6906 48.4385L65.5405 43.7139L70.4503 51.0941L63.1318 65.2988L72.7663 65.1753H87.1254L81.6906 48.4385Z" fill="#F6851B"/>
<path fill-rule="evenodd" clip-rule="evenodd" d="M65.1377 43.4175C65.2622 43.2483 65.4792 43.1749 65.6808 43.2339L81.8309 47.9585C81.9896 48.0049 82.1151 48.1267 82.1661 48.284L87.6009 65.0208C87.6504 65.173 87.624 65.3397 87.5299 65.4691C87.4358 65.5986 87.2854 65.6752 87.1254 65.6752H72.7696L63.1382 65.7987C62.9628 65.8009 62.7989 65.711 62.7066 65.5617C62.6143 65.4125 62.607 65.2257 62.6874 65.0697L69.8713 51.1263L65.1242 43.9907C65.0078 43.8158 65.0132 43.5868 65.1377 43.4175ZM66.7164 44.5788L70.8666 50.8171C70.9671 50.9681 70.9779 51.1618 70.8948 51.323L63.9574 64.7881L72.7663 64.6752L86.4373 64.6752L81.2966 48.8441L66.7164 44.5788Z" fill="#F6851B"/>
<path d="M31.1716 43.7139L15.0215 48.4385L9.64844 65.1753H23.9766L33.5802 65.2988L26.2926 51.0941L31.1716 43.7139Z" fill="#F6851B"/>
<path fill-rule="evenodd" clip-rule="evenodd" d="M31.574 43.4169C31.6985 43.5858 31.7044 43.8145 31.5887 43.9895L26.8709 51.1259L34.0251 65.0705C34.1052 65.2265 34.0976 65.4131 34.0052 65.5621C33.9129 65.7112 33.7492 65.8009 33.5738 65.7987L23.9735 65.6752H9.64844C9.4887 65.6752 9.33857 65.5989 9.24445 65.4698C9.15033 65.3407 9.12354 65.1745 9.17237 65.0224L14.5454 48.2855C14.5962 48.1276 14.7219 48.0051 14.8811 47.9585L31.0312 43.2339C31.2326 43.175 31.4494 43.2481 31.574 43.4169ZM15.4165 48.8438L10.3341 64.6752H23.9831L32.7563 64.7881L25.8478 51.3223C25.7653 51.1616 25.7759 50.9689 25.8755 50.8183L30.0016 44.577L15.4165 48.8438Z" fill="#F6851B"/>
<path d="M53.0959 51.8656L54.1149 34.048L58.8087 21.3564H37.9648L42.5968 34.048L43.6776 51.8656L44.0481 57.4857L44.079 71.3199H52.6327L52.6945 57.4857L53.0959 51.8656Z" fill="#F6851B"/>
<path fill-rule="evenodd" clip-rule="evenodd" d="M37.5551 21.0698C37.6487 20.9361 37.8016 20.8564 37.9648 20.8564H58.8087C58.9722 20.8564 59.1255 20.9365 59.219 21.0707C59.3125 21.205 59.3344 21.3764 59.2776 21.5299L54.6098 34.1513L53.5947 51.9012L53.1944 57.5047L53.1327 71.3221C53.1315 71.5974 52.908 71.8199 52.6327 71.8199H44.079C43.8033 71.8199 43.5796 71.5967 43.579 71.321L43.5482 57.5028L43.1787 51.8985L43.1785 51.8959L42.1021 34.151L37.4952 21.5279C37.4392 21.3745 37.4616 21.2036 37.5551 21.0698ZM38.6796 21.8564L43.0665 33.8766C43.0831 33.922 43.093 33.9695 43.0959 34.0177L44.1765 51.8327L44.1767 51.8353L44.5471 57.4528C44.5478 57.4634 44.5481 57.474 44.5482 57.4846L44.5779 70.8199H52.1349L52.1945 57.4835C52.1945 57.4724 52.1949 57.4612 52.1957 57.4501L52.5967 51.8371L53.6158 34.0195C53.6186 33.9699 53.6288 33.9211 53.646 33.8746L58.0906 21.8564H38.6796Z" fill="#F6851B"/>
</svg>
