<svg width="30" height="30" viewBox="0 0 30 30" fill="none" xmlns="http://www.w3.org/2000/svg">
<path fill-rule="evenodd" clip-rule="evenodd" d="M15 0C23.2852 0 30 6.71484 30 15C30 23.2852 23.2852 30 15 30C6.71484 30 0 23.2852 0 15C0 6.71484 6.71484 0 15 0Z" fill="url(#paint0_radial_2275_40208)"/>
<path d="M9.5332 11.584C12.5508 8.63672 17.4492 8.63672 20.4668 11.584L20.8301 11.9414C20.9824 12.0879 20.9824 12.3281 20.8301 12.4746L19.5879 13.6875C19.5117 13.7637 19.3887 13.7637 19.3125 13.6875L18.8145 13.2012C16.7051 11.1445 13.2949 11.1445 11.1855 13.2012L10.6523 13.7227C10.5762 13.7988 10.4531 13.7988 10.377 13.7227L9.13477 12.5098C8.98242 12.3633 8.98242 12.123 9.13477 11.9766L9.5332 11.584ZM23.0391 14.0918L24.1465 15.1699C24.2988 15.3164 24.2988 15.5566 24.1465 15.7031L19.1602 20.5723C19.0078 20.7188 18.7617 20.7188 18.6152 20.5723L15.0762 17.1152C15.041 17.0801 14.9766 17.0801 14.9414 17.1152L11.4023 20.5723C11.25 20.7188 11.0039 20.7188 10.8574 20.5723L5.85352 15.7031C5.70117 15.5566 5.70117 15.3164 5.85352 15.1699L6.96094 14.0918C7.11328 13.9453 7.35938 13.9453 7.50586 14.0918L11.0449 17.5488C11.0801 17.584 11.1445 17.584 11.1797 17.5488L14.7188 14.0918C14.8711 13.9453 15.1172 13.9453 15.2637 14.0918L18.8027 17.5488C18.8379 17.584 18.9023 17.584 18.9375 17.5488L22.4766 14.0918C22.6406 13.9453 22.8867 13.9453 23.0391 14.0918Z" fill="white"/>
<defs>
<radialGradient id="paint0_radial_2275_40208" cx="0" cy="0" r="1" gradientUnits="userSpaceOnUse" gradientTransform="translate(9.29832e-05 15.0005) scale(30)">
<stop stop-color="#5D9DF6"/>
<stop offset="1" stop-color="#006FFF"/>
</radialGradient>
</defs>
</svg>
