<svg width="40" height="40" viewBox="0 0 40 40" fill="none" xmlns="http://www.w3.org/2000/svg">
<circle cx="20" cy="20" r="20" fill="white"/>
<path d="M26.0461 16.3448L29.9908 24.7411C30.0097 24.7845 30.0152 24.8327 30.0066 24.8793C29.998 24.9259 29.9757 24.9689 29.9425 25.0028L19.5657 35.0292C19.5491 35.0449 19.5282 35.0553 19.5057 35.0591C19.4832 35.0629 19.46 35.0599 19.4392 35.0505C19.4184 35.0412 19.4008 35.0258 19.3887 35.0064C19.3767 34.987 19.3706 34.9644 19.3714 34.9416V25.7305L25.9103 19.4184C25.9329 19.3974 25.9507 19.3718 25.9624 19.3433C25.9742 19.3148 25.9795 19.2841 25.9782 19.2533L25.9973 16.3448C25.9973 16.3252 26.0387 16.3252 26.0461 16.3448Z" fill="#6000FF"/>
<path fill-rule="evenodd" clip-rule="evenodd" d="M19.3716 25.7281V34.9397C19.371 34.9625 19.377 34.985 19.3891 35.0043C19.4012 35.0236 19.4189 35.039 19.4397 35.0483C19.4605 35.0577 19.4836 35.0605 19.506 35.0566C19.5285 35.0528 19.5493 35.0425 19.5659 35.0268L29.9422 25.0011C29.9756 24.9674 29.9981 24.9245 30.0068 24.8779C30.0155 24.8314 30.0099 24.7832 29.991 24.7398L25.9396 19.3848L19.3716 25.7281Z" fill="url(#paint0_linear_32_204)"/>
<path fill-rule="evenodd" clip-rule="evenodd" d="M26.0187 16.3184C26.0156 16.3182 26.0127 16.3188 26.0098 16.3199C26.007 16.321 26.0043 16.3227 26.0021 16.3249C25.9999 16.327 25.9983 16.3295 25.9971 16.3324C25.996 16.3352 25.9953 16.3381 25.9953 16.3412L25.979 19.2496C25.98 19.2975 25.9667 19.3448 25.9412 19.3852L30.0085 24.8745C30.0165 24.825 30.0096 24.7742 29.9888 24.7286L26.0443 16.3324C26.0419 16.3284 26.0383 16.3249 26.0342 16.3225C26.0301 16.3202 26.0257 16.3189 26.021 16.3189L26.0187 16.3184Z" fill="url(#paint1_linear_32_204)"/>
<path fill-rule="evenodd" clip-rule="evenodd" d="M30.0066 24.8723C30.0147 24.8229 30.008 24.7723 29.9871 24.7269L29.7832 24.2904L26.1108 19.6152L30.0066 24.8723Z" fill="url(#paint2_linear_32_204)"/>
<path d="M16.7187 9.29402L14.8608 14.5493C14.8398 14.6096 14.8432 14.6757 14.8703 14.7335L16.6003 18.1367L11.8392 20.8323C11.8108 20.8471 11.7778 20.8503 11.747 20.8413C11.7162 20.8323 11.6901 20.8118 11.6742 20.784L10.6443 18.641C10.6257 18.6058 10.6177 18.566 10.6212 18.5264C10.6246 18.4867 10.6395 18.4489 10.664 18.4175L16.6683 9.2643C16.6728 9.25899 16.6791 9.25546 16.686 9.25431C16.6929 9.25316 16.6999 9.25448 16.7059 9.25802C16.712 9.26157 16.7165 9.26712 16.7189 9.2737C16.7212 9.28029 16.7211 9.28748 16.7187 9.29402V9.29402Z" fill="#6000FF"/>
<path fill-rule="evenodd" clip-rule="evenodd" d="M16.6901 9.25788C16.6866 9.25777 16.6832 9.25841 16.68 9.25969C16.6768 9.26097 16.674 9.26294 16.6716 9.26539L10.9236 18.0273L10.9172 18.039L14.8646 14.5499L14.8767 14.5147V14.5116L16.7192 9.29494C16.7206 9.2905 16.721 9.28578 16.7202 9.2812C16.7193 9.27663 16.7173 9.27242 16.7145 9.26876C16.7116 9.26511 16.7079 9.26211 16.7037 9.26021C16.6994 9.25831 16.6947 9.25758 16.6901 9.25788V9.25788Z" fill="url(#paint3_linear_32_204)"/>
<path fill-rule="evenodd" clip-rule="evenodd" d="M10.6664 18.4201C10.6421 18.4514 10.6274 18.489 10.624 18.5284C10.6207 18.5679 10.6288 18.6075 10.6474 18.6425L11.6766 20.786C11.6928 20.8138 11.719 20.8342 11.7499 20.8431C11.7807 20.852 11.8138 20.8486 11.8423 20.8337L16.6028 18.1386L14.8733 14.7353C14.8597 14.7067 14.8518 14.6758 14.8501 14.6441C14.8485 14.6124 14.8531 14.5807 14.8637 14.5508L10.6664 18.4201Z" fill="url(#paint4_linear_32_204)"/>
<path fill-rule="evenodd" clip-rule="evenodd" d="M19.3714 5.04809V13.2229C19.3702 13.2722 19.3533 13.32 19.3231 13.359L10.0446 25.935C10.0112 25.9797 9.99565 26.0351 10.0011 26.0905C10.0065 26.146 10.0325 26.1976 10.0739 26.2349L16.583 32.5184C16.5961 32.532 16.6124 32.5419 16.6304 32.5474C16.6485 32.553 16.6676 32.5539 16.686 32.55C16.7045 32.5461 16.7216 32.5377 16.7359 32.5254C16.7502 32.5131 16.7611 32.4972 16.7677 32.4795L23.8405 15.9282C23.8602 15.8716 23.8602 15.81 23.8405 15.7535L19.459 5.03047C19.4564 5.02216 19.4511 5.01514 19.444 5.00999C19.437 5.00484 19.4285 5.00198 19.4198 5.00196C19.4073 5.00181 19.3952 5.00654 19.3862 5.01518C19.3772 5.02381 19.3719 5.03561 19.3714 5.04809Z" fill="url(#paint5_linear_32_204)"/>
<path fill-rule="evenodd" clip-rule="evenodd" d="M19.4169 5C19.4042 5 19.392 5.00505 19.383 5.014C19.3739 5.02294 19.3689 5.03497 19.3687 5.04769L19.3718 13.2225C19.3712 13.2455 19.3671 13.2682 19.3596 13.2899L23.7831 15.6193L19.4562 5.02955C19.4536 5.02112 19.4485 5.01388 19.4414 5.00855C19.4344 5.00323 19.4258 5.00026 19.4169 5V5ZM19.3591 13.2889L20.2037 13.7741L19.3591 13.2889Z" fill="url(#paint6_linear_32_204)"/>
<path fill-rule="evenodd" clip-rule="evenodd" d="M23.8556 15.8433C23.8556 15.8145 23.851 15.7857 23.8418 15.7583L23.7855 15.6204L19.3589 13.291L20.2081 13.7757L23.8556 15.8433Z" fill="url(#paint7_linear_32_204)"/>
<path d="M10.9136 18.0393L10.6694 18.4108L14.863 14.5469L10.9136 18.0393Z" fill="#B46CF3"/>
<defs>
<linearGradient id="paint0_linear_32_204" x1="25.2657" y1="28.4754" x2="19.6076" y2="27.1671" gradientUnits="userSpaceOnUse">
<stop stop-color="#6000FF"/>
<stop offset="0.651" stop-color="#4900C3"/>
<stop offset="1" stop-color="#320086"/>
</linearGradient>
<linearGradient id="paint1_linear_32_204" x1="26.1854" y1="15.574" x2="30.3249" y2="18.9949" gradientUnits="userSpaceOnUse">
<stop stop-color="#6A0AFF"/>
<stop offset="0.047" stop-color="#892AFF"/>
<stop offset="0.102" stop-color="#6A0AFF"/>
<stop offset="0.902" stop-color="#A94AFF"/>
<stop offset="1" stop-color="#A94AFF"/>
</linearGradient>
<linearGradient id="paint2_linear_32_204" x1="26.2512" y1="19.631" x2="31.058" y2="23.2675" gradientUnits="userSpaceOnUse">
<stop stop-color="#9335FE"/>
<stop offset="0.031" stop-color="#A954FE"/>
<stop offset="1" stop-color="#BF73FF"/>
</linearGradient>
<linearGradient id="paint3_linear_32_204" x1="17.1326" y1="9.80224" x2="9.2134" y2="15.095" gradientUnits="userSpaceOnUse">
<stop stop-color="#6A0AFF"/>
<stop offset="0.51" stop-color="#8C2DFF"/>
<stop offset="0.969" stop-color="#AF50FF"/>
<stop offset="1" stop-color="#AF50FF"/>
</linearGradient>
<linearGradient id="paint4_linear_32_204" x1="13.3021" y1="16.421" x2="13.897" y2="19.5778" gradientUnits="userSpaceOnUse">
<stop stop-color="#6000FF"/>
<stop offset="1" stop-color="#3E00A5"/>
</linearGradient>
<linearGradient id="paint5_linear_32_204" x1="2.67054" y1="34.4533" x2="25.4078" y2="32.979" gradientUnits="userSpaceOnUse">
<stop stop-color="#9838FF"/>
<stop offset="0.322" stop-color="#AF50FF"/>
<stop offset="1" stop-color="#6000FF"/>
</linearGradient>
<linearGradient id="paint6_linear_32_204" x1="18.8681" y1="7.9097" x2="26.1054" y2="10.8235" gradientUnits="userSpaceOnUse">
<stop stop-color="#6F0FFF"/>
<stop offset="0.702" stop-color="#A94AFF"/>
<stop offset="1" stop-color="#A94AFF"/>
</linearGradient>
<linearGradient id="paint7_linear_32_204" x1="19.4263" y1="13.3089" x2="21.5878" y2="17.0032" gradientUnits="userSpaceOnUse">
<stop stop-color="#AE60FF"/>
<stop offset="0.031" stop-color="#B669FF"/>
<stop offset="1" stop-color="#BF73FF"/>
</linearGradient>
</defs>
</svg>
