<svg width="40" height="40" viewBox="0 0 40 40" fill="none" xmlns="http://www.w3.org/2000/svg">
<circle cx="20" cy="20" r="20" fill="white"/>
<path fill-rule="evenodd" clip-rule="evenodd" d="M33.0461 11.8335C30.801 16.8593 27.1286 21.1552 22.4616 24.2152C17.7947 27.2752 12.3275 28.9718 6.70402 29.1053C5.54018 27.4198 4.72844 25.5274 4.31513 23.5363C3.90182 21.5452 3.895 19.4942 4.2951 17.5005C4.69519 15.5068 5.49436 13.6094 6.64697 11.9167C7.79958 10.2239 9.28303 8.76901 11.0127 7.63493C12.7423 6.50085 14.6843 5.70982 16.7276 5.30709C18.771 4.90432 20.8757 4.89769 22.9217 5.28754C24.9677 5.67741 26.9148 6.45617 28.6518 7.57932C30.3891 8.70248 31.8822 10.148 33.0461 11.8335ZM34.08 11.7372V9.81915C34.0803 9.79926 34.0854 9.77974 34.0957 9.76268C34.1056 9.74559 34.1203 9.73158 34.1373 9.72205L35.8349 8.75092C35.8518 8.74108 35.8707 8.73591 35.8902 8.73594C35.9094 8.73598 35.9283 8.74114 35.9453 8.75101C35.9619 8.76085 35.9757 8.77502 35.9853 8.79205C35.9949 8.80907 36 8.82838 36 8.84802V10.766C35.9997 10.7856 35.9946 10.8049 35.985 10.8219C35.9754 10.8389 35.9616 10.8531 35.945 10.8631L34.2451 11.8343C34.2282 11.8441 34.2093 11.8493 34.1898 11.8492C34.1706 11.8492 34.1517 11.844 34.1347 11.8342C34.1181 11.8243 34.1043 11.8102 34.0947 11.7931C34.0851 11.7761 34.08 11.7568 34.08 11.7372ZM32.7146 29.3559C34.6429 26.7289 35.68 23.5799 35.68 20.35C35.6806 17.9695 35.1146 15.6215 34.0262 13.4904C29.0672 19.7348 25.9238 27.1644 24.9261 35C28.0629 33.9564 30.7862 31.9829 32.7146 29.3559Z" fill="url(#paint0_linear_35_243)"/>
<defs>
<linearGradient id="paint0_linear_35_243" x1="-8.77761" y1="14.0788" x2="35.5038" y2="35.8894" gradientUnits="userSpaceOnUse">
<stop stop-color="#C040FC"/>
<stop offset="1" stop-color="#4B3CFF"/>
</linearGradient>
</defs>
</svg>
