<svg width="40" height="40" viewBox="0 0 40 40" fill="none" xmlns="http://www.w3.org/2000/svg">
<circle cx="20" cy="20" r="20" fill="white"/>
<path d="M28.2385 8.33328V12.8924C28.5518 12.9274 28.841 12.9441 29.1243 12.9941C30.5535 13.2458 31.636 14.4774 31.6702 15.9283C31.6977 17.1216 31.6802 18.3158 31.681 19.5091C31.681 22.2583 31.6885 25.0074 31.6785 27.7566C31.6719 29.5733 30.5218 31.0699 28.791 31.5249C28.4593 31.6124 28.1077 31.6599 27.7652 31.6608C22.8918 31.6691 18.0185 31.6699 13.1452 31.6649C10.8727 31.6624 9.17018 29.9558 9.16852 27.6841C9.16518 22.5749 9.16518 17.4658 9.16852 12.3558C9.17018 10.0258 10.8585 8.33494 13.186 8.33328C18.0593 8.32994 22.9327 8.33244 27.806 8.33244C27.941 8.33244 28.0768 8.33244 28.2393 8.33244L28.2385 8.33328ZM11.5285 20.5441C11.5077 20.6499 11.4927 20.6899 11.4927 20.7308C11.4927 23.0908 11.4827 25.4516 11.4977 27.8116C11.5035 28.7166 12.1818 29.3399 13.1252 29.3408C17.9852 29.3449 22.8444 29.3433 27.7044 29.3408C27.8694 29.3408 28.0393 29.3291 28.1977 29.2874C28.9477 29.0891 29.3618 28.5074 29.3643 27.6274C29.371 25.4474 29.3668 23.2674 29.3643 21.0874C29.3643 20.9824 29.341 20.8774 29.3319 20.7974C28.9369 20.8149 28.5777 20.8441 28.2185 20.8441C23.5252 20.8474 18.8327 20.8466 14.1393 20.8449C13.2677 20.8449 12.3877 20.9233 11.5268 20.5433L11.5285 20.5441ZM25.9527 10.6566H25.4343C23.6985 10.6566 21.9627 10.6566 20.226 10.6566C17.8652 10.6566 15.5043 10.6699 13.1435 10.6499C12.156 10.6416 11.4718 11.4266 11.4852 12.2958C11.5085 13.8649 11.491 15.4341 11.5018 17.0033C11.5077 17.8049 12.0877 18.4274 12.8827 18.5133C13.0068 18.5266 13.1318 18.5308 13.2568 18.5316C15.1868 18.5391 17.1168 18.5458 19.0468 18.5499C19.1252 18.5499 19.2035 18.5216 19.2943 18.5041V12.9224C20.0527 12.9224 20.7985 12.9224 21.5444 12.9224C22.2902 12.9224 23.0169 12.9283 23.7527 12.9208C24.4935 12.9133 25.236 12.9516 25.9527 12.9108V10.6558V10.6566ZM21.5835 18.5333C21.881 18.5333 22.1427 18.5333 22.4035 18.5333C24.3585 18.5333 26.3135 18.5333 28.2685 18.5333C28.3794 18.5333 28.491 18.5341 28.601 18.5224C29.0635 18.4699 29.3285 18.1916 29.3427 17.7316C29.3577 17.2466 29.3669 16.7616 29.366 16.2766C29.3652 15.5299 29.0818 15.2491 28.3327 15.2491C26.211 15.2466 24.0902 15.2474 21.9685 15.2491C21.8493 15.2491 21.7294 15.2641 21.5835 15.2741V18.5333V18.5333Z" fill="black"/>
</svg>
