<svg width="40" height="40" viewBox="0 0 40 40" fill="none" xmlns="http://www.w3.org/2000/svg">
<circle cx="20" cy="20" r="20" fill="#15192D" fill-opacity="0.99"/>
<path d="M20.9696 15.3291C20.9571 15.2956 20.9368 15.2658 20.9104 15.2422C20.8839 15.2187 20.8522 15.2021 20.818 15.1939C20.7781 15.1808 20.7353 15.18 20.6949 15.1914C20.6545 15.2028 20.6182 15.2261 20.5906 15.2583L20.1231 15.7283L20.0536 15.8056L16.3517 12.0581C15.6788 11.3802 14.7709 11 13.8248 11C12.8787 11 11.9707 11.3802 11.2978 12.0581L6.03555 17.4347C5.37197 18.1213 5 19.0464 5 20.0103C5 20.9741 5.37197 21.8992 6.03555 22.5859L11.3042 27.9366C11.9754 28.6177 12.884 29 13.8311 29C14.7782 29 15.6868 28.6177 16.358 27.9366L17.5583 26.7132C17.7519 26.5343 17.9049 26.3146 18.0068 26.0693C18.0896 25.8411 18.1135 25.595 18.0763 25.3546C18.0406 25.1234 17.9543 24.9033 17.8236 24.7107C17.7696 24.6339 17.7083 24.5627 17.6404 24.4982C17.36 24.2143 16.9807 24.055 16.5854 24.055C16.1902 24.055 15.8109 24.2143 15.5304 24.4982L14.267 25.786C14.1913 25.8678 14.0915 25.922 13.9827 25.9405C13.8825 25.9764 13.7733 25.9764 13.6732 25.9405C13.5718 25.9023 13.4793 25.8431 13.4015 25.7667L8.16448 20.4288C8.08382 20.3494 8.03058 20.2455 8.01283 20.1326C7.98666 19.9912 8.01136 19.8449 8.08235 19.7205V19.6883C8.14552 19.6239 13.3636 14.3182 13.4078 14.2667C13.4919 14.1884 13.594 14.133 13.7047 14.1057C13.7424 14.0994 13.7808 14.0994 13.8184 14.1057C13.9705 14.1069 14.1158 14.1694 14.2228 14.2795L17.9184 18.0141L17.7352 18.2009L17.3688 18.5743C17.3405 18.6013 17.3195 18.6352 17.3077 18.6727C17.2959 18.7103 17.2936 18.7503 17.3012 18.789C17.3088 18.8277 17.326 18.8638 17.3511 18.8938C17.3762 18.9239 17.4084 18.9469 17.4446 18.9607L20.7675 19.3792C20.8362 19.3799 20.9043 19.3659 20.9674 19.3382C21.0305 19.3105 21.0872 19.2696 21.1339 19.2182C21.1837 19.1691 21.2229 19.11 21.249 19.0446C21.2751 18.9792 21.2875 18.9089 21.2855 18.8384L20.9696 15.3291Z" fill="url(#paint0_linear_31_118)"/>
<path opacity="0.49" d="M8.08807 20.2135C8.00889 20.1224 7.96186 20.0133 7.95268 19.8995C7.9435 19.7857 7.97255 19.672 8.03632 19.5723C8.03632 19.5723 6.00366 21.496 6.97934 23.6122L8.27286 24.7151L10.1429 22.0218L8.08807 20.2135Z" fill="url(#paint1_linear_31_118)"/>
<path opacity="0.49" d="M13.5715 26.2034C14.079 26.7217 14.7176 27.0732 15.4099 27.2155C16.1022 27.3577 16.8187 27.2846 17.4726 27.0049C17.6443 26.8261 17.7758 26.6087 17.8572 26.3688C17.5807 26.2225 15.5791 24.7148 15.5791 24.7148L14.377 25.9871C14.2949 26.126 14.1653 26.226 14.0152 26.2663C13.8652 26.3066 13.7063 26.284 13.5715 26.2034Z" fill="url(#paint2_linear_31_118)"/>
<path opacity="0.49" d="M12.4003 15.2866L13.7173 14.3251C13.8207 14.2704 13.9452 14.2409 14.0729 14.2409C14.2006 14.2409 14.3251 14.2704 14.4285 14.3251C14.4285 14.3251 12.2555 13.0223 9.94414 13.8444L9.28564 14.3251L12.4003 15.2866Z" fill="url(#paint3_linear_31_118)"/>
<path d="M18.1831 24.6771C18.1969 24.7113 18.2193 24.7416 18.2484 24.7652C18.2775 24.7888 18.3122 24.8049 18.3494 24.8121C18.3904 24.8255 18.4346 24.8266 18.4762 24.8151C18.5178 24.8036 18.5548 24.7802 18.5822 24.7478L19.0745 24.2784L19.1477 24.2013L23.0457 27.9434C23.7542 28.6204 24.7103 29 25.7065 29C26.7027 29 27.6587 28.6204 28.3672 27.9434L33.915 22.5746C34.6106 21.8873 35 20.9641 35 20.0026C35 19.0412 34.6106 18.118 33.915 17.4307L28.3672 12.0618C27.6604 11.3818 26.7037 11 25.7065 11C24.7092 11 23.7525 11.3818 23.0457 12.0618L21.7818 13.2835C21.5801 13.4625 21.4212 13.682 21.3162 13.9265C21.2268 14.1539 21.1994 14.3996 21.2364 14.6402C21.269 14.8823 21.3602 15.1136 21.5024 15.3153C21.5613 15.3905 21.6257 15.4614 21.6953 15.5275C21.9907 15.811 22.39 15.9701 22.8062 15.9701C23.2224 15.9701 23.6218 15.811 23.9171 15.5275L25.2475 14.2415C25.328 14.161 25.4328 14.107 25.5468 14.0872C25.6523 14.0515 25.7673 14.0515 25.8728 14.0872C25.9802 14.124 26.0779 14.1833 26.1588 14.2609L31.6732 19.5911C31.7582 19.6704 31.8142 19.7742 31.8329 19.8869C31.8605 20.0281 31.8345 20.1742 31.7597 20.2984V20.3306C31.6932 20.3949 26.1987 25.693 26.1521 25.7444C26.0636 25.8226 25.9561 25.8779 25.8395 25.9052C25.7999 25.9115 25.7594 25.9115 25.7198 25.9052C25.5597 25.904 25.4066 25.8416 25.2941 25.7316L21.4093 22.0023L21.5956 21.8159L21.9814 21.4429C22.0111 21.416 22.0333 21.3822 22.0457 21.3446C22.0582 21.3071 22.0605 21.2672 22.0525 21.2286C22.0445 21.1899 22.0265 21.1539 22.0001 21.1239C21.9737 21.0939 21.9398 21.0709 21.9016 21.0571L18.4026 20.6392C18.2568 20.6426 18.118 20.7009 18.0161 20.8019C17.9142 20.9028 17.8571 21.0383 17.8572 21.1793L18.1831 24.6771Z" fill="url(#paint4_linear_31_118)"/>
<path opacity="0.49" d="M31.3983 19.7868C31.4577 19.8779 31.493 19.9869 31.4999 20.1007C31.5067 20.2145 31.4849 20.3282 31.4371 20.428C31.4371 20.428 32.9616 18.5043 32.2299 16.3881L31.2653 15.2852L29.8572 17.9784L31.3983 19.7868Z" fill="url(#paint5_linear_31_118)"/>
<path opacity="0.49" d="M26.4285 13.8113C25.8187 13.2865 25.0513 12.9305 24.2194 12.7865C23.3874 12.6425 22.5265 12.7166 21.7407 12.9998C21.5396 13.1708 21.3841 13.3799 21.2856 13.6117C21.6179 13.7598 24.016 15.2863 24.016 15.2863L25.4606 13.9981C25.5649 13.8629 25.7231 13.7682 25.903 13.7335C26.0829 13.6988 26.2708 13.7266 26.4285 13.8113V13.8113Z" fill="url(#paint6_linear_31_118)"/>
<path opacity="0.49" d="M27.5997 24.7148L26.2827 25.6763C26.1793 25.731 26.0549 25.7605 25.9271 25.7605C25.7994 25.7605 25.6749 25.731 25.5715 25.6763C25.5715 25.6763 27.7446 26.9791 30.0559 26.157L30.7144 25.6763L27.5997 24.7148Z" fill="url(#paint7_linear_31_118)"/>
<defs>
<linearGradient id="paint0_linear_31_118" x1="13.1362" y1="8.6905" x2="13.1362" y2="43.6091" gradientUnits="userSpaceOnUse">
<stop offset="0.01" stop-color="#00BFE1"/>
<stop offset="0.97" stop-color="#2738AB"/>
</linearGradient>
<linearGradient id="paint1_linear_31_118" x1="6.26975" y1="20.7458" x2="8.54191" y2="22.9371" gradientUnits="userSpaceOnUse">
<stop offset="0.03" stop-color="#1B1464"/>
<stop offset="1" stop-color="#1B1464" stop-opacity="0"/>
</linearGradient>
<linearGradient id="paint2_linear_31_118" x1="15.1103" y1="27.2466" x2="16.1851" y2="25.8027" gradientUnits="userSpaceOnUse">
<stop offset="0.03" stop-color="#1B1464"/>
<stop offset="1" stop-color="#1B1464" stop-opacity="0"/>
</linearGradient>
<linearGradient id="paint3_linear_31_118" x1="12.3345" y1="13.4309" x2="11.8649" y2="15.0208" gradientUnits="userSpaceOnUse">
<stop offset="0.03" stop-color="#1B1464"/>
<stop offset="1" stop-color="#1B1464" stop-opacity="0"/>
</linearGradient>
<linearGradient id="paint4_linear_31_118" x1="26.4315" y1="8.69905" x2="26.4315" y2="43.5678" gradientUnits="userSpaceOnUse">
<stop offset="0.01" stop-color="#00BFE1"/>
<stop offset="0.97" stop-color="#2738AB"/>
</linearGradient>
<linearGradient id="paint5_linear_31_118" x1="32.7621" y1="19.2545" x2="30.6027" y2="17.6926" gradientUnits="userSpaceOnUse">
<stop offset="0.03" stop-color="#1B1464"/>
<stop offset="1" stop-color="#1B1464" stop-opacity="0"/>
</linearGradient>
<linearGradient id="paint6_linear_31_118" x1="24.5866" y1="12.7486" x2="23.5571" y2="14.3801" gradientUnits="userSpaceOnUse">
<stop offset="0.03" stop-color="#1B1464"/>
<stop offset="1" stop-color="#1B1464" stop-opacity="0"/>
</linearGradient>
<linearGradient id="paint7_linear_31_118" x1="27.6656" y1="26.5657" x2="28.1351" y2="24.9758" gradientUnits="userSpaceOnUse">
<stop offset="0.03" stop-color="#1B1464"/>
<stop offset="1" stop-color="#1B1464" stop-opacity="0"/>
</linearGradient>
</defs>
</svg>
