<svg width="40" height="40" viewBox="0 0 40 40" fill="none" xmlns="http://www.w3.org/2000/svg">
<circle cx="20" cy="20" r="20" fill="white"/>
<path d="M23.7403 28.4811L23.7476 25.8352L19.945 23.6396C19.8902 23.6079 19.8356 23.5745 19.7815 23.5397L19.7728 23.5344C19.7205 23.501 19.6685 23.4677 19.6166 23.4304C19.5986 23.4181 19.5809 23.4051 19.5629 23.3924C19.5296 23.3681 19.4943 23.3435 19.4603 23.3182C19.4389 23.3022 19.4179 23.2848 19.3969 23.2698C19.366 23.2462 19.3354 23.2222 19.305 23.1975C19.2828 23.1793 19.2606 23.1608 19.2384 23.1423C19.209 23.118 19.1799 23.0934 19.1508 23.0683C19.1286 23.0485 19.1063 23.0286 19.0842 23.0086C19.0555 22.9833 19.0271 22.9575 18.9988 22.9314C18.9762 22.9104 18.9535 22.8897 18.9323 22.8684C18.9036 22.8411 18.8753 22.8134 18.8469 22.7857C18.8263 22.7654 18.8053 22.7451 18.7846 22.7244C18.755 22.6945 18.7256 22.6642 18.6964 22.6335C18.6777 22.6139 18.6587 22.5945 18.6404 22.5749C18.6071 22.5382 18.5737 22.5009 18.5387 22.4633L18.5011 22.4216C18.4549 22.3692 18.4094 22.316 18.3645 22.262C18.3542 22.2497 18.3445 22.2371 18.3342 22.2247C18.3009 22.1824 18.265 22.1398 18.231 22.0968C18.1899 22.0444 18.1494 21.9913 18.1096 21.9375L18.0893 21.9109C18.0247 21.8232 17.9621 21.7333 17.9008 21.6423L17.8674 21.5923C17.7904 21.4765 17.7163 21.3585 17.6452 21.2386L17.6179 21.1929C17.5684 21.1081 17.5203 21.0224 17.4737 20.9357C17.4567 20.9041 17.4403 20.8725 17.424 20.8408C17.4077 20.8091 17.3907 20.7741 17.3721 20.7408C17.3484 20.6935 17.3254 20.6463 17.3024 20.5986C17.2951 20.5833 17.2874 20.5679 17.2801 20.5526C17.2512 20.4911 17.2231 20.4292 17.1958 20.367C17.1888 20.3507 17.1818 20.3337 17.1751 20.3184C17.1551 20.2722 17.1356 20.2258 17.1166 20.1792L17.0909 20.1155C17.0733 20.0711 17.0561 20.0267 17.0392 19.9823C17.0319 19.9629 17.0246 19.9433 17.0172 19.924C16.9966 19.8673 16.9766 19.8106 16.9572 19.7537L16.9496 19.7317C16.9274 19.6677 16.907 19.6038 16.8883 19.5398C16.882 19.5195 16.8763 19.4992 16.8707 19.4789C16.8577 19.4342 16.8447 19.3895 16.8327 19.3455C16.826 19.3213 16.8197 19.297 16.8134 19.2726C16.8027 19.2313 16.7924 19.1901 16.7824 19.149C16.7766 19.1246 16.7709 19.1002 16.7654 19.0758C16.7557 19.0334 16.7467 18.9911 16.738 18.9491C16.7334 18.9268 16.7287 18.9041 16.7244 18.8825C16.714 18.8283 16.7043 18.7743 16.6955 18.7206C16.6955 18.7112 16.6921 18.7019 16.6908 18.6926C16.6808 18.6295 16.6719 18.5666 16.6641 18.5037C16.6621 18.4867 16.6605 18.4704 16.6585 18.4527C16.6533 18.4072 16.6486 18.3618 16.6445 18.3165C16.6425 18.2951 16.6411 18.2738 16.6395 18.2528C16.6361 18.2102 16.6338 18.1679 16.6318 18.1256C16.6318 18.1056 16.6298 18.0853 16.6291 18.0653C16.6271 18.0053 16.6255 17.9457 16.6258 17.8867L16.6365 13.8222L16.3033 13.6303L14.5965 12.6461C14.2464 12.4359 13.8607 12.2917 13.4585 12.2207V12.223C13.4558 12.2437 13.4541 12.2654 13.4518 12.286C13.4495 12.3067 13.4468 12.3314 13.4448 12.3547C13.4448 12.3643 13.4428 12.3733 13.4418 12.3829C13.4392 12.4136 13.4378 12.4449 13.4362 12.4762C13.4362 12.4932 13.4338 12.5096 13.4332 12.5272V12.5396C13.4309 12.5922 13.4297 12.6456 13.4295 12.6998V12.7095L13.4102 19.7521C13.4102 19.8018 13.4108 19.8516 13.4122 19.9016C13.4122 19.9113 13.4122 19.9206 13.4122 19.9303C13.4122 19.9506 13.4142 19.9713 13.4152 19.9916C13.4162 20.0119 13.4168 20.0385 13.4185 20.0622C13.4185 20.0805 13.4215 20.0992 13.4228 20.1178C13.4242 20.1365 13.4262 20.1608 13.4282 20.1825C13.4282 20.1962 13.4302 20.2102 13.4315 20.2238C13.4345 20.2547 13.4385 20.2861 13.4418 20.3174C13.4438 20.3347 13.4455 20.3507 13.4475 20.3697L13.4495 20.3864C13.4566 20.4419 13.4645 20.4974 13.4731 20.5529V20.5576C13.4731 20.5669 13.4765 20.5766 13.4781 20.5859C13.4855 20.6309 13.4931 20.6759 13.5015 20.7212C13.5031 20.7298 13.5051 20.7385 13.5068 20.7472C13.5111 20.7698 13.5161 20.7925 13.5208 20.8138C13.5255 20.8351 13.5311 20.8668 13.5368 20.8931C13.5401 20.9088 13.5441 20.9244 13.5478 20.9397C13.5533 20.964 13.559 20.9883 13.5647 21.0127C13.569 21.031 13.573 21.0494 13.5774 21.0674C13.5817 21.0853 13.5897 21.1137 13.5957 21.1366C13.6017 21.1596 13.6084 21.1852 13.6147 21.2092C13.618 21.2209 13.6207 21.2326 13.6237 21.2426C13.6327 21.2759 13.6427 21.3092 13.6527 21.3426C13.6587 21.3628 13.6644 21.3831 13.6704 21.4035L13.675 21.4201C13.6926 21.4777 13.711 21.5352 13.7304 21.5927V21.5957L13.738 21.6177C13.7543 21.666 13.7713 21.7143 13.7886 21.7627C13.7916 21.771 13.7949 21.7793 13.7979 21.7877C13.8049 21.8069 13.8123 21.8259 13.8196 21.8452C13.8296 21.8722 13.8396 21.8989 13.8499 21.9259C13.8569 21.9439 13.8642 21.9615 13.8716 21.9795L13.8969 22.0424C13.9032 22.0574 13.9089 22.0728 13.9152 22.0878C13.9282 22.1191 13.9419 22.1504 13.9556 22.1818C13.9626 22.1981 13.9692 22.2151 13.9766 22.2304L13.9839 22.2474C14.0079 22.3013 14.0324 22.3552 14.0575 22.409L14.0608 22.4163C14.0681 22.4316 14.0758 22.447 14.0831 22.4623C14.1028 22.5032 14.1221 22.5445 14.1425 22.5852L14.1525 22.6045C14.1694 22.6378 14.1858 22.6712 14.2044 22.7044C14.2184 22.7314 14.2318 22.7584 14.246 22.7851L14.254 22.7994C14.3005 22.8861 14.3486 22.9718 14.3983 23.0566C14.4027 23.0639 14.4063 23.0713 14.4107 23.0786C14.415 23.0859 14.421 23.0943 14.4257 23.1023C14.4967 23.2222 14.5708 23.3401 14.6479 23.456C14.6522 23.4624 14.6559 23.469 14.6602 23.4757C14.6645 23.4824 14.6749 23.496 14.6819 23.5067C14.7431 23.5974 14.8054 23.6873 14.8704 23.7749L14.8894 23.7996C14.9293 23.8533 14.9699 23.9066 15.011 23.9595L15.018 23.9685C15.0513 24.0091 15.0826 24.0491 15.1153 24.0887L15.1442 24.1244L15.1465 24.127C15.189 24.1781 15.2319 24.2284 15.2755 24.278L15.2809 24.2839L15.3185 24.3256C15.3472 24.3589 15.3761 24.3902 15.4051 24.4219L15.4201 24.4376C15.4387 24.4572 15.4574 24.4765 15.4761 24.4962C15.4947 24.5158 15.5194 24.5421 15.5427 24.5648L15.5654 24.5874C15.586 24.6081 15.6066 24.6284 15.6276 24.6488C15.6486 24.6691 15.6643 24.6858 15.683 24.7034L15.7129 24.7313C15.7353 24.7527 15.7579 24.7737 15.7796 24.7943C15.7959 24.8093 15.8128 24.8247 15.8282 24.8393L15.8648 24.8727L15.9315 24.9323C15.9458 24.9446 15.9598 24.9576 15.9745 24.9696C15.9892 24.9815 16.0045 24.9939 16.0191 25.0059L16.0857 25.0612C16.0977 25.0709 16.1094 25.0809 16.1214 25.0905C16.14 25.1052 16.159 25.1192 16.1777 25.1335C16.1964 25.1479 16.2197 25.1669 16.2407 25.1814L16.2669 25.2014C16.2923 25.2201 16.3183 25.2378 16.3436 25.2561C16.3613 25.2688 16.3789 25.2818 16.3969 25.2941L16.4113 25.3044C16.4579 25.3364 16.5048 25.3675 16.5521 25.3977L16.5595 25.4024C16.6031 25.43 16.6471 25.457 16.6928 25.483L16.726 25.502L22.5709 28.8778C22.6062 28.8982 22.6415 28.9179 22.6766 28.9368L22.7172 28.9578L22.7708 28.9855C22.7848 28.9925 22.7988 29.0001 22.8125 29.0071C22.8351 29.0184 22.8578 29.0284 22.8791 29.0404L22.9264 29.0627L22.9454 29.0717C22.9899 29.0917 23.0343 29.1105 23.0787 29.128L23.084 29.13C23.1269 29.1471 23.1695 29.1631 23.2119 29.178L23.2299 29.184L23.2789 29.2C23.3009 29.2074 23.3232 29.215 23.3455 29.2217L23.3789 29.2313L23.4378 29.2476C23.4524 29.2516 23.4674 29.2563 23.4818 29.2599C23.4961 29.2636 23.5151 29.2669 23.5301 29.2706L23.5888 29.2836L23.6184 29.2903L23.6481 29.2953C23.67 29.2007 23.6883 29.1027 23.7023 29.0004C23.7264 28.8283 23.7391 28.6548 23.7403 28.4811Z" fill="url(#paint0_linear_41_306)"/>
<path d="M20.4471 12.2986L16.4122 9.96888L15.7575 9.59069L14.6082 8.92705C10.9871 6.83685 8.03103 8.52161 8.01903 12.6824L8.00003 19.3905C7.98837 23.5549 10.9251 28.6395 14.5462 30.7301L20.3851 34.101C24.0059 36.1915 26.9622 34.5081 26.9739 30.346L26.9822 27.3935V27.1297L26.9922 23.6366C27.0049 19.4761 24.0678 14.3892 20.4471 12.2986ZM23.7483 25.6915V25.8321L23.741 28.478C23.7406 28.6513 23.729 28.8245 23.706 28.9964C23.692 29.0986 23.6727 29.1963 23.6517 29.2912C23.3049 30.7904 21.9756 31.2955 20.3964 30.384L14.5569 27.0141C12.7192 25.9536 11.229 23.372 11.235 21.2591L11.2539 14.5497C11.2583 13.0422 12.0242 12.1757 13.131 12.1893C13.2411 12.1913 13.351 12.2012 13.4598 12.219C13.8615 12.2902 14.2468 12.4343 14.5965 12.6444L16.3013 13.6269L16.6344 13.8188L20.4371 16.0143C22.2741 17.0764 23.7653 19.657 23.7583 21.7699L23.7483 25.6915Z" fill="url(#paint1_linear_41_306)"/>
<path d="M32.0322 20.3128C32.0322 20.2938 32.0302 20.2746 32.0295 20.2556C32.0295 20.2162 32.0258 20.1766 32.0238 20.1372C32.0215 20.0903 32.0202 20.044 32.0172 19.9967C32.0148 19.96 32.0112 19.9227 32.0082 19.8857C32.0052 19.8487 32.0019 19.8025 31.9982 19.7605C31.9959 19.7331 31.9942 19.7058 31.9916 19.6785C31.9856 19.6165 31.9779 19.5543 31.9709 19.4923C31.9669 19.4589 31.9639 19.4256 31.9596 19.3923C31.9596 19.3814 31.9572 19.3704 31.9559 19.359C31.9421 19.2497 31.9265 19.14 31.9089 19.0298L31.9073 19.0202C31.9043 19.0012 31.9006 18.9822 31.8973 18.9632C31.8829 18.8753 31.8683 18.7873 31.8516 18.6991C31.8483 18.6814 31.8443 18.6641 31.8409 18.6464C31.8323 18.6021 31.8229 18.5578 31.8139 18.5131C31.8033 18.4608 31.7936 18.4089 31.7806 18.3569C31.774 18.3259 31.766 18.2949 31.759 18.2639C31.7481 18.216 31.737 18.168 31.7257 18.12C31.717 18.0843 31.7097 18.0487 31.7007 18.0131C31.6894 17.9674 31.6764 17.9214 31.6647 17.8754C31.653 17.8295 31.6401 17.7802 31.6271 17.7326C31.6211 17.7099 31.6154 17.6872 31.6091 17.6659C31.5907 17.5992 31.5707 17.5347 31.5515 17.469C31.5398 17.4297 31.5288 17.39 31.5182 17.3508C31.5148 17.3401 31.5122 17.3294 31.5088 17.3175C31.4739 17.204 31.4376 17.0906 31.3998 16.9773L31.3975 16.9706C31.3922 16.9549 31.3865 16.9396 31.3812 16.9239C31.3478 16.83 31.3169 16.7357 31.2813 16.6418C31.2753 16.6251 31.2686 16.6085 31.2626 16.5918C31.2486 16.5535 31.234 16.5152 31.2193 16.4768C31.1996 16.4246 31.1806 16.3723 31.1603 16.3199C31.1466 16.2846 31.132 16.2496 31.1176 16.2144C31.1011 16.1726 31.0842 16.131 31.0674 16.0894C31.0554 16.0597 31.0441 16.0301 31.0317 16.0008C31.0057 15.9385 30.9787 15.8769 30.9521 15.8149C30.9384 15.7816 30.9251 15.7513 30.9111 15.7193L30.8971 15.686C30.85 15.5796 30.8018 15.4735 30.7522 15.3678L30.7455 15.3538C30.7305 15.3205 30.7145 15.2905 30.6995 15.2585C30.6615 15.1789 30.6236 15.0993 30.5843 15.0203C30.578 15.0077 30.571 14.995 30.5646 14.982C30.5313 14.9153 30.498 14.8488 30.4623 14.7841C30.4351 14.7311 30.4084 14.6781 30.3804 14.6256C30.3751 14.6159 30.3694 14.6066 30.3641 14.5966C30.2726 14.4262 30.1779 14.2574 30.0799 14.0901C30.0716 14.0758 30.0642 14.0615 30.0559 14.0471C30.0312 14.0052 30.0052 13.9642 29.9803 13.9226C29.9383 13.8529 29.8967 13.7833 29.8537 13.7144C29.8163 13.6544 29.7784 13.5951 29.7404 13.5358C29.6968 13.4692 29.6535 13.4002 29.6088 13.3328C29.5938 13.3099 29.5795 13.2866 29.5641 13.2639C29.5488 13.2413 29.5352 13.2236 29.5212 13.203C29.4002 13.0241 29.2774 12.8472 29.15 12.6742L29.1484 12.6715C29.136 12.6545 29.1227 12.6383 29.1104 12.6216C29.0318 12.5159 28.9521 12.4112 28.8712 12.3078L28.8573 12.2894C28.7939 12.2091 28.7293 12.1305 28.665 12.0516C28.646 12.0286 28.6277 12.0049 28.6087 11.9819L28.6044 11.9766C28.5208 11.8763 28.4362 11.7772 28.3505 11.6794L28.3395 11.6675C28.3152 11.6395 28.2898 11.6128 28.2652 11.5851C28.2085 11.5219 28.1519 11.4579 28.0943 11.3959L28.065 11.3653C28.0283 11.3259 27.991 11.2877 27.9537 11.2487C27.9111 11.204 27.8687 11.1584 27.8254 11.1154C27.8108 11.1004 27.7954 11.086 27.7804 11.0711C27.7399 11.0301 27.6989 10.9901 27.6579 10.9498C27.6169 10.9095 27.5855 10.8772 27.5489 10.8419C27.5292 10.8233 27.5093 10.8053 27.4896 10.7866C27.4453 10.7446 27.4007 10.7033 27.3563 10.6623C27.323 10.633 27.293 10.6027 27.2611 10.5737C27.2374 10.5524 27.2131 10.5321 27.1891 10.5107C27.1447 10.471 27.0997 10.4317 27.0542 10.3928C27.0259 10.3685 26.9982 10.3432 26.9696 10.3192C26.9409 10.2952 26.9106 10.2715 26.8812 10.2472C26.8368 10.2108 26.7924 10.1747 26.748 10.139C26.7243 10.12 26.701 10.1 26.677 10.081C26.64 10.052 26.6028 10.0246 26.5658 9.99597C26.5288 9.96731 26.4831 9.9324 26.4418 9.90141C26.4245 9.88841 26.4085 9.87474 26.3899 9.86174C26.3396 9.82475 26.2899 9.78976 26.2379 9.75376C26.2046 9.72918 26.1686 9.70385 26.1337 9.67986L26.105 9.65953C26.013 9.59645 25.9206 9.53521 25.8275 9.47597H25.8255L25.8115 9.46731C25.7252 9.41265 25.6383 9.35899 25.551 9.30767L25.4867 9.27042L19.6512 5.89952C19.5816 5.85932 19.5123 5.82056 19.4432 5.78325C19.4166 5.76892 19.3903 5.75593 19.3636 5.74194L19.2573 5.68696C19.23 5.67297 19.2024 5.65798 19.1754 5.64432C19.1304 5.622 19.0861 5.60234 19.0421 5.58136C19.0108 5.56669 18.9799 5.55137 18.9489 5.53738L18.9112 5.51972C18.8224 5.48041 18.7351 5.44343 18.6493 5.40878L18.636 5.40378C18.5523 5.37046 18.4694 5.33915 18.3865 5.30983L18.3485 5.29584C18.3151 5.28485 18.2846 5.27485 18.2526 5.26452C18.2089 5.2502 18.1652 5.23487 18.1219 5.22188C18.0989 5.21488 18.0763 5.20955 18.0533 5.20289C18.0147 5.19156 17.9763 5.18124 17.9377 5.16957C17.9087 5.16191 17.8794 5.15258 17.8508 5.14558C17.8221 5.13859 17.7878 5.13326 17.7558 5.12593C17.7175 5.11726 17.6788 5.10827 17.6408 5.09994C17.6216 5.09594 17.6016 5.09062 17.5822 5.08695C17.5453 5.07962 17.5093 5.07529 17.4723 5.06896C17.4279 5.0613 17.3834 5.0533 17.339 5.04698C17.3247 5.04531 17.3094 5.04198 17.2947 5.03998C17.2574 5.03331 17.2207 5.03331 17.1837 5.02865C17.1365 5.02332 17.0892 5.01799 17.0425 5.01432C17.0295 5.01432 17.0158 5.01132 17.0028 5.01032C16.9695 5.00799 16.9393 5.00866 16.9069 5.00699C16.8506 5.00432 16.795 5.002 16.739 5C16.7241 5 16.7087 5 16.6937 5C16.6694 5 16.6461 5.003 16.6217 5.00333C16.5517 5.00333 16.4825 5.00799 16.4142 5.01299C16.3939 5.01299 16.3729 5.01299 16.3529 5.01599C16.3232 5.01866 16.2945 5.02299 16.2653 5.02632L16.202 5.03331C16.125 5.04364 16.0487 5.0553 15.9738 5.07063L15.9654 5.07329C15.9431 5.07795 15.9214 5.08395 15.8988 5.08895C15.8378 5.10261 15.7772 5.11693 15.7179 5.13359C15.6876 5.14225 15.6582 5.15225 15.6282 5.16191C15.59 5.1739 15.551 5.18456 15.513 5.19823C15.503 5.20156 15.4937 5.20655 15.484 5.20988C15.4247 5.23154 15.3674 5.25586 15.3098 5.28085C15.2818 5.29284 15.2531 5.30383 15.2258 5.3165C15.1419 5.35581 15.0592 5.39812 14.9796 5.44443L11.7664 7.3101C11.8463 7.26379 11.9286 7.22148 12.0122 7.18216C12.0398 7.16917 12.0685 7.15852 12.0965 7.14618C12.1538 7.1212 12.2115 7.09688 12.2704 7.07522C12.3177 7.0579 12.366 7.04191 12.4147 7.02725C12.4447 7.01792 12.4739 7.00759 12.5042 6.99893C12.5636 6.98227 12.6246 6.96795 12.6852 6.95429C12.7071 6.94929 12.7288 6.94329 12.7518 6.93863C12.8294 6.92297 12.9084 6.91031 12.9883 6.89965C13.0093 6.89698 13.0307 6.89465 13.0516 6.89232C13.101 6.88666 13.1515 6.88266 13.2005 6.879C13.2689 6.87366 13.3382 6.87066 13.4081 6.869C13.4471 6.869 13.4857 6.86667 13.5251 6.86701C13.5804 6.86701 13.6366 6.87 13.6916 6.87266C13.7366 6.87466 13.7816 6.87633 13.8272 6.87999C13.8728 6.88366 13.9212 6.88933 13.9685 6.89432C14.0158 6.89932 14.0717 6.90565 14.1244 6.91297C14.1684 6.91931 14.2127 6.9273 14.2577 6.93497C14.3136 6.94463 14.3696 6.95429 14.4263 6.96628C14.4643 6.97428 14.5028 6.98294 14.5412 6.99194C14.6016 7.00592 14.6623 7.02103 14.7234 7.03724C14.7617 7.04757 14.8004 7.0579 14.8387 7.07056C14.9053 7.08955 14.9719 7.11054 15.0386 7.1322C15.0719 7.14252 15.1022 7.15252 15.1342 7.16351C15.2288 7.19683 15.3238 7.23014 15.4197 7.26912L15.433 7.27411C15.533 7.3141 15.6329 7.35774 15.7329 7.40338C15.7639 7.41737 15.7949 7.4327 15.8262 7.44736C15.8979 7.48112 15.97 7.51632 16.0424 7.55297C16.0777 7.57095 16.1132 7.58928 16.1486 7.60794C16.244 7.65827 16.3395 7.70959 16.4358 7.76517L22.2767 11.1364C22.3853 11.199 22.4933 11.2644 22.6005 11.3326L22.6158 11.3419C22.7192 11.4086 22.8217 11.4752 22.9237 11.5468C22.9587 11.5711 22.9934 11.5965 23.0279 11.6211C23.0946 11.6695 23.1643 11.7184 23.2319 11.7687C23.2732 11.7997 23.3142 11.8313 23.3555 11.863C23.4166 11.9098 23.4774 11.9577 23.538 12.0062C23.5824 12.0418 23.6268 12.0778 23.6713 12.1142C23.7293 12.1622 23.7869 12.2108 23.8442 12.2601C23.8886 12.299 23.9331 12.3382 23.9775 12.3778C24.0337 12.4275 24.0892 12.478 24.1441 12.5293C24.1887 12.5703 24.2333 12.6116 24.2773 12.6535C24.334 12.7072 24.3902 12.7619 24.4462 12.8168C24.4869 12.8568 24.5279 12.8968 24.5682 12.9374C24.6264 12.9961 24.6838 13.0561 24.7414 13.116C24.7787 13.155 24.8161 13.1933 24.853 13.2329C24.9196 13.3049 24.9863 13.3785 25.0529 13.4522C25.0775 13.4798 25.1029 13.5068 25.1275 13.5348C25.2183 13.638 25.3081 13.743 25.3967 13.8496C25.4157 13.8726 25.4341 13.8963 25.4531 13.9193C25.5223 14.0038 25.5916 14.0888 25.6593 14.1755C25.7401 14.2787 25.8197 14.3833 25.8981 14.4892C25.9111 14.5069 25.9248 14.5226 25.9381 14.5419C26.0654 14.7148 26.1886 14.8918 26.3092 15.0703C26.3386 15.1136 26.3682 15.1569 26.3968 15.2005C26.4411 15.2672 26.4848 15.3355 26.5285 15.4034C26.5665 15.4628 26.6045 15.5221 26.6417 15.582C26.6847 15.651 26.7263 15.7206 26.7683 15.7903C26.8017 15.8459 26.835 15.9015 26.8682 15.9568C26.966 16.1241 27.0607 16.293 27.1524 16.4636C27.1858 16.5255 27.2191 16.5878 27.2501 16.6498C27.2811 16.7117 27.3193 16.783 27.3527 16.8497C27.3987 16.9413 27.4436 17.0336 27.4876 17.1259C27.503 17.1591 27.5186 17.1891 27.5335 17.2211C27.5905 17.3422 27.6459 17.4643 27.7002 17.5877C27.7142 17.6209 27.7279 17.6519 27.7415 17.6842C27.7808 17.7753 27.8192 17.8667 27.8567 17.9584C27.8738 18.0002 27.8907 18.0418 27.9071 18.0833C27.9419 18.1709 27.9752 18.2585 28.007 18.3462C28.0213 18.3845 28.036 18.4229 28.0503 18.4612C28.0907 18.5722 28.1297 18.6832 28.1673 18.7943C28.1726 18.8096 28.1783 18.8253 28.1836 18.8406C28.2258 18.9668 28.2659 19.0929 28.3042 19.2191C28.3162 19.2587 28.3272 19.2984 28.3375 19.338C28.3635 19.4259 28.3888 19.5139 28.4125 19.6019C28.4254 19.6498 28.4377 19.6978 28.4504 19.7461C28.4716 19.8272 28.4917 19.9083 28.5111 19.9894C28.5226 20.0375 28.5337 20.0856 28.5444 20.1336C28.5632 20.2166 28.581 20.2997 28.5977 20.3828C28.6067 20.4271 28.616 20.4714 28.6247 20.516C28.6451 20.622 28.6639 20.7276 28.6809 20.8329C28.6839 20.8519 28.6879 20.8709 28.6909 20.8899C28.7108 21.0143 28.7282 21.1382 28.7433 21.2616C28.7476 21.295 28.7506 21.3283 28.7546 21.3616C28.7648 21.4504 28.7739 21.5399 28.7819 21.6298C28.7856 21.6717 28.7889 21.7134 28.7919 21.7551C28.7981 21.8391 28.8033 21.9226 28.8073 22.0059C28.8093 22.0456 28.8113 22.0852 28.8129 22.1248C28.8173 22.2428 28.8199 22.3601 28.8196 22.4767L28.8006 29.1861C28.8006 29.3083 28.7969 29.428 28.7916 29.5459C28.7916 29.5792 28.7873 29.6125 28.7856 29.6459C28.7809 29.7268 28.7756 29.8071 28.7683 29.8861C28.7643 29.9317 28.7593 29.9763 28.7543 30.0213C28.7469 30.088 28.7393 30.1546 28.7303 30.2212C28.7236 30.2692 28.7166 30.3162 28.7089 30.3632C28.6994 30.4236 28.6891 30.4832 28.6779 30.5421C28.6679 30.5947 28.6575 30.6468 28.6466 30.6983C28.6358 30.7499 28.6238 30.8021 28.6107 30.8552C28.596 30.9158 28.5805 30.9756 28.564 31.0345C28.5511 31.0807 28.5381 31.1267 28.5241 31.172C28.5024 31.2424 28.4794 31.3109 28.4554 31.3789C28.4421 31.4162 28.4294 31.4539 28.4157 31.4906C28.3722 31.6051 28.3258 31.7168 28.2752 31.8237C28.2359 31.907 28.1949 31.9882 28.1516 32.0666C28.147 32.0752 28.1413 32.0832 28.1366 32.0919C28.097 32.1625 28.056 32.2311 28.0133 32.2978C28.003 32.3138 27.992 32.3291 27.98 32.3451C27.9441 32.3991 27.9071 32.4518 27.8691 32.5033C27.8534 32.5243 27.8374 32.5453 27.8214 32.566C27.7846 32.6135 27.7467 32.6597 27.7079 32.7045C27.6935 32.7215 27.6792 32.7379 27.6645 32.7552C27.6115 32.8145 27.5569 32.8721 27.5006 32.9268C27.492 32.9351 27.4826 32.9431 27.474 32.9514C27.4256 32.9974 27.376 33.0418 27.3253 33.0846C27.3067 33.1003 27.2874 33.1156 27.2684 33.131C27.2239 33.1663 27.1795 33.2003 27.1351 33.233C27.1161 33.2466 27.0975 33.2606 27.0781 33.2736C27.0146 33.3172 26.9499 33.3592 26.8832 33.3978L30.0962 31.5321C30.1629 31.4936 30.2274 31.4516 30.2914 31.4079C30.3108 31.3949 30.3294 31.3809 30.3481 31.3673C30.3936 31.3346 30.4381 31.3006 30.4813 31.2654C30.5003 31.25 30.5196 31.2347 30.5383 31.219C30.5891 31.1764 30.639 31.132 30.6875 31.0857C30.6962 31.0777 30.7052 31.0701 30.7135 31.0617C30.7699 31.0071 30.8245 30.9495 30.8775 30.8902C30.8921 30.8735 30.9064 30.8568 30.9211 30.8392C30.9597 30.7948 30.9977 30.7486 31.0347 30.7006C31.0507 30.68 31.0681 30.659 31.0824 30.638C31.1203 30.5867 31.1572 30.5341 31.193 30.4801C31.2036 30.4641 31.2146 30.4487 31.2263 30.4324L31.2363 30.4177C31.2756 30.3562 31.3126 30.2922 31.3492 30.2275C31.3542 30.2185 31.3598 30.2105 31.3648 30.2015C31.4067 30.126 31.4465 30.0483 31.4845 29.9683L31.4885 29.9587C31.5391 29.8518 31.5854 29.7401 31.6291 29.6255C31.6331 29.6152 31.6377 29.6059 31.6417 29.5955C31.6514 29.5692 31.6594 29.5409 31.6687 29.5142C31.6927 29.4477 31.716 29.3773 31.7377 29.307C31.7437 29.2877 31.7507 29.2697 31.7564 29.2504C31.764 29.2244 31.77 29.1964 31.7774 29.1701C31.7938 29.111 31.8094 29.0511 31.8243 28.9906C31.8303 28.9652 31.8379 28.9416 31.8436 28.9159C31.8493 28.8902 31.8543 28.8612 31.8599 28.8343C31.871 28.7825 31.8816 28.7303 31.8916 28.6774C31.8969 28.6497 31.9033 28.623 31.9083 28.595C31.9133 28.5671 31.9176 28.5308 31.9226 28.4991C31.9299 28.4521 31.9373 28.4048 31.9439 28.3569C31.9472 28.3319 31.9519 28.3079 31.9549 28.2826C31.9599 28.2419 31.9632 28.1996 31.9679 28.1586C31.9726 28.1177 31.9779 28.0687 31.9819 28.0227C31.9836 28.0041 31.9862 27.9861 31.9876 27.9674C31.9926 27.9075 31.9952 27.8452 31.9989 27.7838C32.0009 27.7505 32.0036 27.7172 32.0052 27.6839C32.0052 27.6756 32.0052 27.6676 32.0052 27.6593C32.0097 27.5555 32.0121 27.4501 32.0125 27.3431V27.3244L32.0315 20.615C32.0348 20.5122 32.0351 20.4115 32.0322 20.3128Z" fill="url(#paint2_linear_41_306)"/>
<defs>
<linearGradient id="paint0_linear_41_306" x1="13.4102" y1="20.7575" x2="23.7476" y2="20.7575" gradientUnits="userSpaceOnUse">
<stop stop-color="#FFAA55"/>
<stop offset="1" stop-color="#E661C9"/>
</linearGradient>
<linearGradient id="paint1_linear_41_306" x1="8.00003" y1="21.5143" x2="26.9932" y2="21.5143" gradientUnits="userSpaceOnUse">
<stop stop-color="#00D2C9"/>
<stop offset="1" stop-color="#E661C9"/>
</linearGradient>
<linearGradient id="paint2_linear_41_306" x1="240.955" y1="1215.09" x2="1474.05" y2="1215.09" gradientUnits="userSpaceOnUse">
<stop stop-color="#FFAA55"/>
<stop offset="1" stop-color="#E661C9"/>
</linearGradient>
</defs>
</svg>
