<svg width="40" height="40" viewBox="0 0 40 40" fill="none" xmlns="http://www.w3.org/2000/svg">
<circle cx="20" cy="20" r="20" fill="#03122E" fill-opacity="0.99"/>
<path d="M19.2905 18.8831L18.9468 19.2004V21.9503L23.8649 27.6881L25.7952 25.4406L19.74 18.4336L19.2905 18.8831Z" fill="#FFC211"/>
<path d="M18.9468 14.3895V16.3726L19.3698 16.875L19.7929 17.3509L26.5355 10.6876L22.913 10.291L18.9468 14.3895Z" fill="#FFC211"/>
<path d="M15.3242 12.1412L16.567 13.5955L17.5717 14.7589L17.9155 14.4151L18.2063 14.0978V10.2109L15.3242 10.5282V12.1412Z" fill="#FFC211"/>
<path d="M21.9876 10.1851L20.1631 10L18.9468 10.1322V13.3316L21.9876 10.1851Z" fill="#FFC211"/>
<path d="M26.271 24.8857L32.2997 17.8787L29.7613 14.3355L27.2493 11.0039L20.2688 17.9052L26.271 24.8857Z" fill="#FFC211"/>
<path d="M15.5093 17.96L17.1222 19.8108L17.2015 19.9167L18.2063 18.9119V16.6643L17.5453 15.8711L15.5093 17.96Z" fill="#FFC211"/>
<path d="M18.2064 21.1068V19.9434L17.6775 20.4721L18.2064 21.1068Z" fill="#FFC211"/>
<path d="M18.0481 15.3413L18.1275 15.4207L18.2067 15.5264V15.1562L18.1275 15.2356L18.0481 15.3413Z" fill="#FFC211"/>
<path d="M16.6727 20.4439L15.3242 18.8574V21.7661L15.853 21.2372L16.6727 20.4439Z" fill="#FFC211"/>
<path d="M18.9468 23.0898V30.5992L20.1631 32.0006L23.389 28.2459L18.9468 23.0898Z" fill="#FFC211"/>
<path d="M17.0429 15.3153L16.2497 14.3898L15.3242 13.2793V17.1133L16.2232 16.1614L17.0429 15.3153Z" fill="#FFC211"/>
<path d="M18.2063 22.2427L17.1487 21L16.091 22.0312L15.3242 22.798V26.3676L18.2063 29.7521V22.2427Z" fill="#FFC211"/>
<path d="M14.5839 17.8808V12.4338V11.2969V10.6094L13.2619 10.7416L10.5648 14.3376L8 17.8808L14.5839 25.5224V23.5393V22.5081V18.013V17.8808Z" fill="#FFC211"/>
<path d="M19.264 17.878L19.1583 17.7458L18.9468 17.5078V18.1689L19.0525 18.0631L19.264 17.878Z" fill="#FFC211"/>
</svg>
