<svg width="60" height="60" viewBox="0 0 60 60" fill="none" xmlns="http://www.w3.org/2000/svg">
<path d="M30 60C46.5685 60 60 46.5685 60 30C60 13.4315 46.5685 0 30 0C13.4315 0 0 13.4315 0 30C0 46.5685 13.4315 60 30 60Z" fill="black"/>
<path d="M34.2955 41.7998V43.4996H46V35.8334H44.2945V41.7998H34.2955ZM34.2955 16.5V18.1998H44.2945V24.1666H46V16.5H34.2955ZM27.4268 24.1666H25.7214V35.833H33.4129V34.2998H27.4268V24.1666ZM14 35.8334V43.5H25.7044V41.7998H15.7054V35.8334H14ZM14 16.5V24.1666H15.7054V18.1998H25.7044V16.5H14Z" fill="white"/>
</svg>
