<svg width="41" height="41" viewBox="0 0 41 41" fill="none" xmlns="http://www.w3.org/2000/svg">
<circle cx="20.9805" cy="20.2637" r="20" fill="white"/>
<path d="M33.2802 29.8224L25.51 16.3652C25.4943 16.3365 25.4712 16.3126 25.4431 16.296C25.415 16.2793 25.383 16.2705 25.3503 16.2705C25.3176 16.2705 25.2855 16.2793 25.2574 16.296C25.2293 16.3126 25.2062 16.3365 25.1905 16.3652L17.4267 29.8224C17.4075 29.8553 17.3993 29.8935 17.4033 29.9314C17.4073 29.9693 17.4234 30.005 17.449 30.0331C17.4747 30.0613 17.5087 30.0805 17.5461 30.088C17.5834 30.0955 17.6222 30.0909 17.6568 30.0748L25.28 26.7297C25.3029 26.7186 25.328 26.7129 25.3535 26.7129C25.3789 26.7129 25.404 26.7186 25.427 26.7297L33.0502 30.0748C33.0847 30.0909 33.1235 30.0955 33.1609 30.088C33.1982 30.0805 33.2322 30.0613 33.2579 30.0331C33.2836 30.005 33.2996 29.9693 33.3036 29.9314C33.3076 29.8935 33.2994 29.8553 33.2802 29.8224V29.8224Z" fill="#1571FA"/>
<path d="M25.0792 10.707L17.309 24.1643C17.2933 24.1929 17.2702 24.2168 17.2421 24.2335C17.214 24.2502 17.1819 24.2589 17.1493 24.2589C17.1166 24.2589 17.0845 24.2502 17.0564 24.2335C17.0283 24.2168 17.0052 24.1929 16.9895 24.1643L9.22893 10.707C9.20918 10.6744 9.2004 10.6362 9.20387 10.5982C9.20734 10.5602 9.22287 10.5243 9.24822 10.4957C9.27357 10.4671 9.30738 10.4474 9.34473 10.4395C9.38207 10.4315 9.42099 10.4357 9.45578 10.4514L17.0822 13.7998C17.1045 13.8108 17.1291 13.8165 17.1541 13.8165C17.179 13.8165 17.2036 13.8108 17.226 13.7998L24.8492 10.4514C24.884 10.4368 24.9225 10.4334 24.9594 10.4417C24.9963 10.45 25.0296 10.4695 25.0549 10.4976C25.0802 10.5257 25.0961 10.5609 25.1005 10.5984C25.1048 10.636 25.0974 10.6739 25.0792 10.707V10.707Z" fill="#93C5FE"/>
</svg>
