<svg width="40" height="40" viewBox="0 0 40 40" fill="none" xmlns="http://www.w3.org/2000/svg">
<circle cx="20" cy="20" r="20" fill="#295EFD"/>
<path d="M33.1218 21.4348C33.1218 23.0346 31.8278 24.3285 30.228 24.3285C28.6282 24.3285 27.3342 23.0346 27.3342 21.4348C27.3342 19.8349 28.6282 18.541 30.228 18.541C31.8278 18.541 33.1218 19.8349 33.1218 21.4348Z" fill="white"/>
<path d="M22.6522 21.8796C25.9224 21.0209 27.828 17.8095 27.828 15.151C27.828 12.4101 25.7459 7.15199 17.8645 8.11658C17.8645 8.11658 7.84224 9.18704 7.04234 19.4211C6.34831 28.2553 14.3473 32.2665 19.1938 31.0903V26.8437C19.1938 26.8437 19.2997 25.2086 18.8762 23.597C20.4525 26.232 23.405 30.1257 27.1222 30.1257C32.1099 30.1257 32.4275 24.7969 32.4275 24.7969C32.4275 24.7969 27.7457 28.9729 22.6522 21.8796ZM15.7942 18.5271V25.5262C11.6065 24.7498 11.1948 19.0212 12.9122 16.0685C15.8178 11.0574 23.2286 11.2927 23.2286 15.5862C23.2168 19.8798 15.7942 18.5271 15.7942 18.5271Z" fill="white"/>
</svg>
