<svg width="40" height="40" viewBox="0 0 40 40" fill="none" xmlns="http://www.w3.org/2000/svg">
<circle cx="20" cy="20" r="20" fill="white"/>
<path d="M17.4716 21.9447C17.4716 23.3692 16.9104 23.8008 15.0756 23.8008C12.8436 23.8008 12.3428 23.2742 12.3428 20.9044C12.3428 19.6828 12.4723 19.0871 12.8349 18.677C13.2278 18.2453 13.8495 18.0684 14.972 18.0684C16.4269 18.0684 17.0485 18.3921 17.3335 19.277C17.45 19.6742 17.4759 19.9461 17.4759 21.1807H13.707V21.3965C13.707 22.5318 13.9444 22.7951 14.972 22.7951C15.952 22.7951 16.129 22.6656 16.1419 21.9447H17.4716ZM16.1462 20.1231C16.1203 19.2382 15.9433 19.0741 14.9417 19.0741C14.2121 19.0741 13.9531 19.1691 13.8106 19.5187C13.7372 19.7001 13.7243 19.8554 13.7156 20.3475H16.1462V20.1231Z" fill="black"/>
<path d="M23.058 21.5935V21.7834C23.058 22.405 22.9717 22.8065 22.7817 23.1C22.4493 23.6266 21.9226 23.795 20.6576 23.795C19.5697 23.795 19.0128 23.6655 18.607 23.3158C18.1407 22.9101 17.968 22.2928 17.968 20.9244C17.968 19.7633 18.0759 19.2021 18.3997 18.7704C18.7581 18.2783 19.4143 18.0625 20.5022 18.0625C22.4363 18.0625 22.9717 18.5071 22.9717 20.1086H21.6679C21.6679 19.3057 21.465 19.1287 20.5799 19.1287C19.492 19.1287 19.3495 19.3316 19.3495 20.959C19.3495 21.8698 19.4316 22.323 19.6474 22.5389C19.7899 22.6813 20.0878 22.7417 20.6145 22.7417C21.5815 22.7417 21.724 22.5863 21.724 21.5892L23.058 21.5935Z" fill="black"/>
<path d="M11.479 23.1397C11.7942 22.816 11.9237 22.3153 11.9237 21.4087C11.9237 20.4634 11.7769 20.0404 11.3322 19.7468C10.9912 19.4922 10.594 19.4145 9.3204 19.3324L9.06568 19.3195C8.14612 19.2677 8.07273 19.2634 7.8914 19.2072C7.5158 19.0864 7.36902 18.8231 7.36902 18.2662C7.36902 17.8691 7.42514 17.5669 7.69281 17.3986C7.92162 17.2561 8.28427 17.2 9.03546 17.2C10.2098 17.2 10.4645 17.3813 10.4645 18.2231V18.318H11.751V18.0936C11.751 17.4461 11.6258 17.0144 11.3408 16.6993C11.0516 16.3755 10.5206 16 8.99661 16C7.66259 16 7.07113 16.2374 6.60055 16.5957C6.20768 16.8806 6.02636 17.4202 6.02636 18.2921C6.02636 19.3065 6.25949 19.8332 6.82505 20.1224C7.20928 20.3037 7.47695 20.3425 8.72894 20.4202C9.97661 20.4936 9.97661 20.4936 10.1623 20.5627C10.4817 20.6663 10.6113 20.9123 10.6113 21.4347C10.6113 21.9785 10.5292 22.2634 10.3263 22.4102C10.1061 22.5829 9.87732 22.6217 9.01387 22.6217C7.86981 22.6217 7.65396 22.5958 7.45536 22.2634C7.33016 22.0692 7.29562 21.875 7.29131 21.344H6.00046C5.99614 21.7109 6.02204 22.0778 6.09112 22.4361C6.12134 22.6174 6.19042 22.7857 6.2854 22.9412C6.38469 23.0966 6.50989 23.226 6.65668 23.3297C7.16179 23.6318 7.62373 23.8477 8.92753 23.8477C10.4515 23.8433 11.0343 23.5757 11.479 23.1397Z" fill="black"/>
<path d="M28.5105 18.2582H27.3966H27.1721H27.1678V20.8007V21.5259C27.1678 22.5015 26.9261 22.7518 25.8942 22.7518C25.0308 22.7518 24.8754 22.441 24.8754 21.6382V18.2539H23.5198V21.4914C23.5198 23.2483 24.1371 23.8094 26.0195 23.8094C26.2785 23.818 26.5375 23.8008 26.7922 23.7576C27.2498 23.6411 27.3837 23.4641 27.3837 23.4641L28.5191 21.8928V20.382C28.5105 20.3475 28.5105 18.2582 28.5105 18.2582Z" fill="black"/>
<path d="M30.0733 19.5613L30.1467 19.6649L30.2244 19.5613L30.9022 18.6763L30.9411 18.6245L30.9065 18.5684L30.2892 17.6533V17.649L30.1726 17.4893L29.3264 16.2072L29.3005 16.1641H29.2487H27.7593H27.5693L27.6816 16.3151L30.0733 19.5613Z" fill="black"/>
<path d="M34.8267 16.1133H34.4164C33.6998 16.1133 33.104 16.2644 32.5298 16.9896L27.6686 23.6242L27.5564 23.7753H27.7421H29.1754H29.2229L29.2531 23.7365L30.5396 21.9537L31.1785 21.0774L32.4435 22.8127C32.9529 23.5249 33.5271 23.8142 34.4164 23.8142H34.8267H34.9215V23.7192V22.5364V22.4415H34.8267C34.1661 22.4415 33.8898 22.394 33.6653 22.1177L32.042 19.8903L33.2724 18.2155L33.4062 18.0256C33.7559 17.5809 33.9804 17.4946 34.8222 17.4903H34.9173V17.3953V16.2082V16.1133H34.8267Z" fill="black"/>
</svg>
