<svg width="40" height="40" viewBox="0 0 40 40" fill="none" xmlns="http://www.w3.org/2000/svg">
<path d="M20 40C31.0457 40 40 31.0457 40 20C40 8.9543 31.0457 0 20 0C8.9543 0 0 8.9543 0 20C0 31.0457 8.9543 40 20 40Z" fill="#6286FF"/>
<mask id="mask0_3066_76429" style="mask-type:alpha" maskUnits="userSpaceOnUse" x="0" y="0" width="40" height="40">
<path d="M20 40C31.0457 40 40 31.0457 40 20C40 8.9543 31.0457 0 20 0C8.9543 0 0 8.9543 0 20C0 31.0457 8.9543 40 20 40Z" fill="#6286FF"/>
</mask>
<g mask="url(#mask0_3066_76429)">
<path d="M30.8094 13.1275C30.8298 13.3203 30.8026 13.5152 30.7302 13.6948C30.6577 13.8744 30.5423 14.0331 30.3942 14.1566C30.2462 14.2802 30.0701 14.3648 29.8817 14.403C29.6933 14.4411 29.4985 14.4315 29.3146 14.375L22.3632 12.2329C22.2115 12.1862 22.0518 12.1712 21.8941 12.189C21.7364 12.2068 21.584 12.257 21.4462 12.3365C21.3085 12.416 21.1883 12.5231 21.0931 12.6512C20.9979 12.7793 20.9297 12.9258 20.8926 13.0815L19.1474 20.4691C19.1067 20.6405 19.0282 20.8003 18.9178 20.9369C18.8075 21.0734 18.6681 21.1831 18.51 21.2579C18.3519 21.3326 18.1791 21.3705 18.0045 21.3686C17.8299 21.3668 17.658 21.3253 17.5015 21.2473L0 12.5137V27.0471L24.0727 33.9554C24.2452 34.0048 24.4267 34.0133 24.603 33.9802C24.7793 33.9471 24.9456 33.8733 25.089 33.7646C25.2323 33.6558 25.3488 33.5151 25.4293 33.3534C25.5099 33.1917 25.5522 33.0134 25.5531 32.8324L25.6131 18.4489C25.6141 18.2602 25.6601 18.0745 25.7474 17.9076C25.8347 17.7406 25.9606 17.5974 26.1144 17.49C26.2682 17.3827 26.4454 17.3143 26.6309 17.2908C26.8165 17.2672 27.0049 17.2892 27.1803 17.3548L32.433 19.3263C32.6257 19.3984 32.834 19.4177 33.0365 19.3821C33.2391 19.3465 33.4286 19.2574 33.5859 19.1238C33.7432 18.9902 33.8626 18.817 33.9319 18.6216C34.0012 18.4263 34.018 18.216 33.9805 18.012L31.0151 2H29.6143L30.8094 13.1275Z" fill="white"/>
</g>
</svg>
