<svg width="42" height="42" viewBox="0 0 42 42" fill="none" xmlns="http://www.w3.org/2000/svg">
<path d="M42 21C42 9.40202 32.598 0 21 0C9.40202 0 0 9.40202 0 21C0 32.598 9.40202 42 21 42C32.598 42 42 32.598 42 21Z" fill="url(#paint0_linear_31_25)"/>
<path d="M10.6086 11.8125C9.97876 11.8125 9.73612 12.5913 10.2646 12.9166L23.485 20.8881C23.8146 21.0909 24.2541 21.0108 24.481 20.7064L30.2937 13.0754C30.6889 12.5452 30.2896 11.8125 29.6055 11.8125H10.6086Z" fill="white"/>
<path d="M31.3871 30.1875C32.0168 30.1875 32.2658 29.4045 31.7374 29.0793L18.5131 21.1088C18.1836 20.906 17.7547 20.9963 17.5279 21.3006L11.7039 28.9301C11.3088 29.4601 11.7206 30.1875 12.4045 30.1875H31.3871Z" fill="white"/>
<defs>
<linearGradient id="paint0_linear_31_25" x1="0" y1="0" x2="49.6277" y2="28.9035" gradientUnits="userSpaceOnUse">
<stop stop-color="#2962EF"/>
<stop offset="1" stop-color="#255CE5"/>
</linearGradient>
</defs>
</svg>
