<?xml version="1.0" encoding="UTF-8"?>
<svg version="1.1" xmlns="http://www.w3.org/2000/svg" width="68" height="68">
<path d="M0 0 C7.48874873 4.44601038 12.81690928 10.75881313 15.75 19.078125 C17.49212583 29.72232237 16.84899776 40.12067238 10.78515625 49.234375 C5.95667449 55.40849921 -0.38190239 59.19037832 -7.89453125 61.25 C-18.94807153 62.24435613 -28.53520664 61.58049298 -37.64453125 54.625 C-43.66761646 49.03009621 -47.58286944 41.8789442 -48.1328125 33.7109375 C-48.42719071 22.87861486 -47.31064959 14.03960651 -39.59765625 5.78125 C-29.0100223 -3.73790713 -12.93902605 -6.24194221 0 0 Z " fill="#60A804" transform="translate(49.89453125,4.75)"/>
<path d="M0 0 C4.55555556 0.55555556 4.55555556 0.55555556 6 2 C6.07325168 4.86267567 6.09238205 7.700719 6.0625 10.5625 C6.05798828 11.36880859 6.05347656 12.17511719 6.04882812 13.00585938 C6.03700518 15.00393756 6.01906914 17.00197783 6 19 C7.20398438 18.97679688 8.40796875 18.95359375 9.6484375 18.9296875 C11.22395215 18.91093137 12.79947348 18.89273101 14.375 18.875 C15.1690625 18.85824219 15.963125 18.84148438 16.78125 18.82421875 C18.85492015 18.80664527 20.92883241 18.89664832 23 19 C23.66 19.66 24.32 20.32 25 21 C24.505 23.475 24.505 23.475 24 26 C18.06 26 12.12 26 6 26 C6.03957769 31.87883003 6.03957769 31.87883003 6.09008789 37.75756836 C6.09258545 38.48596924 6.09508301 39.21437012 6.09765625 39.96484375 C6.10551147 41.08814087 6.10551147 41.08814087 6.11352539 42.23413086 C6 44 6 44 5 45 C2.5 45.125 2.5 45.125 0 45 C-1 44 -1 44 -1.11352539 42.23413086 C-1.10828857 41.48526611 -1.10305176 40.73640137 -1.09765625 39.96484375 C-1.09443359 39.15595703 -1.09121094 38.34707031 -1.08789062 37.51367188 C-1.07951172 36.66353516 -1.07113281 35.81339844 -1.0625 34.9375 C-1.05798828 34.08349609 -1.05347656 33.22949219 -1.04882812 32.34960938 C-1.03700373 30.23304337 -1.01906769 28.11651315 -1 26 C-2.27617187 26.02320312 -3.55234375 26.04640625 -4.8671875 26.0703125 C-6.5364525 26.08906829 -8.2057238 26.10726869 -9.875 26.125 C-11.13763672 26.15013672 -11.13763672 26.15013672 -12.42578125 26.17578125 C-13.63427734 26.18544922 -13.63427734 26.18544922 -14.8671875 26.1953125 C-15.61081543 26.20578613 -16.35444336 26.21625977 -17.12060547 26.22705078 C-19 26 -19 26 -21 24 C-20.46428571 20.46428571 -20.46428571 20.46428571 -19 19 C-16.13732433 18.92674832 -13.299281 18.90761795 -10.4375 18.9375 C-9.63119141 18.94201172 -8.82488281 18.94652344 -7.99414062 18.95117188 C-5.99606244 18.96299482 -3.99802217 18.98093086 -2 19 C-2.02320312 17.79601562 -2.04640625 16.59203125 -2.0703125 15.3515625 C-2.08906863 13.77604785 -2.10726899 12.20052652 -2.125 10.625 C-2.14175781 9.8309375 -2.15851562 9.036875 -2.17578125 8.21875 C-2.19335473 6.14507985 -2.10335168 4.07116759 -2 2 C-1.34 1.34 -0.68 0.68 0 0 Z " fill="#F8FAF6" transform="translate(32,11)"/>
</svg>
