<svg width="78" height="78" viewBox="0 0 78 78" fill="none" xmlns="http://www.w3.org/2000/svg">
<path d="M39 78C60.5391 78 78 60.5391 78 39C78 17.4609 60.5391 0 39 0C17.4609 0 0 17.4609 0 39C0 60.5391 17.4609 78 39 78Z" fill="#F0F0F0"/>
<path d="M8.06202 15.2562C4.99854 19.242 2.68855 23.8359 1.34351 28.8266H21.6323L8.06202 15.2562ZM76.6565 28.8266C75.3114 23.8361 73.0013 19.2422 69.938 15.2564L56.3679 28.8266H76.6565ZM1.34351 49.1744C2.6887 54.1648 4.99869 58.7588 8.06202 62.7444L21.6319 49.1744H1.34351ZM62.744 8.06241C58.7582 4.99893 54.1644 2.68895 49.1738 1.34375V21.6324L62.744 8.06241ZM15.256 69.938C19.2418 73.0015 23.8357 75.3115 28.8262 76.6567V56.3682L15.256 69.938ZM28.826 1.34375C23.8355 2.68895 19.2416 4.99893 15.256 8.06226L28.826 21.6323V1.34375ZM49.174 76.6567C54.1644 75.3115 58.7584 73.0015 62.744 69.9382L49.174 56.3682V76.6567ZM56.3679 49.1744L69.938 62.7445C73.0013 58.7589 75.3114 54.1648 76.6565 49.1744H56.3679Z" fill="#0052B4"/>
<path d="M77.6699 33.9131H44.0871V0.330129C42.4003 0.110359 40.701 8.47346e-05 39 0C37.2756 0 35.5782 0.113344 33.9131 0.330129V33.9129H0.330129C0.110359 35.5997 8.47346e-05 37.299 0 39C0 40.7244 0.113344 42.4218 0.330129 44.0869H33.9129V77.6699C37.29 78.11 40.7099 78.11 44.0869 77.6699V44.0871H77.6699C77.8897 42.4003 77.9999 40.701 78 39C78 37.2759 77.8867 35.5782 77.6699 33.9131Z" fill="#D80027"/>
<path d="M49.1739 49.1744L66.5771 66.5775C67.3771 65.7765 68.142 64.9412 68.8695 64.0738L53.97 49.1743H49.1739V49.1744ZM28.826 49.1744H28.8257L11.4227 66.5774C12.2237 67.3774 13.0591 68.1423 13.9265 68.8699L28.826 53.97V49.1744ZM28.826 28.8266V28.8263L11.4228 11.423C10.6228 12.224 9.85792 13.0594 9.13037 13.9268L24.03 28.8265H28.826V28.8266ZM49.1739 28.8266L66.5772 11.4232C65.7762 10.6231 64.9409 9.85831 64.0734 9.13086L49.1739 24.0305V28.8266Z" fill="#D80027"/>
</svg>
