<svg width="78" height="78" viewBox="0 0 78 78" fill="none" xmlns="http://www.w3.org/2000/svg">
<path d="M0 38.9994C0 43.7699 0.858152 48.3396 2.42577 52.5646L39 55.9559L75.5742 52.5646C77.1418 48.3396 78 43.7699 78 38.9994C78 34.2289 77.1418 29.6592 75.5742 25.4343L39 22.043L2.42577 25.4343C0.858152 29.6592 0 34.2289 0 38.9994Z" fill="#FFDA44"/>
<path d="M75.5742 25.4349C70.0638 10.5838 55.7686 0 39 0C22.2314 0 7.93621 10.5838 2.42578 25.4349H75.5742ZM2.42578 52.5651C7.93621 67.4162 22.2314 78 39 78C55.7686 78 70.0638 67.4162 75.5742 52.5651H2.42578Z" fill="#D80027"/>
</svg>
