<svg width="78" height="78" viewBox="0 0 78 78" fill="none" xmlns="http://www.w3.org/2000/svg">
<path d="M39 78C60.5391 78 78 60.5391 78 39C78 17.4609 60.5391 0 39 0C17.4609 0 0 17.4609 0 39C0 60.5391 17.4609 78 39 78Z" fill="#27273D"/>
<path d="M31.2305 0.773438V77.2241C13.4139 73.6227 0 57.8764 0 38.9995C0 20.1226 13.4139 4.37484 31.2305 0.773438Z" fill="#02934D"/>
<path d="M78 38.9995C78 60.3155 60.9025 77.6354 39.6718 77.9995H38.3282C35.9441 77.9615 33.5683 77.7066 31.2305 77.2378V0.773438C33.5388 0.309679 35.8842 0.0547435 38.2383 0.0117188H39.7617C60.9466 0.407812 78 17.7125 78 38.9995Z" fill="#DB1B1B"/>
<path d="M31.2305 13.4766C27.9615 13.4766 24.766 14.4458 22.0479 16.2618C19.3298 18.0778 17.2112 20.659 15.96 23.679C14.7087 26.6989 14.381 30.0221 15.0183 33.2283C15.6556 36.4345 17.2293 39.3798 19.5403 41.6917C21.8514 44.0036 24.7961 45.5783 28.002 46.2168C31.208 46.8553 34.5313 46.5288 37.5517 45.2787C40.5722 44.0286 43.1541 41.9109 44.9711 39.1935C46.7881 36.476 47.7586 33.2809 47.7598 30.012C47.7561 25.6287 46.0137 21.4259 42.9148 18.3258C39.8159 15.2258 35.6138 13.4818 31.2305 13.4766ZM45.4289 28.8633H33.9894L34.2179 28.6348L38.3769 24.4743L42.0728 20.7784C44.0169 23.0515 45.1917 25.8816 45.4289 28.8633ZM32.3731 15.8074C35.2156 16.0344 37.9234 17.1138 40.1426 18.9046L40.4473 19.1605L32.3731 27.2454V15.8074ZM30.0879 15.8074V27.2454L29.6766 26.8356L25.1063 22.2577L22.0106 19.1605L22.3153 18.9046C24.5353 17.1133 27.2443 16.0338 30.0879 15.8074ZM20.3882 20.7784L24.0856 24.4743L28.2445 28.6409L28.4731 28.8694H17.032C17.2687 25.8858 18.4435 23.0536 20.3882 20.7784ZM17.0366 31.1484H28.4776L26.8932 32.7313L24.7102 34.9128L22.425 37.198L20.3943 39.2303C18.4502 36.9578 17.2735 34.1293 17.032 31.1484H17.0366ZM30.0925 44.2028C27.1122 43.9653 24.2831 42.7923 22.0091 40.8512L23.7458 39.113L25.9929 36.8674L30.0879 32.7694L30.0925 44.2028ZM32.3776 44.2028V32.7618L40.4625 40.8482C38.1873 42.7915 35.3558 43.9657 32.3731 44.2028H32.3776ZM42.0774 39.2318L37.7615 34.9144L35.5814 32.7389L33.9894 31.1484H45.4289C45.1901 34.1293 44.0155 36.9584 42.0728 39.2318H42.0774Z" fill="#F6C752"/>
<path d="M22.5469 18.8906C22.2036 18.891 21.8744 19.0276 21.6317 19.2703C21.3889 19.5131 21.2524 19.8422 21.252 20.1855V33.5827H21.3083C21.5697 36.032 22.7276 38.2982 24.5593 39.9452C26.3911 41.5922 28.7672 42.5035 31.2305 42.5039C33.6938 42.5039 36.0701 41.5926 37.902 39.9456C39.7338 38.2986 40.8916 36.0322 41.1526 33.5827H41.209V20.1779C41.207 19.8358 41.0697 19.5084 40.827 19.2672C40.5844 19.026 40.2562 18.8906 39.9141 18.8906H22.5469Z" fill="#E83838"/>
<path d="M25.3347 22.242C25.0034 22.242 24.6856 22.3736 24.4513 22.6079C24.2171 22.8422 24.0854 23.1599 24.0854 23.4912V32.7537H24.1251C24.3099 34.5095 25.1381 36.1348 26.45 37.3163C27.762 38.4977 29.4648 39.1517 31.2304 39.1521C32.9961 39.1517 34.6991 38.4978 36.0113 37.3164C37.3235 36.135 38.1521 34.5097 38.3372 32.7537H38.3768V23.4836C38.3768 23.1523 38.2452 22.8345 38.0109 22.6003C37.7767 22.366 37.4589 22.2344 37.1276 22.2344L25.3347 22.242Z" fill="white"/>
<path d="M29.7969 23.6816C29.7161 23.6816 29.6386 23.7137 29.5814 23.7709C29.5243 23.828 29.4922 23.9055 29.4922 23.9863V26.241H29.5029C29.5483 26.6675 29.7499 27.0622 30.0688 27.349C30.3878 27.6359 30.8015 27.7947 31.2304 27.7949C31.6596 27.7951 32.0737 27.6364 32.393 27.3496C32.7122 27.0627 32.914 26.6678 32.9595 26.241H32.9687V23.9863C32.9687 23.9055 32.9366 23.828 32.8794 23.7709C32.8223 23.7137 32.7448 23.6816 32.664 23.6816H29.7969ZM29.7969 33.8765C29.7161 33.8765 29.6386 33.9086 29.5814 33.9657C29.5243 34.0229 29.4922 34.1004 29.4922 34.1812V36.4374H29.5029C29.5487 36.8636 29.7504 37.2579 30.0693 37.5445C30.3882 37.831 30.8017 37.9896 31.2304 37.9898C31.6596 37.9899 32.0737 37.8313 32.393 37.5444C32.7122 37.2575 32.914 36.8626 32.9595 36.4359H32.9687V34.1796C32.9687 34.0988 32.9366 34.0213 32.8794 33.9642C32.8223 33.9071 32.7448 33.875 32.664 33.875L29.7969 33.8765ZM29.7969 28.6404C29.7161 28.6404 29.6386 28.6725 29.5814 28.7297C29.5243 28.7868 29.4922 28.8643 29.4922 28.9451V31.1998H29.5029C29.5483 31.6263 29.7499 32.021 30.0688 32.3078C30.3878 32.5947 30.8015 32.7535 31.2304 32.7537C31.6596 32.7539 32.0737 32.5952 32.393 32.3083C32.7122 32.0215 32.914 31.6266 32.9595 31.1998H32.9687V28.9451C32.9687 28.8643 32.9366 28.7868 32.8794 28.7297C32.8223 28.6725 32.7448 28.6404 32.664 28.6404H29.7969ZM25.6836 28.6404C25.6028 28.6404 25.5253 28.6725 25.4681 28.7297C25.411 28.7868 25.3789 28.8643 25.3789 28.9451V31.1998H25.3896C25.4351 31.6263 25.6367 32.021 25.9556 32.3078C26.2745 32.5947 26.6882 32.7535 27.1171 32.7537C27.5464 32.7539 27.9605 32.5952 28.2797 32.3083C28.5989 32.0215 28.8007 31.6266 28.8463 31.1998H28.8554V28.9451C28.8554 28.8643 28.8233 28.7868 28.7662 28.7297C28.709 28.6725 28.6315 28.6404 28.5507 28.6404H25.6836ZM33.9863 28.6404C33.9055 28.6404 33.828 28.6725 33.7709 28.7297C33.7137 28.7868 33.6816 28.8643 33.6816 28.9451V31.1998H33.6923C33.7378 31.6263 33.9394 32.021 34.2583 32.3078C34.5772 32.5947 34.9909 32.7535 35.4199 32.7537C35.8491 32.7539 36.2632 32.5952 36.5824 32.3083C36.9017 32.0215 37.1035 31.6266 37.149 31.1998H37.1581V28.9451C37.1581 28.8643 37.126 28.7868 37.0689 28.7297C37.0117 28.6725 36.9342 28.6404 36.8534 28.6404H33.9863Z" fill="#3E436D"/>
<path d="M31.2305 0.773438V4.14633C24.7728 7.39542 19.3448 12.3748 15.552 18.5289C11.7592 24.683 9.75079 31.7698 9.75079 38.9988C9.75079 46.2277 11.7592 53.3146 15.552 59.4687C19.3448 65.6228 24.7728 70.6021 31.2305 73.8512V77.2241C13.4139 73.6227 0 57.8764 0 38.9995C0 20.1226 13.4139 4.37484 31.2305 0.773438Z" fill="#02934D"/>
<path d="M40.9805 0.773438C37.5944 1.45734 34.3153 2.59172 31.2305 4.14633V0.773438C33.5388 0.309679 35.8842 0.0547435 38.2383 0.0117188H39.7617C41.1369 0.0382799 42.5099 0.13591 43.875 0.304219C42.9 0.421523 41.9341 0.581484 40.9805 0.773438ZM40.9805 77.2241C41.9311 77.4161 42.897 77.5745 43.875 77.6964C42.4804 77.8724 41.0773 77.9736 39.6718 77.9995H38.3282C35.9441 77.9615 33.5683 77.7066 31.2305 77.2378V73.8512C34.3153 75.4058 37.5944 76.5402 40.9805 77.2241Z" fill="#C41C1C"/>
</svg>
