<svg width="78" height="78" viewBox="0 0 78 78" fill="none" xmlns="http://www.w3.org/2000/svg">
<path d="M39 78C60.5391 78 78 60.5391 78 39C78 17.4609 60.5391 0 39 0C17.4609 0 0 17.4609 0 39C0 60.5391 17.4609 78 39 78Z" fill="#F0F0F0"/>
<path d="M75.5742 52.5658C77.142 48.3409 78 43.7712 78 39.0007C78 34.2302 77.142 29.6605 75.5742 25.4355H2.42577C0.858152 29.6605 0 34.2302 0 39.0007C0 43.7712 0.858152 48.3409 2.42577 52.5658L39 55.9572L75.5742 52.5658Z" fill="#0052B4"/>
<path d="M39 77.9993C55.7686 77.9993 70.0638 67.4157 75.5742 52.5645H2.42578C7.93621 67.4157 22.2314 77.9993 39 77.9993Z" fill="#D80027"/>
</svg>
