<svg width="78" height="78" viewBox="0 0 78 78" fill="none" xmlns="http://www.w3.org/2000/svg">
<path d="M39 78C60.5391 78 78 60.5391 78 39C78 17.4609 60.5391 0 39 0C17.4609 0 0 17.4609 0 39C0 60.5391 17.4609 78 39 78Z" fill="#E53030"/>
<path d="M55.4411 40.8392L59.0998 36.1348L53.4667 37.7241L50.1663 32.5176L49.9055 38.7259L44.4089 40.2761L49.7519 42.3895L49.4936 48.4856L53.1815 43.7447L58.6537 45.9068L55.4411 40.8392Z" fill="white"/>
<path d="M37.601 52.3457C35.9151 52.3087 34.253 51.9399 32.7097 51.2604C31.1664 50.5809 29.7721 49.604 28.6064 48.3856C27.4406 47.1671 26.5264 45.731 25.9158 44.1591C25.3052 42.5873 25.0103 40.9105 25.0478 39.2247C24.9746 35.8209 26.2556 32.5272 28.6094 30.0674C30.9632 27.6076 34.1972 26.1828 37.601 26.106C39.7062 25.9719 41.8042 26.4617 43.6325 27.5139C45.4608 28.5661 46.9382 30.1342 47.8799 32.0219C46.8878 29.2538 45.0376 26.8749 42.5989 25.232C40.1602 23.5891 37.2605 22.7681 34.3225 22.8885C30.1415 22.9819 26.1686 24.7314 23.2768 27.7525C20.385 30.7737 18.8109 34.8193 18.9005 39.0004C18.8096 43.1817 20.3833 47.2278 23.2754 50.2488C26.1676 53.2699 30.1413 55.0184 34.3225 55.1099C36.785 55.3159 39.253 54.7823 41.4103 53.5772C43.5677 52.3722 45.3162 50.5506 46.432 48.3458C45.4714 49.7614 44.1384 50.8841 42.58 51.5899C41.0217 52.2958 39.2986 52.5573 37.601 52.3457Z" fill="white"/>
</svg>
