<svg width="24" height="24" viewBox="0 0 24 24" fill="none" xmlns="http://www.w3.org/2000/svg">
<path d="M24 12C24 8.8174 22.7357 5.76516 20.4853 3.51472C18.2348 1.26428 15.1826 2.40279e-07 12 0C8.8174 -2.40279e-07 5.76516 1.26428 3.51472 3.51472C1.26428 5.76515 4.80559e-07 8.8174 0 12L12 12H24Z" fill="#4789EC"/>
<path d="M24 12C24 8.8174 22.7357 5.76516 20.4853 3.51472C18.2348 1.26428 15.1826 2.40279e-07 12 0C8.8174 -2.40279e-07 5.76516 1.26428 3.51472 3.51472C1.26428 5.76515 4.80559e-07 8.8174 0 12L12 12H24Z" fill="#4789EC"/>
<path d="M24 12C24 8.8174 22.7357 5.76516 20.4853 3.51472C18.2348 1.26428 15.1826 2.40279e-07 12 0C8.8174 -2.40279e-07 5.76516 1.26428 3.51472 3.51472C1.26428 5.76515 4.80559e-07 8.8174 0 12L12 12H24Z" fill="#4789EC"/>
<path d="M24 12C24 15.1826 22.7357 18.2348 20.4853 20.4853C18.2348 22.7357 15.1826 24 12 24C8.8174 24 5.76516 22.7357 3.51472 20.4853C1.26428 18.2348 4.80559e-07 15.1826 0 12L12 12H24Z" fill="#FADA61"/>
</svg>
