<svg width="24" height="24" viewBox="0 0 24 24" fill="none" xmlns="http://www.w3.org/2000/svg">
<g id="Icon=CLO, Type=Network">
<g clip-path="url(#clip0_153_5116)">
<g id="Group 48095716">
<circle id="Ellipse 175" cx="12" cy="12" r="12" fill="#F9F9F9"/>
<g id="Group 17640">
<path id="Vector" d="M7.35938 5.26736C7.37563 5.24807 7.37823 5.22414 7.38265 5.20069C7.43432 4.92643 7.57727 4.71389 7.822 4.57705C8.07458 4.43582 8.33575 4.43052 8.59789 4.55294C8.72379 4.61165 8.83929 4.68953 8.95873 4.75994C9.92527 5.32941 10.8916 5.89931 11.8578 6.46967C12.4275 6.80578 12.9972 7.14197 13.5668 7.47824C13.603 7.4997 13.6396 7.52043 13.67 7.55087C13.7728 7.65335 13.7992 7.77336 13.7567 7.91019C13.7458 7.94491 13.7282 7.9765 13.7102 8.0079C13.2922 8.73341 12.8742 9.45898 12.4563 10.1846C12.4187 10.2499 12.3759 10.3089 12.307 10.3458C12.1414 10.4347 11.9458 10.3833 11.8503 10.2217C11.7778 10.0989 11.709 9.97405 11.6388 9.85C11.5922 9.7679 11.5449 9.68623 11.4998 9.60328C11.4239 9.46356 11.409 9.31805 11.4663 9.16814C11.5034 9.07169 11.5666 8.99538 11.6495 8.93414C11.6931 8.90195 11.7365 8.86922 11.7772 8.83353C11.8964 8.72919 11.9614 8.59712 11.971 8.43919C11.9728 8.40709 11.9701 8.3749 11.963 8.34353C11.9194 8.15227 11.8327 7.99265 11.6327 7.9252C11.574 7.90543 11.5119 7.89585 11.4508 7.88343C11.0393 7.7994 10.6277 7.71565 10.216 7.63219C10.1193 7.6126 10.0232 7.59174 9.9264 7.5739C9.61724 7.51694 9.3979 7.70886 9.32899 7.91712C9.15269 8.45004 8.97075 8.98164 8.79789 9.51582C8.74428 9.68116 8.75256 9.84928 8.84715 10.0037C8.98091 10.222 9.27188 10.3013 9.49878 10.1822C9.50962 10.1769 9.51992 10.1706 9.52954 10.1633C9.62709 10.085 9.74254 10.0697 9.86022 10.0801C10.0502 10.0969 10.1914 10.1956 10.2857 10.3598C10.3916 10.5445 10.4935 10.7314 10.6013 10.9149C10.6976 11.079 10.6491 11.2664 10.5322 11.3774C10.4668 11.4395 10.3897 11.4735 10.2984 11.4733C10.1493 11.473 10.0003 11.473 9.85139 11.4733C9.1568 11.4733 8.46218 11.4733 7.76754 11.4733C7.71314 11.4733 7.65941 11.4699 7.60694 11.4521C7.49362 11.4134 7.42175 11.3354 7.38512 11.2235C7.37908 11.2049 7.3795 11.1835 7.35968 11.1718L7.35938 5.26736Z" fill="#00B37E"/>
<path id="Vector_2" d="M7.35938 12.8463C7.37346 12.8363 7.37817 12.8209 7.38216 12.8054C7.41613 12.6715 7.53991 12.55 7.73472 12.5476C7.74681 12.5476 7.7589 12.5476 7.77098 12.5476C8.59263 12.5476 9.41426 12.5476 10.2359 12.5476C10.2824 12.5476 10.3285 12.5495 10.3734 12.5621C10.5899 12.6231 10.6851 12.8716 10.6019 13.0556C10.5936 13.0737 10.5843 13.0918 10.5746 13.1092C10.4455 13.3429 10.3156 13.5763 10.1874 13.8104C10.1486 13.8812 10.0976 13.9383 10.0247 13.9744C9.91625 14.0282 9.80842 14.0297 9.70107 13.9714C9.59373 13.9131 9.4862 13.8532 9.37753 13.7966C9.292 13.752 9.20176 13.7427 9.1088 13.7725C9.03507 13.7956 8.97191 13.8439 8.9305 13.909C8.879 13.9881 8.82956 14.0685 8.77982 14.1487C8.7502 14.1965 8.74083 14.2497 8.74301 14.3047C8.74491 14.3568 8.75429 14.4085 8.77087 14.458C8.96969 15.0512 9.168 15.6446 9.3658 16.2382C9.41265 16.3784 9.57735 16.5442 9.81676 16.4957C10.1734 16.4234 10.53 16.3493 10.886 16.276C11.1302 16.2257 11.374 16.1735 11.6187 16.1262C11.7257 16.1056 11.8101 16.0544 11.8733 15.9684C11.9317 15.8891 11.9844 15.8057 12.0311 15.719C12.1284 15.5381 12.0417 15.3432 11.9009 15.2478C11.8627 15.2219 11.8223 15.1988 11.7831 15.1746C11.706 15.1274 11.6285 15.0807 11.5517 15.0329C11.4677 14.9807 11.4101 14.9085 11.389 14.8107C11.3695 14.7203 11.3869 14.6353 11.4313 14.5552C11.511 14.4111 11.5907 14.2671 11.6705 14.1231C11.7287 14.0177 11.786 13.9117 11.8454 13.8069C11.8978 13.7143 11.9765 13.6562 12.083 13.6392C12.2208 13.6172 12.3321 13.6629 12.4163 13.7735C12.4315 13.7947 12.4452 13.8168 12.4575 13.8398C12.8769 14.5759 13.2964 15.312 13.7159 16.0481C13.745 16.0993 13.7686 16.1522 13.7744 16.2109C13.7888 16.36 13.7286 16.4727 13.6014 16.5495C13.4947 16.6138 13.3865 16.6761 13.279 16.7386C11.7626 17.6261 10.2463 18.5133 8.73002 19.4002C8.64636 19.4492 8.55987 19.4906 8.46588 19.5156C8.45108 19.5196 8.43355 19.5204 8.42267 19.5346H8.08419C8.06274 19.5183 8.03584 19.5176 8.01166 19.5095C7.6692 19.3966 7.45421 19.169 7.3824 18.813C7.3782 18.7874 7.37045 18.7626 7.35938 18.7392V12.8463Z" fill="#02405C"/>
<path id="Vector_3" d="M14.0974 11.2929C13.9545 11.2929 13.8114 11.2947 13.6683 11.2924C13.5084 11.29 13.3778 11.188 13.3338 11.036C13.3036 10.9318 13.3185 10.8339 13.3723 10.7406C13.4584 10.591 13.5434 10.4406 13.629 10.2905L14.6102 8.5684C14.627 8.53874 14.6432 8.50866 14.6614 8.47973C14.7556 8.32903 14.9367 8.27478 15.0993 8.34868C15.18 8.38539 15.254 8.4344 15.3302 8.47919C16.2474 9.01807 17.1644 9.5572 18.0812 10.0966C18.7277 10.4767 19.3744 10.8567 20.0214 11.2366C20.2428 11.3664 20.3873 11.552 20.4489 11.8014C20.4582 11.839 20.4598 11.8768 20.4603 11.9149C20.4611 11.9751 20.4582 12.0354 20.461 12.0957C20.4671 12.2287 20.4257 12.3489 20.3635 12.4634C20.2866 12.6049 20.1752 12.7123 20.0367 12.7933C19.5488 13.0784 19.061 13.3637 18.5734 13.6492L16.7299 14.7274C16.2074 15.0328 15.6849 15.3384 15.1624 15.644C15.0954 15.6833 15.0257 15.7095 14.9456 15.7071C14.8251 15.7035 14.7335 15.6503 14.6676 15.5524C14.6353 15.5042 14.6087 15.452 14.5804 15.4011C14.1895 14.7016 13.7987 14.0021 13.4078 13.3027C13.3553 13.209 13.3337 13.1113 13.3583 13.0073C13.3979 12.8404 13.535 12.7337 13.7089 12.7307C13.7914 12.7293 13.874 12.7307 13.9567 12.7307C14.1399 12.7307 14.3231 12.7307 14.5063 12.7307C14.5865 12.7307 14.6618 12.7488 14.7293 12.794C14.8087 12.8475 14.8551 12.9229 14.874 13.0149C14.8815 13.0524 14.8851 13.0905 14.8845 13.1287C14.8837 13.2432 14.8865 13.3577 14.8838 13.4723C14.8799 13.643 15.0099 13.7993 15.1892 13.8306C15.2071 13.8335 15.2251 13.835 15.2432 13.8351C15.3197 13.8356 15.3962 13.8351 15.4729 13.8351C15.5296 13.8353 15.5851 13.8187 15.6323 13.7874C15.6763 13.759 15.7161 13.7246 15.7507 13.6853C16.0865 13.3036 16.4224 12.9218 16.7585 12.5401C16.8475 12.439 16.9347 12.3363 17.0261 12.2373C17.1454 12.1081 17.1354 11.9122 17.0254 11.7882C16.5985 11.307 16.175 10.8227 15.7501 10.3398C15.7223 10.3082 15.6981 10.2735 15.6618 10.2497C15.6135 10.2181 15.5628 10.195 15.5047 10.1943C15.404 10.1933 15.3031 10.1894 15.2028 10.1956C15.0248 10.2066 14.8892 10.3506 14.8852 10.5294C14.8824 10.6578 14.8847 10.7864 14.8842 10.9151C14.8838 11.0176 14.8528 11.108 14.7789 11.1822C14.7051 11.2564 14.618 11.2941 14.5142 11.2945C14.3752 11.295 14.2362 11.2945 14.0972 11.2945L14.0974 11.2929Z" fill="#00B37E"/>
</g>
</g>
</g>
</g>
<defs>
<clipPath id="clip0_153_5116">
<rect width="24" height="24" rx="12" fill="white"/>
</clipPath>
</defs>
</svg>
