<svg width="440" height="224" viewBox="0 0 440 224" fill="none" xmlns="http://www.w3.org/2000/svg">
<g clip-path="url(#clip0_1072_112684)">
<path fill-rule="evenodd" clip-rule="evenodd" d="M79.2691 190.81C78.9715 184.775 76.5748 182.231 72.0771 183.176C76.9009 181.505 79.522 178.015 79.9357 172.703C80.4218 178.454 82.1608 181.625 85.1491 182.221C81.4245 184.102 79.463 186.965 79.2682 190.81" fill="#FEDA24"/>
<path d="M79.2692 191.751C78.7687 191.751 78.3568 191.358 78.3317 190.858C78.178 187.734 77.4462 185.645 76.1576 184.65C75.2184 183.925 73.9467 183.744 72.2712 184.097C71.7868 184.199 71.3052 183.906 71.1729 183.428C71.0406 182.95 71.3025 182.453 71.7707 182.29C76.2496 180.739 78.615 177.579 79.0011 172.632C79.0395 172.144 79.4452 171.767 79.934 171.766H79.9367C80.4246 171.766 80.8312 172.139 80.8723 172.625C81.3165 177.881 82.8178 180.799 85.3333 181.302C85.7265 181.38 86.0259 181.699 86.0804 182.096C86.134 182.493 85.9312 182.881 85.5728 183.061C82.1404 184.794 80.3853 187.345 80.2066 190.859C80.1816 191.358 79.7687 191.751 79.2683 191.751H79.2692ZM75.8099 182.362C76.3542 182.548 76.8528 182.814 77.3041 183.163C78.254 183.896 78.9671 184.953 79.4533 186.355C80.2432 184.798 81.4407 183.469 83.0403 182.375C81.5863 181.444 80.5068 179.788 79.8098 177.42C78.9573 179.461 77.6213 181.111 75.8099 182.362Z" fill="#4E3823"/>
<path fill-rule="evenodd" clip-rule="evenodd" d="M351.577 62.0105C351.122 52.7591 347.447 48.8594 340.553 50.3082C347.947 47.7467 351.966 42.3949 352.601 34.2539C353.346 43.0695 356.012 47.9309 360.593 48.8444C354.883 51.727 351.877 56.117 351.577 62.0105Z" fill="#FEDA24"/>
<path d="M351.577 63.121C350.986 63.121 350.5 62.6568 350.47 62.0676C350.229 57.1761 349.065 53.8925 347.009 52.3053C345.487 51.1317 343.45 50.8335 340.781 51.395C340.209 51.5168 339.641 51.1696 339.485 50.6065C339.329 50.0426 339.638 49.455 340.191 49.2637C347.195 46.8373 350.893 41.9 351.496 34.1702C351.541 33.5945 352.02 33.15 352.598 33.1484H352.602C353.177 33.1484 353.658 33.5889 353.706 34.1631C354.401 42.384 356.792 46.9583 360.811 47.7602C361.274 47.8528 361.629 48.2292 361.692 48.6974C361.756 49.1664 361.515 49.6235 361.093 49.8362C355.715 52.5512 352.965 56.5529 352.686 62.0691C352.656 62.6583 352.169 63.121 351.578 63.121H351.577ZM345.494 49.1782C346.56 49.4424 347.519 49.8995 348.362 50.5504C349.941 51.7683 351.08 53.5991 351.8 56.0887C353.031 53.2796 355.096 50.9308 357.983 49.0628C355.397 47.6298 353.55 44.74 352.459 40.4219C351.124 44.1476 348.797 47.0738 345.494 49.1775V49.1782Z" fill="#4E3823"/>
<path fill-rule="evenodd" clip-rule="evenodd" d="M47.6981 58.8254C47.4037 52.8539 45.0323 50.3367 40.582 51.2726C45.3551 49.6186 47.9483 46.165 48.3582 40.9102C48.8392 46.5997 50.5602 49.7382 53.5169 50.3278C49.831 52.1883 47.8909 55.022 47.6981 58.8261" fill="#FEDA24"/>
<path d="M47.6984 59.5478C47.3114 59.5478 46.9928 59.2437 46.9734 58.8573C46.8179 55.7036 46.0673 53.5866 44.7431 52.5651C43.7644 51.8097 42.4526 51.6189 40.7323 51.9797C40.3577 52.0585 39.9852 51.8325 39.8829 51.4627C39.7806 51.0929 39.9831 50.708 40.3453 50.5822C44.862 49.0174 47.2464 45.834 47.6349 40.8494C47.6639 40.472 47.9784 40.1804 48.3564 40.1797H48.3585C48.7359 40.1797 49.0503 40.4686 49.0821 40.8446C49.5307 46.145 51.0706 49.0948 53.6589 49.6111C53.963 49.6719 54.1946 49.9187 54.2367 50.2255C54.2782 50.5324 54.1213 50.8324 53.8441 50.972C50.3766 52.7227 48.6038 55.302 48.4235 58.8587C48.4041 59.245 48.0848 59.5485 47.6977 59.5485L47.6984 59.5478ZM43.7997 50.5331C44.4798 50.7045 45.0907 50.9989 45.6298 51.4143C46.6444 52.1974 47.3784 53.371 47.8443 54.9655C48.6391 53.1671 49.964 51.6624 51.8115 50.464C50.1555 49.5385 48.9702 47.6856 48.2659 44.9237C47.4054 47.3068 45.9125 49.1812 43.7997 50.5324V50.5331Z" fill="#4E3823"/>
<g clip-path="url(#clip1_1072_112684)">
<g opacity="0.3">
<path d="M216.08 127.604C215.671 127.459 215.28 127.351 214.898 127.281L216.08 127.604Z" fill="#4E3923"/>
</g>
<path d="M100.738 87.0467C94.7069 80.3762 83.6754 84.8455 83.8903 93.8377C85.0421 141.923 106.572 189.207 146.954 221.711C219.652 280.217 325.946 268.669 384.347 195.918C399.188 177.434 409.504 156.778 415.449 135.287C422.343 110.4 423.369 84.3849 418.754 59.3355C416.259 45.7621 412.107 32.4713 406.335 19.7927C402.625 11.6433 390.742 12.516 388.247 21.1122C382.22 41.8795 372.085 61.8253 357.711 79.7333C333.456 109.946 300.936 129.607 265.995 138.074C247.377 142.586 228.072 143.917 208.965 141.977C191.394 140.196 173.998 135.647 157.446 128.254C144.427 122.444 131.94 114.879 120.31 105.521C115.636 101.759 111.216 97.7967 107.05 93.661C104.876 91.5038 102.771 89.2984 100.736 87.0472L100.738 87.0467Z" fill="#FDD800"/>
<g opacity="0.3">
<path d="M415.351 129.404C409.408 150.894 399.091 171.553 384.249 190.035C325.85 262.785 219.553 274.335 146.856 215.83C107.728 184.336 86.299 138.963 83.9601 92.4302C84.2549 89.7919 85.5434 87.6242 87.3548 86.1273C94.0903 125.332 114.594 162.339 148.006 189.231C159.333 198.35 171.482 205.765 184.137 211.514C184.081 210.562 184.102 209.604 184.203 208.642C185.582 195.495 201.375 187.107 219.467 189.91C235.212 192.348 247.507 202.448 249.533 213.691C249.16 216.162 248.275 218.461 246.953 220.53C247.783 220.563 248.613 220.59 249.442 220.61C248.997 222.689 248.184 224.635 247.05 226.414C298.674 228.459 350.561 206.841 385.397 163.441C400.241 144.954 410.555 124.299 416.501 102.806C418.638 95.0837 420.215 87.2559 421.228 79.378C421.338 81.109 421.413 82.8417 421.47 84.5747C421.444 99.6253 419.424 114.714 415.352 129.405L415.351 129.404Z" fill="#4E3923"/>
</g>
<g opacity="0.5">
<path d="M265.834 138.584C354.79 137.514 390.502 36.783 399.805 31.7732C409.764 26.4182 417.106 60.4817 417.106 60.4817L418.593 59.8464C416.097 46.2744 411.945 32.9847 406.173 20.3062C402.463 12.1568 390.58 13.0295 388.084 21.6257C382.057 42.3918 371.922 62.3353 357.549 80.242C333.291 110.457 300.773 130.12 265.833 138.584L265.834 138.584Z" fill="white"/>
</g>
<path d="M289.329 256.791C327.77 248.458 361.794 227.354 386.471 196.216C406.364 171.114 418.767 141.083 422.338 109.372C425.815 78.5049 420.863 47.2708 408.019 19.0461C406.005 14.6198 401.56 11.9852 396.696 12.3374C391.841 12.6875 387.832 15.9245 386.48 20.5836C380.323 41.8055 370.118 61.3685 356.146 78.7298C328.178 113.485 288.242 135.222 243.696 139.932C199.141 144.646 155.523 131.743 120.876 103.604C114.195 98.1782 107.901 92.2142 102.168 85.8793C98.8738 82.2407 93.811 81.0629 89.2693 82.8755C84.6975 84.7018 81.9293 88.9003 82.0454 93.8362C83.2423 144.506 106.583 191.721 146.08 223.374C181.687 251.91 226.369 264.795 271.894 259.655C277.789 258.99 283.61 258.031 289.327 256.791L289.329 256.791ZM395.834 16.184C396.217 16.1009 396.595 16.0474 396.963 16.0207C399.597 15.831 403.002 16.9277 404.663 20.5757C430.828 78.0709 422.751 144.492 383.581 193.92C359.443 224.379 326.145 245.026 288.539 253.183C282.941 254.397 277.254 255.334 271.48 255.985C226.937 261.013 183.221 248.408 148.386 220.491C109.742 189.522 86.907 143.327 85.7348 93.7495C85.6398 89.7431 88.2058 87.2772 90.6382 86.3057C93.1043 85.321 96.7075 85.3427 99.4348 88.3579C105.294 94.8331 111.725 100.927 118.552 106.472C153.967 135.234 198.548 148.422 244.086 143.606C289.613 138.789 330.432 116.573 359.018 81.0475C373.297 63.3044 383.727 43.3087 390.02 21.6157C390.977 18.3165 393.48 16.6933 395.833 16.1831L395.834 16.184Z" fill="#4E3923"/>
<g opacity="0.3">
<path d="M362.879 123.057C357.21 116.105 359.211 105.08 367.348 98.4313C375.484 91.7824 386.676 92.0277 392.344 98.9791C398.013 105.931 396.012 116.956 387.875 123.605C379.739 130.253 368.547 130.008 362.879 123.057Z" fill="#4E3923"/>
</g>
<g opacity="0.3">
<path d="M282.696 162.411C279.032 155.893 284.829 145.672 295.645 139.581C306.461 133.49 318.2 133.837 321.864 140.355C325.529 146.873 319.731 157.095 308.916 163.186C298.1 169.276 286.361 168.93 282.696 162.411Z" fill="#4E3923"/>
</g>
<path d="M287.334 164.694C284.932 160.423 290.676 152.629 300.162 147.288C309.648 141.946 319.285 141.078 321.686 145.35C324.088 149.621 318.345 157.415 308.858 162.757C299.372 168.098 289.735 168.966 287.334 164.694Z" fill="#FDD800"/>
<path d="M280.738 154.261C280.431 155.264 280.222 156.312 280.163 157.391C280.113 158.469 280.221 159.575 280.507 160.65C281.081 162.807 282.473 164.749 284.247 166.106C286.036 167.463 288.129 168.274 290.233 168.735C292.349 169.173 294.498 169.264 296.607 169.118C298.721 168.982 300.802 168.588 302.818 168.008C304.838 167.436 306.799 166.678 308.683 165.766C312.424 163.904 315.925 161.478 318.821 158.364C320.265 156.81 321.555 155.086 322.61 153.188C323.647 151.286 324.462 149.193 324.734 146.925C325.022 144.676 324.712 142.222 323.602 140.116C322.525 137.995 320.678 136.365 318.684 135.354C316.677 134.337 314.525 133.815 312.403 133.667C310.277 133.504 308.173 133.65 306.128 134.014C302.041 134.766 298.19 136.349 294.758 138.511C294.5 138.673 294.423 139.013 294.585 139.271C294.735 139.508 295.034 139.593 295.28 139.479L295.285 139.478C298.86 137.841 302.63 136.67 306.451 136.293C308.356 136.109 310.267 136.092 312.11 136.366C313.95 136.631 315.728 137.156 317.241 138.027C318.76 138.893 319.949 140.13 320.657 141.599C321.367 143.065 321.55 144.76 321.283 146.456C321.013 148.154 320.357 149.846 319.469 151.431C318.564 153.013 317.432 154.499 316.143 155.849C313.574 158.565 310.462 160.822 307.072 162.523C303.705 164.263 300.037 165.433 296.314 165.874C294.455 166.095 292.578 166.086 290.766 165.815C288.96 165.544 287.205 164.98 285.735 164.011C284.259 163.065 283.085 161.686 282.455 160.021C281.818 158.362 281.735 156.455 282.06 154.581L282.061 154.573C282.126 154.201 281.877 153.846 281.505 153.782C281.162 153.722 280.833 153.93 280.735 154.256L280.738 154.261Z" fill="#4E3923"/>
<path d="M311.439 171.82C315.159 171.437 318.751 169.828 321.778 167.559C324.823 165.285 327.338 162.333 329.187 159.015C331.026 155.701 332.272 151.988 332.432 148.123C332.523 146.199 332.318 144.234 331.712 142.378C331.097 140.533 330.085 138.794 328.675 137.512C328.449 137.306 328.097 137.322 327.892 137.548C327.723 137.734 327.704 138.002 327.826 138.207L327.833 138.219C329.605 141.178 329.919 144.573 329.408 147.842C328.886 151.116 327.657 154.289 325.988 157.198C324.316 160.109 322.196 162.77 319.707 165.035C317.217 167.305 314.349 169.153 311.114 170.492L311.104 170.497C310.753 170.642 310.586 171.045 310.731 171.397C310.85 171.685 311.143 171.85 311.439 171.82Z" fill="#4E3923"/>
<path d="M376.191 124.83C370.918 121.251 370.233 113.047 374.661 106.508C379.089 99.9676 386.952 97.5676 392.225 101.147C397.497 104.726 398.182 112.93 393.754 119.47C389.327 126.009 381.463 128.409 376.191 124.83Z" fill="#FDD800"/>
<path d="M341.917 185.081C342.904 186.316 343.737 187.685 344.387 189.175C349.002 199.724 342.867 212.369 330.678 217.422C321.523 221.213 311.555 219.646 305.214 214.165" fill="#FDD800"/>
<path d="M341.385 185.507C342.112 186.64 342.729 187.823 343.205 189.051C343.637 190.298 344.035 191.545 344.21 192.832C344.368 193.46 344.365 194.115 344.423 194.754C344.506 195.393 344.429 196.04 344.417 196.679C344.43 197.32 344.293 197.954 344.223 198.588C344.173 199.226 343.961 199.841 343.827 200.464C343.166 202.933 342.059 205.285 340.543 207.359C339.056 209.45 337.204 211.281 335.131 212.818C330.981 215.913 325.843 217.692 320.622 217.97C315.395 218.23 310.021 216.88 305.571 213.747L305.563 213.74C305.314 213.565 304.969 213.625 304.795 213.874C304.639 214.095 304.669 214.392 304.853 214.579C306.866 216.623 309.357 218.249 312.074 219.314C314.795 220.358 317.715 220.985 320.658 221.009C323.602 221.08 326.554 220.626 329.378 219.76C332.203 218.894 334.867 217.511 337.288 215.789C339.703 214.056 341.83 211.898 343.515 209.424C345.172 206.938 346.428 204.145 346.996 201.187C348.23 195.297 346.527 188.822 342.45 184.654C342.185 184.383 341.751 184.378 341.481 184.643C341.244 184.875 341.212 185.239 341.385 185.506L341.385 185.507Z" fill="#4E3923"/>
<path d="M150.087 148.214C147.628 144.298 144.164 140.411 139.844 136.964C126.881 126.614 111.121 124.116 104.642 131.385C98.1627 138.653 103.419 152.935 116.382 163.284C129.345 173.634 145.106 176.131 151.584 168.863" fill="#FDD800"/>
<path d="M102.406 133.541C101.31 136.543 101.281 139.865 101.93 142.945C102.57 146.044 103.797 148.965 105.306 151.688C106.823 154.412 108.6 156.972 110.592 159.355C111.59 160.547 112.635 161.699 113.754 162.803C114.316 163.354 114.895 163.894 115.528 164.418C116.109 164.938 116.692 165.458 117.311 165.936C122.176 169.847 127.936 172.802 134.203 174.05C135.77 174.344 137.363 174.537 138.972 174.587C140.581 174.606 142.206 174.502 143.804 174.173C145.395 173.832 146.971 173.308 148.393 172.48C149.816 171.662 151.072 170.544 151.991 169.226C152.167 168.975 152.105 168.63 151.854 168.454C151.646 168.308 151.37 168.326 151.183 168.482L151.171 168.492C150.056 169.424 148.811 170.108 147.503 170.597C146.182 171.058 144.803 171.334 143.401 171.434C142.001 171.543 140.582 171.516 139.169 171.347C137.755 171.209 136.345 170.95 134.953 170.597C132.155 169.94 129.438 168.898 126.799 167.681C124.156 166.466 121.602 165.028 119.134 163.423C118.516 163.025 117.915 162.599 117.296 162.193C116.741 161.774 116.198 161.292 115.662 160.8C114.59 159.808 113.562 158.743 112.579 157.64C110.621 155.426 108.808 153.066 107.279 150.544C105.758 148.023 104.486 145.342 103.756 142.524C103.03 139.716 102.888 136.746 103.704 133.965C103.811 133.603 103.603 133.223 103.242 133.117C102.895 133.015 102.531 133.205 102.408 133.54L102.406 133.541Z" fill="#4E3923"/>
<path d="M188.45 186.156C183.31 189.228 179.4 193.518 177.371 198.836C173.696 208.474 177.223 218.715 185.369 227.461C190.714 233.199 198.125 238.049 206.973 241.097C229.309 248.792 252.35 242.092 258.436 226.132C260.701 220.193 260.299 213.81 257.75 207.738C253.45 197.492 242.857 188.702 228.832 183.87" fill="#FDD800"/>
<path d="M176.733 198.592C175.73 200.875 175.101 203.352 174.927 205.879C174.739 208.407 175.012 210.965 175.615 213.426C176.856 218.361 179.425 222.844 182.581 226.718C185.718 230.631 189.567 233.945 193.731 236.697C197.922 239.424 202.479 241.546 207.204 243.117C211.943 244.642 216.868 245.63 221.848 245.912C226.823 246.184 231.859 245.824 236.713 244.604C241.563 243.409 246.253 241.352 250.251 238.296C252.236 236.757 254.041 234.974 255.53 232.954C257.024 230.94 258.182 228.687 258.948 226.328C259.042 226.039 258.884 225.728 258.595 225.634C258.326 225.546 258.037 225.678 257.923 225.93L257.921 225.936C255.989 230.262 252.767 233.846 248.896 236.412C245.032 239.009 240.59 240.666 236.032 241.617C231.457 242.535 226.745 242.8 222.081 242.412C217.418 242.042 212.79 241.109 208.348 239.616C203.9 238.144 199.613 236.176 195.666 233.671C191.702 231.189 188.099 228.169 185.019 224.66C181.968 221.145 179.41 217.159 178.036 212.748C177.332 210.552 176.957 208.259 176.939 205.949C176.925 203.64 177.286 201.316 178.005 199.079C178.122 198.72 177.926 198.333 177.567 198.216C177.232 198.107 176.871 198.276 176.729 198.592L176.733 198.592Z" fill="#4E3923"/>
<path d="M387.495 123.963C384.264 126.124 380.579 127.528 376.833 127.803C373.109 128.093 369.322 127.256 366.387 125.208C363.448 123.174 361.476 119.952 360.884 116.461C360.247 112.95 361.02 109.227 362.627 105.96C365.884 99.4113 372.89 94.6092 380.284 94.3393C383.96 94.1598 387.7 95.2382 390.568 97.5687C391.306 98.129 391.927 98.8185 392.557 99.5086C393.152 100.228 393.667 101.012 394.119 101.84C394.563 102.671 394.928 103.551 395.204 104.466C395.512 105.375 395.621 106.335 395.806 107.29L395.823 107.37C395.88 107.668 396.167 107.862 396.463 107.803C396.737 107.75 396.923 107.502 396.904 107.23C396.837 106.201 396.837 105.15 396.627 104.119C396.435 103.086 396.125 102.07 395.724 101.086C394.924 99.1111 393.651 97.33 392.088 95.8433C388.941 92.866 384.556 91.2731 380.249 91.3013C378.093 91.2939 375.93 91.5694 373.869 92.2018C371.811 92.8415 369.849 93.7512 368.012 94.8724C366.207 96.0408 364.542 97.4186 363.065 98.9942C361.62 100.598 360.362 102.375 359.355 104.303C358.349 106.233 357.686 108.342 357.311 110.503C356.953 112.665 356.898 114.913 357.329 117.107C357.754 119.297 358.617 121.414 359.86 123.273C361.065 125.16 362.725 126.743 364.601 127.927C366.48 129.118 368.578 129.882 370.711 130.287C372.853 130.664 375.026 130.659 377.132 130.358C381.34 129.693 385.257 127.789 388.335 125.043C388.617 124.792 388.642 124.359 388.391 124.077C388.162 123.818 387.78 123.776 387.501 123.963L387.497 123.966L387.495 123.963Z" fill="#4E3923"/>
<path d="M390.384 88.8035C393.875 90.3293 396.934 92.6667 399.098 95.6564C399.385 96.017 399.606 96.4236 399.854 96.8104L400.58 97.9768L401.162 99.2204C401.356 99.6329 401.568 100.038 401.691 100.481L402.137 101.774C402.313 102.195 402.36 102.658 402.477 103.097C402.57 103.543 402.694 103.981 402.766 104.431L402.922 105.791L403.002 106.469C403.015 106.696 403.009 106.926 403.013 107.154L403.036 108.522C403.056 108.977 402.978 109.435 402.955 109.89C402.911 110.344 402.903 110.802 402.834 111.254C402.545 113.062 402.152 114.86 401.495 116.579C400.277 120.047 398.329 123.252 395.913 126.044C391.068 131.622 384.207 135.56 376.837 136.498C373.17 136.949 369.37 136.744 365.835 135.548C362.306 134.364 359.071 132.259 356.517 129.401L356.51 129.394C356.308 129.168 355.959 129.148 355.733 129.35C355.526 129.536 355.492 129.844 355.644 130.069C357.9 133.422 361.24 136.073 365.023 137.699C368.827 139.307 373.042 139.847 377.151 139.52C381.272 139.208 385.313 137.996 388.973 136.082C392.64 134.171 395.919 131.56 398.672 128.465C401.414 125.359 403.545 121.705 404.911 117.768C406.231 113.825 406.801 109.557 406.148 105.391C405.54 101.243 403.846 97.2071 401.101 94.0505C398.379 90.889 394.741 88.5932 390.84 87.5155C390.476 87.4149 390.099 87.6278 389.999 87.9932C389.907 88.326 390.078 88.6692 390.384 88.8035Z" fill="#4E3923"/>
<g opacity="0.3">
<path d="M309.424 208.962C304.575 203.015 306.452 193.449 313.615 187.595C320.779 181.742 330.518 181.817 335.367 187.763C340.216 193.709 338.339 203.276 331.175 209.129C324.011 214.983 314.273 214.908 309.424 208.962Z" fill="#4E3923"/>
</g>
<path d="M312.693 208.865C316.398 212.136 322.395 212.868 328.034 210.269C335.541 206.807 339.571 198.746 337.036 192.263C336.68 191.347 336.21 190.512 335.642 189.764C331.931 188.516 327.444 188.745 323.141 190.727C315.517 194.245 311.144 202.067 312.692 208.864L312.693 208.865Z" fill="#FDD800"/>
<path d="M316.671 186.098C319.555 185.22 322.577 184.993 325.398 185.607C326.806 185.895 328.159 186.389 329.377 187.08C330.6 187.76 331.697 188.626 332.579 189.659C332.788 189.929 333.02 190.175 333.212 190.457C333.406 190.732 333.586 191.015 333.757 191.303C334.095 191.879 334.378 192.49 334.574 193.13C335.01 194.391 335.186 195.724 335.112 197.054C334.948 199.722 333.761 202.316 331.959 204.401C328.323 208.584 322.163 210.593 316.666 209.308C313.939 208.645 311.362 207.182 309.644 204.919C307.891 202.679 307.067 199.712 307.369 196.72C307.401 196.417 307.181 196.146 306.878 196.113C306.605 196.085 306.358 196.261 306.287 196.518C305.862 198.097 305.744 199.793 305.996 201.462C306.235 203.134 306.85 204.758 307.747 206.219C309.565 209.154 312.588 211.257 315.867 212.239C322.482 214.237 330.046 212.049 334.707 206.833C337.024 204.232 338.572 200.829 338.725 197.221C338.778 195.423 338.465 193.61 337.821 191.938C337.22 190.255 336.209 188.701 334.968 187.454C333.735 186.182 332.277 185.163 330.711 184.432C329.14 183.712 327.473 183.264 325.797 183.068C322.437 182.705 319.046 183.348 316.149 184.834C315.812 185.006 315.679 185.42 315.852 185.757C316.006 186.057 316.35 186.196 316.66 186.1L316.671 186.098Z" fill="#4E3923"/>
<g opacity="0.3">
<path d="M213.109 235.435C195.542 231.777 183.449 218.451 186.098 205.671C188.746 192.891 205.134 185.496 222.701 189.154C240.267 192.812 252.361 206.137 249.712 218.917C247.063 231.698 230.676 239.093 213.109 235.435Z" fill="#4E3923"/>
</g>
<path d="M217.669 236.041C202.576 234.162 191.296 224.915 192.475 215.388C193.654 205.861 206.844 199.661 221.937 201.541C237.03 203.42 248.31 212.667 247.131 222.194C245.953 231.721 232.762 237.921 217.669 236.041Z" fill="#FDD800"/>
<path d="M240.695 233.044C242.059 232.29 243.378 231.422 244.58 230.392C245.783 229.366 246.869 228.186 247.811 226.886C249.684 224.278 250.843 221.127 251.143 217.881C251.425 214.629 250.85 211.335 249.661 208.34C248.463 205.341 246.725 202.594 244.646 200.183C242.58 197.75 240.161 195.655 237.563 193.849C234.953 192.057 232.161 190.541 229.239 189.35C223.397 186.996 217.075 185.725 210.723 185.969C209.136 186.04 207.553 186.194 205.979 186.44C204.406 186.702 202.846 187.062 201.313 187.528C198.247 188.458 195.283 189.87 192.671 191.84C190.056 193.795 187.829 196.376 186.391 199.377C184.935 202.364 184.344 205.761 184.612 209.034C184.87 212.315 185.925 215.461 187.497 218.24C189.058 221.031 191.067 223.518 193.361 225.656C194.502 226.733 195.724 227.712 196.988 228.623C198.247 229.54 199.566 230.367 200.92 231.122C202.267 231.887 203.664 232.557 205.083 233.162C206.504 233.764 207.966 234.256 209.43 234.717C209.72 234.809 210.029 234.647 210.12 234.357C210.206 234.081 210.065 233.788 209.801 233.681L209.788 233.676C207.004 232.561 204.319 231.226 201.816 229.622C200.565 228.822 199.356 227.959 198.217 227.017C197.073 226.083 195.978 225.091 194.972 224.021C193.968 222.952 193.004 221.85 192.152 220.669C191.302 219.489 190.541 218.253 189.894 216.968C188.604 214.402 187.766 211.629 187.643 208.84C187.502 206.054 188.113 203.293 189.351 200.838C190.59 198.385 192.475 196.269 194.748 194.64C199.313 191.365 205.101 189.806 210.859 189.637C216.64 189.447 222.487 190.54 227.894 192.705C233.311 194.823 238.32 198.067 242.213 202.332C244.166 204.453 245.776 206.871 246.929 209.472C248.092 212.067 248.705 214.895 248.585 217.71C248.482 220.519 247.629 223.314 246.113 225.742C244.599 228.176 242.457 230.243 239.999 231.87L239.992 231.875C239.678 232.082 239.592 232.507 239.8 232.821C239.998 233.119 240.392 233.212 240.7 233.043L240.695 233.044Z" fill="#4E3923"/>
<g opacity="0.3">
<path d="M117.747 154.665C121.249 158.198 125.459 160.842 129.553 162.33C134.354 164.073 139.003 164.241 142.175 162.404C148.059 159.006 146.669 150.032 139.066 142.362C131.813 135.037 121.521 131.549 115.475 134.202C115.185 134.325 114.905 134.468 114.639 134.622C108.754 138.02 110.145 146.995 117.747 154.665Z" fill="#4E3923"/>
</g>
<path d="M131.381 161.948C123.491 158.293 118.743 151.762 120.776 147.361C122.808 142.961 130.851 142.357 138.741 146.013C146.631 149.668 151.379 156.199 149.346 160.599C147.314 165 139.271 165.604 131.381 161.948Z" fill="#FDD800"/>
<path d="M143.814 160.963C142.649 162.042 141.141 162.631 139.57 162.844C137.994 163.061 136.353 162.945 134.751 162.618C131.535 161.943 128.472 160.514 125.682 158.718C125.006 158.23 124.303 157.788 123.658 157.26L122.673 156.496C122.358 156.227 122.034 155.964 121.728 155.684C120.488 154.582 119.345 153.38 118.32 152.1C116.271 149.566 114.641 146.623 114.149 143.656C113.909 142.185 114.02 140.74 114.568 139.569C114.842 138.985 115.208 138.448 115.716 138.029C116.178 137.574 116.761 137.221 117.392 136.927C118.672 136.353 120.221 136.144 121.79 136.197C123.364 136.258 124.974 136.521 126.558 136.957C128.14 137.417 129.68 138.05 131.198 138.761C132.686 139.524 134.162 140.35 135.535 141.342C138.332 143.253 140.834 145.625 142.891 148.371L142.896 148.377C143.079 148.621 143.424 148.67 143.668 148.487C143.889 148.321 143.949 148.022 143.824 147.785C142.127 144.611 139.713 141.832 136.934 139.516L135.88 138.655L134.775 137.859L134.22 137.462L133.643 137.097L132.482 136.371C130.897 135.455 129.222 134.683 127.473 134.061C125.71 133.477 123.871 133.024 121.949 132.901C120.037 132.777 118.012 132.931 116.055 133.712C115.089 134.117 114.122 134.639 113.321 135.396C112.479 136.1 111.808 137.021 111.329 138.015C110.359 140.021 110.233 142.232 110.526 144.207C110.815 146.204 111.524 148.033 112.385 149.731C113.264 151.422 114.342 152.971 115.533 154.403C117.941 157.252 120.821 159.608 123.98 161.489C125.584 162.392 127.232 163.219 128.969 163.847C130.713 164.454 132.511 164.921 134.361 165.159C136.215 165.354 138.127 165.326 139.985 164.856C140.912 164.626 141.816 164.261 142.655 163.773C142.872 163.668 143.067 163.517 143.259 163.367L143.837 162.923C144.203 162.606 144.514 162.223 144.84 161.875C145.096 161.601 145.082 161.171 144.808 160.912C144.546 160.667 144.142 160.668 143.883 160.907L143.821 160.964L143.814 160.963Z" fill="#4E3923"/>
<g opacity="0.3">
<path d="M139.279 159.714C145.454 140.582 171.456 145.39 176.78 139.742L183.534 96.3998L214.928 81.6471L214.704 81.6778C214.704 81.6778 237.726 51.8899 269.608 53.2892C301.294 54.6801 320.266 91.7558 311.381 119.405C311.381 119.405 308.711 135.111 313.062 144.178C317.412 153.245 330.567 157.098 331.956 163.502C333.344 169.906 331.56 181.151 311.881 182.104C290.865 183.122 282.371 167.248 280.182 159.921C277.698 151.609 279.291 141.933 277.709 141.042C275.91 140.03 264.346 157.445 214.345 155.155C209.844 159.869 202.702 164.73 191.577 166.828C170.237 170.856 170.231 178.027 161.493 183.122C151.048 189.213 132.622 180.345 139.281 159.711L139.279 159.714Z" fill="#4E3923"/>
</g>
<path d="M143.496 171.353C145.337 169.056 144.791 165.655 142.304 164.081C141.046 163.285 139.429 162.742 137.396 162.886C132.43 163.236 130.443 173.281 133.071 180.97C133.771 183.019 136.646 183.104 137.484 181.108C138.541 178.595 140.361 175.261 143.495 171.352L143.496 171.353Z" fill="white"/>
<g opacity="0.3">
<path d="M143.497 171.35C140.363 175.26 138.543 178.594 137.485 181.109C136.645 183.104 133.77 183.02 133.073 180.968C132.752 180.032 132.502 179.06 132.311 178.073C133.387 178.382 134.661 177.941 135.176 176.72C136.233 174.208 138.054 170.875 141.188 166.964C141.881 166.098 142.236 165.08 142.277 164.059C142.283 164.066 142.294 164.073 142.304 164.079C144.788 165.656 145.334 169.054 143.497 171.35Z" fill="#4E3923"/>
</g>
<path d="M136.213 184.307C137.532 184.021 138.642 183.118 139.185 181.826C140.442 178.834 142.377 175.699 144.934 172.509C146.146 170.997 146.658 169.034 146.337 167.122C146.02 165.223 144.909 163.545 143.287 162.52C141.495 161.385 139.469 160.888 137.266 161.044C135.364 161.181 133.697 162.252 132.444 164.146C129.741 168.229 129.272 175.556 131.327 181.567C131.894 183.227 133.396 184.34 135.154 184.401C135.516 184.414 135.871 184.381 136.214 184.307L136.213 184.307ZM142.057 170.197C139.285 173.655 137.174 177.085 135.785 180.392C135.67 180.664 135.448 180.715 135.279 180.71C135.046 180.702 134.891 180.589 134.817 180.373C132.965 174.955 133.72 168.906 135.519 166.187C136.125 165.269 136.804 164.781 137.527 164.728C138.929 164.629 140.205 164.936 141.318 165.642C142.063 166.113 142.554 166.855 142.7 167.73C142.846 168.606 142.612 169.505 142.057 170.197Z" fill="#4E3923"/>
<path d="M149.923 177.26C151.896 174.738 151.257 171.046 148.531 169.365C147.153 168.516 145.387 167.947 143.177 168.129C137.78 168.576 135.749 179.529 138.709 187.859C139.498 190.078 142.626 190.132 143.511 187.951C144.628 185.203 146.565 181.553 149.922 177.259L149.923 177.26Z" fill="white"/>
<g opacity="0.3">
<path d="M149.923 177.258C146.565 181.553 144.627 185.203 143.514 187.953C142.626 190.134 139.497 190.078 138.709 187.86C138.101 186.147 137.702 184.319 137.506 182.498C138.686 183.825 141.053 183.588 141.807 181.734C142.922 178.988 144.859 175.339 148.217 171.044C148.548 170.616 148.807 170.16 148.99 169.683C151.324 171.477 151.781 174.887 149.923 177.258Z" fill="#4E3923"/>
</g>
<path d="M142.081 191.301C143.484 190.996 144.66 190.028 145.221 188.649C146.556 185.362 148.626 181.914 151.376 178.398C152.645 176.774 153.165 174.68 152.801 172.65C152.439 170.635 151.235 168.864 149.497 167.793C147.563 166.601 145.385 166.094 143.025 166.289C141.011 166.457 139.254 167.62 137.942 169.654C135.128 174.021 134.71 182.114 136.971 188.477C137.588 190.212 139.178 191.36 141.021 191.402C141.384 191.411 141.738 191.375 142.08 191.301L142.081 191.301ZM148.471 176.121C145.511 179.906 143.267 183.652 141.804 187.256C141.64 187.66 141.294 187.712 141.104 187.709C140.919 187.704 140.588 187.639 140.447 187.241C138.564 181.94 138.825 175.096 141.041 171.658C141.719 170.608 142.49 170.039 143.33 169.97C144.89 169.841 146.314 170.166 147.564 170.938C148.42 171.466 148.991 172.306 149.169 173.302C149.348 174.297 149.092 175.326 148.47 176.122L148.471 176.121Z" fill="#4E3923"/>
<path d="M156.881 180.763C158.866 178.413 158.386 174.845 155.829 173.134C154.537 172.269 152.862 171.659 150.735 171.755C145.538 171.988 143.193 182.429 145.734 190.533C146.411 192.692 149.412 192.857 150.341 190.796C151.512 188.198 153.504 184.764 156.881 180.764L156.881 180.763Z" fill="white"/>
<g opacity="0.3">
<path d="M156.88 180.763C153.501 184.761 151.513 188.197 150.343 190.795C149.412 192.857 146.41 192.691 145.732 190.533C145.243 188.969 144.934 187.315 144.793 185.67C145.917 186.839 148.064 186.641 148.828 184.953C149.999 182.355 151.988 178.923 155.367 174.925C155.749 174.469 156.039 173.971 156.243 173.449C158.435 175.249 158.751 178.548 156.88 180.764L156.88 180.763Z" fill="#4E3923"/>
</g>
<path d="M149.019 193.997C150.333 193.712 151.448 192.829 152.023 191.553C153.42 188.455 155.529 185.225 158.291 181.953C159.581 180.425 160.161 178.411 159.882 176.43C159.605 174.461 158.502 172.7 156.855 171.597C155.03 170.374 152.943 169.805 150.653 169.908C148.69 169.993 146.941 171.06 145.596 172.986C142.677 177.159 141.995 184.77 143.975 191.084C144.514 192.8 146.025 193.979 147.823 194.087C148.233 194.112 148.634 194.08 149.019 193.997ZM155.474 179.569C152.49 183.101 150.198 186.623 148.661 190.033C148.507 190.376 148.208 190.411 148.044 190.401C147.85 190.39 147.599 190.306 147.495 189.979C145.697 184.245 146.653 177.913 148.618 175.104C149.292 174.14 150.035 173.632 150.82 173.597C152.306 173.531 153.648 173.891 154.806 174.667C155.592 175.193 156.098 176.001 156.23 176.943C156.362 177.885 156.088 178.842 155.474 179.568L155.474 179.569Z" fill="#4E3923"/>
<path d="M329.294 167.391C326.83 164.987 322.773 165.215 320.614 167.907C319.523 169.267 318.685 171.076 318.599 173.445C318.388 179.236 329.923 182.732 339.272 180.602C341.762 180.035 342.221 176.716 339.986 175.508C337.169 173.986 333.487 171.483 329.293 167.39L329.294 167.391Z" fill="white"/>
<g opacity="0.3">
<path d="M329.292 167.389C333.485 171.482 337.168 173.986 339.988 175.509C342.222 176.719 341.765 180.037 339.27 180.601C338.133 180.86 336.961 181.034 335.78 181.139C336.276 179.93 335.919 178.402 334.55 177.661C331.736 176.138 328.054 173.634 323.86 169.541C322.932 168.636 321.782 168.104 320.589 167.936C320.599 167.929 320.608 167.917 320.616 167.906C322.777 165.218 326.83 164.99 329.294 167.389L329.292 167.389Z" fill="#4E3923"/>
</g>
<path d="M339.432 182.459C339.516 182.441 339.599 182.423 339.682 182.405C341.577 181.972 342.97 180.455 343.23 178.538C343.49 176.63 342.561 174.803 340.863 173.886C337.484 172.059 334.024 169.43 330.582 166.07C329.031 164.557 326.893 163.764 324.714 163.896C322.543 164.026 320.526 165.069 319.177 166.752C317.663 168.64 316.849 170.87 316.757 173.378C316.681 175.473 317.664 177.429 319.6 179.035C323.833 182.546 332.319 184.002 339.434 182.46L339.432 182.459ZM324.305 167.669C324.511 167.624 324.723 167.594 324.939 167.581C326.081 167.511 327.2 167.924 328.007 168.712C331.694 172.311 335.431 175.145 339.111 177.133C339.587 177.39 339.606 177.808 339.576 178.036C339.551 178.223 339.43 178.672 338.863 178.801C332.828 180.199 325.381 179.034 321.952 176.19C320.918 175.332 320.411 174.432 320.444 173.514C320.505 171.817 321.047 170.319 322.055 169.062C322.631 168.343 323.416 167.861 324.306 167.668L324.305 167.669Z" fill="#4E3923"/>
<path d="M336.692 162.285C334.008 160.169 330.07 160.84 328.273 163.747C327.364 165.217 326.755 167.103 326.945 169.463C327.409 175.231 339.082 177.438 347.969 174.301C350.337 173.466 350.401 170.124 348.078 169.17C345.151 167.969 341.264 165.886 336.694 162.285L336.692 162.285Z" fill="white"/>
<g opacity="0.3">
<path d="M336.69 162.286C341.262 165.889 345.148 167.97 348.078 169.169C350.403 170.126 350.336 173.468 347.969 174.304C346.142 174.949 344.192 175.368 342.25 175.571C343.666 174.316 343.418 171.786 341.445 170.972C338.519 169.773 334.633 167.691 330.061 164.088C329.607 163.733 329.119 163.454 328.612 163.257C330.53 160.769 334.166 160.293 336.69 162.286Z" fill="#4E3923"/>
</g>
<path d="M345.506 176.91C346.558 176.682 347.589 176.394 348.581 176.044C350.382 175.409 351.576 173.759 351.625 171.84C351.673 169.911 350.555 168.193 348.776 167.463C345.266 166.021 341.583 163.791 337.832 160.835C336.132 159.494 333.936 158.942 331.806 159.318C329.699 159.685 327.832 160.951 326.705 162.774C325.444 164.814 324.905 167.113 325.105 169.609C325.275 171.721 326.493 173.571 328.625 174.958C332.567 177.521 339.391 178.237 345.507 176.91L345.506 176.91ZM335.552 163.736C339.571 166.904 343.55 169.308 347.377 170.879C347.896 171.092 347.941 171.556 347.937 171.746C347.931 171.975 347.848 172.385 347.353 172.561C341.666 174.569 334.321 174.26 330.632 171.861C329.48 171.112 328.857 170.255 328.781 169.315C328.645 167.621 329.001 166.075 329.84 164.718C330.424 163.774 331.362 163.134 332.448 162.954C333.545 162.76 334.677 163.045 335.551 163.735L335.552 163.736Z" fill="#4E3923"/>
<path d="M339.046 156.985C336.184 155.376 332.546 156.599 331.273 159.626C330.629 161.157 330.331 163.036 330.861 165.249C332.158 170.655 343.564 171.01 351.531 166.71C353.654 165.565 353.218 162.383 350.873 161.824C347.916 161.118 343.917 159.723 339.046 156.984L339.046 156.985Z" fill="white"/>
<g opacity="0.3">
<path d="M339.048 156.986C343.918 159.725 347.918 161.118 350.874 161.822C353.221 162.383 353.656 165.567 351.533 166.712C349.995 167.539 348.327 168.199 346.633 168.677C347.629 167.263 346.987 165.048 345.065 164.589C342.109 163.885 338.112 162.489 333.241 159.749C332.687 159.441 332.105 159.236 331.518 159.127C332.958 156.466 336.347 155.469 339.046 156.985L339.048 156.986Z" fill="#4E3923"/>
</g>
<path d="M345.466 170.86C347.886 170.335 350.281 169.486 352.409 168.337C354.05 167.453 354.954 165.679 354.71 163.821C354.465 161.953 353.127 160.465 351.301 160.029C347.761 159.185 343.943 157.619 339.95 155.375C338.119 154.346 335.929 154.144 333.946 154.828C331.975 155.504 330.381 156.992 329.575 158.91C328.675 161.048 328.505 163.326 329.07 165.68C329.551 167.682 330.995 169.274 333.246 170.282C336.397 171.693 340.978 171.833 345.467 170.86L345.466 170.86ZM338.145 158.596C342.436 161.008 346.576 162.699 350.449 163.622C350.929 163.736 351.031 164.135 351.053 164.301C351.08 164.501 351.063 164.868 350.658 165.087C345.577 167.829 338.591 168.63 334.751 166.911C333.567 166.382 332.863 165.678 332.657 164.821C332.279 163.249 332.387 161.743 332.974 160.346C333.38 159.382 334.15 158.663 335.143 158.322C336.133 157.983 337.229 158.082 338.145 158.596Z" fill="#4E3923"/>
<path d="M220.971 71.9203L210.786 148.466C266.977 152.313 279.69 133.04 281.615 134.123C283.256 135.047 281.604 145.081 284.18 153.7C286.45 161.297 295.258 177.759 317.053 176.703C337.461 175.715 339.311 164.054 337.871 157.413C336.431 150.772 322.789 146.777 318.278 137.374C313.767 127.97 316.536 111.684 316.536 111.684C325.749 83.0112 306.076 44.5632 273.216 43.1208C240.156 41.67 216.281 72.5605 216.281 72.5605" fill="#ECC18E"/>
<g opacity="0.3">
<path d="M282.541 140.911C282.658 144.626 282.879 149.345 284.182 153.701C284.269 153.994 284.367 154.294 284.469 154.612C283.639 147.824 284.353 141.59 283.079 140.87C282.95 140.798 282.775 140.817 282.541 140.911Z" fill="white"/>
</g>
<g opacity="0.4">
<path d="M220.397 76.2183C227.477 68.4241 248.11 48.7019 274.679 49.8704C296.551 50.8292 312.58 68.1849 318.138 88.1372C314.617 65.5042 297.526 44.1888 273.215 43.1211C240.155 41.6692 216.282 72.5615 216.282 72.5615L220.969 71.9184L220.397 76.2183Z" fill="white"/>
</g>
<path d="M324.395 177.642C330.057 176.414 334.264 174.035 336.947 170.532C340.925 165.34 340.178 159.356 339.673 157.024C338.819 153.089 334.823 150.2 330.591 147.141C326.585 144.245 322.044 140.963 319.939 136.577C315.936 128.23 318.099 113.606 318.333 112.118C323.367 96.29 320.124 77.3037 309.856 62.5308C300.772 49.4625 287.788 41.9142 273.296 41.279C259.348 40.6673 244.808 45.6956 231.248 55.8183C221.062 63.4226 215.072 71.1091 214.823 71.4324C214.2 72.2382 214.348 73.3977 215.153 74.0215C215.958 74.6452 217.117 74.4988 217.739 73.6933C217.771 73.6521 218.233 73.0655 219.087 72.0831L208.697 150.174L210.661 150.309C256.743 153.464 274.364 141.032 280.153 136.947C280.275 136.861 280.399 136.773 280.523 136.687C280.604 137.659 280.64 138.958 280.673 140.092C280.784 143.976 280.936 149.295 282.412 154.231C283.197 156.855 290.831 179.825 317.14 178.55C319.775 178.423 322.194 178.119 324.393 177.642L324.395 177.642ZM260.081 46.1083C264.237 45.2072 268.6 44.7678 273.136 44.9673C286.452 45.5519 298.418 52.5381 306.829 64.6385C316.483 78.5266 319.529 96.337 314.78 111.119L314.717 111.374C314.6 112.063 311.904 128.353 316.615 138.174C319.126 143.407 324.071 146.981 328.433 150.135C332.075 152.767 335.515 155.254 336.068 157.805C336.465 159.635 337.059 164.316 334.02 168.283C330.983 172.246 325.245 174.459 316.962 174.861C293.457 175.999 286.647 155.513 285.947 153.173C284.611 148.703 284.467 143.665 284.361 139.986C284.237 135.631 284.174 133.445 282.518 132.513C281.135 131.735 279.9 132.606 278.029 133.926C272.585 137.767 256.18 149.34 212.875 146.749L222.798 72.1654C222.932 71.1548 222.222 70.2258 221.213 70.0904C221.109 70.0765 221.004 70.0709 220.901 70.0755C226.982 63.5618 241.381 50.1633 260.08 46.1086L260.081 46.1083Z" fill="#4E3923"/>
<path d="M223.221 137.035C223.221 137.035 217.941 156.025 192.295 160.864C170.165 165.041 170.16 172.478 161.098 177.763C150.266 184.079 131.159 174.883 138.064 153.486C144.468 133.645 171.432 138.631 176.952 132.775L183.956 87.8292L226.813 67.6892" fill="#ECC18E"/>
<path d="M264.961 142.948C282.604 97.85 280.742 82.1931 273.216 43.1221C240.155 41.6714 216.28 72.5619 216.28 72.5619L216.512 72.5306L183.957 87.8291L176.952 132.775C174.208 135.687 166.162 135.918 157.977 137.853C168.111 144.043 173.263 154.575 177.483 165.371C180.984 163.671 185.639 162.12 192.296 160.864C203.833 158.687 211.248 153.647 215.916 148.759C239.689 149.846 255.081 146.638 264.961 142.947" fill="#ACD13F"/>
<path d="M177.789 166.782C177.899 166.758 178.008 166.72 178.112 166.67C181.879 164.843 186.605 163.407 192.563 162.284C193.086 162.185 193.607 162.08 194.121 161.969C203.23 159.993 210.749 156.051 216.497 150.231C236.204 151.073 252.676 149.079 265.464 144.301C265.848 144.157 266.152 143.857 266.302 143.475C275.196 120.741 279.154 105.497 279.965 90.8573C280.778 76.1792 278.38 62.3202 274.63 42.8509C274.504 42.1945 273.944 41.7113 273.277 41.6823C265.535 41.3429 257.651 42.717 249.847 45.7674C243.633 48.1965 237.456 51.6864 231.488 56.1429C222.011 63.2194 216.187 70.3573 215.263 71.5249L183.345 86.5247C182.911 86.7285 182.608 87.1344 182.533 87.6076L175.605 132.065C173.851 133.507 169.718 134.214 165.357 134.959C162.871 135.384 160.301 135.824 157.645 136.452C157.076 136.586 156.645 137.051 156.553 137.629C156.462 138.206 156.728 138.782 157.227 139.087C161.688 141.812 165.453 145.601 168.739 150.671C171.96 155.641 174.288 161.158 176.141 165.898C176.287 166.273 176.583 166.57 176.957 166.716C177.224 166.822 177.513 166.843 177.788 166.783L177.789 166.782ZM189.45 159.97C185.092 160.915 181.403 162.055 178.263 163.425C176.521 159.071 174.199 153.795 171.157 149.101C168.346 144.763 165.193 141.29 161.58 138.563C163.023 138.284 164.447 138.041 165.845 137.802C171.408 136.851 175.803 136.1 178.002 133.766C178.202 133.554 178.333 133.287 178.377 132.999L185.264 88.8093L217.126 73.8358C217.549 73.6378 217.834 73.2559 217.925 72.8242C219.553 70.8568 225.057 64.5321 233.278 58.4061C239.033 54.1173 244.976 50.7631 250.942 48.4362C257.974 45.6939 265.059 44.3796 272.021 44.5256C275.605 63.1901 277.869 76.6293 277.09 90.6929C276.305 104.876 272.465 119.721 263.857 141.816C251.377 146.349 235.275 148.2 215.983 147.316C215.567 147.298 215.164 147.46 214.876 147.761C209.176 153.73 201.491 157.661 192.031 159.446C191.147 159.613 190.286 159.786 189.452 159.967L189.45 159.97Z" fill="#4E3923"/>
<g opacity="0.3">
<path d="M281.616 134.125C283.255 135.049 281.605 145.082 284.181 153.701C286.451 161.296 295.258 177.761 317.052 176.706C336.081 175.782 338.975 165.589 338.114 158.832C335.56 163.198 329.738 168.594 318.591 169.57C298.87 171.297 287.357 152.273 285.904 144.48C284.067 134.625 286.156 127.783 284.68 126.607C280.729 123.463 270.085 140.8 222.126 139.687C220.805 139.656 221.46 141.836 220.322 143.772C218.832 146.303 215.824 148.761 216.954 148.806C267.921 150.891 279.766 133.081 281.617 134.125L281.616 134.125Z" fill="#4E3923"/>
</g>
<g opacity="0.4">
<path d="M146.367 178.133C141.311 173.897 138.461 166.347 141.843 155.879C148.246 136.039 172.483 144.333 176.953 132.776C171.434 138.631 144.471 133.646 138.064 153.486C133.914 166.351 139.163 174.806 146.367 178.133Z" fill="white"/>
</g>
<g opacity="0.3">
<path d="M161.1 177.763C170.159 172.478 170.164 165.042 192.296 160.867C217.943 156.023 223.224 137.037 223.224 137.037C223.224 137.037 216.107 147.253 190.46 152.096C168.328 156.271 168.323 163.708 159.264 168.993C151.972 173.243 140.941 170.472 136.605 161.681C136.306 177.141 151.768 183.202 161.1 177.763Z" fill="#4E3923"/>
</g>
<path d="M222.629 136.871C221.829 138.331 220.903 139.791 219.927 141.15C219.452 141.843 218.937 142.506 218.421 143.162C217.912 143.824 217.366 144.455 216.822 145.082C214.641 147.59 212.174 149.82 209.465 151.723C208.122 152.691 206.693 153.537 205.247 154.352C203.781 155.134 202.282 155.864 200.728 156.484C199.959 156.809 199.162 157.073 198.378 157.366C197.574 157.606 196.781 157.881 195.968 158.095C195.153 158.299 194.348 158.545 193.519 158.707L190.997 159.251L188.385 159.8C187.515 159.987 186.652 160.238 185.786 160.454L184.487 160.791L183.199 161.197C182.343 161.48 181.476 161.71 180.633 162.058C177.234 163.284 173.901 164.983 170.956 167.224C169.5 168.345 168.125 169.567 166.861 170.777C165.585 171.979 164.359 173.142 163.08 174.163C162.759 174.417 162.426 174.649 162.1 174.893C161.779 175.145 161.44 175.366 161.095 175.576C160.754 175.787 160.41 176.023 160.073 176.215C159.734 176.381 159.416 176.584 159.063 176.724C157.683 177.343 156.173 177.708 154.634 177.823C151.552 178.061 148.362 177.289 145.699 175.683C143.024 174.09 140.904 171.653 139.715 168.779C139.12 167.343 138.714 165.813 138.56 164.232C138.397 162.653 138.431 161.041 138.606 159.43C138.744 158.627 138.823 157.818 139.029 157.02C139.122 156.621 139.202 156.219 139.304 155.821L139.65 154.632L139.823 154.039L140.032 153.475C140.174 153.099 140.304 152.719 140.452 152.348C140.8 151.633 141.099 150.889 141.525 150.219C141.895 149.515 142.379 148.888 142.829 148.238C143.338 147.634 143.829 147.014 144.408 146.47C145.537 145.36 146.794 144.363 148.184 143.536C150.958 141.87 154.107 140.732 157.377 139.905C160.648 139.058 164.044 138.526 167.502 137.922C169.235 137.615 170.987 137.301 172.784 136.82C173.679 136.592 174.597 136.28 175.522 135.889C176.449 135.458 177.414 134.938 178.292 134.04L178.682 133.641L178.772 133.057L185.776 88.1113L184.738 89.4972L206.171 79.4375C209.743 77.7595 213.402 76.2672 216.925 74.4852C218.686 73.5932 220.443 72.6927 222.137 71.658C223.835 70.631 225.507 69.5502 227.073 68.2424C227.343 68.0174 227.378 67.6164 227.154 67.3463C227.002 67.1631 226.768 67.0887 226.55 67.1277C224.545 67.4987 222.644 68.0961 220.771 68.7479C218.894 69.3923 217.079 70.1709 215.269 70.9566C211.649 72.5316 208.165 74.3949 204.594 76.0738L183.17 86.154L182.283 86.5719L182.132 87.541L175.128 132.487L175.609 131.506C175.258 131.863 174.682 132.211 174.031 132.511C173.35 132.795 172.616 133.054 171.82 133.256C170.248 133.679 168.564 133.986 166.863 134.285C163.454 134.883 159.947 135.427 156.461 136.328C152.98 137.212 149.488 138.447 146.273 140.379C144.664 141.336 143.162 142.515 141.808 143.85C141.116 144.506 140.516 145.25 139.907 145.984C139.358 146.763 138.781 147.529 138.332 148.37C137.825 149.18 137.46 150.056 137.053 150.913C136.877 151.351 136.722 151.797 136.556 152.238L136.313 152.902L136.118 153.564L135.733 154.89C135.619 155.336 135.525 155.791 135.423 156.242C135.195 157.137 135.095 158.072 134.944 158.989C134.739 160.849 134.695 162.743 134.893 164.639C135.081 166.535 135.57 168.421 136.312 170.208C137.791 173.792 140.481 176.883 143.808 178.856C147.125 180.849 151.033 181.802 154.909 181.509C156.844 181.364 158.775 180.903 160.578 180.096C161.034 179.908 161.46 179.649 161.901 179.426C162.32 179.187 162.698 178.93 163.099 178.681C163.497 178.437 163.887 178.18 164.255 177.894C164.627 177.616 165.01 177.347 165.373 177.06C166.82 175.903 168.125 174.659 169.388 173.47C170.644 172.267 171.884 171.174 173.19 170.164C178.401 166.161 185.039 164.232 191.717 162.873C198.666 161.617 205.827 159.284 211.773 154.957C214.721 152.785 217.407 150.21 219.531 147.22C220.054 146.467 220.544 145.694 221.007 144.906C221.458 144.11 221.872 143.295 222.247 142.462C222.972 140.778 223.567 139.073 223.81 137.2C223.854 136.86 223.614 136.55 223.275 136.505C223.016 136.47 222.772 136.603 222.653 136.821L222.626 136.87L222.629 136.871Z" fill="#4E3923"/>
<path d="M104.352 84.9159C103.942 116.107 134.591 131.286 172.64 131.806C210.69 132.326 241.729 117.991 242.139 86.8002C242.532 56.9062 223.594 22.498 179.935 19.119C174.688 16.3478 167.589 11.5764 163.65 4.6009C162.417 2.42009 159.217 2.68894 158.39 5.06117C157.294 8.2134 156.276 12.3572 158.325 17.7538C152.515 14.832 146.748 11.5181 144.858 9.77284C142.834 7.90544 139.561 9.36494 139.619 12.1181C139.678 14.78 140.564 20.4359 141.613 25.1813C116.405 36.6891 104.652 61.9763 104.352 84.9159Z" fill="#ECC18E"/>
<g opacity="0.4">
<path d="M106.93 100.469C106.298 97.5159 105.993 94.3864 106.036 91.0775C106.32 69.503 118.391 44.611 140.797 32.1508C143.344 30.7341 144.695 27.842 144.1 24.9856C143.428 21.7632 142.878 18.7342 142.838 16.9727C142.78 14.2195 144.519 14.0667 146.544 15.9341C148.021 17.2977 151.869 19.6212 156.253 21.9665C157.596 22.686 159.217 21.5824 158.998 20.0722C158.479 16.4943 159.256 13.5803 160.075 11.2227C160.901 8.85183 162.266 8.27464 164.122 11.585C166.734 16.2431 171.308 19.5474 175.622 22.0532C179.072 24.0568 182.902 25.2952 186.851 25.8502C216.234 29.9831 233.419 48.8359 240.304 69.9294C234.315 45.6327 215.201 22.9585 180.179 20.248C174.932 17.4768 167.833 12.7054 163.894 5.72988C162.662 3.54906 159.461 3.81792 158.635 6.19014C157.538 9.34237 156.52 13.4862 158.569 18.8827C152.759 15.9609 146.993 12.6471 145.102 10.9018C143.078 9.03442 139.805 10.4939 139.863 13.2471C139.923 15.909 140.808 21.5649 141.857 26.3103C116.649 37.8181 104.896 63.1053 104.596 86.0449C104.527 91.3068 105.341 96.1136 106.929 100.471L106.93 100.469Z" fill="white"/>
</g>
<path d="M118.013 80.8836C117.894 89.973 120.517 99.7941 128.662 107.466C136.985 115.314 151.076 120.922 173.909 121.234L173.913 121.233C196.506 121.543 210.68 116.433 219.237 108.95C227.79 101.471 230.73 91.6136 230.851 82.4268C230.876 80.5603 230.747 78.7237 230.471 76.9376C228.067 61.1349 214.54 48.9264 198.054 48.7009C189.038 48.5776 180.805 52.0622 174.745 57.8201C168.835 51.898 160.699 48.1897 151.683 48.0663C135.4 47.8442 121.702 59.3772 118.649 74.8139L118.65 74.8173C118.257 76.7813 118.04 78.8088 118.013 80.8824L118.013 80.8836Z" fill="#FEFAFB"/>
<path d="M165.99 83.5862C165.953 86.4178 169.675 89.8726 174.322 89.9372C178.969 90.0008 182.782 86.6492 182.818 83.8164C182.855 80.9848 179.104 79.7447 174.457 79.6812C169.811 79.6176 166.027 80.7545 165.99 83.5862Z" fill="#4E3923"/>
<g opacity="0.5">
<path d="M170.762 82.0886C170.753 82.7506 172.276 83.5682 174.169 83.5935C176.06 83.6192 177.605 82.8449 177.614 82.1829C177.622 81.5209 176.093 81.222 174.2 81.1955C172.308 81.1699 170.771 81.4266 170.762 82.0886Z" fill="#FEFAFB"/>
</g>
<path d="M183.964 98.7263C186.917 98.0861 188.558 95.6933 189.109 93.3465C189.342 92.3536 188.727 91.3604 187.736 91.1265C186.745 90.8925 185.752 91.507 185.519 92.4999C184.989 94.7617 183.436 95.6063 180.907 95.014C176.316 93.9346 176.196 88.3383 176.192 88.1005L172.504 88.057C172.496 88.2866 172.231 93.8296 167.671 94.8183C167.651 94.8227 167.632 94.8269 167.611 94.8313C165.067 95.357 163.538 94.4687 163.067 92.1925C162.86 91.1946 161.883 90.5525 160.886 90.7581L160.87 90.7617C159.883 90.9757 159.25 91.9478 159.455 92.9403C160.129 96.1893 162.864 99.5819 168.358 98.4472C168.39 98.4402 168.424 98.4328 168.457 98.4257C171.22 97.8266 173.071 96.2007 174.267 94.3328C175.428 96.2551 177.264 97.9485 180.066 98.6068C181.56 98.9572 182.855 98.9644 183.966 98.7236L183.964 98.7263Z" fill="#4E3923"/>
<path d="M200.256 131.116C208.684 129.289 216.158 126.494 222.442 122.786C236.332 114.587 243.782 102.153 243.982 86.8257C244.192 70.9134 239.235 55.4187 230.025 43.1927C219.33 28.9955 203.573 20.1897 184.458 17.7272C183.447 17.5968 182.523 18.3121 182.394 19.3226C182.266 20.3341 182.979 21.2599 183.989 21.3894C223.197 26.4398 240.661 58.8224 240.294 86.7753C240.108 100.942 233.471 111.988 220.566 119.604C208.639 126.644 192.076 130.226 172.663 129.96C140.251 129.516 105.769 117.456 106.194 84.9403C106.461 64.6484 116.163 38.7089 142.592 26.7604C143.52 26.3407 143.933 25.2474 143.512 24.3184C143.094 23.3888 142.004 22.972 141.073 23.396C128.909 28.8938 118.89 38.0043 112.098 49.7427C105.987 60.3052 102.671 72.4591 102.506 84.891C102.119 114.372 128.983 133.055 172.615 133.653C182.614 133.791 191.903 132.928 200.255 131.117L200.256 131.116Z" fill="#4E3923"/>
<path d="M186.02 82.2826C187.303 92.1508 195.194 94.5755 205.484 98.8793C211.941 101.578 216.36 105.508 219.236 108.951C227.789 101.472 230.73 91.6149 230.851 82.4281C230.876 80.5616 230.746 78.725 230.471 76.9389C224.459 70.5145 214.911 64.2936 201.027 65.7749C190.866 66.8611 185.099 75.2008 186.02 82.2837L186.02 82.2826Z" fill="#967660"/>
<path d="M118.013 80.8835C117.894 89.9729 120.517 99.794 128.662 107.466C131.635 104.165 136.093 100.479 142.464 98.0168C152.864 93.995 160.814 91.788 162.357 81.9588C163.463 74.905 157.918 66.4097 147.789 65.0455C134.38 63.24 124.848 68.7777 118.65 74.8158L118.651 74.8192C118.259 76.7832 118.041 78.8107 118.014 80.8843L118.013 80.8835Z" fill="#967660"/>
<path d="M184.614 21.3647C185.3 21.216 185.87 20.6791 186.026 19.9484C186.24 18.9513 185.606 17.9692 184.61 17.7542C184.483 17.7263 171.511 14.7785 165.253 3.69577C164.318 2.04079 162.57 1.11857 160.69 1.28766C158.823 1.4527 157.269 2.66825 156.649 4.45252C154.228 11.4123 154.828 17.1585 158.384 21.0709C159.069 21.8258 160.237 21.8808 160.989 21.1945C161.743 20.5091 161.797 19.3412 161.111 18.5866C157.84 14.9868 158.773 9.57424 160.132 5.66813C160.334 5.08704 160.819 4.98314 161.021 4.96408C161.225 4.9459 161.733 4.96204 162.043 5.51123C169.135 18.0679 183.24 21.2351 183.836 21.3633C184.101 21.4204 184.364 21.4176 184.613 21.3636L184.614 21.3647Z" fill="#4E3923"/>
<path d="M142.223 26.8854C142.36 26.8556 142.495 26.8097 142.628 26.7467C143.547 26.3077 143.937 25.2064 143.498 24.286C142.286 21.7429 141.583 17.5224 141.465 12.0815C141.449 11.328 141.977 11.0068 142.206 10.904C142.439 10.8002 143.042 10.6105 143.61 11.1345C149.063 16.1626 153.933 19.0604 158.086 19.7481C159.091 19.9128 160.039 19.2324 160.206 18.2268C160.371 17.2214 159.691 16.2707 158.685 16.1038C155.302 15.5441 150.953 12.8866 146.109 8.41858C144.615 7.0396 142.537 6.70141 140.688 7.53685C138.849 8.36671 137.734 10.1378 137.778 12.1582C137.908 18.2046 138.713 22.8188 140.169 25.8745C140.544 26.6624 141.407 27.0622 142.224 26.8851L142.223 26.8854Z" fill="#4E3923"/>
<path d="M213.929 82.0576C213.594 81.5953 213.331 81.2697 213.008 80.9217C212.7 80.5762 212.365 80.2651 212.023 79.9638C211.682 79.6562 211.315 79.3911 210.948 79.1151C210.577 78.8485 210.183 78.6161 209.793 78.3688C208.201 77.4516 206.404 76.8174 204.527 76.5337C203.594 76.3557 202.628 76.3656 201.677 76.3651C200.724 76.4667 199.77 76.5342 198.859 76.8273C197.013 77.2783 195.346 78.2315 193.981 79.4332C193.147 80.1693 193.066 81.4433 193.801 82.2794C194.192 82.7236 194.735 82.9556 195.283 82.9643L195.711 82.9695C196.486 82.9784 197.164 82.8244 197.852 82.8028C198.194 82.7876 198.527 82.7638 198.853 82.7321C199.176 82.6844 199.51 82.7337 199.828 82.7096C200.466 82.6598 201.1 82.7349 201.723 82.7263C202.348 82.8008 202.969 82.8057 203.593 82.9207C204.84 83.0897 206.104 83.36 207.394 83.7379L208.37 84.0306C208.688 84.1483 209.031 84.2345 209.355 84.3543L210.355 84.6924C210.68 84.7968 211.048 84.9496 211.316 84.9979L212.005 85.1223C213.065 85.3141 214.077 84.6093 214.269 83.5498C214.366 83.0079 214.226 82.4726 213.927 82.0579L213.929 82.0576Z" fill="#4E3923"/>
<path d="M136.02 83.9674C136.29 83.9267 136.661 83.7836 136.988 83.6879L137.998 83.3769C138.325 83.2657 138.669 83.1887 138.991 83.0799L139.975 82.8135C141.276 82.4723 142.546 82.2359 143.796 82.1006C144.422 82.0026 145.044 82.0154 145.671 81.9574C146.292 81.9833 146.929 81.9257 147.564 81.9921C147.882 82.0248 148.216 81.9853 148.539 82.0418C148.864 82.0835 149.196 82.1153 149.538 82.1404C150.226 82.1802 150.898 82.3533 151.674 82.3656L152.095 82.3725C153.207 82.3899 154.122 81.5019 154.139 80.3882C154.147 79.7959 153.895 79.2542 153.495 78.8791C152.163 77.6388 150.522 76.6413 148.687 76.1403C147.785 75.8224 146.833 75.7289 145.883 75.6018C144.933 75.5764 143.967 75.5401 143.031 75.6924C141.146 75.9252 139.333 76.5095 137.718 77.3829C137.322 77.6198 136.923 77.841 136.545 78.0967C136.171 78.362 135.797 78.6167 135.449 78.9154C135.098 79.2064 134.756 79.5084 134.439 79.8453C134.107 80.1842 133.835 80.5029 133.489 80.9559C132.834 81.81 132.996 83.0349 133.849 83.6907C134.286 84.0258 134.819 84.1477 135.323 84.0727L136.022 83.9658L136.02 83.9674Z" fill="#4E3923"/>
<path d="M101.034 163.365C101.034 163.365 89.9404 165.447 81.8876 152.884C71.4465 136.595 79.6655 120.602 87.8073 117.965C96.3634 115.193 107.463 121.198 106.456 140.645C105.787 153.582 101.567 149.856 101.034 163.365Z" fill="#ECC18E"/>
<g opacity="0.3">
<path d="M101.036 163.363C101.566 149.855 105.788 153.584 106.455 140.647C107.142 127.398 102.211 120.39 96.2941 118.144C99.1074 121.909 100.861 127.744 100.432 135.99C99.9125 145.992 97.2747 146.033 95.8565 151.78C94.68 156.547 89.4111 159.058 85.0252 156.857C84.971 156.83 84.9153 156.802 84.8608 156.774C92.4206 164.98 101.034 163.365 101.034 163.365L101.036 163.363Z" fill="#4E3923"/>
</g>
<path d="M102.819 164.909L102.876 163.439C103.132 156.97 104.234 154.801 105.4 152.505C106.654 150.039 107.949 147.49 108.298 140.743C108.823 130.587 106.117 122.69 100.677 118.508C96.809 115.534 91.9141 114.695 87.2368 116.209C82.8065 117.643 78.7552 122.174 76.663 128.033C73.7295 136.244 75.0683 145.666 80.3337 153.881C88.9587 167.337 100.871 165.274 101.373 165.181L102.817 164.91L102.819 164.909ZM89.4891 119.421C92.6421 118.738 95.8482 119.447 98.4331 121.436C102.88 124.855 105.075 131.643 104.615 140.55C104.306 146.514 103.242 148.61 102.113 150.829C100.919 153.178 99.6886 155.602 99.2775 161.658C96.2686 161.695 89.1184 160.747 83.4385 151.887C77.0822 141.97 78.6417 133.465 80.1363 129.278C81.8267 124.546 85.0601 120.796 88.3749 119.722C88.7439 119.602 89.1163 119.502 89.488 119.422L89.4891 119.421Z" fill="#4E3923"/>
<path d="M96.872 125.111C95.0924 127.125 91.9519 127.158 90.1531 125.162C89.2431 124.152 88.5066 122.779 88.3207 120.926C87.8673 116.399 96.587 113.055 103.904 114.234C105.853 114.548 106.374 117.124 104.711 118.188C102.615 119.528 99.9007 121.684 96.8723 125.112L96.872 125.111Z" fill="white"/>
<g opacity="0.3">
<path d="M96.8709 125.113C99.8993 121.685 102.614 119.529 104.712 118.188C106.375 117.123 105.855 114.545 103.901 114.234C103.011 114.09 102.099 114.016 101.183 113.996C101.627 114.918 101.427 116.134 100.409 116.787C98.3154 118.128 95.6007 120.283 92.5723 123.712C91.9017 124.47 91.0415 124.947 90.1295 125.141C90.1374 125.145 90.1442 125.155 90.1518 125.162C91.9522 127.156 95.0903 127.122 96.8695 125.112L96.8709 125.113Z" fill="#4E3923"/>
</g>
<path d="M94.8296 128.342C96.1441 128.057 97.3491 127.359 98.2546 126.335C100.718 123.548 103.223 121.33 105.705 119.743C107.118 118.839 107.809 117.192 107.467 115.544C107.126 113.905 105.843 112.675 104.197 112.409C98.4315 111.481 91.8635 113.054 88.5782 116.152C86.6238 117.995 86.3616 119.864 86.4865 121.109C86.6916 123.154 87.4641 124.932 88.7857 126.398C89.9893 127.734 91.7136 128.495 93.514 128.487C93.9605 128.485 94.4015 128.435 94.8307 128.342L94.8296 128.342ZM96.7473 116.267C98.8527 115.811 101.248 115.674 103.612 116.055C103.671 116.065 103.812 116.086 103.855 116.294C103.901 116.515 103.763 116.602 103.718 116.631C100.949 118.402 98.1806 120.843 95.4912 123.887C94.978 124.469 94.2704 124.79 93.4951 124.794C92.7328 124.797 92.0314 124.489 91.5234 123.925C90.7298 123.045 90.2837 122.004 90.1576 120.743C90.0963 120.134 90.4162 119.493 91.1084 118.84C92.256 117.757 94.3051 116.797 96.7484 116.267L96.7473 116.267Z" fill="#4E3923"/>
<path d="M98.9845 133.522C97.0488 135.713 93.6327 135.749 91.6744 133.577C90.6849 132.478 89.8822 130.985 89.681 128.969C89.1872 124.043 98.6746 120.404 106.633 121.688C108.754 122.03 109.32 124.832 107.511 125.99C105.231 127.448 102.278 129.793 98.9833 133.522L98.9845 133.522Z" fill="white"/>
<g opacity="0.3">
<path d="M98.9814 133.522C102.277 129.792 105.229 127.447 107.511 125.991C109.32 124.831 108.753 122.027 106.632 121.687C104.996 121.423 103.291 121.366 101.625 121.492C103.01 122.333 103.189 124.5 101.651 125.485C99.3732 126.942 96.4211 129.286 93.1245 133.017C92.7961 133.384 92.4292 133.694 92.0326 133.937C94.0282 135.738 97.1605 135.584 98.9802 133.522L98.9814 133.522Z" fill="#4E3923"/>
</g>
<path d="M96.726 136.879C98.1228 136.576 99.4032 135.835 100.366 134.746C103.052 131.705 105.79 129.283 108.505 127.545C109.984 126.599 110.708 124.874 110.35 123.148C109.993 121.431 108.65 120.143 106.927 119.864C100.699 118.862 93.612 120.555 90.0711 123.894C88.4262 125.445 87.6576 127.264 87.8455 129.153C88.0643 131.342 88.8925 133.247 90.3057 134.815C91.5829 136.234 93.4141 137.042 95.3265 137.034C95.8001 137.032 96.27 136.979 96.7262 136.88L96.726 136.879ZM98.8174 123.745C101.127 123.244 103.753 123.094 106.34 123.512C106.557 123.546 106.691 123.677 106.736 123.898C106.771 124.057 106.758 124.28 106.515 124.435C103.514 126.356 100.514 129.002 97.601 132.299C97.0205 132.956 96.1843 133.337 95.3074 133.339C94.4309 133.344 93.6274 132.989 93.0434 132.341C92.1688 131.37 91.655 130.175 91.5153 128.786C91.4437 128.069 91.8089 127.328 92.6002 126.582C93.8662 125.388 96.1274 124.328 98.8174 123.745Z" fill="#4E3923"/>
<path d="M103.228 140.757C101.665 143.09 98.4167 143.561 96.2757 141.743C95.193 140.824 94.2392 139.504 93.7908 137.61C92.693 132.983 101.262 128.307 109.003 128.511C111.065 128.566 111.962 131.162 110.387 132.495C108.403 134.175 105.89 136.785 103.229 140.756L103.228 140.757Z" fill="white"/>
<g opacity="0.3">
<path d="M103.228 140.756C105.887 136.784 108.402 134.176 110.387 132.496C111.963 131.161 111.064 128.563 109.003 128.509C107.51 128.471 105.981 128.612 104.503 128.901C105.81 129.596 106.174 131.533 104.886 132.628C102.901 134.307 100.39 136.916 97.7307 140.888C97.4272 141.337 97.0615 141.718 96.6557 142.028C98.7826 143.503 101.754 142.955 103.229 140.756L103.228 140.756Z" fill="#4E3923"/>
</g>
<path d="M100.691 144.552C102.345 144.193 103.809 143.203 104.759 141.786C106.926 138.551 109.221 135.9 111.578 133.906C112.888 132.796 113.366 131.028 112.795 129.402C112.227 127.784 110.757 126.71 109.051 126.665C102.974 126.504 96.4175 129.034 93.4589 132.681C92.0761 134.386 91.5708 136.239 91.9959 138.036C92.4877 140.108 93.5261 141.829 95.0829 143.151C96.4969 144.352 98.3636 144.894 100.205 144.638C100.368 144.616 100.531 144.586 100.692 144.551L100.691 144.552ZM104.418 130.796C105.867 130.481 107.404 130.316 108.954 130.357C109.02 130.359 109.222 130.363 109.314 130.626C109.379 130.809 109.338 130.963 109.193 131.085C106.576 133.301 104.052 136.21 101.695 139.728C101.237 140.412 100.509 140.869 99.6933 140.981C98.8803 141.093 98.0889 140.864 97.4657 140.335C96.5217 139.533 95.8885 138.473 95.5818 137.184C95.428 136.535 95.6763 135.803 96.3203 135.009C97.7108 133.295 100.79 131.581 104.416 130.795L104.418 130.796Z" fill="#4E3923"/>
<path d="M101.034 163.365C101.034 163.365 89.9404 165.447 81.8876 152.884C71.4465 136.595 79.6655 120.602 87.8073 117.965C96.3634 115.193 107.463 121.198 106.456 140.645C105.787 153.582 101.567 149.856 101.034 163.365Z" fill="#ECC18E"/>
<g opacity="0.3">
<path d="M80.5262 150.568C75.4889 136.714 82.6051 124.387 89.667 122.1C95.0098 120.37 101.345 122.062 105.106 128.313C101.966 118.706 94.1813 115.897 87.8077 117.964C80.054 120.476 72.2249 135.107 80.5262 150.568Z" fill="white"/>
</g>
<g opacity="0.3">
<path d="M101.036 163.363C101.566 149.855 105.788 153.584 106.455 140.647C107.142 127.398 102.211 120.39 96.2941 118.144C99.1074 121.909 100.861 127.744 100.432 135.99C99.9125 145.992 97.2747 146.033 95.8565 151.78C94.68 156.547 89.4111 159.058 85.0252 156.857C84.971 156.83 84.9153 156.802 84.8608 156.774C92.4206 164.98 101.034 163.365 101.034 163.365L101.036 163.363Z" fill="#4E3923"/>
</g>
<path d="M102.819 164.909L102.876 163.439C103.132 156.97 104.234 154.801 105.4 152.505C106.654 150.039 107.949 147.49 108.298 140.743C108.823 130.587 106.117 122.69 100.677 118.508C96.809 115.534 91.9141 114.695 87.2368 116.209C82.8065 117.643 78.7552 122.174 76.663 128.033C73.7295 136.244 75.0683 145.666 80.3337 153.881C88.9587 167.337 100.871 165.274 101.373 165.181L102.817 164.91L102.819 164.909ZM89.4891 119.421C92.6421 118.738 95.8482 119.447 98.4331 121.436C102.88 124.855 105.075 131.643 104.615 140.55C104.306 146.514 103.242 148.61 102.113 150.829C100.919 153.178 99.6886 155.602 99.2775 161.658C96.2686 161.695 89.1184 160.747 83.4385 151.887C77.0822 141.97 78.6417 133.465 80.1363 129.278C81.8267 124.546 85.0601 120.796 88.3749 119.722C88.7439 119.602 89.1163 119.502 89.488 119.422L89.4891 119.421Z" fill="#4E3923"/>
<path d="M96.872 125.111C95.0924 127.125 91.9519 127.158 90.1531 125.162C89.2431 124.152 88.5066 122.779 88.3207 120.926C87.8673 116.399 96.587 113.055 103.904 114.234C105.853 114.548 106.374 117.124 104.711 118.188C102.615 119.528 99.9007 121.684 96.8723 125.112L96.872 125.111Z" fill="white"/>
<g opacity="0.3">
<path d="M96.8699 125.113C99.8984 121.685 102.613 119.529 104.711 118.188C106.374 117.123 105.854 114.545 103.9 114.234C103.01 114.09 102.098 114.016 101.182 113.996C101.626 114.918 101.426 116.134 100.408 116.787C98.3144 118.127 95.5997 120.283 92.5713 123.712C91.9007 124.47 91.0405 124.947 90.1285 125.141C90.1365 125.145 90.1432 125.154 90.1508 125.162C91.9513 127.156 95.0893 127.122 96.8686 125.112L96.8699 125.113Z" fill="#4E3923"/>
</g>
<path d="M94.8296 128.342C96.1441 128.057 97.3491 127.359 98.2546 126.335C100.718 123.548 103.223 121.33 105.705 119.743C107.118 118.839 107.809 117.192 107.467 115.544C107.126 113.905 105.843 112.675 104.197 112.409C98.4315 111.481 91.8635 113.054 88.5782 116.152C86.6238 117.995 86.3616 119.864 86.4865 121.109C86.6916 123.154 87.4641 124.932 88.7857 126.398C89.9893 127.734 91.7136 128.495 93.514 128.487C93.9605 128.485 94.4015 128.435 94.8307 128.342L94.8296 128.342ZM96.7473 116.267C98.8527 115.811 101.248 115.674 103.612 116.055C103.671 116.065 103.812 116.086 103.855 116.294C103.901 116.515 103.763 116.602 103.718 116.631C100.949 118.402 98.1806 120.843 95.4912 123.887C94.978 124.469 94.2704 124.79 93.4951 124.794C92.7328 124.797 92.0314 124.489 91.5234 123.925C90.7298 123.045 90.2837 122.004 90.1576 120.743C90.0963 120.134 90.4162 119.493 91.1084 118.84C92.256 117.757 94.3051 116.797 96.7484 116.267L96.7473 116.267Z" fill="#4E3923"/>
<path d="M98.9835 133.522C97.0478 135.713 93.6317 135.749 91.6734 133.577C90.6839 132.478 89.8812 130.985 89.68 128.969C89.1862 124.043 98.6736 120.404 106.632 121.688C108.753 122.03 109.319 124.832 107.51 125.99C105.23 127.448 102.277 129.793 98.9824 133.522L98.9835 133.522Z" fill="white"/>
<g opacity="0.3">
<path d="M98.9814 133.521C102.277 129.792 105.229 127.447 107.511 125.99C109.32 124.831 108.753 122.027 106.632 121.686C104.996 121.422 103.291 121.366 101.625 121.492C103.01 122.332 103.189 124.5 101.651 125.485C99.3732 126.941 96.4211 129.286 93.1245 133.017C92.7961 133.384 92.4292 133.694 92.0326 133.937C94.0282 135.737 97.1605 135.584 98.9802 133.522L98.9814 133.521Z" fill="#4E3923"/>
</g>
<path d="M96.725 136.879C98.1218 136.576 99.4023 135.835 100.365 134.746C103.051 131.705 105.789 129.283 108.504 127.545C109.983 126.599 110.707 124.874 110.349 123.148C109.992 121.431 108.649 120.143 106.926 119.864C100.698 118.862 93.611 120.555 90.0702 123.894C88.4252 125.445 87.6567 127.264 87.8445 129.153C88.0633 131.342 88.8915 133.247 90.3047 134.815C91.5819 136.234 93.4132 137.042 95.3255 137.034C95.7992 137.032 96.269 136.979 96.7252 136.88L96.725 136.879ZM98.8164 123.745C101.126 123.244 103.752 123.094 106.339 123.512C106.556 123.546 106.69 123.677 106.735 123.898C106.77 124.057 106.757 124.28 106.514 124.435C103.513 126.356 100.513 129.002 97.6 132.299C97.0196 132.956 96.1834 133.337 95.3064 133.339C94.4299 133.344 93.6264 132.989 93.0424 132.341C92.1678 131.37 91.654 130.175 91.5143 128.786C91.4427 128.069 91.8079 127.328 92.5992 126.582C93.8652 125.388 96.1264 124.328 98.8164 123.745Z" fill="#4E3923"/>
<path d="M103.227 140.757C101.664 143.09 98.4157 143.561 96.2747 141.743C95.192 140.824 94.2382 139.504 93.7898 137.61C92.6921 132.983 101.261 128.307 109.002 128.511C111.064 128.566 111.961 131.162 110.386 132.495C108.402 134.175 105.889 136.785 103.228 140.756L103.227 140.757Z" fill="white"/>
<g opacity="0.3">
<path d="M103.227 140.756C105.886 136.784 108.401 134.176 110.386 132.496C111.962 131.161 111.063 128.563 109.002 128.509C107.509 128.471 105.98 128.612 104.502 128.901C105.809 129.596 106.173 131.533 104.885 132.628C102.901 134.307 100.389 136.916 97.7297 140.888C97.4262 141.337 97.0605 141.718 96.6548 142.028C98.7816 143.503 101.753 142.955 103.228 140.756L103.227 140.756Z" fill="#4E3923"/>
</g>
<path d="M100.69 144.552C102.344 144.193 103.808 143.203 104.758 141.786C106.925 138.551 109.22 135.9 111.577 133.906C112.887 132.796 113.365 131.028 112.794 129.402C112.226 127.784 110.756 126.71 109.05 126.665C102.973 126.504 96.4166 129.034 93.458 132.681C92.0751 134.386 91.5698 136.239 91.9949 138.036C92.4867 140.108 93.5251 141.829 95.0819 143.151C96.4959 144.352 98.3626 144.894 100.204 144.638C100.367 144.616 100.53 144.586 100.691 144.551L100.69 144.552ZM104.417 130.796C105.866 130.481 107.403 130.316 108.953 130.357C109.019 130.359 109.221 130.363 109.313 130.626C109.378 130.809 109.337 130.963 109.192 131.085C106.575 133.301 104.052 136.21 101.694 139.728C101.236 140.412 100.508 140.869 99.6924 140.981C98.8794 141.093 98.0879 140.864 97.4647 140.335C96.5207 139.533 95.8875 138.473 95.5808 137.184C95.4271 136.535 95.6753 135.803 96.3193 135.009C97.7098 133.295 100.789 131.581 104.415 130.795L104.417 130.796Z" fill="#4E3923"/>
</g>
</g>
<defs>
<clipPath id="clip0_1072_112684">
<path d="M0 0H440V204C440 215.046 431.046 224 420 224H0V0Z" fill="white"/>
</clipPath>
<clipPath id="clip1_1072_112684">
<rect width="354.843" height="277" fill="white" transform="matrix(-0.977288 0.211915 0.211915 0.977288 397.028 -50)"/>
</clipPath>
</defs>
</svg>
