<svg width="440" height="224" viewBox="0 0 440 224" fill="none" xmlns="http://www.w3.org/2000/svg">
<g clip-path="url(#clip0_1690_123694)">
<g clip-path="url(#clip1_1690_123694)">
<path d="M532.096 171.812C532.096 171.812 400.908 190.757 359.683 168.317C359.683 168.317 353.302 162.478 346.877 151.433C345.593 149.227 340.461 148.879 336.461 150.401C332.46 151.923 331.574 155.206 331.553 156.902C331.532 158.535 333.885 162.838 335.643 165.229C335.643 165.229 328.041 162.596 326.59 162.924C324.285 163.446 305.586 178.145 317.24 199.018C330.92 223.518 495.754 239.809 536.338 223.311L532.096 171.812V171.812Z" fill="#B17E4F"/>
<path d="M317.241 199.019C330.92 223.519 495.756 239.811 536.337 223.313L532.097 171.813C532.097 171.813 508.676 175.196 478.517 177.408C453.955 179.211 424.919 180.239 400.426 178.031C383.823 176.536 369.303 173.554 359.685 168.316C359.685 168.316 353.302 162.479 346.878 151.432C345.594 149.228 340.461 148.878 336.462 150.4C332.463 151.922 331.575 155.205 331.552 156.903C331.533 158.535 333.88 162.834 335.641 165.224C335.423 165.15 328.021 162.6 326.592 162.922C324.286 163.444 305.588 178.143 317.242 199.018L317.241 199.019Z" fill="#B17E4F"/>
<path d="M351.449 168.408C351.449 168.408 342.501 166.659 338.998 163.61C336.251 161.219 334.406 157.576 334.775 155.863C335.004 154.798 337.762 153.134 338.998 154.387C340.234 155.642 340.419 162.798 351.449 168.408V168.408Z" fill="#8E5B39"/>
<path d="M378.521 202.829C361.635 200.967 325.864 195.559 314.517 182.892L312.375 184.88C325.33 197.507 360.539 201.55 378.521 202.829Z" fill="#5E3519"/>
<path d="M478.841 231.429C503.327 231.429 525.025 229.486 536.888 224.665C537.48 224.425 537.847 223.828 537.794 223.191L533.552 171.692C533.52 171.29 533.322 170.92 533.007 170.668C532.691 170.417 532.285 170.308 531.887 170.365C530.581 170.553 401.06 188.935 360.547 167.122C359.64 166.255 353.879 160.562 348.14 150.697C346.345 147.61 340.383 147.344 335.941 149.034C331.681 150.655 330.126 154.151 330.091 156.883C330.073 158.29 331.105 160.568 332.24 162.59C329.79 161.86 327.294 161.265 326.266 161.5C324.324 161.939 317.722 167.165 314.291 174.859C311.816 180.408 310.099 189.227 315.964 199.731C323.677 213.544 372.979 223.387 416.546 227.993C436.567 230.109 458.653 231.43 478.841 231.43V231.429ZM534.791 222.345C512.966 230.537 460.122 229.659 416.852 225.085C363.849 219.482 324.33 208.72 318.515 198.306C314.502 191.117 313.826 183.995 316.505 177.137C319.524 169.409 325.73 164.802 326.902 164.356C327.836 164.308 331.892 165.477 335.162 166.61C335.768 166.818 336.437 166.611 336.817 166.096C337.197 165.58 337.197 164.879 336.817 164.363C334.842 161.677 332.999 157.893 333.011 156.921C333.019 156.309 333.247 153.186 336.978 151.766C340.617 150.383 344.837 150.838 345.61 152.167C352.074 163.277 358.427 169.15 358.694 169.395C358.782 169.475 358.879 169.544 358.982 169.601C376.319 179.037 410.783 182.516 461.421 179.939C494.4 178.261 523.827 174.42 530.764 173.472L534.79 222.345H534.791Z" fill="#5E3519"/>
<path d="M355.553 169.988C349.528 171.285 340.875 168.542 336.627 164.149L334.658 166.309C339.845 170.424 349.332 172.231 355.553 169.988V169.988Z" fill="#5E3519"/>
<path d="M350.053 165.609C345.73 161.153 342.154 155.553 341.252 149.341L339.097 149.748C340.768 156.125 345.035 161.499 350.052 165.61L350.053 165.609Z" fill="#5E3519"/>
<path d="M481.979 210.517C485.045 211.884 488.917 212.682 491.95 210.789C495.778 208.259 493.261 203.728 489.907 202.172C483.984 199.124 473.814 201.185 471.308 207.923C469.432 214.256 478.91 217.163 483.613 217.819C489.213 218.581 495.221 217.874 500.03 214.649C506.135 210.609 506.323 203.92 500.544 199.417C488.775 190.941 472.499 195.525 460.426 200.975C457.918 202.11 455.461 203.346 453.048 204.657C450.647 206.01 448.43 207.233 445.829 208.064C430.311 212.774 413.676 212.804 397.54 212.482C389.392 212.201 381.252 211.556 373.159 210.552C359.66 208.915 346.238 206.34 333.331 201.951C346.088 206.807 359.535 209.645 373.014 211.636C386.544 213.513 400.209 214.438 413.874 214.229C424.846 213.964 435.891 213.28 446.474 209.989C449.097 209.185 451.691 207.814 454.039 206.496C456.423 205.22 458.836 204.004 461.296 202.9C472.847 197.78 487.961 193.278 499.193 201.131C503.809 204.699 503.77 209.617 498.838 212.908C494.536 215.829 488.987 216.568 483.867 215.924C480.369 215.5 471.413 213.221 472.83 208.38C475.001 202.483 484.158 200.556 489.484 203.033C493.59 204.822 494.996 209.597 489.894 211.212C487.309 211.965 484.467 211.468 481.978 210.516L481.979 210.517Z" fill="#5E3519"/>
<path d="M526.53 218.474C523.572 216.947 520.52 215.907 517.214 215.49C515.556 215.3 513.848 215.31 512.12 215.741C510.434 216.182 508.97 216.882 507.535 217.573C504.683 218.978 501.971 220.449 499.154 221.666C490.003 225.663 481.915 225.985 472.533 222.556C469.603 221.555 466.718 220.367 463.78 219.236C460.825 218.102 457.714 216.968 454.505 216.85C448.177 216.572 441.941 217.123 435.652 217.498C423.16 218.32 410.669 219.328 398.146 219.175C391.905 219.04 385.595 218.743 379.536 217.123C385.56 218.899 391.888 219.337 398.135 219.594C410.669 220.019 423.208 219.229 435.716 218.595C441.925 218.323 448.223 217.874 454.409 218.245C457.503 218.407 460.332 219.589 463.182 220.742C466.061 221.931 468.942 223.199 471.914 224.297C477.944 226.621 484.389 227.857 490.85 226.609C495.626 225.811 500.129 224.006 504.42 221.868C506.673 220.766 510.348 218.684 512.719 218.081C514.033 217.741 515.508 217.725 516.958 217.861C519.874 218.16 522.863 219.155 525.5 220.408L526.53 218.472V218.474Z" fill="#5E3519"/>
<path d="M516.782 189.962C510.831 188.117 504.59 187.592 498.401 187.388C486.197 187.163 473.914 189.034 462.157 192.197C452.438 194.593 442.365 195.2 432.386 195.739C420.324 196.416 408.241 195.755 396.194 195.241C378.638 194.494 361.009 193.005 343.852 189.067C341.478 188.478 338.894 187.831 336.564 187.132C332.716 185.964 328.917 184.611 325.254 182.9C328.782 184.873 332.53 186.44 336.334 187.831C347.795 191.908 359.832 194.17 371.853 195.859C387.916 198.05 404.145 198.936 420.342 198.303C432.505 198.04 444.684 197.648 456.722 195.685C460.253 195.145 465.071 193.82 468.587 193.006C478.359 190.853 488.34 189.719 498.323 190.028C503.751 190.276 509.2 190.833 514.441 192.292C514.9 192.418 515.386 192.571 515.775 192.708L516.78 189.963L516.782 189.962Z" fill="#5E3519"/>
<path d="M523.119 177.238C506.703 178.321 490.33 179.756 473.99 181.669C465.821 182.665 457.76 183.733 449.555 184.175C429.141 185.506 408.6 185.382 388.225 183.472C373.994 182.079 359.757 179.877 346.1 175.542C340.24 173.691 334.524 171.37 329.132 168.408C332.602 170.618 336.279 172.498 340.053 174.14C373.193 187.851 414.249 188.444 449.72 186.75C457.927 186.3 466.155 185.207 474.289 184.204C490.576 182.307 506.922 180.744 523.271 179.424L523.119 177.237L523.119 177.238Z" fill="#5E3519"/>
<path d="M361.441 188.477C348.735 185.696 327.436 180.436 317.465 172.428L315.645 174.715C326.442 182.426 348.163 186.407 361.44 188.477H361.441Z" fill="#5E3519"/>
</g>
<path fill-rule="evenodd" clip-rule="evenodd" d="M74.0232 74.3049C73.7295 68.3495 71.3643 65.8388 66.9258 66.7718C71.6862 65.1227 74.2728 61.678 74.6811 56.4361C75.1608 62.111 76.877 65.2408 79.826 65.8291C76.1503 67.6854 74.2146 70.511 74.0223 74.3049" fill="#FEDA24"/>
<path d="M74.0237 75.2332C73.5298 75.2332 73.1233 74.8451 73.0986 74.3522C72.9469 71.2691 72.2246 69.2081 70.9529 68.2257C70.0261 67.5105 68.7712 67.3315 67.1176 67.6798C66.6396 67.7804 66.1643 67.492 66.0338 67.0202C65.9033 66.5484 66.1617 66.0571 66.6238 65.8966C71.0438 64.3657 73.3781 61.2473 73.7591 56.3652C73.797 55.8837 74.1974 55.5116 74.6798 55.5107H74.6824C75.1639 55.5107 75.5652 55.8793 75.6058 56.3591C76.0441 61.5454 77.5256 64.4257 80.0081 64.9213C80.3962 64.9989 80.6916 65.3137 80.7454 65.7053C80.7983 66.0968 80.5981 66.4796 80.2445 66.6577C76.8572 68.3677 75.1251 70.8855 74.9488 74.353C74.9241 74.846 74.5166 75.2332 74.0228 75.2332H74.0237ZM70.6099 65.9681C71.147 66.1515 71.639 66.4143 72.0844 66.7582C73.0218 67.4814 73.7256 68.5247 74.2053 69.9083C74.9849 68.3721 76.1666 67.0598 77.7452 65.9804C76.3104 65.0615 75.2451 63.4274 74.5572 61.0913C73.7159 63.1046 72.3975 64.7334 70.6099 65.9681Z" fill="#4E3823"/>
<path fill-rule="evenodd" clip-rule="evenodd" d="M356.731 80.9093C356.237 70.8616 352.246 66.6262 344.758 68.1997C352.789 65.4177 357.153 59.6053 357.843 50.7635C358.653 60.338 361.547 65.6178 366.523 66.6099C360.322 69.7407 357.057 74.5086 356.731 80.9093Z" fill="#FEDA24"/>
<path d="M356.731 82.1156C356.089 82.1156 355.561 81.6115 355.529 80.9715C355.267 75.6591 354.003 72.0928 351.77 70.3689C350.117 69.0943 347.905 68.7705 345.006 69.3803C344.385 69.5126 343.768 69.1355 343.599 68.524C343.429 67.9115 343.765 67.2734 344.365 67.0655C351.972 64.4303 355.989 59.068 356.643 50.6728C356.692 50.0475 357.213 49.5648 357.84 49.5631H357.844C358.469 49.5631 358.991 50.0415 359.043 50.6651C359.798 59.5937 362.395 64.5617 366.76 65.4327C367.263 65.5332 367.648 65.942 367.717 66.4505C367.786 66.9599 367.525 67.4563 367.066 67.6874C361.226 70.6361 358.238 74.9822 357.935 80.9733C357.903 81.6132 357.374 82.1156 356.733 82.1156H356.731ZM350.124 66.9727C351.283 67.2596 352.324 67.7561 353.239 68.463C354.954 69.7857 356.192 71.7741 356.973 74.478C358.311 71.4271 360.553 68.8761 363.688 66.8473C360.88 65.291 358.874 62.1524 357.689 57.4627C356.24 61.5091 353.712 64.6871 350.124 66.9719V66.9727Z" fill="#4E3823"/>
<path fill-rule="evenodd" clip-rule="evenodd" d="M297.79 127.253C297.424 119.832 294.477 116.704 288.946 117.867C294.878 115.811 298.101 111.519 298.61 104.989C299.208 112.06 301.347 115.96 305.021 116.693C300.44 119.005 298.029 122.526 297.79 127.254" fill="#FEDA24"/>
<path d="M297.79 128.153C297.309 128.153 296.913 127.775 296.889 127.294C296.695 123.375 295.763 120.744 294.117 119.475C292.901 118.536 291.27 118.299 289.132 118.747C288.667 118.845 288.204 118.564 288.077 118.105C287.95 117.645 288.201 117.167 288.651 117.01C294.265 115.066 297.228 111.11 297.711 104.915C297.747 104.446 298.137 104.084 298.607 104.083H298.61C299.079 104.083 299.47 104.442 299.509 104.909C300.067 111.496 301.98 115.162 305.197 115.804C305.575 115.879 305.863 116.186 305.915 116.567C305.967 116.949 305.772 117.321 305.427 117.495C301.118 119.671 298.915 122.876 298.691 127.296C298.667 127.776 298.27 128.153 297.789 128.153L297.79 128.153ZM292.944 116.95C293.79 117.163 294.549 117.528 295.219 118.045C296.48 119.018 297.392 120.476 297.971 122.458C298.959 120.223 300.605 118.353 302.901 116.864C300.843 115.714 299.37 113.411 298.495 109.978C297.425 112.94 295.57 115.269 292.944 116.949V116.95Z" fill="#4E3823"/>
<path d="M229.533 174.034C229.499 175.021 229.423 176 229.307 176.97C228.985 179.689 228.352 182.349 227.428 184.897C224.226 193.734 217.564 201.225 208.51 205.278L208.003 205.504C197.742 210.104 186.796 212.527 175.809 212.789C174.358 212.823 172.907 212.819 171.453 212.778C160.462 212.465 149.516 209.987 139.275 205.333C130.208 201.218 123.563 193.645 120.422 184.739C120.114 183.872 119.84 182.989 119.607 182.098C119.149 180.411 118.82 178.685 118.622 176.932C118.502 175.89 118.427 174.842 118.403 173.787C118.396 173.498 118.393 173.213 118.393 172.924C118.393 170.28 118.687 167.606 119.303 164.938C121.479 155.506 124.305 147.012 126.858 140.333C128.326 136.493 129.701 133.248 130.803 130.773C130.892 130.577 130.978 130.388 131.06 130.202C131.956 128.219 132.647 126.789 133.034 126.012C133.253 125.569 133.373 125.335 133.373 125.335H214.601C214.601 125.335 214.737 125.596 214.984 126.098C215.408 126.957 216.164 128.525 217.129 130.684C217.211 130.869 217.297 131.058 217.386 131.254C218.645 134.101 220.219 137.868 221.868 142.333C224.198 148.634 226.679 156.328 228.636 164.777C229.355 167.871 229.642 170.982 229.533 174.034Z" fill="#DCAE88"/>
<path d="M173.829 214.181C161.844 214.181 149.862 211.649 138.711 206.587C134.792 204.808 131.248 202.385 128.178 199.386C125.188 196.465 122.73 193.08 120.869 189.323C119.007 185.564 117.804 181.553 117.295 177.403C116.771 173.133 116.998 168.836 117.968 164.628C119.845 156.492 122.405 148.152 125.579 139.841C129.092 130.645 132.035 124.938 132.158 124.7L132.542 123.96H215.43L215.813 124.7C215.848 124.767 219.325 131.505 223.149 141.856C225.957 149.447 228.251 157.054 229.969 164.465C230.948 168.691 231.176 173.007 230.648 177.295C230.134 181.463 228.922 185.489 227.043 189.261C225.167 193.03 222.689 196.423 219.676 199.346C216.582 202.349 213.012 204.767 209.066 206.535L208.557 206.763C197.514 211.709 185.669 214.182 173.827 214.182L173.829 214.181ZM134.216 126.71C133.313 128.54 130.876 133.65 128.135 140.826C125.006 149.019 122.484 157.236 120.635 165.249C119.737 169.141 119.528 173.117 120.012 177.066C120.484 180.906 121.596 184.618 123.32 188.098C125.043 191.576 127.319 194.71 130.087 197.413C132.928 200.19 136.209 202.433 139.838 204.08C150.63 208.98 162.23 211.43 173.829 211.431C185.292 211.431 196.754 209.038 207.444 204.25L207.953 204.022C215.159 200.794 221.07 195.115 224.596 188.031C226.334 184.539 227.456 180.813 227.932 176.957C228.421 172.991 228.209 168.997 227.303 165.088C225.611 157.79 223.351 150.296 220.584 142.814C217.545 134.591 214.74 128.703 213.757 126.71H134.216Z" fill="#4E3823"/>
<path d="M170.94 210.207C176.848 211.836 182.793 212.964 183.292 213.87C184.707 216.435 169.362 222.891 160.516 219.325" fill="white"/>
<path d="M166.65 218.749C164.444 218.749 162.12 218.454 160.006 217.601C157.744 216.689 156.519 215.355 156.362 213.633C156.212 211.969 157.151 210.131 159.155 208.175C160.772 206.595 162.669 205.333 163.41 204.863C165.252 203.695 166.999 204.353 168.848 205.05C169.565 205.32 170.378 205.627 171.302 205.882C173.119 206.383 174.977 206.845 176.616 207.253C182.484 208.714 183.914 209.161 184.49 210.205C185.187 211.468 184.335 212.66 183.936 213.113C182.404 214.857 178.373 216.754 173.907 217.833C172.153 218.257 169.5 218.75 166.651 218.75L166.65 218.749ZM164.14 206.025L164.87 207.188C161.395 209.392 158.963 211.998 159.089 213.384C159.157 214.143 160.179 214.708 161.025 215.05C164.265 216.355 169.041 216.315 174.131 214.938C176.206 214.377 178.194 213.618 179.727 212.802C180.746 212.261 181.352 211.807 181.686 211.495C180.508 211.056 178.028 210.438 175.957 209.923C174.302 209.512 172.426 209.045 170.577 208.535C169.532 208.247 168.657 207.917 167.885 207.626C166.13 206.964 165.508 206.784 164.87 207.189L164.14 206.026V206.025Z" fill="#4E3823"/>
<path d="M174.598 201.813C180.515 203.408 186.466 204.502 186.97 205.405C188.4 207.961 173.092 214.506 164.226 210.991" fill="white"/>
<path d="M170.234 213.381C168.07 213.381 165.799 213.093 163.724 212.27C161.457 211.371 160.224 210.044 160.059 208.323C159.899 206.659 160.828 204.817 162.82 202.848C164.427 201.26 166.318 199.986 167.055 199.512C168.89 198.334 170.641 198.982 172.494 199.668C173.213 199.935 174.027 200.237 174.953 200.486C176.773 200.976 178.633 201.428 180.275 201.826C186.151 203.253 187.584 203.692 188.165 204.732C188.869 205.992 188.024 207.188 187.628 207.644C186.106 209.397 182.087 211.317 177.627 212.422C175.846 212.862 173.137 213.381 170.235 213.381H170.234ZM169.268 201.611C168.988 201.611 168.759 201.682 168.53 201.83C165.066 204.054 162.65 206.674 162.783 208.059C162.856 208.818 163.882 209.378 164.729 209.714C167.976 211.001 172.753 210.932 177.834 209.526C179.906 208.953 181.89 208.183 183.419 207.358C184.434 206.811 185.037 206.354 185.371 206.04C184.189 205.608 181.706 205.004 179.632 204.501C177.975 204.099 176.097 203.642 174.244 203.143C173.197 202.861 172.32 202.536 171.547 202.25C170.424 201.834 169.763 201.611 169.268 201.611V201.611Z" fill="#4E3823"/>
<path d="M165.808 192.122C167.582 190.924 169.322 192.297 172.639 193.11C178.592 194.569 184.565 195.526 185.089 196.417C186.576 198.941 171.421 205.834 162.477 202.522C155.421 199.911 163.194 193.887 165.808 192.122Z" fill="white"/>
<path d="M167.993 204.779C165.995 204.779 163.922 204.521 162.004 203.812C159.718 202.965 158.455 201.666 158.25 199.949C158.051 198.289 158.939 196.427 160.886 194.413C162.458 192.787 164.318 191.471 165.045 190.98C166.853 189.76 168.618 190.368 170.486 191.012C171.21 191.261 172.032 191.545 172.963 191.773C174.793 192.221 176.663 192.63 178.313 192.991C184.221 194.284 185.663 194.689 186.268 195.715C187 196.958 186.182 198.174 185.796 198.639C184.314 200.426 180.34 202.437 175.905 203.644C174.025 204.155 171.099 204.778 167.992 204.778L167.993 204.779ZM166.572 193.264C163.16 195.567 160.803 198.241 160.968 199.623C161.058 200.379 162.097 200.915 162.951 201.232C166.227 202.444 171.001 202.266 176.05 200.744C178.108 200.124 180.073 199.308 181.583 198.449C182.586 197.878 183.179 197.407 183.505 197.086C182.314 196.68 179.817 196.135 177.731 195.678C176.066 195.314 174.179 194.902 172.316 194.444C171.263 194.186 170.379 193.881 169.599 193.613C167.826 193.002 167.199 192.84 166.573 193.263L166.572 193.264Z" fill="#4E3823"/>
<path d="M199 120L200.54 124.923L203.472 134.3L208.245 149.559C208.245 149.559 213.563 166.809 225.871 176.519C229.857 179.668 234.579 182.023 240.091 182.745C277.477 187.633 265.186 159.452 265.186 159.452C265.186 159.452 246.849 157.036 240.687 154.922C232.317 152.048 228.591 139.061 216.283 129.051C214.805 127.851 213.203 126.693 211.458 125.6C211.092 125.369 210.719 125.146 210.343 124.923C207.092 123.011 203.356 121.327 199 120Z" fill="#DCAE88"/>
<path d="M145.493 120.412L143.953 125.335L141.021 134.712L136.248 149.971C136.248 149.971 130.93 167.221 118.622 176.932C114.636 180.081 109.914 182.435 104.402 183.157C67.0164 188.045 79.3071 159.865 79.3071 159.865C79.3071 159.865 97.644 157.448 103.807 155.334C112.176 152.46 115.902 139.473 128.21 129.463C129.688 128.264 131.29 127.105 133.035 126.012C133.401 125.782 133.774 125.558 134.15 125.335C137.401 123.424 141.137 121.739 145.493 120.412Z" fill="#DCAE88"/>
<path d="M229.219 177.662L243.077 155.334C234.708 152.46 230.982 139.473 218.674 129.463C217.662 128.642 216.591 127.841 215.457 127.066C215.272 126.682 215.113 126.357 214.985 126.098C214.739 125.596 214.602 125.335 214.602 125.335H212.734C209.483 123.424 205.747 121.739 201.391 120.412L202.931 125.335H143.954L145.494 120.412C141.138 121.739 137.402 123.424 134.151 125.335H133.374C133.374 125.335 133.254 125.569 133.035 126.012C131.29 127.105 129.689 128.264 128.211 129.463C115.903 139.473 112.278 152.777 103.807 155.334C103.321 155.481 118.623 176.932 118.623 176.932L148.316 196.327L201.951 196.473L229.219 177.662Z" fill="#ACD13F"/>
<path d="M202.347 197.763L147.933 197.615L117.721 177.881L117.58 177.683C117.542 177.631 113.781 172.357 110.09 167.084C107.921 163.985 106.199 161.49 104.972 159.67C104.238 158.582 103.674 157.722 103.294 157.115C102.686 156.144 102.351 155.608 102.582 154.928C102.717 154.531 103.036 154.22 103.437 154.1C107.519 152.868 110.463 148.738 114.192 143.511C117.618 138.707 121.5 133.263 127.402 128.462C128.886 127.258 130.446 126.133 132.047 125.114C132.167 124.872 132.232 124.746 132.232 124.746L132.591 124.047H133.805C137.249 122.056 141.054 120.418 145.122 119.179L147.447 118.471L145.703 124.046H201.182L199.438 118.471L201.763 119.179C205.83 120.418 209.635 122.055 213.079 124.046H215.377L215.738 124.735C215.744 124.746 215.885 125.017 216.137 125.528C216.229 125.716 216.338 125.94 216.463 126.196C217.499 126.914 218.513 127.676 219.481 128.461C225.438 133.306 229.361 138.738 232.822 143.53C236.536 148.671 239.469 152.733 243.494 154.115L245.023 154.64L230.168 178.572L202.35 197.764L202.347 197.763ZM148.697 195.039L201.554 195.182L228.272 176.751L241.19 155.936C237.165 153.934 234.163 149.777 230.743 145.043C227.375 140.38 223.557 135.095 217.865 130.465C216.864 129.653 215.811 128.868 214.734 128.131L214.45 127.937L214.3 127.626C214.118 127.246 213.961 126.926 213.835 126.67C213.827 126.655 213.819 126.639 213.811 126.624H212.385L212.084 126.448C209.399 124.869 206.475 123.518 203.362 122.417L204.677 126.625H142.205L143.52 122.417C140.407 123.518 137.483 124.869 134.798 126.448L134.497 126.624H134.165L134.022 126.913L133.713 127.106C132.093 128.121 130.512 129.252 129.016 130.466C123.384 135.047 119.609 140.34 116.278 145.012C112.817 149.865 109.781 154.123 105.634 156.017C107.803 159.412 114.865 169.45 119.524 175.984L148.697 195.04L148.697 195.039Z" fill="#4E3823"/>
<g opacity="0.35">
<path d="M227.095 188.102C223.876 196.984 217.182 204.511 208.084 208.584L207.575 208.811C197.262 213.433 186.262 215.869 175.221 216.132C174.402 215.081 173.656 213.824 173.03 212.439C172.404 213.821 171.661 215.075 170.843 216.121C159.797 215.807 148.797 213.316 138.506 208.639C129.394 204.503 122.716 196.894 119.559 187.943C118.318 184.437 119.544 183.23 119.452 179.44C119.573 179.4 125.835 172.097 130.455 164.672C134.117 158.79 136.431 151.998 136.067 154.554C135.169 160.856 133.158 169.094 128.678 175.997C128.561 176.18 128.441 176.363 128.317 176.543C138.045 178.056 135.135 180.868 165.409 190.302C169.081 191.446 171.53 193.477 173.029 195.957C174.525 193.477 176.973 191.445 180.646 190.302C211.779 180.601 207.818 177.9 218.601 176.418C218.504 176.28 218.415 176.138 218.322 175.997C214.343 169.865 212.311 162.68 211.278 156.733C210.09 149.901 217.194 164.002 217.194 166.658C217.194 166.949 223.132 175.004 223.125 175.294C223.125 175.328 225.877 178.023 225.874 178.058C226.008 178.106 228.353 184.626 227.095 188.101L227.095 188.102Z" fill="#4E3823"/>
</g>
<path d="M167.262 217.898C155.727 225.436 126.613 224.228 114.741 212.323C94.931 192.458 111 180 123.868 175.682C138.104 177.103 131.02 179.427 164.346 189.811C179.139 194.42 173.95 213.526 167.262 217.897L167.262 217.898Z" fill="#D3A17F"/>
<path d="M167.262 216.898C155.728 224.436 126.613 223.228 114.742 211.323C94.9318 191.458 109.5 182.5 123.869 174.682C138.105 176.103 131.021 178.427 164.347 188.811C179.14 193.42 173.951 212.526 167.263 216.897L167.262 216.898Z" fill="#D3A17F"/>
<path d="M167.261 217.898C155.727 225.436 126.615 224.229 114.742 212.322C101.281 198.823 104.058 187.825 111.5 181.5C115.011 178.516 123.871 175.682 123.871 175.682C135.539 176.847 132.88 178.621 149.903 184.939C153.646 186.331 158.337 187.94 164.346 189.813C179.141 194.419 173.951 213.525 167.261 217.898Z" fill="#DCAE88"/>
<path d="M146.485 224C144.676 224 142.844 223.924 141.015 223.772C129.377 222.806 119.449 218.987 113.774 213.296C108.819 208.328 105.639 203.175 104.321 197.979C103.149 193.361 103.518 188.821 105.387 184.851C107.013 181.396 111.613 180.632 115 178.72C118.376 176.815 120.215 173.935 124.004 174.313C131.23 175.035 133.263 176.037 137.312 178.034C141.516 180.106 147.869 183.238 164.752 188.498C167.855 189.465 170.332 191.085 172.114 193.313C173.699 195.296 174.696 197.703 175.079 200.469C175.554 203.911 175.032 207.789 173.608 211.387C172.25 214.818 170.209 217.611 168.008 219.05C165.063 220.975 160.94 222.423 156.085 223.237C153.065 223.743 149.814 223.999 146.486 223.999L146.485 224ZM122.184 176.974C119.481 176.974 116.815 177.68 114.393 179.046C111.503 180.677 109.244 183.091 107.862 186.028C106.269 189.412 105.962 193.31 106.974 197.3C108.168 202.009 111.107 206.737 115.708 211.35C118.401 214.05 122.133 216.282 126.801 217.984C131.094 219.549 136.087 220.604 141.241 221.032C151.483 221.883 161.169 220.24 166.516 216.745C170.001 214.468 173.244 207.185 172.367 200.848C171.899 197.464 170.057 193.031 163.941 191.125C146.855 185.802 140.387 182.613 136.106 180.504C132.118 178.537 130.468 177.724 123.733 177.051C123.217 177 122.7 176.974 122.184 176.974Z" fill="#4E3823"/>
<g opacity="0.35">
<path d="M167.261 217.898C155.726 225.436 126.614 224.229 114.741 212.322C105.783 203.34 103.792 194.691 105.656 188.043C106.816 192.622 109.66 197.613 114.741 202.707C126.614 214.611 155.726 215.818 167.261 208.279C169.82 206.609 172.161 202.779 173.242 198.431C175.425 205.743 171.668 215.017 167.261 217.898Z" fill="#4E3823"/>
</g>
<path d="M177.134 210.207C171.226 211.836 165.281 212.964 164.782 213.87C163.367 216.435 178.712 222.891 187.558 219.325" fill="white"/>
<path d="M181.423 221.749C178.574 221.749 175.921 221.256 174.167 220.832C169.701 219.753 165.671 217.856 164.138 216.113C163.74 215.659 162.888 214.467 163.584 213.204C164.159 212.161 165.589 211.713 171.457 210.253C173.096 209.845 174.954 209.383 176.771 208.882C177.696 208.627 178.509 208.321 179.226 208.05C181.075 207.353 182.822 206.695 184.664 207.863C185.404 208.333 187.302 209.595 188.918 211.175C190.922 213.132 191.862 214.969 191.711 216.633C191.555 218.355 190.329 219.69 188.067 220.601C185.953 221.454 183.628 221.749 181.422 221.749H181.423ZM166.387 214.494C166.722 214.806 167.327 215.26 168.345 215.802C169.879 216.618 171.867 217.376 173.942 217.937C179.031 219.314 183.808 219.355 187.048 218.049C187.893 217.708 188.915 217.143 188.984 216.383C189.11 214.997 186.678 212.392 183.202 210.187C182.564 209.782 181.943 209.963 180.188 210.624C179.416 210.915 178.541 211.244 177.496 211.533C175.646 212.043 173.771 212.51 172.116 212.922C170.045 213.437 167.565 214.054 166.387 214.494V214.494Z" fill="#4E3823"/>
<path d="M173.476 201.813C167.558 203.408 161.608 204.502 161.103 205.405C159.674 207.961 174.982 214.506 183.848 210.991" fill="white"/>
<path d="M177.841 213.381C174.939 213.381 172.23 212.862 170.449 212.422C165.989 211.316 161.97 209.397 160.448 207.644C160.052 207.188 159.207 205.992 159.911 204.732C160.491 203.692 161.924 203.253 167.801 201.826C169.443 201.428 171.302 200.976 173.123 200.486C174.049 200.237 174.863 199.935 175.582 199.668C177.435 198.982 179.186 198.334 181.021 199.512C181.759 199.986 183.649 201.26 185.256 202.848C187.248 204.817 188.177 206.659 188.017 208.323C187.851 210.044 186.618 211.372 184.352 212.27C182.277 213.093 180.006 213.381 177.842 213.381H177.841ZM162.705 206.039C163.039 206.353 163.642 206.81 164.656 207.357C166.186 208.182 168.169 208.952 170.241 209.525C175.323 210.931 180.099 211 183.346 209.713C184.194 209.377 185.218 208.817 185.292 208.059C185.425 206.673 183.009 204.054 179.545 201.829C178.91 201.421 178.288 201.597 176.528 202.248C175.755 202.534 174.878 202.859 173.831 203.141C171.978 203.64 170.1 204.097 168.443 204.499C166.369 205.003 163.886 205.606 162.704 206.038L162.705 206.039Z" fill="#4E3823"/>
<path d="M182.266 192.122C180.492 190.924 178.752 192.297 175.435 193.11C169.482 194.569 163.509 195.526 162.985 196.417C161.498 198.941 176.653 205.834 185.597 202.522C192.652 199.911 184.88 193.887 182.266 192.122Z" fill="white"/>
<path d="M180.082 204.779C176.976 204.779 174.05 204.157 172.17 203.645C167.736 202.438 163.761 200.426 162.279 198.64C161.894 198.175 161.076 196.959 161.808 195.716C162.413 194.69 163.855 194.284 169.763 192.992C171.413 192.631 173.282 192.222 175.112 191.773C176.044 191.545 176.865 191.262 177.59 191.013C179.458 190.369 181.223 189.761 183.03 190.981C183.757 191.472 185.618 192.788 187.189 194.413C189.137 196.427 190.024 198.29 189.826 199.95C189.621 201.667 188.358 202.966 186.071 203.812C184.154 204.522 182.081 204.779 180.082 204.78V204.779ZM164.572 197.087C164.898 197.408 165.491 197.878 166.493 198.45C168.003 199.309 169.969 200.125 172.027 200.745C177.076 202.267 181.85 202.445 185.125 201.233C185.98 200.916 187.017 200.38 187.108 199.624C187.273 198.242 184.916 195.568 181.504 193.264C180.878 192.842 180.252 193.004 178.479 193.615C177.698 193.884 176.815 194.188 175.762 194.446C173.899 194.902 172.011 195.316 170.345 195.68C168.26 196.136 165.763 196.682 164.572 197.088V197.087Z" fill="#4E3823"/>
<path d="M180.813 217.898C192.347 225.436 221.462 224.228 233.333 212.323C253.143 192.457 240 182.5 224.206 175.682C209.97 177.103 217.054 179.427 183.728 189.811C168.935 194.419 174.124 213.526 180.812 217.897L180.813 217.898Z" fill="#D3A17F"/>
<path d="M180.813 216.898C192.347 224.436 221.462 223.228 233.333 211.323C253.143 191.457 241 184.5 224.206 174.682C209.97 176.103 217.054 178.427 183.728 188.811C168.935 193.419 174.124 212.526 180.812 216.897L180.813 216.898Z" fill="#D3A17F"/>
<path d="M180.813 217.898C192.347 225.436 221.462 224.228 233.333 212.323C253.143 192.457 243.5 184 224.206 175.682C209.97 177.103 217.054 179.427 183.728 189.811C168.935 194.419 174.124 213.526 180.812 217.897L180.813 217.898Z" fill="#DCAE88"/>
<path d="M201.589 224C198.26 224 195.011 223.744 191.99 223.238C187.135 222.424 183.012 220.976 180.066 219.051C177.865 217.612 175.824 214.819 174.467 211.388C173.042 207.789 172.521 203.912 172.997 200.47C173.379 197.704 174.377 195.296 175.962 193.314C177.744 191.086 180.22 189.466 183.324 188.499C200.206 183.239 206.559 180.107 210.763 178.034C214.813 176.038 216.845 175.036 224.072 174.314C227.86 173.936 229.624 177.595 233 179.5C236.388 181.412 241.062 181.397 242.688 184.852C244.557 188.821 244.926 193.361 243.754 197.98C242.435 203.175 239.256 208.329 234.301 213.297C228.626 218.988 218.697 222.806 207.06 223.773C205.23 223.925 203.398 224.001 201.59 224.001L201.589 224ZM181.559 216.745C186.906 220.24 196.591 221.882 206.833 221.032C211.987 220.604 216.98 219.55 221.274 217.984C225.942 216.283 229.674 214.05 232.366 211.35C236.967 206.737 239.905 202.009 241.1 197.3C242.112 193.309 241.806 189.411 240.212 186.027C238.83 183.091 235.257 182.631 232.366 181C229.483 179.372 227.568 176.728 224.341 177.051C217.606 177.724 215.955 178.537 211.968 180.503C207.688 182.613 201.22 185.801 184.133 191.125C178.017 193.031 176.175 197.465 175.707 200.848C174.984 206.075 177.334 213.984 181.559 216.745Z" fill="#4E3823"/>
<g opacity="0.35">
<path d="M233.333 212.322C221.46 224.229 192.348 225.436 180.814 217.898C176.386 215.003 172.615 205.66 174.863 198.335C175.958 202.632 178.278 206.406 180.814 208.063C192.348 215.601 221.46 214.391 233.333 202.487C238.373 197.431 241.21 192.481 242.391 187.936C244.303 194.598 242.339 203.292 233.333 212.322Z" fill="#4E3823"/>
</g>
<g opacity="0.35">
<path d="M135.796 151.302C136.015 150.69 136.152 150.271 136.213 150.082L136.111 150.429C136.111 150.429 136.015 150.738 135.796 151.302Z" fill="#4E3823"/>
</g>
<g opacity="0.35">
<path d="M136.24 149.992L136.213 150.081C136.227 150.04 136.233 150.009 136.24 149.992Z" fill="#4E3823"/>
</g>
<g opacity="0.35">
<path d="M135.782 151.333C134.287 155.485 129.113 168.211 119.375 176.32C119.303 176.382 119.232 176.44 119.16 176.499C118.982 176.647 118.804 176.791 118.622 176.932C114.636 180.081 109.914 182.435 104.402 183.157C67.0164 188.045 79.3071 159.865 79.3071 159.865C79.3071 159.865 94.0718 157.359 100.494 156.252C103.283 161.742 94.8083 163.915 94.8083 168.581C94.8083 173.248 96.922 174.82 100.836 175.658C107.653 177.117 114.794 175.414 120.291 171.107C120.327 171.078 120.364 171.049 120.401 171.02C130.594 162.98 134.676 154.135 135.781 151.334L135.782 151.333Z" fill="#4E3823"/>
</g>
<path d="M145.624 120.851C142.64 122.455 139.694 123.856 136.845 125.446C134.01 127.052 131.304 128.852 128.76 130.886C128.114 131.382 127.516 131.938 126.891 132.463C126.301 133.028 125.688 133.567 125.118 134.156C123.945 135.296 122.858 136.529 121.79 137.78C119.671 140.303 117.724 142.988 115.757 145.718C114.771 147.082 113.769 148.455 112.695 149.8C111.618 151.143 110.466 152.467 109.122 153.663C107.783 154.854 106.216 155.912 104.435 156.56C102.724 157.159 101.078 157.525 99.4134 157.908C92.7787 159.317 86.1543 160.306 79.4845 161.227L80.5598 160.415C80.4041 160.784 80.2365 161.246 80.0919 161.673C79.9439 162.109 79.8079 162.553 79.683 162.999C79.4272 163.89 79.2305 164.796 79.0714 165.704C78.7677 167.52 78.6377 169.362 78.8438 171.137C79.0389 172.91 79.5419 174.614 80.4221 176.086C81.3049 177.557 82.5778 178.759 84.0713 179.673C85.5658 180.597 87.3006 181.173 89.0704 181.602L90.4169 181.886C90.872 181.959 91.3348 182.008 91.7933 182.071C92.706 182.22 93.647 182.238 94.5785 182.3C94.8121 182.312 95.0439 182.335 95.2791 182.336L95.9848 182.334L97.3972 182.33C97.8668 182.34 98.3398 182.303 98.8129 182.275L100.23 182.192L100.939 182.15L101.649 182.073L103.067 181.92C103.535 181.862 104.023 181.833 104.474 181.752L105.833 181.519C107.629 181.136 109.412 180.641 111.094 179.875C112.784 179.137 114.421 178.254 115.945 177.185C117.48 176.134 118.942 174.96 120.293 173.657C121.654 172.364 122.943 170.985 124.127 169.511C126.511 166.579 128.623 163.385 130.323 159.972L132.906 154.867C133.349 154.019 133.788 153.168 134.277 152.332C134.753 151.493 135.251 150.65 135.813 149.837L135.823 149.822C135.972 149.606 136.267 149.553 136.482 149.703C136.618 149.797 136.689 149.953 136.685 150.108C136.653 151.148 136.477 152.131 136.251 153.106C136.025 154.079 135.735 155.033 135.388 155.963C134.7 157.825 133.855 159.627 132.872 161.351C130.891 164.787 128.784 168.168 126.246 171.255C124.995 172.809 123.626 174.276 122.172 175.658C120.727 177.05 119.151 178.318 117.486 179.458C114.165 181.754 110.359 183.429 106.36 184.218L104.855 184.475C104.352 184.562 103.87 184.591 103.377 184.652L101.904 184.811L101.169 184.89L100.427 184.934L98.9429 185.021C98.4485 185.05 97.9549 185.087 97.4553 185.078L95.9609 185.083L95.2133 185.085C94.9643 185.083 94.7128 185.059 94.463 185.047C93.4613 184.981 92.4613 184.958 91.4579 184.799C90.9567 184.73 90.4554 184.676 89.9541 184.595L88.4554 184.28C86.4708 183.799 84.476 183.144 82.6548 182.025C80.8404 180.92 79.2048 179.385 78.0834 177.512C76.961 175.639 76.352 173.524 76.1236 171.434C75.8849 169.336 76.038 167.255 76.3751 165.237C76.5513 164.229 76.7694 163.231 77.05 162.251C77.1877 161.76 77.3374 161.273 77.5017 160.788C77.6702 160.295 77.831 159.841 78.0543 159.313L78.352 158.608L79.1295 158.501C85.7257 157.592 92.3596 156.597 98.83 155.222C100.428 154.858 102.057 154.484 103.508 153.974C104.881 153.473 106.149 152.635 107.312 151.601C108.476 150.567 109.541 149.353 110.561 148.077C111.582 146.8 112.562 145.459 113.543 144.101C115.502 141.383 117.498 138.624 119.699 136.004C121.918 133.4 124.289 130.889 126.932 128.663C129.557 126.422 132.451 124.473 135.547 122.954C138.633 121.423 141.94 120.335 145.359 119.975C145.614 119.948 145.843 120.134 145.87 120.391C145.89 120.585 145.789 120.764 145.628 120.851L145.624 120.852V120.851Z" fill="#4E3823"/>
<path d="M93.5599 163.425C92.7968 164.217 91.547 164.247 90.7378 163.504C88.8268 161.748 85.045 159.016 79.9321 158.93C75.8697 158.861 82.8739 152.156 89.293 152.691C93.5564 153.046 96.594 154.928 98.4118 156.47C99.4717 157.37 99.3254 159.047 98.1372 159.768C97.3904 160.221 96.4897 160.826 95.4752 161.62C94.9174 162.057 94.1912 162.77 93.5581 163.427L93.5599 163.425Z" fill="white"/>
<g opacity="0.35">
<path d="M98.1367 159.765C97.3908 160.219 96.4908 160.824 95.4746 161.618C94.9169 162.054 94.1915 162.769 93.5585 163.426C92.7954 164.217 91.5465 164.247 90.739 163.505C88.8262 161.745 85.0453 159.016 79.9332 158.93C77.7399 158.892 78.7699 156.922 81.189 155.2C86.0478 155.451 89.644 158.06 91.4952 159.758C92.3027 160.504 93.5516 160.473 94.3146 159.679C94.9477 159.026 95.6731 158.311 96.2308 157.874C96.9973 157.276 97.6953 156.785 98.3112 156.386C98.3454 156.41 98.3796 156.441 98.4138 156.468C99.4712 157.369 99.324 159.043 98.1367 159.765Z" fill="#4E3823"/>
</g>
<path d="M92.1113 165.496C91.3338 165.496 90.5562 165.213 89.9497 164.644C88.2619 163.059 84.7136 160.386 79.9087 160.304C78.493 160.28 77.866 159.645 77.5897 159.117C77.3082 158.58 77.1414 157.684 77.9464 156.461C78.7753 155.202 80.4562 153.853 82.4425 152.853C84.0849 152.026 86.6255 151.089 89.4065 151.32C94.22 151.721 97.598 153.907 99.5852 155.669C100.352 156.349 100.734 157.326 100.637 158.35C100.539 159.368 99.9547 160.287 99.0745 160.806C98.178 161.335 97.2507 161.973 96.3183 162.703C95.8761 163.049 95.2183 163.675 94.415 164.515C93.7914 165.166 92.9514 165.496 92.1113 165.496ZM80.5434 157.575C85.9626 157.867 89.9129 160.844 91.8196 162.636C91.9924 162.799 92.2713 162.787 92.4415 162.609C93.3466 161.664 94.0848 160.965 94.6357 160.534C95.6622 159.731 96.6887 159.025 97.6879 158.435C97.8632 158.332 97.9034 158.172 97.912 158.086C97.9214 157.988 97.9051 157.848 97.7734 157.731C96.0968 156.243 93.2456 154.399 89.1807 154.06C87.3252 153.906 85.0969 154.479 83.0669 155.634C81.8009 156.354 80.9942 157.066 80.5434 157.574V157.575Z" fill="#4E3823"/>
<path d="M85.2049 175.239C85.2049 175.239 79.0373 176.993 76.7858 169.656C73.6952 159.584 81.2605 154.568 82.9098 155.112C84.5591 155.656 82.2716 161.371 87.6754 166.19C89.6711 167.971 88.4504 172.621 85.2058 175.239H85.2049Z" fill="white"/>
<g opacity="0.35">
<path d="M85.2055 175.237C85.2055 175.237 79.0361 176.994 76.7847 169.655C75.8232 166.523 75.895 163.88 76.4972 161.742C76.5794 162.089 76.6752 162.439 76.7847 162.8C79.0361 170.139 85.2055 168.383 85.2055 168.383C86.0849 167.675 86.8137 166.819 87.3714 165.911C87.4706 166.004 87.5699 166.097 87.6725 166.19C89.6708 167.97 88.4492 172.621 85.2055 175.237Z" fill="#4E3823"/>
</g>
<path d="M83.6149 176.799C82.9947 176.799 82.2676 176.732 81.4934 176.529C79.4934 176.004 76.8262 174.456 75.478 170.061C73.082 162.251 76.6722 157.611 78.3275 155.979C79.6688 154.656 81.7851 153.294 83.3368 153.805C84.7868 154.284 84.9296 155.828 85.0674 157.322C85.2675 159.485 85.5413 162.448 88.5832 165.161C89.5412 166.015 90.0476 167.338 90.0092 168.884C89.9441 171.513 88.3941 174.428 86.0614 176.31L85.8449 176.484L85.5781 176.56C85.4549 176.595 84.6961 176.797 83.6157 176.797L83.6149 176.799ZM82.2291 156.555C81.5892 156.81 80.3788 157.543 79.2684 159.081C77.8929 160.986 76.573 164.296 78.0931 169.25C78.8638 171.763 80.2077 173.307 82.0862 173.84C83.1581 174.144 84.1392 174.041 84.5858 173.964C86.1375 172.601 87.2299 170.525 87.2718 168.815C87.2821 168.396 87.2299 167.632 86.7654 167.217C82.9151 163.782 82.5558 159.896 82.3411 157.575C82.3112 157.252 82.2744 156.855 82.2291 156.554V156.555Z" fill="#4E3823"/>
<path d="M90.9459 180.22C89.7133 181.47 87.9314 182.058 83.5303 181.254C74.532 179.609 67.8093 173.331 69.9795 171.008C71.444 169.44 74.4687 170.74 78.2805 170.893C85.0178 171.165 86.798 169.907 88.3711 169.907C91.8587 169.907 94.6303 176.483 90.9459 180.22Z" fill="white"/>
<g opacity="0.35">
<path d="M90.9444 180.218C89.7126 181.469 87.9333 182.057 83.5296 181.253C74.7495 179.651 68.1422 173.639 69.8393 171.188C72.2208 173.601 76.7067 176.151 81.9727 177.114C86.373 177.918 88.1557 177.331 89.3875 176.079C90.7117 174.735 91.2044 173.023 91.1223 171.384C92.9324 173.542 93.5415 177.585 90.9444 180.218Z" fill="#4E3823"/>
</g>
<path d="M86.9491 182.994C85.8944 182.994 84.6857 182.863 83.2853 182.607C79.8346 181.976 76.3735 180.619 73.5386 178.783C70.8534 177.044 68.9818 175.038 68.4035 173.276C67.998 172.04 68.2033 170.901 68.9809 170.068C70.4608 168.483 72.6909 168.813 75.0519 169.161C76.0946 169.314 77.1733 169.473 78.335 169.521C82.8054 169.701 84.968 169.187 86.3999 168.848C87.1117 168.679 87.7259 168.533 88.3708 168.533C90.4435 168.533 92.3682 170.068 93.393 172.538C93.9696 173.927 94.1783 175.426 93.9961 176.874C93.7883 178.529 93.0697 180.021 91.9183 181.188C90.7121 182.412 89.1732 182.995 86.9491 182.995V182.994ZM72.1939 171.618C71.6336 171.618 71.205 171.706 70.9775 171.95C70.8928 172.041 70.9672 172.306 71.0031 172.415C71.4514 173.779 73.448 175.453 75.0211 176.471C77.5608 178.116 80.6695 179.334 83.7746 179.902C88.1202 180.696 89.2528 179.984 89.9731 179.253C91.6548 177.547 91.5376 175.212 90.8661 173.596C90.2921 172.212 89.2887 171.282 88.37 171.282C88.0441 171.282 87.6181 171.384 87.0287 171.523C85.4521 171.897 83.0689 172.462 78.2246 172.267C76.9193 172.215 75.7157 172.037 74.6541 171.88C73.7251 171.744 72.8646 171.617 72.193 171.617L72.1939 171.618Z" fill="#4E3823"/>
<g opacity="0.35">
<path d="M211.101 151.333C212.596 155.485 217.769 168.211 227.508 176.32C227.579 176.382 227.651 176.44 227.723 176.499C227.901 176.647 228.079 176.791 228.26 176.932C232.247 180.081 236.969 182.435 242.481 183.157C279.867 188.045 267.576 159.865 267.576 159.865C267.576 159.865 252.811 157.359 246.389 156.252C243.6 161.742 252.075 163.915 252.075 168.581C252.075 173.248 249.961 174.82 246.047 175.658C239.23 177.117 232.088 175.414 226.592 171.107C226.556 171.078 226.519 171.049 226.482 171.02C216.289 162.98 212.207 154.135 211.101 151.334L211.101 151.333Z" fill="#4E3823"/>
</g>
<path d="M201.523 119.973C204.942 120.333 208.248 121.421 211.335 122.953C214.431 124.471 217.324 126.421 219.95 128.662C222.594 130.887 224.964 133.399 227.183 136.002C229.384 138.623 231.381 141.381 233.339 144.099C234.32 145.457 235.3 146.798 236.321 148.076C237.342 149.351 238.406 150.565 239.57 151.599C240.733 152.633 242.001 153.472 243.374 153.972C244.825 154.482 246.454 154.856 248.052 155.221C254.522 156.596 261.156 157.59 267.752 158.499L268.53 158.607L268.828 159.311C269.051 159.839 269.212 160.294 269.38 160.787C269.545 161.271 269.694 161.759 269.832 162.249C270.113 163.229 270.331 164.227 270.507 165.236C270.844 167.254 270.997 169.334 270.758 171.433C270.53 173.522 269.921 175.639 268.799 177.51C267.677 179.384 266.042 180.919 264.227 182.023C262.406 183.143 260.411 183.797 258.427 184.279L256.928 184.593C256.427 184.675 255.925 184.729 255.424 184.797C254.421 184.957 253.421 184.979 252.419 185.045C252.169 185.057 251.918 185.081 251.669 185.083L250.921 185.081L249.427 185.076C248.927 185.086 248.434 185.048 247.939 185.019L246.455 184.933L245.713 184.888L244.978 184.809L243.505 184.65C243.012 184.589 242.53 184.561 242.027 184.473L240.522 184.216C236.523 183.427 232.717 181.752 229.396 179.457C227.73 178.315 226.155 177.048 224.71 175.657C223.256 174.275 221.887 172.808 220.636 171.253C218.098 168.166 215.992 164.785 214.01 161.35C213.027 159.625 212.182 157.824 211.494 155.961C211.147 155.032 210.857 154.078 210.631 153.105C210.405 152.13 210.229 151.146 210.197 150.106C210.188 149.844 210.394 149.624 210.655 149.617C210.82 149.611 210.968 149.692 211.057 149.819L211.069 149.836C211.63 150.649 212.128 151.492 212.604 152.331C213.092 153.168 213.532 154.018 213.975 154.867L216.558 159.971C218.258 163.383 220.37 166.578 222.754 169.51C223.938 170.984 225.228 172.363 226.588 173.656C227.939 174.96 229.401 176.133 230.936 177.184C232.46 178.254 234.097 179.136 235.787 179.874C237.47 180.64 239.252 181.135 241.048 181.518L242.407 181.751C242.859 181.832 243.346 181.861 243.814 181.919L245.233 182.072L245.942 182.149L246.651 182.191L248.068 182.275C248.54 182.302 249.014 182.339 249.484 182.329L250.896 182.333L251.602 182.336C251.837 182.334 252.069 182.311 252.303 182.3C253.234 182.237 254.175 182.219 255.088 182.07C255.546 182.007 256.009 181.958 256.464 181.885L257.811 181.601C259.581 181.172 261.315 180.596 262.81 179.672C264.303 178.758 265.576 177.556 266.459 176.085C267.338 174.613 267.842 172.909 268.037 171.136C268.243 169.362 268.113 167.519 267.81 165.703C267.651 164.796 267.454 163.889 267.198 162.998C267.072 162.552 266.937 162.109 266.789 161.672C266.645 161.244 266.478 160.782 266.321 160.415L267.397 161.226C260.727 160.306 254.103 159.316 247.468 157.907C245.803 157.525 244.158 157.158 242.446 156.56C240.665 155.912 239.098 154.853 237.76 153.662C236.415 152.465 235.263 151.141 234.186 149.799C233.112 148.453 232.11 147.081 231.124 145.718C229.157 142.987 227.21 140.301 225.092 137.779C224.022 136.529 222.936 135.295 221.763 134.155C221.193 133.566 220.58 133.028 219.99 132.463C219.365 131.938 218.767 131.382 218.122 130.886C215.577 128.852 212.871 127.051 210.036 125.445C207.187 123.855 204.241 122.454 201.257 120.85L201.254 120.848C201.028 120.726 200.943 120.443 201.063 120.216C201.155 120.045 201.339 119.954 201.521 119.972L201.523 119.973Z" fill="#4E3823"/>
<path d="M253.324 163.425C254.087 164.217 255.337 164.247 256.146 163.504C258.057 161.748 261.839 159.016 266.952 158.93C271.014 158.861 264.01 152.156 257.591 152.691C253.327 153.046 250.29 154.928 248.472 156.47C247.412 157.37 247.558 159.047 248.746 159.768C249.493 160.221 250.394 160.826 251.409 161.62C251.966 162.057 252.693 162.77 253.326 163.427L253.324 163.425Z" fill="white"/>
<g opacity="0.35">
<path d="M248.746 159.765C249.492 160.219 250.391 160.824 251.408 161.618C251.965 162.054 252.691 162.769 253.324 163.426C254.087 164.217 255.336 164.247 256.143 163.505C258.056 161.745 261.837 159.016 266.949 158.93C269.142 158.892 268.112 156.922 265.693 155.2C260.834 155.451 257.238 158.06 255.387 159.758C254.58 160.504 253.331 160.473 252.568 159.679C251.935 159.026 251.209 158.311 250.651 157.874C249.885 157.276 249.187 156.785 248.571 156.386C248.537 156.41 248.503 156.441 248.468 156.468C247.411 157.369 247.558 159.043 248.746 159.765Z" fill="#4E3823"/>
</g>
<path d="M254.772 165.496C253.932 165.496 253.093 165.167 252.468 164.515C251.665 163.675 251.007 163.049 250.565 162.703C249.632 161.974 248.705 161.335 247.809 160.806C246.928 160.287 246.344 159.368 246.247 158.35C246.148 157.326 246.531 156.349 247.298 155.669C249.285 153.907 252.663 151.72 257.477 151.32C260.258 151.088 262.799 152.025 264.441 152.853C266.427 153.853 268.108 155.202 268.937 156.461C269.742 157.684 269.575 158.581 269.294 159.117C269.016 159.645 268.389 160.28 266.974 160.304C262.17 160.385 258.621 163.058 256.933 164.644C256.328 165.214 255.549 165.496 254.772 165.496ZM258.312 154.036C258.105 154.036 257.902 154.044 257.703 154.061C253.638 154.4 250.787 156.244 249.111 157.732C248.979 157.849 248.963 157.989 248.972 158.087C248.981 158.172 249.02 158.332 249.195 158.436C250.194 159.026 251.221 159.732 252.247 160.535C252.798 160.966 253.537 161.664 254.442 162.61C254.611 162.787 254.89 162.799 255.063 162.637C256.97 160.845 260.921 157.867 266.34 157.576C265.889 157.067 265.082 156.355 263.816 155.636C262.004 154.605 260.034 154.037 258.312 154.037V154.036Z" fill="#4E3823"/>
<path d="M261.679 175.239C261.679 175.239 267.846 176.993 270.098 169.656C273.188 159.584 265.623 154.568 263.974 155.112C262.324 155.656 264.612 161.371 259.208 166.19C257.212 167.971 258.433 172.621 261.678 175.239H261.679Z" fill="white"/>
<g opacity="0.35">
<path d="M261.677 175.237C261.677 175.237 267.846 176.994 270.098 169.655C271.059 166.523 270.987 163.88 270.385 161.742C270.303 162.089 270.207 162.439 270.098 162.8C267.846 170.139 261.677 168.383 261.677 168.383C260.797 167.675 260.068 166.819 259.511 165.911C259.412 166.004 259.312 166.097 259.21 166.19C257.211 167.97 258.433 172.621 261.677 175.237Z" fill="#4E3823"/>
</g>
<path d="M263.268 176.799C262.187 176.799 261.428 176.597 261.305 176.562L261.038 176.486L260.822 176.311C258.489 174.429 256.939 171.515 256.874 168.886C256.836 167.339 257.342 166.017 258.3 165.163C261.342 162.449 261.617 159.487 261.816 157.324C261.954 155.83 262.096 154.285 263.546 153.807C265.098 153.295 267.214 154.658 268.556 155.98C270.211 157.613 273.801 162.253 271.405 170.063C270.057 174.458 267.39 176.005 265.39 176.531C264.616 176.733 263.889 176.8 263.268 176.8L263.268 176.799ZM262.296 173.965C262.742 174.042 263.723 174.146 264.795 173.842C266.674 173.309 268.018 171.764 268.788 169.252C270.309 164.298 268.989 160.987 267.613 159.083C266.503 157.544 265.292 156.811 264.652 156.557C264.607 156.858 264.57 157.255 264.54 157.578C264.326 159.899 263.966 163.785 260.116 167.219C259.651 167.634 259.599 168.398 259.61 168.818C259.652 170.528 260.744 172.603 262.296 173.966V173.965Z" fill="#4E3823"/>
<path d="M255.936 180.22C257.169 181.47 258.951 182.058 263.352 181.254C272.35 179.609 279.073 173.331 276.903 171.008C275.438 169.44 272.414 170.74 268.602 170.893C261.865 171.165 260.084 169.907 258.511 169.907C255.024 169.907 252.252 176.483 255.936 180.22Z" fill="white"/>
<g opacity="0.35">
<path d="M255.939 180.218C257.171 181.469 258.95 182.057 263.354 181.253C272.134 179.651 278.741 173.639 277.044 171.188C274.662 173.601 270.177 176.151 264.911 177.114C260.51 177.918 258.728 177.331 257.496 176.079C256.172 174.735 255.679 173.023 255.761 171.384C253.951 173.542 253.342 177.585 255.939 180.218Z" fill="#4E3823"/>
</g>
<path d="M259.933 182.994C257.709 182.994 256.17 182.411 254.964 181.188C253.813 180.02 253.094 178.528 252.886 176.873C252.704 175.425 252.913 173.926 253.489 172.537C254.515 170.067 256.439 168.532 258.512 168.532C259.157 168.532 259.771 168.678 260.482 168.847C261.914 169.186 264.077 169.7 268.547 169.52C269.708 169.473 270.787 169.314 271.83 169.16C274.191 168.812 276.422 168.483 277.901 170.067C278.68 170.901 278.885 172.04 278.479 173.275C277.901 175.036 276.029 177.044 273.344 178.782C270.509 180.618 267.048 181.976 263.597 182.606C262.197 182.862 260.987 182.993 259.933 182.993V182.994ZM256.909 179.252C257.63 179.983 258.761 180.695 263.108 179.901C266.213 179.334 269.322 178.115 271.861 176.47C273.435 175.451 275.432 173.778 275.879 172.414C275.915 172.304 275.99 172.039 275.905 171.949C275.404 171.412 273.931 171.63 272.227 171.88C271.166 172.037 269.962 172.215 268.657 172.267C263.813 172.462 261.43 171.897 259.853 171.523C259.263 171.383 258.837 171.282 258.512 171.282C257.593 171.282 256.589 172.212 256.015 173.596C255.345 175.211 255.227 177.546 256.908 179.253L256.909 179.252Z" fill="#4E3823"/>
<g opacity="0.35">
<path d="M220.202 129.9C219.285 130.367 218.344 130.821 217.386 131.254C214.132 132.729 210.646 133.997 206.971 135.06C197.369 137.837 186.458 139.219 174.882 139.25C162.598 139.284 151.053 137.789 141.021 134.712C137.407 133.609 133.989 132.296 130.804 130.773C129.921 130.354 129.055 129.914 128.21 129.463C129.688 128.264 131.289 127.105 133.035 126.012C133.254 125.569 133.373 125.335 133.373 125.335H134.15C137.401 123.424 143.953 125.335 143.953 125.335H203.929L202.389 120.412C206.745 121.739 210.481 123.424 213.732 125.335H214.601C214.601 125.335 214.738 125.596 214.984 126.098C216.887 127.298 218.618 128.576 220.202 129.9Z" fill="#4E3823"/>
</g>
<path d="M244.538 85.1445C244.622 116.847 213.421 131.929 174.882 132.032C136.342 132.135 105.059 117.22 104.975 85.5166C104.894 55.1316 124.438 20.3776 168.69 17.4316C174.033 14.6739 181.275 9.90434 185.336 2.85917C186.608 0.656591 189.846 0.965966 190.658 3.38511C191.734 6.60004 192.722 10.8239 190.589 16.2844C196.504 13.3797 202.38 10.0771 204.312 8.32481C206.381 6.44965 209.681 7.96989 209.593 10.7663C209.504 13.4716 208.547 19.2088 207.435 24.0205C232.842 35.9976 244.477 61.827 244.538 85.1436V85.1445Z" fill="#DCAE88"/>
<g opacity="0.35">
<path d="M244.54 85.1436C244.622 116.848 213.423 131.928 174.881 132.031C136.343 132.134 105.061 117.219 104.976 85.5183C104.972 84.2361 105.003 82.947 105.072 81.6511C106.967 111.403 137.513 125.424 174.881 125.325C212.113 125.225 242.491 111.148 244.441 81.6133C244.506 82.7958 244.537 83.9714 244.54 85.1436Z" fill="#4E3823"/>
</g>
<g opacity="0.3">
<path d="M242.021 99.7779C242.692 96.7839 243.035 93.6067 243.026 90.2431C242.967 68.3144 231.007 42.8829 208.448 29.9699C205.883 28.5021 204.545 25.5476 205.179 22.6515C205.893 19.3841 206.484 16.3118 206.542 14.5226C206.63 11.7254 204.869 11.55 202.799 13.4252C201.289 14.795 197.368 17.1128 192.903 19.4468C191.534 20.1627 189.905 19.0223 190.142 17.4909C190.706 13.8609 189.951 10.8909 189.145 8.48551C188.334 6.06636 186.957 5.4648 185.042 8.80777C182.347 13.5129 177.68 16.8189 173.284 19.3171C169.77 21.3143 165.877 22.5303 161.872 23.0502C132.071 26.9217 114.466 45.8881 107.271 67.2479C113.593 42.6234 133.192 19.7949 168.689 17.4325C174.032 14.6747 181.273 9.9052 185.335 2.86003C186.607 0.657445 189.845 0.966821 190.657 3.38597C191.733 6.60089 192.721 10.8247 190.588 16.2852C196.502 13.3805 202.378 10.0779 204.311 8.32566C206.38 6.4505 209.679 7.97074 209.591 10.7671C209.503 13.4725 208.546 19.2097 207.434 24.0213C232.841 35.9984 244.476 61.8279 244.537 85.1445C244.552 90.4924 243.676 95.3685 242.021 99.7788L242.021 99.7779Z" fill="white"/>
</g>
<path d="M230.745 80.8931C230.77 90.1314 228.008 100.082 219.678 107.788C211.166 115.671 196.836 121.212 173.709 121.273H173.705C150.821 121.335 136.521 115.983 127.934 108.282C119.351 100.585 116.478 90.5353 116.453 81.1973C116.448 79.2998 116.599 77.435 116.896 75.6234C119.498 59.59 133.327 47.3353 150.024 47.2915C159.157 47.2674 167.458 50.9 173.534 56.8194C179.583 50.8673 187.861 47.1901 196.993 47.166C213.486 47.1222 227.236 58.997 230.164 74.7185V74.7219C230.54 76.7217 230.738 78.785 230.744 80.8922L230.745 80.8931Z" fill="#FEFAFB"/>
<path d="M182.128 83.1025C182.136 85.9806 178.329 89.4508 173.622 89.4628C168.914 89.4757 165.09 86.0261 165.082 83.1481C165.074 80.27 168.887 79.0523 173.594 79.0394C178.302 79.0265 182.12 80.2245 182.128 83.1025Z" fill="#4E3823"/>
<g opacity="0.5">
<path d="M177.311 81.5264C177.313 82.1993 175.761 83.0123 173.845 83.0175C171.929 83.0226 170.373 82.2174 170.371 81.5445C170.369 80.8716 171.922 80.5846 173.839 80.5794C175.755 80.5743 177.309 80.8527 177.312 81.5256L177.311 81.5264Z" fill="#FEFAFB"/>
</g>
<path d="M133.524 126.156C133.346 126.156 133.167 126.12 132.992 126.047C123.843 122.166 116.681 116.885 111.705 110.353C106.356 103.33 103.632 94.9748 103.607 85.52C103.586 77.8251 104.769 70.1853 107.123 62.8118C109.615 55.0087 113.308 47.8853 118.101 41.6411C123.291 34.8787 129.651 29.3236 137.004 25.1299C145.012 20.5632 154.155 17.6473 164.182 16.4639C164.934 16.3763 165.613 16.9151 165.701 17.6688C165.789 18.4233 165.252 19.1065 164.502 19.195C154.841 20.3354 146.044 23.1361 138.357 27.5215C131.322 31.5331 125.237 36.8492 120.27 43.3203C115.672 49.3119 112.126 56.1525 109.732 63.6514C107.465 70.7499 106.326 78.1053 106.346 85.5123C106.403 107.228 121.448 118.163 134.059 123.513C134.755 123.809 135.081 124.615 134.788 125.314C134.567 125.839 134.06 126.155 133.526 126.155L133.524 126.156Z" fill="#4E3823"/>
<path d="M142.459 128.115C141.665 128.143 140.888 128.092 140.113 128.019C139.341 127.936 138.575 127.824 137.817 127.674C137.06 127.524 136.302 127.361 135.574 127.114C134.846 126.868 134.133 126.576 133.474 126.158C132.865 125.772 132.684 124.964 133.068 124.353C133.368 123.874 133.926 123.658 134.447 123.772L134.457 123.774C135.191 123.936 135.879 124.201 136.562 124.491C137.244 124.78 137.905 125.131 138.572 125.475C139.24 125.82 139.905 126.181 140.571 126.553C141.235 126.933 141.902 127.318 142.559 127.761C142.647 127.82 142.671 127.941 142.612 128.03C142.576 128.083 142.518 128.113 142.459 128.116V128.115Z" fill="#4E3823"/>
<path d="M161.857 81.5531C160.451 91.5674 152.435 93.9427 141.968 98.2018C135.401 100.873 130.884 104.816 127.935 108.283C119.352 100.586 116.479 90.5362 116.454 81.1982C116.449 79.3007 116.6 77.4358 116.896 75.6243C123.053 69.1626 132.789 62.9476 146.834 64.6079C157.113 65.8257 162.865 74.3661 161.857 81.5531Z" fill="#967660"/>
<path d="M230.745 80.8931C230.77 90.1314 228.008 100.082 219.678 107.788C216.703 104.401 212.227 100.604 205.801 98.0308C195.311 93.8276 187.282 91.4953 185.825 81.4887C184.779 74.3077 190.485 65.7363 200.758 64.4636C214.357 62.7792 223.952 68.513 230.165 74.7185V74.7219C230.541 76.7217 230.739 78.7851 230.745 80.8923V80.8931Z" fill="#967660"/>
<path d="M189.125 19.7528C188.791 19.7528 188.457 19.6307 188.193 19.385C187.64 18.8676 187.608 17.9979 188.122 17.4419C191.641 13.6392 190.736 7.93721 189.358 3.82337C189.156 3.22009 188.665 2.8222 188.043 2.75946C187.413 2.69587 186.843 2.99149 186.521 3.55095C184.851 6.44533 182.658 9.06901 180.001 11.3498C177.887 13.1639 175.478 14.765 172.84 16.109C168.35 18.3967 164.763 19.1469 164.613 19.1779C163.872 19.33 163.149 18.8496 162.998 18.1053C162.848 17.3611 163.325 16.635 164.066 16.4837C164.099 16.4768 167.502 15.7575 171.676 13.6194C175.479 11.6712 180.731 8.10306 184.151 2.17337C185.015 0.675474 186.612 -0.148668 188.316 0.0240666C190.012 0.195942 191.405 1.31571 191.951 2.94681C194.268 9.86135 193.636 15.5212 190.126 19.3145C189.856 19.6058 189.49 19.7536 189.123 19.7536L189.125 19.7528Z" fill="#4E3823"/>
<path d="M214.582 126.608C214.039 126.608 213.525 126.28 213.311 125.743C213.03 125.038 213.372 124.237 214.074 123.956C223.238 120.274 230.383 115.222 235.31 108.94C240.549 102.258 243.194 94.2538 243.17 85.1479C243.155 79.3101 242.408 73.4509 240.95 67.7309C239.432 61.778 237.177 56.119 234.248 50.912C231.148 45.4017 227.324 40.4612 222.88 36.2253C218.129 31.6981 212.665 27.9753 206.637 25.1608C206.306 25.0061 206.05 24.7251 205.926 24.3797C205.802 24.0342 205.821 23.6535 205.978 23.3226L206.096 23.0743C207.314 20.4214 208.05 16.1503 208.224 10.7233C208.248 9.98424 207.863 9.35776 207.197 9.04752C206.52 8.73213 205.784 8.84385 205.228 9.3483C201.446 12.7738 195.863 17.0234 190.734 17.8166C189.987 17.9318 189.289 17.417 189.173 16.6668C189.059 15.9165 189.571 15.2144 190.318 15.0984C192.779 14.7177 197.046 13.0574 203.395 7.30642C204.772 6.05947 206.67 5.77072 208.349 6.55361C210.018 7.33221 211.018 8.9633 210.959 10.8118C210.791 16.0815 210.13 20.2547 208.993 23.2436C214.815 26.1087 220.117 29.8006 224.764 34.2307C229.405 38.6539 233.398 43.811 236.631 49.5585C239.679 54.976 242.025 60.8602 243.602 67.0486C245.116 72.9886 245.892 79.0755 245.908 85.1402C245.934 94.8812 243.092 103.461 237.461 110.641C232.234 117.307 224.707 122.646 215.091 126.509C214.924 126.576 214.752 126.608 214.583 126.608H214.582Z" fill="#4E3823"/>
<path d="M204.71 128.273C205.438 127.829 206.174 127.444 206.908 127.06C207.643 126.685 208.376 126.321 209.111 125.971C209.846 125.622 210.574 125.264 211.321 124.969C212.068 124.672 212.822 124.398 213.617 124.228L213.625 124.226C214.327 124.076 215.019 124.526 215.168 125.232C215.288 125.796 215.024 126.354 214.554 126.631C213.828 127.059 213.049 127.36 212.256 127.611C211.463 127.865 210.641 128.033 209.82 128.185C208.999 128.338 208.168 128.453 207.334 128.535C206.498 128.609 205.658 128.659 204.804 128.629C204.698 128.625 204.616 128.536 204.619 128.43C204.622 128.363 204.659 128.304 204.712 128.271L204.71 128.273Z" fill="#4E3823"/>
<path d="M133.945 81.4157C134.129 81.1905 134.262 81.0401 134.42 80.8639C134.575 80.6964 134.734 80.5382 134.895 80.3818C135.215 80.0664 135.558 79.7854 135.903 79.5036C136.601 78.9518 137.351 78.4671 138.141 78.0418C139.722 77.2004 141.473 76.6203 143.291 76.3557C144.203 76.2293 145.128 76.1898 146.05 76.2267C146.972 76.2809 147.889 76.4141 148.779 76.6401C150.555 77.1033 152.22 77.9094 153.587 79.0464C154.224 79.5757 154.312 80.5228 153.785 81.1621C153.424 81.6004 152.867 81.78 152.348 81.6786L152.277 81.664C150.779 81.3693 149.389 81.1175 148.013 81.0109C147.325 80.9696 146.646 80.9439 145.968 80.9619C145.29 80.9825 144.615 81.0358 143.938 81.1175C142.587 81.3014 141.234 81.6159 139.88 82.0576C139.202 82.2733 138.526 82.5251 137.847 82.7924C137.503 82.9187 137.172 83.0717 136.832 83.2109L136.33 83.43C136.168 83.4936 135.984 83.5899 135.862 83.6243L135.458 83.7377C134.688 83.9551 133.888 83.5039 133.672 82.7296C133.541 82.2579 133.662 81.768 133.947 81.4131L133.945 81.4157Z" fill="#4E3823"/>
<path d="M212.823 83.4205C212.701 83.387 212.517 83.2907 212.354 83.228L211.851 83.0114C211.51 82.8739 211.178 82.7227 210.834 82.5981C210.154 82.3342 209.477 82.0859 208.797 81.8745C207.441 81.4396 206.086 81.1328 204.734 80.9558C204.057 80.8776 203.381 80.8286 202.703 80.8106C202.024 80.7968 201.345 80.8252 200.657 80.8707C199.283 80.9841 197.894 81.2437 196.397 81.547L196.328 81.5608C195.518 81.7249 194.729 81.1981 194.567 80.3843C194.455 79.8266 194.668 79.2774 195.073 78.9354C196.433 77.7907 198.095 76.976 199.869 76.5034C200.758 76.273 201.674 76.1338 202.595 76.0754C203.517 76.0341 204.443 76.0677 205.354 76.1897C207.174 76.4449 208.928 77.0147 210.514 77.8483C211.305 78.2694 212.058 78.7498 212.759 79.298C213.106 79.5773 213.451 79.8566 213.773 80.1703C213.934 80.3259 214.094 80.4831 214.25 80.6498C214.409 80.8252 214.543 80.9747 214.727 81.199C215.238 81.8177 215.153 82.7356 214.537 83.2486C214.161 83.5614 213.674 83.6517 213.236 83.5339L212.824 83.4196L212.823 83.4205Z" fill="#4E3823"/>
<path d="M183.357 96.6344C182.987 96.9798 182.671 97.2334 182.312 97.4989C181.961 97.7576 181.595 97.9887 181.226 98.2191C180.481 98.6659 179.692 99.0415 178.869 99.3534C177.228 99.9816 175.435 100.34 173.586 100.315C171.705 100.281 169.914 99.8321 168.301 99.1231C167.495 98.7639 166.725 98.3497 166.004 97.8676C165.647 97.6183 165.291 97.3734 164.955 97.0958C164.609 96.8174 164.306 96.5459 163.955 96.1884C163.419 95.6435 163.424 94.7652 163.968 94.2272C164.341 93.8569 164.872 93.7443 165.341 93.8878L165.548 93.9523C165.848 94.0451 166.217 94.1929 166.557 94.308C166.904 94.4283 167.247 94.5547 167.595 94.663C168.287 94.889 168.975 95.0935 169.657 95.2671C171.021 95.6203 172.361 95.8283 173.642 95.8463C174.297 95.8463 174.968 95.8223 175.644 95.7363C176.323 95.6719 177.007 95.549 177.699 95.4115C178.391 95.274 179.09 95.1047 179.791 94.9139C180.145 94.8262 180.494 94.7197 180.848 94.6183C181.192 94.5212 181.57 94.3948 181.872 94.3218L182.09 94.2685C182.831 94.088 183.577 94.5452 183.757 95.2903C183.878 95.7939 183.707 96.3018 183.356 96.6326L183.357 96.6344Z" fill="#4E3823"/>
<path fill-rule="evenodd" clip-rule="evenodd" d="M175.852 152.791C175.692 153.218 175.384 153.84 174.725 154.504C173.72 152.508 173.857 150.34 175.046 149.065C175.652 148.415 176.406 148.131 176.953 148C176.863 148.18 176.723 148.48 176.588 148.863C176.27 149.762 176.217 150.445 176.167 151.078C176.122 151.648 176.081 152.179 175.852 152.791ZM174.147 154.462C174.156 154.227 174.136 153.884 173.968 153.533C173.67 152.908 173.061 152.587 172.3 152.184L172.299 152.184C172.159 152.11 172.028 152.046 171.905 151.985L171.904 151.985C171.459 151.767 171.11 151.596 170.778 151.178C170.672 151.044 170.598 150.923 170.552 150.84C170.484 151.205 170.437 151.807 170.704 152.437C171.044 153.237 171.893 154.096 172.726 154.111C172.757 154.112 172.793 154.111 172.833 154.111C173.075 154.107 173.473 154.102 173.903 154.317C174.011 154.37 174.094 154.425 174.147 154.462ZM179.039 162.776C179.021 163.899 178.549 164.702 178.335 165.024C178.553 165.69 178.589 166.263 178.561 166.713C178.351 170.057 174.256 171.876 173.965 172C173.553 171.394 173.016 170.447 172.705 169.188C172.241 167.317 172.518 165.744 172.723 164.931C172.551 164.596 172.395 164.188 172.312 163.711C171.974 161.763 173.135 160.187 173.455 159.779C173.272 159.509 172.698 158.585 172.849 157.366C172.863 157.26 173.138 155.3 174.728 154.742C176.117 154.254 177.625 155.146 178.331 156.263C179.067 157.43 179.011 158.976 178.19 160.191C178.41 160.483 179.061 161.424 179.039 162.776ZM172.141 160.572C172.212 160.964 172.325 161.903 171.892 162.958C171.545 163.799 171.011 164.326 170.711 164.582C170.735 164.951 170.721 165.445 170.568 165.996C170.195 167.337 169.251 168.11 168.872 168.388C168.546 168.088 167.874 167.388 167.534 166.264C167.253 165.335 167.326 164.539 167.396 164.114C167.319 163.961 166.556 162.388 167.378 160.982C167.706 160.422 168.162 160.098 168.458 159.927C168.394 159.687 167.834 157.467 169.203 155.952L169.203 155.952C169.414 155.719 170.007 155.064 171.014 154.914C172.186 154.74 173.069 155.378 173.255 155.519C173.056 155.783 172.508 156.58 172.501 157.729C172.496 158.676 172.86 159.37 173.038 159.664C172.981 159.781 172.899 159.919 172.782 160.06C172.559 160.329 172.31 160.485 172.141 160.572ZM177.12 154.682C178.156 154.892 179.227 155.109 179.929 154.529C180.794 153.813 180.556 152.333 180.525 152.155C180.414 152.17 180.249 152.201 180.062 152.275C179.74 152.402 179.562 152.572 179.382 152.743C179.244 152.875 179.104 153.007 178.898 153.122C178.694 153.235 178.423 153.292 177.874 153.363C177.522 153.408 177.269 153.43 177.075 153.448C176.71 153.48 176.555 153.494 176.339 153.608C176.021 153.777 175.82 154.032 175.696 154.232C176.037 154.381 176.521 154.561 177.12 154.682Z" fill="white"/>
</g>
<defs>
<clipPath id="clip0_1690_123694">
<rect width="440" height="224" fill="white"/>
</clipPath>
<clipPath id="clip1_1690_123694">
<rect width="143" height="89" fill="white" transform="translate(297 134)"/>
</clipPath>
</defs>
</svg>
