<svg width="440" height="224" viewBox="0 0 440 224" fill="none" xmlns="http://www.w3.org/2000/svg">
<g clip-path="url(#clip0_1690_122950)">
<path d="M322.922 85.687C325.703 96.6267 337.63 103.036 337.63 103.036C337.63 103.036 345.05 91.7094 342.269 80.7697C339.488 69.83 327.561 63.4205 327.561 63.4205C327.561 63.4205 320.141 74.7473 322.922 85.687Z" fill="#ACD13F"/>
<path d="M337.139 103.107C337.353 103.233 337.476 103.3 337.488 103.306C337.626 103.38 337.796 103.337 337.881 103.206C337.956 103.092 345.34 91.6424 342.559 80.701C339.779 69.7603 327.823 63.2265 327.702 63.1613C327.564 63.0875 327.394 63.1311 327.309 63.2613C327.234 63.376 319.849 74.8254 322.63 85.7661C325.141 95.6475 335.135 101.933 337.138 103.107L337.139 103.107ZM337.528 102.639C335.802 101.651 325.709 95.4379 323.213 85.6189C320.718 75.8 326.635 65.5149 327.664 63.8304C329.364 64.814 339.482 71.0305 341.978 80.85C344.475 90.6755 338.557 100.956 337.529 102.639L337.528 102.639Z" fill="#4E3823"/>
<path d="M322.92 85.6894C325.701 96.6291 337.63 103.038 337.63 103.038C337.63 103.038 344.328 92.8164 342.612 82.4127C342.38 83.4926 342.094 84.5246 341.78 85.4924C340.387 89.79 334.967 91.1485 331.693 88.0356C328.848 85.3296 325.908 81.5829 324.733 76.9651C324.167 74.7417 324.057 72.5011 324.233 70.3573C322.712 74.5661 321.521 80.1775 322.922 85.689L322.92 85.6894Z" fill="#4E3823"/>
<path d="M336.27 104.29C336.559 104.459 336.743 104.56 336.797 104.589C337.6 105.021 338.601 104.766 339.101 104.003C339.421 103.514 346.911 91.8957 343.973 80.3397C341.035 68.7826 328.908 62.1512 328.393 61.8744C327.589 61.4425 326.589 61.6967 326.089 62.4607C325.77 62.9493 318.279 74.5679 321.217 86.1234C323.843 96.4582 333.821 102.855 336.27 104.29ZM328.178 65.8591C331.307 67.8978 338.571 73.36 340.564 81.2067C342.558 89.0517 338.787 97.3148 337.01 100.604C333.879 98.5634 326.619 93.1031 324.626 85.2581C322.625 77.3877 326.399 69.1404 328.178 65.8591Z" fill="#4E3823"/>
<path d="M332.184 80.4248C332.784 82.2888 333.261 84.1926 333.686 86.0875C334.109 87.9834 334.478 89.8821 334.758 91.7901C335.039 93.697 335.263 95.6028 335.445 97.5074C335.557 98.4582 335.612 99.4122 335.716 100.363C335.809 101.316 335.857 102.27 335.989 103.225L335.999 103.302C336.113 104.126 336.873 104.701 337.697 104.587C338.428 104.486 338.964 103.874 338.995 103.16C339.082 101.141 338.973 99.1161 338.683 97.1175C338.43 95.1127 337.943 93.1463 337.407 91.2078C336.864 89.269 336.173 87.3763 335.389 85.5313C334.588 83.6917 333.685 81.9024 332.566 80.2292C332.5 80.1305 332.365 80.1032 332.267 80.1694C332.184 80.2243 332.153 80.3257 332.181 80.4149L332.185 80.4254L332.184 80.4248Z" fill="#4E3823"/>
<path d="M362.459 113.954C358.509 124.528 364.659 136.591 364.659 136.591C364.659 136.591 377.211 131.511 381.16 120.937C385.109 110.363 378.96 98.3 378.96 98.3C378.96 98.3 366.408 103.38 362.459 113.954Z" fill="#ACD13F"/>
<path d="M364.507 136.851C364.585 136.897 364.682 136.907 364.771 136.871C364.898 136.82 377.492 131.62 381.442 121.043C385.391 110.467 379.289 98.286 379.227 98.1633C379.158 98.0233 378.991 97.9632 378.847 98.021C378.72 98.0724 366.126 103.272 362.177 113.848C358.228 124.423 364.329 136.606 364.391 136.728C364.418 136.781 364.458 136.823 364.507 136.851ZM378.814 98.6904C379.655 100.477 384.423 111.343 380.879 120.833C377.334 130.324 366.611 135.405 364.805 136.202C363.964 134.416 359.196 123.549 362.741 114.058C366.286 104.567 377.009 99.4867 378.815 98.6894L378.814 98.6904Z" fill="#4E3823"/>
<path d="M362.457 113.956C358.508 124.53 364.658 136.594 364.658 136.594C364.658 136.594 375.988 132.01 380.506 122.483C379.701 123.238 378.877 123.924 378.067 124.54C374.473 127.277 369.245 125.306 368.328 120.883C367.532 117.037 367.251 112.283 368.917 107.82C369.719 105.67 370.905 103.766 372.272 102.105C368.623 104.696 364.448 108.629 362.458 113.956L362.457 113.956Z" fill="#4E3823"/>
<path d="M363.769 138.11C364.226 138.377 364.795 138.435 365.319 138.224C365.862 138.005 378.636 132.725 382.808 121.555C386.98 110.386 380.793 98.0243 380.527 97.5031C380.113 96.6902 379.146 96.33 378.301 96.671C377.758 96.8899 364.984 102.169 360.812 113.339C356.64 124.509 362.827 136.87 363.093 137.392C363.25 137.701 363.489 137.946 363.769 138.11ZM378.08 100.654C379.489 104.113 382.346 112.74 379.514 120.325C376.682 127.907 368.873 132.549 365.54 134.239C364.13 130.779 361.276 122.155 364.108 114.571C366.949 106.963 374.749 102.336 378.08 100.654Z" fill="#4E3823"/>
<path d="M373.282 114.932C372.545 116.802 371.82 118.614 371.068 120.41C370.304 122.199 369.577 123.986 368.735 125.72C367.898 127.455 367.044 129.175 366.095 130.842C365.188 132.531 364.172 134.152 363.204 135.808L363.181 135.848C362.761 136.564 363.003 137.486 363.72 137.904C364.399 138.302 365.266 138.101 365.711 137.468C366.866 135.816 367.915 134.084 368.818 132.282C369.74 130.488 370.509 128.621 371.191 126.73C371.864 124.836 372.427 122.902 372.803 120.929C373.171 118.959 373.417 116.949 373.283 114.931L373.282 114.932Z" fill="#4E3823"/>
<path d="M333.375 148.092C344.315 145.311 350.724 133.384 350.724 133.384C350.724 133.384 339.397 125.965 328.458 128.745C317.518 131.526 311.109 143.453 311.109 143.453C311.109 143.453 322.435 150.873 333.375 148.092Z" fill="#ACD13F"/>
<path d="M311.557 144.078C314.081 145.556 323.956 150.795 333.449 148.384C344.39 145.602 350.924 133.646 350.988 133.527C351.062 133.389 351.019 133.218 350.888 133.133C350.773 133.057 339.324 125.674 328.384 128.454C317.443 131.234 310.909 143.191 310.844 143.311C310.77 143.449 310.814 143.619 310.944 143.704C310.96 143.713 311.173 143.853 311.557 144.078ZM333.301 147.801C323.476 150.297 313.195 144.378 311.512 143.351C312.5 141.643 318.713 131.532 328.531 129.037C338.355 126.54 348.634 132.455 350.321 133.486C349.332 135.195 343.12 145.305 333.301 147.801Z" fill="#4E3823"/>
<path d="M333.375 148.094C344.315 145.313 350.724 133.384 350.724 133.384C350.724 133.384 340.502 126.686 330.099 128.402C331.179 128.634 332.211 128.921 333.178 129.234C337.476 130.628 338.834 136.047 335.722 139.321C333.016 142.167 329.269 145.106 324.651 146.281C322.428 146.847 320.187 146.957 318.043 146.781C322.252 148.303 327.863 149.493 333.375 148.092L333.375 148.094Z" fill="#4E3823"/>
<path d="M310.967 145.424C313.869 147.125 323.862 152.321 333.808 149.794C345.365 146.856 351.997 134.728 352.274 134.213C352.705 133.41 352.451 132.409 351.688 131.909C351.199 131.592 339.581 124.099 328.025 127.037C316.468 129.973 309.836 142.102 309.559 142.617C309.127 143.421 309.382 144.421 310.145 144.922C310.213 144.966 310.497 145.15 310.966 145.425L310.967 145.424ZM332.942 146.384C325.097 148.377 316.834 144.607 313.544 142.829C315.585 139.699 321.046 132.438 328.891 130.445C336.735 128.451 344.999 132.222 348.288 133.999C346.247 137.13 340.787 144.39 332.942 146.384Z" fill="#4E3823"/>
<path d="M328.011 138.641C329.968 138.182 331.869 137.743 333.774 137.338C335.68 136.947 337.562 136.525 339.468 136.228C341.37 135.927 343.271 135.65 345.18 135.481C347.086 135.262 348.997 135.174 350.909 135.027L350.955 135.023C351.783 134.959 352.401 134.236 352.337 133.408C352.276 132.622 351.617 132.025 350.845 132.02C348.828 132.012 346.809 132.136 344.813 132.422C342.814 132.687 340.842 133.119 338.9 133.636C336.959 134.162 335.05 134.801 333.214 135.618C331.385 136.438 329.593 137.381 328.013 138.641L328.011 138.641Z" fill="#4E3823"/>
<path d="M346.991 207.252C357.93 204.472 364.34 192.544 364.34 192.544C364.34 192.544 353.013 185.125 342.074 187.906C331.134 190.686 324.724 202.614 324.724 202.614C324.724 202.614 336.051 210.033 346.991 207.252Z" fill="#ACD13F"/>
<path d="M325.173 203.233C327.696 204.712 337.572 209.951 347.064 207.539C358.006 204.758 364.539 192.802 364.604 192.682C364.678 192.545 364.634 192.374 364.504 192.289C364.389 192.215 352.939 184.829 341.999 187.61C331.058 190.39 324.524 202.347 324.459 202.467C324.386 202.605 324.429 202.775 324.559 202.86C324.575 202.869 324.789 203.008 325.173 203.233ZM346.916 206.957C337.098 209.452 326.811 203.533 325.128 202.506C326.116 200.798 332.329 190.687 342.147 188.192C351.967 185.695 362.256 191.616 363.937 192.641C362.948 194.35 356.736 204.46 346.917 206.956L346.916 206.957Z" fill="#4E3823"/>
<path d="M346.991 207.254C357.931 204.473 364.34 192.544 364.34 192.544C364.34 192.544 354.118 185.846 343.714 187.563C344.794 187.794 345.826 188.081 346.794 188.394C351.092 189.788 352.45 195.208 349.337 198.481C346.631 201.327 342.885 204.266 338.267 205.441C336.043 206.007 333.803 206.118 331.659 205.941C335.868 207.463 341.479 208.653 346.991 207.252L346.991 207.254Z" fill="#4E3823"/>
<path d="M324.582 204.585C327.484 206.286 337.476 211.482 347.423 208.954C358.98 206.017 365.612 193.889 365.888 193.374C366.32 192.571 366.066 191.57 365.303 191.07C364.817 190.752 353.195 183.259 341.639 186.198C330.083 189.134 323.451 201.263 323.174 201.778C322.742 202.581 322.996 203.582 323.76 204.082C323.828 204.126 324.112 204.311 324.581 204.586L324.582 204.585ZM346.557 205.544C338.713 207.538 330.449 203.767 327.159 201.99C329.2 198.859 334.66 191.599 342.505 189.606C350.376 187.605 358.624 191.378 361.905 193.157C359.866 196.286 354.404 203.55 346.557 205.544Z" fill="#4E3823"/>
<path d="M341.627 197.801C343.584 197.342 345.486 196.903 347.39 196.498C349.296 196.107 351.178 195.685 353.084 195.388C354.986 195.087 356.887 194.81 358.797 194.641C360.702 194.422 362.613 194.335 364.525 194.187L364.571 194.183C365.399 194.119 366.018 193.396 365.954 192.568C365.893 191.782 365.234 191.186 364.461 191.18C362.445 191.172 360.425 191.296 358.43 191.582C356.43 191.847 354.458 192.28 352.516 192.796C350.576 193.322 348.666 193.961 346.83 194.778C345.001 195.599 343.21 196.541 341.63 197.801L341.627 197.801Z" fill="#4E3823"/>
<path d="M314.408 158.327C318.523 166.787 329.34 170.006 329.34 170.006C329.34 170.006 333.485 159.509 329.37 151.048C325.255 142.587 314.438 139.369 314.438 139.369C314.438 139.369 310.293 149.866 314.408 158.327Z" fill="#ACD13F"/>
<path d="M323.14 167.508C326.416 169.428 329.199 170.277 329.253 170.294C329.403 170.338 329.561 170.261 329.619 170.116C329.661 170.01 333.765 159.398 329.64 150.917C325.515 142.436 314.634 139.114 314.523 139.081C314.374 139.037 314.215 139.114 314.157 139.258C314.116 139.365 310.012 149.977 314.136 158.457C316.186 162.671 319.903 165.612 323.139 167.508L323.14 167.508ZM329.157 169.631C327.472 169.066 318.328 165.7 314.678 158.195C311.025 150.685 314.024 141.418 314.62 139.744C316.304 140.309 325.449 143.674 329.099 151.18C332.751 158.69 329.753 167.957 329.157 169.631Z" fill="#4E3823"/>
<path d="M314.406 158.327C318.522 166.787 329.339 170.007 329.339 170.007C329.339 170.007 333.082 160.533 329.926 152.331C329.919 153.252 329.86 154.142 329.767 154.986C329.354 158.728 325.16 160.752 321.964 158.764C319.184 157.035 316.153 154.474 314.415 150.901C313.577 149.182 313.109 147.372 312.891 145.592C312.359 149.284 312.334 154.066 314.407 158.328L314.406 158.327Z" fill="#4E3823"/>
<path d="M322.376 168.777C325.74 170.748 328.605 171.623 328.838 171.693C329.713 171.953 330.641 171.502 330.976 170.652C331.157 170.194 335.354 159.332 330.952 150.28C326.549 141.228 315.411 137.825 314.939 137.685C314.065 137.425 313.136 137.876 312.802 138.725C312.621 139.184 308.423 150.046 312.826 159.098C315.042 163.654 318.966 166.78 322.375 168.778L322.376 168.777ZM328.237 167.733C325.231 166.517 318.803 163.34 315.99 157.558C313.178 151.777 314.645 144.764 315.545 141.645C318.552 142.862 324.977 146.039 327.789 151.818C330.613 157.621 329.141 164.622 328.237 167.733Z" fill="#4E3823"/>
<path d="M321.217 152.356L323.121 156.916C323.728 158.418 324.373 159.885 324.916 161.391C325.465 162.893 325.998 164.395 326.45 165.919C326.942 167.432 327.331 168.967 327.786 170.492L327.799 170.538C328.037 171.334 328.874 171.787 329.67 171.549C330.416 171.327 330.86 170.57 330.716 169.821C330.393 168.162 329.947 166.526 329.37 164.939C328.808 163.347 328.108 161.806 327.34 160.308C326.564 158.813 325.702 157.364 324.694 156.016C323.683 154.675 322.571 153.39 321.218 152.356L321.217 152.356Z" fill="#4E3823"/>
<path d="M520.395 337.214C510.25 330.345 510.752 300.87 460.461 267.428C406.217 231.357 388.501 218.073 380.311 207.305C380.311 207.305 362.115 182.661 330.38 179.517C320.436 178.532 311.057 174.803 303.564 168.333C300.849 165.988 298.318 163.322 296.421 160.393C295.579 159.094 295.829 157.292 297.003 156.162C298.246 154.964 300.116 154.91 301.281 156.042C305.743 160.375 313.205 167.421 326.058 168.979C337.02 170.308 355.032 171.305 368.903 180.335C368.903 180.335 371.566 161.855 359.21 147.827C333.555 118.703 333.388 108.614 334.46 101.614C334.71 99.9821 336.143 98.7978 337.793 98.8644C339.634 98.9384 341.035 100.532 340.887 102.369C339.952 113.974 356.239 130.071 369.685 143.032C380.322 153.285 380.623 173.249 380.623 173.249C382.072 191.833 404.659 210.598 439.979 234.503C464.384 251.019 519.198 273.663 544.028 297.408" fill="#B17E4F"/>
<path d="M520.242 337.475C520.378 337.555 520.554 337.516 520.643 337.384C520.736 337.246 520.7 337.06 520.563 336.966C517.494 334.889 515.398 330.653 512.498 324.791C506.121 311.903 495.448 290.333 460.628 267.178C406.636 231.275 388.675 217.805 380.55 207.123C380.371 206.88 361.913 182.338 330.411 179.218C320.227 178.21 311.011 174.368 303.762 168.106C300.77 165.521 298.386 162.871 296.674 160.23C295.917 159.06 296.148 157.405 297.212 156.379C298.335 155.298 300.03 155.245 301.073 156.258C305.182 160.25 312.832 167.679 326.023 169.279C327.286 169.432 328.643 169.58 330.076 169.737C341.238 170.96 356.52 172.633 368.74 180.588C368.83 180.643 368.935 180.652 369.028 180.61C369.121 180.567 369.188 180.481 369.201 180.379C369.228 180.192 371.742 161.6 359.437 147.629C334.502 119.322 333.624 109.058 334.759 101.66C334.987 100.177 336.286 99.1043 337.783 99.1645C338.587 99.197 339.324 99.5462 339.858 100.148C340.395 100.754 340.654 101.533 340.589 102.344C339.613 114.459 357.585 131.784 369.477 143.248C379.899 153.295 380.32 173.054 380.323 173.252C381.779 191.925 404.164 210.626 439.812 234.751C448.839 240.861 462.169 247.885 476.281 255.323C500.613 268.145 528.192 282.679 543.822 297.625C543.942 297.741 544.132 297.736 544.247 297.616C544.362 297.496 544.358 297.305 544.237 297.19C528.547 282.187 500.929 267.632 476.562 254.79C462.464 247.36 449.149 240.343 440.149 234.253C404.65 210.228 382.359 191.638 380.924 173.225C380.922 173.043 380.498 153.038 369.894 142.815C358.084 131.429 340.234 114.224 341.188 102.392C341.266 101.418 340.954 100.479 340.307 99.7491C339.665 99.0229 338.777 98.6027 337.806 98.5624C336.004 98.4905 334.438 99.7818 334.165 101.568C333.009 109.101 333.88 119.523 358.985 148.026C370.016 160.548 368.959 176.855 368.661 179.821C356.393 172.018 341.241 170.356 330.142 169.139C328.711 168.982 327.357 168.834 326.096 168.681C313.106 167.106 305.552 159.769 301.493 155.827C300.217 154.586 298.154 154.639 296.797 155.946C295.529 157.168 295.259 159.15 296.172 160.557C297.914 163.247 300.337 165.94 303.372 168.561C310.715 174.904 320.045 178.796 330.354 179.816C361.585 182.91 379.892 207.239 380.073 207.484C388.247 218.232 406.242 231.733 460.298 267.679C494.985 290.745 505.612 312.224 511.963 325.057C514.904 331.002 517.029 335.297 520.229 337.464C520.236 337.467 520.241 337.471 520.247 337.474L520.242 337.475Z" fill="#4E3823"/>
<path d="M385.619 195.402C383.971 193.705 382.525 191.773 381.277 189.757C380.045 187.726 378.933 185.617 378.107 183.39C377.866 182.847 377.7 182.277 377.506 181.716C377.322 181.152 377.107 180.597 376.974 180.018L376.511 178.297C376.369 177.72 376.279 177.132 376.15 176.55C375.655 174.217 375.499 171.832 375.338 169.433L375.336 169.417C375.326 169.275 375.203 169.168 375.061 169.177C374.929 169.186 374.828 169.292 374.822 169.421C374.792 170.028 374.769 170.636 374.755 171.247C374.75 171.856 374.69 172.469 374.745 173.078C374.837 174.295 374.868 175.524 375.088 176.732C375.388 179.169 376.095 181.542 376.95 183.841C377.823 186.139 378.993 188.321 380.379 190.345C381.07 191.359 381.83 192.322 382.624 193.255C383.461 194.155 384.298 195.04 385.28 195.807C385.394 195.897 385.561 195.877 385.651 195.762C385.734 195.655 385.723 195.507 385.632 195.415L385.62 195.402L385.619 195.402Z" fill="#4E3823"/>
<path d="M375.381 193.496C372.835 190.978 370.054 188.735 367.135 186.674C365.674 185.646 364.184 184.656 362.649 183.737C361.11 182.827 359.535 181.973 357.931 181.178C354.721 179.593 351.368 178.255 347.879 177.383C344.397 176.505 340.783 176.084 337.209 176.287C337.095 176.294 337.008 176.39 337.014 176.505C337.02 176.611 337.104 176.694 337.206 176.7L337.21 176.702C338.976 176.816 340.725 177.005 342.459 177.293C344.189 177.599 345.902 177.982 347.589 178.467C349.272 178.961 350.948 179.485 352.581 180.134C354.221 180.761 355.843 181.444 357.423 182.219C360.589 183.755 363.639 185.537 366.586 187.477C369.515 189.439 372.375 191.543 375.036 193.855L375.044 193.859C375.147 193.95 375.302 193.94 375.392 193.836C375.478 193.737 375.471 193.59 375.379 193.499L375.381 193.496Z" fill="#4E3823"/>
<path d="M473.155 258.165C469.674 255.941 466.049 254.052 462.434 252.147L451.56 246.513C444.319 242.757 437.113 238.941 430.098 234.821L424.873 231.699C423.154 230.626 421.439 229.545 419.768 228.395C416.411 226.12 413.144 223.703 409.969 221.169C403.618 216.098 397.634 210.563 391.98 204.704C391.772 204.49 391.432 204.484 391.217 204.691C391.005 204.896 390.997 205.232 391.196 205.447C396.77 211.437 402.691 217.121 409.004 222.353C412.161 224.968 415.416 227.47 418.774 229.836C420.443 231.031 422.162 232.159 423.885 233.279L426.499 234.914L429.167 236.439C436.302 240.465 443.595 244.163 450.91 247.797L461.876 253.236C465.512 255.072 469.168 256.899 472.606 259.013L472.62 259.02C472.856 259.166 473.167 259.092 473.313 258.855C473.457 258.621 473.386 258.314 473.154 258.167L473.155 258.165Z" fill="#4E3823"/>
<path d="M296.419 160.397C298.317 163.324 300.852 165.991 303.565 168.336C311.058 174.806 320.434 178.537 330.382 179.52C362.114 182.664 380.309 207.31 380.309 207.31C388.502 218.079 406.22 231.362 460.462 267.433C510.752 300.874 510.251 330.348 520.393 337.219L544.027 297.409C544.018 297.398 544.011 297.394 544.001 297.384L523.55 331.832C513.408 324.962 513.909 295.486 463.619 262.046C409.378 225.974 391.659 212.691 383.466 201.923C383.466 201.923 365.272 177.277 333.539 174.133C323.591 173.15 314.215 169.419 306.722 162.948C304.091 160.673 301.63 158.099 299.755 155.271C298.807 155.114 297.784 155.416 297.003 156.166C295.831 157.295 295.58 159.099 296.42 160.396L296.419 160.397Z" fill="#4E3823"/>
<path d="M372.061 174.95C372.061 174.95 376.614 154.541 362.367 142.443C340.114 123.543 333.222 108.715 337.326 98.8777C335.881 99.0301 334.686 100.139 334.458 101.615C333.387 108.617 333.555 118.705 359.21 147.83C366.705 156.34 370.381 169.872 368.958 179.869C369.972 180.427 371.199 178.844 372.06 174.951L372.061 174.95Z" fill="#4E3823"/>
<path d="M368.806 180.124L368.813 180.129C369.142 180.31 369.501 180.322 369.849 180.165C370.827 179.722 371.718 177.891 372.355 175.011C372.408 174.77 376.771 154.277 362.562 142.209C342.092 124.826 333.229 109.476 337.603 98.9892C337.644 98.8917 337.63 98.7792 337.567 98.6936C337.504 98.6091 337.4 98.5633 337.294 98.5741C335.696 98.7427 334.406 99.9722 334.16 101.565C333.008 109.1 333.881 119.525 358.985 148.023C366.069 156.067 370.138 169.441 368.66 179.822C368.643 179.944 368.7 180.062 368.805 180.124L368.806 180.124ZM336.846 99.2731C332.852 110.002 341.816 125.38 362.173 142.668C376.113 154.508 371.813 174.68 371.767 174.881C370.911 178.754 369.893 179.486 369.6 179.618C369.491 179.667 369.389 179.684 369.288 179.668C370.693 169.162 366.571 155.73 359.436 147.627C334.504 119.323 333.623 109.057 334.755 101.657C334.932 100.509 335.761 99.5879 336.845 99.2725L336.846 99.2731Z" fill="#4E3823"/>
<path d="M519.505 338.735C520.298 339.199 521.327 338.974 521.849 338.203C522.395 337.399 522.184 336.305 521.379 335.761C518.63 333.899 516.605 329.809 513.804 324.147C507.363 311.128 496.58 289.338 461.434 265.967C407.602 230.169 389.718 216.773 381.709 206.242C380.962 205.23 362.695 180.954 330.552 177.769C320.669 176.789 311.734 173.067 304.713 167.004C301.825 164.51 299.532 161.965 297.895 159.439C297.515 158.854 297.659 157.972 298.221 157.43C298.782 156.889 299.57 156.835 300.054 157.304C304.287 161.416 312.167 169.068 325.845 170.727C327.113 170.88 328.475 171.03 329.914 171.188C340.931 172.396 356.017 174.055 367.942 181.811C368.452 182.142 369.081 182.187 369.627 181.94C370.174 181.693 370.557 181.183 370.642 180.589C370.755 179.801 373.275 161.139 360.527 146.667C336.008 118.832 335.112 108.956 336.196 101.883C336.311 101.135 336.966 100.593 337.72 100.624C338.125 100.641 338.495 100.816 338.762 101.117C339.033 101.424 339.165 101.819 339.132 102.229C338.18 114.053 352.462 128.877 368.462 144.3C378.435 153.915 378.859 173.084 378.862 173.277C378.863 173.314 378.864 173.35 378.868 173.386C380.367 192.624 402.984 211.592 438.992 235.96C448.084 242.115 461.45 249.157 475.599 256.614C499.846 269.392 527.329 283.875 542.811 298.679C543.513 299.351 544.626 299.326 545.298 298.624C545.97 297.923 545.945 296.809 545.242 296.139C529.404 280.993 501.691 266.389 477.239 253.503C463.179 246.093 449.898 239.094 440.965 233.049C405.859 209.29 383.809 190.98 382.38 173.166C382.351 171.71 381.756 152.228 370.905 141.769C359.293 130.574 341.743 113.657 342.641 102.512C342.752 101.139 342.31 99.8145 341.398 98.7852C340.488 97.7587 339.233 97.1643 337.864 97.1088C335.318 97.0068 333.108 98.83 332.722 101.35C331.517 109.208 332.368 120.019 357.889 148.992C366.795 159.102 367.518 171.823 367.354 177.335C355.222 170.423 340.925 168.856 330.299 167.692C328.874 167.535 327.526 167.388 326.269 167.235C313.768 165.72 306.442 158.605 302.506 154.783C300.664 152.992 297.71 153.042 295.783 154.898C293.991 156.623 293.64 159.337 294.945 161.352C296.763 164.159 299.276 166.956 302.415 169.667C309.988 176.208 319.599 180.218 330.207 181.269C360.754 184.296 378.719 208.113 378.896 208.352C387.297 219.399 404.618 232.409 459.486 268.895C493.847 291.744 504.366 313.004 510.652 325.706C513.693 331.851 515.889 336.29 519.408 338.672C519.44 338.694 519.474 338.715 519.507 338.734L519.505 338.735Z" fill="#4E3823"/>
<path d="M398.634 219.352C398.265 218.272 397.768 217.228 396.842 216.334C396.383 215.895 395.765 215.505 395.07 215.356C394.381 215.2 393.681 215.244 393.091 215.45C392.618 215.616 392.368 216.135 392.535 216.607C392.664 216.977 393.008 217.21 393.377 217.215L393.419 217.216C393.901 217.223 394.311 217.211 394.696 217.267C395.077 217.321 395.468 217.417 395.881 217.636C396.711 218.061 397.537 218.799 398.423 219.496L398.425 219.498C398.483 219.544 398.567 219.533 398.612 219.476C398.641 219.44 398.647 219.392 398.634 219.351L398.634 219.352Z" fill="#4E3823"/>
<path d="M403.971 222.48C403.56 221.371 403.018 220.302 402.059 219.393C401.584 218.946 400.959 218.546 400.252 218.384C399.55 218.214 398.827 218.241 398.211 218.438C397.734 218.591 397.47 219.103 397.623 219.58C397.744 219.956 398.086 220.2 398.46 220.211L398.5 220.212C399.002 220.226 399.434 220.223 399.846 220.29C400.253 220.354 400.669 220.469 401.103 220.701C401.976 221.152 402.839 221.911 403.762 222.629C403.819 222.675 403.903 222.667 403.948 222.611C403.978 222.574 403.984 222.523 403.971 222.48Z" fill="#4E3823"/>
<path fill-rule="evenodd" clip-rule="evenodd" d="M9.23166 79.3742C8.9939 73.5043 7.07894 71.0296 3.48535 71.9493C7.33955 70.3238 9.43372 66.9286 9.76431 61.762C10.1527 67.3554 11.5422 70.4403 13.9298 71.0201C10.9538 72.8498 9.3866 75.6348 9.23095 79.3742" fill="#FEDA24"/>
<path d="M9.23159 80.2909C8.83174 80.2909 8.50258 79.9084 8.48259 79.4225C8.35978 76.3837 7.77502 74.3523 6.74542 73.384C5.995 72.6791 4.97897 72.5026 3.64021 72.846C3.25322 72.9451 2.86838 72.6608 2.7627 72.1958C2.65703 71.7308 2.86623 71.2466 3.24037 71.0884C6.81896 69.5794 8.70894 66.5059 9.01739 61.6938C9.04809 61.2192 9.37224 60.8524 9.7628 60.8516H9.76495C10.1548 60.8516 10.4797 61.2149 10.5125 61.6878C10.8674 66.7997 12.0669 69.6385 14.0768 70.127C14.391 70.2035 14.6302 70.5138 14.6737 70.8998C14.7166 71.2857 14.5545 71.663 14.2682 71.8385C11.5257 73.524 10.1234 76.0056 9.98058 79.4234C9.96058 79.9093 9.63071 80.2909 9.23087 80.2909H9.23159ZM6.46767 71.1588C6.9025 71.3396 7.30092 71.5986 7.66149 71.9376C8.42047 72.6504 8.99025 73.6787 9.37867 75.0425C10.0098 73.5283 10.9666 72.2349 12.2447 71.171C11.083 70.2652 10.2205 68.6546 9.66355 66.352C8.98239 68.3364 7.91496 69.9419 6.46767 71.1588Z" fill="#4E3823"/>
<path fill-rule="evenodd" clip-rule="evenodd" d="M283.077 62.3919C282.774 54.8947 280.328 51.7345 275.738 52.9086C280.661 50.8327 283.335 46.4958 283.758 39.8984C284.255 47.0425 286.029 50.9821 289.079 51.7223C285.278 54.0584 283.277 57.616 283.077 62.3919Z" fill="#FEDA24"/>
<path d="M283.076 63.2893C282.683 63.2893 282.359 62.9131 282.339 62.4356C282.179 58.4717 281.404 55.8107 280.035 54.5244C279.022 53.5733 277.666 53.3317 275.889 53.7867C275.509 53.8854 275.131 53.6041 275.027 53.1477C274.923 52.6908 275.129 52.2146 275.497 52.0595C280.159 50.0932 282.621 46.0921 283.022 39.828C283.052 39.3615 283.371 39.0013 283.756 39H283.758C284.141 39 284.461 39.357 284.493 39.8223C284.956 46.4844 286.547 50.1913 289.223 50.8412C289.531 50.9162 289.767 51.2212 289.809 51.6006C289.852 51.9807 289.692 52.3511 289.411 52.5235C285.831 54.7237 284 57.9666 283.814 62.4369C283.794 62.9143 283.47 63.2893 283.077 63.2893H283.076ZM279.026 51.9903C279.737 52.2044 280.375 52.5748 280.936 53.1022C281.987 54.0892 282.745 55.5729 283.224 57.5904C284.044 55.314 285.419 53.4105 287.34 51.8967C285.619 50.7354 284.389 48.3936 283.663 44.8943C282.775 47.9136 281.225 50.2849 279.026 51.9897V51.9903Z" fill="#4E3823"/>
<path fill-rule="evenodd" clip-rule="evenodd" d="M38.8642 178.445C38.4563 168.374 35.1712 164.129 29.0059 165.707C35.6183 162.918 39.2108 157.093 39.7786 148.23C40.445 157.826 42.8292 163.119 46.9253 164.114C41.819 167.251 39.1313 172.031 38.8642 178.446" fill="#FEDA24"/>
<path d="M38.864 179.665C38.3278 179.665 37.8864 179.152 37.8596 178.5C37.6442 173.182 36.6043 169.611 34.7698 167.888C33.414 166.614 31.5966 166.293 29.2134 166.901C28.6945 167.034 28.1784 166.653 28.0367 166.029C27.895 165.406 28.1755 164.756 28.6772 164.544C34.9345 161.905 38.2378 156.536 38.7759 148.13C38.8161 147.493 39.2518 147.001 39.7755 147H39.7784C40.3012 147 40.7369 147.487 40.7809 148.121C41.4023 157.061 43.5356 162.036 47.1214 162.906C47.5427 163.009 47.8635 163.425 47.9219 163.943C47.9793 164.46 47.762 164.966 47.378 165.202C42.5743 168.154 40.1183 172.504 39.8684 178.503C39.8416 179.154 39.3992 179.666 38.8631 179.666L38.864 179.665ZM33.4628 164.461C34.405 164.75 35.2514 165.247 35.9982 165.948C37.4038 167.268 38.4207 169.247 39.066 171.937C40.1672 168.904 42.0027 166.366 44.5621 164.345C42.2679 162.784 40.6258 159.659 39.6501 155.001C38.458 159.02 36.3898 162.181 33.4628 164.46V164.461Z" fill="#4E3823"/>
<g clip-path="url(#clip1_1690_122950)">
<path d="M226.635 177.863C226.551 182.481 225.746 186.713 224.344 190.56C210.167 229.431 134.806 228.833 122.663 189.263C120.529 182.504 120.142 175.204 121.598 168.175C122.583 163.576 123.928 158.375 125.48 152.981C127.806 144.902 130.599 136.391 133.339 128.832C133.894 127.297 134.449 125.804 134.994 124.361C136.339 120.819 137.638 117.582 138.837 114.82H208.577C209.064 115.904 209.688 117.439 210.393 119.257C210.393 119.257 210.393 119.261 210.398 119.261C211.578 122.294 212.995 126.117 214.383 129.956C216.329 135.342 218.218 140.767 219.333 144.1C222.057 153.202 226.824 166.624 226.636 177.863H226.635Z" fill="#DCAE88"/>
<path d="M173.439 220.888C163.7 220.888 154.169 219.016 145.83 215.392C133.182 209.895 124.664 201.018 121.198 189.718C118.976 182.679 118.594 175.117 120.096 167.861C123.658 151.188 131.867 127.03 137.431 114.202L137.832 113.277H209.566L209.973 114.187C212.422 119.678 218.365 136.358 220.784 143.611L220.799 143.657C221.181 144.935 221.604 146.297 222.048 147.728C224.847 156.753 228.332 167.984 228.167 177.888V177.89C227.956 189.5 223.242 199.635 214.537 207.198C206.788 213.931 196.298 218.401 184.202 220.125C180.619 220.636 177.015 220.888 173.438 220.888H173.439ZM139.842 116.362C134.352 129.262 126.532 152.416 123.095 168.5C121.703 175.228 122.057 182.249 124.123 188.795C131.146 211.686 160.098 220.443 183.773 217.069C203.459 214.263 224.655 202.481 225.103 177.833C225.259 168.428 221.857 157.46 219.122 148.647C218.678 147.215 218.255 145.85 217.871 144.57C215.586 137.724 210.175 122.511 207.571 116.362H139.842Z" fill="#4E3823"/>
<path d="M239.129 174.089C238.593 185.679 230.814 189.449 224.343 190.56C219.606 191.374 215.572 190.772 215.572 190.772L208.958 138.139L209.376 132.656L210.391 119.257C210.391 119.257 210.391 119.261 210.395 119.261C212.227 122.64 214.245 125.766 216.338 128.725C227.178 144.038 240.018 154.933 239.129 174.089Z" fill="#DCAE88"/>
<path d="M239.129 174.089C238.804 181.092 235.838 185.239 232.109 187.666C229.668 189.263 226.902 190.12 224.343 190.559C219.606 191.373 215.572 190.771 215.572 190.771L208.958 138.138L208.996 137.636L209.376 132.655L210.391 119.256C210.391 119.256 210.391 119.26 210.395 119.26C212.227 122.64 214.245 125.765 216.338 128.724C227.178 144.037 240.018 154.932 239.129 174.088V174.089Z" fill="#DCAE88"/>
<g opacity="0.35">
<path d="M232.547 184.086C232.485 185.375 232.339 186.563 232.109 187.667C229.668 189.264 226.902 190.121 224.343 190.56C219.606 191.374 215.572 190.772 215.572 190.772L208.958 138.139L208.996 137.637C209.249 138.003 209.502 138.362 209.755 138.721C220.595 154.034 233.435 164.929 232.546 184.085L232.547 184.086Z" fill="#4E3823"/>
</g>
<path d="M219.204 192.538C217.011 192.538 215.515 192.324 215.348 192.299L214.215 192.13L206.794 139.317C206.675 138.473 207.258 137.692 208.097 137.573C208.932 137.454 209.711 138.04 209.829 138.884L216.922 189.357C219.777 189.568 227.451 189.673 232.564 185.428C235.675 182.844 237.37 179.006 237.601 174.019C238.273 159.514 230.815 149.998 222.18 138.981C217.647 133.197 212.959 127.217 209.046 119.995C208.641 119.247 208.915 118.31 209.658 117.901C210.4 117.493 211.332 117.768 211.738 118.517C215.526 125.509 220.132 131.386 224.586 137.069C233.226 148.093 241.388 158.506 240.662 174.162C240.389 180.064 238.315 184.659 234.5 187.82C229.687 191.808 223.256 192.536 219.204 192.536V192.538Z" fill="#4E3823"/>
<path d="M247.209 182.762V210.889H99.9971V182.762C112.167 163.575 130.854 185.155 130.854 185.155H216.352C216.352 185.155 223.506 176.895 231.842 175.138C236.981 174.058 242.568 175.445 247.209 182.762Z" fill="#DCAE88"/>
<g opacity="0.3">
<path d="M130.854 185.155C130.854 186.329 129.523 186.998 128.593 186.29C123.255 182.227 109.598 174.201 99.9971 189.337V182.762C112.167 163.575 130.854 185.155 130.854 185.155Z" fill="white"/>
</g>
<g opacity="0.3">
<path d="M247.209 182.762V189.337C237.67 174.3 224.127 182.006 218.718 186.189C217.784 186.91 216.436 186.245 216.436 185.059C217.802 183.528 235.515 164.326 247.209 182.762Z" fill="white"/>
</g>
<path d="M248.74 212.432H98.4658V182.312L98.7064 181.931C102.1 176.582 106.327 173.681 111.272 173.31C121.815 172.523 131.597 183.664 132.008 184.14C132.564 184.782 132.498 185.757 131.859 186.318C131.222 186.878 130.254 186.811 129.698 186.169C129.607 186.065 120.495 175.703 111.492 176.389C107.676 176.678 104.327 178.975 101.531 183.22V209.345H245.674V183.22C242.876 178.972 239.524 176.675 235.705 176.388C226.675 175.71 217.598 186.063 217.507 186.167C216.951 186.809 215.983 186.877 215.345 186.317C214.707 185.757 214.641 184.782 215.197 184.14C215.608 183.665 225.401 172.522 235.932 173.31C240.877 173.681 245.105 176.582 248.498 181.931L248.739 182.312V212.432H248.74Z" fill="#4E3823"/>
<path d="M81.467 196.744C79.972 186.352 78.5227 171.38 82.3984 168.396C87.5847 164.404 100.634 174.814 103.464 186.623C105.069 193.323 82.7442 205.619 81.467 196.744Z" fill="white"/>
<path d="M95.3901 196.277C94.8755 196.277 94.4334 195.887 94.3772 195.359C92.6644 179.172 84.356 168.268 84.272 168.161C83.9262 167.714 84.0053 167.068 84.4489 166.72C84.8926 166.371 85.5329 166.451 85.8795 166.898C86.2359 167.358 94.6276 178.346 96.4047 195.142C96.4643 195.706 96.0589 196.212 95.4986 196.272C95.4619 196.276 95.4252 196.277 95.3893 196.277H95.3901Z" fill="#4E3823"/>
<path d="M90.3183 201.386C89.9382 201.386 89.5736 201.172 89.3991 200.804C82.2219 185.771 80.7986 169.254 80.7848 169.089C80.7383 168.524 81.1559 168.029 81.717 167.982C82.2822 167.937 82.7708 168.355 82.8172 168.92C82.8311 169.082 84.2282 185.234 91.2374 199.916C91.4813 200.426 91.2676 201.04 90.7603 201.285C90.6184 201.354 90.4675 201.387 90.3191 201.387L90.3183 201.386Z" fill="#4E3823"/>
<path d="M85.5862 201.378C84.6809 201.378 83.8482 201.255 83.1191 200.988C81.3558 200.343 80.2302 198.914 79.9505 196.965C76.627 173.864 79.2246 168.897 81.4675 167.17C82.7105 166.212 84.9485 165.341 88.5485 166.627C94.7021 168.823 102.723 176.954 104.953 186.261C105.532 188.677 104.125 191.495 100.884 194.412C96.7126 198.167 90.2058 201.379 85.5862 201.379V201.378ZM82.9845 196.522C83.1044 197.36 83.4592 197.828 84.1671 198.088C87.1 199.161 94.234 196.258 98.8421 192.111C101.055 190.12 102.255 188.155 101.974 186.984C100.048 178.944 92.9478 171.471 87.5241 169.536C86.251 169.081 84.4893 168.727 83.3295 169.621C82.4389 170.307 79.7833 174.272 82.9845 196.522Z" fill="#4E3823"/>
<path d="M265.9 196.744C267.395 186.352 268.845 171.38 264.969 168.396C259.783 164.404 246.733 174.814 243.904 186.623C242.299 193.323 264.623 205.619 265.9 196.744Z" fill="white"/>
<path d="M251.976 196.277C251.94 196.277 251.904 196.276 251.867 196.272C251.307 196.212 250.901 195.706 250.961 195.142C252.738 178.346 261.13 167.358 261.486 166.898C261.832 166.451 262.472 166.371 262.917 166.72C263.36 167.068 263.439 167.714 263.094 168.161C263.01 168.269 254.701 179.173 252.988 195.359C252.933 195.887 252.49 196.277 251.975 196.277H251.976Z" fill="#4E3823"/>
<path d="M257.048 201.386C256.9 201.386 256.75 201.354 256.607 201.285C256.1 201.039 255.886 200.426 256.13 199.915C263.139 185.233 264.536 169.081 264.55 168.92C264.597 168.355 265.095 167.937 265.651 167.981C266.212 168.028 266.629 168.524 266.583 169.088C266.569 169.253 265.146 185.77 257.968 200.803C257.793 201.171 257.429 201.386 257.049 201.386L257.048 201.386Z" fill="#4E3823"/>
<path d="M261.78 201.378C257.161 201.378 250.654 198.166 246.482 194.412C243.241 191.495 241.834 188.676 242.413 186.26C244.643 176.953 252.664 168.822 258.818 166.626C262.418 165.341 264.656 166.212 265.899 167.169C268.142 168.896 270.74 173.863 267.416 196.964C267.136 198.913 266.01 200.342 264.247 200.987C263.519 201.254 262.686 201.377 261.78 201.377V201.378ZM262.195 169.068C261.383 169.068 260.54 169.287 259.842 169.535C254.42 171.471 247.319 178.944 245.393 186.984C245.112 188.155 246.312 190.12 248.524 192.11C253.132 196.258 260.268 199.162 263.199 198.087C263.908 197.828 264.262 197.36 264.382 196.522C267.582 174.272 264.927 170.307 264.037 169.622C263.512 169.218 262.864 169.068 262.195 169.068Z" fill="#4E3823"/>
<path d="M238.859 197.111C238.859 197.111 241.59 190.49 243.741 186.623C248.488 178.088 265.875 175.043 265.767 195.582C265.726 203.284 262.794 208.966 259.145 213.059C253.832 219.019 246.161 222.293 238.208 222.293H108.997C101.043 222.293 93.3718 219.019 88.0598 213.059C84.4108 208.966 81.4788 203.283 81.438 195.582C81.3295 175.043 98.7164 178.088 103.464 186.623C105.615 190.49 108.346 197.111 108.346 197.111" fill="#DCAE88"/>
<g opacity="0.3">
<path d="M265.766 199.054C265.013 205.024 262.446 209.604 259.366 213.057C254.053 219.019 246.383 222.293 238.427 222.293H108.777C100.822 222.293 93.1512 219.018 87.8384 213.057C84.7579 209.603 82.1913 205.024 81.4385 199.054C82.2557 198.629 82.7198 198.391 82.7198 198.391C82.7198 198.391 86.686 211.111 96.4674 212.061C106.931 213.078 111.447 202.314 111.447 202.314C111.447 202.314 112.641 209.773 128.069 211.179C131.557 211.497 174.198 210.888 174.198 210.888C189.059 210.023 216.728 211.397 219.136 211.179C234.564 209.774 233.271 200.053 233.271 200.053C233.271 200.053 239.926 210.713 247.832 210.713C262.305 210.713 264.484 198.391 264.484 198.391C264.484 198.391 264.949 198.629 265.766 199.054Z" fill="#4E3823"/>
</g>
<path d="M238.208 223.837H108.997C100.488 223.837 92.4405 220.284 86.9189 214.09C82.3027 208.911 79.9424 202.686 79.9048 195.589C79.8396 183.251 85.6849 179.854 89.1749 178.926C94.8253 177.425 101.836 180.539 104.801 185.868C106.97 189.77 109.649 196.245 109.761 196.519C110.086 197.306 109.716 198.209 108.934 198.536C108.153 198.863 107.256 198.49 106.93 197.703C106.903 197.637 104.208 191.12 102.126 187.377C99.8412 183.269 94.2707 180.766 89.9562 181.912C85.4109 183.119 82.9299 187.971 82.9698 195.574C83.0033 201.893 85.0994 207.429 89.1993 212.029C94.141 217.571 101.356 220.75 108.996 220.75H238.207C245.848 220.75 253.063 217.571 258.004 212.029C262.105 207.428 264.201 201.892 264.234 195.574C264.274 187.971 261.793 183.119 257.247 181.912C252.935 180.766 247.362 183.269 245.078 187.377C242.995 191.123 240.301 197.637 240.273 197.703C239.949 198.491 239.051 198.864 238.27 198.536C237.488 198.209 237.118 197.306 237.442 196.519C237.555 196.245 240.233 189.77 242.403 185.868C245.367 180.539 252.376 177.425 258.029 178.926C261.519 179.854 267.364 183.251 267.299 195.589C267.261 202.686 264.902 208.911 260.285 214.09C254.763 220.284 246.716 223.837 238.207 223.837H238.208Z" fill="#4E3823"/>
<path d="M98.0722 207.045C101.205 205.612 102.399 201.466 100.738 197.786C99.0768 194.106 95.1906 192.286 92.0576 193.719C88.9246 195.153 87.7312 199.298 89.3921 202.978C91.053 206.658 94.9392 208.479 98.0722 207.045Z" fill="white"/>
<path d="M98.8557 192.75C99.7805 192.327 100.133 191.103 99.6427 190.016C99.1526 188.93 98.0055 188.392 97.0807 188.815C96.1559 189.238 95.8036 190.462 96.2937 191.548C96.7839 192.635 97.9309 193.173 98.8557 192.75Z" fill="white"/>
<path d="M88.1287 195.847C89.0272 195.436 89.3696 194.247 88.8935 193.192C88.4173 192.136 87.3029 191.614 86.4043 192.025C85.5058 192.436 85.1633 193.625 85.6395 194.68C86.1157 195.736 87.2301 196.258 88.1287 195.847Z" fill="white"/>
<path d="M92.56 192.455C93.8563 191.862 94.3501 190.147 93.6629 188.624C92.9758 187.102 91.3679 186.349 90.0717 186.942C88.7754 187.535 88.2816 189.25 88.9688 190.772C89.6559 192.295 91.2637 193.048 92.56 192.455Z" fill="white"/>
<path d="M257.376 203.01C259.037 199.33 257.844 195.185 254.711 193.751C251.578 192.318 247.692 194.139 246.031 197.818C244.37 201.498 245.563 205.644 248.696 207.077C251.829 208.511 255.715 206.69 257.376 203.01Z" fill="white"/>
<path d="M250.434 191.52C250.924 190.433 250.572 189.21 249.647 188.787C248.722 188.364 247.575 188.901 247.085 189.988C246.595 191.074 246.947 192.298 247.872 192.721C248.797 193.144 249.944 192.606 250.434 191.52Z" fill="white"/>
<path d="M261.085 194.649C261.561 193.594 261.219 192.405 260.32 191.994C259.422 191.583 258.307 192.105 257.831 193.161C257.355 194.216 257.697 195.405 258.596 195.816C259.494 196.227 260.609 195.705 261.085 194.649Z" fill="white"/>
<path d="M257.801 190.802C258.488 189.28 257.994 187.565 256.698 186.972C255.401 186.378 253.794 187.132 253.106 188.654C252.419 190.177 252.913 191.892 254.209 192.485C255.506 193.078 257.114 192.325 257.801 190.802Z" fill="white"/>
<path d="M144.036 126.7L141.948 133.509L136.235 152.121C132.473 152.58 128.886 152.866 125.48 152.982C79.2584 154.591 64.9586 125.928 63.6137 101.282C62.1342 74.1512 81.4728 74.5602 86.5156 76.1304C100.351 80.4476 96.0719 91.1656 108.873 108.543C112.05 112.853 116.755 116.255 121.702 118.891C126.269 121.333 131.04 123.119 134.994 124.362C140.231 126.005 144.036 126.7 144.036 126.7Z" fill="#DCAE88"/>
<path d="M213.401 120.873L213.397 120.869C212.692 119.052 212.067 117.516 211.58 116.432H141.842C140.643 119.194 139.343 122.431 137.999 125.973C134.045 124.73 129.274 122.944 124.707 120.502C120.133 118.065 115.767 114.972 112.624 111.113C112.199 111.44 93.5789 120.15 89.7578 145.953C99.0409 151.746 111.643 155.179 128.485 154.593C126.933 159.987 125.588 165.188 124.603 169.787C123.658 174.35 123.491 179.028 124.072 183.598C131.51 184.534 138.818 185.347 146.243 185.693C155.949 186.268 165.573 186.515 175.36 185.529C190.612 184.133 205.537 182.901 220.544 178.631C227.829 176.524 234.966 175.084 242.165 172.832C241.717 155.423 229.63 144.869 219.344 130.337C217.252 127.378 215.233 124.252 213.401 120.873Z" fill="#ACD13F"/>
<g opacity="0.35">
<path d="M136.591 150.96L136.235 152.121C132.473 152.58 128.886 152.866 125.48 152.982C79.2584 154.591 64.9586 125.928 63.6137 101.282C62.1342 74.1512 81.4728 74.5602 86.5156 76.1304C88.4045 76.7208 89.9598 77.4304 91.2631 78.2639C90.1743 78.3239 93.0607 82.7717 91.9017 82.8538C83.5851 83.4443 77.6346 83.8525 74.1862 93.1119C67.8874 110.024 79.9142 150.577 132.918 150.577C133.99 150.577 135.251 150.743 136.592 150.959L136.591 150.96Z" fill="#4E3823"/>
</g>
<path d="M121.769 154.593C104.503 154.593 90.6317 150.252 80.405 141.624C69.5038 132.428 62.9978 118.13 62.0835 101.365C61.484 90.3649 64.1143 82.4818 69.9026 77.9338C75.6501 73.417 83.2563 73.5 86.9673 74.6579C95.805 77.4148 97.8636 82.6395 100.712 89.8705C102.599 94.6633 104.949 100.627 110.103 107.622C119.617 120.534 144.062 125.137 144.308 125.182C145.14 125.335 145.693 126.138 145.542 126.977C145.391 127.815 144.597 128.372 143.76 128.219C142.708 128.027 117.88 123.357 107.641 109.461C102.247 102.141 99.8153 95.9682 97.8619 91.0079C95.1395 84.0964 93.4961 79.9253 86.0595 77.6062C84.0613 76.9828 77.1508 76.1526 71.7874 80.3672C66.8376 84.2565 64.6021 91.2642 65.1436 101.196C65.6452 110.406 68.5512 127.598 82.373 139.259C94.6722 149.635 112.733 153.447 136.05 150.588C136.889 150.485 137.654 151.087 137.756 151.933C137.858 152.779 137.26 153.548 136.42 153.652C131.296 154.28 126.409 154.594 121.769 154.594L121.769 154.593Z" fill="#4E3823"/>
<path d="M160.669 191C155.376 191 150.339 190.754 145.757 190.469C138.015 190.089 130.482 189.182 123.495 188.259L122.554 188.135L122.433 187.14C121.827 182.138 122.011 177.11 122.98 172.194L122.981 172.185C123.842 167.96 126.835 160.887 128.26 155.579C113.116 155.886 100.428 152.753 90.5213 146.257L89.8369 145.808L89.956 144.965C90.8002 138.976 90.5906 135.623 92.9561 130.558C94.8901 126.419 97.329 122.611 100.205 119.238C102.51 116.536 106.315 112.706 111.353 109.805C111.417 109.768 111.469 109.739 111.506 109.717L112.394 109L113.143 109.967C115.858 113.47 119.798 116.681 124.853 119.511C128.395 121.502 132.425 123.278 136.846 124.802C138.083 121.417 139.241 118.413 140.297 115.859L140.617 115.083H211.955L212.281 115.844C212.746 116.934 213.354 118.493 214.089 120.48C215.712 123.622 217.622 126.815 219.927 130.241C222.216 133.641 224.614 136.855 226.932 139.964C231.027 145.455 234.895 150.642 237.837 156.332C241.179 162.798 242.813 168.928 242.976 175.624L243 176.604L242.116 176.895C238.063 178.226 233.97 179.306 230.011 180.351C226.89 181.174 223.663 182.025 220.466 182.997C205.981 187.33 191.9 188.679 176.993 190.107L175.058 190.292C170.156 190.811 165.314 191 160.669 191ZM124.751 185.815C131.42 186.687 138.566 187.525 145.877 187.883H145.892C154.403 188.414 164.495 188.807 174.819 187.716H174.829L176.772 187.528C191.564 186.111 205.535 184.773 219.796 180.507C223.03 179.524 226.279 178.667 229.42 177.838C233.051 176.88 236.798 175.892 240.495 174.712C240.212 168.819 238.674 163.348 235.69 157.575C232.847 152.076 229.041 146.972 225.011 141.568C222.674 138.435 220.258 135.195 217.934 131.744C215.723 128.456 213.863 125.373 212.264 122.34H211.763L211.76 121.288C211.221 119.831 210.754 118.62 210.369 117.673H142.221C141.147 120.31 139.971 123.399 138.717 126.869L138.307 128.005L137.21 127.642C132.213 125.993 127.67 124.026 123.707 121.799C118.759 119.029 114.798 115.882 111.917 112.437C107.482 115.116 104.105 118.531 102.021 120.974C99.2948 124.17 96.9831 127.781 95.1486 131.706C93.0075 136.29 93.337 139.096 92.5001 144.5C102.256 150.654 114.817 153.494 129.853 152.944L131.541 152.882L131.071 154.599C129.45 160.521 126.314 168.114 125.375 172.727C124.526 177.034 124.317 181.431 124.751 185.817V185.815Z" fill="#4E3823"/>
<g opacity="0.35">
<path d="M216.338 128.725C215.695 129.15 215.043 129.558 214.38 129.956C212.76 130.928 211.092 131.828 209.376 132.657C199.23 137.569 187.482 139.999 174.956 140.03C163.021 140.061 151.778 137.916 141.946 133.509C138.939 132.167 136.061 130.608 133.337 128.833C129.054 126.052 125.149 122.741 121.7 118.891C126.268 121.333 131.038 123.119 134.992 124.362C136.337 120.82 137.636 117.583 138.835 114.821H208.575C209.062 115.905 209.686 117.44 210.391 119.258C210.391 119.258 210.391 119.262 210.395 119.262C212.227 122.641 214.246 125.767 216.338 128.726V128.725Z" fill="#4E3823"/>
</g>
<path d="M244.512 85.3841C244.596 117.113 213.439 132.209 174.955 132.312C136.472 132.415 105.233 117.487 105.149 85.757C105.069 55.3465 124.584 20.5622 168.773 17.6139C174.109 14.8546 181.339 10.0799 185.395 3.02957C186.665 0.825365 189.899 1.13497 190.708 3.55598C191.783 6.77441 192.769 11.0005 190.64 16.4667C196.547 13.5595 202.413 10.254 204.344 8.50065C206.41 6.62413 209.704 8.14506 209.616 10.9447C209.528 13.6523 208.572 19.3944 207.462 24.2101C232.832 36.1977 244.45 62.0486 244.512 85.3849V85.3841Z" fill="#DCAE88"/>
<g opacity="0.35">
<path d="M244.512 85.3832C244.595 117.114 213.44 132.208 174.953 132.311C136.469 132.415 105.233 117.486 105.148 85.7586C105.144 84.475 105.175 83.1848 105.243 81.8881C107.136 111.665 137.638 125.699 174.953 125.599C212.131 125.5 242.465 111.411 244.413 81.8503C244.478 83.0337 244.508 84.2105 244.512 85.3832Z" fill="#4E3823"/>
</g>
<g opacity="0.3">
<path d="M241.999 100.031C242.669 97.0342 243.011 93.8543 243.002 90.4881C242.944 68.5405 231.001 43.0871 208.473 30.1632C205.912 28.694 204.576 25.7368 205.209 22.8378C205.923 19.5676 206.512 16.4929 206.57 14.7018C206.658 11.9022 204.9 11.7273 202.833 13.6038C201.325 14.9744 197.41 17.2944 192.951 19.63C191.584 20.3462 189.957 19.2055 190.194 17.673C190.757 14.0399 190.002 11.067 189.198 8.65995C188.388 6.23894 187.013 5.63615 185.101 8.98269C182.41 13.6917 177.749 17.0004 173.36 19.5011C169.851 21.5008 165.964 22.7171 161.966 23.2377C132.207 27.1123 114.628 46.0952 107.442 67.4729C113.756 42.8275 133.326 19.9799 168.773 17.6147C174.109 14.8554 181.339 10.0807 185.395 3.03036C186.665 0.826158 189.899 1.13576 190.709 3.55677C191.784 6.7752 192.77 11.0013 190.64 16.4675C196.547 13.5603 202.413 10.2548 204.344 8.50145C206.411 6.62492 209.705 8.14585 209.617 10.9454C209.529 13.6531 208.573 19.3952 207.462 24.2109C232.833 36.1985 244.451 62.0494 244.512 85.3857C244.526 90.7386 243.651 95.6183 241.999 100.032V100.031Z" fill="white"/>
</g>
<path d="M230.738 81.1293C230.763 90.3756 228.006 100.335 219.688 108.048C211.188 115.937 196.878 121.483 173.785 121.545H173.781C150.929 121.606 136.65 116.249 128.076 108.543C119.505 100.839 116.637 90.7813 116.611 81.4356C116.607 79.5361 116.757 77.6702 117.053 75.8569C119.652 59.8099 133.461 47.5448 150.135 47.5004C159.255 47.4758 167.543 51.1122 173.611 57.0366C179.65 51.0794 187.917 47.3994 197.036 47.3748C213.506 47.3304 227.236 59.2154 230.159 74.9511V74.9544C230.535 76.9557 230.732 79.0212 230.738 81.1301V81.1293Z" fill="#FEFAFB"/>
<path d="M182.191 83.3408C182.198 86.2217 178.397 89.6939 173.697 89.7071C168.997 89.7194 165.177 86.2677 165.17 83.3868C165.163 80.5059 168.97 79.2872 173.67 79.2749C178.37 79.2626 182.184 80.4607 182.191 83.3416L182.191 83.3408Z" fill="#4E3823"/>
<g opacity="0.5">
<path d="M177.381 81.7633C177.383 82.4367 175.834 83.2505 173.92 83.2555C172.007 83.2604 170.453 82.4547 170.451 81.7813C170.45 81.1079 172 80.8213 173.914 80.8156C175.828 80.8106 177.38 81.089 177.382 81.7624L177.381 81.7633Z" fill="#FEFAFB"/>
</g>
<path d="M142.629 129.758C142.489 129.758 142.347 129.739 142.207 129.698C117.377 122.559 103.671 106.956 103.615 85.7611C103.573 69.6484 108.725 54.0153 118.123 41.7427C129.033 27.4951 144.984 18.7596 164.25 16.4806C165.088 16.3837 165.852 16.9865 165.95 17.8332C166.049 18.6799 165.448 19.4469 164.607 19.5463C124.7 24.2668 106.605 57.1754 106.681 85.7537C106.733 105.451 119.648 120.004 143.049 126.732C143.863 126.966 144.334 127.82 144.102 128.64C143.909 129.318 143.296 129.76 142.629 129.76V129.758Z" fill="#4E3823"/>
<path d="M204.785 130.272C204.105 130.272 203.482 129.812 203.303 129.117C203.089 128.293 203.58 127.45 204.399 127.235C229.331 120.692 243.032 105.831 242.978 85.3882C242.924 64.6429 233.336 38.0159 206.594 25.5019C205.826 25.143 205.493 24.2249 205.85 23.4521C206.207 22.6793 207.118 22.3442 207.886 22.7031C220.065 28.4025 230.049 37.7334 236.759 49.6865C242.8 60.448 246.011 72.7912 246.044 85.38C246.102 107.365 231.587 123.29 205.173 130.221C205.043 130.255 204.914 130.271 204.785 130.271V130.272Z" fill="#4E3823"/>
<path d="M161.948 81.7895C160.546 91.8127 152.541 94.1894 142.089 98.4524C135.531 101.126 131.021 105.072 128.075 108.542C119.504 100.838 116.636 90.7804 116.61 81.4347C116.606 79.5352 116.756 77.6694 117.053 75.8561C123.2 69.3888 132.922 63.1688 146.947 64.831C157.212 66.0497 162.956 74.5971 161.948 81.7903V81.7895Z" fill="#967660"/>
<path d="M230.738 81.1293C230.763 90.3756 228.006 100.335 219.688 108.048C216.717 104.657 212.246 100.858 205.83 98.2825C195.356 94.0753 187.339 91.7413 185.882 81.7263C184.837 74.5388 190.536 65.9602 200.794 64.6873C214.373 63.0013 223.954 68.7401 230.158 74.9511V74.9544C230.534 76.9557 230.732 79.0211 230.737 81.1301L230.738 81.1293Z" fill="#967660"/>
<path d="M189.178 20.1039C188.804 20.1039 188.43 19.9676 188.134 19.6908C187.515 19.1102 187.479 18.1338 188.055 17.5096C191.513 13.7639 190.616 8.12122 189.254 4.04624C188.994 3.26771 188.347 3.12153 188.081 3.09442C187.871 3.07307 187.149 3.06157 186.722 3.80397C179.492 16.3681 165.334 19.4009 164.735 19.5233C163.903 19.6941 163.096 19.1546 162.927 18.3194C162.757 17.4842 163.293 16.6695 164.123 16.4987C164.255 16.4716 177.544 13.5948 184.069 2.25594C184.965 0.698873 186.617 -0.156035 188.388 0.0221734C190.147 0.200382 191.593 1.3649 192.16 3.06075C194.494 10.0429 193.851 15.7653 190.301 19.6103C190 19.9372 189.589 20.1031 189.178 20.1031L189.178 20.1039Z" fill="#4E3823"/>
<path d="M207.238 25.6465C207.012 25.6465 206.782 25.5955 206.565 25.4888C205.805 25.1135 205.491 24.1888 205.863 23.4234C207.137 20.8061 207.904 16.4749 208.082 10.8954C208.113 9.90169 207.379 9.48039 207.153 9.37445C206.924 9.26687 206.116 8.96876 205.368 9.64793C199.851 14.6567 194.953 17.522 190.81 18.1642C189.977 18.2923 189.191 17.7158 189.062 16.8732C188.933 16.0306 189.507 15.243 190.344 15.1133C193.836 14.5721 198.321 11.8891 203.316 7.35503C204.742 6.06158 206.707 5.76265 208.445 6.57485C210.172 7.38295 211.208 9.07552 211.146 10.9939C210.952 17.0924 210.1 21.7316 208.616 24.7817C208.35 25.3286 207.805 25.6456 207.238 25.6456V25.6465Z" fill="#4E3823"/>
<path d="M133.96 81.5177C134.147 81.2812 134.277 81.1268 134.435 80.9437C134.589 80.7704 134.747 80.607 134.907 80.4452C135.225 80.1192 135.564 79.8219 135.914 79.5377C136.613 78.9702 137.366 78.4693 138.161 78.0316C139.754 77.1652 141.526 76.5681 143.371 76.2988C144.294 76.169 145.234 76.1312 146.169 76.1715C147.104 76.2298 148.034 76.3702 148.935 76.6075C150.733 77.0929 152.413 77.933 153.769 79.1222C154.471 79.7373 154.544 80.809 153.933 81.5153C153.538 81.9727 152.952 82.1649 152.398 82.077L152.301 82.0614C150.797 81.8175 149.426 81.599 148.077 81.5144C147.402 81.4841 146.738 81.4652 146.076 81.4873C145.414 81.512 144.755 81.5654 144.093 81.645C142.773 81.8249 141.445 82.123 140.107 82.5402C139.436 82.7438 138.766 82.9795 138.091 83.2325L137.076 83.6226L136.573 83.8262C136.41 83.8829 136.224 83.9765 136.105 83.9995L135.52 84.1128C134.649 84.2812 133.808 83.7071 133.64 82.8301C133.548 82.3505 133.682 81.8741 133.96 81.5185V81.5177Z" fill="#4E3823"/>
<path d="M212.726 83.7934C212.608 83.7712 212.421 83.6784 212.258 83.6226L211.754 83.4213L210.738 83.037C210.062 82.7882 209.389 82.5558 208.718 82.3554C207.378 81.9448 206.048 81.654 204.727 81.4816C204.065 81.406 203.406 81.3559 202.743 81.3346C202.081 81.3157 201.417 81.3379 200.742 81.3724C199.393 81.4643 198.023 81.6902 196.52 81.9423L196.427 81.9579C195.509 82.1115 194.641 81.4873 194.489 80.5634C194.39 79.9648 194.618 79.3858 195.038 79.0113C196.388 77.8148 198.063 76.9656 199.859 76.4704C200.758 76.2289 201.687 76.0828 202.623 76.0195C203.558 75.9744 204.498 76.0072 205.422 76.132C207.268 76.3916 209.043 76.9787 210.64 77.8369C211.438 78.2705 212.193 78.7674 212.895 79.3316C213.246 79.6141 213.586 79.9097 213.906 80.2341C214.067 80.3951 214.226 80.5577 214.381 80.7293C214.54 80.9116 214.67 81.0644 214.858 81.3001C215.414 81.9957 215.304 83.0132 214.613 83.5733C214.236 83.8796 213.762 83.9847 213.319 83.9042L212.726 83.7925V83.7934Z" fill="#4E3823"/>
<path d="M183.509 97.0243C183.309 97.2173 183.157 97.3536 182.984 97.5064C182.812 97.6517 182.639 97.7864 182.465 97.9244C182.115 98.1929 181.748 98.4319 181.378 98.6717C180.631 99.1341 179.838 99.5233 179.008 99.8461C177.354 100.497 175.539 100.864 173.658 100.843C171.741 100.816 169.929 100.337 168.302 99.612C167.488 99.2449 166.717 98.8113 165.994 98.3145C165.637 98.0583 165.281 97.8037 164.946 97.5171C164.778 97.3742 164.612 97.2288 164.448 97.0769C164.281 96.9151 164.14 96.7771 163.948 96.5743C163.364 95.9567 163.387 94.9786 164 94.3898C164.37 94.0342 164.87 93.902 165.337 93.9882L165.733 94.0646C165.864 94.09 166.054 94.1664 166.222 94.2149L166.74 94.3873C167.088 94.4974 167.429 94.6189 167.777 94.7175C168.466 94.9269 169.146 95.1256 169.822 95.2841C171.167 95.611 172.48 95.8196 173.723 95.8278C174.359 95.8212 175.015 95.8048 175.677 95.7227C176.342 95.6635 177.015 95.5486 177.699 95.4213C178.383 95.294 179.074 95.1371 179.773 94.9622C180.126 94.8833 180.472 94.784 180.826 94.6928L181.351 94.5499C181.524 94.5122 181.712 94.4464 181.847 94.43L182.262 94.3783C183.102 94.274 183.866 94.8751 183.97 95.7202C184.031 96.2195 183.842 96.6975 183.509 97.0227V97.0243Z" fill="#4E3823"/>
<path d="M123.97 213.643H223.397C225.163 213.643 226.597 215.087 226.597 216.865C226.597 219.951 224.109 222.457 221.044 222.457H126.324C123.259 222.457 120.771 219.951 120.771 216.865C120.771 215.087 122.204 213.643 123.97 213.643Z" fill="#85CAED"/>
<g opacity="0.3">
<path d="M226.596 216.865C226.596 217.476 226.497 218.062 226.317 218.614C225.82 217.487 224.701 216.705 223.398 216.705H123.972C123.089 216.705 122.288 217.064 121.709 217.65C121.434 217.928 121.208 218.251 121.049 218.614C120.869 218.062 120.771 217.476 120.771 216.865C120.771 215.977 121.127 215.17 121.709 214.587C122.288 214.001 123.089 213.642 123.972 213.642H223.398C225.166 213.642 226.596 215.085 226.596 216.865Z" fill="white"/>
</g>
<g opacity="0.25">
<path d="M226.596 216.865C226.596 218.407 225.975 219.808 224.969 220.817C223.967 221.829 222.576 222.455 221.044 222.455H126.326C123.258 222.455 120.771 219.954 120.771 216.865C120.771 216.271 120.93 215.714 121.212 215.234C122.052 217.235 124.028 218.642 126.326 218.642H221.044C222.576 218.642 223.967 218.016 224.969 217.004C225.47 216.5 225.876 215.898 226.155 215.234C226.437 215.714 226.596 216.272 226.596 216.865Z" fill="#4E3823"/>
</g>
<path d="M221.045 224H126.324C122.417 224 119.238 220.8 119.238 216.865C119.238 214.238 121.361 212.1 123.97 212.1H223.398C226.007 212.1 228.13 214.238 228.13 216.865C228.13 220.8 224.951 224 221.044 224H221.045ZM123.97 215.186C123.051 215.186 122.304 215.94 122.304 216.865C122.304 219.097 124.107 220.914 126.325 220.914H221.045C223.261 220.914 225.065 219.098 225.065 216.865C225.065 215.94 224.317 215.186 223.399 215.186H123.97Z" fill="#4E3823"/>
<path d="M232.127 150.69L222.862 213.643H124.507L124.172 211.364L115.239 150.69C114.946 148.696 116.481 146.909 118.479 146.909H228.886C230.888 146.909 232.419 148.697 232.127 150.69Z" fill="#FF66AC"/>
<path d="M232.127 150.69L222.862 213.643H124.507L124.172 211.364L115.239 150.69C114.946 148.696 116.481 146.909 118.479 146.909H228.886C230.888 146.909 232.419 148.697 232.127 150.69Z" fill="#85CAED"/>
<g opacity="0.4">
<path d="M118.91 154.385C118.617 152.391 120.152 150.604 122.15 150.604H232.135C232.372 148.646 230.859 146.909 228.887 146.909H118.479C116.482 146.909 114.946 148.697 115.239 150.69L124.172 211.364L124.507 213.643H127.634L118.909 154.385H118.91Z" fill="white"/>
</g>
<g opacity="0.25">
<path d="M232.127 150.69L222.863 213.643H124.508L124.173 211.364C133.282 211.002 176.187 211.104 199.994 195.039C218.959 182.241 220.582 157.753 217.641 146.909H228.886C230.887 146.909 232.419 148.697 232.126 150.69H232.127Z" fill="#4E3823"/>
</g>
<path d="M224.182 215.186H123.186L113.725 150.915C113.52 149.521 113.926 148.109 114.841 147.043C115.755 145.976 117.081 145.364 118.48 145.364L228.5 145.913C229.899 145.913 231.226 146.525 232.14 147.592C233.054 148.658 233.46 150.069 233.256 151.463L224.182 215.186ZM125.83 212.1H221.538L230.223 151.011C230.298 150.499 230.156 150.001 229.819 149.609C229.482 149.216 229.015 149 228.5 149L118.48 148.451C117.965 148.451 117.497 148.667 117.161 149.059C116.825 149.45 116.681 149.949 116.756 150.462L125.83 212.1Z" fill="#4E3823"/>
<g opacity="0.3">
<path d="M132.456 197.582C128.725 189.301 126.008 175.165 126.621 166.845C127.232 158.525 132.025 161.071 133.51 171.728C137.463 200.09 134.122 201.28 132.456 197.582Z" fill="white"/>
</g>
<path fill-rule="evenodd" clip-rule="evenodd" d="M177.852 174.791C177.692 175.218 177.384 175.84 176.725 176.504C175.72 174.508 175.857 172.34 177.046 171.065C177.652 170.415 178.406 170.131 178.953 170C178.863 170.18 178.723 170.48 178.588 170.863C178.27 171.762 178.217 172.445 178.167 173.078C178.122 173.648 178.081 174.179 177.852 174.791ZM176.147 176.462C176.156 176.227 176.136 175.884 175.968 175.533C175.67 174.908 175.061 174.587 174.3 174.184L174.299 174.184C174.159 174.11 174.028 174.046 173.905 173.985L173.904 173.985C173.459 173.767 173.11 173.596 172.778 173.178C172.672 173.044 172.598 172.923 172.552 172.84C172.484 173.205 172.437 173.807 172.704 174.437C173.044 175.237 173.893 176.096 174.726 176.111C174.757 176.112 174.793 176.111 174.833 176.111C175.075 176.107 175.473 176.102 175.903 176.317C176.011 176.37 176.094 176.425 176.147 176.462ZM181.039 184.776C181.021 185.899 180.549 186.702 180.335 187.024C180.553 187.69 180.589 188.263 180.561 188.713C180.351 192.057 176.256 193.876 175.965 194C175.553 193.394 175.016 192.447 174.705 191.188C174.241 189.317 174.518 187.744 174.723 186.931C174.551 186.596 174.395 186.188 174.312 185.711C173.974 183.763 175.135 182.187 175.455 181.779C175.272 181.509 174.698 180.585 174.849 179.366C174.863 179.26 175.138 177.3 176.728 176.742C178.117 176.254 179.625 177.146 180.331 178.263C181.067 179.43 181.011 180.976 180.19 182.191C180.41 182.483 181.061 183.424 181.039 184.776ZM174.141 182.572C174.212 182.964 174.325 183.903 173.892 184.958C173.545 185.799 173.011 186.326 172.711 186.582C172.735 186.951 172.721 187.445 172.568 187.996C172.195 189.337 171.251 190.11 170.872 190.388C170.546 190.088 169.874 189.388 169.534 188.264C169.253 187.335 169.326 186.539 169.396 186.114C169.319 185.961 168.556 184.388 169.378 182.982C169.706 182.422 170.162 182.098 170.458 181.927C170.394 181.687 169.834 179.467 171.203 177.952L171.203 177.952C171.414 177.719 172.007 177.064 173.014 176.914C174.186 176.74 175.069 177.378 175.255 177.519C175.056 177.783 174.508 178.58 174.501 179.729C174.496 180.676 174.86 181.37 175.038 181.664C174.981 181.781 174.899 181.919 174.782 182.06C174.559 182.329 174.31 182.485 174.141 182.572ZM179.12 176.682C180.156 176.892 181.227 177.109 181.929 176.529C182.794 175.813 182.556 174.333 182.525 174.155C182.414 174.17 182.249 174.201 182.062 174.275C181.74 174.402 181.562 174.572 181.382 174.743C181.244 174.875 181.104 175.007 180.898 175.122C180.694 175.235 180.423 175.292 179.874 175.363C179.522 175.408 179.269 175.43 179.075 175.448C178.71 175.48 178.555 175.494 178.339 175.608C178.021 175.777 177.82 176.032 177.696 176.232C178.037 176.381 178.521 176.561 179.12 176.682Z" fill="white"/>
<path d="M95.9368 82.8941C95.9213 82.8867 95.9058 82.8826 95.8911 82.8785C92.3776 81.5201 84.7485 79.7151 77.8021 81.8486C68.4032 84.7386 63.7168 94.3725 63.7168 94.3725C64.786 86.4944 64.242 73.7857 68.0354 68.0904C69.1845 66.3617 70.7293 65.2818 72.84 65.1734C86.2932 64.4868 95.9368 82.8941 95.9368 82.8941Z" fill="white"/>
<g opacity="0.35">
<path d="M95.8911 82.8785C92.3776 81.5202 84.7485 79.7151 77.8021 81.8487C68.4032 84.7386 63.7168 94.3725 63.7168 94.3725C64.786 86.4944 64.242 73.7857 68.0354 68.0905C67.4604 72.1991 67.139 79.2371 71.3459 79.7652C77.0477 80.4829 91.3205 75.2007 95.8911 82.8785Z" fill="#4E3823"/>
</g>
<path d="M63.7157 95.9148C63.5664 95.9148 63.4164 95.8927 63.2679 95.8467C62.5494 95.6249 62.0959 94.9129 62.1979 94.1631C62.4964 91.9581 62.6676 89.3474 62.8487 86.5839C63.5403 76.0278 64.3233 64.0631 72.7606 63.632C87.0139 62.8994 96.8793 81.3855 97.292 82.1731C97.5905 82.7422 97.5065 83.4378 97.0824 83.9182C96.6575 84.3986 95.9814 84.5637 95.3852 84.3329C94.4619 83.974 86.1363 80.9026 78.2496 83.3253C69.623 85.9754 65.1356 94.9614 65.0916 95.0517C64.8273 95.5905 64.2874 95.9132 63.7157 95.9132V95.9148ZM73.5689 66.6993C73.3511 66.6993 73.1342 66.7051 72.9148 66.7157C67.2015 67.0073 66.483 77.9749 65.9064 86.7884C65.8688 87.369 65.8305 87.9431 65.7922 88.5081C68.2757 85.4942 72.113 81.985 77.354 80.3746C82.4091 78.8208 88.0554 79.1985 92.5078 80.2415C89.1858 75.3059 82.1587 66.6993 73.568 66.6993H73.5689Z" fill="#4E3823"/>
<path d="M236.579 184.682C233.243 193.905 224.525 197.288 215.573 190.773C204.123 182.44 209.342 162.735 217.646 159.2C226.391 155.478 228.284 158.247 232.03 151.349C232.03 151.349 244.838 161.85 236.579 184.682Z" fill="#DCAE88"/>
<g opacity="0.3">
<path d="M234.481 154.109C231.918 158.619 225.807 161.547 217.691 162.195C212.751 162.593 209.292 170.479 209.081 178.886C208.2 170.529 212.277 161.486 217.645 159.202C226.393 155.478 228.285 158.249 232.029 151.351C232.029 151.351 233.132 152.253 234.481 154.109V154.109Z" fill="white"/>
</g>
<g opacity="0.3">
<path d="M236.578 184.684C233.244 193.905 224.523 197.288 215.573 190.772C208.921 185.93 207.894 177.249 209.833 170.134C210.825 173.179 212.641 175.944 215.481 178.012C224.435 184.525 236.083 181.751 238.654 171.635C238.911 170.628 239.129 169.648 239.32 168.695C239.519 173.128 238.833 178.444 236.577 184.682L236.578 184.684Z" fill="#4E3823"/>
</g>
<path d="M224.81 195.689C221.49 195.689 217.998 194.442 214.675 192.023C209.302 188.114 206.719 181.444 207.588 173.727C208.419 166.355 212.31 159.796 217.05 157.78C220.208 156.436 222.475 155.912 224.296 155.492C227.407 154.774 228.57 154.505 230.685 150.609C230.904 150.207 231.289 149.924 231.736 149.835C232.182 149.746 232.645 149.863 232.998 150.153C233.556 150.61 246.554 161.617 238.02 185.21C236.184 190.287 232.818 193.811 228.542 195.133C227.336 195.505 226.087 195.689 224.811 195.689L224.81 195.689ZM232.335 153.838C230.143 157.159 228.177 157.762 224.98 158.501C223.276 158.894 221.153 159.384 218.242 160.623C214.534 162.201 211.334 167.859 210.633 174.075C209.892 180.653 212.02 186.284 216.469 189.523C220.327 192.33 224.188 193.25 227.641 192.183C230.976 191.152 233.638 188.301 235.138 184.155C241.398 166.85 235.209 157.148 232.334 153.838H232.335Z" fill="#4E3823"/>
<path d="M224.81 195.689C221.49 195.689 217.998 194.442 214.675 192.023C209.302 188.114 206.719 181.444 207.588 173.727C208.419 166.355 212.31 159.796 217.05 157.78C220.208 156.436 222.475 155.912 224.296 155.492C227.407 154.774 228.57 154.505 230.685 150.609C230.904 150.207 231.289 149.924 231.736 149.835C232.182 149.746 232.645 149.863 232.998 150.153C233.556 150.61 246.554 161.617 238.02 185.21C236.184 190.287 232.818 193.811 228.542 195.133C227.336 195.505 226.087 195.689 224.811 195.689L224.81 195.689ZM232.335 153.838C230.143 157.159 228.177 157.762 224.98 158.501C223.276 158.894 221.153 159.384 218.242 160.623C214.534 162.201 211.334 167.859 210.633 174.075C209.892 180.653 212.02 186.284 216.469 189.523C220.327 192.33 224.188 193.25 227.641 192.183C230.976 191.152 233.638 188.301 235.138 184.155C241.398 166.85 235.209 157.148 232.334 153.838H232.335Z" fill="#4E3823"/>
<path d="M224.649 157.329C224.649 157.329 202.76 159.346 197.934 172.929C194.681 182.086 211.356 187.181 219.471 193.071C219.471 193.071 212.995 184.7 216.911 179.512C216.911 179.512 211.743 173.145 218.807 168.621C218.807 168.621 216.739 162.012 224.649 157.329V157.329Z" fill="white"/>
<g opacity="0.3">
<path d="M215.872 177.783C216.366 178.843 216.911 179.512 216.911 179.512C212.996 184.7 219.472 193.07 219.472 193.07C211.787 187.493 196.421 182.626 197.58 174.345C199.44 177.68 205.577 173.842 215.872 177.782V177.783Z" fill="#4E3823"/>
</g>
<path d="M216.913 180.539C216.847 180.539 216.78 180.532 216.713 180.519C212.863 179.748 202.159 178.073 198.908 179.564C198.395 179.798 197.791 179.57 197.559 179.055C197.325 178.539 197.552 177.929 198.064 177.695C202.499 175.663 215.627 178.209 217.111 178.505C217.663 178.616 218.022 179.156 217.912 179.712C217.815 180.201 217.389 180.539 216.913 180.539Z" fill="#4E3823"/>
<path d="M198.067 173.481C197.784 173.481 197.502 173.362 197.3 173.131C196.928 172.705 196.971 172.056 197.394 171.682C204.126 165.735 218.214 167.114 218.81 167.176C219.37 167.234 219.777 167.738 219.72 168.302C219.663 168.866 219.165 169.277 218.602 169.218C218.466 169.205 204.802 167.869 198.738 173.225C198.545 173.396 198.305 173.48 198.066 173.48L198.067 173.481Z" fill="#4E3823"/>
<path d="M219.47 194.614C219.158 194.614 218.844 194.518 218.575 194.323C216.481 192.803 213.782 191.331 210.924 189.772C202.835 185.36 193.666 180.359 196.49 172.409C201.587 158.064 223.576 155.878 224.509 155.793C225.231 155.726 225.888 156.169 226.108 156.857C226.327 157.545 226.044 158.294 225.426 158.661C218.731 162.625 220.205 167.947 220.271 168.171C220.466 168.832 220.205 169.555 219.628 169.925C217.908 171.027 216.914 172.318 216.677 173.763C216.274 176.216 218.082 178.518 218.1 178.541C218.541 179.094 218.555 179.883 218.13 180.446C215.512 183.913 219.082 190.052 220.679 192.124C221.147 192.73 221.101 193.59 220.572 194.142C220.273 194.454 219.872 194.614 219.468 194.614H219.47ZM219.454 159.796C212.931 161.29 202.39 164.969 199.377 173.449C197.577 178.515 203.632 182.285 212.384 187.058C213.353 187.586 214.304 188.105 215.225 188.622C214.12 185.844 213.489 182.444 215.073 179.535C214.317 178.281 213.227 175.929 213.649 173.29C213.979 171.224 215.137 169.428 217.095 167.939C216.807 165.849 217.18 162.734 219.454 159.796Z" fill="#4E3823"/>
<path d="M82.8938 81.9587C82.4982 81.9587 82.1214 81.7255 81.9558 81.3354C78.5083 73.2232 72.9615 66.0004 72.906 65.9281C72.561 65.4806 72.6401 64.8359 73.0846 64.4877C73.5291 64.1395 74.1702 64.22 74.5152 64.6675C74.7493 64.9697 80.2757 72.1646 83.8309 80.5273C84.0519 81.0488 83.8121 81.6515 83.2942 81.8749C83.1637 81.9316 83.0275 81.9579 82.8938 81.9579V81.9587Z" fill="#4E3823"/>
<path d="M72.7956 85.2453C72.3878 85.2453 72.0037 84.9981 71.8455 84.5932C68.9566 77.1676 67.9893 67.4384 67.9502 67.0278C67.8956 66.4636 68.3058 65.9618 68.8661 65.9068C69.4305 65.8551 69.9256 66.2649 69.9802 66.8291C69.99 66.9268 70.9605 76.6888 73.745 83.8443C73.9497 84.3723 73.692 84.9677 73.1675 85.1747C73.0452 85.2231 72.9196 85.2453 72.7956 85.2453Z" fill="#4E3823"/>
</g>
</g>
<defs>
<clipPath id="clip0_1690_122950">
<rect width="440" height="224" fill="white"/>
</clipPath>
<clipPath id="clip1_1690_122950">
<rect width="207" height="224" fill="white" transform="translate(62)"/>
</clipPath>
</defs>
</svg>
