<svg width="440" height="224" viewBox="0 0 440 224" fill="none" xmlns="http://www.w3.org/2000/svg">
<g clip-path="url(#clip0_1072_114253)">
<path d="M384.547 101.046C361.019 40.9639 293.244 11.3334 233.162 34.8617C173.08 58.39 143.45 126.164 166.978 186.246C190.506 246.329 258.284 275.958 318.363 252.431C378.442 228.904 408.074 161.125 384.547 101.046ZM241.064 157.234C233.559 138.068 243.01 116.449 262.173 108.945C281.336 101.441 302.958 110.891 310.464 130.057C317.969 149.223 308.513 170.84 289.35 178.345C270.187 185.849 248.568 176.397 241.064 157.234Z" fill="#EB9F49"/>
<g opacity="0.35">
<path d="M384.548 101.048C361.019 40.9658 293.246 11.3327 233.163 34.8613C232.339 35.1842 231.522 35.5163 230.709 35.8551C290.166 14.0797 356.414 43.7204 379.619 102.978C402.825 162.236 374.32 228.978 315.887 253.369C316.715 253.065 317.54 252.754 318.364 252.431C378.446 228.903 408.075 161.127 384.548 101.048Z" fill="white"/>
</g>
<g opacity="0.3">
<path d="M325.602 249.314C267.468 267.728 204.21 238.116 181.649 180.502C159.087 122.889 185.412 58.1919 240.592 32.2311C238.105 33.0199 235.629 33.8945 233.163 34.8601C173.084 58.3872 143.449 126.165 166.978 186.248C190.506 246.33 258.286 275.957 318.364 252.43C320.83 251.464 323.241 250.424 325.603 249.315L325.602 249.314Z" fill="#4E3823"/>
</g>
<path d="M239.55 157.827C231.73 137.857 241.613 115.248 261.581 107.429C281.549 99.609 304.16 109.492 311.981 129.463C319.801 149.434 309.916 172.038 289.945 179.859C269.974 187.68 247.37 177.795 239.55 157.827ZM308.95 130.65C301.784 112.35 281.066 103.293 262.768 110.459C244.469 117.625 235.415 138.341 242.581 156.64C249.747 174.939 270.461 183.993 288.758 176.828C307.055 169.663 316.115 148.946 308.95 130.65Z" fill="#4E3823"/>
<path fill-rule="evenodd" clip-rule="evenodd" d="M227.482 20.3541C295.577 -6.31222 372.388 27.2698 399.054 95.364C425.718 163.454 392.136 240.274 324.045 266.939C255.955 293.603 179.136 260.023 152.469 191.927C125.803 123.831 159.387 47.0201 227.482 20.3541ZM370.039 106.726C349.649 54.6561 290.915 28.9776 238.844 49.3687C186.773 69.7599 161.093 128.494 181.484 180.565C201.875 232.635 260.616 258.313 312.683 237.924C364.749 217.535 390.429 158.793 370.039 106.726Z" fill="#4B0E36"/>
<path d="M356.035 218.477C364.36 208.845 370.234 198.254 374.421 186.383C379.301 172.545 382.97 169.051 384.508 152.021C385.844 137.276 379.9 120.765 374.326 105.979C369.595 93.4252 369.235 82.9621 352.506 65.6017C342.318 55.0289 328.165 50.0637 314.429 45.3667C299.858 40.388 292.982 37.5951 270.979 36.8296C262.982 36.5524 246.931 38.3253 226.821 46.0123C196.663 57.5295 191.065 73.3981 180.112 94.1149C172.146 109.178 161.558 121.654 164.758 146.13C167.889 170.095 175.479 184.28 180.793 195.426C193.142 221.327 198.448 224.86 213.305 234.227C234.379 247.503 242.616 243.712 260.364 249.553C277.721 255.265 290.013 253.583 313.462 243.298C329.449 236.284 339.532 237.565 356.033 218.478L356.035 218.477ZM310.465 130.057C317.969 149.221 308.512 170.84 289.351 178.343C288.551 178.656 287.751 178.937 286.943 179.19C268.408 185.044 248.253 175.599 241.062 157.235C233.871 138.871 242.242 118.266 259.804 109.969C260.574 109.604 261.367 109.26 262.173 108.945C281.333 101.442 302.958 110.889 310.464 130.057L310.465 130.057Z" fill="#F191FA"/>
<g opacity="0.3">
<path d="M312.588 66.2735L312.636 66.397C313.39 68.3221 312.439 70.4979 310.514 71.2517L294.899 77.3666C292.973 78.1205 290.798 77.1693 290.044 75.2442L289.996 75.1207C289.242 73.1956 290.193 71.0199 292.118 70.266L307.733 64.1511C309.658 63.3972 311.834 64.3484 312.588 66.2735Z" fill="#4E3823"/>
</g>
<path d="M317.153 67.6954L317.202 67.8189C317.956 69.744 317.004 71.9197 315.079 72.6736L299.464 78.7885C297.539 79.5424 295.363 78.5912 294.609 76.6661L294.561 76.5426C293.807 74.6174 294.758 72.4417 296.683 71.6878L312.299 65.5729C314.224 64.819 316.399 65.7702 317.153 67.6954Z" fill="#4A83FF"/>
<g opacity="0.35">
<path d="M315.019 72.7004L299.528 78.7669C297.89 79.4081 296.067 78.8302 295.069 77.4774C295.693 77.5659 296.348 77.4978 296.975 77.2526L312.466 71.186C313.443 70.8034 314.174 70.0565 314.565 69.1608C314.957 68.2651 315.009 67.2218 314.626 66.2447C314.503 65.9287 314.341 65.6388 314.147 65.3774C315.47 65.5611 316.662 66.4334 317.181 67.7586C317.562 68.7319 317.511 69.779 317.119 70.6747C316.728 71.5705 315.995 72.3185 315.02 72.7L315.019 72.7004Z" fill="white"/>
</g>
<g opacity="0.3">
<path d="M300.655 78.3244L299.528 78.7657C297.574 79.531 295.351 78.5567 294.587 76.6053C293.823 74.6539 294.793 72.4293 296.747 71.664L312.239 65.5974C313.862 64.9616 315.676 65.5264 316.68 66.8624L302.315 72.4876C300.361 73.2529 299.39 75.4746 300.155 77.429C300.283 77.7556 300.454 78.0576 300.654 78.3247L300.655 78.3244Z" fill="#4E3823"/>
</g>
<path d="M293.274 77.1893L293.226 77.0658C292.184 74.4056 293.502 71.3934 296.162 70.3516L311.777 64.2367C314.437 63.195 317.449 64.5117 318.491 67.172L318.539 67.2954C319.581 69.9556 318.264 72.9675 315.604 74.0093L299.989 80.1242C297.329 81.1659 294.316 79.8495 293.274 77.1893ZM315.817 68.219C315.353 67.0328 314.009 66.4464 312.824 66.9105L297.209 73.0254C296.023 73.4899 295.435 74.8335 295.9 76.0188L295.948 76.1422C296.412 77.3284 297.756 77.9149 298.942 77.4504L314.557 71.3355C315.743 70.8709 316.33 69.5277 315.865 68.3425L315.817 68.219Z" fill="#4E3823"/>
<g opacity="0.3">
<path d="M303.04 90.1032L303.155 90.0358C304.935 88.9978 307.241 89.6054 308.278 91.385L316.724 105.873C317.762 107.653 317.155 109.959 315.375 110.995L315.26 111.063C313.48 112.101 311.174 111.493 310.138 109.714L301.691 95.226C300.653 93.4457 301.26 91.1399 303.04 90.1032Z" fill="#4E3823"/>
</g>
<path d="M306.519 88.74L306.634 88.6725C308.414 87.6345 310.72 88.2421 311.756 90.0217L320.203 104.509C321.241 106.29 320.633 108.596 318.854 109.632L318.739 109.7C316.959 110.738 314.653 110.13 313.616 108.35L305.169 93.8627C304.131 92.0825 304.739 89.7767 306.519 88.74Z" fill="#F7DE72"/>
<g opacity="0.35">
<path d="M315.592 109.952L315.654 109.928C315.831 109.859 316.011 109.773 316.18 109.674C317.992 108.616 318.61 106.272 317.552 104.46L309.173 90.0864C308.705 89.2825 307.982 88.7157 307.165 88.4222C308.866 87.7887 310.842 88.4503 311.79 90.0718L320.17 104.446C321.225 106.258 320.606 108.602 318.795 109.66C318.625 109.759 318.445 109.845 318.269 109.915C317.392 110.258 316.44 110.254 315.592 109.952Z" fill="white"/>
</g>
<g opacity="0.3">
<path d="M318.269 109.924C316.551 110.596 314.54 109.936 313.58 108.295L305.202 93.9246C304.147 92.1118 304.764 89.7642 306.577 88.7099C307.746 88.0281 309.135 88.0415 310.258 88.6244C308.66 89.7469 308.157 91.9455 309.158 93.6628L317.536 108.033C317.914 108.679 318.456 109.173 319.074 109.492C318.983 109.556 318.889 109.612 318.795 109.669C318.625 109.768 318.446 109.854 318.269 109.924Z" fill="#4E3823"/>
</g>
<path d="M303.578 93.8619C303.18 92.8478 303.115 91.7352 303.399 90.6586C303.751 89.3172 304.603 88.1954 305.795 87.5008L305.909 87.4337C308.377 85.9952 311.557 86.8325 312.995 89.3003L321.442 103.788C322.137 104.98 322.325 106.376 321.972 107.717C321.619 109.059 320.768 110.179 319.576 110.875L319.462 110.942C318.269 111.637 316.874 111.825 315.534 111.472C314.192 111.118 313.07 110.268 312.376 109.075L303.929 94.5887C303.793 94.354 303.675 94.1117 303.578 93.8628L303.578 93.8619ZM307.242 89.9801C306.712 90.2894 306.334 90.7887 306.176 91.3886C306.018 91.9876 306.101 92.6089 306.41 93.1405L314.857 107.627C315.165 108.157 315.665 108.535 316.265 108.693C316.866 108.851 317.487 108.768 318.017 108.459L318.131 108.392C318.661 108.083 319.039 107.583 319.197 106.984C319.355 106.385 319.274 105.765 318.963 105.232L310.516 90.7454C309.874 89.6444 308.457 89.2711 307.356 89.913L307.242 89.9801Z" fill="#4E3823"/>
<g opacity="0.3">
<path d="M338.605 71.3195L338.735 71.3472C340.748 71.7843 342.038 73.7899 341.6 75.803L338.041 92.1911C337.603 94.2048 335.598 95.4948 333.585 95.0563L333.455 95.0286C331.441 94.5915 330.151 92.5858 330.59 90.5728L334.149 74.1846C334.586 72.171 336.592 70.881 338.605 71.3195Z" fill="#4E3823"/>
</g>
<path d="M342.082 69.9601L342.212 69.9878C344.225 70.4249 345.516 72.4306 345.077 74.4436L341.518 90.8318C341.08 92.8454 339.075 94.1355 337.062 93.697L336.932 93.6693C334.918 93.2321 333.628 91.2265 334.067 89.2134L337.626 72.8253C338.063 70.8116 340.069 69.5216 342.082 69.9601Z" fill="#ED2E7A"/>
<g opacity="0.35">
<path d="M337.781 93.7601C338.334 93.2466 338.74 92.5707 338.909 91.7866L342.441 75.5282C342.886 73.481 341.574 71.4405 339.526 70.9942C339.263 70.937 338.999 70.908 338.74 70.9098C339.625 70.0855 340.886 69.6925 342.149 69.9673C344.196 70.4127 345.508 72.4532 345.063 74.5013L341.532 90.7597C341.144 92.5443 339.542 93.7692 337.781 93.7601Z" fill="white"/>
</g>
<g opacity="0.3">
<path d="M336.994 93.6772C335.705 93.3958 334.706 92.4842 334.255 91.333C333.991 90.6582 333.915 89.9016 334.079 89.1433L337.611 72.8848C338.042 70.9119 339.955 69.621 341.929 69.9302C341.796 70.2065 341.693 70.4959 341.626 70.8068L338.094 87.0652C337.93 87.8236 338.006 88.5802 338.27 89.2549C338.721 90.4061 339.719 91.3182 341.009 91.5992C341.079 91.6154 341.152 91.6272 341.224 91.6351C340.468 93.1669 338.734 94.0544 336.994 93.6763L336.994 93.6772Z" fill="#4E3823"/>
</g>
<path d="M332.9 91.8853C332.541 90.9674 332.438 89.9378 332.663 88.9032L336.223 72.515C336.516 71.1668 337.32 70.0108 338.486 69.2603C339.653 68.5108 341.038 68.2588 342.385 68.5511L342.514 68.5788C343.865 68.872 345.021 69.6763 345.771 70.8425C346.521 72.01 346.774 73.3946 346.48 74.7432L342.921 91.1314C342.628 92.4806 341.824 93.6366 340.657 94.3862C339.491 95.1366 338.106 95.3876 336.757 95.0951L336.628 95.0679C334.868 94.6862 333.512 93.4468 332.9 91.8853ZM343.569 72.8129C343.513 72.669 343.441 72.5298 343.355 72.3964C343.02 71.8751 342.505 71.5161 341.907 71.3859L341.777 71.3582C340.532 71.0878 339.299 71.881 339.029 73.1253L335.469 89.5134C335.2 90.7583 335.992 91.9911 337.236 92.2619L337.364 92.2894C337.964 92.4198 338.582 92.3069 339.104 91.9712C339.625 91.6358 339.984 91.1207 340.114 90.5225L343.674 74.1343C343.771 73.6883 343.733 73.2319 343.569 72.8129Z" fill="#4E3823"/>
<g opacity="0.3">
<path d="M276.904 70.2396L276.791 70.3075C275.015 71.3666 272.713 70.7848 271.654 69.0091L263.063 54.6069C262.004 52.8313 262.586 50.5292 264.361 49.4701L264.475 49.4021C266.251 48.343 268.553 48.9249 269.612 50.7005L278.203 65.1027C279.262 66.8783 278.68 69.1805 276.904 70.2396Z" fill="#4E3823"/>
</g>
<path d="M280.382 68.8878L280.268 68.9557C278.492 70.0148 276.19 69.4329 275.131 67.6573L266.541 53.2551C265.481 51.4795 266.063 49.1774 267.839 48.1182L267.953 48.0503C269.728 46.9912 272.031 47.5731 273.09 49.3487L281.68 63.7509C282.739 65.5265 282.158 67.8286 280.382 68.8878Z" fill="white"/>
<g opacity="0.35">
<path d="M279.762 69.2008C279.067 69.4731 278.323 69.528 277.62 69.3817C277.721 69.3342 277.818 69.2839 277.915 69.2256C279.716 68.1515 280.31 65.7971 279.236 63.9963L270.712 49.7069C270.142 48.7516 269.21 48.1331 268.192 47.9306C269.945 47.0795 272.106 47.7054 273.122 49.4091L281.646 63.6985C282.72 65.4993 282.125 67.8508 280.324 68.9249C280.141 69.0322 279.953 69.1262 279.762 69.2008Z" fill="white"/>
</g>
<g opacity="0.3">
<path d="M279.763 69.1995C278.063 69.8655 276.065 69.2202 275.099 67.6012L266.575 53.3118C265.502 51.5139 266.097 49.1595 267.897 48.0854C269.523 47.1158 271.597 47.5069 272.775 48.9181C272.733 48.9345 272.698 48.9562 272.659 48.9794C270.858 50.0535 270.263 52.404 271.337 54.2058L279.864 68.4941C279.968 68.6695 280.085 68.8325 280.211 68.9837C280.064 69.0693 279.916 69.1398 279.762 69.1999L279.763 69.1995Z" fill="#4E3823"/>
</g>
<path d="M264.93 53.2243C264.54 52.2277 264.469 51.1339 264.738 50.0709C265.077 48.7259 265.918 47.5971 267.102 46.8904L267.215 46.8224C269.67 45.3574 272.858 46.1635 274.321 48.6172L282.912 63.0192C283.621 64.2064 283.821 65.5979 283.481 66.9433C283.142 68.2883 282.302 69.4181 281.116 70.1246L281.004 70.1922C278.549 71.6572 275.361 70.8521 273.898 68.3974L265.306 53.9955C265.159 53.7472 265.032 53.4905 264.929 53.226L264.93 53.2243ZM280.615 64.8295C280.569 64.7128 280.513 64.5989 280.448 64.4889L271.857 50.0869C271.204 48.9924 269.783 48.6339 268.689 49.2864L268.576 49.3544C268.049 49.6682 267.676 50.1722 267.524 50.7731C267.372 51.3755 267.462 51.9964 267.775 52.5219L276.366 66.9238C277.019 68.0173 278.44 68.3769 279.534 67.7244L279.647 67.6577C280.175 67.3422 280.548 66.8382 280.701 66.2369C280.821 65.7615 280.79 65.2721 280.617 64.8287L280.615 64.8295Z" fill="#4E3823"/>
<g opacity="0.3">
<path d="M249.361 99.4527L249.256 99.3715C247.621 98.1059 247.321 95.7503 248.587 94.1155L258.852 80.8549C260.118 79.22 262.473 78.9201 264.108 80.1857L264.213 80.2669C265.848 81.5325 266.148 83.888 264.882 85.5229L254.617 98.7835C253.351 100.418 250.996 100.718 249.361 99.4527Z" fill="#4E3823"/>
</g>
<path d="M253.383 99.4798L253.278 99.3986C251.643 98.133 251.343 95.7774 252.609 94.1426L262.875 80.882C264.14 79.2471 266.496 78.9472 268.131 80.2128L268.235 80.294C269.87 81.5596 270.17 83.9151 268.905 85.55L258.639 98.8106C257.374 100.445 255.018 100.745 253.383 99.4798Z" fill="#EF1664"/>
<g opacity="0.35">
<path d="M254.657 100.094C254.924 99.8935 255.168 99.6577 255.381 99.3816L265.565 86.2249C266.849 84.567 266.543 82.1601 264.885 80.8761C264.483 80.5648 264.036 80.3462 263.573 80.2193C264.909 79.2184 266.813 79.1827 268.194 80.2542C269.852 81.5383 270.161 83.944 268.877 85.6019L258.693 98.7586C257.721 100.014 256.103 100.495 254.656 100.095L254.657 100.094Z" fill="white"/>
</g>
<g opacity="0.3">
<path d="M253.347 99.4375C252.784 99.0039 252.379 98.4406 252.137 97.8222C251.663 96.6117 251.814 95.1855 252.664 94.0899L262.85 80.9371C263.954 79.5057 265.893 79.0794 267.463 79.8125L257.696 92.4289C256.846 93.5245 256.694 94.9508 257.168 96.1613C257.411 96.7807 257.816 97.343 258.378 97.7766C258.609 97.9555 258.855 98.1035 259.113 98.2188L258.695 98.7595C257.411 100.417 255.004 100.722 253.346 99.4389L253.347 99.4375Z" fill="#4E3823"/>
</g>
<path d="M250.768 98.34C250.613 97.9433 250.506 97.5233 250.45 97.0888C250.275 95.7131 250.644 94.354 251.488 93.263L261.754 80.0025C262.599 78.9112 263.822 78.2136 265.198 78.0392C266.574 77.8638 267.933 78.2322 269.023 79.078L269.126 79.1577C270.22 80.0043 270.918 81.2271 271.093 82.6041C271.268 83.9798 270.899 85.3389 270.054 86.4299L259.788 99.6894C258.944 100.78 257.72 101.478 256.344 101.654C254.968 101.829 253.609 101.46 252.518 100.615L252.416 100.537C251.667 99.9571 251.105 99.2019 250.768 98.3414L250.768 98.34ZM268.107 82.4108C267.96 82.0355 267.713 81.6938 267.373 81.43L267.268 81.3487C266.784 80.9733 266.178 80.8101 265.562 80.8875C264.947 80.9658 264.402 81.2756 264.027 81.7601L253.761 95.0206C253.386 95.5051 253.223 96.1107 253.3 96.7263C253.378 97.3406 253.688 97.8873 254.173 98.2618L254.275 98.3405C254.763 98.7181 255.368 98.8813 255.984 98.8029C256.599 98.7246 257.144 98.4148 257.519 97.9303L267.785 84.6708C268.301 84.0044 268.395 83.1436 268.108 82.4105L268.107 82.4108Z" fill="#4E3823"/>
<g opacity="0.3">
<path d="M213.437 108.963L213.47 108.835C213.997 106.835 216.048 105.639 218.048 106.166L234.264 110.437C236.264 110.963 237.46 113.015 236.933 115.014L236.899 115.142C236.373 117.141 234.322 118.338 232.322 117.811L216.105 113.54C214.106 113.014 212.91 110.962 213.437 108.963Z" fill="#4E3823"/>
</g>
<path d="M216.377 106.228L216.411 106.1C216.937 104.101 218.989 102.905 220.988 103.431L237.205 107.702C239.204 108.229 240.4 110.28 239.874 112.279L239.84 112.408C239.313 114.407 237.262 115.603 235.263 115.076L219.046 110.805C217.047 110.279 215.85 108.228 216.377 106.228Z" fill="#4A83FF"/>
<g opacity="0.35">
<path d="M237.14 115.05C237.331 114.738 237.477 114.396 237.575 114.029C238.107 112 236.887 109.907 234.859 109.369L218.77 105.134C218.112 104.959 217.443 104.972 216.825 105.142C217.266 104.425 217.932 103.882 218.697 103.583C219.462 103.283 220.243 103.23 221.052 103.442L237.142 107.681C239.168 108.216 240.39 110.312 239.856 112.338C239.498 113.709 238.423 114.712 237.14 115.05Z" fill="white"/>
</g>
<g opacity="0.3">
<path d="M235.198 115.067L219.11 110.827C217.08 110.294 215.859 108.198 216.391 106.168C216.712 104.948 217.601 104.023 218.695 103.594C219.422 103.309 220.242 103.241 221.05 103.453L222.661 103.878C222.42 104.225 222.235 104.622 222.12 105.056C221.584 107.087 222.809 109.182 224.835 109.717L239.315 113.528C238.429 114.821 236.792 115.486 235.198 115.068L235.198 115.067Z" fill="#4E3823"/>
</g>
<path d="M215.173 109.067C214.786 108.08 214.698 106.966 214.988 105.866L215.022 105.737C215.749 102.973 218.59 101.317 221.353 102.045L237.57 106.316C238.904 106.668 240.025 107.522 240.723 108.72C241.421 109.917 241.612 111.313 241.261 112.647L241.228 112.775C240.875 114.11 240.022 115.23 238.824 115.929C237.625 116.629 236.231 116.819 234.896 116.467L218.679 112.196C217.017 111.758 215.756 110.556 215.173 109.067ZM238.401 110.488C238.141 109.824 237.579 109.288 236.837 109.093L220.62 104.822C220.027 104.666 219.406 104.752 218.87 105.064C218.334 105.376 217.953 105.875 217.797 106.468L217.764 106.596C217.439 107.829 218.178 109.095 219.409 109.42L235.626 113.691C236.218 113.847 236.839 113.76 237.376 113.448C237.912 113.136 238.293 112.637 238.449 112.045L238.482 111.916C238.612 111.425 238.572 110.928 238.4 110.488L238.401 110.488Z" fill="#4E3823"/>
<g opacity="0.3">
<path d="M331.902 166.671L332.032 166.643C334.044 166.196 335.324 164.184 334.876 162.174L331.239 145.803C330.792 143.791 328.78 142.511 326.769 142.959L326.639 142.987C324.628 143.434 323.348 145.446 323.795 147.456L327.433 163.827C327.88 165.839 329.891 167.119 331.902 166.671Z" fill="#4E3823"/>
</g>
<path d="M335.51 165.277L335.381 165.306C333.362 165.754 331.359 164.479 330.911 162.461L327.274 146.09C326.825 144.072 328.1 142.069 330.119 141.621L330.248 141.592C332.266 141.143 334.27 142.418 334.718 144.437L338.355 160.807C338.803 162.826 337.528 164.829 335.51 165.277Z" fill="white"/>
<g opacity="0.5">
<path d="M335.446 165.288C335.38 165.302 335.317 165.315 335.249 165.329C335.972 164.453 336.3 163.262 336.039 162.072L332.43 145.83C331.987 143.849 330.056 142.564 328.075 142.895C328.478 142.409 329.003 142.018 329.615 141.778C329.796 141.707 329.985 141.649 330.181 141.605C332.228 141.149 334.275 142.452 334.731 144.499L338.339 160.737C338.792 162.786 337.493 164.834 335.445 165.288L335.446 165.288Z" fill="white"/>
</g>
<g opacity="0.3">
<path d="M335.447 165.294C333.4 165.75 331.353 164.446 330.897 162.399L327.288 146.157C326.879 144.304 327.903 142.456 329.618 141.784C329.798 141.713 329.988 141.655 330.183 141.611C330.387 141.567 330.587 141.537 330.792 141.528C330.602 142.14 330.563 142.806 330.71 143.469L334.32 159.711C334.733 161.554 336.429 162.791 338.257 162.689C337.87 163.956 336.828 164.99 335.446 165.294L335.447 165.294Z" fill="#4E3823"/>
</g>
<path d="M329.744 163.544C329.647 163.296 329.569 163.039 329.51 162.774L325.872 146.403C325.572 145.056 325.817 143.669 326.562 142.499C327.307 141.328 328.459 140.519 329.806 140.221L329.935 140.193C332.726 139.573 335.505 141.342 336.118 144.126L339.756 160.497C340.055 161.845 339.81 163.232 339.065 164.401C338.321 165.572 337.168 166.381 335.821 166.68L335.692 166.708C334.345 167.008 332.958 166.763 331.788 166.017C330.848 165.419 330.141 164.558 329.744 163.544ZM333.211 144.407C332.804 143.365 331.684 142.745 330.558 142.994L330.429 143.024C329.83 143.156 329.318 143.518 328.984 144.041C328.651 144.564 328.541 145.183 328.674 145.78L332.311 162.151C332.445 162.75 332.806 163.263 333.329 163.595C333.852 163.927 334.469 164.038 335.067 163.906L335.197 163.877C336.441 163.601 337.227 162.364 336.952 161.121L333.314 144.75C333.288 144.631 333.253 144.517 333.209 144.407L333.211 144.407Z" fill="#4E3823"/>
<g opacity="0.3">
<path d="M370.564 154.054L370.488 154.163C369.303 155.857 366.965 156.27 365.271 155.085L351.53 145.472C349.835 144.287 349.422 141.949 350.607 140.255L350.683 140.146C351.868 138.452 354.207 138.039 355.901 139.224L369.642 148.837C371.336 150.022 371.749 152.36 370.564 154.054Z" fill="#4E3823"/>
</g>
<path d="M374.041 152.699L373.965 152.807C372.78 154.501 370.441 154.915 368.747 153.73L355.006 144.117C353.312 142.932 352.899 140.594 354.084 138.9L354.16 138.791C355.345 137.097 357.683 136.683 359.377 137.868L373.119 147.481C374.813 148.666 375.226 151.004 374.041 152.699Z" fill="#F7DE72"/>
<g opacity="0.5">
<path d="M370.586 154.364C370.916 154.123 371.216 153.825 371.463 153.471C372.667 151.753 372.245 149.364 370.527 148.163L356.893 138.626C356.314 138.223 355.662 138.001 355.001 137.951C356.28 137.02 358.068 136.954 359.431 137.908L373.063 147.442C374.782 148.646 375.204 151.035 374.004 152.752C373.206 153.891 371.885 154.46 370.584 154.364L370.586 154.364Z" fill="white"/>
</g>
<g opacity="0.3">
<path d="M368.695 153.694L355.062 144.157C354.427 143.712 353.968 143.105 353.704 142.43C353.252 141.276 353.365 139.928 354.121 138.846C355.325 137.127 357.715 136.705 359.433 137.908L360.604 138.729C360.302 138.96 360.03 139.239 359.8 139.565C359.042 140.649 358.929 142 359.38 143.151C359.644 143.826 360.101 144.429 360.737 144.874L373.198 153.59C371.915 154.574 370.086 154.664 368.695 153.693L368.695 153.694Z" fill="#4E3823"/>
</g>
<path d="M352.338 142.953C352.213 142.632 352.118 142.297 352.056 141.95C351.815 140.584 352.118 139.209 352.909 138.078L352.986 137.968C354.623 135.628 357.859 135.056 360.201 136.694L373.942 146.307C375.073 147.098 375.829 148.285 376.071 149.651C376.312 151.017 376.009 152.393 375.218 153.523L375.141 153.633C374.35 154.763 373.164 155.518 371.798 155.76C370.433 156.001 369.057 155.698 367.926 154.908L354.185 145.295C353.342 144.705 352.707 143.894 352.338 142.953ZM373.117 149.7C372.953 149.281 372.671 148.92 372.297 148.659L358.555 139.046C357.511 138.316 356.067 138.571 355.337 139.615L355.26 139.725C354.532 140.767 354.787 142.209 355.83 142.941L369.572 152.554C370.075 152.906 370.687 153.04 371.297 152.931C371.908 152.824 372.438 152.487 372.789 151.985L372.867 151.876C373.217 151.375 373.351 150.762 373.243 150.152C373.216 149.996 373.174 149.845 373.117 149.701L373.117 149.7Z" fill="#4E3823"/>
<g opacity="0.3">
<path d="M360.035 115.459L360.078 115.584C360.754 117.538 359.715 119.674 357.761 120.349L341.911 125.827C339.957 126.502 337.822 125.464 337.146 123.51L337.103 123.384C336.428 121.43 337.466 119.295 339.42 118.62L355.27 113.142C357.224 112.466 359.36 113.505 360.035 115.459Z" fill="#4E3823"/>
</g>
<path d="M362.001 112.283L362.044 112.408C362.72 114.362 361.681 116.498 359.727 117.173L343.877 122.651C341.923 123.326 339.788 122.288 339.113 120.334L339.069 120.208C338.394 118.254 339.432 116.119 341.386 115.444L357.236 109.966C359.19 109.29 361.326 110.329 362.001 112.283Z" fill="#4A83FF"/>
<g opacity="0.5">
<path d="M359.656 117.197L343.933 122.632C342.396 123.162 340.737 122.644 339.751 121.458C340.235 121.485 340.736 121.421 341.224 121.255L356.951 115.822C358.931 115.135 359.991 112.955 359.308 110.973C359.154 110.527 358.926 110.132 358.643 109.789C360.134 109.887 361.496 110.857 362.013 112.351C362.7 114.332 361.638 116.513 359.655 117.197L359.656 117.197Z" fill="white"/>
</g>
<g opacity="0.3">
<path d="M345.809 121.977L343.934 122.627C342.002 123.295 339.876 122.303 339.137 120.415C339.118 120.366 339.099 120.318 339.084 120.268C338.399 118.286 339.459 116.106 341.442 115.422L357.168 109.985C358.573 109.499 360.084 109.894 361.085 110.874L347.237 115.659C345.255 116.343 344.193 118.527 344.88 120.507C344.895 120.558 344.914 120.606 344.933 120.655C345.133 121.166 345.436 121.613 345.807 121.977L345.809 121.977Z" fill="#4E3823"/>
</g>
<path d="M337.821 121.003C337.795 120.937 337.77 120.87 337.746 120.802L337.704 120.68C337.252 119.372 337.338 117.967 337.945 116.72C338.553 115.473 339.605 114.537 340.909 114.087L356.759 108.61C359.46 107.677 362.403 109.107 363.35 111.815L363.393 111.941C363.844 113.246 363.758 114.651 363.151 115.898C362.544 117.145 361.492 118.081 360.188 118.531L344.337 124.008C343.032 124.458 341.627 124.372 340.38 123.765C339.197 123.19 338.296 122.213 337.821 121.002L337.821 121.003ZM360.602 112.663C360.154 111.518 358.871 110.918 357.697 111.324L341.847 116.801C341.267 117.001 340.799 117.419 340.528 117.976C340.256 118.533 340.217 119.16 340.417 119.739L340.46 119.862C340.662 120.456 341.079 120.912 341.636 121.184C342.193 121.456 342.819 121.495 343.399 121.294L359.25 115.817C359.829 115.618 360.297 115.2 360.568 114.643C360.84 114.085 360.878 113.458 360.678 112.879L360.635 112.752C360.624 112.723 360.613 112.693 360.602 112.664L360.602 112.663Z" fill="#4E3823"/>
<g opacity="0.3">
<path d="M318.584 217.028L318.617 217.156C319.132 219.16 321.174 220.368 323.178 219.854L339.421 215.685C341.425 215.17 342.633 213.128 342.118 211.124L342.085 210.996C341.571 208.992 339.529 207.784 337.525 208.298L321.282 212.467C319.278 212.982 318.07 215.024 318.584 217.028Z" fill="#4E3823"/>
</g>
<path d="M320.546 212.949L320.579 213.078C321.092 215.074 323.143 216.287 325.14 215.774L341.383 211.603C343.379 211.091 344.592 209.039 344.079 207.043L344.046 206.915C343.533 204.919 341.481 203.706 339.485 204.218L323.242 208.389C321.246 208.902 320.033 210.953 320.546 212.949Z" fill="#F7DE72"/>
<g opacity="0.5">
<path d="M342.871 210.796C342.903 210.387 342.871 209.966 342.764 209.551C342.726 209.401 342.679 209.251 342.624 209.109C341.933 207.346 340.005 206.324 338.123 206.804L322.01 210.944C321.416 211.096 320.89 211.383 320.457 211.761C320.582 210.183 321.692 208.782 323.307 208.367L339.422 204.23C341.299 203.747 343.229 204.764 343.919 206.527C343.975 206.67 344.022 206.82 344.061 206.973C344.43 208.408 343.922 209.874 342.871 210.795L342.871 210.796Z" fill="white"/>
</g>
<g opacity="0.3">
<path d="M341.318 211.614L325.205 215.755C323.174 216.273 321.082 215.039 320.564 213.008C320.042 210.979 321.277 208.89 323.307 208.369L324.98 207.938C324.927 208.396 324.953 208.872 325.072 209.342C325.594 211.371 327.681 212.607 329.716 212.087L344.154 208.379C343.965 209.893 342.875 211.218 341.319 211.615L341.318 211.614Z" fill="#4E3823"/>
</g>
<path d="M319.383 214.033C319.307 213.839 319.242 213.637 319.189 213.43L319.156 213.299C318.813 211.962 319.013 210.569 319.718 209.376C320.424 208.182 321.549 207.336 322.886 206.992L339.129 202.821C340.466 202.478 341.859 202.677 343.053 203.383C344.247 204.089 345.092 205.214 345.437 206.552L345.469 206.677C346.18 209.448 344.506 212.278 341.739 212.989L325.496 217.16C322.936 217.817 320.323 216.435 319.383 214.034L319.383 214.033ZM342.569 206.999C342.382 206.521 342.042 206.123 341.591 205.856C341.058 205.54 340.436 205.45 339.843 205.603L323.6 209.773C323.007 209.926 322.506 210.304 322.191 210.838C321.875 211.372 321.785 211.992 321.938 212.586L321.971 212.717C322.123 213.313 322.501 213.81 323.035 214.126C323.569 214.441 324.19 214.531 324.784 214.379L341.027 210.208C342.261 209.891 343.007 208.629 342.69 207.394L342.658 207.269C342.634 207.176 342.605 207.086 342.571 206.998L342.569 206.999Z" fill="#4E3823"/>
<g opacity="0.3">
<path d="M310.634 197.77L310.612 197.9C310.271 199.94 308.338 201.319 306.299 200.978L289.759 198.215C287.719 197.874 286.34 195.942 286.681 193.902L286.702 193.771C287.043 191.732 288.976 190.353 291.015 190.694L307.556 193.457C309.595 193.798 310.974 195.73 310.634 197.77Z" fill="#4E3823"/>
</g>
<path d="M313.22 195.156L313.198 195.287C312.857 197.326 310.924 198.706 308.885 198.365L292.345 195.601C290.305 195.261 288.926 193.328 289.267 191.289L289.288 191.158C289.629 189.119 291.562 187.739 293.601 188.08L310.142 190.843C312.181 191.184 313.56 193.117 313.22 195.156Z" fill="#4A83FF"/>
<g opacity="0.5">
<path d="M310.971 198.1C311.107 197.802 311.208 197.485 311.264 197.147C311.609 195.079 310.198 193.105 308.131 192.759L291.72 190.017C290.974 189.892 290.24 189.996 289.589 190.279C290.286 188.751 291.952 187.814 293.685 188.102L310.094 190.84C312.162 191.185 313.571 193.164 313.226 195.233C313.004 196.551 312.121 197.602 310.972 198.1L310.971 198.1Z" fill="white"/>
</g>
<g opacity="0.3">
<path d="M308.834 198.363L292.424 195.621C291.056 195.394 289.976 194.45 289.502 193.239C289.259 192.62 289.175 191.932 289.293 191.232C289.638 189.164 291.614 187.756 293.682 188.101L294.426 188.227C294.238 188.578 294.104 188.964 294.037 189.374C293.922 190.073 294.004 190.763 294.246 191.382C294.72 192.592 295.802 193.532 297.171 193.762L312.834 196.38C312.087 197.791 310.491 198.641 308.834 198.363Z" fill="#4E3823"/>
</g>
<path d="M288.15 193.802C287.82 192.96 287.706 192.022 287.866 191.067L287.887 190.936C288.115 189.575 288.862 188.382 289.99 187.575C291.119 186.77 292.491 186.452 293.852 186.679L310.393 189.442C311.754 189.669 312.948 190.416 313.753 191.545C314.56 192.674 314.878 194.045 314.651 195.407L314.63 195.538C314.402 196.899 313.655 198.093 312.526 198.899C311.397 199.704 310.026 200.022 308.664 199.795L292.124 197.033C290.261 196.721 288.793 195.445 288.15 193.802ZM311.693 193.714C311.406 192.981 310.751 192.413 309.92 192.275L293.379 189.511C292.123 189.301 290.929 190.154 290.719 191.41L290.698 191.542C290.488 192.797 291.34 193.991 292.597 194.2L309.137 196.962C309.742 197.063 310.353 196.92 310.858 196.56C311.363 196.2 311.697 195.669 311.797 195.064L311.819 194.933C311.89 194.508 311.84 194.09 311.693 193.715L311.693 193.714Z" fill="#4E3823"/>
<g opacity="0.3">
<path d="M266.796 191.281L266.684 191.209C264.946 190.103 262.618 190.62 261.513 192.359L252.51 206.506C251.403 208.245 251.921 210.572 253.659 211.678L253.771 211.749C255.51 212.856 257.837 212.338 258.943 210.6L267.946 196.453C269.052 194.714 268.535 192.387 266.796 191.281Z" fill="#4E3823"/>
</g>
<path d="M270.681 190.957L270.569 190.885C268.83 189.779 266.503 190.296 265.398 192.035L256.394 206.182C255.288 207.921 255.805 210.248 257.544 211.354L257.656 211.425C259.394 212.532 261.722 212.014 262.827 210.276L271.831 196.128C272.937 194.39 272.419 192.062 270.681 190.957Z" fill="#EF1664"/>
<g opacity="0.5">
<path d="M258.222 211.702C258.258 211.692 258.293 211.679 258.327 211.665C259.054 211.381 259.702 210.875 260.149 210.171L269.083 196.136C270.207 194.368 269.681 192 267.912 190.871C267.709 190.742 267.502 190.635 267.289 190.55C268.361 190.163 269.595 190.253 270.627 190.912C272.396 192.04 272.922 194.409 271.798 196.177L262.864 210.211C262.414 210.916 261.767 211.426 261.041 211.711C260.15 212.06 259.142 212.073 258.222 211.703L258.222 211.702Z" fill="white"/>
</g>
<g opacity="0.3">
<path d="M261.04 211.721C259.944 212.15 258.662 212.07 257.598 211.392C255.83 210.268 255.304 207.899 256.433 206.13L265.362 192.093C266.461 190.371 268.734 189.826 270.485 190.837C270.448 190.884 270.414 190.933 270.383 190.986L261.453 205.023C260.325 206.792 260.852 209.161 262.619 210.285C262.667 210.315 262.714 210.345 262.761 210.37C262.319 211.001 261.715 211.457 261.041 211.721L261.04 211.721Z" fill="#4E3823"/>
</g>
<path d="M254.734 210.09C254.151 208.6 254.261 206.863 255.183 205.414L264.187 191.266C264.928 190.101 266.082 189.295 267.436 188.994C268.79 188.693 270.177 188.935 271.341 189.677L271.453 189.749C273.864 191.283 274.576 194.491 273.043 196.903L264.038 211.051C263.298 212.216 262.144 213.022 260.79 213.323C259.436 213.624 258.049 213.382 256.885 212.64L256.775 212.571C255.813 211.959 255.121 211.08 254.734 210.092L254.734 210.09ZM269.912 192.171L269.801 192.1C269.282 191.77 268.664 191.662 268.059 191.797C267.453 191.932 266.939 192.29 266.61 192.808L257.606 206.956C256.922 208.03 257.241 209.461 258.315 210.146L258.425 210.215C258.944 210.545 259.562 210.653 260.167 210.518C260.773 210.383 261.287 210.025 261.616 209.507L270.62 195.359C271.304 194.284 270.986 192.853 269.912 192.17L269.912 192.171Z" fill="#4E3823"/>
<g opacity="0.3">
<path d="M331.318 190.044L331.367 190.168C332.121 192.094 334.295 193.045 336.222 192.29L351.837 186.175C353.763 185.421 354.714 183.247 353.959 181.32L353.911 181.197C353.156 179.27 350.983 178.32 349.056 179.075L333.441 185.189C331.514 185.944 330.564 188.117 331.318 190.044Z" fill="#4E3823"/>
</g>
<path d="M332.921 185.949L332.873 185.825C332.119 183.9 333.07 181.724 334.996 180.97L350.611 174.856C352.536 174.102 354.712 175.053 355.465 176.978L355.514 177.101C356.268 179.027 355.316 181.202 353.391 181.956L337.776 188.071C335.851 188.825 333.675 187.874 332.921 185.949Z" fill="#ED2E7A"/>
<g opacity="0.5">
<path d="M353.329 181.985L337.838 188.052C336.318 188.647 334.636 188.191 333.603 187.039C334.227 187.127 334.887 187.062 335.513 186.817L351.005 180.75C352.959 179.985 353.929 177.76 353.165 175.809C352.995 175.374 352.752 174.988 352.459 174.661C352.806 174.71 353.144 174.806 353.465 174.945C354.36 175.336 355.107 176.067 355.49 177.044C356.254 178.994 355.281 181.221 353.329 181.985Z" fill="white"/>
</g>
<g opacity="0.3">
<path d="M340.316 187.08L337.837 188.051C335.883 188.817 333.66 187.842 332.896 185.891C332.132 183.939 333.102 181.715 335.056 180.95L350.548 174.883C351.521 174.502 352.568 174.553 353.464 174.944C354.059 175.205 354.589 175.615 354.99 176.148L341.978 181.243C340.024 182.008 339.052 184.23 339.818 186.184C339.946 186.511 340.114 186.811 340.316 187.08Z" fill="#4E3823"/>
</g>
<path d="M331.585 186.475L331.536 186.352C330.494 183.692 331.812 180.679 334.472 179.637L350.087 173.522C352.747 172.48 355.76 173.798 356.801 176.458L356.85 176.582C357.891 179.242 356.575 182.255 353.915 183.296L338.3 189.411C335.64 190.453 332.626 189.136 331.585 186.475ZM354.127 177.505C353.663 176.319 352.319 175.732 351.134 176.196L335.519 182.311C334.333 182.775 333.745 184.119 334.21 185.305L334.258 185.428C334.723 186.615 336.066 187.202 337.253 186.737L352.868 180.623C354.054 180.158 354.64 178.815 354.176 177.629L354.127 177.505Z" fill="#4E3823"/>
<g opacity="0.45">
<path d="M313.464 243.298C313.703 243.192 313.944 243.089 314.181 242.989C312.114 243.734 309.963 244.56 307.694 245.557C305.941 246.324 304.25 247.046 302.615 247.722C305.97 246.48 309.561 245.01 313.463 243.298L313.464 243.298ZM356.035 218.477C364.36 208.845 370.234 198.254 374.421 186.383C379.301 172.545 382.97 169.051 384.508 152.021C385.844 137.276 379.9 120.765 374.326 105.979C369.595 93.4252 369.235 82.9621 352.506 65.6018C342.318 55.0289 328.165 50.0638 314.429 45.3667C299.858 40.388 292.982 37.5951 270.979 36.8296C262.982 36.5524 246.931 38.3253 226.821 46.0123C225.55 46.4974 224.328 46.9886 223.143 47.4884C242.273 40.4623 257.493 38.8218 265.207 39.0892C287.211 39.8526 294.088 42.6465 308.657 47.6263C322.394 52.3212 336.547 57.2864 346.736 67.8602C363.464 85.2209 363.824 95.684 368.556 108.238C374.13 123.024 380.074 139.534 378.738 154.28C377.201 171.309 373.532 174.803 368.651 188.642C364.464 200.513 358.586 211.104 350.261 220.737C341.947 230.354 335.266 234.799 328.638 237.743C337.311 234.676 345.322 230.869 356.034 218.477L356.035 218.477Z" fill="white"/>
</g>
<g opacity="0.3">
<path d="M321.265 240.271C326.272 238.523 330.815 237.18 335.422 235.027C331.191 236.48 326.759 237.863 321.745 240.063C321.584 240.134 321.424 240.204 321.265 240.271ZM268.647 246.317C250.899 240.478 242.661 244.269 221.588 230.991C206.731 221.625 201.425 218.092 189.072 192.192C183.761 181.045 176.172 166.859 173.04 142.895C169.84 118.419 180.428 105.943 188.394 90.8797C198.744 71.3054 204.312 56.0582 230.333 44.7211C229.179 45.1327 228.009 45.5673 226.823 46.0196C196.665 57.5369 191.067 73.4055 180.114 94.1222C172.148 109.186 161.56 121.662 164.76 146.137C167.891 170.102 175.481 184.287 180.795 195.433C193.144 221.335 198.45 224.867 213.307 234.234C234.381 247.51 242.618 243.72 260.366 249.56C276.778 254.96 288.662 253.752 309.731 244.908C293.554 250.717 282.776 250.971 268.645 246.318L268.647 246.317Z" fill="#4E3823"/>
</g>
<path d="M239.55 157.827C231.73 137.857 241.613 115.248 261.581 107.429C281.549 99.609 304.16 109.492 311.981 129.463C319.801 149.434 309.916 172.038 289.945 179.859C269.974 187.68 247.37 177.795 239.55 157.827ZM308.95 130.65C301.784 112.35 281.066 103.293 262.768 110.459C244.469 117.625 235.415 138.341 242.581 156.64C249.747 174.939 270.461 183.993 288.758 176.828C307.055 169.663 316.115 148.946 308.95 130.65Z" fill="#4E3823"/>
<path d="M246.773 155C240.513 139.015 248.425 120.917 264.41 114.657C280.396 108.397 298.493 116.309 304.753 132.294C311.013 148.28 303.101 166.376 287.115 172.636C271.13 178.896 253.033 170.984 246.773 155ZM301.723 133.481C296.118 119.167 279.911 112.081 265.597 117.687C251.283 123.292 244.197 139.499 249.803 153.813C255.408 168.127 271.615 175.212 285.929 169.606C300.243 164.001 307.329 147.795 301.723 133.481Z" fill="#4E3823"/>
<path d="M310.464 130.057C302.959 110.893 281.335 101.441 262.174 108.944C243.013 116.448 233.557 138.071 241.062 157.235C248.566 176.399 270.188 185.852 289.352 178.347C308.516 170.842 317.969 149.22 310.464 130.057ZM248.289 154.405C242.346 139.229 249.829 122.113 265.004 116.17C280.18 110.227 297.296 117.71 303.239 132.886C309.182 148.062 301.696 165.179 286.523 171.12C271.35 177.062 254.231 169.58 248.289 154.405Z" fill="#EB9F49"/>
<g opacity="0.3">
<path d="M310.465 130.057C302.96 110.893 281.336 101.441 262.175 108.944C243.014 116.448 233.558 138.071 241.063 157.235C248.567 176.399 270.189 185.852 289.353 178.347C308.517 170.842 317.97 149.22 310.465 130.057ZM248.29 154.405C242.347 139.229 249.83 122.113 265.005 116.17C280.181 110.227 297.297 117.71 303.24 132.886C309.183 148.062 301.697 165.179 286.524 171.12C271.351 177.062 254.232 169.58 248.29 154.405Z" fill="#4E3823"/>
</g>
<g opacity="0.35">
<path d="M286.945 179.19C268.41 185.044 248.255 175.599 241.064 157.235C233.873 138.871 242.243 118.266 259.805 109.969C258.991 110.224 258.176 110.511 257.37 110.827C238.206 118.331 228.753 139.953 236.258 159.117C243.763 178.281 265.384 187.734 284.548 180.229C285.365 179.909 286.165 179.564 286.945 179.191L286.945 179.19Z" fill="white"/>
</g>
<path d="M239.548 157.831C231.728 137.861 241.612 115.252 261.582 107.432C281.552 99.6118 304.16 109.496 311.98 129.466C319.8 149.436 309.916 172.044 289.946 179.864C269.976 187.685 247.368 177.801 239.548 157.831ZM308.95 130.653C301.784 112.354 281.067 103.297 262.769 110.463C244.47 117.629 235.413 138.345 242.579 156.644C249.744 174.942 270.461 183.999 288.76 176.834C307.058 169.668 316.115 148.951 308.95 130.653ZM246.774 155.001C240.514 139.016 248.426 120.918 264.411 114.658C280.397 108.398 298.494 116.31 304.754 132.296C311.014 148.281 303.102 166.377 287.116 172.637C271.131 178.897 253.034 170.985 246.774 155.001ZM301.724 133.482C296.119 119.168 279.912 112.082 265.598 117.688C251.284 123.293 244.198 139.5 249.804 153.814C255.409 168.128 271.616 175.213 285.93 169.608C300.244 164.002 307.33 147.796 301.724 133.482Z" fill="#4E3823"/>
<path d="M246.773 155C240.513 139.015 248.425 120.917 264.41 114.657C280.396 108.397 298.493 116.309 304.753 132.294C311.013 148.28 303.101 166.376 287.115 172.636C271.13 178.896 253.033 170.984 246.773 155ZM301.723 133.481C296.118 119.167 279.911 112.081 265.597 117.687C251.283 123.292 244.197 139.499 249.803 153.813C255.408 168.127 271.615 175.212 285.929 169.606C300.243 164.001 307.329 147.795 301.723 133.481Z" fill="#4E3823"/>
<g opacity="0.3">
<path d="M233.424 56.1622L233.527 56.2465C235.123 57.549 235.364 59.9205 234.062 61.5171L223.463 74.5124C222.16 76.1091 219.789 76.3503 218.192 75.0479L218.089 74.9636C216.493 73.6611 216.252 71.2897 217.554 69.693L228.153 56.6977C229.456 55.1011 231.827 54.8598 233.424 56.1622Z" fill="#4E3823"/>
</g>
<path d="M222.224 75.0808L222.121 74.997C220.519 73.6901 220.279 71.3277 221.586 69.7256L232.186 56.7309C233.493 55.1288 235.855 54.889 237.457 56.1959L237.56 56.2797C239.162 57.5865 239.402 59.9489 238.095 61.551L227.495 74.5458C226.188 76.1479 223.826 76.3877 222.224 75.0808Z" fill="#EF1664"/>
<g opacity="0.35">
<path d="M223.044 75.572C223.578 75.3391 224.066 74.9787 224.459 74.4962L234.976 61.6031C236.301 59.9805 236.058 57.5661 234.432 56.2414C234.156 56.0165 233.862 55.8389 233.552 55.7035C234.823 55.1496 236.355 55.3034 237.498 56.2361C239.124 57.5608 239.368 59.9762 238.042 61.5979L227.526 74.4909C226.426 75.8401 224.569 76.2387 223.044 75.572Z" fill="white"/>
</g>
<g opacity="0.3">
<path d="M222.163 75.0358C221.639 74.6075 221.259 74.07 221.028 73.4788C220.541 72.2372 220.718 70.7729 221.619 69.6734L232.132 56.7815C233.401 55.2212 235.675 54.9331 237.292 56.0807L227.589 67.978C226.69 69.0804 226.513 70.5447 227.001 71.7902C227.231 72.3775 227.611 72.9193 228.135 73.3433C228.2 73.3984 228.267 73.4472 228.335 73.497L227.526 74.4912C226.201 76.1168 223.786 76.3607 222.164 75.0344L222.163 75.0358Z" fill="#4E3823"/>
</g>
<path d="M219.481 74.0611C218.796 72.3129 219.047 70.2533 220.316 68.6977L230.915 55.7014C232.788 53.4058 236.179 53.0614 238.475 54.9345L238.577 55.0189C239.687 55.9232 240.378 57.2105 240.523 58.6406C240.668 60.0717 240.25 61.4701 239.346 62.579L228.746 75.5743C227.841 76.6833 226.556 77.3741 225.125 77.5193C223.694 77.6648 222.296 77.2468 221.186 76.3425L221.083 76.2582C220.344 75.6552 219.806 74.8937 219.48 74.0624L219.481 74.0611ZM236.419 57.4555C235.513 56.7169 234.174 56.853 233.437 57.7587L222.837 70.7539C222.098 71.6589 222.235 72.9983 223.14 73.7359L223.243 73.8202C223.679 74.1753 224.23 74.3397 224.796 74.2817C225.362 74.2238 225.87 73.9533 226.225 73.5171L236.824 60.5208C237.179 60.0856 237.343 59.5335 237.285 58.9675C237.228 58.4024 236.956 57.8944 236.521 57.5389L236.418 57.4546L236.419 57.4555Z" fill="#4E3823"/>
<g opacity="0.3">
<path d="M191.833 112.038L191.702 112.023C189.655 111.781 188.179 109.91 188.42 107.863L190.383 91.2089C190.624 89.1621 192.495 87.6859 194.542 87.9272L194.674 87.9429C196.721 88.1842 198.197 90.0553 197.955 92.1022L195.993 108.757C195.751 110.803 193.88 112.28 191.833 112.038Z" fill="#4E3823"/>
</g>
<path d="M195.312 110.679L195.18 110.663C193.133 110.422 191.657 108.551 191.898 106.504L193.861 89.8496C194.102 87.8027 195.974 86.3265 198.02 86.5678L198.152 86.5835C200.199 86.8249 201.675 88.6959 201.434 90.7428L199.471 107.397C199.23 109.444 197.359 110.92 195.312 110.679Z" fill="#EF1664"/>
<g opacity="0.35">
<path d="M196.185 110.664C196.766 110.08 197.162 109.307 197.263 108.429L199.212 91.9076C199.287 91.2682 199.197 90.6416 198.977 90.0787C198.48 88.8098 197.317 87.8458 195.873 87.6723C195.554 87.6368 195.242 87.639 194.936 87.6779C195.734 86.8766 196.88 86.4357 198.083 86.578C199.528 86.7465 200.693 87.7135 201.19 88.9833C201.411 89.5462 201.499 90.1699 201.424 90.8093L199.477 107.334C199.272 109.096 197.876 110.444 196.184 110.664L196.185 110.664Z" fill="white"/>
</g>
<g opacity="0.3">
<path d="M195.247 110.668C193.163 110.425 191.659 108.519 191.906 106.437L193.854 89.9124C194.077 87.9957 195.712 86.5694 197.598 86.5486C197.568 86.6771 197.546 86.8055 197.53 86.9396L195.582 103.461C195.339 105.545 196.838 107.448 198.924 107.695C199.089 107.714 199.252 107.722 199.412 107.72C198.991 109.594 197.196 110.898 195.248 110.666L195.247 110.668Z" fill="#4E3823"/>
</g>
<path d="M190.61 108.888C190.293 108.078 190.177 107.199 190.281 106.314L192.244 89.6598C192.591 86.7181 195.268 84.6059 198.209 84.9522L198.344 84.9687C199.762 85.1357 201.035 85.8494 201.926 86.9786C202.817 88.1087 203.215 89.5116 203.047 90.9331L201.085 107.587C200.737 110.529 198.061 112.641 195.12 112.295L194.984 112.279C193.567 112.112 192.294 111.398 191.403 110.269C191.067 109.843 190.801 109.379 190.609 108.889L190.61 108.888ZM199.689 89.5413C199.612 89.3468 199.507 89.1628 199.373 88.9932C199.02 88.5471 198.519 88.2645 197.961 88.1993L197.826 88.1828C196.669 88.047 195.613 88.8798 195.476 90.0405L193.513 106.695C193.447 107.253 193.604 107.806 193.958 108.253C194.311 108.699 194.812 108.982 195.37 109.047L195.504 109.063C196.664 109.199 197.718 108.366 197.855 107.206L199.817 90.5517C199.859 90.2047 199.814 89.8602 199.689 89.5413Z" fill="#4E3823"/>
<path d="M238.336 128.264C239.35 130.854 243.906 131.492 248.511 129.689C253.116 127.886 256.027 124.324 255.013 121.733C253.998 119.143 249.443 118.505 244.837 120.308C240.232 122.112 237.321 125.674 238.336 128.264Z" fill="white"/>
<path d="M243.22 145.038C244.232 147.623 248.786 148.256 253.391 146.453C257.996 144.649 260.909 141.092 259.897 138.508C258.885 135.923 254.331 135.29 249.726 137.093C245.121 138.897 242.208 142.454 243.22 145.038Z" fill="white"/>
<path d="M236.821 128.856C235.458 125.376 238.719 120.956 244.244 118.792C249.77 116.628 255.165 117.659 256.528 121.139C257.89 124.619 254.63 129.039 249.104 131.203C243.579 133.366 238.183 132.335 236.821 128.856ZM253.497 122.326C252.91 120.827 249.336 120.293 245.43 121.822C241.524 123.352 239.263 126.171 239.85 127.67C240.437 129.169 244.011 129.703 247.917 128.173C251.823 126.644 254.084 123.825 253.497 122.326Z" fill="#4E3823"/>
<path d="M241.706 145.63C240.345 142.156 243.608 137.741 249.133 135.577C254.659 133.413 260.052 134.439 261.412 137.913C262.773 141.387 259.51 145.803 253.985 147.966C248.459 150.13 243.066 149.104 241.706 145.63ZM258.381 139.1C257.796 137.606 254.224 137.078 250.319 138.607C246.413 140.137 244.149 142.95 244.734 144.444C245.32 145.939 248.892 146.466 252.797 144.937C256.703 143.408 258.967 140.594 258.381 139.1Z" fill="#4E3823"/>
<path d="M243.758 135.47C244.784 138.088 249.348 138.748 253.953 136.944C258.558 135.141 261.46 131.557 260.435 128.939C259.41 126.321 254.846 125.661 250.241 127.465C245.635 129.268 242.733 132.852 243.758 135.47Z" fill="white"/>
<path d="M242.244 136.062C240.87 132.555 244.122 128.112 249.648 125.948C255.173 123.785 260.577 124.838 261.95 128.345C263.324 131.852 260.072 136.294 254.546 138.458C249.021 140.622 243.617 139.569 242.244 136.062ZM258.92 129.531C258.323 128.009 254.739 127.449 250.833 128.978C246.927 130.508 244.676 133.353 245.273 134.876C245.869 136.398 249.453 136.957 253.359 135.428C257.264 133.898 259.516 131.053 258.92 129.531Z" fill="#4E3823"/>
<path d="M252.146 169.084C254.296 170.85 258.583 169.183 261.722 165.361C264.861 161.539 265.663 157.009 263.513 155.244C261.363 153.478 257.076 155.145 253.937 158.967C250.798 162.789 249.996 167.319 252.146 169.084Z" fill="white"/>
<path d="M266.118 180.562C268.263 182.323 272.546 180.653 275.685 176.831C278.824 173.009 279.629 168.482 277.484 166.721C275.339 164.959 271.056 166.63 267.917 170.452C264.778 174.274 263.973 178.8 266.118 180.562Z" fill="white"/>
<path d="M249.727 168.431C248.647 165.673 249.706 161.539 252.663 157.938C256.429 153.352 261.641 151.618 264.529 153.991C266.042 155.235 266.631 157.304 266.186 159.819C265.8 162.001 264.655 164.337 262.962 166.397C259.196 170.982 253.985 172.716 251.097 170.345C250.477 169.836 250.022 169.184 249.727 168.43L249.727 168.431ZM262.894 157.127C262.792 156.866 262.649 156.657 262.465 156.505C261.221 155.482 257.84 156.762 255.178 160.003C252.517 163.243 251.916 166.809 253.162 167.83C254.406 168.852 257.787 167.572 260.448 164.331C261.773 162.719 262.696 160.867 262.983 159.251C263.136 158.388 263.101 157.655 262.894 157.126L262.894 157.127Z" fill="#4E3823"/>
<path d="M263.703 179.914C262.625 177.159 263.686 173.025 266.645 169.421C268.338 167.361 270.405 165.783 272.468 164.979C274.848 164.052 276.99 164.224 278.502 165.467C281.383 167.835 280.693 173.28 276.928 177.866C273.162 182.45 267.954 184.188 265.07 181.821C264.452 181.314 263.998 180.664 263.704 179.912L263.703 179.914ZM276.873 168.612C276.771 168.349 276.624 168.136 276.437 167.982C275.883 167.526 274.867 167.537 273.65 168.013C272.121 168.609 270.484 169.876 269.16 171.488C266.498 174.73 265.896 178.291 267.135 179.309C268.374 180.327 271.75 179.044 274.412 175.803C276.67 173.054 277.446 170.075 276.874 168.613L276.873 168.612Z" fill="#4E3823"/>
<path d="M261.617 171.7C263.79 173.485 268.095 171.833 271.234 168.011C274.373 164.189 275.156 159.644 272.984 157.86C270.811 156.075 266.505 157.727 263.366 161.549C260.228 165.371 259.444 169.916 261.617 171.7Z" fill="white"/>
<path d="M259.155 170.993C258.727 169.901 258.629 168.584 258.882 167.115C259.26 164.925 260.402 162.582 262.095 160.521C263.789 158.458 265.865 156.883 267.941 156.087C270.327 155.172 272.48 155.356 274.002 156.607C275.525 157.856 276.124 159.933 275.69 162.451C275.312 164.641 274.17 166.984 272.477 169.046C270.783 171.109 268.707 172.683 266.631 173.479C264.245 174.395 262.092 174.211 260.57 172.96C259.935 172.438 259.46 171.774 259.155 170.993ZM272.384 159.767C272.278 159.497 272.128 159.278 271.936 159.12C271.366 158.652 270.334 158.653 269.105 159.124C267.571 159.713 265.932 160.975 264.609 162.585C263.286 164.195 262.368 166.048 262.088 167.668C261.864 168.965 262.063 169.977 262.634 170.445C263.204 170.913 264.236 170.912 265.465 170.441C267 169.852 268.639 168.591 269.961 166.98C271.284 165.37 272.203 163.517 272.482 161.897C272.631 161.036 272.593 160.301 272.383 159.766L272.384 159.767Z" fill="#4E3823"/>
<path d="M196.083 238.601C137.399 252.662 92.0367 175.416 115.991 122.282C117.246 119.488 118.693 116.768 120.339 114.132C138.062 85.7285 183.07 114.153 183.07 114.153C183.07 114.153 192.706 131.373 214.977 128.473C216.483 128.281 218.048 127.992 219.668 127.602C227.334 125.753 232.004 124.405 235.327 123.676C239.504 122.752 241.548 122.799 244.742 124.038C251.435 126.628 257.67 136.875 251.759 144.536C245.888 152.15 229.003 163.642 206.835 162.425C204.047 162.277 201.173 161.921 198.226 161.332C204.635 185.104 214.87 187.77 214.87 187.77C221.211 186.375 233.756 180.589 247.298 168.576C261.663 155.836 273.464 166.69 273.136 176.904C272.11 208.828 214.508 234.186 196.083 238.601Z" fill="#ECC18E"/>
<path d="M118.241 115.299C95.7879 152.102 112.786 204.443 143.262 225.555C188.622 225.555 209.137 181.914 209.137 181.914C204.646 175.862 202.515 171.674 199.568 162.35C199.568 162.35 212.78 166.209 237.623 157.212C225.474 143.132 225.983 139.544 224.249 125.98L198.815 127.687L155.112 129.328" fill="#ACD13F"/>
<path fill-rule="evenodd" clip-rule="evenodd" d="M209.137 181.914C209.137 181.914 188.622 225.555 143.262 225.555C112.786 204.443 95.7879 152.102 118.241 115.299L120.802 116.861C110.091 134.418 108.709 155.83 113.808 175.561C118.823 194.967 130.019 212.387 144.203 222.549C165.347 222.253 180.789 212.019 191.077 201.624C196.297 196.351 200.152 191.07 202.7 187.11C203.972 185.132 204.914 183.491 205.532 182.355C205.564 182.297 205.594 182.24 205.624 182.185C201.631 176.573 199.491 172.058 196.707 163.254L195.012 157.894L200.393 159.465C200.391 159.465 200.392 159.465 200.396 159.466C200.396 159.466 200.396 159.466 200.396 159.466C200.404 159.469 200.426 159.474 200.459 159.483C200.527 159.5 200.645 159.529 200.813 159.565C201.15 159.637 201.688 159.739 202.424 159.839C203.896 160.04 206.164 160.231 209.204 160.156C214.577 160.022 222.39 159.051 232.513 155.791C228.183 150.468 225.714 146.497 224.216 142.442C222.743 138.455 222.26 134.461 221.652 129.433C221.641 129.343 221.63 129.253 221.619 129.163L198.971 130.683L155.224 132.326L155.112 129.328L198.815 127.687L224.249 125.98C224.393 127.105 224.521 128.163 224.643 129.163C225.897 139.483 226.413 143.731 235.553 154.766C236.199 155.546 236.888 156.36 237.623 157.212C236.588 157.587 235.574 157.94 234.579 158.271C218.666 163.574 207.951 163.473 202.902 162.92C200.692 162.678 199.568 162.35 199.568 162.35C199.938 163.522 200.296 164.614 200.647 165.638C203.089 172.757 205.211 176.624 209.137 181.914Z" fill="#4E3823"/>
<g opacity="0.35">
<path d="M235.497 154.971C235.497 154.971 238.295 153.841 244.896 146.521C249.847 141.032 249.588 134.078 246.067 129.495C243.512 126.158 238.095 124.392 235.326 123.681C239.502 122.758 241.547 122.805 244.74 124.044C251.433 126.634 257.669 136.881 251.758 144.541C245.886 152.156 235.521 154.961 235.497 154.971Z" fill="white"/>
</g>
<g opacity="0.3">
<path d="M196.083 238.605C137.399 252.666 92.0363 175.42 115.991 122.286C116.755 120.589 117.587 118.922 118.492 117.284C118.686 116.933 118.88 116.581 119.084 116.231C119.49 115.526 119.907 114.83 120.339 114.137C120.758 113.466 121.192 112.825 121.64 112.217C121.863 111.916 122.091 111.617 122.323 111.33C122.437 111.184 122.556 111.042 122.671 110.901C123.025 110.478 123.381 110.072 123.75 109.683C124.115 109.291 124.489 108.917 124.87 108.563C125.125 108.322 125.38 108.093 125.641 107.867C126.313 107.285 127.007 106.747 127.719 106.258C127.966 106.087 128.219 105.918 128.471 105.758C129.863 104.863 131.321 104.136 132.825 103.547C133.097 103.44 133.376 103.335 133.653 103.24C133.928 103.142 134.211 103.048 134.491 102.96C134.739 102.881 134.985 102.806 135.236 102.734C135.31 102.709 135.385 102.689 135.465 102.67C135.697 102.605 135.931 102.544 136.164 102.483C136.204 102.472 136.243 102.461 136.284 102.454C136.512 102.4 136.74 102.346 136.965 102.297C137.016 102.281 137.068 102.27 137.125 102.26C137.391 102.204 137.659 102.151 137.923 102.1C138.504 101.99 139.093 101.899 139.683 101.821C159.439 99.2338 183.069 114.157 183.069 114.157C183.069 114.157 192.704 131.376 214.975 128.477C204.588 133.239 192.07 136.25 178.476 137.485C165.159 138.696 152.548 138.048 141.622 135.384C132.988 133.278 124.72 140.06 124.975 148.942C126.308 195.406 164.686 242.441 211.565 231.208C215.79 230.196 222.068 228.082 229.257 225.045C216.034 232.115 203.165 236.906 196.081 238.604L196.083 238.605Z" fill="#4E3823"/>
</g>
<path d="M115.999 188.767C112.715 180.38 110.276 170.839 109.403 162.022C107.592 143.76 110.158 127.371 118.958 113.268C123.079 106.664 128.943 102.453 136.389 100.75C157.077 96.0186 182.85 112.092 183.936 112.778L184.285 113L184.487 113.36C184.912 114.114 195.229 131.823 219.285 126.02C223.181 125.08 226.333 124.262 228.867 123.604C237.726 121.305 240.4 120.612 245.327 122.519C249.837 124.265 253.807 128.806 255.208 133.822C256.385 138.04 255.618 142.197 253.049 145.527C245.946 154.733 225.641 167.323 200.502 163.388C205.857 181.236 213.337 185.365 214.976 186.074C221.513 184.494 233.412 178.718 246.216 167.361C255.318 159.287 262.555 160.839 266.057 162.483C271.376 164.979 274.954 170.932 274.761 176.956C274.184 194.941 256.636 209.983 242.017 219.435C224.288 230.897 205.06 238.122 196.462 240.183C170.463 246.414 150.998 231.018 127.361 209.622C122.606 203.02 119.004 196.44 115.999 188.767ZM181.877 115.332C178.852 113.502 155.286 99.7622 137.108 103.924C130.541 105.427 125.364 109.151 121.72 114.992C105.297 141.31 108.267 179.741 128.94 208.452C146.076 232.25 171.034 242.929 195.704 237.018C211.467 233.241 270.491 208.594 271.509 176.851C271.662 172.086 268.852 167.387 264.676 165.428C259.877 163.177 254.088 164.728 248.375 169.795C234.8 181.835 222.031 187.859 215.219 189.358L214.837 189.441L214.458 189.343C214.004 189.224 203.236 186.161 196.653 161.753L195.97 159.219L198.543 159.733C223.431 164.708 243.603 152.44 250.471 143.539C252.941 140.337 252.706 136.963 252.073 134.695C250.953 130.681 247.697 126.924 244.152 125.552C240.202 124.022 238.39 124.493 229.685 126.752C227.14 127.412 223.972 128.234 220.05 129.18C206.231 132.514 196.534 128.49 190.834 124.529C185.548 120.855 182.676 116.618 181.879 115.33L181.877 115.332Z" fill="#4E3823"/>
<g opacity="0.3">
<path d="M137.923 102.092C138.505 101.982 139.092 101.887 139.683 101.813C139.094 101.891 138.505 101.982 137.923 102.092Z" fill="#4E3823"/>
</g>
<path d="M245.064 85.7052C245.065 117.456 213.632 132.479 174.855 132.48C136.079 132.481 104.641 117.461 104.64 85.7096C104.639 55.2785 124.395 20.5221 168.928 17.6892C174.311 14.9418 181.608 10.1834 185.714 3.13911C186.999 0.936939 190.257 1.25474 191.066 3.67961C192.141 6.90219 193.123 11.1343 190.963 16.5994C196.921 13.7064 202.841 10.4136 204.791 8.66454C206.878 6.79201 210.193 8.32294 210.097 11.1238C210.001 13.8324 209.023 19.5771 207.891 24.3927C233.422 36.4558 245.062 62.3551 245.061 85.7073L245.064 85.7052Z" fill="#ECC18E"/>
<g opacity="0.45">
<path d="M242.494 100.352C243.176 97.3555 243.53 94.1747 243.529 90.8061C243.529 68.8437 231.56 43.3413 208.897 30.349C206.32 28.8719 204.983 25.9092 205.627 23.0104C206.355 19.7402 206.956 16.6653 207.02 14.8729C207.117 12.072 205.345 11.8922 203.258 13.7638C201.734 15.1318 197.783 17.443 193.284 19.7674C191.905 20.4803 190.269 19.3347 190.512 17.8018C191.088 14.1672 190.337 11.1915 189.532 8.78021C188.723 6.35534 187.339 5.74922 185.403 9.09188C182.679 13.7964 177.975 17.0953 173.546 19.5855C170.005 21.5766 166.085 22.7841 162.055 23.2938C132.06 27.0924 114.298 46.0417 107 67.4148C113.427 42.7696 133.206 19.9579 168.929 17.6853C174.312 14.9379 181.609 10.1795 185.715 3.1352C187 0.933031 190.258 1.25084 191.067 3.6757C192.142 6.89828 193.124 11.1304 190.964 16.5955C196.922 13.7025 202.842 10.4097 204.792 8.66064C206.879 6.78811 210.194 8.31903 210.098 11.1199C210.002 13.8285 209.024 19.5732 207.892 24.3888C233.423 36.4519 245.062 62.3512 245.062 85.7034C245.063 91.06 244.168 95.9408 242.492 100.353L242.494 100.352Z" fill="white"/>
</g>
<path d="M231.197 81.4144C231.197 90.6671 228.394 100.626 219.992 108.321C211.407 116.194 196.973 121.706 173.704 121.706L173.701 121.707C150.676 121.707 136.301 116.309 127.682 108.574C119.067 100.843 116.202 90.7695 116.202 81.417C116.202 79.5161 116.358 77.6495 116.661 75.8352C119.321 59.7847 133.268 47.5477 150.068 47.5468C159.257 47.547 167.6 51.207 173.698 57.1521C179.799 51.2068 188.137 47.5457 197.327 47.5455C213.921 47.5446 227.726 59.4745 230.629 75.228L230.63 75.2309C231.003 77.2349 231.196 79.302 231.196 81.4125L231.197 81.4144Z" fill="#FEFAFB"/>
<path d="M182.274 83.4975C182.274 86.3807 178.436 89.8453 173.699 89.8454C168.963 89.8451 165.124 86.3808 165.123 83.498C165.123 80.6148 168.962 79.4052 173.698 79.4055C178.434 79.4057 182.274 80.6147 182.273 83.4979L182.274 83.4975Z" fill="#4E3823"/>
<g opacity="0.5">
<path d="M177.433 81.9019C177.433 82.5757 175.87 83.3863 173.941 83.3859C172.013 83.3865 170.449 82.5756 170.45 81.9014C170.449 81.2276 172.013 80.944 173.942 80.9444C175.87 80.9439 177.433 81.2267 177.433 81.9019Z" fill="#FEFAFB"/>
</g>
<path d="M159.221 94.327C159.058 93.9109 158.93 93.4833 158.835 93.0528C158.641 92.1757 159.194 91.3073 160.072 91.113C160.949 90.9187 161.822 91.4728 162.011 92.3495C162.557 94.818 164.23 95.77 166.98 95.164C171.87 94.0857 172.068 88.2027 172.073 87.9528L175.326 87.9584C175.332 88.2041 175.53 94.0869 180.42 95.1646C183.169 95.7702 184.841 94.8231 185.387 92.3495C185.581 91.4729 186.449 90.9186 187.327 91.1121C188.203 91.3064 188.757 92.1748 188.564 93.052C187.826 96.3892 185.115 99.5308 179.72 98.3412C176.762 97.6885 174.864 95.8637 173.7 93.8268C172.535 95.864 170.638 97.6891 167.681 98.3414C162.982 99.3775 160.318 97.1282 159.221 94.327Z" fill="#4E3823"/>
<path d="M105.843 101.285C103.97 96.5013 103.015 91.2874 103.015 85.7085C103.014 69.5664 108.252 53.9189 117.766 41.6472C128.811 27.401 144.924 18.69 164.366 16.4583C165.258 16.3554 166.066 16.9946 166.167 17.889C166.27 18.7818 165.63 19.5888 164.737 19.6907C124.564 24.3035 106.268 57.1451 106.269 85.7081C106.27 100.225 112.927 111.631 126.054 119.611C138.153 126.966 155.03 130.854 174.857 130.853C194.685 130.852 211.559 126.964 223.657 119.608C236.783 111.627 243.438 100.22 243.438 85.704C243.437 64.9696 233.86 38.3335 206.982 25.7559C206.168 25.375 205.818 24.4064 206.198 23.5926C206.579 22.7784 207.547 22.4283 208.361 22.8082C220.633 28.5515 230.682 37.9263 237.42 49.9208C243.486 60.7207 246.691 73.0917 246.691 85.704C246.692 101.213 239.311 113.899 225.347 122.388C212.74 130.053 195.28 134.106 174.856 134.106C154.432 134.107 136.971 130.057 124.362 122.391C115.42 116.956 109.177 109.801 105.842 101.285L105.843 101.285Z" fill="#4E3823"/>
<path d="M161.883 81.8869C160.444 91.913 152.371 94.2703 141.829 98.5085C135.214 101.166 130.66 105.104 127.682 108.568C119.066 100.836 116.202 90.7632 116.202 81.4107C116.202 79.5098 116.358 77.6433 116.661 75.829C122.873 69.3741 132.685 63.1754 146.812 64.8752C157.152 66.1214 162.916 74.6901 161.883 81.8859L161.883 81.8869Z" fill="#967660"/>
<path d="M231.197 81.4077C231.197 90.6604 228.393 100.62 219.992 108.315C217.007 104.914 212.513 101.1 206.055 98.5056C195.512 94.2686 187.44 91.9112 185.999 81.8847C184.966 74.6897 190.73 66.1199 201.069 64.8735C214.756 63.2221 224.395 68.9906 230.63 75.2219L230.631 75.2248C231.004 77.2288 231.197 79.2959 231.197 81.4064L231.197 81.4077Z" fill="#967660"/>
<path d="M163.036 18.6676C163.002 18.5801 162.975 18.4886 162.955 18.3931C162.778 17.5128 163.349 16.6544 164.229 16.4778C164.361 16.4508 177.725 13.6129 184.31 2.31736C185.233 0.733642 186.933 -0.133967 188.747 0.0539139C190.552 0.239979 192.022 1.4236 192.61 3.16023C194.954 10.1833 194.284 15.9369 190.675 19.7983C190.062 20.4545 189.031 20.4891 188.375 19.8758C187.721 19.2618 187.684 18.2335 188.298 17.5759C191.764 13.867 190.877 8.24952 189.523 4.18994C189.275 3.45479 188.665 3.31598 188.413 3.28992C188.214 3.26946 187.529 3.25616 187.121 3.9563C179.783 16.5411 165.476 19.5457 164.871 19.6672C164.085 19.8257 163.318 19.3881 163.036 18.6676Z" fill="#4E3823"/>
<path d="M189.385 17.3664C189.342 17.2555 189.31 17.1378 189.291 17.0151C189.157 16.127 189.768 15.2976 190.656 15.1629C194.162 14.6324 198.673 11.9674 203.705 7.45369C205.17 6.13995 207.185 5.84064 208.965 6.6734C210.734 7.50007 211.79 9.22711 211.723 11.18C211.51 17.2943 210.638 21.9454 209.13 25.0032C208.732 25.8093 207.756 26.14 206.951 25.7421C206.144 25.3449 205.814 24.3693 206.212 23.5632C207.497 20.9583 208.278 16.637 208.471 11.0663C208.504 10.1216 207.803 9.71996 207.586 9.61969C207.367 9.51727 206.594 9.23243 205.877 9.87545C200.293 14.8835 195.335 17.7444 191.143 18.3791C190.378 18.4949 189.656 18.0567 189.385 17.3654L189.385 17.3664Z" fill="#4E3823"/>
<path d="M133.625 81.478C133.967 81.0401 134.247 80.7241 134.581 80.3915C134.9 80.0589 135.25 79.7694 135.598 79.4741C135.946 79.1761 136.323 78.9256 136.696 78.6603C137.076 78.4064 137.475 78.1837 137.871 77.9481C139.484 77.0731 141.287 76.4769 143.161 76.222C144.092 76.0579 145.053 76.0798 145.999 76.0872C146.946 76.1975 147.896 76.2686 148.802 76.5631C150.64 77.0139 152.301 77.9569 153.688 79.1226C154.436 79.7507 154.532 80.8656 153.904 81.6128C153.528 82.0607 152.977 82.2743 152.435 82.2387L152.122 82.2165C151.731 82.1881 151.362 82.134 151.001 82.0769C150.64 82.0221 150.299 81.9236 149.936 81.9198C149.582 81.8868 149.238 81.8457 148.898 81.7981C148.562 81.7348 148.212 81.7697 147.879 81.7329C147.211 81.6569 146.543 81.7145 145.886 81.6901C145.225 81.7516 144.57 81.7471 143.911 81.8594C142.595 82.0215 141.267 82.3039 139.925 82.706L138.914 83.0223C138.584 83.148 138.232 83.2442 137.898 83.3728L137.383 83.5531C137.215 83.619 137.051 83.688 136.875 83.7466C136.544 83.8652 136.173 84.0272 135.895 84.1013L135.434 84.2236C134.508 84.4694 133.56 83.9178 133.314 82.9925C133.17 82.45 133.306 81.8922 133.625 81.4803L133.625 81.478Z" fill="#4E3823"/>
<path d="M212.983 84.0964C212.705 84.0228 212.335 83.8604 212.003 83.7426C211.827 83.6845 211.662 83.6146 211.494 83.5492L210.98 83.3694C210.645 83.2415 210.294 83.1446 209.963 83.0194L208.953 82.7032C207.611 82.3012 206.283 82.0195 204.966 81.8565C204.308 81.7443 203.652 81.7491 202.99 81.6873C202.334 81.7112 201.665 81.6544 200.997 81.7298C200.664 81.7662 200.315 81.7312 199.979 81.7945C199.64 81.8431 199.295 81.884 198.941 81.9171C198.579 81.9199 198.238 82.0189 197.876 82.0742C197.515 82.1315 197.145 82.1853 196.754 82.214L196.452 82.2359C195.478 82.3065 194.633 81.5735 194.563 80.6007C194.52 80.0173 194.775 79.4735 195.188 79.1213C196.574 77.9561 198.235 77.0128 200.074 76.5619C200.979 76.2679 201.929 76.1965 202.876 76.0858C203.822 76.0787 204.783 76.0566 205.714 76.2203C207.588 76.4755 209.39 77.0716 211.003 77.946C211.399 78.1826 211.797 78.4044 212.177 78.6582C212.551 78.9233 212.928 79.1737 213.277 79.4725C213.624 79.768 213.974 80.0571 214.294 80.3895C214.628 80.7227 214.907 81.0387 215.25 81.4763C215.84 82.2298 215.707 83.3192 214.953 83.9092C214.511 84.2551 213.954 84.3532 213.45 84.2221L212.979 84.097L212.983 84.0964Z" fill="#4E3823"/>
<path fill-rule="evenodd" clip-rule="evenodd" d="M416.597 76.2907C416.198 68.184 412.978 64.7669 406.937 66.0365C413.416 63.7919 416.937 59.1024 417.494 51.9688C418.147 59.6935 420.482 63.9533 424.497 64.7537C419.494 67.2797 416.859 71.1265 416.597 76.2907Z" fill="#FEDA24"/>
<path d="M416.596 77.2637C416.078 77.2637 415.652 76.8569 415.627 76.3406C415.415 72.0545 414.395 69.1772 412.593 67.7863C411.26 66.7579 409.475 66.4967 407.136 66.9887C406.635 67.0954 406.137 66.7912 406.001 66.2978C405.864 65.8037 406.135 65.2888 406.619 65.1211C412.757 62.995 415.997 58.6686 416.525 51.8953C416.565 51.3908 416.985 51.0014 417.491 51H417.494C417.999 51 418.419 51.386 418.462 51.8891C419.071 59.0927 421.166 63.101 424.687 63.8037C425.094 63.8848 425.404 64.2146 425.459 64.6249C425.516 65.0358 425.305 65.4364 424.935 65.6228C420.222 68.0018 417.812 71.5084 417.568 76.342C417.541 76.8583 417.115 77.2637 416.597 77.2637H416.596ZM411.266 65.0462C412.2 65.2777 413.04 65.6782 413.779 66.2486C415.162 67.3158 416.161 68.9201 416.791 71.1016C417.87 68.6401 419.68 66.5819 422.209 64.9451C419.943 63.6894 418.325 61.1572 417.369 57.3734C416.2 60.6381 414.16 63.2022 411.266 65.0455V65.0462Z" fill="#4E3823"/>
<path fill-rule="evenodd" clip-rule="evenodd" d="M67.3436 71.1697C66.8445 61.0334 62.8188 56.7607 55.2646 58.3482C63.3664 55.5416 67.7691 49.678 68.4649 40.7583C69.282 50.4171 72.2021 55.7435 77.2217 56.7443C70.9656 59.9027 67.672 64.7126 67.3436 71.1697Z" fill="#FEDA24"/>
<path d="M67.3431 72.3867C66.6959 72.3867 66.163 71.8781 66.1309 71.2325C65.8666 65.8732 64.5911 62.2756 62.3382 60.5365C60.6711 59.2506 58.439 58.924 55.5146 59.5392C54.8881 59.6726 54.266 59.2922 54.0953 58.6753C53.9237 58.0575 54.2625 57.4136 54.8682 57.204C62.5427 54.5455 66.5945 49.136 67.2547 40.6669C67.3041 40.0361 67.8292 39.5491 68.4618 39.5474H68.4661C69.0969 39.5474 69.6229 40.03 69.6757 40.6591C70.4374 49.6663 73.0568 54.6781 77.4603 55.5567C77.9681 55.6581 78.3563 56.0706 78.4256 56.5835C78.4958 57.0974 78.2324 57.5982 77.7697 57.8313C71.8775 60.806 68.8638 65.1904 68.558 71.2343C68.525 71.8798 67.9921 72.3867 67.3449 72.3867H67.3431ZM60.678 57.1104C61.8469 57.3998 62.8971 57.9006 63.8208 58.6137C65.5503 59.9481 66.799 61.9541 67.5875 64.6818C68.9366 61.604 71.199 59.0305 74.3617 56.9839C71.5283 55.4138 69.505 52.2476 68.3093 47.5165C66.8475 51.5986 64.2974 54.8046 60.678 57.1095V57.1104Z" fill="#4E3823"/>
<path fill-rule="evenodd" clip-rule="evenodd" d="M80.6137 172.109C80.335 166.458 78.0907 164.075 73.8789 164.96C78.3961 163.396 80.8505 160.127 81.238 155.153C81.6932 160.538 83.3217 163.508 86.12 164.066C82.6321 165.827 80.7953 168.509 80.6129 172.109" fill="#FEDA24"/>
<path d="M80.6137 172.99C80.1451 172.99 79.7593 172.622 79.7359 172.154C79.5919 169.229 78.9066 167.273 77.6999 166.341C76.8204 165.662 75.6296 165.492 74.0605 165.823C73.607 165.918 73.1559 165.644 73.0321 165.197C72.9082 164.749 73.1534 164.283 73.5919 164.131C77.7861 162.678 80.0012 159.719 80.3627 155.086C80.3987 154.629 80.7786 154.276 81.2363 154.275H81.2388C81.6957 154.275 82.0765 154.625 82.115 155.08C82.5309 160.002 83.9368 162.735 86.2924 163.205C86.6606 163.279 86.941 163.577 86.992 163.949C87.0422 164.321 86.8523 164.684 86.5167 164.853C83.3024 166.475 81.6589 168.865 81.4916 172.155C81.4681 172.623 81.0815 172.99 80.6129 172.99H80.6137ZM77.3744 164.198C77.884 164.372 78.3509 164.622 78.7735 164.948C79.6631 165.634 80.3309 166.624 80.7861 167.937C81.5259 166.48 82.6472 165.234 84.1451 164.21C82.7836 163.338 81.7727 161.787 81.12 159.571C80.3217 161.481 79.0706 163.027 77.3744 164.198Z" fill="#4E3823"/>
</g>
<defs>
<clipPath id="clip0_1072_114253">
<rect width="440" height="224" fill="white"/>
</clipPath>
</defs>
</svg>
